<svg xmlns="http://www.w3.org/2000/svg" width="290.67" height="371.113" viewBox="0 0 290.67 371.113">
  <g id="Grupo_1111440" data-name="Grupo 1111440" transform="translate(-1124.902 -9058.341)">
    <g id="Grupo_68378" data-name="Grupo 68378" transform="translate(1124.902 9058.341)">
      <g id="Grupo_68365" data-name="Grupo 68365">
        <path id="Trazado_134161" data-name="Trazado 134161" d="M818.9,640.975H592.121v-326.3H843.816V619.722C843.816,631.46,832.661,640.975,818.9,640.975Z" transform="translate(-592.062 -314.671)" fill="#f7f7f7"/>
        <path id="Trazado_134197" data-name="Trazado 134197" d="M0,0H251.274V15.149H0Z" transform="translate(0 0)" fill="#cdb9f8"/>
      </g>
      <g id="Grupo_68367" data-name="Grupo 68367" transform="translate(59.617 175.623)">
        <g id="Grupo_68366" data-name="Grupo 68366">
          <path id="Trazado_134162" data-name="Trazado 134162" d="M851.908,705.146c3.39,0,3.39-3.831,0-3.831H725.783c-3.389,0-3.389,3.831,0,3.831H851.908Z" transform="translate(-723.24 -701.315)" fill="#5e6178"/>
        </g>
      </g>
      <g id="Grupo_68368" data-name="Grupo 68368" transform="translate(53.907 25.656)">
        <path id="Trazado_134163" data-name="Trazado 134163" d="M795.783,371.155a66.716,66.716,0,0,0-50.559,23.092l50.559,43.809,50.559-43.809A66.718,66.718,0,0,0,795.783,371.155Z" transform="translate(-729.529 -371.155)" fill="#aed3f2"/>
        <path id="Trazado_134164" data-name="Trazado 134164" d="M933.36,496.858l-66.217,9.521v66.9a66.863,66.863,0,0,0,66.9-66.9A67.609,67.609,0,0,0,933.36,496.858Z" transform="translate(-796.069 -439.761)" fill="#5e6178"/>
        <path id="Trazado_134165" data-name="Trazado 134165" d="M726.436,422.481a66.877,66.877,0,0,0,15.754,99.884l35.4-56.765Z" transform="translate(-710.67 -399.167)" fill="#6595bf"/>
        <path id="Trazado_134166" data-name="Trazado 134166" d="M814.338,584.512a66.587,66.587,0,0,1-36.167-10.624l36.174-56.275Z" transform="translate(-747.51 -451.088)" fill="#5e6178"/>
        <path id="Trazado_134167" data-name="Trazado 134167" d="M940.849,447.545a66.6,66.6,0,0,0-15.658-34.289l-50.559,43.809Z" transform="translate(-800.156 -394.133)" fill="#5e6178"/>
      </g>
      <g id="Grupo_68373" data-name="Grupo 68373" transform="translate(29.65 134.142)">
        <g id="Grupo_68369" data-name="Grupo 68369" transform="translate(0 33.382)">
          <rect id="Rectángulo_31715" data-name="Rectángulo 31715" width="24.577" height="59.198" transform="translate(0 22.922)" fill="#fd9826"/>
          <rect id="Rectángulo_31716" data-name="Rectángulo 31716" width="24.577" height="27.818" fill="#fd9826"/>
        </g>
        <g id="Grupo_68371" data-name="Grupo 68371" transform="translate(107.865 48.738)">
          <rect id="Rectángulo_31719" data-name="Rectángulo 31719" width="24.577" height="62.536" transform="translate(0 5.564)" fill="#fd9826"/>
          <rect id="Rectángulo_31720" data-name="Rectángulo 31720" width="24.577" height="41.505" fill="#d9a171"/>
        </g>
        <g id="Grupo_68372" data-name="Grupo 68372" transform="translate(53.932)">
          <rect id="Rectángulo_31721" data-name="Rectángulo 31721" width="24.577" height="83.984" transform="translate(0 32.52)" fill="#fed6a8"/>
          <rect id="Rectángulo_31722" data-name="Rectángulo 31722" width="24.577" height="67.173" fill="#d9a171"/>
        </g>
      </g>
      <g id="Grupo_68377" data-name="Grupo 68377" transform="translate(6.368 5.395)">
        <g id="Grupo_68374" data-name="Grupo 68374">
          <path id="Trazado_134168" data-name="Trazado 134168" d="M609.243,333.012a3.232,3.232,0,1,1,3.232-3.232A3.236,3.236,0,0,1,609.243,333.012Zm0-5.925a2.693,2.693,0,1,0,2.694,2.693A2.7,2.7,0,0,0,609.243,327.087Z" transform="translate(-606.011 -326.548)" fill="#fff"/>
        </g>
        <g id="Grupo_68375" data-name="Grupo 68375" transform="translate(9.965)">
          <path id="Trazado_134169" data-name="Trazado 134169" d="M631.182,333.012a3.232,3.232,0,1,1,3.232-3.232A3.236,3.236,0,0,1,631.182,333.012Zm0-5.925a2.693,2.693,0,1,0,2.693,2.693A2.7,2.7,0,0,0,631.182,327.087Z" transform="translate(-627.95 -326.548)" fill="#fff"/>
        </g>
        <g id="Grupo_68376" data-name="Grupo 68376" transform="translate(19.93)">
          <path id="Trazado_134170" data-name="Trazado 134170" d="M653.121,333.012a3.232,3.232,0,1,1,3.232-3.232A3.236,3.236,0,0,1,653.121,333.012Zm0-5.925a2.693,2.693,0,1,0,2.693,2.693A2.7,2.7,0,0,0,653.121,327.087Z" transform="translate(-649.889 -326.548)" fill="#fff"/>
        </g>
      </g>
    </g>
    <g id="Grupo_68389" data-name="Grupo 68389" transform="translate(1208.482 9254.834)">
      <g id="Grupo_68386" data-name="Grupo 68386" transform="translate(0 62.517)">
        <path id="Trazado_134178" data-name="Trazado 134178" d="M1008.236,567.172a.535.535,0,0,1-.529-.461c-.1-.722-.164-1.456-.193-2.181a.534.534,0,1,1,1.068-.042c.028.691.09,1.39.184,2.077a.534.534,0,0,1-.456.6A.553.553,0,0,1,1008.236,567.172Z" transform="translate(-1007.514 -563.974)" fill="#5d66d3"/>
      </g>
      <g id="Grupo_68387" data-name="Grupo 68387" transform="translate(0.239 5.826)">
        <path id="Trazado_134179" data-name="Trazado 134179" d="M1008.721,458.384a.564.564,0,0,1-.081-.006.534.534,0,0,1-.448-.609,25.137,25.137,0,0,1,1.03-4.223.535.535,0,0,1,1.013.341,24,24,0,0,0-.987,4.042A.535.535,0,0,1,1008.721,458.384Zm2.673-8.048a.535.535,0,0,1-.475-.78,33.6,33.6,0,0,1,2.234-3.705.535.535,0,0,1,.879.608,32.457,32.457,0,0,0-2.162,3.587A.536.536,0,0,1,1011.394,450.336Zm4.818-7a.534.534,0,0,1-.4-.885c.924-1.06,1.931-2.1,2.993-3.1a.534.534,0,1,1,.733.778c-1.036.976-2.019,2-2.92,3.029A.534.534,0,0,1,1016.212,443.333Zm6.188-5.843a.535.535,0,0,1-.33-.955c1.12-.88,2.3-1.725,3.5-2.512a.534.534,0,1,1,.586.894c-1.176.771-2.328,1.6-3.424,2.459A.532.532,0,0,1,1022.4,437.489Zm7.12-4.672a.535.535,0,0,1-.258-1c1.242-.682,2.528-1.34,3.823-1.954a.535.535,0,0,1,.458.966c-1.275.6-2.542,1.252-3.766,1.925A.532.532,0,0,1,1029.52,432.817Zm7.694-3.653a.535.535,0,0,1-.2-1.03c1.307-.53,2.658-1.036,4.017-1.5a.534.534,0,0,1,.347,1.011c-1.341.461-2.673.96-3.962,1.483A.533.533,0,0,1,1037.214,429.164Zm8.052-2.774a.535.535,0,0,1-.147-1.048c1.351-.388,2.746-.753,4.146-1.084a.535.535,0,0,1,.245,1.04c-1.384.327-2.762.687-4.1,1.07A.535.535,0,0,1,1045.266,426.39Zm68.148-1.514-.434,0a.534.534,0,0,1-.531-.538.525.525,0,0,1,.538-.531l.426,0c1.322,0,2.6-.047,3.786-.139a.534.534,0,1,1,.083,1.066C1116.065,424.828,1114.763,424.875,1113.414,424.875Zm-4.687-.164h-.035c-1.272-.083-2.666-.2-4.264-.358a.534.534,0,1,1,.1-1.064c1.585.156,2.968.273,4.228.355a.534.534,0,0,1-.034,1.068Zm-55.174-.283a.535.535,0,0,1-.1-1.06c1.377-.261,2.8-.5,4.222-.708a.534.534,0,1,1,.155,1.058c-1.41.207-2.816.443-4.179.7A.568.568,0,0,1,1053.553,424.428Zm67.909-.252a.535.535,0,0,1-.1-1.059,29.638,29.638,0,0,0,4.041-1.074.534.534,0,1,1,.349,1.01,30.721,30.721,0,0,1-4.187,1.113A.554.554,0,0,1,1121.463,424.176Zm-21.219-.27a.533.533,0,0,1-.059,0l-1.269-.138q-1.477-.16-2.963-.3a.534.534,0,0,1,.1-1.064q1.491.145,2.974.306l1.269.139a.534.534,0,0,1-.057,1.066Zm-38.264-.72a.534.534,0,0,1-.057-1.066c1.39-.15,2.823-.28,4.261-.385a.535.535,0,0,1,.078,1.066c-1.425.1-2.846.232-4.224.381A.466.466,0,0,1,1061.98,423.186Zm29.782-.1h-.043c-1.431-.115-2.857-.215-4.24-.3a.535.535,0,0,1,.064-1.067c1.39.084,2.823.185,4.261.3a.534.534,0,0,1-.042,1.067Zm-8.507-.511h-.021c-1.433-.056-2.862-.094-4.246-.115a.534.534,0,0,1-.527-.542.527.527,0,0,1,.542-.527c1.393.021,2.83.06,4.272.116a.534.534,0,0,1-.02,1.069Zm-12.78-.012a.535.535,0,0,1-.021-1.069c1.4-.057,2.834-.094,4.275-.111a.542.542,0,0,1,.541.528.535.535,0,0,1-.528.541c-1.43.017-2.858.054-4.243.11Zm59-1.186a.535.535,0,0,1-.254-1.005,27.163,27.163,0,0,0,3.508-2.261.534.534,0,1,1,.645.852,28.249,28.249,0,0,1-3.647,2.35A.535.535,0,0,1,1129.477,421.376Zm6.783-5.106a.534.534,0,0,1-.378-.913,36.215,36.215,0,0,0,2.787-3.136.535.535,0,1,1,.838.664,37.306,37.306,0,0,1-2.87,3.229A.532.532,0,0,1,1136.26,416.27Zm5.3-6.65a.535.535,0,0,1-.449-.824c.737-1.146,1.453-2.37,2.127-3.64a.535.535,0,1,1,.944.5c-.688,1.3-1.419,2.546-2.172,3.717A.534.534,0,0,1,1141.561,409.621Z" transform="translate(-1008.186 -404.873)" fill="#5d66d3"/>
      </g>
      <g id="Grupo_68388" data-name="Grupo 68388" transform="translate(137.097)">
        <path id="Trazado_134180" data-name="Trazado 134180" d="M1392.8,391.561a.535.535,0,0,1-.488-.75c.28-.635.558-1.292.824-1.954a.535.535,0,0,1,.991.4c-.271.672-.553,1.34-.838,1.986A.535.535,0,0,1,1392.8,391.561Z" transform="translate(-1392.271 -388.522)" fill="#5d66d3"/>
      </g>
    </g>
    <g id="Grupo_68390" data-name="Grupo 68390" transform="translate(1328.14 9213.806)">
      <path id="Trazado_134181" data-name="Trazado 134181" d="M1387.717,274.84l-2.233,50.693-16.739-17.572s19.042-34.542,19.175-33.971l-.731-.61c.564-.161-20.367,33.27-20.367,33.27l-23.493-6.087,43.216-26.592Z" transform="translate(-1343.329 -273.379)" fill="#8cabef"/>
    </g>
    <g id="Grupo_68394" data-name="Grupo 68394" transform="translate(1124.902 9305.536)">
      <rect id="Rectángulo_31738" data-name="Rectángulo 31738" width="161.183" height="116.524" transform="translate(0 6.761)" fill="#2e4661" opacity="0.07"/>
      <g id="Grupo_68393" data-name="Grupo 68393" transform="translate(5.507)">
        <g id="Grupo_68392" data-name="Grupo 68392">
          <g id="Grupo_68391" data-name="Grupo 68391">
            <path id="Trazado_134196" data-name="Trazado 134196" d="M0,0H162.278V116.871H0Z" fill="#6595bf"/>
            <rect id="Rectángulo_31740" data-name="Rectángulo 31740" width="162.057" height="9.303" fill="#5e6178"/>
          </g>
          <path id="Trazado_134182" data-name="Trazado 134182" d="M1279.41,762.784v-.361h-19.919V742.876h-.361v19.547h-23.88V742.876h-.361v19.547h-23.88V742.876h-.361v19.547h-23.88V742.876h-.36v19.547h-23.88V742.876h-.361v19.547h-23.879V742.876h-.36v19.547h-19.889v.361h19.889v22.085h-19.889v.36h19.889v22.086h-19.889v.36h19.889v22.086h-19.889v.36h19.889v20.55h.36v-20.55h23.879v20.55h.361v-20.55h23.88v20.55h.36v-20.55h23.88v20.55h.361v-20.55h23.88v20.55h.361v-20.55h23.88v20.55h.361v-20.55h19.919v-.36h-19.919V807.676h19.919v-.36h-19.919V785.23h19.919v-.36h-19.919V762.784Zm-44.521,0v22.085h-23.88V762.784Zm-48.121,22.446h23.88v22.086h-23.88Zm-.36,22.086h-23.88V785.23h23.88Zm24.6-22.086h23.88v22.086h-23.88Zm-.361-22.446v22.085h-23.88V762.784Zm-24.24,0v22.085h-23.88V762.784Zm-48.121,0h23.879v22.085h-23.879Zm0,22.446h23.879v22.086h-23.879Zm0,44.532V807.676h23.879v22.086Zm24.241,0V807.676h23.88v22.086Zm24.24,0V807.676h23.88v22.086Zm24.241,0V807.676h23.88v22.086Zm48.121,0h-23.88V807.676h23.88Zm0-22.446h-23.88V785.23h23.88Zm0-22.446h-23.88V762.784h23.88Z" transform="translate(-1117.473 -733.394)" opacity="0.603"/>
        </g>
        <path id="Trazado_134183" data-name="Trazado 134183" d="M1266.584,768.338a4.95,4.95,0,0,0-3.475,8.476l-17.225,14.833-1.31,1.128a4.949,4.949,0,1,0-5.795,8.008l-3.773,9.083q-.8,1.937-1.609,3.873a4.925,4.925,0,0,0-5.4,2.334l-16.64-10.518-12.33-7.794a4.95,4.95,0,1,0-9.442-.827l-23.336,9.525-2.288.934a4.95,4.95,0,1,0-7.935,5.569l-3.466,3.934-16.542,18.778a4.982,4.982,0,1,0,1.283,1.266l14.125-16.034,6.13-6.958a4.948,4.948,0,0,0,6.815-4.586c0-.067-.008-.131-.01-.2l.337-.138,25.568-10.436a4.94,4.94,0,0,0,7.8.692l11.182,7.068,18.141,11.466a4.949,4.949,0,1,0,7.653-3.369l5.391-12.979a4.948,4.948,0,0,0,5.993-4.84,4.929,4.929,0,0,0-.678-2.493l3.047-2.624,13.05-11.238,2.815-2.425a4.952,4.952,0,1,0,1.924-9.514Z" transform="translate(-1121.768 -744.052)" fill="#dddae8"/>
      </g>
    </g>
    <g id="Grupo_68405" data-name="Grupo 68405" transform="translate(1147.585 9102.465)">
      <g id="Grupo_68403" data-name="Grupo 68403" transform="translate(0 0)">
        <g id="Grupo_68401" data-name="Grupo 68401">
          <g id="Grupo_68398" data-name="Grupo 68398">
            <g id="Grupo_68396" data-name="Grupo 68396" transform="translate(127.139 105.538)">
              <g id="Grupo_68395" data-name="Grupo 68395">
                <path id="Trazado_134184" data-name="Trazado 134184" d="M1276.275,561.052l-11.9,19.063-67.53-42.542,11.9-19.063Z" transform="translate(-1196.844 -518.51)" fill="#f7f7f7"/>
                <path id="Trazado_134185" data-name="Trazado 134185" d="M1364.13,627.4l-.137.22c-3.754,6.013-10.453,8.605-14.963,5.79l-51.835-31.817,13.622-22.909,51.946,32.731C1367.271,614.231,1367.884,621.388,1364.13,627.4Z" transform="translate(-1261.437 -557.243)" fill="#353a85"/>
              </g>
              <path id="Trazado_134186" data-name="Trazado 134186" d="M1210.1,541.991l3.269,2.381,29.591-7.681-24.655-15.732Z" transform="translate(-1205.379 -520.087)" fill="#bbbcbf" opacity="0.2" style="mix-blend-mode: multiply;isolation: isolate"/>
            </g>
            <g id="Grupo_68397" data-name="Grupo 68397">
              <path id="Trazado_134187" data-name="Trazado 134187" d="M984.6,273.686a67.643,67.643,0,1,0,21.557,93.2A67.643,67.643,0,0,0,984.6,273.686Zm13.539,88.2A58.19,58.19,0,1,1,979.594,281.7,58.19,58.19,0,0,1,998.138,361.881Z" transform="translate(-866.484 -248.771)" fill="#5e6178"/>
              <circle id="Elipse_4346" data-name="Elipse 4346" cx="58.19" cy="58.19" r="58.19" transform="translate(0 82.294) rotate(-45)" fill="#d1e7f5" opacity="0.5"/>
            </g>
          </g>
          <g id="Grupo_68400" data-name="Grupo 68400" transform="translate(32.225 29.81)">
            <g id="Grupo_68399" data-name="Grupo 68399" opacity="0.22">
              <path id="Trazado_134188" data-name="Trazado 134188" d="M938.605,356.12a40.982,40.982,0,0,1,76.379-21.726c2.648,4.517,9.849.743,7.2-3.781a49.723,49.723,0,0,0-53.158-23.551c-20.6,4.385-35.8,22.091-38.278,42.786a44.846,44.846,0,0,0-.268,6.035c.081,5.221,8.208,5.5,8.127.237Z" transform="translate(-930.47 -305.98)" fill="#fff"/>
            </g>
            <ellipse id="Elipse_4347" data-name="Elipse 4347" cx="5.354" cy="5.354" rx="5.354" ry="5.354" transform="translate(87.817 36.3) rotate(-7.528)" fill="#fff" opacity="0.31"/>
          </g>
        </g>
        <path id="Trazado_134189" data-name="Trazado 134189" d="M1293.368,596.538l12.96-21.8a1.7,1.7,0,0,0-.449-2.231l-.227-.168a1.7,1.7,0,0,0-2.477.511L1290.413,594.8a1.7,1.7,0,0,0,.643,2.337l.03.016A1.7,1.7,0,0,0,1293.368,596.538Z" transform="translate(-1129.785 -447.407)" fill="#d67086"/>
        <g id="Grupo_68402" data-name="Grupo 68402" transform="translate(20.822 22.037)">
          <path id="Trazado_134190" data-name="Trazado 134190" d="M1016.707,344.84a57.587,57.587,0,1,1-7.725-28.828,58.023,58.023,0,0,1,7.725,28.828,1.549,1.549,0,0,0,3.1,0,60.677,60.677,0,1,0-19.23,44.315,61.363,61.363,0,0,0,19.23-44.315A1.549,1.549,0,0,0,1016.707,344.84Z" transform="translate(-898.471 -284.168)" fill="#f7f7f7"/>
        </g>
      </g>
      <path id="Trazado_134191" data-name="Trazado 134191" d="M1356.335,607.668c2.187-5.741,5.355-17.089,7.176-22.6-3.99-13.42-12.2-35.837-13.053-36.083-4.977-1.441-9.413-2.759-14.374-4.192-.229-.066-1.684,7.356-1.914,7.29a10.589,10.589,0,0,1-.319-3.232v0l-.956-9.647a1.821,1.821,0,0,0-1.362-1.7c-2.907-.755-9.185-2.229-9.458-1.773-.1.168-.643,8.542-1.094,10.934l-1.048-.547-1.367-15.627s-10.858-2.736-11.071-2.232c-.251.592-2.665,13.85-2.665,13.85s-4.2,31.639-4.678,33.888c-.7,3.294-2.9,6.246-2.583,9.531.354,3.668,1.96,7.073,3.547,10.413l11.492,24.187c.836,5.472,1.713,18.008,2.971,23.395,14.168-2.859,28.4-5.022,44.167-10.041C1360.192,633.338,1355.392,610.143,1356.335,607.668Z" transform="translate(-1134.519 -419.206)" fill="#eac5b0"/>
      <g id="Grupo_68404" data-name="Grupo 68404" transform="translate(168.929 195.181)">
        <path id="Trazado_134192" data-name="Trazado 134192" d="M1331.335,819.82l-3.271-28.758,56.642-20.974,9.847,35.061-63.024,18.816Z" transform="translate(-1323.097 -770.088)" fill="#f7f7f7"/>
        <path id="Trazado_134193" data-name="Trazado 134193" d="M1387.758,817.74s-58.259,33.293-70.307,36.446l-3.327,78.383h99.057Z" transform="translate(-1314.125 -800.76)" fill="#bce0fc"/>
        <path id="Trazado_134194" data-name="Trazado 134194" d="M1350.372,854.471a3.229,3.229,0,1,1-2.293-3.949A3.229,3.229,0,0,1,1350.372,854.471Z" transform="translate(-1333.369 -821.792)" fill="#292949"/>
      </g>
      <path id="Trazado_134195" data-name="Trazado 134195" d="M1254.534,640.709l-7.556-11.915-10.937-10.185s-2.126-6.141,4.728-6.31,11.466,5.56,14.5,10.108c1.334,2,7.782,7.821,12.787,11.382,6.547,4.659-.293,25.171-.293,25.171S1255.293,641.846,1254.534,640.709Z" transform="translate(-1094.735 -473.339)" fill="#eac5b0"/>
    </g>
  </g>
</svg>
