<svg xmlns="http://www.w3.org/2000/svg" width="236" height="152" viewBox="0 0 236 152">
  <g id="Grupo_68545" data-name="Grupo 68545" transform="translate(-285 -11033)">
    <rect id="Rectángulo_31351" data-name="Rectángulo 31351" width="236" height="152" transform="translate(285 11033)" fill="none"/>
    <g id="Grupo_68544" data-name="Grupo 68544" transform="translate(296.29 11033)">
      <g id="Background_Complete" data-name="Background Complete" transform="translate(17.569 0)">
        <g id="Grupo_68436" data-name="Grupo 68436" transform="translate(17.992 11.308)">
          <path id="Trazado_140575" data-name="Trazado 140575" d="M113.452,80.663h0a11.4,11.4,0,0,1-11.4-11.4h0a11.4,11.4,0,0,1,11.4-11.4h0a11.4,11.4,0,0,1,11.405,11.4h0A11.4,11.4,0,0,1,113.452,80.663Z" transform="translate(-102.047 -57.853)" fill="#ebebeb"/>
          <g id="Grupo_68435" data-name="Grupo 68435" transform="translate(6.006 5.05)">
            <g id="Grupo_68434" data-name="Grupo 68434">
              <rect id="Rectángulo_31746" data-name="Rectángulo 31746" width="2.36" height="7.625" transform="translate(0.227 3.813)" fill="#fff"/>
              <path id="Trazado_140576" data-name="Trazado 140576" d="M121.486,75.836a1.407,1.407,0,1,0-1.4-1.408A1.4,1.4,0,0,0,121.486,75.836Z" transform="translate(-120.09 -73.022)" fill="#fff"/>
            </g>
            <path id="Trazado_140577" data-name="Trazado 140577" d="M134.659,87.631c0-1.072.493-1.711,1.438-1.711.868,0,1.285.613,1.285,1.711v4h2.349V86.806c0-2.043-1.158-3.03-2.774-3.03a2.659,2.659,0,0,0-2.3,1.26V84.009H132.4v7.625h2.264Z" transform="translate(-128.299 -80.196)" fill="#fff"/>
          </g>
        </g>
        <path id="Trazado_140578" data-name="Trazado 140578" d="M173.369,23.886l1.562,2.856,2.855,1.562-2.855,1.562-1.562,2.856-1.562-2.856L168.951,28.3l2.855-1.562Z" transform="translate(-117.102 -23.886)" fill="#f5f5f5"/>
        <path id="Trazado_140579" data-name="Trazado 140579" d="M371.231,256.273l1.171,2.142,2.142,1.171-2.142,1.171-1.171,2.142-1.171-2.142-2.142-1.171,2.142-1.171Z" transform="translate(-231.284 -178.911)" fill="#ebebeb"/>
        <path id="Trazado_140580" data-name="Trazado 140580" d="M384.827,224.508l.529.966.966.528-.966.528-.529.966-.528-.966-.966-.528.966-.528Z" transform="translate(-237.104 -157.721)" fill="#e0e0e0"/>
        <g id="Grupo_68438" data-name="Grupo 68438" transform="translate(0 84.192)">
          <g id="Grupo_68437" data-name="Grupo 68437">
            <path id="Trazado_140581" data-name="Trazado 140581" d="M55.035,283.438a3.453,3.453,0,0,0,2.016-3.22,3.245,3.245,0,1,0-6.476.054,3.447,3.447,0,0,0,2.1,3.2C47.707,284.284,48,289.7,48,289.7l11.783-.1S59.984,284.12,55.035,283.438Z" transform="translate(-48 -276.792)" fill="#e0e0e0"/>
          </g>
        </g>
        <g id="Grupo_68439" data-name="Grupo 68439" transform="translate(150.438 125.038)">
          <path id="Trazado_140582" data-name="Trazado 140582" d="M394.073,400.971a4.06,4.06,0,0,1-5.382-1.464,1.9,1.9,0,0,0-1.853,1.5,2.476,2.476,0,0,0,.444,1.786,7.372,7.372,0,0,0,1.293,1.367c.658.586,1.267,1.137,1.925,1.723.653-.592,1.209-1.148,1.862-1.739a7.337,7.337,0,0,0,1.281-1.379A2.476,2.476,0,0,0,394.073,400.971Z" transform="translate(-386.806 -399.49)" fill="#ebebeb"/>
        </g>
        <g id="Grupo_68442" data-name="Grupo 68442" transform="translate(161.627 49.163)">
          <g id="Grupo_68440" data-name="Grupo 68440" transform="translate(3.752)">
            <path id="Trazado_140583" data-name="Trazado 140583" d="M431.688,178.753l1.262-.25,1.994-4.386-.5-2.52s1.928-.507,2.353,2.839.507,2.456.507,2.456,4.147-.806,4.563-.514c.3.212,1.232,4.305,1.718,6.529a2.464,2.464,0,0,1-1.23,2.774,1.856,1.856,0,0,1-.434.148c-1.034.205-6.481.412-6.481.412l-2.181.432Z" transform="translate(-431.688 -171.569)" fill="#e0e0e0"/>
          </g>
          <g id="Grupo_68441" data-name="Grupo 68441" transform="translate(0 6.8)">
            <path id="Trazado_140584" data-name="Trazado 140584" d="M420.418,192.406l2.489,8.481,2.162-.429L423.391,192Z" transform="translate(-420.418 -191.997)" fill="#e0e0e0"/>
          </g>
        </g>
      </g>
      <g id="Icons" transform="translate(0 26.527)">
        <g id="Grupo_68443" data-name="Grupo 68443" transform="translate(160.484)">
          <path id="Trazado_140585" data-name="Trazado 140585" d="M354.467,131.665h0a13.526,13.526,0,0,1-18.079-6.248h0a13.526,13.526,0,0,1,6.248-18.079h0a13.526,13.526,0,0,1,18.079,6.248h0A13.526,13.526,0,0,1,354.467,131.665Z" transform="translate(-335.022 -105.973)" fill="#d9a171"/>
          <path id="Trazado_140586" data-name="Trazado 140586" d="M358.094,133.488a.318.318,0,0,0,.315-.409c-.033-.164-.121-.576-.155-.748-.046-.236-.1-.3-.344-.4a2.665,2.665,0,0,1-1.339-1.362,4.37,4.37,0,0,1,2.153-5.961c2.228-1.084,4.115-.318,5,1.5,1.164,2.392,1.087,4.926-.485,5.691a1.428,1.428,0,0,1-2.087-.961,19.7,19.7,0,0,0-.7-3.3,1.235,1.235,0,0,0-1.725-.7c-.888.431-1.154,1.7-.556,2.926a3.552,3.552,0,0,0,.9,1.184s.963,4.29,1.132,5.041a10.337,10.337,0,0,0,1.509,3.165.123.123,0,0,0,.22-.048,9.84,9.84,0,0,0,.177-3.444c-.077-.418-.525-2.565-.525-2.565a2.645,2.645,0,0,0,2.53.048c2.668-1.3,3.295-4.609,1.711-7.864a5.514,5.514,0,0,0-7.565-2.2c-3.943,1.917-4.556,5.711-3.409,8.068A3.553,3.553,0,0,0,358.094,133.488Z" transform="translate(-347.907 -116.936)" fill="#fff"/>
        </g>
        <g id="Grupo_68445" data-name="Grupo 68445" transform="translate(187.437 45.799)">
          <path id="Trazado_140587" data-name="Trazado 140587" d="M421.986,261.593h0a9.329,9.329,0,0,1-5.385-12.044h0a9.329,9.329,0,0,1,12.044-5.385h0a9.329,9.329,0,0,1,5.385,12.044h0A9.329,9.329,0,0,1,421.986,261.593Z" transform="translate(-415.985 -243.548)" fill="#aed3f2"/>
          <g id="Grupo_68444" data-name="Grupo 68444" transform="translate(2.725 4.249)">
            <path id="Trazado_140588" data-name="Trazado 140588" d="M435.646,262.978a5.025,5.025,0,0,0-9.347-3.67c-.028.067-.056.134-.082.2a4.95,4.95,0,0,0-.247,2.663l-1.8,2.175,2.915.167A5.03,5.03,0,0,0,435.6,263.1C435.617,263.058,435.633,263.018,435.646,262.978Zm-6.232,2.241a4.207,4.207,0,0,1-1.923-1.477l-1.7-.1,1.048-1.267a4.15,4.15,0,0,1,.126-2.583,3.894,3.894,0,0,1,.165-.372,4.226,4.226,0,0,1,7.831,3.078c-.03.1-.064.207-.1.31A4.212,4.212,0,0,1,429.414,265.219Z" transform="translate(-424.169 -256.312)" fill="#fff" fill-rule="evenodd"/>
            <path id="Trazado_140589" data-name="Trazado 140589" d="M442.217,267.547c-.095-.1-.554-.594-.645-.672s-.16-.127-.281-.042-.441.257-.535.307-.166.034-.261-.067a3.341,3.341,0,0,1-.708-.92,3.658,3.658,0,0,1-.338-1.033c-.022-.139.061-.178.139-.213s.165-.09.25-.133l.063-.039a1.334,1.334,0,0,0,.125-.109.22.22,0,0,0,.068-.2c-.007-.068-.023-.719-.032-.984s-.119-.262-.187-.288-.139-.065-.215-.095a.456.456,0,0,0-.362.025,1.369,1.369,0,0,0-.766.8,1.554,1.554,0,0,0-.09.412,2.77,2.77,0,0,0,.109.948,5.052,5.052,0,0,0,1.3,2.475c1,.9,1.055.751,1.274.812a1.229,1.229,0,0,0,.983-.246,1.008,1.008,0,0,0,.275-.517C442.375,267.705,442.309,267.647,442.217,267.547Z" transform="translate(-433.685 -260.792)" fill="#fff" fill-rule="evenodd"/>
          </g>
        </g>
        <g id="Grupo_68446" data-name="Grupo 68446" transform="translate(0 6.502)">
          <path id="Trazado_140590" data-name="Trazado 140590" d="M55.376,139.731h0a7.114,7.114,0,0,1-7.113-7.114h0a7.113,7.113,0,0,1,7.113-7.113h0a7.114,7.114,0,0,1,7.114,7.113h0A7.114,7.114,0,0,1,55.376,139.731Z" transform="translate(-48.263 -125.504)" fill="#6595bf"/>
          <path id="Trazado_140591" data-name="Trazado 140591" d="M58.246,143.082a4.423,4.423,0,0,0,6.8-3.928,3.152,3.152,0,0,0,.776-.8,3.105,3.105,0,0,1-.893.245,1.559,1.559,0,0,0,.684-.86,3.124,3.124,0,0,1-.987.378,1.556,1.556,0,0,0-2.65,1.418,4.413,4.413,0,0,1-3.205-1.625,1.557,1.557,0,0,0,.481,2.077,1.546,1.546,0,0,1-.7-.195,1.556,1.556,0,0,0,1.247,1.545,1.557,1.557,0,0,1-.7.027,1.556,1.556,0,0,0,1.452,1.08A3.125,3.125,0,0,1,58.246,143.082Z" transform="translate(-54.923 -133.587)" fill="#fff"/>
        </g>
        <g id="Grupo_68448" data-name="Grupo 68448" transform="translate(4.803 76.243)">
          <path id="Trazado_140592" data-name="Trazado 140592" d="M77.785,359.173h0a12.252,12.252,0,0,1-14.757-9.079h0a12.252,12.252,0,0,1,9.079-14.758h0a12.252,12.252,0,0,1,14.758,9.079h0A12.252,12.252,0,0,1,77.785,359.173Z" transform="translate(-62.691 -335)" fill="#5e6178"/>
          <g id="Grupo_68447" data-name="Grupo 68447" transform="translate(5.004 5.004)">
            <path id="Trazado_140593" data-name="Trazado 140593" d="M83.7,351.924c1.745-.415,1.953-.458,2.65-.591a3.724,3.724,0,0,1,1.267-.064,2.225,2.225,0,0,1,1.536.945,3.73,3.73,0,0,1,.514,1.16c.2.682.252.887.667,2.632s.458,1.953.591,2.65a3.725,3.725,0,0,1,.064,1.267,2.224,2.224,0,0,1-.945,1.535,3.717,3.717,0,0,1-1.16.514c-.682.2-.887.251-2.632.667s-1.953.458-2.65.591a3.709,3.709,0,0,1-1.267.064,2.223,2.223,0,0,1-1.536-.944,3.721,3.721,0,0,1-.514-1.16c-.2-.682-.252-.887-.667-2.632s-.458-1.953-.591-2.65a3.722,3.722,0,0,1-.064-1.267,2.225,2.225,0,0,1,.945-1.536,3.721,3.721,0,0,1,1.16-.514c.681-.2.887-.252,2.632-.667m-.28-1.177c-1.775.423-2,.483-2.685.681a4.924,4.924,0,0,0-1.514.682,3.432,3.432,0,0,0-1.456,2.367,4.922,4.922,0,0,0,.074,1.659c.134.7.18.929.6,2.7s.483,2,.681,2.685a4.925,4.925,0,0,0,.682,1.514,3.434,3.434,0,0,0,2.366,1.456,4.943,4.943,0,0,0,1.659-.074c.7-.134.929-.18,2.7-.6s2-.483,2.685-.681a4.929,4.929,0,0,0,1.514-.682,3.434,3.434,0,0,0,1.456-2.367,4.942,4.942,0,0,0-.074-1.659c-.134-.7-.18-.929-.6-2.7s-.483-2-.681-2.685a4.929,4.929,0,0,0-.682-1.514,3.434,3.434,0,0,0-2.367-1.456,4.941,4.941,0,0,0-1.659.074c-.7.134-.929.18-2.7.6" transform="translate(-77.722 -350.031)" fill="#fff"/>
            <path id="Trazado_140594" data-name="Trazado 140594" d="M91.789,361.542a3.45,3.45,0,1,0,4.155,2.556,3.449,3.449,0,0,0-4.155-2.556m1.318,5.534a2.239,2.239,0,1,1,1.659-2.7,2.239,2.239,0,0,1-1.659,2.7" transform="translate(-85.338 -357.647)" fill="#fff"/>
            <path id="Trazado_140595" data-name="Trazado 140595" d="M106.653,357.034a.806.806,0,1,1-.971-.6.806.806,0,0,1,.971.6" transform="translate(-95.961 -354.289)" fill="#fff"/>
          </g>
        </g>
        <g id="Grupo_68449" data-name="Grupo 68449" transform="translate(160.644 78.205)">
          <path id="Trazado_140596" data-name="Trazado 140596" d="M375.358,352.322h0a5.714,5.714,0,0,1-5.714-5.714h0a5.713,5.713,0,0,1,5.714-5.714h0a5.714,5.714,0,0,1,5.714,5.714h0A5.714,5.714,0,0,1,375.358,352.322Z" transform="translate(-369.644 -340.895)" fill="#6595bf"/>
          <path id="Trazado_140597" data-name="Trazado 140597" d="M382.741,354.591h1.391v-3.483h.97l.1-1.166h-1.074v-.664c0-.275.055-.384.321-.384h.753v-1.21h-.963c-1.035,0-1.5.456-1.5,1.328v.93h-.723v1.181h.723Z" transform="translate(-377.899 -345.424)" fill="#fff"/>
        </g>
      </g>
      <g id="Device" transform="translate(71.627 13.423)">
        <g id="Grupo_68515" data-name="Grupo 68515" transform="translate(0)">
          <g id="Grupo_68514" data-name="Grupo 68514">
            <g id="Grupo_68509" data-name="Grupo 68509">
              <g id="Grupo_68457" data-name="Grupo 68457">
                <g id="Grupo_68456" data-name="Grupo 68456">
                  <g id="Grupo_68452" data-name="Grupo 68452">
                    <g id="Grupo_68451" data-name="Grupo 68451">
                      <g id="Grupo_68450" data-name="Grupo 68450">
                        <path id="Trazado_140598" data-name="Trazado 140598" d="M216.26,199.31l-45.9-.027a10,10,0,0,1-9.993-10L160.388,74.2a10,10,0,0,1,10-10l45.9.027a10,10,0,0,1,9.993,10l-.023,115.079A10,10,0,0,1,216.26,199.31Z" transform="translate(-160.365 -64.207)" fill="#263238"/>
                      </g>
                    </g>
                  </g>
                  <g id="Grupo_68455" data-name="Grupo 68455" transform="translate(3.042 4.071)">
                    <g id="Grupo_68454" data-name="Grupo 68454">
                      <g id="Grupo_68453" data-name="Grupo 68453">
                        <path id="Trazado_140599" data-name="Trazado 140599" d="M222.341,76.462l-8.9,0a2.211,2.211,0,0,0-2.161,2.258v1.615a2.211,2.211,0,0,1-2.161,2.258l-17.348-.01a2.213,2.213,0,0,1-2.161-2.26V78.7a2.213,2.213,0,0,0-2.161-2.26l-3.13,0-7.789,0a7,7,0,0,0-7.007,7L169.5,195.761a7,7,0,0,0,7,7l45.811.027a7,7,0,0,0,7.007-7l.022-112.325A7,7,0,0,0,222.341,76.462Z" transform="translate(-169.502 -76.435)" fill="#fff"/>
                      </g>
                    </g>
                  </g>
                </g>
              </g>
              <g id="Grupo_68467" data-name="Grupo 68467" transform="translate(51.381 13.185)">
                <g id="Grupo_68460" data-name="Grupo 68460">
                  <g id="Grupo_68459" data-name="Grupo 68459">
                    <g id="Grupo_68458" data-name="Grupo 68458">
                      <path id="Trazado_140600" data-name="Trazado 140600" d="M319.879,103.852c0,.03-1.157.064-2.585.076s-2.585,0-2.586-.033,1.157-.064,2.585-.076S319.879,103.822,319.879,103.852Z" transform="translate(-314.709 -103.815)" fill="#263238"/>
                    </g>
                  </g>
                </g>
                <g id="Grupo_68463" data-name="Grupo 68463" transform="translate(0.011 1.323)">
                  <g id="Grupo_68462" data-name="Grupo 68462">
                    <g id="Grupo_68461" data-name="Grupo 68461">
                      <path id="Trazado_140601" data-name="Trazado 140601" d="M319.912,107.826c0,.03-1.157.064-2.585.076s-2.585,0-2.586-.033,1.157-.064,2.585-.076S319.912,107.8,319.912,107.826Z" transform="translate(-314.742 -107.789)" fill="#263238"/>
                    </g>
                  </g>
                </g>
                <g id="Grupo_68466" data-name="Grupo 68466" transform="translate(0.022 2.646)">
                  <g id="Grupo_68465" data-name="Grupo 68465">
                    <g id="Grupo_68464" data-name="Grupo 68464">
                      <path id="Trazado_140602" data-name="Trazado 140602" d="M319.945,111.8c0,.03-1.157.064-2.585.076s-2.586,0-2.586-.033,1.157-.064,2.585-.076S319.945,111.77,319.945,111.8Z" transform="translate(-314.775 -111.763)" fill="#263238"/>
                    </g>
                  </g>
                </g>
              </g>
              <g id="Grupo_68470" data-name="Grupo 68470" transform="translate(7.805 11.704)">
                <g id="Grupo_68469" data-name="Grupo 68469">
                  <g id="Grupo_68468" data-name="Grupo 68468">
                    <path id="Trazado_140603" data-name="Trazado 140603" d="M183.88,104.82a1.067,1.067,0,0,1,.135-.009l.377-.012,1.392-.033-.039.039q-.008-.463-.016-1.009c0-.187-.016-.364,0-.581a.535.535,0,0,1,.467-.429c.224,0,.421-.015.664,0a.54.54,0,0,1,.456.537c.005.47.011.962.017,1.471l-.065-.063,1.755-.018-.067.068c-.006-.707-.013-1.438-.02-2.187q0-.28,0-.557a.567.567,0,0,0-.247-.415l-.767-.756-.74-.73-.359-.354c-.123-.119-.22-.242-.363-.271a.473.473,0,0,0-.4.077c-.106.09-.219.217-.327.321l-.63.635c-.4.411-.809.787-1.109,1.143a1.241,1.241,0,0,0-.088.655q0,.327,0,.619,0,.569-.006,1c0,.254-.005.465-.007.637a2.263,2.263,0,0,1-.009.23,1.665,1.665,0,0,1-.012-.211c0-.169-.011-.377-.018-.627q-.01-.43-.023-1-.005-.3-.012-.631,0-.168-.005-.345a.73.73,0,0,1,.1-.368c.325-.4.712-.75,1.111-1.173l.625-.64c.113-.111.2-.22.339-.336a.6.6,0,0,1,.509-.1.948.948,0,0,1,.421.3l.36.353.743.728.769.755a1.464,1.464,0,0,1,.2.212.575.575,0,0,1,.092.3q0,.278,0,.56c.006.749.011,1.48.017,2.187v.067h-.067l-1.755.011h-.064v-.064c0-.509-.005-1-.008-1.471a.423.423,0,0,0-.355-.426c-.2-.011-.44,0-.636,0a.431.431,0,0,0-.378.341c-.017.176,0,.382-.008.561q0,.545,0,1.009v.039h-.039l-1.414-.01-.368-.006A.689.689,0,0,1,183.88,104.82Z" transform="translate(-183.811 -99.366)" fill="#263238"/>
                  </g>
                </g>
              </g>
              <g id="Grupo_68489" data-name="Grupo 68489" transform="translate(6.695 100.852)">
                <g id="Grupo_68475" data-name="Grupo 68475" transform="translate(19.22 3.991)">
                  <g id="Grupo_68474" data-name="Grupo 68474">
                    <g id="Grupo_68471" data-name="Grupo 68471">
                      <path id="Trazado_140604" data-name="Trazado 140604" d="M250.451,379.233a2.556,2.556,0,0,1-.481.034l-1.312.028c-1.108.016-2.638.025-4.327.025s-3.22-.01-4.328-.025l-1.312-.028a2.556,2.556,0,0,1-.481-.034,2.569,2.569,0,0,1,.481-.034l1.312-.028c1.107-.016,2.638-.025,4.328-.025s3.22.01,4.327.025l1.312.028A2.568,2.568,0,0,1,250.451,379.233Z" transform="translate(-238.211 -379.146)" fill="#455a64"/>
                    </g>
                    <g id="Grupo_68472" data-name="Grupo 68472" transform="translate(0 3.011)">
                      <path id="Trazado_140605" data-name="Trazado 140605" d="M269.69,388.279c0,.048-7.047.087-15.739.087s-15.74-.039-15.74-.087,7.046-.087,15.74-.087S269.69,388.231,269.69,388.279Z" transform="translate(-238.211 -388.192)" fill="#455a64"/>
                    </g>
                    <g id="Grupo_68473" data-name="Grupo 68473" transform="translate(0 5.844)">
                      <path id="Trazado_140606" data-name="Trazado 140606" d="M259.853,396.788c0,.048-4.845.087-10.82.087s-10.822-.039-10.822-.087,4.844-.087,10.822-.087S259.853,396.74,259.853,396.788Z" transform="translate(-238.211 -396.701)" fill="#455a64"/>
                    </g>
                  </g>
                </g>
                <g id="Grupo_68476" data-name="Grupo 68476" transform="translate(49.412 12.576)">
                  <path id="Trazado_140607" data-name="Trazado 140607" d="M330.814,407.794l-.978-.981-.931.929,0-2.808,1.909,0Zm-.978-1.1.031.031.861.864,0-2.562-1.736,0,0,2.513Z" transform="translate(-328.905 -404.934)" fill="#263238"/>
                </g>
                <g id="Grupo_68477" data-name="Grupo 68477" transform="translate(23.52 13.136)">
                  <path id="Trazado_140608" data-name="Trazado 140608" d="M252.884,408.551l-.345-.154a.945.945,0,1,1,.5-.831.956.956,0,0,1-.239.639Zm-.807-1.87a.893.893,0,0,0,.014,1.786.921.921,0,0,0,.43-.136l.014-.008.255.114-.058-.25.012-.013a.892.892,0,0,0-.667-1.493Z" transform="translate(-251.126 -406.616)" fill="#263238"/>
                </g>
                <g id="Grupo_68478" data-name="Grupo 68478" transform="translate(26.36 13.267)">
                  <path id="Trazado_140609" data-name="Trazado 140609" d="M260.795,408.666l-.4-.965-.742-.676,1.8-.014Zm-.969-1.577.632.58.337.822.565-1.414Z" transform="translate(-259.657 -407.01)" fill="#263238"/>
                </g>
                <g id="Grupo_68479" data-name="Grupo 68479" transform="translate(27.142 13.267)">
                  <rect id="Rectángulo_31747" data-name="Rectángulo 31747" width="1.17" height="0.066" transform="translate(0 0.638) rotate(-33.054)" fill="#263238"/>
                </g>
                <g id="Grupo_68480" data-name="Grupo 68480" transform="translate(20.242 13.036)">
                  <path id="Trazado_140610" data-name="Trazado 140610" d="M243.486,406.763a1.232,1.232,0,0,1-1.635-.438.575.575,0,0,0-.561.456.751.751,0,0,0,.137.542,2.233,2.233,0,0,0,.394.413l.586.521c.2-.18.366-.35.563-.53a2.21,2.21,0,0,0,.388-.419A.753.753,0,0,0,243.486,406.763Z" transform="translate(-241.281 -406.316)" fill="#e8505b"/>
                </g>
                <g id="Grupo_68481" data-name="Grupo 68481">
                  <path id="Trazado_140611" data-name="Trazado 140611" d="M233.8,385.078s0-.108-.006-.313,0-.512-.006-.911c0-.8-.008-1.985-.014-3.515-.007-3.06-.018-7.511-.031-13.095l.057.057-53.236.03h0l.087-.087c0,6.2,0,12.209,0,17.833l-.084-.084,38.1.039,11.12.023,2.984.011.773.005c.174,0,.266.005.266.005s-.085,0-.256.005l-.764.005-2.966.011-11.1.024-38.153.039h-.084v-.084c0-5.624,0-11.636,0-17.833v-.086h.09l53.236.03h.057v.057c-.013,5.6-.024,10.061-.031,13.129-.006,1.525-.011,2.7-.014,3.5q0,.591-.006.9C233.8,384.978,233.8,385.078,233.8,385.078Z" transform="translate(-180.475 -367.158)" fill="#263238"/>
                </g>
                <g id="Grupo_68488" data-name="Grupo 68488" transform="translate(2.145 2.988)">
                  <g id="Grupo_68485" data-name="Grupo 68485">
                    <g id="Grupo_68484" data-name="Grupo 68484">
                      <g id="Grupo_68483" data-name="Grupo 68483">
                        <rect id="Rectángulo_31748" data-name="Rectángulo 31748" width="11.79" height="14.747" transform="matrix(0.006, -1, 1, 0.006, 0.088, 11.868)" fill="#ebebeb"/>
                        <g id="Grupo_68482" data-name="Grupo 68482">
                          <path id="Trazado_140612" data-name="Trazado 140612" d="M201.822,376.3a.57.57,0,0,1-.074,0l-.209,0-.8,0-3.024,0-10.636-.022.078-.077c-.017,3.51-.037,7.533-.058,11.789.018.021-.161-.164-.084-.086h.507l.508,0,1.009.006,1.987.012,3.826.025,6.907.05-.073.072c.036-3.54.065-6.477.086-8.539.014-1.025.025-1.833.032-2.394q.007-.406.012-.634c0-.144.009-.222.009-.222s0,.068.007.207,0,.356,0,.621c0,.557,0,1.359.005,2.378,0,2.073-.007,5.026-.012,8.585v.072h-.073l-6.906-.029-3.826-.019-1.987-.011-1.009-.006-.508,0h-.507c.076.078-.108-.106-.089-.088.028-4.256.054-8.279.076-11.789v-.078h.078l10.686.1,3.006.038.79.014.2.006A.293.293,0,0,1,201.822,376.3Z" transform="translate(-186.92 -376.134)" fill="#263238"/>
                        </g>
                      </g>
                    </g>
                  </g>
                  <rect id="Rectángulo_31749" data-name="Rectángulo 31749" width="10.306" height="13.711" transform="matrix(0.006, -1, 1, 0.006, 0.601, 11.129)" fill="#e0e0e0"/>
                  <path id="Trazado_140613" data-name="Trazado 140613" d="M188.725,396.782l4.825-6.379,2.944,4.025,2.024-2.131,3.918,4.563Z" transform="translate(-188.124 -385.653)" fill="#f5f5f5"/>
                  <g id="Grupo_68487" data-name="Grupo 68487" transform="translate(7.497 2.904)">
                    <g id="Grupo_68486" data-name="Grupo 68486">
                      <path id="Trazado_140614" data-name="Trazado 140614" d="M211.6,385.943a1.08,1.08,0,1,1-1.074-1.086A1.08,1.08,0,0,1,211.6,385.943Z" transform="translate(-209.441 -384.857)" fill="#f5f5f5"/>
                    </g>
                  </g>
                </g>
              </g>
              <g id="Grupo_68504" data-name="Grupo 68504" transform="translate(8.833 25.117)">
                <g id="Grupo_68499" data-name="Grupo 68499">
                  <g id="Grupo_68492" data-name="Grupo 68492" transform="translate(9.531 2.316)">
                    <g id="Grupo_68491" data-name="Grupo 68491">
                      <g id="Grupo_68490" data-name="Grupo 68490">
                        <path id="Trazado_140615" data-name="Trazado 140615" d="M231.027,146.7a.544.544,0,0,1-.157.018l-.451.016-1.661.027c-1.4.016-3.34.026-5.48.026s-4.078-.01-5.48-.026l-1.661-.027-.452-.016a.544.544,0,0,1-.157-.018.554.554,0,0,1,.157-.017l.452-.016,1.661-.028c1.4-.016,3.34-.025,5.48-.025s4.077.01,5.48.025l1.661.028.451.016A.554.554,0,0,1,231.027,146.7Z" transform="translate(-215.527 -146.612)" fill="#263238"/>
                      </g>
                    </g>
                  </g>
                  <g id="Grupo_68498" data-name="Grupo 68498" transform="translate(0 63.133)">
                    <g id="Grupo_68493" data-name="Grupo 68493" transform="translate(43.98 0.194)">
                      <path id="Trazado_140616" data-name="Trazado 140616" d="M321.846,334.135l-1.453-1.458-1.384,1.38.007-4.173,2.837,0Zm-1.453-1.639.045.045,1.28,1.284.006-3.808-2.581,0-.006,3.735Z" transform="translate(-319.009 -329.885)" fill="#263238"/>
                    </g>
                    <g id="Grupo_68494" data-name="Grupo 68494" transform="translate(6.451 0.197)">
                      <path id="Trazado_140617" data-name="Trazado 140617" d="M209.738,333.7l-.679-.3a1.861,1.861,0,1,1,.992-1.635,1.881,1.881,0,0,1-.47,1.258Zm-1.588-3.68a1.758,1.758,0,1,0,.028,3.515,1.812,1.812,0,0,0,.847-.267l.028-.016.5.223-.113-.492.023-.025a1.756,1.756,0,0,0-1.313-2.939Z" transform="translate(-206.277 -329.892)" fill="#263238"/>
                    </g>
                    <g id="Grupo_68495" data-name="Grupo 68495" transform="translate(12.041 0.455)">
                      <path id="Trazado_140618" data-name="Trazado 140618" d="M225.308,333.927l-.779-1.9-1.46-1.331,3.541-.028Zm-1.908-3.1,1.244,1.142.663,1.619,1.113-2.785Z" transform="translate(-223.069 -330.668)" fill="#263238"/>
                    </g>
                    <g id="Grupo_68496" data-name="Grupo 68496" transform="translate(13.581 0.455)">
                      <rect id="Rectángulo_31750" data-name="Rectángulo 31750" width="2.304" height="0.129" transform="matrix(0.838, -0.545, 0.545, 0.838, 0, 1.256)" fill="#263238"/>
                    </g>
                    <g id="Grupo_68497" data-name="Grupo 68497">
                      <path id="Trazado_140619" data-name="Trazado 140619" d="M191.237,330.181a1.1,1.1,0,0,0-2.16.072,1.1,1.1,0,0,0-2.161-.037,1.478,1.478,0,0,0,.269,1.066,4.376,4.376,0,0,0,.775.814c.394.349.759.676,1.154,1.025.389-.355.72-.688,1.109-1.043a4.391,4.391,0,0,0,.762-.826A1.479,1.479,0,0,0,191.237,330.181Z" transform="translate(-186.898 -329.301)" fill="#6595bf"/>
                    </g>
                  </g>
                  <circle id="Elipse_4765" data-name="Elipse 4765" cx="2.402" cy="2.402" r="2.402" transform="translate(1.614)" fill="#ebebeb"/>
                </g>
                <g id="Grupo_68503" data-name="Grupo 68503" transform="translate(0.914 49.963)">
                  <g id="Grupo_68500" data-name="Grupo 68500" transform="translate(0 3.747)">
                    <path id="Trazado_140620" data-name="Trazado 140620" d="M234.639,301.081c0,.048-10.074.086-22.5.086s-22.5-.039-22.5-.086,10.071-.087,22.5-.087S234.639,301.033,234.639,301.081Z" transform="translate(-189.643 -300.994)" fill="#455a64"/>
                  </g>
                  <g id="Grupo_68501" data-name="Grupo 68501">
                    <path id="Trazado_140621" data-name="Trazado 140621" d="M234.639,289.826c0,.048-10.074.087-22.5.087s-22.5-.039-22.5-.087,10.071-.087,22.5-.087S234.639,289.778,234.639,289.826Z" transform="translate(-189.643 -289.739)" fill="#455a64"/>
                  </g>
                  <g id="Grupo_68502" data-name="Grupo 68502" transform="translate(0 7.544)">
                    <path id="Trazado_140622" data-name="Trazado 140622" d="M214.135,312.487c0,.048-5.483.087-12.245.087s-12.246-.039-12.246-.087,5.482-.087,12.246-.087S214.135,312.439,214.135,312.487Z" transform="translate(-189.643 -312.4)" fill="#455a64"/>
                  </g>
                </g>
              </g>
              <g id="Grupo_68508" data-name="Grupo 68508" transform="translate(29.304 122.559)">
                <g id="Grupo_68505" data-name="Grupo 68505">
                  <path id="Trazado_140623" data-name="Trazado 140623" d="M250.3,433.337a.956.956,0,1,1-.952-.974A.963.963,0,0,1,250.3,433.337Z" transform="translate(-248.392 -432.363)" fill="#263238"/>
                </g>
                <g id="Grupo_68506" data-name="Grupo 68506" transform="translate(2.962 0.014)">
                  <path id="Trazado_140624" data-name="Trazado 140624" d="M259.2,433.378a.956.956,0,1,1-.952-.974A.962.962,0,0,1,259.2,433.378Z" transform="translate(-257.29 -432.404)" fill="#263238"/>
                </g>
                <g id="Grupo_68507" data-name="Grupo 68507" transform="translate(5.924 0.027)">
                  <path id="Trazado_140625" data-name="Trazado 140625" d="M268.1,433.419a.956.956,0,1,1-.952-.974A.962.962,0,0,1,268.1,433.419Z" transform="translate(-266.188 -432.445)" fill="#263238"/>
                </g>
              </g>
            </g>
            <g id="Grupo_68512" data-name="Grupo 68512" transform="translate(7.1 32.274)">
              <rect id="Rectángulo_31751" data-name="Rectángulo 31751" width="53.24" height="32.559" fill="#e0e0e0"/>
              <path id="Trazado_140626" data-name="Trazado 140626" d="M196.457,218.057l15.256-20.419,9.458,12.77,6.41-6.83,12.572,14.467Z" transform="translate(-191.542 -185.492)" fill="#f5f5f5"/>
              <g id="Grupo_68511" data-name="Grupo 68511" transform="translate(26.756 6.201)">
                <g id="Grupo_68510" data-name="Grupo 68510">
                  <path id="Trazado_140627" data-name="Trazado 140627" d="M268.948,183.221a3.441,3.441,0,1,1-3.442-3.44A3.44,3.44,0,0,1,268.948,183.221Z" transform="translate(-262.067 -179.781)" fill="#f5f5f5"/>
                </g>
              </g>
            </g>
            <g id="Grupo_68513" data-name="Grupo 68513" transform="translate(6.87 21.354)">
              <path id="Trazado_140628" data-name="Trazado 140628" d="M234.329,202.09c0-.7-.032-30.109-.079-73.651l.079.079-53.233.008h-.006l.087-.087c-.006,27.544-.012,53.035-.016,73.651l-.07-.071,53.239.071-53.239.071h-.071v-.071c0-20.616-.01-46.107-.016-73.651v-.087h.093l53.233.008h.079v.079c-.016,21.792-.029,40.213-.039,53.188-.009,6.478-.016,11.6-.021,15.1,0,1.746-.007,3.088-.009,4q0,.676,0,1.025C234.332,201.976,234.329,202.09,234.329,202.09Z" transform="translate(-181.003 -128.353)" fill="#263238"/>
            </g>
          </g>
        </g>
      </g>
      <g id="Megaphone" transform="translate(49.869 33.014)">
        <g id="Grupo_68542" data-name="Grupo 68542">
          <g id="Grupo_68536" data-name="Grupo 68536">
            <g id="Grupo_68534" data-name="Grupo 68534">
              <g id="Grupo_68516" data-name="Grupo 68516" transform="translate(35.369 66.564)">
                <path id="Trazado_140629" data-name="Trazado 140629" d="M222.821,341.081,224,337.124c.205-.858.478-1.871.846-3.026a8.165,8.165,0,0,1,1.949-2.915,14.355,14.355,0,0,1,2.582-1.88c.074-.047.155-.115.225-.152a1.273,1.273,0,0,0,.393-.34c.7-.753.028-1.919-1.387-1.808-1.065.084-2.8.388-5.625,3.3-.035.044-.072.081-.107.127-1.482,1.926-2.874-3.573-3.125-5.619a2.145,2.145,0,0,0-2.9-1.664l-6.878,3.217a3.21,3.21,0,0,0-2.008.068,2.044,2.044,0,0,0-1.31,2.427l2.79,11.136-8.194,27.262h17.66Z" transform="translate(-201.252 -323.009)" fill="#ffbe9d"/>
              </g>
              <g id="Grupo_68532" data-name="Grupo 68532">
                <g id="Grupo_68524" data-name="Grupo 68524">
                  <g id="Grupo_68518" data-name="Grupo 68518" transform="translate(39.511 55.749)">
                    <g id="Grupo_68517" data-name="Grupo 68517">
                      <path id="Trazado_140630" data-name="Trazado 140630" d="M244.688,294.371l-5.459,10.7-2.729-.758-13.72,11.161a2.779,2.779,0,0,1-3.861-.343l-5.224-6.07s10.533-4.538,12.481-8.294-.3-4.608-.3-4.608l4.958-5.634Z" transform="translate(-213.694 -290.522)" fill="#6595bf"/>
                    </g>
                  </g>
                  <g id="Grupo_68519" data-name="Grupo 68519">
                    <path id="Trazado_140631" data-name="Trazado 140631" d="M158.431,160.8s-7.991-1.767-19.236-12.581-16.528-25.173-17.905-25.1-7.386-2.72-18.817,22.144-6.928,30.639-4.654,30.592,17.719-4.351,27.366-3.254,22.046,6.124,22.046,6.124Z" transform="translate(-95.007 -123.056)" fill="#6595bf"/>
                  </g>
                  <g id="Grupo_68520" data-name="Grupo 68520" transform="translate(50.507 33.061)">
                    <path id="Trazado_140632" data-name="Trazado 140632" d="M276.618,240.607l-2.726,5.183-1.221,2.322a6.765,6.765,0,0,1-8.818,3l-17.127-5.968,9.975-22.772,17.112,9.119A6.765,6.765,0,0,1,276.618,240.607Z" transform="translate(-246.725 -222.368)" fill="#5e6178"/>
                  </g>
                  <g id="Grupo_68522" data-name="Grupo 68522" transform="translate(1.497 0.57)">
                    <path id="Trazado_140634" data-name="Trazado 140634" d="M106.4,146.858c-6.083,13.469-8.615,25.472-5.656,26.809s10.29-8.5,16.374-21.968,8.615-25.472,5.656-26.808S112.48,133.389,106.4,146.858Z" transform="translate(-99.503 -124.769)" fill="#5e6178"/>
                  </g>
                </g>
                <g id="Grupo_68525" data-name="Grupo 68525" transform="translate(77.227 51.869)">
                  <path id="Trazado_140636" data-name="Trazado 140636" d="M331.633,285.785l-4.642-1.458,2.873-5.462,3.482,2.164Z" transform="translate(-326.991 -278.865)" fill="#6595bf"/>
                </g>
                <g id="Grupo_68526" data-name="Grupo 68526" transform="translate(77.227 51.869)" opacity="0.6">
                  <path id="Trazado_140637" data-name="Trazado 140637" d="M329.863,278.865l-2.873,5.462.954.3,2.336-5.5Z" transform="translate(-326.991 -278.865)"/>
                </g>
                <g id="Grupo_68527" data-name="Grupo 68527" transform="translate(66.796 48.546)">
                  <path id="Trazado_140638" data-name="Trazado 140638" d="M305.762,273.467a51.709,51.709,0,0,1-10.1-4.566,51.738,51.738,0,0,1,10.1,4.566Z" transform="translate(-295.656 -268.884)" fill="#6595bf"/>
                </g>
                <g id="Grupo_68528" data-name="Grupo 68528" transform="translate(69.225 45.377)">
                  <path id="Trazado_140639" data-name="Trazado 140639" d="M312.056,263.863a43.23,43.23,0,0,1-9.1-4.483,43.382,43.382,0,0,1,9.1,4.483Z" transform="translate(-302.952 -259.364)" fill="#6595bf"/>
                </g>
                <g id="Grupo_68529" data-name="Grupo 68529" transform="translate(65.888 52.429)">
                  <path id="Trazado_140640" data-name="Trazado 140640" d="M302.142,284.66c-.025.079-.576-.048-1.456-.32-.439-.136-.96-.308-1.536-.507s-1.166-.508-1.8-.8a19.691,19.691,0,0,1-4.415-2.47c.075-.161,2.148.761,4.664,1.928.631.286,1.217.6,1.769.832s1.051.433,1.466.617C301.66,284.313,302.166,284.582,302.142,284.66Z" transform="translate(-292.929 -280.549)" fill="#6595bf"/>
                </g>
                <g id="Grupo_68530" data-name="Grupo 68530" transform="translate(8.952 18.678)">
                  <path id="Trazado_140641" data-name="Trazado 140641" d="M133.738,180.149s-6.945-4.307-10.745,5.077,3.507,10.926,3.507,10.926A62.519,62.519,0,0,0,133.738,180.149Z" transform="translate(-121.897 -179.163)" fill="#6595bf"/>
                </g>
                <g id="Grupo_68531" data-name="Grupo 68531" transform="translate(8.279 8.481)" opacity="0.5">
                  <path id="Trazado_140642" data-name="Trazado 140642" d="M139.777,148.533a10.458,10.458,0,0,1-.272,1.793c-.22,1.147-.53,2.811-.976,4.855-.294,1.007-.615,2.106-.959,3.284l-.54,1.829-.283.956c-.1.321-.239.635-.36.959l-1.569,4.048-.413,1.062c-.135.359-.326.7-.488,1.049l-1.032,2.129-1.036,2.128c-.177.346-.325.7-.523,1.033l-.579.982-2.213,3.737c-.18.3-.344.6-.532.876l-.577.816-1.106,1.558-1.991,2.786c-1.328,1.609-2.442,2.879-3.207,3.76a10.547,10.547,0,0,1-1.242,1.323,10.583,10.583,0,0,1,1.063-1.471l3.06-3.879,1.917-2.808,1.071-1.56.561-.815c.183-.28.342-.581.518-.876l2.169-3.729.571-.977c.2-.326.341-.683.516-1.027l1.025-2.114,1.028-2.112c.162-.35.353-.685.488-1.04l.415-1.052,1.591-4.009c.124-.321.262-.631.369-.948l.294-.946.565-1.809c.367-1.164.709-2.251,1.024-3.245l1.155-4.793A10.728,10.728,0,0,1,139.777,148.533Z" transform="translate(-119.877 -148.533)"/>
                </g>
              </g>
              <g id="Grupo_68533" data-name="Grupo 68533" transform="translate(41.175 64.026)" opacity="0.4">
                <path id="Trazado_140643" data-name="Trazado 140643" d="M218.693,324.9a13.523,13.523,0,0,0,2.218,3.237,4.566,4.566,0,0,0,3.531,1.439,2.794,2.794,0,0,0,2.558-2.53,1.636,1.636,0,0,0,2.108-.372,3.688,3.688,0,0,0,.75-2.186,2.062,2.062,0,0,0,2.6-.705,3.367,3.367,0,0,0,.328-2.849,9.973,9.973,0,0,0-1.367-2.619,3.622,3.622,0,0,0,1.937-.2,1.248,1.248,0,0,0,.641-1.635,1.629,1.629,0,0,0-.955-.609,6.164,6.164,0,0,0-2.818-.455c-.249,0,.428,2.822-6.286,6.678A56.394,56.394,0,0,1,218.693,324.9Z" transform="translate(-218.693 -315.383)"/>
              </g>
            </g>
            <g id="Grupo_68535" data-name="Grupo 68535" transform="translate(49.475 77.453)">
              <path id="Trazado_140644" data-name="Trazado 140644" d="M250.445,355.879c0,.031-.451-.055-1.176-.035a6.647,6.647,0,0,0-4.935,2.366c-.469.553-.682.955-.709.939a1.031,1.031,0,0,1,.132-.291,5.319,5.319,0,0,1,.482-.725,6.289,6.289,0,0,1,5.029-2.411,5.357,5.357,0,0,1,.868.078A1.028,1.028,0,0,1,250.445,355.879Z" transform="translate(-243.624 -355.72)" fill="#eb996e"/>
            </g>
            <path id="Trazado_140645" data-name="Trazado 140645" d="M220.008,326.747c1.082,1.039,1.821,2.186,2.956,3.232.515.475,1.316,1.376,2.007,1.5s1.134.028,1.407-.618c.221-.523-.176-1.238-.451-1.669-.723-1.134-1.414-2.02-1.955-2.9-.254-.413.075-.5.194-.307.521.54,1.3,1.007,1.763,1.595.639.8.754,1.87,2.425,1.533a1.506,1.506,0,0,0,.62-.258,1.671,1.671,0,0,0,.39-1.989,5.443,5.443,0,0,0-.93-1.407,4.147,4.147,0,0,0,2.618,1.74,1.558,1.558,0,0,0,1.583-.857,2.065,2.065,0,0,0-.627-2.088,21.744,21.744,0,0,0-2.839-2.9,2.16,2.16,0,0,0-1.38-.512,2.012,2.012,0,0,0-1.678.615,2.27,2.27,0,0,0-.454,1.74,2.89,2.89,0,0,0-2.645.034,3.738,3.738,0,0,0-1.47,2.115Z" transform="translate(-178.395 -254.996)" fill="#ffbe9d"/>
            <path id="Trazado_140646" data-name="Trazado 140646" d="M242.617,313.518a1.757,1.757,0,0,1-.207-1.984c.249-.489.564-.964.883-1.072,1.4-.471,7.491.584,7.435,1.937-.057,1.389-.5,2-3.809,1.523-.582-.084-1.5-.2-1.5-.2l-.8,1.2Z" transform="translate(-193.199 -247.999)" fill="#ffbe9d"/>
          </g>
          <g id="Grupo_68537" data-name="Grupo 68537" transform="translate(47.15 68.135)">
            <path id="Trazado_140647" data-name="Trazado 140647" d="M240,330.778a8,8,0,0,0-3.359-3.045,1.947,1.947,0,0,1,.645.227,5.789,5.789,0,0,1,2.425,2.2A1.948,1.948,0,0,1,240,330.778Z" transform="translate(-236.641 -327.729)" fill="#eb996e"/>
          </g>
          <g id="Grupo_68538" data-name="Grupo 68538" transform="translate(49.525 65.837)">
            <path id="Trazado_140648" data-name="Trazado 140648" d="M245.786,322.015c-.031.028-.433-.3-.982-.636a6.894,6.894,0,0,0-.715-.394c-.188-.089-.313-.113-.313-.139s.143-.04.355.024a3.275,3.275,0,0,1,.764.362A2.361,2.361,0,0,1,245.786,322.015Z" transform="translate(-243.776 -320.826)" fill="#eb996e"/>
          </g>
          <g id="Grupo_68539" data-name="Grupo 68539" transform="translate(50.41 64.966)">
            <path id="Trazado_140649" data-name="Trazado 140649" d="M248.583,319.011a2.635,2.635,0,0,1-1.174-.132,2.147,2.147,0,0,1-.751-.394c-.167-.142-.237-.261-.221-.276a4.912,4.912,0,0,0,1.023.5A8.745,8.745,0,0,1,248.583,319.011Z" transform="translate(-246.434 -318.208)" fill="#eb996e"/>
          </g>
          <g id="Grupo_68540" data-name="Grupo 68540" transform="translate(41.791 69.822)">
            <path id="Trazado_140650" data-name="Trazado 140650" d="M225.385,335.833a4.247,4.247,0,0,1-.556-.722,6.555,6.555,0,0,0-1.423-1.617,2.869,2.869,0,0,0-2.015-.534,3.665,3.665,0,0,0-.849.27c-.006-.008.058-.07.194-.154a1.9,1.9,0,0,1,.635-.237,2.832,2.832,0,0,1,2.136.514,5.792,5.792,0,0,1,1.424,1.69A5.415,5.415,0,0,1,225.385,335.833Z" transform="translate(-220.542 -332.796)" fill="#eb996e"/>
          </g>
          <g id="Grupo_68541" data-name="Grupo 68541" transform="translate(46.295 86.328)">
            <path id="Trazado_140651" data-name="Trazado 140651" d="M239.076,382.391a36.552,36.552,0,0,1-5,.544,36.539,36.539,0,0,1,5-.544Z" transform="translate(-234.074 -382.378)" fill="#eb996e"/>
          </g>
        </g>
      </g>
      <g id="Stars" transform="translate(17.569 8.641)">
        <g id="Grupo_68543" data-name="Grupo 68543" transform="translate(0 0)">
          <path id="Trazado_140652" data-name="Trazado 140652" d="M404.5,49.844l.376.687.687.376-.687.376-.376.687-.376-.687-.687-.376.687-.376Z" transform="translate(-244.991 -49.844)" fill="#d9a171"/>
          <path id="Trazado_140653" data-name="Trazado 140653" d="M428.106,101.014l.376.687.687.376-.687.376-.376.687-.376-.687-.687-.376.687-.376Z" transform="translate(-260.738 -83.979)" fill="#d9a171"/>
          <path id="Trazado_140654" data-name="Trazado 140654" d="M49.773,237.533l.376.687.687.376-.687.376-.376.687-.376-.687-.687-.376.687-.376Z" transform="translate(-48.711 -175.052)" fill="#d9a171"/>
          <path id="Trazado_140655" data-name="Trazado 140655" d="M370.743,62.562l.868,1.587,1.587.868-1.587.868-.868,1.587-.868-1.587-1.587-.868,1.587-.868Z" transform="translate(-221.542 -58.328)" fill="#d9a171"/>
          <path id="Trazado_140656" data-name="Trazado 140656" d="M68.153,205.1l.866,1.583,1.583.866-1.583.866L68.153,210l-.866-1.583-1.583-.866,1.583-.866Z" transform="translate(-60.047 -153.413)" fill="#d9a171"/>
          <path id="Trazado_140657" data-name="Trazado 140657" d="M431.75,318.565l.866,1.583,1.583.866-1.583.866-.866,1.583-.866-1.583-1.583-.866,1.583-.866Z" transform="translate(-262.244 -229.108)" fill="#d9a171"/>
        </g>
      </g>
    </g>
  </g>
</svg>
