<svg xmlns="http://www.w3.org/2000/svg" width="243" height="168" viewBox="0 0 243 168">
  <g id="Grupo_69951" data-name="Grupo 69951" transform="translate(-306 -11489.468)">
    <rect id="Rectángulo_31353" data-name="Rectángulo 31353" width="243" height="168" transform="translate(306 11489.469)" fill="none"/>
    <g id="Grupo_69949" data-name="Grupo 69949" transform="translate(315.401 11495.851)">
      <rect id="Rectángulo_31810" data-name="Rectángulo 31810" width="192.772" height="103.518" transform="translate(8.454 42.053)" fill="#f2c190"/>
      <rect id="Rectángulo_31811" data-name="Rectángulo 31811" width="192.772" height="26.738" transform="translate(8.454 118.833)" fill="#a66d58"/>
      <rect id="Rectángulo_31812" data-name="Rectángulo 31812" width="192.772" height="3.861" transform="translate(8.454 118.833)" fill="#ebae6c"/>
      <rect id="Rectángulo_31813" data-name="Rectángulo 31813" width="20.176" height="50.171" transform="translate(110.023 68.661)" fill="#5e6178"/>
      <rect id="Rectángulo_31814" data-name="Rectángulo 31814" width="20.178" height="50.171" transform="translate(177.187 68.661)" fill="#5e6178"/>
      <rect id="Rectángulo_31815" data-name="Rectángulo 31815" width="39.312" height="82.655" transform="translate(134.061 62.916)" fill="#d9a171"/>
      <rect id="Rectángulo_31816" data-name="Rectángulo 31816" width="3.861" height="82.655" transform="translate(173.375 62.916)" fill="#ebae6c"/>
      <rect id="Rectángulo_31817" data-name="Rectángulo 31817" width="3.862" height="82.655" transform="translate(130.2 62.916)" fill="#ebae6c"/>
      <rect id="Rectángulo_31818" data-name="Rectángulo 31818" width="3.862" height="103.518" transform="translate(106.161 42.053)" fill="#ebae6c"/>
      <rect id="Rectángulo_31819" data-name="Rectángulo 31819" width="3.861" height="103.518" transform="translate(197.365 42.053)" fill="#ebae6c"/>
      <path id="Trazado_140931" data-name="Trazado 140931" d="M88.06,160.924H80.341V194.9a3.87,3.87,0,0,0,3.861,3.858h0A3.869,3.869,0,0,0,88.06,194.9Z" transform="translate(104.972 -118.87)" fill="#6595bf" fill-rule="evenodd"/>
      <path id="Trazado_140932" data-name="Trazado 140932" d="M85.68,160.924H77.961v34.654a3.193,3.193,0,0,0,3.186,3.183H82.5a3.191,3.191,0,0,0,3.183-3.183Z" transform="translate(99.63 -118.87)" fill="#fff" fill-rule="evenodd"/>
      <path id="Trazado_140933" data-name="Trazado 140933" d="M83.3,160.924H75.581V194.9a3.872,3.872,0,0,0,3.861,3.858h0A3.872,3.872,0,0,0,83.3,194.9Z" transform="translate(94.287 -118.87)" fill="#6595bf" fill-rule="evenodd"/>
      <path id="Trazado_140934" data-name="Trazado 140934" d="M80.921,160.924H73.2V194.9a3.87,3.87,0,0,0,3.861,3.858h0a3.869,3.869,0,0,0,3.858-3.858Z" transform="translate(88.947 -118.87)" fill="#fff" fill-rule="evenodd"/>
      <path id="Trazado_140935" data-name="Trazado 140935" d="M78.545,160.924H70.822V194.9a3.87,3.87,0,0,0,3.861,3.858h0a3.872,3.872,0,0,0,3.861-3.858Z" transform="translate(83.604 -118.87)" fill="#6595bf" fill-rule="evenodd"/>
      <path id="Trazado_140936" data-name="Trazado 140936" d="M76.162,160.924H68.443V194.9a3.869,3.869,0,0,0,3.858,3.858h0a3.87,3.87,0,0,0,3.861-3.858Z" transform="translate(78.264 -118.87)" fill="#fff" fill-rule="evenodd"/>
      <path id="Trazado_140937" data-name="Trazado 140937" d="M73.786,160.924H66.063V194.9a3.872,3.872,0,0,0,3.861,3.858h0a3.872,3.872,0,0,0,3.861-3.858Z" transform="translate(72.921 -118.87)" fill="#6595bf" fill-rule="evenodd"/>
      <path id="Trazado_140938" data-name="Trazado 140938" d="M71.406,160.924H63.683v34.654a3.193,3.193,0,0,0,3.186,3.183h1.35a3.193,3.193,0,0,0,3.186-3.183Z" transform="translate(67.579 -118.87)" fill="#fff" fill-rule="evenodd"/>
      <path id="Trazado_140939" data-name="Trazado 140939" d="M69.023,160.924H61.3V194.9a3.87,3.87,0,0,0,3.861,3.858h0a3.869,3.869,0,0,0,3.858-3.858Z" transform="translate(62.238 -118.87)" fill="#6595bf" fill-rule="evenodd"/>
      <path id="Trazado_140940" data-name="Trazado 140940" d="M66.647,160.924H58.924V194.9a3.872,3.872,0,0,0,3.861,3.858h0a3.87,3.87,0,0,0,3.861-3.858Z" transform="translate(56.896 -118.87)" fill="#fff" fill-rule="evenodd"/>
      <path id="Trazado_140941" data-name="Trazado 140941" d="M64.264,160.924H56.545V194.9a3.87,3.87,0,0,0,3.861,3.858h0a3.869,3.869,0,0,0,3.858-3.858Z" transform="translate(51.555 -118.87)" fill="#6595bf" fill-rule="evenodd"/>
      <path id="Trazado_140942" data-name="Trazado 140942" d="M67.289,184.417a2.377,2.377,0,1,0-2.378-2.378A2.381,2.381,0,0,0,67.289,184.417Z" transform="translate(70.335 -76.805)" fill="#815c4a" fill-rule="evenodd"/>
      <rect id="Rectángulo_31820" data-name="Rectángulo 31820" width="93.846" height="50.171" transform="translate(12.315 68.661)" fill="#5e6178"/>
      <rect id="Rectángulo_31821" data-name="Rectángulo 31821" width="3.861" height="76.779" transform="translate(8.454 42.053)" fill="#ebae6c"/>
      <rect id="Rectángulo_31822" data-name="Rectángulo 31822" width="90.385" height="3.72" transform="translate(11.771 63.959)" fill="#ebae6c"/>
      <rect id="Rectángulo_31823" data-name="Rectángulo 31823" width="90.385" height="3.719" transform="translate(11.771 42.053)" fill="#ebae6c"/>
      <rect id="Rectángulo_31824" data-name="Rectángulo 31824" width="3.861" height="54.034" transform="translate(81.867 64.799)" fill="#ebae6c"/>
      <rect id="Rectángulo_31825" data-name="Rectángulo 31825" width="3.862" height="54.034" transform="translate(57.872 64.799)" fill="#ebae6c"/>
      <rect id="Rectángulo_31826" data-name="Rectángulo 31826" width="3.861" height="54.034" transform="translate(33.772 64.799)" fill="#ebae6c"/>
      <path id="Trazado_140943" data-name="Trazado 140943" d="M211.029,154.126H55.315L23.23,176.184H231.8Z" transform="translate(-23.229 -134.13)" fill="#5e6178" fill-rule="evenodd"/>
      <path id="Trazado_140948" data-name="Trazado 140948" d="M59.505,160.924H51.786V194.9a3.869,3.869,0,0,0,3.858,3.858h0a3.87,3.87,0,0,0,3.861-3.858Z" transform="translate(40.872 -118.87)" fill="#6595bf" fill-rule="evenodd"/>
      <path id="Trazado_140949" data-name="Trazado 140949" d="M57.129,160.924H49.406v34.654a3.191,3.191,0,0,0,3.186,3.183h1.35a3.193,3.193,0,0,0,3.186-3.183Z" transform="translate(35.53 -118.87)" fill="#fff" fill-rule="evenodd"/>
      <path id="Trazado_140950" data-name="Trazado 140950" d="M54.749,160.924H47.026V194.9a3.872,3.872,0,0,0,3.861,3.858h0a3.87,3.87,0,0,0,3.861-3.858Z" transform="translate(30.187 -118.87)" fill="#6595bf" fill-rule="evenodd"/>
      <path id="Trazado_140951" data-name="Trazado 140951" d="M52.366,160.924H44.647V194.9a3.869,3.869,0,0,0,3.858,3.858h0a3.87,3.87,0,0,0,3.861-3.858Z" transform="translate(24.847 -118.87)" fill="#fff" fill-rule="evenodd"/>
      <path id="Trazado_140952" data-name="Trazado 140952" d="M49.99,160.924H42.267V194.9a3.872,3.872,0,0,0,3.861,3.858h0A3.872,3.872,0,0,0,49.99,194.9Z" transform="translate(19.504 -118.87)" fill="#6595bf" fill-rule="evenodd"/>
      <path id="Trazado_140953" data-name="Trazado 140953" d="M47.607,160.924H39.888V194.9a3.87,3.87,0,0,0,3.861,3.858h0a3.869,3.869,0,0,0,3.858-3.858Z" transform="translate(14.164 -118.87)" fill="#fff" fill-rule="evenodd"/>
      <path id="Trazado_140954" data-name="Trazado 140954" d="M45.231,160.924H37.508V194.9a3.87,3.87,0,0,0,3.861,3.858h0a3.872,3.872,0,0,0,3.861-3.858Z" transform="translate(8.821 -118.87)" fill="#6595bf" fill-rule="evenodd"/>
      <path id="Trazado_140955" data-name="Trazado 140955" d="M42.848,160.924H35.129v34.654a3.191,3.191,0,0,0,3.183,3.183h1.35a3.193,3.193,0,0,0,3.186-3.183Z" transform="translate(3.481 -118.87)" fill="#fff" fill-rule="evenodd"/>
      <path id="Trazado_140956" data-name="Trazado 140956" d="M40.472,160.924H32.749V194.9a3.87,3.87,0,0,0,3.861,3.858h0a3.872,3.872,0,0,0,3.861-3.858Z" transform="translate(-1.862 -118.87)" fill="#6595bf" fill-rule="evenodd"/>
      <path id="Trazado_140957" data-name="Trazado 140957" d="M38.092,160.924H30.369V194.9a3.872,3.872,0,0,0,3.861,3.858h0a3.872,3.872,0,0,0,3.861-3.858Z" transform="translate(-7.204 -118.87)" fill="#fff" fill-rule="evenodd"/>
      <path id="Trazado_140958" data-name="Trazado 140958" d="M35.709,160.924H27.99V194.9a3.869,3.869,0,0,0,3.858,3.858h0a3.87,3.87,0,0,0,3.861-3.858Z" transform="translate(-12.545 -118.87)" fill="#6595bf" fill-rule="evenodd"/>
      <path id="Trazado_140959" data-name="Trazado 140959" d="M33.329,160.924H25.61V194.9a3.872,3.872,0,0,0,3.861,3.858h0a3.869,3.869,0,0,0,3.858-3.858Z" transform="translate(-17.887 -118.87)" fill="#fff" fill-rule="evenodd"/>
      <path id="Trazado_140960" data-name="Trazado 140960" d="M30.953,160.924H23.23V194.9a3.872,3.872,0,0,0,3.861,3.858h0a3.87,3.87,0,0,0,3.861-3.858Z" transform="translate(-23.23 -118.87)" fill="#6595bf" fill-rule="evenodd"/>
      <path id="Trazado_140961" data-name="Trazado 140961" d="M90.443,160.924H82.72v34.654a3.193,3.193,0,0,0,3.186,3.183h1.35a3.193,3.193,0,0,0,3.186-3.183Z" transform="translate(110.313 -118.87)" fill="#fff" fill-rule="evenodd"/>
      <path id="Trazado_140962" data-name="Trazado 140962" d="M61.888,160.924H54.165V194.9a3.872,3.872,0,0,0,3.861,3.858h0a3.872,3.872,0,0,0,3.861-3.858Z" transform="translate(46.213 -118.87)" fill="#fff" fill-rule="evenodd"/>
      <path id="Trazado_140963" data-name="Trazado 140963" d="M92.819,160.924H85.1V194.9a3.87,3.87,0,0,0,3.861,3.858h0a3.869,3.869,0,0,0,3.858-3.858Z" transform="translate(115.655 -118.87)" fill="#6595bf" fill-rule="evenodd"/>
      <rect id="Rectángulo_31831" data-name="Rectángulo 31831" width="39.312" height="3.352" transform="translate(134.061 142.22)" fill="#815c4a"/>
      <g id="Grupo_69948" data-name="Grupo 69948" transform="translate(27.306 0)">
        <rect id="Rectángulo_31832" data-name="Rectángulo 31832" width="158.007" height="30.831" rx="0.86" fill="#a66d58"/>
        <rect id="Rectángulo_31833" data-name="Rectángulo 31833" width="150.349" height="23.566" rx="0.717" transform="translate(3.83 3.633)" fill="#d9a171"/>
        <text id="RESTAURANTE" transform="translate(22.258 20.22)" fill="#815c4a" font-size="16" font-family="Roboto-Black, Roboto" font-weight="800"><tspan x="0" y="0">RESTAURANTE</tspan></text>
      </g>
    </g>
  </g>
</svg>
