<svg xmlns="http://www.w3.org/2000/svg" xmlns:xlink="http://www.w3.org/1999/xlink" width="190" height="141" viewBox="0 0 190 141">
  <defs>
    <clipPath id="clip-path">
      <rect id="Rectángulo_404866" data-name="Rectángulo 404866" width="141" height="141" transform="translate(0 0.359)" fill="none"/>
    </clipPath>
  </defs>
  <g id="Grupo_1111739" data-name="Grupo 1111739" transform="translate(-1230.051 -11486)">
    <g id="Grupo_1111641" data-name="Grupo 1111641" transform="translate(1252.348 11485.938)">
      <g id="Grupo_1111640" data-name="Grupo 1111640" transform="translate(-0.297 -0.297)" clip-path="url(#clip-path)">
        <path id="Trazado_901506" data-name="Trazado 901506" d="M141.234,70.617A70.617,70.617,0,1,1,70.617,0a70.617,70.617,0,0,1,70.617,70.617" transform="translate(0.174 0.174)" fill="#f2e6dc"/>
        <path id="Trazado_901507" data-name="Trazado 901507" d="M603.654,561.681q-.564,0-1.149-.022a.077.077,0,0,1-.074-.08.076.076,0,0,1,.08-.074c6.782.259,11.264-1.679,13.325-5.76,2.178-4.313.553-9.478-1.194-13.051a37.031,37.031,0,0,0-8.58-11.154,56.129,56.129,0,0,0-18.835-10.685.077.077,0,1,1,.053-.145,56.271,56.271,0,0,1,18.883,10.713,37.2,37.2,0,0,1,8.618,11.2c1.762,3.6,3.4,8.819,1.193,13.188a9.734,9.734,0,0,1-5.19,4.658,18.839,18.839,0,0,1-7.13,1.21" transform="translate(-541.687 -480.344)" fill="#776e42"/>
        <path id="Trazado_901508" data-name="Trazado 901508" d="M80.011,440.694a32.623,32.623,0,1,1-32.435-32.811,32.623,32.623,0,0,1,32.435,32.811" transform="translate(-13.452 -376.23)" fill="#e6d0be"/>
        <path id="Trazado_901509" data-name="Trazado 901509" d="M107.7,472.284H107.5a32.7,32.7,0,1,1,.194,0m-.009-65.247a32.546,32.546,0,0,0-.184,65.092h.19a32.582,32.582,0,0,0,32.543-32.359h0a32.583,32.583,0,0,0-32.358-32.733h-.19" transform="translate(-69.03 -375.307)" fill="#fff"/>
        <path id="Trazado_901510" data-name="Trazado 901510" d="M191.114,572.046a74.87,74.87,0,0,1-25.735-4.408.077.077,0,0,1,.054-.145,77.2,77.2,0,0,0,51.192.063.077.077,0,1,1,.053.145,74.968,74.968,0,0,1-25.564,4.345" transform="translate(-152.395 -523.517)" fill="#fff"/>
        <path id="Trazado_901511" data-name="Trazado 901511" d="M161.536,1032.006a.077.077,0,0,1-.027-.149,77.257,77.257,0,0,1,51.947-.046.077.077,0,1,1-.054.145,77.1,77.1,0,0,0-51.838.046.081.081,0,0,1-.027,0" transform="translate(-148.824 -947.876)" fill="#fff"/>
        <path id="Trazado_901512" data-name="Trazado 901512" d="M295.251,472.284a10.43,10.43,0,0,1-6.642-2.581,22,22,0,0,1-5.4-7.016c-3.2-6.173-4.97-14.378-4.97-23.1s1.765-16.931,4.97-23.1a22,22,0,0,1,5.4-7.016,9.836,9.836,0,0,1,13.283,0,22,22,0,0,1,5.4,7.016c3.2,6.173,4.97,14.378,4.97,23.1s-1.765,16.931-4.97,23.1a21.994,21.994,0,0,1-5.4,7.016,10.43,10.43,0,0,1-6.642,2.581m0-65.247c-9.3,0-16.86,14.6-16.86,32.546s7.564,32.546,16.86,32.546,16.86-14.6,16.86-32.546-7.564-32.546-16.86-32.546" transform="translate(-256.589 -375.307)" fill="#fff"/>
        <path id="Trazado_901513" data-name="Trazado 901513" d="M497.776,473.071a.077.077,0,0,1-.077-.077V407.86a.077.077,0,1,1,.154,0v65.134a.077.077,0,0,1-.077.077" transform="translate(-459.114 -376.138)" fill="#fff"/>
        <path id="Trazado_901514" data-name="Trazado 901514" d="M140.09,824.388h0l-65.273-.509a.077.077,0,0,1,0-.154h0l65.273.509a.077.077,0,0,1,0,.154" transform="translate(-68.798 -759.979)" fill="#fff"/>
        <path id="Trazado_901515" data-name="Trazado 901515" d="M101.2,601.552a7.856,7.856,0,0,0-7.856,7.856c0,4.339,7.856,13.914,7.856,13.914s7.856-9.575,7.856-13.914a7.856,7.856,0,0,0-7.856-7.856" transform="translate(-85.964 -554.952)" fill="#d87355"/>
        <path id="Trazado_901516" data-name="Trazado 901516" d="M125.485,639.071a5.376,5.376,0,1,0,5.376-5.376,5.376,5.376,0,0,0-5.376,5.376" transform="translate(-115.627 -584.615)" fill="#fff"/>
        <rect id="Rectángulo_404846" data-name="Rectángulo 404846" width="77.021" height="103.778" transform="translate(53.731 7.745)" fill="#fff"/>
        <path id="Trazado_901517" data-name="Trazado 901517" d="M728.8,167.721H651.776a.077.077,0,0,1-.077-.077V63.866a.077.077,0,0,1,.077-.077H728.8a.077.077,0,0,1,.077.077V167.644a.077.077,0,0,1-.077.077m-76.943-.154h76.866V63.943H651.853Z" transform="translate(-601.229 -58.692)" fill="#363e44"/>
        <path id="Trazado_901518" data-name="Trazado 901518" d="M1301.094,250.7h-23.326a.077.077,0,0,1,0-.154h23.326a.077.077,0,0,1,0,.154" transform="translate(-1178.908 -231.039)" fill="#8b865c"/>
        <path id="Trazado_901519" data-name="Trazado 901519" d="M1300.811,306.774h-23.35a.077.077,0,0,1,0-.154h23.35a.077.077,0,0,1,0,.154" transform="translate(-1178.625 -282.782)" fill="#8b865c"/>
        <path id="Trazado_901520" data-name="Trazado 901520" d="M1300.811,362.844h-23.35a.077.077,0,0,1,0-.154h23.35a.077.077,0,0,1,0,.154" transform="translate(-1178.625 -334.525)" fill="#8b865c"/>
        <rect id="Rectángulo_404847" data-name="Rectángulo 404847" width="43.024" height="17.307" transform="translate(61.319 35.639)" fill="#f2e6dc"/>
        <rect id="Rectángulo_404848" data-name="Rectángulo 404848" width="15.949" height="17.307" transform="translate(106.833 35.639)" fill="#f2e6dc"/>
        <rect id="Rectángulo_404849" data-name="Rectángulo 404849" width="43.464" height="4.451" transform="translate(61.397 70.792)" fill="#f2e6dc"/>
        <rect id="Rectángulo_404850" data-name="Rectángulo 404850" width="43.464" height="4.451" transform="translate(61.397 77.34)" fill="#f2e6dc"/>
        <rect id="Rectángulo_404851" data-name="Rectángulo 404851" width="43.464" height="4.451" transform="translate(61.397 83.889)" fill="#f2e6dc"/>
        <rect id="Rectángulo_404852" data-name="Rectángulo 404852" width="43.464" height="4.451" transform="translate(61.397 90.437)" fill="#f2e6dc"/>
        <rect id="Rectángulo_404853" data-name="Rectángulo 404853" width="43.464" height="4.451" transform="translate(61.397 96.985)" fill="#f2e6dc"/>
        <rect id="Rectángulo_404854" data-name="Rectángulo 404854" width="16.112" height="30.644" transform="translate(106.67 70.792)" fill="#f2e6dc"/>
        <rect id="Rectángulo_404855" data-name="Rectángulo 404855" width="61.463" height="4.103" transform="translate(61.397 56.29)" fill="#f2e6dc"/>
        <rect id="Rectángulo_404856" data-name="Rectángulo 404856" width="61.463" height="4.103" transform="translate(61.397 63.174)" fill="#f2e6dc"/>
        <path id="Trazado_901521" data-name="Trazado 901521" d="M806.15,246.791h-3.177v8.774h-1.757v-8.774h-3.149v-1.43h8.083Z" transform="translate(-736.301 -226.251)" fill="#d87355"/>
        <path id="Trazado_901522" data-name="Trazado 901522" d="M904.067,253.189H900.12l-.826,2.376h-1.841l3.849-10.2h1.589l3.856,10.2H904.9Zm-3.45-1.43h2.953l-1.477-4.233Z" transform="translate(-828.016 -226.251)" fill="#d87355"/>
        <path id="Trazado_901523" data-name="Trazado 901523" d="M1027.394,249.047l2.141-3.686h2.044l-3.079,5.06,3.149,5.144h-2.065l-2.191-3.742-2.2,3.742h-2.058l3.156-5.144-3.086-5.06h2.044Z" transform="translate(-944.002 -226.251)" fill="#d87355"/>
        <path id="Trazado_901524" data-name="Trazado 901524" d="M952.138,1518.41l6.77-25.841,34.331,1.36,1.524,24.481H975l-.34-6.456-4.788,6.456Z" transform="translate(-878.481 -1377.204)" fill="#363e44"/>
        <path id="Trazado_901525" data-name="Trazado 901525" d="M1243.062,1683.929a.076.076,0,0,1-.042-.012.077.077,0,0,1-.023-.107l3.19-4.931a.077.077,0,0,1,.13.084l-3.19,4.931a.077.077,0,0,1-.065.035" transform="translate(-1146.881 -1549.102)" fill="#e6d0be"/>
        <path id="Trazado_901526" data-name="Trazado 901526" d="M1161.78,750.72a1.23,1.23,0,0,1-.517-.111c-.842-.387-1.075-1.688-.519-2.9a3.024,3.024,0,0,1,1.148-1.342,1.472,1.472,0,0,1,1.389-.153c.842.387,1.075,1.688.519,2.9a3.025,3.025,0,0,1-1.148,1.342,1.708,1.708,0,0,1-.871.264m-.9-2.946c-.521,1.134-.322,2.343.443,2.695a1.324,1.324,0,0,0,1.245-.145,2.868,2.868,0,0,0,1.087-1.274c.521-1.134.322-2.343-.443-2.695a1.324,1.324,0,0,0-1.245.145,2.869,2.869,0,0,0-1.087,1.274" transform="translate(-1070.708 -688.348)" fill="#363e44"/>
        <path id="Trazado_901527" data-name="Trazado 901527" d="M1169.739,699.861c1.52-3.318,2.7-5.119,4.787-5.884,2.808-1.029,5.564.774,5.849.967a6.48,6.48,0,0,1,3.07,4.856,8.651,8.651,0,0,1-3.867,7.838l-.6,6.841a3.99,3.99,0,0,1-4.321,3.629l-.5-.044a3.991,3.991,0,0,1-3.627-4.324l.4-4.57a3.813,3.813,0,0,1-2.828-1.482c-.681-1.333-.156-3.919,1.633-7.827" transform="translate(-1077.516 -639.953)" fill="#9e6c5a"/>
        <path id="Trazado_901528" data-name="Trazado 901528" d="M1170.777,770.694a.08.08,0,0,1-.023,0l-6.315-1.95a.077.077,0,1,1,.046-.148l6.315,1.95a.077.077,0,0,1-.023.151" transform="translate(-1074.346 -709.098)" fill="#363e44"/>
        <path id="Trazado_901529" data-name="Trazado 901529" d="M1206.574,872.337h-.009a.077.077,0,0,1-.068-.085l.191-1.669a.077.077,0,1,1,.153.017l-.191,1.669a.077.077,0,0,1-.077.068" transform="translate(-1113.209 -803.156)" fill="#363e44"/>
        <path id="Trazado_901530" data-name="Trazado 901530" d="M1247.821,814.782a.077.077,0,0,1-.052-.134c.412-.378.668-.624.855-.8.093-.089.169-.162.239-.227a.077.077,0,1,1,.105.113c-.07.065-.145.137-.237.226-.187.18-.444.426-.858.806a.077.077,0,0,1-.052.02" transform="translate(-1151.273 -750.632)" fill="#363e44"/>
        <path id="Trazado_901531" data-name="Trazado 901531" d="M1229.449,682.59c2.516-2.083,8.285-.252,10.3,2.958,2.722,4.342.658,10.38-3.061,12.174a5.585,5.585,0,0,1-5.32.132c-1.177-.678-.777-2.464-.672-2.893a2.366,2.366,0,0,0,2.155-2.139,2.327,2.327,0,0,0-1.671-2.384,2.232,2.232,0,0,0-1.444.142c-1.65-3.391-2.079-6.507-.286-7.991" transform="translate(-1133.318 -628.918)" fill="#363e44"/>
        <path id="Trazado_901532" data-name="Trazado 901532" d="M1455.72,934.689c6.489-2.464,25.65-8.428,23.059-16.449-2.143-6.635-20.548,0-27.15,2.026l4.091,14.423" transform="translate(-1339.423 -844.542)" fill="#9e6c5a"/>
        <path id="Trazado_901533" data-name="Trazado 901533" d="M1541.536,604.136h0c-5.817-11.19-10.158-19.017-11.4-21.486a5.093,5.093,0,0,1-.493-1.365c-.483-2.414,1.208-3.653,1.858-6.423.737-3.143-.626-5.331.109-5.7.511-.259,1.258.421,2.151,2.25h0c-.519-1.468-1.136-3.49-.325-3.775.955-.279,1.959,2.012,2.5,3.427-.653-1.713-.488-2.819,0-2.865.775-.072,1.59,1.138,2.366,3.435h0c-.093-1.736.144-2.171.588-2.105.812.12,1.414,2.02,1.689,3.782a10.3,10.3,0,0,1-.445,4.66h0c4.886,7.414,6.167,9.152,9.983,15.227,4.335,6.9-2.327,13.893-8.579,10.942" transform="translate(-1411.333 -523.63)" fill="#9e6c5a"/>
        <path id="Trazado_901534" data-name="Trazado 901534" d="M1511.989,658.587c-1.651-2.734-2.826-3.37-3.251-3.094-.714.464-.259,3.375,1.651,7.675.56-1.236,1.04-3.345,1.6-4.581" transform="translate(-1391.829 -604.675)" fill="#9e6c5a"/>
        <path id="Trazado_901535" data-name="Trazado 901535" d="M1582.5,619.785h-.015a.077.077,0,0,1-.061-.09,6.233,6.233,0,0,0-.1-2.8.077.077,0,0,1,.149-.04,6.386,6.386,0,0,1,.1,2.866.077.077,0,0,1-.076.063" transform="translate(-1460.029 -569.023)" fill="#363e44"/>
        <path id="Trazado_901536" data-name="Trazado 901536" d="M1609.469,612.441h-.015a.077.077,0,0,1-.061-.09,6.233,6.233,0,0,0-.1-2.8.077.077,0,0,1,.149-.04,6.383,6.383,0,0,1,.1,2.866.077.077,0,0,1-.076.063" transform="translate(-1484.917 -562.246)" fill="#363e44"/>
        <path id="Trazado_901537" data-name="Trazado 901537" d="M1642.011,622.305H1642a.077.077,0,0,1-.061-.09,6.233,6.233,0,0,0-.1-2.8.077.077,0,0,1,.149-.04,6.38,6.38,0,0,1,.1,2.866.077.077,0,0,1-.076.063" transform="translate(-1514.947 -571.349)" fill="#363e44"/>
        <path id="Trazado_901538" data-name="Trazado 901538" d="M645.146,1028.648c-14.213,3.024-25.375,6.089-24.156,10.651,2.58,9.658,13.3,4.694,22.834,4.609.359-3.917.99-10.512,1.323-15.26" transform="translate(-572.806 -949.086)" fill="#9e6c5a"/>
        <path id="Trazado_901539" data-name="Trazado 901539" d="M632.818,798.617s3.589-9.658,5.13-14.912c1.619-5.518,3.206-13.9,2.031-14.107-.669-.118-1.122.981-2.137,4a1.4,1.4,0,0,0-1.145-.744,1.346,1.346,0,0,0-1.268.8c-.029-.072-.359-.838-.991-.953a1.482,1.482,0,0,0-1.559.672,1.539,1.539,0,0,0-1.036-.89,1.38,1.38,0,0,0-1.529.9c-.325,1.171-1.224,4.67-1.869,6.32-1.269,3.246-7.322,14.168-7.916,19.344,4.4-1,12.287-.427,12.287-.427" transform="translate(-572.466 -710.021)" fill="#9e6c5a"/>
        <path id="Trazado_901540" data-name="Trazado 901540" d="M751.006,836.875h-.011l-1.016-.148a.077.077,0,1,1,.022-.153l1.016.148a.077.077,0,0,1-.011.154" transform="translate(-691.863 -771.835)" fill="#363e44"/>
        <path id="Trazado_901541" data-name="Trazado 901541" d="M782.815,842.058h-.009l-1.154-.131a.077.077,0,0,1,.017-.153l1.154.131a.077.077,0,0,1-.009.154" transform="translate(-721.09 -776.634)" fill="#363e44"/>
        <path id="Trazado_901542" data-name="Trazado 901542" d="M816.366,845.257h-.011l-.533-.075-.531-.075a.077.077,0,1,1,.022-.153l.53.075.534.076a.077.077,0,0,1-.011.154" transform="translate(-752.134 -779.568)" fill="#363e44"/>
        <path id="Trazado_901543" data-name="Trazado 901543" d="M843.69,850.606l-.017,0-1-.221a.077.077,0,1,1,.033-.151l1,.221a.077.077,0,0,1-.017.152" transform="translate(-777.413 -784.439)" fill="#363e44"/>
        <path id="Trazado_901544" data-name="Trazado 901544" d="M943.117,956.932l9.36-3.442-3.75-18.154s-29.234-1.9-52.278,7.071l.48,17.632,7.577.633-5.092,22.648c18.5,2.361,33.52,2.087,46.147,0Z" transform="translate(-827.091 -862.821)" fill="#fd9826"/>
        <path id="Trazado_901545" data-name="Trazado 901545" d="M1480.283,1133.95a.077.077,0,0,1-.076-.065l-.929-5.967a.077.077,0,0,1,.152-.024l.929,5.967a.077.077,0,0,1-.064.088h-.012" transform="translate(-1364.937 -1040.613)" fill="#363e44"/>
        <path id="Trazado_901546" data-name="Trazado 901546" d="M550.393,1703.282c0,1.776-4.547,3.216-10.156,3.216s-10.156-1.44-10.156-3.216,4.547-3.216,10.156-3.216,10.156,1.44,10.156,3.216" transform="translate(-488.996 -1568.686)" fill="#e0aa63"/>
        <rect id="Rectángulo_404857" data-name="Rectángulo 404857" width="20.313" height="3.313" transform="translate(41.084 131.392)" fill="#e0aa63"/>
        <path id="Trazado_901547" data-name="Trazado 901547" d="M550.393,1662.585c0,1.776-4.547,3.216-10.156,3.216s-10.156-1.44-10.156-3.216,4.547-3.216,10.156-3.216,10.156,1.44,10.156,3.216" transform="translate(-488.996 -1531.13)" fill="#efbc73"/>
        <path id="Trazado_901548" data-name="Trazado 901548" d="M554.818,1664.954a24.859,24.859,0,0,1-7.2-.946c-1.953-.618-3.029-1.452-3.029-2.348s1.076-1.729,3.029-2.348a27.923,27.923,0,0,1,14.41,0c1.953.618,3.029,1.452,3.029,2.348s-1.076,1.729-3.029,2.348a24.859,24.859,0,0,1-7.205.946m0-6.432a24.7,24.7,0,0,0-7.158.938c-1.856.588-2.921,1.39-2.921,2.2s1.065,1.613,2.921,2.2a27.77,27.77,0,0,0,14.317,0c1.856-.588,2.921-1.39,2.921-2.2s-1.065-1.613-2.921-2.2a24.7,24.7,0,0,0-7.158-.938" transform="translate(-502.381 -1530.206)" fill="#fff"/>
        <path id="Trazado_901549" data-name="Trazado 901549" d="M559.859,1635.453c0,1.776-4.547,3.216-10.156,3.216s-10.156-1.44-10.156-3.216,4.547-3.216,10.156-3.216,10.156,1.44,10.156,3.216" transform="translate(-497.732 -1506.092)" fill="#e0aa63"/>
        <rect id="Rectángulo_404858" data-name="Rectángulo 404858" width="20.313" height="3.313" transform="translate(41.814 126.157)" fill="#e0aa63"/>
        <path id="Trazado_901550" data-name="Trazado 901550" d="M559.859,1594.756c0,1.776-4.547,3.216-10.156,3.216s-10.156-1.44-10.156-3.216,4.547-3.216,10.156-3.216,10.156,1.44,10.156,3.216" transform="translate(-497.732 -1468.536)" fill="#efbc73"/>
        <path id="Trazado_901551" data-name="Trazado 901551" d="M564.283,1597.126a24.867,24.867,0,0,1-7.2-.945c-1.953-.618-3.029-1.452-3.029-2.348s1.076-1.729,3.029-2.348a27.923,27.923,0,0,1,14.41,0c1.953.618,3.029,1.452,3.029,2.348s-1.076,1.729-3.029,2.348a24.868,24.868,0,0,1-7.205.945m0-6.432a24.711,24.711,0,0,0-7.158.938c-1.856.588-2.921,1.39-2.921,2.2s1.065,1.613,2.921,2.2a27.773,27.773,0,0,0,14.317,0c1.856-.588,2.921-1.39,2.921-2.2s-1.065-1.613-2.921-2.2a24.711,24.711,0,0,0-7.158-.938" transform="translate(-511.115 -1467.613)" fill="#fff"/>
        <path id="Trazado_901552" data-name="Trazado 901552" d="M313.9,1721.025c0,1.776-4.547,3.216-10.156,3.216s-10.156-1.44-10.156-3.216,4.547-3.216,10.156-3.216,10.156,1.44,10.156,3.216" transform="translate(-270.754 -1585.06)" fill="#e0aa63"/>
        <rect id="Rectángulo_404859" data-name="Rectángulo 404859" width="20.313" height="3.313" transform="translate(22.832 132.761)" fill="#e0aa63"/>
        <path id="Trazado_901553" data-name="Trazado 901553" d="M313.9,1680.328c0,1.776-4.547,3.216-10.156,3.216s-10.156-1.44-10.156-3.216,4.547-3.216,10.156-3.216,10.156,1.44,10.156,3.216" transform="translate(-270.754 -1547.504)" fill="#efbc73"/>
        <path id="Trazado_901554" data-name="Trazado 901554" d="M318.324,1682.7a24.868,24.868,0,0,1-7.205-.945c-1.953-.619-3.029-1.452-3.029-2.348s1.076-1.729,3.029-2.348a27.923,27.923,0,0,1,14.41,0c1.953.618,3.029,1.452,3.029,2.348s-1.076,1.729-3.029,2.348a24.868,24.868,0,0,1-7.2.945m0-6.432a24.712,24.712,0,0,0-7.158.938c-1.856.588-2.921,1.39-2.921,2.2s1.065,1.613,2.921,2.2a27.777,27.777,0,0,0,14.317,0c1.856-.588,2.921-1.39,2.921-2.2s-1.065-1.613-2.921-2.2a24.711,24.711,0,0,0-7.158-.938" transform="translate(-284.139 -1546.581)" fill="#fff"/>
        <path id="Trazado_901555" data-name="Trazado 901555" d="M341.031,1653.075c0,1.771-4.547,3.207-10.156,3.207s-10.156-1.436-10.156-3.207,4.547-3.207,10.156-3.207,10.156,1.436,10.156,3.207" transform="translate(-295.792 -1522.362)" fill="#e0aa63"/>
        <rect id="Rectángulo_404860" data-name="Rectángulo 404860" width="20.313" height="3.304" transform="translate(24.926 127.518)" fill="#e0aa63"/>
        <path id="Trazado_901556" data-name="Trazado 901556" d="M341.031,1612.49c0,1.771-4.547,3.207-10.156,3.207s-10.156-1.436-10.156-3.207,4.547-3.207,10.156-3.207,10.156,1.436,10.156,3.207" transform="translate(-295.792 -1484.909)" fill="#efbc73"/>
        <path id="Trazado_901557" data-name="Trazado 901557" d="M345.455,1614.853a24.928,24.928,0,0,1-7.2-.943c-1.953-.617-3.029-1.448-3.029-2.341s1.076-1.725,3.029-2.341a28,28,0,0,1,14.41,0c1.953.617,3.029,1.448,3.029,2.341s-1.076,1.725-3.029,2.341a24.927,24.927,0,0,1-7.2.943m0-6.414a24.773,24.773,0,0,0-7.158.936c-1.856.586-2.921,1.386-2.921,2.194s1.065,1.608,2.921,2.194a27.851,27.851,0,0,0,14.317,0c1.856-.586,2.921-1.386,2.921-2.194s-1.065-1.608-2.921-2.194a24.773,24.773,0,0,0-7.158-.936" transform="translate(-309.176 -1483.988)" fill="#fff"/>
        <path id="Trazado_901558" data-name="Trazado 901558" d="M585.725,1567.625c0,1.776-4.547,3.216-10.156,3.216s-10.156-1.44-10.156-3.216,4.547-3.216,10.156-3.216,10.156,1.44,10.156,3.216" transform="translate(-521.601 -1443.499)" fill="#e0aa63"/>
        <rect id="Rectángulo_404861" data-name="Rectángulo 404861" width="20.313" height="3.313" transform="translate(43.811 120.922)" fill="#e0aa63"/>
        <path id="Trazado_901559" data-name="Trazado 901559" d="M585.725,1526.928c0,1.776-4.547,3.216-10.156,3.216s-10.156-1.44-10.156-3.216,4.547-3.216,10.156-3.216,10.156,1.44,10.156,3.216" transform="translate(-521.601 -1405.943)" fill="#efbc73"/>
        <path id="Trazado_901560" data-name="Trazado 901560" d="M590.149,1529.3a24.867,24.867,0,0,1-7.205-.946c-1.953-.618-3.029-1.452-3.029-2.348s1.076-1.729,3.029-2.348a27.923,27.923,0,0,1,14.41,0c1.953.618,3.029,1.452,3.029,2.348s-1.076,1.729-3.029,2.348a24.868,24.868,0,0,1-7.205.946m0-6.432a24.712,24.712,0,0,0-7.158.938c-1.856.588-2.921,1.39-2.921,2.2s1.065,1.613,2.921,2.2a27.777,27.777,0,0,0,14.317,0c1.856-.588,2.921-1.39,2.921-2.2s-1.065-1.613-2.921-2.2a24.711,24.711,0,0,0-7.158-.938" transform="translate(-534.985 -1405.019)" fill="#fff"/>
        <path id="Trazado_901561" data-name="Trazado 901561" d="M557.7,1507.3c0,1.776-4.547,3.216-10.156,3.216s-10.156-1.44-10.156-3.216,4.547-3.216,10.156-3.216,10.156,1.44,10.156,3.216" transform="translate(-495.736 -1387.833)" fill="#e0aa63"/>
        <rect id="Rectángulo_404862" data-name="Rectángulo 404862" width="20.313" height="3.313" transform="translate(41.647 116.267)" fill="#e0aa63"/>
        <path id="Trazado_901562" data-name="Trazado 901562" d="M557.7,1466.607c0,1.776-4.547,3.216-10.156,3.216s-10.156-1.44-10.156-3.216,4.547-3.216,10.156-3.216,10.156,1.44,10.156,3.216" transform="translate(-495.736 -1350.277)" fill="#efbc73"/>
        <path id="Trazado_901563" data-name="Trazado 901563" d="M562.121,1468.977a24.858,24.858,0,0,1-7.2-.946c-1.953-.618-3.029-1.452-3.029-2.348s1.076-1.729,3.029-2.348a27.923,27.923,0,0,1,14.41,0c1.953.619,3.029,1.452,3.029,2.348s-1.076,1.729-3.029,2.348a24.858,24.858,0,0,1-7.2.946m0-6.432a24.708,24.708,0,0,0-7.158.938c-1.856.588-2.921,1.39-2.921,2.2s1.065,1.613,2.921,2.2a27.774,27.774,0,0,0,14.317,0c1.856-.588,2.921-1.39,2.921-2.2s-1.065-1.613-2.921-2.2a24.706,24.706,0,0,0-7.158-.938" transform="translate(-509.12 -1349.354)" fill="#fff"/>
        <path id="Trazado_901564" data-name="Trazado 901564" d="M288.783,1487.56c-1.262,1.25-5.485-.967-9.432-4.952s-6.125-8.229-4.863-9.479,5.485.967,9.432,4.952,6.125,8.229,4.863,9.479" transform="translate(-252.799 -1358.942)" fill="#e0aa63"/>
        <rect id="Rectángulo_404863" data-name="Rectángulo 404863" width="3.313" height="20.313" transform="matrix(0.71, -0.704, 0.704, 0.71, 21.611, 114.264)" fill="#e0aa63"/>
        <path id="Trazado_901565" data-name="Trazado 901565" d="M317.7,1458.918c-1.262,1.25-5.485-.967-9.433-4.952s-6.125-8.229-4.863-9.479,5.485.967,9.432,4.952,6.125,8.229,4.863,9.479" transform="translate(-279.481 -1332.51)" fill="#efbc73"/>
        <path id="Trazado_901566" data-name="Trazado 901566" d="M326.674,1469.438a6.327,6.327,0,0,1-2.733-.87,27.926,27.926,0,0,1-10.141-10.237c-.935-1.823-1.1-3.174-.464-3.8s1.986-.453,3.8.5a27.924,27.924,0,0,1,10.141,10.237c.935,1.823,1.1,3.174.464,3.8a1.459,1.459,0,0,1-1.066.371M314.4,1454.314a1.311,1.311,0,0,0-.956.323c-.576.57-.4,1.891.492,3.624a27.771,27.771,0,0,0,10.076,10.171c1.724.905,3.043,1.1,3.619.526s.4-1.891-.492-3.624a27.774,27.774,0,0,0-10.076-10.171,6.207,6.207,0,0,0-2.663-.849m13.285,14.7h0Z" transform="translate(-288.628 -1341.755)" fill="#fff"/>
        <path id="Trazado_901567" data-name="Trazado 901567" d="M586.03,1437.958c0,1.776-4.547,3.216-10.156,3.216s-10.156-1.44-10.156-3.216,4.547-3.216,10.156-3.216,10.156,1.44,10.156,3.216" transform="translate(-521.883 -1323.839)" fill="#e0aa63"/>
        <rect id="Rectángulo_404864" data-name="Rectángulo 404864" width="20.313" height="3.313" transform="translate(43.834 110.915)" fill="#e0aa63"/>
        <path id="Trazado_901568" data-name="Trazado 901568" d="M586.03,1397.261c0,1.776-4.547,3.216-10.156,3.216s-10.156-1.44-10.156-3.216,4.547-3.216,10.156-3.216,10.156,1.44,10.156,3.216" transform="translate(-521.883 -1286.283)" fill="#efbc73"/>
        <path id="Trazado_901569" data-name="Trazado 901569" d="M590.454,1399.631a24.863,24.863,0,0,1-7.2-.946c-1.953-.618-3.029-1.452-3.029-2.348s1.076-1.729,3.029-2.348a27.92,27.92,0,0,1,14.41,0c1.953.618,3.029,1.452,3.029,2.348s-1.076,1.729-3.029,2.348a24.864,24.864,0,0,1-7.205.946m0-6.432a24.707,24.707,0,0,0-7.158.938c-1.856.588-2.921,1.39-2.921,2.2s1.065,1.613,2.921,2.2a27.773,27.773,0,0,0,14.317,0c1.856-.588,2.921-1.39,2.921-2.2s-1.065-1.613-2.921-2.2a24.707,24.707,0,0,0-7.158-.938" transform="translate(-535.267 -1285.36)" fill="#fff"/>
        <path id="Trazado_901570" data-name="Trazado 901570" d="M628.665,1377.638c0,1.776-4.547,3.216-10.156,3.216s-10.156-1.44-10.156-3.216,4.547-3.216,10.156-3.216,10.156,1.44,10.156,3.216" transform="translate(-561.227 -1268.174)" fill="#e0aa63"/>
        <rect id="Rectángulo_404865" data-name="Rectángulo 404865" width="20.313" height="3.313" transform="translate(47.125 106.26)" fill="#e0aa63"/>
        <path id="Trazado_901571" data-name="Trazado 901571" d="M628.665,1336.94c0,1.776-4.547,3.216-10.156,3.216s-10.156-1.44-10.156-3.216,4.547-3.216,10.156-3.216,10.156,1.44,10.156,3.216" transform="translate(-561.227 -1230.617)" fill="#efbc73"/>
        <path id="Trazado_901572" data-name="Trazado 901572" d="M633.089,1339.31a24.858,24.858,0,0,1-7.2-.946c-1.953-.618-3.029-1.452-3.029-2.348s1.076-1.729,3.029-2.348a27.927,27.927,0,0,1,14.41,0c1.953.619,3.029,1.452,3.029,2.348s-1.076,1.729-3.029,2.348a24.859,24.859,0,0,1-7.205.946m0-6.432a24.706,24.706,0,0,0-7.158.938c-1.856.588-2.921,1.39-2.921,2.2s1.065,1.613,2.921,2.2a27.777,27.777,0,0,0,14.317,0c1.856-.588,2.921-1.39,2.921-2.2s-1.065-1.613-2.921-2.2a24.707,24.707,0,0,0-7.158-.938" transform="translate(-574.611 -1229.694)" fill="#fff"/>
      </g>
    </g>
    <rect id="Rectángulo_404931" data-name="Rectángulo 404931" width="190" height="133" transform="translate(1230.051 11486)" fill="none"/>
  </g>
</svg>
