<svg xmlns="http://www.w3.org/2000/svg" xmlns:xlink="http://www.w3.org/1999/xlink" width="108.914" height="108.914" viewBox="0 0 108.914 108.914">
  <defs>
    <filter id="Trazado_874925" x="0" y="0" width="108.914" height="108.914" filterUnits="userSpaceOnUse">
      <feOffset dy="3" input="SourceAlpha"/>
      <feGaussianBlur stdDeviation="3" result="blur"/>
      <feFlood flood-opacity="0.161"/>
      <feComposite operator="in" in2="blur"/>
      <feComposite in="SourceGraphic"/>
    </filter>
  </defs>
  <g id="Grupo_1111378" data-name="Grupo 1111378" transform="translate(-799.5 -2511.157)">
    <g id="Grupo_1111316" data-name="Grupo 1111316" transform="translate(0 564.946)">
      <g id="Grupo_1109835" data-name="Grupo 1109835">
        <g id="Grupo_1107913" data-name="Grupo 1107913" transform="translate(808.5 1952.211)">
          <g transform="matrix(1, 0, 0, 1, -9, -6)" filter="url(#Trazado_874925)">
            <g id="Trazado_874925-2" data-name="Trazado 874925" transform="translate(9 6)" fill="#fd9826" opacity="0.859">
              <path d="M 45.45676803588867 89.41407012939453 C 39.52198028564453 89.41407012939453 33.76551818847656 88.25206756591797 28.34726715087891 85.96034240722656 C 23.11311721801758 83.74648284912109 18.41204261779785 80.57682800292969 14.37464332580566 76.5394287109375 C 10.33724308013916 72.50202941894531 7.167593002319336 67.80095672607422 4.953730583190918 62.56679534912109 C 2.662005424499512 57.14855575561523 1.500005483627319 51.39208221435547 1.500005483627319 45.45729446411133 C 1.500005483627319 39.52198028564453 2.662005424499512 33.76551818847656 4.953730583190918 28.34726905822754 C 7.167593002319336 23.11310577392578 10.33724308013916 18.41203117370605 14.37464332580566 14.37464332580566 C 18.41204261779785 10.33724403381348 23.11311721801758 7.167593955993652 28.34726715087891 4.953731060028076 C 33.76551818847656 2.662006139755249 39.52198028564453 1.500006198883057 45.45676803588867 1.500006198883057 C 51.39155578613281 1.500006198883057 57.14802932739258 2.662006139755249 62.56626892089844 4.953731060028076 C 67.80043029785156 7.167593955993652 72.50150299072266 10.33724403381348 76.53890228271484 14.37464332580566 C 80.57630920410156 18.41203117370605 83.74595642089844 23.11310577392578 85.95981597900391 28.34726905822754 C 88.25154113769531 33.76551818847656 89.41354370117188 39.52198028564453 89.41354370117188 45.45676803588867 C 89.41354370117188 51.39208221435547 88.25154113769531 57.14855575561523 85.95981597900391 62.56679534912109 C 83.74595642089844 67.80095672607422 80.57630920410156 72.50202941894531 76.53890228271484 76.5394287109375 C 72.50150299072266 80.57682800292969 67.80043029785156 83.74648284912109 62.56626892089844 85.96034240722656 C 57.14802932739258 88.25206756591797 51.39155578613281 89.41407012939453 45.45676803588867 89.41407012939453 Z" stroke="none"/>
              <path d="M 45.45676803588867 3 C 39.72381210327148 3 34.1639404296875 4.12213134765625 28.93159484863281 6.335227966308594 C 23.87622833251953 8.473472595214844 19.33542633056641 11.53517150878906 15.43529510498047 15.435302734375 C 11.53517150878906 19.33543395996094 8.473464965820312 23.87622833251953 6.335227966308594 28.93160247802734 C 4.122123718261719 34.16394424438477 3 39.72381591796875 3 45.4572868347168 C 3 51.19024658203125 4.122123718261719 56.75011825561523 6.335227966308594 61.98246002197266 C 8.473464965820312 67.03782653808594 11.53517150878906 71.57862854003906 15.43529510498047 75.478759765625 C 19.33542633056641 79.37889099121094 23.87622833251953 82.44058990478516 28.93159484863281 84.57883453369141 C 34.1639404296875 86.79193115234375 39.72381210327148 87.9140625 45.45676803588867 87.9140625 C 51.18972396850586 87.9140625 56.74959564208984 86.79193115234375 61.98194122314453 84.57883453369141 C 67.03730773925781 82.44058990478516 71.57810974121094 79.37889099121094 75.47824096679688 75.478759765625 C 79.37837219238281 71.57862854003906 82.44007110595703 67.03782653808594 84.57830810546875 61.98246002197266 C 86.79141235351562 56.75011825561523 87.91353607177734 51.19024658203125 87.91353607177734 45.4567756652832 C 87.91353607177734 39.72381591796875 86.79141235351562 34.16394424438477 84.57830810546875 28.93160247802734 C 82.44007110595703 23.87622833251953 79.37837219238281 19.33543395996094 75.47824096679688 15.435302734375 C 71.57810974121094 11.53517150878906 67.03730773925781 8.473472595214844 61.98194122314453 6.335227966308594 C 56.74959564208984 4.12213134765625 51.18972396850586 3 45.45676803588867 3 M 45.45676803588867 0 C 70.56185150146484 0 90.91353607177734 20.35169219970703 90.91353607177734 45.4567756652832 L 90.91353607177734 45.4572868347168 C 90.91353607177734 70.5623779296875 70.56185150146484 90.9140625 45.45676803588867 90.9140625 C 20.3516845703125 90.9140625 0 70.5623779296875 0 45.4572868347168 L 0 45.4567756652832 C 0 20.35169219970703 20.3516845703125 0 45.45676803588867 0 Z" stroke="none" fill="#fff"/>
            </g>
          </g>
          <g id="Trazado_874923" data-name="Trazado 874923" transform="translate(0 0)" fill="none">
            <path d="M45.457,0A45.457,45.457,0,0,1,90.914,45.457h0A45.457,45.457,0,0,1,0,45.457H0A45.457,45.457,0,0,1,45.457,0Z" stroke="none"/>
            <path d="M 45.45676803588867 3 C 39.72381210327148 3 34.1639404296875 4.12213134765625 28.93159484863281 6.335227966308594 C 23.87622833251953 8.473472595214844 19.33542633056641 11.53517150878906 15.43529510498047 15.435302734375 C 11.53517150878906 19.33543395996094 8.473464965820312 23.87622833251953 6.335227966308594 28.93160247802734 C 4.122123718261719 34.16394424438477 3 39.72381591796875 3 45.4572868347168 C 3 51.19024658203125 4.122123718261719 56.75011825561523 6.335227966308594 61.98246002197266 C 8.473464965820312 67.03782653808594 11.53517150878906 71.57862854003906 15.43529510498047 75.478759765625 C 19.33542633056641 79.37889099121094 23.87622833251953 82.44058990478516 28.93159484863281 84.57883453369141 C 34.1639404296875 86.79193115234375 39.72381210327148 87.9140625 45.45676803588867 87.9140625 C 51.18972396850586 87.9140625 56.74959564208984 86.79193115234375 61.98194122314453 84.57883453369141 C 67.03730773925781 82.44058990478516 71.57810974121094 79.37889099121094 75.47824096679688 75.478759765625 C 79.37837219238281 71.57862854003906 82.44007110595703 67.03782653808594 84.57830810546875 61.98246002197266 C 86.79141235351562 56.75011825561523 87.91353607177734 51.19024658203125 87.91353607177734 45.4567756652832 C 87.91353607177734 39.72381591796875 86.79141235351562 34.16394424438477 84.57830810546875 28.93160247802734 C 82.44007110595703 23.87622833251953 79.37837219238281 19.33543395996094 75.47824096679688 15.435302734375 C 71.57810974121094 11.53517150878906 67.03730773925781 8.473472595214844 61.98194122314453 6.335227966308594 C 56.74959564208984 4.12213134765625 51.18972396850586 3 45.45676803588867 3 M 45.45676803588867 0 C 70.56185150146484 0 90.91353607177734 20.35169219970703 90.91353607177734 45.4567756652832 L 90.91353607177734 45.4572868347168 C 90.91353607177734 70.5623779296875 70.56185150146484 90.9140625 45.45676803588867 90.9140625 C 20.3516845703125 90.9140625 0 70.5623779296875 0 45.4572868347168 L 0 45.4567756652832 C 0 20.35169219970703 20.3516845703125 0 45.45676803588867 0 Z" stroke="none" fill="#fff"/>
          </g>
        </g>
      </g>
    </g>
    <g id="Grupo_64108" data-name="Grupo 64108" transform="translate(274.762 2270.77)">
      <path id="Trazado_133144" data-name="Trazado 133144" d="M602.876,312.2a.655.655,0,0,0,.134.026c1.325-.1,1.513.33,1.467,1.5-.032.814,0,1.631-.008,2.446a.838.838,0,0,1-.934.95c-.1,0-.2,0-.306,0H555.166c-1.048,0-1.257-.207-1.257-1.24q0-1.274,0-2.548c0-.84.257-1.1,1.087-1.1.165,0,.33,0,.519,0V284.5c-.2,0-.391,0-.587,0-.732-.008-1.018-.287-1.019-1.019q0-4.613,0-9.225,0-1.657,0-3.313c0-.869.249-1.116,1.12-1.122h.511c0-.759,0-1.484,0-2.208,0-.771.276-1.053,1.035-1.053q22.6,0,45.209,0c.788,0,1.053.276,1.056,1.085,0,.709,0,1.419,0,2.177.246,0,.445,0,.644,0,.7.011.984.3.985,1q.006,2.93,0,5.861,0,3.262,0,6.524c0,1.091-.185,1.281-1.257,1.292-.1,0-.2,0-.338,0Zm-.073-29.35V271.5H555.567v11.355Zm-16.273,29.368v-.584q0-7.287,0-14.574c0-.9.245-1.14,1.152-1.14h10.7c.968,0,1.195.227,1.195,1.2q0,7.236,0,14.472v.6h1.592V294.332H557.2V312.2h1.6v-.641q0-7.236,0-14.472c0-.93.237-1.162,1.181-1.162H582.1c.933,0,1.169.237,1.169,1.176q0,7.261,0,14.523v.6Zm11.382-.011V297.592h-9.725v14.616Zm-35.848.012v-.6q0-5.632,0-11.263c0-.94.234-1.175,1.168-1.175h15.6c.94,0,1.177.235,1.177,1.167q0,5.657,0,11.314v.525h1.6v-14.6H560.474V312.22Zm40.753,1.679H555.564v1.568h47.253ZM563.73,300.838v11.354h6.463V300.838Zm14.608,11.372V300.856h-6.46v11.354Zm22.848-43.981H557.212V269.8h43.973Zm0,16.309H557.21v1.573h43.973Zm-43.971,3.239v4.849h9.7v-4.849Zm21.149.033h-9.74v4.812h9.74Zm11.392,4.828v-4.831h-9.722v4.831Zm11.426-4.843h-9.725v4.828h9.752c0-1.563,0-3.09,0-4.616A1.864,1.864,0,0,0,601.18,287.794Z" fill="#12263f"/>
      <path id="Trazado_133145" data-name="Trazado 133145" d="M909.184,586.545c.748,0,1.495,0,2.242,0,.675.005.98.294.983.951q.011,2.319,0,4.638a.829.829,0,0,1-.95.932q-2.319.01-4.638,0a.828.828,0,0,1-.931-.95q-.01-2.319,0-4.638c0-.63.309-.925.949-.932C907.621,586.539,908.4,586.545,909.184,586.545Zm-1.629,1.653v3.2h3.2v-3.2Z" transform="translate(-316.097 -287.361)" fill="#12263f"/>
      <g id="Grupo_64107" data-name="Grupo 64107" transform="translate(565.325 273.058)">
        <path id="Trazado_133146" data-name="Trazado 133146" d="M665.905,330.286h3.021a5.9,5.9,0,0,1,1.558.156,2.738,2.738,0,0,1,1.234.754,3.577,3.577,0,0,1,.782,1.326,6.041,6.041,0,0,1,.268,1.935,5.379,5.379,0,0,1-.251,1.743,3.611,3.611,0,0,1-.877,1.447,2.907,2.907,0,0,1-1.162.653,5,5,0,0,1-1.463.173h-3.111Zm1.653,1.385v5.423h1.234a4.5,4.5,0,0,0,1-.078,1.526,1.526,0,0,0,.667-.341,1.734,1.734,0,0,0,.433-.79,5.341,5.341,0,0,0,.168-1.5,4.892,4.892,0,0,0-.168-1.458,1.876,1.876,0,0,0-.469-.793,1.575,1.575,0,0,0-.765-.385,7.5,7.5,0,0,0-1.357-.078Z" transform="translate(-665.905 -330.286)" fill="#12263f"/>
        <path id="Trazado_133147" data-name="Trazado 133147" d="M746.5,338.474v-8.188h1.653v8.188Z" transform="translate(-738.281 -330.286)" fill="#12263f"/>
        <path id="Trazado_133148" data-name="Trazado 133148" d="M778.217,338.474h-1.8l-.715-1.86h-3.273l-.676,1.86H770l3.189-8.188h1.748Zm-3.044-3.239-1.128-3.038-1.106,3.038Z" transform="translate(-759.389 -330.286)" fill="#12263f"/>
        <path id="Trazado_133149" data-name="Trazado 133149" d="M859.357,338.474v-8.188h1.609l3.351,5.468v-5.468h1.536v8.188h-1.659l-3.3-5.339v5.339Z" transform="translate(-839.636 -330.286)" fill="#12263f"/>
      </g>
    </g>
  </g>
</svg>
