<svg xmlns="http://www.w3.org/2000/svg" xmlns:xlink="http://www.w3.org/1999/xlink" width="108.914" height="108.914" viewBox="0 0 108.914 108.914">
  <defs>
    <filter id="Trazado_874925" x="0" y="0" width="108.914" height="108.914" filterUnits="userSpaceOnUse">
      <feOffset dy="3" input="SourceAlpha"/>
      <feGaussianBlur stdDeviation="3" result="blur"/>
      <feFlood flood-opacity="0.161"/>
      <feComposite operator="in" in2="blur"/>
      <feComposite in="SourceGraphic"/>
    </filter>
  </defs>
  <g id="Grupo_1111377" data-name="Grupo 1111377" transform="translate(-1114.325 -2511.157)">
    <g id="Grupo_1111317" data-name="Grupo 1111317" transform="translate(314.824 564.946)">
      <g id="Grupo_1109835" data-name="Grupo 1109835">
        <g id="Grupo_1107913" data-name="Grupo 1107913" transform="translate(808.5 1952.211)">
          <g transform="matrix(1, 0, 0, 1, -9, -6)" filter="url(#Trazado_874925)">
            <g id="Trazado_874925-2" data-name="Trazado 874925" transform="translate(9 6)" fill="#fd9826" opacity="0.859">
              <path d="M 45.45676803588867 89.41407012939453 C 39.52198028564453 89.41407012939453 33.76551818847656 88.25206756591797 28.34726715087891 85.96034240722656 C 23.11311721801758 83.74648284912109 18.41204261779785 80.57682800292969 14.37464332580566 76.5394287109375 C 10.33724308013916 72.50202941894531 7.167593002319336 67.80095672607422 4.953730583190918 62.56679534912109 C 2.662005424499512 57.14855575561523 1.500005483627319 51.39208221435547 1.500005483627319 45.45729446411133 C 1.500005483627319 39.52198028564453 2.662005424499512 33.76551818847656 4.953730583190918 28.34726905822754 C 7.167593002319336 23.11310577392578 10.33724308013916 18.41203117370605 14.37464332580566 14.37464332580566 C 18.41204261779785 10.33724403381348 23.11311721801758 7.167593955993652 28.34726715087891 4.953731060028076 C 33.76551818847656 2.662006139755249 39.52198028564453 1.500006198883057 45.45676803588867 1.500006198883057 C 51.39155578613281 1.500006198883057 57.14802932739258 2.662006139755249 62.56626892089844 4.953731060028076 C 67.80043029785156 7.167593955993652 72.50150299072266 10.33724403381348 76.53890228271484 14.37464332580566 C 80.57630920410156 18.41203117370605 83.74595642089844 23.11310577392578 85.95981597900391 28.34726905822754 C 88.25154113769531 33.76551818847656 89.41354370117188 39.52198028564453 89.41354370117188 45.45676803588867 C 89.41354370117188 51.39208221435547 88.25154113769531 57.14855575561523 85.95981597900391 62.56679534912109 C 83.74595642089844 67.80095672607422 80.57630920410156 72.50202941894531 76.53890228271484 76.5394287109375 C 72.50150299072266 80.57682800292969 67.80043029785156 83.74648284912109 62.56626892089844 85.96034240722656 C 57.14802932739258 88.25206756591797 51.39155578613281 89.41407012939453 45.45676803588867 89.41407012939453 Z" stroke="none"/>
              <path d="M 45.45676803588867 3 C 39.72381210327148 3 34.1639404296875 4.12213134765625 28.93159484863281 6.335227966308594 C 23.87622833251953 8.473472595214844 19.33542633056641 11.53517150878906 15.43529510498047 15.435302734375 C 11.53517150878906 19.33543395996094 8.473464965820312 23.87622833251953 6.335227966308594 28.93160247802734 C 4.122123718261719 34.16394424438477 3 39.72381591796875 3 45.4572868347168 C 3 51.19024658203125 4.122123718261719 56.75011825561523 6.335227966308594 61.98246002197266 C 8.473464965820312 67.03782653808594 11.53517150878906 71.57862854003906 15.43529510498047 75.478759765625 C 19.33542633056641 79.37889099121094 23.87622833251953 82.44058990478516 28.93159484863281 84.57883453369141 C 34.1639404296875 86.79193115234375 39.72381210327148 87.9140625 45.45676803588867 87.9140625 C 51.18972396850586 87.9140625 56.74959564208984 86.79193115234375 61.98194122314453 84.57883453369141 C 67.03730773925781 82.44058990478516 71.57810974121094 79.37889099121094 75.47824096679688 75.478759765625 C 79.37837219238281 71.57862854003906 82.44007110595703 67.03782653808594 84.57830810546875 61.98246002197266 C 86.79141235351562 56.75011825561523 87.91353607177734 51.19024658203125 87.91353607177734 45.4567756652832 C 87.91353607177734 39.72381591796875 86.79141235351562 34.16394424438477 84.57830810546875 28.93160247802734 C 82.44007110595703 23.87622833251953 79.37837219238281 19.33543395996094 75.47824096679688 15.435302734375 C 71.57810974121094 11.53517150878906 67.03730773925781 8.473472595214844 61.98194122314453 6.335227966308594 C 56.74959564208984 4.12213134765625 51.18972396850586 3 45.45676803588867 3 M 45.45676803588867 0 C 70.56185150146484 0 90.91353607177734 20.35169219970703 90.91353607177734 45.4567756652832 L 90.91353607177734 45.4572868347168 C 90.91353607177734 70.5623779296875 70.56185150146484 90.9140625 45.45676803588867 90.9140625 C 20.3516845703125 90.9140625 0 70.5623779296875 0 45.4572868347168 L 0 45.4567756652832 C 0 20.35169219970703 20.3516845703125 0 45.45676803588867 0 Z" stroke="none" fill="#fff"/>
            </g>
          </g>
          <g id="Trazado_874923" data-name="Trazado 874923" transform="translate(0 0)" fill="none">
            <path d="M45.457,0A45.457,45.457,0,0,1,90.914,45.457h0A45.457,45.457,0,0,1,0,45.457H0A45.457,45.457,0,0,1,45.457,0Z" stroke="none"/>
            <path d="M 45.45676803588867 3 C 39.72381210327148 3 34.1639404296875 4.12213134765625 28.93159484863281 6.335227966308594 C 23.87622833251953 8.473472595214844 19.33542633056641 11.53517150878906 15.43529510498047 15.435302734375 C 11.53517150878906 19.33543395996094 8.473464965820312 23.87622833251953 6.335227966308594 28.93160247802734 C 4.122123718261719 34.16394424438477 3 39.72381591796875 3 45.4572868347168 C 3 51.19024658203125 4.122123718261719 56.75011825561523 6.335227966308594 61.98246002197266 C 8.473464965820312 67.03782653808594 11.53517150878906 71.57862854003906 15.43529510498047 75.478759765625 C 19.33542633056641 79.37889099121094 23.87622833251953 82.44058990478516 28.93159484863281 84.57883453369141 C 34.1639404296875 86.79193115234375 39.72381210327148 87.9140625 45.45676803588867 87.9140625 C 51.18972396850586 87.9140625 56.74959564208984 86.79193115234375 61.98194122314453 84.57883453369141 C 67.03730773925781 82.44058990478516 71.57810974121094 79.37889099121094 75.47824096679688 75.478759765625 C 79.37837219238281 71.57862854003906 82.44007110595703 67.03782653808594 84.57830810546875 61.98246002197266 C 86.79141235351562 56.75011825561523 87.91353607177734 51.19024658203125 87.91353607177734 45.4567756652832 C 87.91353607177734 39.72381591796875 86.79141235351562 34.16394424438477 84.57830810546875 28.93160247802734 C 82.44007110595703 23.87622833251953 79.37837219238281 19.33543395996094 75.47824096679688 15.435302734375 C 71.57810974121094 11.53517150878906 67.03730773925781 8.473472595214844 61.98194122314453 6.335227966308594 C 56.74959564208984 4.12213134765625 51.18972396850586 3 45.45676803588867 3 M 45.45676803588867 0 C 70.56185150146484 0 90.91353607177734 20.35169219970703 90.91353607177734 45.4567756652832 L 90.91353607177734 45.4572868347168 C 90.91353607177734 70.5623779296875 70.56185150146484 90.9140625 45.45676803588867 90.9140625 C 20.3516845703125 90.9140625 0 70.5623779296875 0 45.4572868347168 L 0 45.4567756652832 C 0 20.35169219970703 20.3516845703125 0 45.45676803588867 0 Z" stroke="none" fill="#fff"/>
          </g>
        </g>
      </g>
    </g>
    <g id="Grupo_1111382" data-name="Grupo 1111382" transform="translate(641.766 2263.8)">
      <path id="Trazado_133139" data-name="Trazado 133139" d="M542.832,325.917H511.188a21.39,21.39,0,0,1,4.075-7.973c.809-.973,1.753-1.833,2.617-2.76a.888.888,0,0,0,.28-.594c-.227-1.529-.5-3.053-.776-4.72a7.146,7.146,0,0,1-7.569,2.183c.15,1.225.3,2.4.438,3.574.067.56.169,1.119.18,1.681a2.723,2.723,0,0,1-2.656,2.81c-2.7.035-5.4.04-8.1,0a2.772,2.772,0,0,1-2.634-3.238q.294-2.4.6-4.8.58-4.586,1.164-9.172c.183-1.44.6-1.882,2.057-2.2V299.8c-.343,0-.679.009-1.014,0a2.9,2.9,0,0,1,.028-5.8c.32-.009.641,0,.949,0,.358-1.479.942-1.936,2.43-1.937h1.21a2.017,2.017,0,0,1,2.256,1.916c3.338.064,4.655,2.317,5.456,5.194,1.154-2.68,2.7-4.919,5.681-5.791l-.532-.648a12.226,12.226,0,0,1-2.885-7.835c-.028-2.8-.023-5.6,0-8.406A10.63,10.63,0,0,1,525,265.942a47.234,47.234,0,0,1,5.373.123,10.528,10.528,0,0,1,9.205,10.091c.061,3.043.064,6.089-.006,9.131a11.872,11.872,0,0,1-2.762,7.328c-.189.234-.385.461-.638.762,2.969.883,4.534,3.1,5.643,5.929.265-.712.477-1.249.666-1.794a4.946,4.946,0,0,1,4.8-3.542c.037-.137.077-.3.126-.468a1.92,1.92,0,0,1,1.874-1.433c.544-.013,1.089,0,1.633,0A2.032,2.032,0,0,1,553.185,294c.3,0,.616-.006.932,0a2.9,2.9,0,1,1-.02,5.8c-.3.006-.6,0-.921,0v.933c1.439.116,1.945,1.029,2.1,2.373.464,4.042,1,8.076,1.5,12.113.065.52.128,1.04.2,1.558a2.807,2.807,0,0,1-2.888,3.345q-3.78.013-7.56,0a2.818,2.818,0,0,1-2.9-3.39c.193-1.417.368-2.836.547-4.255a3.949,3.949,0,0,0,0-.425,7.014,7.014,0,0,1-4.047.055,7.644,7.644,0,0,1-3.48-2.272c-.284,1.71-.558,3.27-.784,4.836-.025.171.188.421.351.566a22.122,22.122,0,0,1,6.572,10.449C542.8,325.749,542.811,325.808,542.832,325.917ZM520.073,314.3h13.883c.639-4.511,1.75-8.935,1.787-13.486h1.912v1.954l3.146-1.353c-.713-1.356-1.31-2.685-2.089-3.9a5.771,5.771,0,0,0-1.776-1.682c-1.526-.954-3.342-1.041-5.081-1.566,0,.578,0,1.06,0,1.541a2.909,2.909,0,0,1-3.057,3.029c-1.028.006-2.06.052-3.083-.016a1.441,1.441,0,0,0-1.45.792,4.105,4.105,0,0,1,1.249,5.445,4.019,4.019,0,0,1,2.464,3.631c.052,1.494-.856,2.631-1.439,3.888-1.487-.432-2.922-.806-3.759-2.2a4.14,4.14,0,0,1-.067-4.18c-2.5-1.54-2.9-2.882-1.839-6.077a6.064,6.064,0,0,1-2.6-4.936,18.567,18.567,0,0,0-1.779,1.054c-1.73,1.307-2.19,3.4-3.261,5.183l3.182,1.357v-1.97h1.876C518.322,305.393,519.445,309.8,520.073,314.3Zm6.984-44.443h1.894c0,.471-.007.894,0,1.316a2.367,2.367,0,0,0,1.483,2.291,2.316,2.316,0,0,0,2.72-.535,8.1,8.1,0,0,0,.695-.855l1.521,1.377-.736.78a5.86,5.86,0,0,1,1.085,3.312c.008,1.673.021,3.346,0,5.019a7.83,7.83,0,0,1-1.73,4.988,34.534,34.534,0,0,1-2.688,2.645c-.116-.011-.094.084-.073.18.421,1.89.419,1.9,2.329,2.309a.875.875,0,0,0,.676-.165,9.982,9.982,0,0,0,3.406-7.294c.081-3,.066-6.007.008-9.01a8.573,8.573,0,0,0-7.355-8.2,43.6,43.6,0,0,0-5.251-.131,8.692,8.692,0,0,0-8.665,8.659q-.025,4.142,0,8.285a10.331,10.331,0,0,0,2.347,6.585c.474.589,1.214,1.053,1.459,1.712a8.277,8.277,0,0,1,.075,2.337,3.706,3.706,0,0,0,1.622,2.963.609.609,0,0,0,.518.063,3.029,3.029,0,0,0,1.538-3.732,7.383,7.383,0,0,0-1.327-1.83.791.791,0,0,1-.223-.85c.2-.65.332-1.32.495-1.994-.154-.1-.285-.194-.418-.279a8.217,8.217,0,0,1-4.037-6.278c-.189-1.918-.1-3.864-.111-5.8-.013-3.2.873-4.48,3.859-5.64.016-.006.026-.028.051-.058v-2.188h1.831a17.659,17.659,0,0,0,.2,2.11,2.131,2.131,0,0,0,1.354,1.522,2.051,2.051,0,0,0,1.989-.082A5.673,5.673,0,0,1,527.057,269.853Zm13.025,54.133a1.8,1.8,0,0,0-.056-.246,19.341,19.341,0,0,0-5.379-7.26,1.182,1.182,0,0,0-.711-.212q-6.92-.018-13.84,0a1.34,1.34,0,0,0-.8.288,19.37,19.37,0,0,0-5.119,6.793c-.088.194-.163.393-.261.632Zm-6.191-43.811-.1-.008a25.012,25.012,0,0,0-.022-2.6,9.744,9.744,0,0,0-.523-1.895c-.095-.3-.308-.35-.624-.252a4.3,4.3,0,0,1-3.333-.351.751.751,0,0,0-.584-.006,4.379,4.379,0,0,1-5.365-.886.808.808,0,0,0-.612-.2,2.879,2.879,0,0,0-2.482,2.957c-.008,1.168-.015,2.337,0,3.505a23.74,23.74,0,0,0,.114,3.012,6.728,6.728,0,0,0,13.176.606A28.551,28.551,0,0,0,533.891,280.175Zm13.4,20.57v-4.788a2.851,2.851,0,0,0-2.838,1.82c-.319.782-.585,1.585-.875,2.379l-2.108,5.781-1.8-.653.487-1.486c-.9.388-1.684.706-2.445,1.068a.765.765,0,0,0-.343.484c-.434,2.09-.428,2.091,1.095,3.573.1.1.2.2.309.289a4.836,4.836,0,0,0,5.3.783.893.893,0,0,0,.454-.593c.3-2.194.571-4.393.848-6.591A2.021,2.021,0,0,1,547.294,300.745Zm-40.583,0a2.143,2.143,0,0,1,1.966,2.2c.223,2.143.536,4.276.787,6.416a.7.7,0,0,0,.491.661,4.872,4.872,0,0,0,5.259-.792,17.566,17.566,0,0,0,1.547-1.529.741.741,0,0,0,.174-.523c-.066-.62-.172-1.236-.281-1.85-.026-.146-.087-.357-.192-.405-.826-.378-1.667-.724-2.608-1.124l.506,1.487-1.8.648c-.278-.754-.529-1.43-.777-2.109-.716-1.966-1.416-3.938-2.151-5.9a2.715,2.715,0,0,0-2.921-1.918Zm-7.734,16.329c1.246-1.038,2.333-1.963,3.444-2.857a.981.981,0,0,0,.407-.863c-.015-3.362-.008-6.724-.01-10.086,0-.174-.022-.347-.033-.515h-2.02Zm52.273-14.339a1.723,1.723,0,0,0-.037.227q0,5.284,0,10.569a.63.63,0,0,0,.128.433c1.187,1.012,2.389,2.007,3.709,3.108l-1.792-14.337Zm-3.915,0-1.78,14.251c.231-.17.378-.264.509-.376.938-.795,1.862-1.606,2.815-2.383a.992.992,0,0,0,.4-.868c-.015-3.346-.008-6.692-.01-10.039,0-.193-.017-.387-.027-.586Zm-42.581,0v.713c0,2.762.1,5.529-.039,8.283a3.518,3.518,0,0,0,1.676,3.569,20.683,20.683,0,0,1,2.087,1.733l-1.787-14.3Zm21.161-5.84c1.075,0,2.12.04,3.159-.016a.9.9,0,0,0,.84-1.005,19.263,19.263,0,0,0-.015-2.353c-.1-.905-.345-1.8-.538-2.748a9.059,9.059,0,0,1-4.794-.016c0,.527-.177,1.094.029,1.335A5.4,5.4,0,0,1,525.917,296.891Zm-21.193,3.855v-6.708h-1.861v6.708Zm46.445,0v-6.7h-1.863v6.7ZM503.783,315.59l-3.068,2.559h6.078Zm46.467,0-3.06,2.606h6.183ZM522.7,301.021c-.924,1.459-.546,2.842.883,3.356A2.069,2.069,0,0,0,522.7,301.021Zm1.937,5.807c-.928,1.454-.553,2.832.879,3.357A2.069,2.069,0,0,0,524.639,306.827Zm-23.775-10.885c-.679.031-1.41-.228-1.764.513a1.194,1.194,0,0,0,.062.993c.406.634,1.081.4,1.7.391Zm52.3,1.917c.673-.022,1.4.23,1.759-.5a1.194,1.194,0,0,0-.055-.994c-.4-.64-1.081-.4-1.7-.4Z" fill="#12263f"/>
      <path id="Trazado_133141" data-name="Trazado 133141" d="M705,394.2h9.619a4.932,4.932,0,0,1-2.02,4.877,4.552,4.552,0,0,1-5.18.248A4.919,4.919,0,0,1,705,394.2Zm2.181,1.944a2.7,2.7,0,0,0,2.566,1.9,2.732,2.732,0,0,0,2.707-1.9Z" transform="translate(-182.797 -112.756)" fill="#12263f"/>
      <path id="Trazado_133142" data-name="Trazado 133142" d="M706.016,362.037a.963.963,0,1,1-.975.95A.972.972,0,0,1,706.016,362.037Z" transform="translate(-182.859 -84.485)" fill="#12263f"/>
      <path id="Trazado_133143" data-name="Trazado 133143" d="M770,362.038a.963.963,0,1,1-.956.969A.972.972,0,0,1,770,362.038Z" transform="translate(-239.117 -84.486)" fill="#12263f"/>
    </g>
  </g>
</svg>
