<svg xmlns="http://www.w3.org/2000/svg" xmlns:xlink="http://www.w3.org/1999/xlink" width="108.914" height="108.914" viewBox="0 0 108.914 108.914">
  <defs>
    <filter id="Trazado_874925" x="0" y="0" width="108.914" height="108.914" filterUnits="userSpaceOnUse">
      <feOffset dy="3" input="SourceAlpha"/>
      <feGaussianBlur stdDeviation="3" result="blur"/>
      <feFlood flood-opacity="0.161"/>
      <feComposite operator="in" in2="blur"/>
      <feComposite in="SourceGraphic"/>
    </filter>
  </defs>
  <g id="Grupo_1111379" data-name="Grupo 1111379" transform="translate(-1114.325 -2511.157)">
    <g id="Grupo_1111317" data-name="Grupo 1111317" transform="translate(314.824 564.946)">
      <g id="Grupo_1109835" data-name="Grupo 1109835">
        <g id="Grupo_1107913" data-name="Grupo 1107913" transform="translate(808.5 1952.211)">
          <g transform="matrix(1, 0, 0, 1, -9, -6)" filter="url(#Trazado_874925)">
            <g id="Trazado_874925-2" data-name="Trazado 874925" transform="translate(9 6)" fill="#fd9826" opacity="0.859">
              <path d="M 45.45676803588867 89.41407012939453 C 39.52198028564453 89.41407012939453 33.76551818847656 88.25206756591797 28.34726715087891 85.96034240722656 C 23.11311721801758 83.74648284912109 18.41204261779785 80.57682800292969 14.37464332580566 76.5394287109375 C 10.33724308013916 72.50202941894531 7.167593002319336 67.80095672607422 4.953730583190918 62.56679534912109 C 2.662005424499512 57.14855575561523 1.500005483627319 51.39208221435547 1.500005483627319 45.45729446411133 C 1.500005483627319 39.52198028564453 2.662005424499512 33.76551818847656 4.953730583190918 28.34726905822754 C 7.167593002319336 23.11310577392578 10.33724308013916 18.41203117370605 14.37464332580566 14.37464332580566 C 18.41204261779785 10.33724403381348 23.11311721801758 7.167593955993652 28.34726715087891 4.953731060028076 C 33.76551818847656 2.662006139755249 39.52198028564453 1.500006198883057 45.45676803588867 1.500006198883057 C 51.39155578613281 1.500006198883057 57.14802932739258 2.662006139755249 62.56626892089844 4.953731060028076 C 67.80043029785156 7.167593955993652 72.50150299072266 10.33724403381348 76.53890228271484 14.37464332580566 C 80.57630920410156 18.41203117370605 83.74595642089844 23.11310577392578 85.95981597900391 28.34726905822754 C 88.25154113769531 33.76551818847656 89.41354370117188 39.52198028564453 89.41354370117188 45.45676803588867 C 89.41354370117188 51.39208221435547 88.25154113769531 57.14855575561523 85.95981597900391 62.56679534912109 C 83.74595642089844 67.80095672607422 80.57630920410156 72.50202941894531 76.53890228271484 76.5394287109375 C 72.50150299072266 80.57682800292969 67.80043029785156 83.74648284912109 62.56626892089844 85.96034240722656 C 57.14802932739258 88.25206756591797 51.39155578613281 89.41407012939453 45.45676803588867 89.41407012939453 Z" stroke="none"/>
              <path d="M 45.45676803588867 3 C 39.72381210327148 3 34.1639404296875 4.12213134765625 28.93159484863281 6.335227966308594 C 23.87622833251953 8.473472595214844 19.33542633056641 11.53517150878906 15.43529510498047 15.435302734375 C 11.53517150878906 19.33543395996094 8.473464965820312 23.87622833251953 6.335227966308594 28.93160247802734 C 4.122123718261719 34.16394424438477 3 39.72381591796875 3 45.4572868347168 C 3 51.19024658203125 4.122123718261719 56.75011825561523 6.335227966308594 61.98246002197266 C 8.473464965820312 67.03782653808594 11.53517150878906 71.57862854003906 15.43529510498047 75.478759765625 C 19.33542633056641 79.37889099121094 23.87622833251953 82.44058990478516 28.93159484863281 84.57883453369141 C 34.1639404296875 86.79193115234375 39.72381210327148 87.9140625 45.45676803588867 87.9140625 C 51.18972396850586 87.9140625 56.74959564208984 86.79193115234375 61.98194122314453 84.57883453369141 C 67.03730773925781 82.44058990478516 71.57810974121094 79.37889099121094 75.47824096679688 75.478759765625 C 79.37837219238281 71.57862854003906 82.44007110595703 67.03782653808594 84.57830810546875 61.98246002197266 C 86.79141235351562 56.75011825561523 87.91353607177734 51.19024658203125 87.91353607177734 45.4567756652832 C 87.91353607177734 39.72381591796875 86.79141235351562 34.16394424438477 84.57830810546875 28.93160247802734 C 82.44007110595703 23.87622833251953 79.37837219238281 19.33543395996094 75.47824096679688 15.435302734375 C 71.57810974121094 11.53517150878906 67.03730773925781 8.473472595214844 61.98194122314453 6.335227966308594 C 56.74959564208984 4.12213134765625 51.18972396850586 3 45.45676803588867 3 M 45.45676803588867 0 C 70.56185150146484 0 90.91353607177734 20.35169219970703 90.91353607177734 45.4567756652832 L 90.91353607177734 45.4572868347168 C 90.91353607177734 70.5623779296875 70.56185150146484 90.9140625 45.45676803588867 90.9140625 C 20.3516845703125 90.9140625 0 70.5623779296875 0 45.4572868347168 L 0 45.4567756652832 C 0 20.35169219970703 20.3516845703125 0 45.45676803588867 0 Z" stroke="none" fill="#fff"/>
            </g>
          </g>
          <g id="Trazado_874923" data-name="Trazado 874923" transform="translate(0 0)" fill="none">
            <path d="M45.457,0A45.457,45.457,0,0,1,90.914,45.457h0A45.457,45.457,0,0,1,0,45.457H0A45.457,45.457,0,0,1,45.457,0Z" stroke="none"/>
            <path d="M 45.45676803588867 3 C 39.72381210327148 3 34.1639404296875 4.12213134765625 28.93159484863281 6.335227966308594 C 23.87622833251953 8.473472595214844 19.33542633056641 11.53517150878906 15.43529510498047 15.435302734375 C 11.53517150878906 19.33543395996094 8.473464965820312 23.87622833251953 6.335227966308594 28.93160247802734 C 4.122123718261719 34.16394424438477 3 39.72381591796875 3 45.4572868347168 C 3 51.19024658203125 4.122123718261719 56.75011825561523 6.335227966308594 61.98246002197266 C 8.473464965820312 67.03782653808594 11.53517150878906 71.57862854003906 15.43529510498047 75.478759765625 C 19.33542633056641 79.37889099121094 23.87622833251953 82.44058990478516 28.93159484863281 84.57883453369141 C 34.1639404296875 86.79193115234375 39.72381210327148 87.9140625 45.45676803588867 87.9140625 C 51.18972396850586 87.9140625 56.74959564208984 86.79193115234375 61.98194122314453 84.57883453369141 C 67.03730773925781 82.44058990478516 71.57810974121094 79.37889099121094 75.47824096679688 75.478759765625 C 79.37837219238281 71.57862854003906 82.44007110595703 67.03782653808594 84.57830810546875 61.98246002197266 C 86.79141235351562 56.75011825561523 87.91353607177734 51.19024658203125 87.91353607177734 45.4567756652832 C 87.91353607177734 39.72381591796875 86.79141235351562 34.16394424438477 84.57830810546875 28.93160247802734 C 82.44007110595703 23.87622833251953 79.37837219238281 19.33543395996094 75.47824096679688 15.435302734375 C 71.57810974121094 11.53517150878906 67.03730773925781 8.473472595214844 61.98194122314453 6.335227966308594 C 56.74959564208984 4.12213134765625 51.18972396850586 3 45.45676803588867 3 M 45.45676803588867 0 C 70.56185150146484 0 90.91353607177734 20.35169219970703 90.91353607177734 45.4567756652832 L 90.91353607177734 45.4572868347168 C 90.91353607177734 70.5623779296875 70.56185150146484 90.9140625 45.45676803588867 90.9140625 C 20.3516845703125 90.9140625 0 70.5623779296875 0 45.4572868347168 L 0 45.4567756652832 C 0 20.35169219970703 20.3516845703125 0 45.45676803588867 0 Z" stroke="none" fill="#fff"/>
          </g>
        </g>
      </g>
    </g>
    <path id="Trazado_900429" data-name="Trazado 900429" d="M530.481,305.731c.046.092.065.143.094.187.786,1.191.759,1.346-.39,2.151q-3.922,2.746-7.845,5.49c-.766.535-1.151.465-1.687-.3q-4.359-6.219-8.715-12.439c-.54-.771-.475-1.16.286-1.693q4.055-2.843,8.113-5.682c.8-.558,1.149-.491,1.723.323.253.359.5.718.787,1.121l.465-.295c1.637-1.043,3.28-2.077,4.9-3.144a.85.85,0,0,0,.258-.627c.015-3.707.011-7.415.011-11.122q0-6.387,0-12.774A2.67,2.67,0,0,1,531.425,264H559.01a2.676,2.676,0,0,1,2.956,2.971q0,11.783-.005,23.566a.848.848,0,0,0,.453.871,3.278,3.278,0,0,1,1.642,3.407,3.351,3.351,0,0,1-2.319,2.883c-2.335.868-4.682,1.706-7.022,2.559-3.563,1.3-7.131,2.582-10.685,3.9a12.77,12.77,0,0,1-7.253.427,7.952,7.952,0,0,0-5.988.939C530.694,305.58,530.606,305.646,530.481,305.731Zm-.218-15.127c.181-.054.3-.09.424-.127a17.756,17.756,0,0,1,8.1-.708c2.7.421,5.386.906,8.073,1.392a10.593,10.593,0,0,1,2.539.643,3.684,3.684,0,0,0,1.766.395,9.879,9.879,0,0,1,.991,0,14,14,0,0,0,7.234-1.128,4.214,4.214,0,0,1,.788-.22V271.084H549.63c0,1.429,0,2.821,0,4.213a.919.919,0,0,1-.574.967.9.9,0,0,1-1.039-.288q-1.088-1.092-2.177-2.183c-.2-.2-.406-.4-.629-.62-.973.979-1.884,1.909-2.811,2.823a.86.86,0,0,1-1.414-.056,1.517,1.517,0,0,1-.163-.731c-.015-1.371-.007-2.742-.007-4.127H530.263Zm7.71,4.351c1.382.244,2.7.478,4.016.708,1.86.325,3.716.67,5.581.962a1.707,1.707,0,0,0,1.985-1.467,1.744,1.744,0,0,0-1.408-1.987c-.143-.034-.287-.063-.431-.088-2.635-.466-5.276-.9-7.9-1.4-6.1-1.154-11.261.8-15.888,4.737l5.474,7.823a.761.761,0,0,0,.168-.041,9.725,9.725,0,0,1,7.536-1.342,10.972,10.972,0,0,0,6.331-.361c1.76-.678,3.544-1.3,5.317-1.941q6.171-2.247,12.339-4.5a1.729,1.729,0,0,0,1.132-2.286,1.755,1.755,0,0,0-2.347-1.015q-4.161,1.5-8.31,3.037a.9.9,0,0,0-.46.4,3.569,3.569,0,0,1-4.185,2.128c-1.586-.293-3.176-.563-4.764-.846-1.475-.263-2.95-.528-4.471-.8Zm-16.2,16.848,7.214-5.06-8.08-11.55-7.215,5.059Zm19.014-46.042c-3.24,0-6.415,0-9.59,0-.508,0-.9.246-.929.749-.055.908-.016,1.821-.016,2.735h10.535Zm8.865,3.484H560.2c0-.845.007-1.651,0-2.457-.008-.709-.334-1.026-1.062-1.027q-4.57-.006-9.14,0c-.106,0-.211.011-.342.018Zm-7.055,4.111c.53-.551.945-.99,1.368-1.421,1.2-1.222,1.306-1.219,2.528.015.426.43.856.856,1.34,1.34v-7.5H542.6Z" transform="translate(627.467 2273.662)" fill="#12263f"/>
  </g>
</svg>
