<svg xmlns="http://www.w3.org/2000/svg" xmlns:xlink="http://www.w3.org/1999/xlink" width="108.914" height="108.914" viewBox="0 0 108.914 108.914">
  <defs>
    <filter id="Trazado_874925" x="0" y="0" width="108.914" height="108.914" filterUnits="userSpaceOnUse">
      <feOffset dy="3" input="SourceAlpha"/>
      <feGaussianBlur stdDeviation="3" result="blur"/>
      <feFlood flood-opacity="0.161"/>
      <feComposite operator="in" in2="blur"/>
      <feComposite in="SourceGraphic"/>
    </filter>
  </defs>
  <g id="Grupo_1111380" data-name="Grupo 1111380" transform="translate(-1114.325 -2511.157)">
    <g id="Grupo_1111317" data-name="Grupo 1111317" transform="translate(314.824 564.946)">
      <g id="Grupo_1109835" data-name="Grupo 1109835">
        <g id="Grupo_1107913" data-name="Grupo 1107913" transform="translate(808.5 1952.211)">
          <g transform="matrix(1, 0, 0, 1, -9, -6)" filter="url(#Trazado_874925)">
            <g id="Trazado_874925-2" data-name="Trazado 874925" transform="translate(9 6)" fill="#fd9826" opacity="0.859">
              <path d="M 45.45676803588867 89.41407012939453 C 39.52198028564453 89.41407012939453 33.76551818847656 88.25206756591797 28.34726715087891 85.96034240722656 C 23.11311721801758 83.74648284912109 18.41204261779785 80.57682800292969 14.37464332580566 76.5394287109375 C 10.33724308013916 72.50202941894531 7.167593002319336 67.80095672607422 4.953730583190918 62.56679534912109 C 2.662005424499512 57.14855575561523 1.500005483627319 51.39208221435547 1.500005483627319 45.45729446411133 C 1.500005483627319 39.52198028564453 2.662005424499512 33.76551818847656 4.953730583190918 28.34726905822754 C 7.167593002319336 23.11310577392578 10.33724308013916 18.41203117370605 14.37464332580566 14.37464332580566 C 18.41204261779785 10.33724403381348 23.11311721801758 7.167593955993652 28.34726715087891 4.953731060028076 C 33.76551818847656 2.662006139755249 39.52198028564453 1.500006198883057 45.45676803588867 1.500006198883057 C 51.39155578613281 1.500006198883057 57.14802932739258 2.662006139755249 62.56626892089844 4.953731060028076 C 67.80043029785156 7.167593955993652 72.50150299072266 10.33724403381348 76.53890228271484 14.37464332580566 C 80.57630920410156 18.41203117370605 83.74595642089844 23.11310577392578 85.95981597900391 28.34726905822754 C 88.25154113769531 33.76551818847656 89.41354370117188 39.52198028564453 89.41354370117188 45.45676803588867 C 89.41354370117188 51.39208221435547 88.25154113769531 57.14855575561523 85.95981597900391 62.56679534912109 C 83.74595642089844 67.80095672607422 80.57630920410156 72.50202941894531 76.53890228271484 76.5394287109375 C 72.50150299072266 80.57682800292969 67.80043029785156 83.74648284912109 62.56626892089844 85.96034240722656 C 57.14802932739258 88.25206756591797 51.39155578613281 89.41407012939453 45.45676803588867 89.41407012939453 Z" stroke="none"/>
              <path d="M 45.45676803588867 3 C 39.72381210327148 3 34.1639404296875 4.12213134765625 28.93159484863281 6.335227966308594 C 23.87622833251953 8.473472595214844 19.33542633056641 11.53517150878906 15.43529510498047 15.435302734375 C 11.53517150878906 19.33543395996094 8.473464965820312 23.87622833251953 6.335227966308594 28.93160247802734 C 4.122123718261719 34.16394424438477 3 39.72381591796875 3 45.4572868347168 C 3 51.19024658203125 4.122123718261719 56.75011825561523 6.335227966308594 61.98246002197266 C 8.473464965820312 67.03782653808594 11.53517150878906 71.57862854003906 15.43529510498047 75.478759765625 C 19.33542633056641 79.37889099121094 23.87622833251953 82.44058990478516 28.93159484863281 84.57883453369141 C 34.1639404296875 86.79193115234375 39.72381210327148 87.9140625 45.45676803588867 87.9140625 C 51.18972396850586 87.9140625 56.74959564208984 86.79193115234375 61.98194122314453 84.57883453369141 C 67.03730773925781 82.44058990478516 71.57810974121094 79.37889099121094 75.47824096679688 75.478759765625 C 79.37837219238281 71.57862854003906 82.44007110595703 67.03782653808594 84.57830810546875 61.98246002197266 C 86.79141235351562 56.75011825561523 87.91353607177734 51.19024658203125 87.91353607177734 45.4567756652832 C 87.91353607177734 39.72381591796875 86.79141235351562 34.16394424438477 84.57830810546875 28.93160247802734 C 82.44007110595703 23.87622833251953 79.37837219238281 19.33543395996094 75.47824096679688 15.435302734375 C 71.57810974121094 11.53517150878906 67.03730773925781 8.473472595214844 61.98194122314453 6.335227966308594 C 56.74959564208984 4.12213134765625 51.18972396850586 3 45.45676803588867 3 M 45.45676803588867 0 C 70.56185150146484 0 90.91353607177734 20.35169219970703 90.91353607177734 45.4567756652832 L 90.91353607177734 45.4572868347168 C 90.91353607177734 70.5623779296875 70.56185150146484 90.9140625 45.45676803588867 90.9140625 C 20.3516845703125 90.9140625 0 70.5623779296875 0 45.4572868347168 L 0 45.4567756652832 C 0 20.35169219970703 20.3516845703125 0 45.45676803588867 0 Z" stroke="none" fill="#fff"/>
            </g>
          </g>
          <g id="Trazado_874923" data-name="Trazado 874923" transform="translate(0 0)" fill="none">
            <path d="M45.457,0A45.457,45.457,0,0,1,90.914,45.457h0A45.457,45.457,0,0,1,0,45.457H0A45.457,45.457,0,0,1,45.457,0Z" stroke="none"/>
            <path d="M 45.45676803588867 3 C 39.72381210327148 3 34.1639404296875 4.12213134765625 28.93159484863281 6.335227966308594 C 23.87622833251953 8.473472595214844 19.33542633056641 11.53517150878906 15.43529510498047 15.435302734375 C 11.53517150878906 19.33543395996094 8.473464965820312 23.87622833251953 6.335227966308594 28.93160247802734 C 4.122123718261719 34.16394424438477 3 39.72381591796875 3 45.4572868347168 C 3 51.19024658203125 4.122123718261719 56.75011825561523 6.335227966308594 61.98246002197266 C 8.473464965820312 67.03782653808594 11.53517150878906 71.57862854003906 15.43529510498047 75.478759765625 C 19.33542633056641 79.37889099121094 23.87622833251953 82.44058990478516 28.93159484863281 84.57883453369141 C 34.1639404296875 86.79193115234375 39.72381210327148 87.9140625 45.45676803588867 87.9140625 C 51.18972396850586 87.9140625 56.74959564208984 86.79193115234375 61.98194122314453 84.57883453369141 C 67.03730773925781 82.44058990478516 71.57810974121094 79.37889099121094 75.47824096679688 75.478759765625 C 79.37837219238281 71.57862854003906 82.44007110595703 67.03782653808594 84.57830810546875 61.98246002197266 C 86.79141235351562 56.75011825561523 87.91353607177734 51.19024658203125 87.91353607177734 45.4567756652832 C 87.91353607177734 39.72381591796875 86.79141235351562 34.16394424438477 84.57830810546875 28.93160247802734 C 82.44007110595703 23.87622833251953 79.37837219238281 19.33543395996094 75.47824096679688 15.435302734375 C 71.57810974121094 11.53517150878906 67.03730773925781 8.473472595214844 61.98194122314453 6.335227966308594 C 56.74959564208984 4.12213134765625 51.18972396850586 3 45.45676803588867 3 M 45.45676803588867 0 C 70.56185150146484 0 90.91353607177734 20.35169219970703 90.91353607177734 45.4567756652832 L 90.91353607177734 45.4572868347168 C 90.91353607177734 70.5623779296875 70.56185150146484 90.9140625 45.45676803588867 90.9140625 C 20.3516845703125 90.9140625 0 70.5623779296875 0 45.4572868347168 L 0 45.4567756652832 C 0 20.35169219970703 20.3516845703125 0 45.45676803588867 0 Z" stroke="none" fill="#fff"/>
          </g>
        </g>
      </g>
    </g>
    <g id="Grupo_1111383" data-name="Grupo 1111383" transform="translate(635.051 2323.552)">
      <path id="Trazado_133124" data-name="Trazado 133124" d="M511,250.778a2.54,2.54,0,0,1,2.027-1.927,1.3,1.3,0,0,0,1.16-.949,9.94,9.94,0,0,1,5.014-4.954,1.307,1.307,0,0,0,.727-.763c.439-1.078.92-2.138,1.363-3.215a.532.532,0,0,1,.584-.392,4.89,4.89,0,0,1,4.635,2.868.82.82,0,0,0,.877.545q2.278-.051,4.557-.005c.949.018,1.9.109,2.883.17.12-.6.224-1.256.387-1.9a14.338,14.338,0,0,1,2.411-5.025q2.624-3.561,5.233-7.133c.113-.154.216-.314.331-.481-1.571-.363-2.385-1.142-2.5-2.365s.557-2.173,2.032-2.773c-.583-.35-1.113-.687-1.662-.99a.65.65,0,0,1-.388-.659,4.864,4.864,0,0,1,3.761-4.778c.152-.037.306-.07.5-.115-.207-.516.126-.787.456-1.058.027-.022.055-.044.082-.067,2.6-2.235,4.951-2.2,7.5.1.307.277.613.538.433,1,.468.149.918.252,1.335.431a4.8,4.8,0,0,1,2.893,4.594.711.711,0,0,1-.282.485c-.55.369-1.128.7-1.74,1.069,1.464.585,2.143,1.544,2.024,2.775a2.662,2.662,0,0,1-2.513,2.335c.12.174.22.324.327.47,1.775,2.421,3.565,4.831,5.323,7.264a14.363,14.363,0,0,1-17.812,21.394c-.143-.066-.286-.131-.457-.209-.063.112-.129.212-.178.32a10.364,10.364,0,0,1-4.642,4.983.654.654,0,0,0-.4.7,5.061,5.061,0,0,1-.081,1.261,2.485,2.485,0,0,1-2.4,1.948c-.53.015-1.06.006-1.59,0a2.558,2.558,0,0,1-2.7-2.311c-.011-.066-.023-.131-.038-.213h-4.988a6.852,6.852,0,0,1-.318,1.047,2.45,2.45,0,0,1-2.219,1.47c-.617.028-1.237.022-1.855,0a2.449,2.449,0,0,1-2.435-2.491,1.673,1.673,0,0,0-1.071-1.815,9.808,9.808,0,0,1-3.521-3.074.552.552,0,0,0-.362-.236A2.713,2.713,0,0,1,511,256.079Zm38.153-23.218c-1.113,0-2.226.015-3.339-.009a.792.792,0,0,0-.739.379q-3.04,4.176-6.1,8.334a12.89,12.89,0,0,0-2.386,5.761c-.073.471-.042.768.493,1.011a10.365,10.365,0,0,1,5.972,11.392.478.478,0,0,0,.317.606,12.77,12.77,0,0,0,7.774,1.228,12.562,12.562,0,0,0,8.443-19.667c-2.078-2.942-4.246-5.821-6.389-8.717a.867.867,0,0,0-.6-.3C551.45,227.546,550.3,227.561,549.153,227.561ZM538.1,252.107a3.128,3.128,0,0,0,2.784-1.264,1.107,1.107,0,0,0,.181-1.165,9.075,9.075,0,0,0-8.227-5.986c-1.783-.047-3.568-.011-5.352-.02a3.828,3.828,0,0,1-1.705-.1c-.4-.226-.534-.914-.789-1.4a4.9,4.9,0,0,0-.266-.457,3.289,3.289,0,0,0-1.751-1.3.385.385,0,0,0-.568.26c-.39.964-.83,1.908-1.218,2.874a1.126,1.126,0,0,1-.708.7,8.512,8.512,0,0,0-5.077,5.081c-.434,1.116-.435,1.115-1.637,1.128-.783.008-1.068.3-1.071,1.1,0,1.007,0,2.014,0,3.02,0,1.792,0,1.8,1.79,1.807a.683.683,0,0,1,.619.359,9.245,9.245,0,0,0,1.573,1.9,32.682,32.682,0,0,0,3.283,2.1.593.593,0,0,1,.377.6c-.026.582-.017,1.166,0,1.748a.849.849,0,0,0,.926.923c.494.013.989.01,1.484,0a.87.87,0,0,0,.978-.981c.009-.506,0-1.013,0-1.526H532.2c0,.51,0,.985,0,1.459.007.753.3,1.043,1.07,1.049.442,0,.883.006,1.325,0,.685-.011.987-.319,1-1.018.006-.547.024-1.1-.007-1.642a.552.552,0,0,1,.411-.623,8.832,8.832,0,0,0,5.524-8.11,5.478,5.478,0,0,1-3.875,1.23c-.128-.005-.282.158-.393.273-1.186,1.23-2.366,2.466-3.527,3.679l-1.27-1.212,2.747-2.694c-1.889-.957-2.507-2.038-2.008-3.451a2.564,2.564,0,0,1,2.867-1.654C537.524,249.11,538.23,250.239,538.1,252.107Zm12.083-29.656c.466-2.088.924-4.133,1.372-6.181a.493.493,0,0,0-.07-.376,3.041,3.041,0,0,0-3.719-.628c-1.08.585-1.085.586-.825,1.77.4,1.8.8,3.6,1.206,5.414Zm-.986,3.413q2.836,0,5.671,0c.677,0,1.064-.3,1.077-.827.014-.543-.387-.867-1.089-.867q-5.7,0-11.4,0c-.053,0-.106,0-.159,0a.861.861,0,0,0-.918.827.847.847,0,0,0,.93.865C545.276,225.869,547.237,225.864,549.2,225.864Zm-2.772-3.33-1.092-4.893a3.147,3.147,0,0,0-2.832,2.238.477.477,0,0,0,.242.645c1.009.577,1.994,1.193,3,1.78A3.873,3.873,0,0,0,546.427,222.534ZM553,217.615l-1.1,4.943a5.061,5.061,0,0,0,.721-.27c.973-.569,1.925-1.173,2.909-1.722a.529.529,0,0,0,.265-.771A3.19,3.19,0,0,0,553,217.615Zm-16.71,34.525c.251-.767.19-1.236-.2-1.51a.78.78,0,0,0-1.019.027.766.766,0,0,0-.239.988C535.151,252.309,535.749,252.146,536.29,252.141Z" transform="translate(0 -0.365)" fill="#12263f"/>
      <path id="Trazado_133125" data-name="Trazado 133125" d="M511,220.3c1.349-2.188,2.658-4.4,4.062-6.554a2.258,2.258,0,0,1,3.746,0q1.982,2.97,3.8,6.049a2.131,2.131,0,0,1-1.8,3.156c-.139.009-.278.012-.47.021V233.1h-6.764V222.969a2.386,2.386,0,0,1-2.574-1.71Zm7.627.954c.688,0,1.3.009,1.918,0s.789-.342.465-.863q-1.707-2.739-3.434-5.465c-.378-.6-.905-.589-1.285.012q-1.711,2.705-3.4,5.422c-.359.575-.176.89.507.9.609.006,1.219,0,1.861,0v10.147h3.372Z" transform="translate(0 0)" fill="#12263f"/>
      <path id="Trazado_133126" data-name="Trazado 133126" d="M648.18,281.132h-6.8v-10.1a8.243,8.243,0,0,1-.931-.135,2.1,2.1,0,0,1-1.357-3.059c1.223-2.063,2.494-4.1,3.828-6.094a2.262,2.262,0,0,1,3.717.019q1.981,2.971,3.8,6.049a2.131,2.131,0,0,1-1.783,3.165c-.139.009-.28,0-.473,0Zm-1.7-1.7V269.282c.652,0,1.25.006,1.848,0,.653-.008.845-.327.507-.869q-1.707-2.739-3.433-5.466c-.376-.592-.9-.579-1.285.023q-1.71,2.705-3.4,5.422c-.357.572-.171.885.518.891.609.005,1.218,0,1.859,0v10.154Z" transform="translate(-114.264 -42.934)" fill="#12263f"/>
      <path id="Trazado_133136" data-name="Trazado 133136" d="M834.36,398.964v-1.728h1.664v1.7c2.272.82,3.432,2.231,3.381,4.126-.263.021-.535.051-.808.062s-.526,0-.82,0c-.034-.19-.058-.376-.1-.558a2.534,2.534,0,1,0-3.137,2.924c.594.165,1.2.292,1.792.462a4.172,4.172,0,0,1,.089,8.04c-.116.036-.23.077-.377.126v1.715h-1.683v-1.718a4.376,4.376,0,0,1-2.823-2,4.79,4.79,0,0,1-.559-2.993h1.673c0,.32-.009.633,0,.945a2.492,2.492,0,0,0,2.307,2.406,2.523,2.523,0,0,0,2.751-2.1,2.482,2.482,0,0,0-1.838-2.778c-.509-.144-1.022-.272-1.535-.4a4.181,4.181,0,0,1-.2-8.166Z" transform="translate(-286.03 -164.927)" fill="#12263f"/>
      <path id="Trazado_133137" data-name="Trazado 133137" d="M577.589,525.014a2.543,2.543,0,1,1-2.574,2.484A2.553,2.553,0,0,1,577.589,525.014Zm-.038,3.387a.844.844,0,1,0-.838-.85A.854.854,0,0,0,577.551,528.4Z" transform="translate(-57.228 -279.158)" fill="#12263f"/>
    </g>
  </g>
</svg>
