<svg xmlns="http://www.w3.org/2000/svg" xmlns:xlink="http://www.w3.org/1999/xlink" width="108.914" height="108.914" viewBox="0 0 108.914 108.914">
  <defs>
    <filter id="Trazado_874925" x="0" y="0" width="108.914" height="108.914" filterUnits="userSpaceOnUse">
      <feOffset dy="3" input="SourceAlpha"/>
      <feGaussianBlur stdDeviation="3" result="blur"/>
      <feFlood flood-opacity="0.161"/>
      <feComposite operator="in" in2="blur"/>
      <feComposite in="SourceGraphic"/>
    </filter>
  </defs>
  <g id="Grupo_1111381" data-name="Grupo 1111381" transform="translate(-1114.325 -2511.157)">
    <g id="Grupo_1111317" data-name="Grupo 1111317" transform="translate(314.824 564.946)">
      <g id="Grupo_1109835" data-name="Grupo 1109835">
        <g id="Grupo_1107913" data-name="Grupo 1107913" transform="translate(808.5 1952.211)">
          <g transform="matrix(1, 0, 0, 1, -9, -6)" filter="url(#Trazado_874925)">
            <g id="Trazado_874925-2" data-name="Trazado 874925" transform="translate(9 6)" fill="#fd9826" opacity="0.859">
              <path d="M 45.45676803588867 89.41407012939453 C 39.52198028564453 89.41407012939453 33.76551818847656 88.25206756591797 28.34726715087891 85.96034240722656 C 23.11311721801758 83.74648284912109 18.41204261779785 80.57682800292969 14.37464332580566 76.5394287109375 C 10.33724308013916 72.50202941894531 7.167593002319336 67.80095672607422 4.953730583190918 62.56679534912109 C 2.662005424499512 57.14855575561523 1.500005483627319 51.39208221435547 1.500005483627319 45.45729446411133 C 1.500005483627319 39.52198028564453 2.662005424499512 33.76551818847656 4.953730583190918 28.34726905822754 C 7.167593002319336 23.11310577392578 10.33724308013916 18.41203117370605 14.37464332580566 14.37464332580566 C 18.41204261779785 10.33724403381348 23.11311721801758 7.167593955993652 28.34726715087891 4.953731060028076 C 33.76551818847656 2.662006139755249 39.52198028564453 1.500006198883057 45.45676803588867 1.500006198883057 C 51.39155578613281 1.500006198883057 57.14802932739258 2.662006139755249 62.56626892089844 4.953731060028076 C 67.80043029785156 7.167593955993652 72.50150299072266 10.33724403381348 76.53890228271484 14.37464332580566 C 80.57630920410156 18.41203117370605 83.74595642089844 23.11310577392578 85.95981597900391 28.34726905822754 C 88.25154113769531 33.76551818847656 89.41354370117188 39.52198028564453 89.41354370117188 45.45676803588867 C 89.41354370117188 51.39208221435547 88.25154113769531 57.14855575561523 85.95981597900391 62.56679534912109 C 83.74595642089844 67.80095672607422 80.57630920410156 72.50202941894531 76.53890228271484 76.5394287109375 C 72.50150299072266 80.57682800292969 67.80043029785156 83.74648284912109 62.56626892089844 85.96034240722656 C 57.14802932739258 88.25206756591797 51.39155578613281 89.41407012939453 45.45676803588867 89.41407012939453 Z" stroke="none"/>
              <path d="M 45.45676803588867 3 C 39.72381210327148 3 34.1639404296875 4.12213134765625 28.93159484863281 6.335227966308594 C 23.87622833251953 8.473472595214844 19.33542633056641 11.53517150878906 15.43529510498047 15.435302734375 C 11.53517150878906 19.33543395996094 8.473464965820312 23.87622833251953 6.335227966308594 28.93160247802734 C 4.122123718261719 34.16394424438477 3 39.72381591796875 3 45.4572868347168 C 3 51.19024658203125 4.122123718261719 56.75011825561523 6.335227966308594 61.98246002197266 C 8.473464965820312 67.03782653808594 11.53517150878906 71.57862854003906 15.43529510498047 75.478759765625 C 19.33542633056641 79.37889099121094 23.87622833251953 82.44058990478516 28.93159484863281 84.57883453369141 C 34.1639404296875 86.79193115234375 39.72381210327148 87.9140625 45.45676803588867 87.9140625 C 51.18972396850586 87.9140625 56.74959564208984 86.79193115234375 61.98194122314453 84.57883453369141 C 67.03730773925781 82.44058990478516 71.57810974121094 79.37889099121094 75.47824096679688 75.478759765625 C 79.37837219238281 71.57862854003906 82.44007110595703 67.03782653808594 84.57830810546875 61.98246002197266 C 86.79141235351562 56.75011825561523 87.91353607177734 51.19024658203125 87.91353607177734 45.4567756652832 C 87.91353607177734 39.72381591796875 86.79141235351562 34.16394424438477 84.57830810546875 28.93160247802734 C 82.44007110595703 23.87622833251953 79.37837219238281 19.33543395996094 75.47824096679688 15.435302734375 C 71.57810974121094 11.53517150878906 67.03730773925781 8.473472595214844 61.98194122314453 6.335227966308594 C 56.74959564208984 4.12213134765625 51.18972396850586 3 45.45676803588867 3 M 45.45676803588867 0 C 70.56185150146484 0 90.91353607177734 20.35169219970703 90.91353607177734 45.4567756652832 L 90.91353607177734 45.4572868347168 C 90.91353607177734 70.5623779296875 70.56185150146484 90.9140625 45.45676803588867 90.9140625 C 20.3516845703125 90.9140625 0 70.5623779296875 0 45.4572868347168 L 0 45.4567756652832 C 0 20.35169219970703 20.3516845703125 0 45.45676803588867 0 Z" stroke="none" fill="#fff"/>
            </g>
          </g>
          <g id="Trazado_874923" data-name="Trazado 874923" transform="translate(0 0)" fill="none">
            <path d="M45.457,0A45.457,45.457,0,0,1,90.914,45.457h0A45.457,45.457,0,0,1,0,45.457H0A45.457,45.457,0,0,1,45.457,0Z" stroke="none"/>
            <path d="M 45.45676803588867 3 C 39.72381210327148 3 34.1639404296875 4.12213134765625 28.93159484863281 6.335227966308594 C 23.87622833251953 8.473472595214844 19.33542633056641 11.53517150878906 15.43529510498047 15.435302734375 C 11.53517150878906 19.33543395996094 8.473464965820312 23.87622833251953 6.335227966308594 28.93160247802734 C 4.122123718261719 34.16394424438477 3 39.72381591796875 3 45.4572868347168 C 3 51.19024658203125 4.122123718261719 56.75011825561523 6.335227966308594 61.98246002197266 C 8.473464965820312 67.03782653808594 11.53517150878906 71.57862854003906 15.43529510498047 75.478759765625 C 19.33542633056641 79.37889099121094 23.87622833251953 82.44058990478516 28.93159484863281 84.57883453369141 C 34.1639404296875 86.79193115234375 39.72381210327148 87.9140625 45.45676803588867 87.9140625 C 51.18972396850586 87.9140625 56.74959564208984 86.79193115234375 61.98194122314453 84.57883453369141 C 67.03730773925781 82.44058990478516 71.57810974121094 79.37889099121094 75.47824096679688 75.478759765625 C 79.37837219238281 71.57862854003906 82.44007110595703 67.03782653808594 84.57830810546875 61.98246002197266 C 86.79141235351562 56.75011825561523 87.91353607177734 51.19024658203125 87.91353607177734 45.4567756652832 C 87.91353607177734 39.72381591796875 86.79141235351562 34.16394424438477 84.57830810546875 28.93160247802734 C 82.44007110595703 23.87622833251953 79.37837219238281 19.33543395996094 75.47824096679688 15.435302734375 C 71.57810974121094 11.53517150878906 67.03730773925781 8.473472595214844 61.98194122314453 6.335227966308594 C 56.74959564208984 4.12213134765625 51.18972396850586 3 45.45676803588867 3 M 45.45676803588867 0 C 70.56185150146484 0 90.91353607177734 20.35169219970703 90.91353607177734 45.4567756652832 L 90.91353607177734 45.4572868347168 C 90.91353607177734 70.5623779296875 70.56185150146484 90.9140625 45.45676803588867 90.9140625 C 20.3516845703125 90.9140625 0 70.5623779296875 0 45.4572868347168 L 0 45.4567756652832 C 0 20.35169219970703 20.3516845703125 0 45.45676803588867 0 Z" stroke="none" fill="#fff"/>
          </g>
        </g>
      </g>
    </g>
    <g id="Grupo_1111384" data-name="Grupo 1111384" transform="translate(477.545 2318.074)">
      <path id="Trazado_133150" data-name="Trazado 133150" d="M691.235,267.081H665.29c-1,0-1.29-.293-1.29-1.292q0-21.249,0-42.5c0-1,.291-1.29,1.291-1.29H717.18c1,0,1.292.293,1.292,1.291q0,21.249,0,42.5c0,1-.294,1.292-1.292,1.292Zm25.318-16.933V223.924H665.908v26.225Zm.014,1.946h-50.64V253.9h50.64Zm0,3.756H665.925v1.809h50.641Zm-50.637,3.728V261.4h50.617v-1.826Zm0,3.757v1.829h50.62v-1.829Z" transform="translate(0)" fill="#12263f"/>
      <path id="Trazado_133151" data-name="Trazado 133151" d="M719.467,276.525H701.1c-1.035,0-1.238-.187-1.36-1.235a2.849,2.849,0,0,0-2.611-2.515c-.869-.081-1.131-.358-1.132-1.222q0-6.308,0-12.616c0-.834.278-1.132,1.092-1.2a2.829,2.829,0,0,0,2.658-2.651c.069-.82.364-1.1,1.192-1.1q18.543,0,37.086,0c.816,0,1.107.284,1.177,1.115a2.831,2.831,0,0,0,2.671,2.639c.783.065,1.081.368,1.082,1.154q.006,6.367,0,12.734c0,.782-.3,1.078-1.087,1.148a2.845,2.845,0,0,0-2.66,2.592c-.093.931-.347,1.162-1.314,1.162q-9.213,0-18.426,0Zm-9.381-11.285a9.391,9.391,0,1,0,9.434-9.376A9.4,9.4,0,0,0,710.085,265.239Zm15.691,9.383H737.4a4.829,4.829,0,0,1,3.659-3.657V259.542A4.83,4.83,0,0,1,737.4,255.9H725.857A11.379,11.379,0,0,1,725.776,274.622Zm-27.885-15.079v11.389c2.339.946,2.859,1.467,3.671,3.667h11.587a11.336,11.336,0,0,1,.021-18.715H701.55A4.835,4.835,0,0,1,697.891,259.543Z" transform="translate(-28.239 -28.227)" fill="#12263f"/>
      <path id="Trazado_133154" data-name="Trazado 133154" d="M866.777,292.949a3.82,3.82,0,0,1-2.77-3.048,2.536,2.536,0,0,1-.043-.641.933.933,0,0,1,1.854-.089,2.842,2.842,0,0,1,.02.292,1.878,1.878,0,0,0,3.748-.18,1.869,1.869,0,0,0-1.824-1.853,3.743,3.743,0,0,1-1.524-7.184.705.705,0,0,0,.547-.795c-.041-.967.276-1.406.914-1.414s.973.443.94,1.393a.7.7,0,0,0,.523.811,3.681,3.681,0,0,1,2.3,3.379c-.016.462-.218.856-.665.911a1.51,1.51,0,0,1-.98-.3c-.171-.126-.2-.485-.237-.748a1.922,1.922,0,0,0-1.76-1.684,1.877,1.877,0,1,0-.072,3.751,3.766,3.766,0,0,1,3.585,2.775,3.713,3.713,0,0,1-2.235,4.447c-.355.141-.5.3-.455.672a2.278,2.278,0,0,1-.017.7.887.887,0,0,1-.946.787.869.869,0,0,1-.9-.834A10.194,10.194,0,0,1,866.777,292.949Z" transform="translate(-176.475 -49.458)" fill="#12263f"/>
    </g>
  </g>
</svg>
