<svg xmlns="http://www.w3.org/2000/svg" xmlns:xlink="http://www.w3.org/1999/xlink" width="190" height="120" viewBox="0 0 190 120">
  <defs>
    <clipPath id="clip-path">
      <rect id="Rectángulo_404919" data-name="Rectángulo 404919" width="177.258" height="110.83" fill="none"/>
    </clipPath>
    <clipPath id="clip-path-3">
      <rect id="Rectángulo_404899" data-name="Rectángulo 404899" width="8.79" height="11.268" fill="none"/>
    </clipPath>
    <clipPath id="clip-path-5">
      <rect id="Rectángulo_404902" data-name="Rectángulo 404902" width="10.319" height="7.708" fill="none"/>
    </clipPath>
    <clipPath id="clip-path-6">
      <rect id="Rectángulo_404903" data-name="Rectángulo 404903" width="4.789" height="9.095" fill="none"/>
    </clipPath>
    <clipPath id="clip-path-9">
      <rect id="Rectángulo_404906" data-name="Rectángulo 404906" width="14.149" height="18.171" fill="none"/>
    </clipPath>
    <clipPath id="clip-path-10">
      <rect id="Rectángulo_404907" data-name="Rectángulo 404907" width="24.146" height="24.146" fill="none"/>
    </clipPath>
    <clipPath id="clip-path-11">
      <rect id="Rectángulo_404908" data-name="Rectángulo 404908" width="23.822" height="23.822" fill="#fed6a8"/>
    </clipPath>
    <clipPath id="clip-path-12">
      <rect id="Rectángulo_404909" data-name="Rectángulo 404909" width="8.903" height="14.542" fill="none"/>
    </clipPath>
    <clipPath id="clip-path-13">
      <rect id="Rectángulo_404910" data-name="Rectángulo 404910" width="12.91" height="7.961" fill="none"/>
    </clipPath>
    <clipPath id="clip-path-16">
      <rect id="Rectángulo_404916" data-name="Rectángulo 404916" width="3.34" height="28.153" fill="none"/>
    </clipPath>
    <clipPath id="clip-path-17">
      <rect id="Rectángulo_404917" data-name="Rectángulo 404917" width="11.749" height="17.381" fill="none"/>
    </clipPath>
  </defs>
  <g id="Grupo_1111738" data-name="Grupo 1111738" transform="translate(-180.051 -383)">
    <rect id="Rectángulo_404898" data-name="Rectángulo 404898" width="190" height="120" rx="6" transform="translate(180.051 383)" fill="#f2ecfd"/>
    <g id="Grupo_1111737" data-name="Grupo 1111737" transform="translate(184.225 392.17)">
      <g id="Grupo_1111736" data-name="Grupo 1111736" clip-path="url(#clip-path)">
        <g id="Grupo_1111697" data-name="Grupo 1111697">
          <g id="Grupo_1111696" data-name="Grupo 1111696" clip-path="url(#clip-path)">
            <g id="Grupo_1111686" data-name="Grupo 1111686" transform="translate(61.621 31.008)" opacity="0.1">
              <g id="Grupo_1111685" data-name="Grupo 1111685">
                <g id="Grupo_1111684" data-name="Grupo 1111684" clip-path="url(#clip-path-3)">
                  <path id="Trazado_901645" data-name="Trazado 901645" d="M242.1,117.637a9.856,9.856,0,0,0-8.205,11.268s6.89-.77,8.1-3.784.1-7.484.1-7.484" transform="translate(-233.777 -117.637)" fill="#fff"/>
                </g>
              </g>
            </g>
            <path id="Trazado_901650" data-name="Trazado 901650" d="M236.93,153.677a.4.4,0,0,1-.057-.068l-.153-.2a4.033,4.033,0,0,1-.228-.333c-.084-.133-.186-.281-.278-.457l-.151-.272c-.052-.095-.1-.2-.149-.3-.106-.208-.2-.44-.3-.682a9.79,9.79,0,0,1-.66-3.331c0-.263,0-.512.015-.744.008-.116.01-.229.022-.337s.024-.21.036-.309c.018-.2.056-.373.083-.528s.056-.288.084-.395.047-.183.063-.247a.378.378,0,0,1,.027-.085.466.466,0,0,1-.013.088c-.013.065-.029.148-.05.25s-.051.24-.072.4-.057.33-.071.527c-.01.1-.02.2-.031.308s-.011.219-.018.335c-.016.231-.009.479-.008.739a10.124,10.124,0,0,0,.656,3.309c.1.241.186.473.289.681.051.1.094.207.144.3l.146.273c.089.176.188.325.267.46s.154.247.217.338l.141.212a.407.407,0,0,1,.045.077" transform="translate(-173.025 -107.061)" fill="#fff"/>
            <path id="Trazado_901651" data-name="Trazado 901651" d="M260.969,147.371a.621.621,0,0,1-.249-.18,1.159,1.159,0,0,1-.169-1.392.624.624,0,0,1,.2-.234c.01.008-.071.094-.153.258a1.2,1.2,0,0,0,.161,1.333c.119.14.217.2.21.215" transform="translate(-191.757 -107.196)" fill="#fff"/>
            <path id="Trazado_901652" data-name="Trazado 901652" d="M266.853,138.976a1.312,1.312,0,1,1-.012-.31.678.678,0,0,1,.012.31" transform="translate(-196.434 -101.895)" fill="#fff"/>
            <path id="Trazado_901653" data-name="Trazado 901653" d="M253.48,124.869a1.538,1.538,0,0,1-.239.028c-.077.006-.171.014-.28.03s-.233.026-.369.054-.285.049-.443.088-.325.082-.5.131a7.733,7.733,0,0,0-2.134,1.016c-.149.106-.292.2-.418.306s-.244.2-.348.288-.194.178-.274.253-.147.142-.2.2a1.519,1.519,0,0,1-.173.168,1.485,1.485,0,0,1,.152-.187c.05-.06.113-.131.192-.208s.163-.171.268-.262.215-.2.345-.3.268-.206.417-.314a7.333,7.333,0,0,1,2.154-1.025c.178-.047.346-.1.507-.125s.31-.06.448-.08.263-.032.373-.043.2-.016.283-.017a1.514,1.514,0,0,1,.241,0" transform="translate(-182.705 -91.952)" fill="#fff"/>
            <path id="Trazado_901654" data-name="Trazado 901654" d="M268.5,188.893a.875.875,0,0,1-.166.074c-.108.045-.269.1-.47.159a7.125,7.125,0,0,1-3.246.173c-.206-.038-.372-.076-.484-.109a.833.833,0,0,1-.173-.056.888.888,0,0,1,.179.028c.114.024.28.054.486.085a7.965,7.965,0,0,0,3.223-.172c.2-.053.363-.1.474-.136a.862.862,0,0,1,.176-.047" transform="translate(-194.386 -139.102)" fill="#fff"/>
            <g id="Grupo_1111689" data-name="Grupo 1111689" transform="translate(6.127 0.121)" opacity="0.1">
              <g id="Grupo_1111688" data-name="Grupo 1111688">
                <g id="Grupo_1111687" data-name="Grupo 1111687" clip-path="url(#clip-path-3)">
                  <path id="Trazado_901656" data-name="Trazado 901656" d="M31.57.459a9.856,9.856,0,0,0-8.2,11.268s6.89-.77,8.1-3.784.1-7.484.1-7.484" transform="translate(-23.244 -0.459)" fill="#fff"/>
                </g>
              </g>
            </g>
            <path id="Trazado_901661" data-name="Trazado 901661" d="M26.4,36.5a.4.4,0,0,1-.057-.068l-.153-.2c-.067-.088-.146-.2-.228-.333s-.186-.281-.278-.457l-.151-.272c-.052-.1-.1-.2-.149-.3-.106-.208-.2-.44-.3-.682a9.774,9.774,0,0,1-.66-3.331c0-.262,0-.512.014-.744.008-.116.011-.229.022-.337s.025-.21.036-.309c.018-.2.056-.373.083-.528s.056-.288.084-.395l.063-.247a.4.4,0,0,1,.027-.085.429.429,0,0,1-.013.089l-.05.249c-.024.108-.051.24-.072.4s-.057.33-.072.527c-.01.1-.02.2-.031.308s-.011.219-.018.335c-.016.231-.009.479-.008.739a10.1,10.1,0,0,0,.656,3.309c.1.241.186.473.289.681.05.1.094.207.144.3l.146.273c.089.176.187.325.267.46s.154.248.217.338l.141.212a.408.408,0,0,1,.045.077" transform="translate(-17.987 -20.77)" fill="#fff"/>
            <path id="Trazado_901662" data-name="Trazado 901662" d="M50.436,30.194a.618.618,0,0,1-.249-.18,1.16,1.16,0,0,1-.168-1.392.619.619,0,0,1,.2-.234c.009.008-.071.094-.153.258a1.2,1.2,0,0,0,.161,1.333c.119.14.217.2.21.215" transform="translate(-36.719 -20.905)" fill="#fff"/>
            <path id="Trazado_901663" data-name="Trazado 901663" d="M56.321,21.8a1.312,1.312,0,0,1-.1-.609,1.314,1.314,0,0,1,.1.609" transform="translate(-41.396 -15.604)" fill="#fff"/>
            <path id="Trazado_901664" data-name="Trazado 901664" d="M42.947,7.691a1.522,1.522,0,0,1-.239.028c-.077.006-.171.014-.28.03s-.233.026-.369.054-.285.049-.443.088-.325.082-.5.131a7.723,7.723,0,0,0-2.134,1.016c-.149.106-.292.2-.418.306s-.244.2-.348.288-.194.178-.274.253-.147.142-.2.2a1.52,1.52,0,0,1-.173.168,1.5,1.5,0,0,1,.152-.187c.05-.06.113-.131.192-.208s.163-.171.268-.262.216-.2.345-.3.268-.206.417-.314A7.335,7.335,0,0,1,41.1,7.957c.178-.047.346-.1.507-.125s.31-.06.448-.08.263-.032.372-.043.2-.016.283-.018a1.518,1.518,0,0,1,.241,0" transform="translate(-27.666 -5.661)" fill="#fff"/>
            <path id="Trazado_901665" data-name="Trazado 901665" d="M57.97,71.715a.874.874,0,0,1-.166.074c-.108.045-.269.1-.47.159a7.124,7.124,0,0,1-3.246.173c-.206-.038-.372-.076-.484-.109a.842.842,0,0,1-.173-.056.884.884,0,0,1,.18.028c.114.024.28.054.486.085A7.977,7.977,0,0,0,57.32,71.9c.2-.053.363-.1.474-.136a.861.861,0,0,1,.176-.047" transform="translate(-39.347 -52.811)" fill="#fff"/>
            <path id="Trazado_901668" data-name="Trazado 901668" d="M57.931,258.437a5.551,5.551,0,0,1-.864-5.107,9.849,9.849,0,0,1,3.025-4.388,16.289,16.289,0,0,1,5.417-3.2,5.763,5.763,0,0,1,2.436-.414,2.556,2.556,0,0,1,2.044,1.237c.57,1.087.024,2.406-.567,3.482a41.3,41.3,0,0,1-3.558,5.418,9.63,9.63,0,0,1-3.913,3.352c-1.625.621-3.314.548-4.175-.579" transform="translate(-41.831 -180.653)" fill="#ebebeb"/>
            <path id="Trazado_901669" data-name="Trazado 901669" d="M27.958,334.9a3.325,3.325,0,0,1-.1-.693l-.184-1.891a27.276,27.276,0,0,0-.425-2.775,21.4,21.4,0,0,0-1.008-3.275,12.071,12.071,0,0,0-1.672-2.963,6.244,6.244,0,0,0-2.114-1.757,5.915,5.915,0,0,0-1.78-.555,3.316,3.316,0,0,1-.69-.1,3.245,3.245,0,0,1,.7-.011,5.4,5.4,0,0,1,1.856.483,6.233,6.233,0,0,1,2.23,1.773,11.783,11.783,0,0,1,1.733,3.022,20.019,20.019,0,0,1,1,3.328,23.45,23.45,0,0,1,.369,2.809c.06.8.083,1.454.094,1.9a3.251,3.251,0,0,1-.014.7" transform="translate(-14.719 -236.294)" fill="#e0e0e0"/>
            <path id="Trazado_901670" data-name="Trazado 901670" d="M39.834,281.212a1.375,1.375,0,0,1-.019-.322c0-.241,0-.546,0-.92,0-.8,0-1.953-.041-3.379-.071-2.853-.316-5.922-.791-10.25-.449-4.07-1.052-8.806-1.689-11.885-.136-.7-.274-1.331-.4-1.882s-.229-1.03-.331-1.416l-.215-.894a1.361,1.361,0,0,1-.056-.317,1.361,1.361,0,0,1,.112.3l.267.881c.119.382.24.856.379,1.407s.3,1.178.445,1.878a104.405,104.405,0,0,1,1.775,11.029c.475,4.337.69,8.286.708,11.146.017,1.43-.013,2.587-.05,3.386-.023.373-.041.678-.056.919a1.371,1.371,0,0,1-.039.319" transform="translate(-26.725 -184.063)" fill="#e0e0e0"/>
            <path id="Trazado_901671" data-name="Trazado 901671" d="M49.625,280.1a6.133,6.133,0,0,1,.007-.961c.035-.617.12-1.51.294-2.6a34.308,34.308,0,0,1,.846-3.792,31.072,31.072,0,0,1,1.586-4.487,23.9,23.9,0,0,1,4.657-7.252,11.791,11.791,0,0,1,1.1-1.018c.168-.142.317-.284.468-.4L59,259.3a6.135,6.135,0,0,1,.809-.518,28.73,28.73,0,0,0-2.651,2.365,25.185,25.185,0,0,0-4.541,7.225,35.438,35.438,0,0,0-1.595,4.446,38.479,38.479,0,0,0-.9,3.755c-.2,1.082-.313,1.965-.382,2.577a6.224,6.224,0,0,1-.118.952" transform="translate(-36.535 -190.569)" fill="#e0e0e0"/>
            <path id="Trazado_901673" data-name="Trazado 901673" d="M37.011,408.307v1.142H19.447v-1.142Z" transform="translate(-14.321 -300.682)" fill="#ebebeb"/>
            <path id="Trazado_901674" data-name="Trazado 901674" d="M37.136,414.652l.822-2.011H21.874l.96,2.011Z" transform="translate(-16.108 -303.874)" fill="#e0e0e0"/>
            <path id="Trazado_901675" data-name="Trazado 901675" d="M25.353,379.019a.417.417,0,0,0,.063.1l.2.266.783,1,.035.045.033-.046,1.923-2.659h-.111l1.893,2.68.059.084.066-.079,2.245-2.671-.129,0,.123.155,2.007,2.517.067.084.062-.087,1.894-2.679-.11.005,2.332,2.657.041.047.032-.053.73-1.227.187-.327a.525.525,0,0,0,.057-.117.528.528,0,0,0-.078.1l-.207.314-.767,1.2.073-.006-2.295-2.689-.058-.068-.052.073-1.911,2.667.129,0-2-2.52-.123-.155-.064-.08-.066.078L30.176,380.3l.125.005-1.912-2.666-.056-.078-.055.078L26.4,380.331l.068,0-.814-.976-.218-.252a.449.449,0,0,0-.081-.081" transform="translate(-18.67 -278.032)" fill="#f5f5f5"/>
            <path id="Trazado_901676" data-name="Trazado 901676" d="M23.7,369.663c0,.046,3.366.083,7.517.083s7.517-.037,7.517-.083-3.365-.084-7.517-.084-7.517.037-7.517.084" transform="translate(-17.452 -272.162)" fill="#f5f5f5"/>
            <path id="Trazado_901677" data-name="Trazado 901677" d="M21.124,412.836c0,.046,3.658.084,8.169.084s8.17-.037,8.17-.084-3.657-.084-8.17-.084-8.169.037-8.169.084" transform="translate(-15.556 -303.955)" fill="#f5f5f5"/>
            <path id="Trazado_901678" data-name="Trazado 901678" d="M620.846,228.387a8.866,8.866,0,1,1-7.124-10.318,8.866,8.866,0,0,1,7.124,10.318" transform="translate(-444.246 -160.48)" fill="#ebebeb"/>
            <g id="Grupo_1111692" data-name="Grupo 1111692" transform="translate(159.159 57.441)" opacity="0.1">
              <g id="Grupo_1111691" data-name="Grupo 1111691">
                <g id="Grupo_1111690" data-name="Grupo 1111690" clip-path="url(#clip-path-5)">
                  <path id="Trazado_901679" data-name="Trazado 901679" d="M614.133,218.068a8.866,8.866,0,0,0-10.319,7.124s6.078,1.4,8-.8,2.314-6.322,2.314-6.322" transform="translate(-603.815 -217.921)" fill="#fff"/>
                </g>
              </g>
            </g>
            <path id="Trazado_901684" data-name="Trazado 901684" d="M604.687,240.886a.355.355,0,0,1-.028-.075l-.069-.219a3.592,3.592,0,0,1-.095-.35c-.031-.138-.074-.294-.1-.471l-.047-.276c-.016-.1-.023-.2-.036-.3-.028-.208-.036-.432-.049-.668a8.8,8.8,0,0,1,.431-3.025c.078-.222.148-.435.234-.627.041-.1.077-.191.119-.279l.123-.252c.074-.162.159-.3.227-.424s.133-.227.189-.31l.127-.191a.364.364,0,0,1,.048-.064.351.351,0,0,1-.037.071l-.117.2c-.052.084-.114.188-.178.314s-.147.264-.218.426l-.118.252c-.041.088-.075.183-.115.279-.083.192-.151.4-.227.626a9.081,9.081,0,0,0-.428,3c.011.234.017.457.043.664.012.1.018.2.032.3l.043.275c.023.176.062.332.09.47s.057.256.084.352l.057.222a.371.371,0,0,1,.016.079" transform="translate(-444.984 -171.845)" fill="#fff"/>
            <path id="Trazado_901685" data-name="Trazado 901685" d="M629.536,242.706a.56.56,0,0,1-.158-.227,1.043,1.043,0,0,1,.271-1.232.564.564,0,0,1,.238-.139c.006.01-.088.059-.206.174a1.08,1.08,0,0,0-.26,1.179c.059.155.124.238.114.245" transform="translate(-463.411 -177.554)" fill="#fff"/>
            <path id="Trazado_901686" data-name="Trazado 901686" d="M637.6,237.045a1.18,1.18,0,1,1,.082-.267.609.609,0,0,1-.082.267" transform="translate(-469.527 -174.161)" fill="#fff"/>
            <path id="Trazado_901687" data-name="Trazado 901687" d="M628.588,224.628a1.417,1.417,0,0,1-.212-.047c-.067-.018-.149-.039-.247-.058s-.206-.047-.329-.064-.256-.043-.4-.057-.3-.027-.464-.038a6.944,6.944,0,0,0-2.114.227c-.158.045-.308.086-.445.136s-.266.095-.381.141-.217.093-.308.133-.167.077-.229.109a1.356,1.356,0,0,1-.2.091,1.354,1.354,0,0,1,.185-.114c.06-.036.135-.077.225-.12s.189-.1.306-.143.241-.1.381-.15.289-.1.448-.143a6.6,6.6,0,0,1,2.133-.229c.165.013.322.022.468.044s.281.041.4.065.232.051.329.075.179.047.245.069a1.332,1.332,0,0,1,.2.072" transform="translate(-458.976 -165.172)" fill="#fff"/>
            <path id="Trazado_901688" data-name="Trazado 901688" d="M624.217,280.476a.783.783,0,0,1-.163.014c-.105.006-.258,0-.446,0a6.409,6.409,0,0,1-2.807-.819c-.164-.094-.293-.175-.379-.236a.778.778,0,0,1-.13-.1.77.77,0,0,1,.144.077c.09.054.222.129.388.217a7.17,7.17,0,0,0,2.787.813c.187.015.338.023.443.025a.779.779,0,0,1,.163.012" transform="translate(-456.79 -205.702)" fill="#fff"/>
            <g id="Grupo_1111695" data-name="Grupo 1111695" transform="translate(12.256 41.816)" opacity="0.1">
              <g id="Grupo_1111694" data-name="Grupo 1111694">
                <g id="Grupo_1111693" data-name="Grupo 1111693" clip-path="url(#clip-path-6)">
                  <path id="Trazado_901690" data-name="Trazado 901690" d="M48.73,158.64a6.448,6.448,0,0,0-.668,9.095s3.562-2.807,3.2-4.9a9.644,9.644,0,0,0-2.528-4.194" transform="translate(-46.495 -158.64)" fill="#fff"/>
                </g>
              </g>
            </g>
            <path id="Trazado_901695" data-name="Trazado 901695" d="M52.132,188.167a.258.258,0,0,1-.055-.018l-.155-.061a2.637,2.637,0,0,1-.242-.106c-.093-.045-.2-.092-.312-.158l-.178-.1c-.061-.035-.123-.076-.187-.117-.131-.079-.262-.177-.4-.277a6.414,6.414,0,0,1-1.517-1.623c-.09-.146-.179-.283-.249-.419-.036-.067-.073-.131-.1-.195l-.086-.184c-.058-.116-.1-.227-.137-.322a2.563,2.563,0,0,1-.089-.248l-.05-.159a.259.259,0,0,1-.014-.056.255.255,0,0,1,.024.054l.059.156c.024.068.055.151.1.245s.082.2.142.318l.089.182c.031.063.069.126.106.192.071.134.16.269.251.414a6.618,6.618,0,0,0,1.507,1.612c.138.1.266.2.4.278.064.041.124.083.185.118l.175.1c.11.067.217.116.307.163s.171.084.238.113l.152.069a.279.279,0,0,1,.052.027" transform="translate(-35.608 -135.592)" fill="#fff"/>
            <path id="Trazado_901696" data-name="Trazado 901696" d="M63.272,176.336a.4.4,0,0,1-.2-.014.759.759,0,0,1-.574-.716.407.407,0,0,1,.03-.2c.008,0-.007.077,0,.2a.787.787,0,0,0,.55.685c.114.037.191.038.191.047" transform="translate(-46.024 -129.172)" fill="#fff"/>
            <path id="Trazado_901697" data-name="Trazado 901697" d="M63.186,169.968c-.01.009-.077-.053-.15-.137s-.124-.16-.114-.168.077.053.15.137.124.16.114.168" transform="translate(-46.336 -124.941)" fill="#fff"/>
            <path id="Trazado_901698" data-name="Trazado 901698" d="M53.34,161.58a1,1,0,0,1-.123.1c-.041.03-.09.067-.145.113s-.121.1-.187.157-.141.126-.215.2-.152.158-.233.246a5.052,5.052,0,0,0-.835,1.3c-.046.11-.092.214-.126.314s-.067.193-.094.28-.046.166-.065.235-.032.13-.042.179a.974.974,0,0,1-.038.153,1.026,1.026,0,0,1,.02-.157c.007-.05.018-.111.035-.182s.032-.151.059-.238.052-.183.089-.284.078-.207.123-.319a4.8,4.8,0,0,1,.843-1.313c.083-.088.159-.172.238-.245s.152-.141.221-.2.135-.108.192-.153.108-.08.151-.107a1,1,0,0,1,.134-.083" transform="translate(-37.73 -118.989)" fill="#fff"/>
            <path id="Trazado_901699" data-name="Trazado 901699" d="M81.559,192.773a.546.546,0,0,1-.067.1c-.045.063-.115.149-.206.251a4.65,4.65,0,0,1-1.744,1.217c-.128.05-.232.086-.306.107a.585.585,0,0,1-.116.029.563.563,0,0,1,.11-.046c.072-.026.175-.067.3-.121a5.213,5.213,0,0,0,1.732-1.209c.094-.1.167-.181.216-.239a.561.561,0,0,1,.081-.087" transform="translate(-58.266 -141.96)" fill="#fff"/>
          </g>
        </g>
        <g id="Grupo_1111699" data-name="Grupo 1111699">
          <g id="Grupo_1111698" data-name="Grupo 1111698" clip-path="url(#clip-path)">
            <path id="Trazado_901700" data-name="Trazado 901700" d="M200.569,420.014c0,.038-35.781.069-79.909.069-44.143,0-79.917-.031-79.917-.069s35.774-.068,79.917-.068c44.128,0,79.909.031,79.909.068" transform="translate(-30.004 -309.253)" fill="#263238"/>
          </g>
        </g>
        <g id="Grupo_1111725" data-name="Grupo 1111725">
          <g id="Grupo_1111724" data-name="Grupo 1111724" clip-path="url(#clip-path)">
            <path id="Trazado_901701" data-name="Trazado 901701" d="M583.486,89.522a15.879,15.879,0,1,1-18.171-13.194,15.879,15.879,0,0,1,18.171,13.194" transform="translate(-406.442 -56.063)" fill="#fd9826"/>
            <g id="Grupo_1111702" data-name="Grupo 1111702" transform="translate(145.481 20.265)" opacity="0.1">
              <g id="Grupo_1111701" data-name="Grupo 1111701">
                <g id="Grupo_1111700" data-name="Grupo 1111700" clip-path="url(#clip-path-9)">
                  <path id="Trazado_901702" data-name="Trazado 901702" d="M565.316,76.883a15.878,15.878,0,0,0-13.194,18.171s11.1-1.256,13.045-6.114.149-12.057.149-12.057" transform="translate(-551.923 -76.883)" fill="#fff"/>
                </g>
              </g>
            </g>
            <path id="Trazado_901703" data-name="Trazado 901703" d="M589.274,99.965a12.071,12.071,0,1,1-13.814-10.03,12.071,12.071,0,0,1,13.814,10.03" transform="translate(-416.278 -66.117)" fill="#ff725e"/>
            <g id="Grupo_1111705" data-name="Grupo 1111705" transform="translate(149.001 23.666)" opacity="0.2">
              <g id="Grupo_1111704" data-name="Grupo 1111704">
                <g id="Grupo_1111703" data-name="Grupo 1111703" clip-path="url(#clip-path-10)">
                  <path id="Trazado_901704" data-name="Trazado 901704" d="M589.274,99.965a12.071,12.071,0,1,1-13.814-10.03,12.071,12.071,0,0,1,13.814,10.03" transform="translate(-565.279 -89.784)"/>
                </g>
              </g>
            </g>
            <path id="Trazado_901705" data-name="Trazado 901705" d="M591.75,102.029a11.909,11.909,0,1,1-13.628-9.9,11.909,11.909,0,0,1,13.628,9.9" transform="translate(-418.338 -67.738)" fill="#ff725e"/>
            <g id="Grupo_1111708" data-name="Grupo 1111708" transform="translate(149.739 24.246)">
              <g id="Grupo_1111707" data-name="Grupo 1111707">
                <g id="Grupo_1111706" data-name="Grupo 1111706" clip-path="url(#clip-path-11)">
                  <path id="Trazado_901706" data-name="Trazado 901706" d="M591.75,102.029a11.909,11.909,0,1,1-13.628-9.9,11.909,11.909,0,0,1,13.628,9.9" transform="translate(-568.077 -91.984)" fill="#fed6a8"/>
                </g>
              </g>
            </g>
            <path id="Trazado_901707" data-name="Trazado 901707" d="M600.651,114.554l-.477-3.009.015,0a6.245,6.245,0,0,1,1.666.163,5.082,5.082,0,0,1,.824.354l.025-.1L603,110.8l.067-.266-.625-.478-.24.157a5.7,5.7,0,0,0-2.279-.284l-.263-1.655-.581-.333.066.415-.707.112.267,1.685c-2.29.593-3.183,2.095-2.942,3.615.329,2.072,2.188,2.327,3.907,2.468l.473,2.982a5.8,5.8,0,0,1-3.162-.66l-.432,1.612a6.609,6.609,0,0,0,3.849.658l.2,1.249-.581.1.645.3,1.222-.194-.265-1.67c2.3-.61,3.213-2.1,2.971-3.62-.329-2.072-2.216-2.308-3.934-2.448m-1.272-.119c-.905-.117-1.6-.343-1.712-1.058-.1-.656.258-1.264,1.291-1.6Zm.794-2.893ZM601.356,119l-.419-2.639c.935.112,1.645.35,1.761,1.081.1.641-.28,1.221-1.342,1.558" transform="translate(-438.695 -79.491)" fill="#ff725e"/>
            <g id="Grupo_1111711" data-name="Grupo 1111711" transform="translate(157.025 28.453)" opacity="0.3">
              <g id="Grupo_1111710" data-name="Grupo 1111710">
                <g id="Grupo_1111709" data-name="Grupo 1111709" clip-path="url(#clip-path-12)">
                  <path id="Trazado_901708" data-name="Trazado 901708" d="M600.651,114.554l-.477-3.009.015,0a6.245,6.245,0,0,1,1.666.163,5.082,5.082,0,0,1,.824.354l.025-.1L603,110.8l.067-.266-.625-.478-.24.157a5.7,5.7,0,0,0-2.279-.284l-.263-1.655-.581-.333.066.415-.707.112.267,1.685c-2.29.593-3.183,2.095-2.942,3.615.329,2.072,2.188,2.327,3.907,2.468l.473,2.982a5.8,5.8,0,0,1-3.162-.66l-.432,1.612a6.609,6.609,0,0,0,3.849.658l.2,1.249-.581.1.645.3,1.222-.194-.265-1.67c2.3-.61,3.213-2.1,2.971-3.62-.329-2.072-2.216-2.308-3.934-2.448m-1.272-.119c-.905-.117-1.6-.343-1.712-1.058-.1-.656.258-1.264,1.291-1.6Zm.794-2.893ZM601.356,119l-.419-2.639c.935.112,1.645.35,1.761,1.081.1.641-.28,1.221-1.342,1.558" transform="translate(-595.72 -107.944)"/>
                </g>
              </g>
            </g>
            <path id="Trazado_901709" data-name="Trazado 901709" d="M599.448,120.3l.265,1.67-1.222.194-.263-1.655a6.612,6.612,0,0,1-3.85-.658l.432-1.612a5.8,5.8,0,0,0,3.162.66l-.474-2.982c-1.719-.14-3.578-.4-3.907-2.468-.241-1.521.651-3.023,2.942-3.616l-.268-1.685,1.223-.194.262,1.655a6.472,6.472,0,0,1,3.172.429l-.373,1.6a6.244,6.244,0,0,0-2.543-.422l.478,3.012c1.719.14,3.606.376,3.935,2.448.241,1.521-.669,3.011-2.972,3.621m-2.236-6.188-.421-2.654c-1.033.332-1.395.94-1.291,1.6.114.716.807.942,1.712,1.058m3.32,3c-.116-.731-.826-.969-1.761-1.081l.419,2.639c1.063-.337,1.444-.917,1.342-1.558" transform="translate(-437.099 -79.499)" fill="#fd9826"/>
            <path id="Trazado_901710" data-name="Trazado 901710" d="M609.023,115.271a.6.6,0,0,1,.095-.026l.281-.065.457-.1a4.564,4.564,0,0,0,.616-.161l.759-.247a3.245,3.245,0,0,0,.424-.168l.451-.2c.154-.073.322-.129.479-.222l.491-.275c.166-.1.346-.184.515-.3l.515-.358a12.67,12.67,0,0,0,2.083-1.863l.48-.6c.08-.1.166-.2.244-.308l.219-.334c.144-.226.3-.447.441-.686l.391-.741.1-.188c.03-.064.055-.132.083-.2l.164-.4.166-.4a4.4,4.4,0,0,0,.136-.42c.082-.284.179-.568.251-.861l.177-.9a11.894,11.894,0,0,0-1.174-7.4l-.446-.8c-.16-.256-.339-.5-.506-.741a4.4,4.4,0,0,0-.259-.357l-.283-.333-.28-.329c-.047-.054-.091-.11-.14-.162l-.153-.148-.6-.584c-.2-.185-.425-.346-.632-.516l-.312-.25c-.107-.076-.219-.145-.327-.217l-.642-.421a12.675,12.675,0,0,0-2.558-1.126l-.6-.181c-.2-.057-.393-.083-.582-.124l-.552-.11c-.178-.04-.355-.041-.524-.062l-.49-.048a3.289,3.289,0,0,0-.455-.028h-.8a4.549,4.549,0,0,0-.636.037l-.466.045-.287.025a.589.589,0,0,1-.1,0,.645.645,0,0,1,.1-.016l.286-.037.465-.056a4.4,4.4,0,0,1,.637-.049l.8-.011a3.254,3.254,0,0,1,.457.024l.494.044c.17.02.348.02.527.059l.556.106c.19.04.389.065.587.121l.605.178a12.648,12.648,0,0,1,2.583,1.121l.649.421c.109.073.222.142.331.218l.315.251c.209.171.432.333.638.519l.608.587.154.149c.049.052.094.109.142.163l.283.332.286.336c.1.11.174.24.262.36.169.247.35.489.512.747l.452.806a11.968,11.968,0,0,1,1.185,7.472l-.18.906c-.074.3-.172.582-.255.869-.047.141-.078.288-.138.424l-.168.408-.166.4c-.029.066-.054.134-.084.2l-.1.19-.4.746c-.139.241-.3.463-.446.691l-.222.336c-.079.107-.166.207-.247.31l-.487.6a12.63,12.63,0,0,1-2.109,1.866l-.521.357c-.17.114-.352.2-.52.3l-.5.273c-.158.093-.328.147-.484.219l-.456.194a3.28,3.28,0,0,1-.428.164l-.766.238a4.4,4.4,0,0,1-.621.151l-.46.091-.283.054a.6.6,0,0,1-.1.014" transform="translate(-445.705 -67.202)" fill="#263238"/>
            <path id="Trazado_901711" data-name="Trazado 901711" d="M557.016,135.007a.642.642,0,0,1-.092-.11l-.246-.329a6.481,6.481,0,0,1-.369-.535c-.135-.215-.3-.453-.449-.735l-.244-.438c-.084-.153-.157-.319-.24-.487-.172-.334-.318-.709-.48-1.1a15.752,15.752,0,0,1-1.07-5.366c0-.423-.008-.824.022-1.2.012-.187.016-.369.035-.542l.057-.5c.029-.318.09-.6.132-.851s.09-.463.135-.636l.1-.4a.64.64,0,0,1,.043-.137.66.66,0,0,1-.02.142l-.08.4c-.038.174-.081.387-.114.637s-.091.532-.114.85l-.049.5c-.016.173-.018.353-.028.54-.026.373-.014.772-.011,1.191a16.288,16.288,0,0,0,1.063,5.33c.158.389.3.761.467,1.1.081.168.152.335.233.487l.236.439c.143.284.3.524.431.741s.249.4.351.545l.228.341a.672.672,0,0,1,.073.124" transform="translate(-407.842 -89.582)" fill="#fff"/>
            <path id="Trazado_901712" data-name="Trazado 901712" d="M595.721,124.793a1,1,0,0,1-.4-.289,1.867,1.867,0,0,1-.274-2.242,1,1,0,0,1,.32-.377c.015.013-.114.151-.246.416a1.934,1.934,0,0,0,.262,2.147c.192.226.351.328.339.345" transform="translate(-438.012 -89.757)" fill="#fff"/>
            <path id="Trazado_901713" data-name="Trazado 901713" d="M605.179,111.257a2.118,2.118,0,1,1-.019-.5,1.091,1.091,0,0,1,.019.5" transform="translate(-445.532 -81.209)" fill="#fff"/>
            <path id="Trazado_901714" data-name="Trazado 901714" d="M583.617,88.527a2.452,2.452,0,0,1-.386.046c-.124.009-.276.023-.451.049s-.376.043-.594.087-.459.08-.713.143-.524.133-.806.212a12.413,12.413,0,0,0-3.436,1.642c-.239.17-.47.328-.672.494s-.392.318-.56.465-.312.287-.441.407-.236.23-.321.321a2.434,2.434,0,0,1-.278.271,2.391,2.391,0,0,1,.244-.3c.081-.1.182-.211.308-.336s.263-.276.432-.423.347-.317.554-.479.432-.333.671-.507a11.8,11.8,0,0,1,3.467-1.656c.286-.077.557-.155.816-.2s.5-.1.721-.13.424-.052.6-.07.33-.027.455-.029a2.423,2.423,0,0,1,.389,0" transform="translate(-423.406 -65.188)" fill="#fff"/>
            <path id="Trazado_901715" data-name="Trazado 901715" d="M607.945,191.645a1.375,1.375,0,0,1-.267.12c-.175.072-.433.161-.757.258a11.47,11.47,0,0,1-5.228.286c-.332-.06-.6-.121-.78-.173a1.4,1.4,0,0,1-.279-.09,1.4,1.4,0,0,1,.29.045c.183.039.451.086.783.136a12.848,12.848,0,0,0,5.193-.284c.324-.086.585-.162.764-.221a1.4,1.4,0,0,1,.283-.077" transform="translate(-442.313 -141.128)" fill="#fff"/>
            <path id="Trazado_901716" data-name="Trazado 901716" d="M583.332,89.4s-.02-.085-.053-.252-.071-.418-.153-.74a16.062,16.062,0,0,0-.9-2.757,15.753,15.753,0,0,0-.956-1.865,15.34,15.34,0,0,0-1.442-2.032,16.04,16.04,0,0,0-4.684-3.814,15.808,15.808,0,0,0-7.049-1.874,16.1,16.1,0,0,0-6.115,1.044,16.885,16.885,0,0,0-2,.928,15.869,15.869,0,0,0-6.4,6.6,15.581,15.581,0,0,0-.948,2.253,14.749,14.749,0,0,0-.6,2.411,15.82,15.82,0,0,0,1.565,9.866c.187.374.4.73.614,1.087.227.347.451.694.7,1.022a15.6,15.6,0,0,0,1.6,1.85,15.869,15.869,0,0,0,8.131,4.3,16.927,16.927,0,0,0,2.185.265,16.1,16.1,0,0,0,6.138-.9,15.8,15.8,0,0,0,6.123-3.965,16.047,16.047,0,0,0,3.273-5.076,15.35,15.35,0,0,0,.741-2.378,15.707,15.707,0,0,0,.332-2.069,16.048,16.048,0,0,0,0-2.9c-.022-.332-.068-.581-.084-.751s-.028-.256-.028-.256.064.344.136,1a15.492,15.492,0,0,1-.3,4.983,15.344,15.344,0,0,1-.735,2.39,16.079,16.079,0,0,1-3.274,5.11,15.873,15.873,0,0,1-6.15,4,16.172,16.172,0,0,1-6.177.914,16.993,16.993,0,0,1-2.2-.264,15.97,15.97,0,0,1-8.192-4.323,15.683,15.683,0,0,1-1.612-1.863c-.251-.33-.476-.68-.706-1.03-.213-.359-.431-.718-.619-1.095a15.926,15.926,0,0,1-1.576-9.939,14.879,14.879,0,0,1,.6-2.429,15.7,15.7,0,0,1,.956-2.269,15.97,15.97,0,0,1,6.451-6.645,16.963,16.963,0,0,1,2.01-.932,16.171,16.171,0,0,1,6.156-1.043,15.872,15.872,0,0,1,7.086,1.9,16.074,16.074,0,0,1,4.7,3.845,15.33,15.33,0,0,1,1.439,2.045A15.5,15.5,0,0,1,583.15,88.4c.136.651.182,1,.182,1" transform="translate(-406.288 -55.938)" fill="#263238"/>
            <g id="Grupo_1111714" data-name="Grupo 1111714" transform="translate(130.593 1.938)" opacity="0.1">
              <g id="Grupo_1111713" data-name="Grupo 1111713">
                <g id="Grupo_1111712" data-name="Grupo 1111712" clip-path="url(#clip-path-13)">
                  <path id="Trazado_901718" data-name="Trazado 901718" d="M508.353,8a10.014,10.014,0,0,0-12.909,5.824s6.471,2.784,9.057.732S508.353,8,508.353,8" transform="translate(-495.444 -7.352)" fill="#fff"/>
                </g>
              </g>
            </g>
            <path id="Trazado_901726" data-name="Trazado 901726" d="M520.66,33.07a.365.365,0,0,1,.06.015l.174.052.282.087a2.882,2.882,0,0,0,.388.1l.493.1a2.1,2.1,0,0,0,.285.041l.309.033c.107.008.217.03.332.028l.354,0c.122,0,.247.008.375,0l.394-.035a7.993,7.993,0,0,0,1.724-.368l.45-.178c.076-.031.154-.059.23-.093l.224-.114c.15-.079.306-.15.456-.238l.446-.284.113-.072c.037-.026.071-.055.107-.082l.215-.168.217-.169a2.752,2.752,0,0,0,.206-.187c.134-.13.276-.255.407-.393l.378-.436a7.5,7.5,0,0,0,1.672-4.42q0-.291.006-.577c-.007-.19-.031-.378-.045-.564a2.737,2.737,0,0,0-.03-.277c-.017-.091-.034-.181-.051-.271l-.05-.268c-.009-.044-.016-.089-.026-.133l-.037-.129-.147-.508c-.054-.165-.124-.322-.185-.48l-.092-.234c-.035-.076-.075-.148-.111-.222l-.22-.431a7.98,7.98,0,0,0-1.049-1.417l-.272-.287c-.089-.092-.189-.168-.28-.25l-.268-.232a3.284,3.284,0,0,0-.267-.2l-.254-.18a2.04,2.04,0,0,0-.24-.158l-.437-.25a2.855,2.855,0,0,0-.36-.178l-.269-.121-.165-.076a.386.386,0,0,1-.055-.028.37.37,0,0,1,.058.021l.168.069.272.115a2.775,2.775,0,0,1,.364.173l.442.245a2.021,2.021,0,0,1,.243.156l.257.178c.087.064.185.12.271.2l.271.232c.091.081.193.157.283.25l.276.287a7.97,7.97,0,0,1,1.064,1.422l.224.434c.037.074.078.147.113.223l.094.236c.061.159.133.317.188.484l.149.512.038.13c.01.044.017.089.026.134l.051.27.052.273c.02.091.02.186.031.279.015.188.039.377.047.569s0,.387-.005.583a7.55,7.55,0,0,1-1.688,4.463l-.382.44c-.133.139-.276.265-.412.4a2.792,2.792,0,0,1-.208.189l-.219.171-.217.169c-.036.027-.071.057-.108.083l-.114.072-.451.285c-.151.088-.31.16-.461.239l-.227.114c-.077.034-.156.062-.232.093l-.455.177a7.962,7.962,0,0,1-1.738.362l-.4.033c-.129.009-.255,0-.378,0l-.357-.006c-.115,0-.226-.022-.333-.031l-.31-.036a2.023,2.023,0,0,1-.286-.044l-.494-.109a2.788,2.788,0,0,1-.388-.111l-.28-.094-.172-.059a.35.35,0,0,1-.057-.023" transform="translate(-383.42 -13.865)" fill="#263238"/>
            <path id="Trazado_901727" data-name="Trazado 901727" d="M494.133,27.811a.4.4,0,0,1-.016-.089c-.008-.067-.019-.152-.032-.257s-.029-.249-.034-.409-.022-.342-.016-.543c0-.1,0-.207,0-.316s.014-.224.021-.342c.011-.237.047-.488.081-.752a9.932,9.932,0,0,1,1.092-3.274c.132-.232.253-.454.387-.65.065-.1.124-.2.189-.286l.187-.255c.115-.165.237-.3.339-.425s.194-.226.273-.306l.18-.186a.4.4,0,0,1,.066-.061.414.414,0,0,1-.055.072l-.169.2c-.075.083-.166.187-.262.313s-.216.263-.328.429l-.182.256c-.063.089-.12.188-.184.287-.131.2-.249.418-.379.649a10.272,10.272,0,0,0-1.085,3.252c-.035.262-.074.511-.087.746-.008.117-.022.23-.025.34s-.006.214-.008.314c-.01.2,0,.381,0,.54s.011.3.021.408.013.191.018.258a.405.405,0,0,1,0,.091" transform="translate(-363.811 -14.478)" fill="#fff"/>
            <path id="Trazado_901728" data-name="Trazado 901728" d="M524.01,34.361a.633.633,0,0,1-.129-.284,1.177,1.177,0,0,1,.551-1.314.631.631,0,0,1,.293-.107c0,.012-.11.047-.265.151a1.22,1.22,0,0,0-.528,1.258c.034.184.089.289.077.295" transform="translate(-385.765 -24.048)" fill="#fff"/>
            <path id="Trazado_901729" data-name="Trazado 901729" d="M534.4,29.426a.689.689,0,0,1,.076-.306c.061-.162.126-.287.146-.28a.688.688,0,0,1-.076.306c-.061.162-.126.287-.146.28" transform="translate(-393.537 -21.238)" fill="#fff"/>
            <path id="Trazado_901730" data-name="Trazado 901730" d="M526.69,15.274a1.535,1.535,0,0,1-.225-.1c-.071-.034-.158-.074-.262-.114s-.219-.094-.353-.138-.277-.1-.435-.145-.329-.091-.508-.136a7.825,7.825,0,0,0-2.395-.176c-.184.018-.36.032-.523.06s-.314.051-.452.079-.26.06-.369.085-.2.052-.276.075a1.561,1.561,0,0,1-.237.062,1.513,1.513,0,0,1,.228-.089c.074-.027.165-.059.274-.088s.23-.069.368-.1.289-.065.454-.089.341-.047.526-.068a7.445,7.445,0,0,1,2.417.177c.181.047.353.09.51.144s.3.1.436.154.248.1.35.149.189.089.258.127a1.6,1.6,0,0,1,.213.122" transform="translate(-383.416 -10.584)" fill="#fff"/>
            <path id="Trazado_901731" data-name="Trazado 901731" d="M511.026,74.912a.888.888,0,0,1-.184-.018c-.118-.015-.288-.047-.5-.1a7.238,7.238,0,0,1-2.953-1.479c-.163-.137-.29-.254-.373-.339a.869.869,0,0,1-.125-.137.9.9,0,0,1,.144.115c.089.079.22.188.386.319a8.106,8.106,0,0,0,2.933,1.469c.2.055.371.094.487.118a.886.886,0,0,1,.179.046" transform="translate(-373.284 -53.643)" fill="#fff"/>
            <path id="Trazado_901732" data-name="Trazado 901732" d="M512.264,20.817s.016-.053.05-.155.092-.251.148-.453a10.093,10.093,0,0,0,.371-1.791,9.992,9.992,0,0,0,.06-1.32,9.657,9.657,0,0,0-.154-1.563,10.114,10.114,0,0,0-1.372-3.554,9.973,9.973,0,0,0-3.274-3.231,10.14,10.14,0,0,0-3.676-1.341,10.606,10.606,0,0,0-1.383-.116,10.01,10.01,0,0,0-5.571,1.614,9.855,9.855,0,0,0-1.224.937,9.337,9.337,0,0,0-1.081,1.134,9.98,9.98,0,0,0-2.229,5.893c-.014.263-.007.526,0,.787s.029.521.064.779a9.8,9.8,0,0,0,.3,1.513,10.005,10.005,0,0,0,3.108,4.9,10.682,10.682,0,0,0,1.114.828,10.145,10.145,0,0,0,3.643,1.427,9.973,9.973,0,0,0,4.593-.256,10.12,10.12,0,0,0,3.38-1.757,9.626,9.626,0,0,0,1.15-1.07,9.932,9.932,0,0,0,.829-1.029,10.1,10.1,0,0,0,.907-1.588c.092-.188.145-.339.189-.437s.065-.149.065-.149-.073.208-.24.593a9.821,9.821,0,0,1-.9,1.6,9.934,9.934,0,0,1-.827,1.037,9.636,9.636,0,0,1-1.15,1.079,10.133,10.133,0,0,1-3.391,1.774,10.012,10.012,0,0,1-4.619.267,10.2,10.2,0,0,1-3.669-1.431,10.662,10.662,0,0,1-1.122-.833,10.07,10.07,0,0,1-3.134-4.93,9.911,9.911,0,0,1-.3-1.524c-.034-.259-.048-.522-.064-.784s-.011-.528,0-.793a10.045,10.045,0,0,1,2.246-5.936,9.406,9.406,0,0,1,1.089-1.142,9.9,9.9,0,0,1,1.234-.944,10.07,10.07,0,0,1,5.611-1.622,10.713,10.713,0,0,1,1.392.118,10.212,10.212,0,0,1,3.7,1.355,10.007,10.007,0,0,1,3.287,3.256,10.137,10.137,0,0,1,1.368,3.574,9.613,9.613,0,0,1,.149,1.57,9.786,9.786,0,0,1-.451,3.116c-.129.4-.212.6-.212.6" transform="translate(-362.937 -5.32)" fill="#263238"/>
          </g>
        </g>
        <g id="Grupo_1111727" data-name="Grupo 1111727">
          <g id="Grupo_1111726" data-name="Grupo 1111726" clip-path="url(#clip-path)">
            <path id="Trazado_901733" data-name="Trazado 901733" d="M550.417,330.513s5.94,1.153,6.563-8.068,1.868-23.956,1.868-23.956H546.964l-10.322,25.334L543.3,328.8Z" transform="translate(-395.189 -219.811)" fill="#e6dcfb"/>
            <path id="Trazado_901734" data-name="Trazado 901734" d="M361.675,118.263c-2.224.1-4.284,3.79-4.555,5.809l-8.906,66.271c-.544,4.046,2.965,7.593,7.427,7.507h45.417a4.443,4.443,0,0,0,4.559-3.785l7.472-71.221a4.373,4.373,0,0,0-4.787-4.577Z" transform="translate(-256.387 -87.09)" fill="#fff"/>
            <path id="Trazado_901735" data-name="Trazado 901735" d="M556.254,389.373l-3.991,8.068h9.764a6.966,6.966,0,0,1-5.773-8.068" transform="translate(-406.693 -286.739)" fill="#fff"/>
            <path id="Trazado_901736" data-name="Trazado 901736" d="M408.995,151.994H384.276l1.085-13.241h24.563Z" transform="translate(-282.985 -102.179)" fill="#ff725e"/>
            <path id="Trazado_901737" data-name="Trazado 901737" d="M515.388,150.188c0,.033-4.426.06-9.881.06s-9.877-.027-9.875-.06,4.426-.06,9.882-.06,9.876.027,9.874.06" transform="translate(-364.989 -110.556)" fill="#263238"/>
            <path id="Trazado_901738" data-name="Trazado 901738" d="M514.8,159.2c0,.033-4.431.06-9.892.06s-9.888-.027-9.886-.06,4.431-.06,9.893-.06,9.887.027,9.885.06" transform="translate(-364.536 -117.191)" fill="#263238"/>
            <path id="Trazado_901739" data-name="Trazado 901739" d="M514.2,168.208c0,.033-4.436.06-9.9.06s-9.9-.027-9.9-.06,4.436-.06,9.9-.06,9.9.027,9.9.06" transform="translate(-364.082 -123.826)" fill="#263238"/>
            <path id="Trazado_901740" data-name="Trazado 901740" d="M505.721,177.219c0,.033-2.676.06-5.971.06s-5.967-.027-5.964-.06,2.675-.06,5.972-.06,5.966.027,5.964.06" transform="translate(-363.63 -130.462)" fill="#263238"/>
            <path id="Trazado_901741" data-name="Trazado 901741" d="M433.537,198.983c0,.033-10.986.06-24.531.06s-24.528-.027-24.525-.06,10.984-.06,24.533-.06,24.525.027,24.523.06" transform="translate(-283.136 -146.489)" fill="#263238"/>
            <path id="Trazado_901742" data-name="Trazado 901742" d="M434.616,204.535c0,.033-10.874.06-24.28.06s-24.277-.027-24.274-.06,10.872-.06,24.282-.06,24.273.027,24.272.06" transform="translate(-284.3 -150.578)" fill="#263238"/>
            <path id="Trazado_901743" data-name="Trazado 901743" d="M431.628,216.482H382.417l.231-2.825h49.145Z" transform="translate(-281.616 -157.34)" fill="#e0e0e0"/>
            <path id="Trazado_901744" data-name="Trazado 901744" d="M422.158,314.72H372.341l.232-2.825h49.751Z" transform="translate(-274.196 -229.683)" fill="#e0e0e0"/>
            <path id="Trazado_901745" data-name="Trazado 901745" d="M398.436,261.933H378.7l.231-2.825H398.64Z" transform="translate(-278.877 -190.81)" fill="#e0e0e0"/>
            <path id="Trazado_901746" data-name="Trazado 901746" d="M495.492,261.933H470.814l.2-2.825h24.645Z" transform="translate(-346.713 -190.81)" fill="#e0e0e0"/>
            <path id="Trazado_901747" data-name="Trazado 901747" d="M410.739,233.678c0,.033-6.327.06-14.125.06s-14.12-.027-14.118-.06,6.326-.06,14.127-.06,14.118.027,14.116.06" transform="translate(-281.674 -172.039)" fill="#263238"/>
            <path id="Trazado_901748" data-name="Trazado 901748" d="M430.48,242.111c0,.033-10.946.06-24.44.06s-24.437-.027-24.434-.06,10.944-.06,24.443-.06,24.434.027,24.432.06" transform="translate(-281.019 -178.249)" fill="#263238"/>
            <path id="Trazado_901749" data-name="Trazado 901749" d="M429.876,250.1c0,.033-10.957.06-24.464.06s-24.461-.027-24.459-.06,10.955-.06,24.467-.06,24.458.027,24.456.06" transform="translate(-280.538 -184.132)" fill="#263238"/>
            <path id="Trazado_901750" data-name="Trazado 901750" d="M397.309,276.2c0,.033-4.423.06-9.874.06s-9.868-.027-9.865-.06,4.423-.06,9.874-.06,9.867.027,9.864.06" transform="translate(-278.047 -203.35)" fill="#263238"/>
            <path id="Trazado_901751" data-name="Trazado 901751" d="M397.571,284.43c0,.033-4.354.06-9.719.06s-9.714-.027-9.711-.06,4.354-.06,9.72-.06,9.712.027,9.71.06" transform="translate(-278.467 -209.413)" fill="#263238"/>
            <path id="Trazado_901752" data-name="Trazado 901752" d="M396.134,292.8c0,.033-4.4.06-9.813.06s-9.808-.027-9.8-.06,4.4-.06,9.814-.06,9.806.027,9.8.06" transform="translate(-277.271 -215.574)" fill="#263238"/>
            <path id="Trazado_901753" data-name="Trazado 901753" d="M395.489,300.918c0,.033-4.4.06-9.823.06s-9.817-.027-9.815-.06,4.4-.06,9.824-.06,9.816.027,9.814.06" transform="translate(-276.781 -221.555)" fill="#263238"/>
            <path id="Trazado_901754" data-name="Trazado 901754" d="M505.368,278.129c0,.033-4.582.06-10.228.06s-10.223-.027-10.221-.06,4.581-.06,10.229-.06,10.222.027,10.22.06" transform="translate(-357.1 -204.773)" fill="#263238"/>
            <path id="Trazado_901755" data-name="Trazado 901755" d="M474.689,276.884a3.2,3.2,0,0,1,0-.4c.007-.244.019-.583.041-.987l.049.052-1.408.008.065-.059h0v.022l0,.024,0,.047-.007.094q-.007.093-.013.185c-.009.122-.018.241-.027.358-.018.23-.036.448-.052.653l-.049-.052c.41.005.755.017,1,.026a3.354,3.354,0,0,1,.4.025,2.3,2.3,0,0,1-.372.025c-.245.01-.605.021-1.04.026h-.052l0-.052.04-.653c.008-.116.016-.236.023-.358q.006-.092.012-.185l.007-.094,0-.047,0-.024V275.5h0l.065-.06,1.407.008h.053l0,.051c-.035.426-.071.779-.1,1.02a2.189,2.189,0,0,1-.051.364" transform="translate(-348.488 -202.837)" fill="#263238"/>
            <path id="Trazado_901756" data-name="Trazado 901756" d="M504.7,288.21c0,.033-4.587.06-10.241.06s-10.236-.027-10.234-.06,4.587-.06,10.242-.06,10.235.027,10.233.06" transform="translate(-356.59 -212.197)" fill="#263238"/>
            <path id="Trazado_901757" data-name="Trazado 901757" d="M473.985,286.967a3.227,3.227,0,0,1,0-.4c.007-.244.019-.583.042-.987l.049.052-1.41.008.065-.059h0v.022l0,.024,0,.047-.007.094-.013.185q-.013.183-.027.358c-.018.23-.035.449-.052.653l-.049-.052c.411,0,.756.017,1,.026a3.371,3.371,0,0,1,.4.025,2.3,2.3,0,0,1-.373.025c-.246.01-.606.021-1.041.026h-.052l0-.052.04-.653q.011-.175.023-.358.006-.092.013-.185l.006-.094,0-.047,0-.024v-.022h0l.065-.06,1.409.008h.053l0,.051c-.035.426-.071.779-.1,1.02a2.193,2.193,0,0,1-.051.364" transform="translate(-347.968 -210.262)" fill="#263238"/>
            <path id="Trazado_901758" data-name="Trazado 901758" d="M504.036,298.293c0,.033-4.593.06-10.254.06s-10.249-.027-10.247-.06,4.592-.06,10.254-.06,10.248.027,10.246.06" transform="translate(-356.081 -219.622)" fill="#263238"/>
            <path id="Trazado_901759" data-name="Trazado 901759" d="M473.282,297.05a3.11,3.11,0,0,1,0-.4c.007-.244.019-.583.042-.987l.049.052-1.411.008.065-.059h0v.022l0,.024,0,.047-.007.094-.013.185q-.014.183-.027.358c-.018.23-.036.448-.052.653l-.049-.052c.411.005.757.017,1,.026a3.391,3.391,0,0,1,.4.025,2.294,2.294,0,0,1-.373.025c-.246.01-.607.021-1.043.026h-.052l0-.052c.012-.2.026-.423.039-.653q.012-.175.024-.358c0-.061.008-.123.012-.185l.007-.094,0-.047,0-.024v-.022h0l.065-.06,1.41.008h.053l0,.051c-.034.426-.071.779-.1,1.02a2.193,2.193,0,0,1-.051.364" transform="translate(-347.449 -217.687)" fill="#263238"/>
            <path id="Trazado_901760" data-name="Trazado 901760" d="M421.555,344.507c0,.033-10.985.06-24.528.06s-24.525-.027-24.522-.06,10.983-.06,24.53-.06,24.521.027,24.519.06" transform="translate(-274.318 -253.655)" fill="#263238"/>
            <path id="Trazado_901761" data-name="Trazado 901761" d="M420.62,356.836c0,.033-11,.06-24.565.06s-24.562-.027-24.559-.06,11-.06,24.567-.06,24.559.027,24.557.06" transform="translate(-273.574 -262.734)" fill="#263238"/>
            <path id="Trazado_901762" data-name="Trazado 901762" d="M419.676,369.3c0,.033-11.018.06-24.6.06s-24.6-.027-24.6-.06,11.017-.06,24.605-.06,24.6.027,24.594.06" transform="translate(-272.823 -271.913)" fill="#263238"/>
            <path id="Trazado_901763" data-name="Trazado 901763" d="M390.685,345.32c-.034,0,.173-2.96.463-6.611s.551-6.612.585-6.612-.173,2.96-.463,6.612-.551,6.611-.585,6.611" transform="translate(-287.702 -244.561)" fill="#263238"/>
            <path id="Trazado_901764" data-name="Trazado 901764" d="M454.186,345.479c-.034,0,.141-2.827.39-6.313s.479-6.313.513-6.313-.141,2.826-.39,6.313-.478,6.313-.512,6.313" transform="translate(-334.465 -245.117)" fill="#263238"/>
            <path id="Trazado_901765" data-name="Trazado 901765" d="M520.828,346.631c-.034,0,.123-2.916.351-6.511s.439-6.512.473-6.512-.123,2.915-.351,6.512-.439,6.511-.473,6.511" transform="translate(-383.54 -245.672)" fill="#263238"/>
            <path id="Trazado_901766" data-name="Trazado 901766" d="M407.513,392.788c0,.033-8.644.06-19.3.06s-19.3-.027-19.293-.06,8.643-.06,19.3-.06,19.293.027,19.291.06" transform="translate(-271.678 -289.209)" fill="#263238"/>
            <path id="Trazado_901767" data-name="Trazado 901767" d="M406.96,399.964c0,.033-8.651.06-19.317.06s-19.313-.027-19.31-.06,8.65-.06,19.318-.06,19.31.027,19.308.06" transform="translate(-271.245 -294.494)" fill="#263238"/>
            <path id="Trazado_901768" data-name="Trazado 901768" d="M385.339,407.141c0,.033-3.943.06-8.8.06s-8.795-.027-8.792-.06,3.943-.06,8.8-.06,8.794.027,8.791.06" transform="translate(-270.813 -299.779)" fill="#263238"/>
            <path id="Trazado_901769" data-name="Trazado 901769" d="M402.351,153.805H400.2l.082-1.019h5.512l-.079,1.019h-2.154l-.43,5.465h-1.21Z" transform="translate(-294.71 -112.514)" fill="#fff"/>
            <path id="Trazado_901770" data-name="Trazado 901770" d="M423.494,157.77h-3.256l-.758,1.5h-1.248l3.428-6.484h1.188l2.45,6.484h-1.266Zm-.329-.945-1.011-2.834-1.434,2.834Z" transform="translate(-307.991 -112.514)" fill="#fff"/>
            <path id="Trazado_901771" data-name="Trazado 901771" d="M448.835,159.271l-1.588-2.464-1.93,2.464h-1.378l2.663-3.307-2.049-3.177h1.364l1.493,2.306,1.811-2.306h1.308l-2.5,3.131,2.2,3.353Z" transform="translate(-326.921 -112.514)" fill="#fff"/>
            <path id="Trazado_901772" data-name="Trazado 901772" d="M490.669,118.013,485.247,175.3a5.444,5.444,0,0,0,10.812,1.276l5.664-58.552Z" transform="translate(-357.322 -86.906)" fill="#e6dcfb"/>
            <path id="Trazado_901773" data-name="Trazado 901773" d="M281.45,32.206a3.148,3.148,0,0,0-3.128,2.8l-7.832,74.139c-.544,4.43,2.371,9.106,6.832,9.012l49.579,0,9.206-82.483a3.072,3.072,0,0,0-3-3.466Z" transform="translate(-199.144 -23.717)" fill="#fff"/>
            <path id="Trazado_901774" data-name="Trazado 901774" d="M485.362,330.86l-.676,7.053,5.518.174,1.221-.174s-6.889,0-6.064-7.053" transform="translate(-356.928 -243.649)" fill="#fff"/>
            <path id="Trazado_901775" data-name="Trazado 901775" d="M545.308,126.6s.09-8.962,7.88-8.572l-7.377-.012Z" transform="translate(-401.571 -86.906)" fill="#e0e0e0"/>
            <path id="Trazado_901776" data-name="Trazado 901776" d="M373.415,118.024s-.109,0-.323.005c-.107,0-.239,0-.4.005l-.547.039a7.6,7.6,0,0,0-1.5.316,6.269,6.269,0,0,0-1.847.96,6.808,6.808,0,0,0-1.7,1.969,9.617,9.617,0,0,0-1.072,2.912c-.054.274-.1.555-.134.842l-.083.879-.184,1.845-.4,4.011c-1.134,11.248-2.7,26.781-4.431,43.938-.062.536-.085,1.072-.2,1.605a4.824,4.824,0,0,1-.6,1.5,5.419,5.419,0,0,1-2.4,2.061,6.894,6.894,0,0,1-3.073.581h-3.076l-11.725,0-19.853-.015-13.384-.022-3.639-.013-.946-.007c-.213,0-.322-.007-.322-.007s.109,0,.322-.007l.946-.007,3.639-.013,13.384-.022,19.853-.015,11.725,0h3.076a6.757,6.757,0,0,0,3.017-.569,5.286,5.286,0,0,0,2.342-2.008,4.681,4.681,0,0,0,.58-1.461c.113-.515.138-1.058.2-1.592L365.13,131.8q.216-2.108.411-4.01.1-.95.189-1.845l.086-.882c.034-.289.082-.572.138-.848a9.662,9.662,0,0,1,1.091-2.93,6.856,6.856,0,0,1,1.725-1.979,6.276,6.276,0,0,1,1.867-.956,7.48,7.48,0,0,1,1.509-.3l.549-.032c.158-.006.291,0,.4,0,.213,0,.322.009.322.009" transform="translate(-222.084 -86.905)" fill="#263238"/>
            <path id="Trazado_901777" data-name="Trazado 901777" d="M298.979,34.3l-.453,4.4,57.851.123.425-3.807a3.076,3.076,0,0,0-3.052-3.466H302.1a3.148,3.148,0,0,0-3.123,2.75" transform="translate(-219.838 -23.231)" fill="#cdb9f8"/>
            <path id="Trazado_901778" data-name="Trazado 901778" d="M316.251,40.338a1.556,1.556,0,1,1-1.556-1.556,1.557,1.557,0,0,1,1.556,1.556" transform="translate(-230.598 -28.56)" fill="#fff"/>
            <path id="Trazado_901779" data-name="Trazado 901779" d="M333.572,40.338a1.556,1.556,0,1,1-1.556-1.556,1.557,1.557,0,0,1,1.556,1.556" transform="translate(-243.354 -28.56)" fill="#fff"/>
            <path id="Trazado_901780" data-name="Trazado 901780" d="M350.892,40.338a1.556,1.556,0,1,1-1.556-1.556,1.557,1.557,0,0,1,1.556,1.556" transform="translate(-256.108 -28.56)" fill="#fff"/>
            <path id="Trazado_901781" data-name="Trazado 901781" d="M330.841,80.946H306.122L307.208,67.7H331.77Z" transform="translate(-225.432 -49.858)" fill="#fd9826"/>
            <path id="Trazado_901782" data-name="Trazado 901782" d="M437.234,79.14c0,.033-4.426.06-9.881.06s-9.877-.027-9.875-.06,4.426-.06,9.882-.06,9.876.027,9.874.06" transform="translate(-307.436 -58.235)" fill="#263238"/>
            <path id="Trazado_901783" data-name="Trazado 901783" d="M436.641,88.15c0,.033-4.431.06-9.892.06s-9.888-.027-9.886-.06,4.431-.06,9.894-.06,9.887.027,9.885.06" transform="translate(-306.983 -64.87)" fill="#263238"/>
            <path id="Trazado_901784" data-name="Trazado 901784" d="M436.048,97.161c0,.033-4.436.06-9.9.06s-9.9-.027-9.9-.06,4.436-.06,9.9-.06,9.9.027,9.9.06" transform="translate(-306.529 -71.506)" fill="#263238"/>
            <path id="Trazado_901785" data-name="Trazado 901785" d="M427.568,106.17c0,.033-2.676.06-5.971.06s-5.967-.027-5.964-.06,2.675-.06,5.972-.06,5.966.027,5.964.06" transform="translate(-306.076 -78.141)" fill="#263238"/>
            <path id="Trazado_901786" data-name="Trazado 901786" d="M355.383,127.935c0,.033-10.986.06-24.531.06s-24.527-.027-24.525-.06,10.985-.06,24.533-.06,24.525.027,24.523.06" transform="translate(-225.583 -94.169)" fill="#263238"/>
            <path id="Trazado_901787" data-name="Trazado 901787" d="M356.463,133.486c0,.033-10.874.06-24.28.06s-24.276-.027-24.274-.06,10.872-.06,24.282-.06,24.273.027,24.271.06" transform="translate(-226.748 -98.256)" fill="#263238"/>
            <path id="Trazado_901788" data-name="Trazado 901788" d="M353.474,145.434H304.263l.231-2.825H353.64Z" transform="translate(-224.063 -105.019)" fill="#e0e0e0"/>
            <path id="Trazado_901789" data-name="Trazado 901789" d="M344,243.671H294.187l.232-2.825H344.17Z" transform="translate(-216.643 -177.362)" fill="#e0e0e0"/>
            <path id="Trazado_901790" data-name="Trazado 901790" d="M320.281,190.885H300.543l.231-2.825h19.712Z" transform="translate(-221.323 -138.49)" fill="#e0e0e0"/>
            <path id="Trazado_901791" data-name="Trazado 901791" d="M417.338,190.885H392.66l.2-2.825H417.5Z" transform="translate(-289.16 -138.49)" fill="#e0e0e0"/>
            <path id="Trazado_901792" data-name="Trazado 901792" d="M332.585,162.629c0,.033-6.327.06-14.125.06s-14.12-.027-14.118-.06,6.326-.06,14.127-.06,14.119.027,14.116.06" transform="translate(-224.121 -119.718)" fill="#263238"/>
            <path id="Trazado_901793" data-name="Trazado 901793" d="M352.326,171.063c0,.033-10.945.06-24.44.06s-24.437-.027-24.434-.06S314.4,171,327.895,171s24.434.027,24.432.06" transform="translate(-223.465 -125.929)" fill="#263238"/>
            <path id="Trazado_901794" data-name="Trazado 901794" d="M351.722,179.052c0,.033-10.957.06-24.465.06s-24.461-.027-24.458-.06,10.955-.06,24.467-.06,24.458.027,24.456.06" transform="translate(-222.985 -131.812)" fill="#263238"/>
            <path id="Trazado_901795" data-name="Trazado 901795" d="M319.155,205.149c0,.033-4.424.06-9.874.06s-9.868-.027-9.865-.06,4.423-.06,9.874-.06,9.867.027,9.864.06" transform="translate(-220.493 -151.03)" fill="#263238"/>
            <path id="Trazado_901796" data-name="Trazado 901796" d="M319.417,213.381c0,.033-4.355.06-9.719.06s-9.714-.027-9.711-.06,4.354-.06,9.72-.06,9.712.027,9.71.06" transform="translate(-220.914 -157.092)" fill="#263238"/>
            <path id="Trazado_901797" data-name="Trazado 901797" d="M317.981,221.747c0,.033-4.4.06-9.813.06s-9.808-.027-9.8-.06,4.4-.06,9.814-.06,9.806.027,9.8.06" transform="translate(-219.718 -163.253)" fill="#263238"/>
            <path id="Trazado_901798" data-name="Trazado 901798" d="M317.335,229.87c0,.033-4.4.06-9.823.06s-9.817-.027-9.815-.06,4.4-.06,9.824-.06,9.816.027,9.814.06" transform="translate(-219.227 -169.235)" fill="#263238"/>
            <path id="Trazado_901799" data-name="Trazado 901799" d="M427.214,207.08c0,.033-4.582.06-10.228.06s-10.224-.027-10.221-.06,4.581-.06,10.229-.06,10.222.027,10.22.06" transform="translate(-299.546 -152.452)" fill="#263238"/>
            <path id="Trazado_901800" data-name="Trazado 901800" d="M396.535,205.836a3.2,3.2,0,0,1,0-.4c.007-.244.019-.583.041-.987l.049.052-1.408.008.065-.059h0v.022l0,.024,0,.047-.007.094c0,.062-.009.124-.013.185q-.014.183-.027.358l-.052.653-.049-.052c.41.005.755.017,1,.026a3.362,3.362,0,0,1,.4.025,2.289,2.289,0,0,1-.372.025c-.245.01-.605.021-1.04.026h-.052l0-.052.04-.653.023-.358q.006-.092.012-.185l.007-.094,0-.047,0-.024v-.022h0l.065-.06,1.407.008h.053l0,.051c-.035.426-.071.779-.1,1.02a2.194,2.194,0,0,1-.051.364" transform="translate(-290.935 -150.516)" fill="#263238"/>
            <path id="Trazado_901801" data-name="Trazado 901801" d="M426.548,217.162c0,.033-4.587.06-10.241.06s-10.236-.027-10.234-.06,4.587-.06,10.242-.06,10.235.027,10.233.06" transform="translate(-299.037 -159.876)" fill="#263238"/>
            <path id="Trazado_901802" data-name="Trazado 901802" d="M395.831,215.919a3.23,3.23,0,0,1,0-.4c.007-.244.019-.583.042-.987l.049.052-1.41.008.065-.059h0v.022l0,.024,0,.047-.007.094q-.007.093-.013.185-.013.183-.027.358c-.018.23-.035.448-.052.653l-.049-.052c.411.005.756.017,1,.026a3.358,3.358,0,0,1,.4.025,2.305,2.305,0,0,1-.373.025c-.246.01-.606.021-1.041.026h-.052l0-.052.04-.653.023-.358c0-.061.008-.123.013-.185l.006-.094,0-.047,0-.024v-.022h0l.065-.06,1.409.008h.053l0,.051c-.035.426-.071.779-.1,1.02a2.209,2.209,0,0,1-.051.364" transform="translate(-290.415 -157.941)" fill="#263238"/>
            <path id="Trazado_901803" data-name="Trazado 901803" d="M425.882,227.245c0,.033-4.593.06-10.254.06s-10.249-.027-10.247-.06,4.592-.06,10.254-.06,10.248.027,10.246.06" transform="translate(-298.528 -167.302)" fill="#263238"/>
            <path id="Trazado_901804" data-name="Trazado 901804" d="M395.128,226a3.17,3.17,0,0,1,0-.4c.007-.244.019-.583.042-.987l.049.052-1.412.008.065-.059h0v.022l0,.024,0,.047-.007.094-.013.185-.027.358-.052.653-.049-.052c.411.005.757.017,1,.026a3.388,3.388,0,0,1,.4.025,2.3,2.3,0,0,1-.373.025c-.246.01-.607.021-1.043.026h-.052l0-.052.04-.653q.012-.175.023-.358c0-.061.008-.123.012-.185l.007-.094,0-.047,0-.024v-.022h0l.065-.06,1.41.008h.053l0,.051c-.035.426-.071.779-.1,1.02a2.2,2.2,0,0,1-.051.364" transform="translate(-289.896 -165.367)" fill="#263238"/>
            <path id="Trazado_901805" data-name="Trazado 901805" d="M340.017,274.051s0-.078.009-.227.02-.371.035-.661c.032-.584.08-1.444.142-2.564.127-2.237.312-5.5.547-9.635l.035.037-49.111.023h0l.066-.06-1.073,13.087-.056-.058,35.286.026,10.364.017,2.787.008.723,0c.163,0,.248,0,.248,0s-.08,0-.241,0l-.716,0-2.775.008-10.352.017-35.333.027h-.06l0-.058c.343-4.2.7-8.584,1.071-13.087l0-.06h.064l49.105.023h.038l0,.037c-.252,4.14-.452,7.415-.589,9.657-.07,1.116-.123,1.974-.16,2.555q-.028.431-.042.655c-.01.147-.017.219-.017.219" transform="translate(-213.957 -192.133)" fill="#263238"/>
            <path id="Trazado_901806" data-name="Trazado 901806" d="M343.4,273.459c0,.033-10.985.06-24.528.06s-24.525-.027-24.522-.06,10.983-.06,24.53-.06,24.521.027,24.519.06" transform="translate(-216.764 -201.334)" fill="#263238"/>
            <path id="Trazado_901807" data-name="Trazado 901807" d="M342.467,285.789c0,.033-11,.06-24.565.06s-24.562-.027-24.559-.06,11-.06,24.567-.06,24.559.027,24.557.06" transform="translate(-216.021 -210.414)" fill="#263238"/>
            <path id="Trazado_901808" data-name="Trazado 901808" d="M341.522,298.251c0,.033-11.019.06-24.6.06s-24.6-.027-24.6-.06,11.017-.06,24.605-.06,24.6.027,24.594.06" transform="translate(-215.269 -219.592)" fill="#263238"/>
            <path id="Trazado_901809" data-name="Trazado 901809" d="M312.532,274.272c-.034,0,.173-2.96.463-6.611s.551-6.612.585-6.612-.173,2.96-.463,6.612-.551,6.611-.585,6.611" transform="translate(-230.149 -192.24)" fill="#263238"/>
            <path id="Trazado_901810" data-name="Trazado 901810" d="M376.032,274.431c-.034,0,.14-2.827.39-6.313s.479-6.313.513-6.313-.141,2.826-.39,6.313-.478,6.313-.512,6.313" transform="translate(-276.911 -192.796)" fill="#263238"/>
            <path id="Trazado_901811" data-name="Trazado 901811" d="M442.674,275.583c-.034,0,.123-2.916.351-6.511s.439-6.512.473-6.512-.123,2.915-.351,6.512-.439,6.511-.473,6.511" transform="translate(-325.987 -193.351)" fill="#263238"/>
            <path id="Trazado_901812" data-name="Trazado 901812" d="M329.36,321.74c0,.033-8.644.06-19.3.06s-19.3-.027-19.293-.06,8.643-.06,19.3-.06,19.293.027,19.291.06" transform="translate(-214.125 -236.889)" fill="#263238"/>
            <path id="Trazado_901813" data-name="Trazado 901813" d="M328.806,328.916c0,.033-8.651.06-19.317.06s-19.313-.027-19.31-.06,8.65-.06,19.318-.06,19.31.027,19.308.06" transform="translate(-213.692 -242.173)" fill="#263238"/>
            <path id="Trazado_901814" data-name="Trazado 901814" d="M307.185,336.093c0,.033-3.943.06-8.8.06s-8.795-.027-8.792-.06,3.942-.06,8.8-.06,8.794.027,8.791.06" transform="translate(-213.26 -247.458)" fill="#263238"/>
            <path id="Trazado_901815" data-name="Trazado 901815" d="M324.2,82.758h-2.154l.082-1.019h5.512l-.079,1.019H325.4l-.43,5.465h-1.21Z" transform="translate(-237.156 -60.194)" fill="#fff"/>
            <path id="Trazado_901816" data-name="Trazado 901816" d="M345.341,86.722h-3.256l-.758,1.5H340.08l3.428-6.484H344.7l2.45,6.484h-1.266Zm-.329-.945L344,82.943l-1.434,2.834Z" transform="translate(-250.439 -60.194)" fill="#fff"/>
            <path id="Trazado_901817" data-name="Trazado 901817" d="M370.681,88.223l-1.588-2.464-1.93,2.464h-1.378l2.663-3.307L366.4,81.738h1.364l1.493,2.306,1.811-2.306h1.308l-2.5,3.131,2.2,3.353Z" transform="translate(-269.368 -60.193)" fill="#fff"/>
            <path id="Trazado_901818" data-name="Trazado 901818" d="M325.762,149.078c0,.038-3.217.069-7.185.069s-7.185-.031-7.185-.069,3.216-.069,7.185-.069,7.185.031,7.185.069" transform="translate(-229.313 -109.732)" fill="#263238"/>
            <path id="Trazado_901819" data-name="Trazado 901819" d="M277.251,117.3s-.194,0-.574-.019a2.22,2.22,0,0,1-.319-.023l-.383-.068a5.321,5.321,0,0,1-.944-.256,6.5,6.5,0,0,1-2.282-1.489,8.235,8.235,0,0,1-1.939-3.171,9.057,9.057,0,0,1-.282-1.05c-.033-.183-.085-.366-.1-.556s-.043-.382-.065-.577a5.822,5.822,0,0,1-.025-.594,4.563,4.563,0,0,1,.009-.608q.023-.307.046-.622t.066-.632l.58-5.541,1.417-13.508,3.7-35.16,1.071-10.162.553-5.249q.14-1.325.281-2.663c.05-.447.087-.891.149-1.343a3.193,3.193,0,0,1,.492-1.281,3.322,3.322,0,0,1,.988-.962,3.255,3.255,0,0,1,1.307-.457,5.519,5.519,0,0,1,.692-.026h19l22.42,0h9.351a5.259,5.259,0,0,1,1.318.093,3.09,3.09,0,0,1,2,1.619,3.234,3.234,0,0,1,.34,1.26,7.981,7.981,0,0,1-.091,1.287l-.56,5.02c-1.478,13.226-2.81,25.135-3.927,35.137l-2.66,23.687-.73,6.439c-.085.735-.149,1.3-.193,1.674s-.07.57-.07.57.017-.194.056-.571.1-.94.18-1.676c.161-1.474.4-3.646.7-6.442.618-5.6,1.512-13.69,2.616-23.692s2.431-21.914,3.9-35.141l.558-5.021a7.923,7.923,0,0,0,.09-1.265,3.1,3.1,0,0,0-.327-1.209,2.96,2.96,0,0,0-1.914-1.551,5.157,5.157,0,0,0-1.286-.088H281.684a5.4,5.4,0,0,0-.676.025,3.118,3.118,0,0,0-1.252.438,3.184,3.184,0,0,0-.947.921,3.063,3.063,0,0,0-.471,1.227c-.06.44-.1.893-.148,1.337l-.282,2.663q-.28,2.65-.555,5.248-.55,5.195-1.076,10.162c-1.4,13.232-2.667,25.148-3.728,35.157-.532,5-1.014,9.53-1.437,13.506l-.591,5.54q-.034.319-.067.632t-.047.617a4.532,4.532,0,0,0-.01.6,5.9,5.9,0,0,0,.024.59l.063.573c.018.189.07.371.1.553a8.967,8.967,0,0,0,.277,1.044,8.208,8.208,0,0,0,1.917,3.159,6.5,6.5,0,0,0,2.263,1.492,5.4,5.4,0,0,0,.939.261l.381.071a2.318,2.318,0,0,0,.317.026c.379.02.573.033.573.033" transform="translate(-199.073 -23.039)" fill="#263238"/>
            <path id="Trazado_901820" data-name="Trazado 901820" d="M570.553,298.411s.063,0,.187-.007l.55-.009,2.125-.022,7.909-.059h.05l0,.05c-.236,3.676-.539,8.2-.918,13.286-.192,2.545-.4,5.232-.653,8.025-.13,1.4-.258,2.82-.461,4.262-.041.362-.125.72-.192,1.081-.093.356-.178.716-.3,1.066a8.528,8.528,0,0,1-.968,2.017,5.04,5.04,0,0,1-1.5,1.516l.01-.006a4.376,4.376,0,0,1-1.867.785,5.852,5.852,0,0,1-2-.006,6.542,6.542,0,0,1-3.441-1.735,6.876,6.876,0,0,1-1.8-3.256,11.529,11.529,0,0,1-.227-3.568c.041-.582.114-1.151.176-1.712s.126-1.116.187-1.661q.185-1.637.358-3.173l.644-5.683.938-8.2.261-2.221q.046-.376.071-.576c.017-.13.029-.2.029-.2s0,.067-.015.2l-.058.578-.236,2.224-.9,8.2L567.9,315.3q-.17,1.535-.351,3.174-.09.819-.184,1.662c-.06.562-.133,1.131-.172,1.708a11.416,11.416,0,0,0,.228,3.528,6.749,6.749,0,0,0,1.764,3.191,6.414,6.414,0,0,0,3.37,1.7,5.734,5.734,0,0,0,1.949.005,4.247,4.247,0,0,0,1.81-.761h0l.008,0a4.945,4.945,0,0,0,1.445-1.471,8.409,8.409,0,0,0,.952-1.985c.123-.345.207-.7.3-1.053.066-.358.15-.711.191-1.071.2-1.434.331-2.859.462-4.254.255-2.792.466-5.478.662-8.022.387-5.088.7-9.608.951-13.283l.046.049-7.91.017-2.126,0-.55,0c-.124,0-.187-.006-.187-.006" transform="translate(-417.56 -219.68)" fill="#263238"/>
            <path id="Trazado_901821" data-name="Trazado 901821" d="M349.244,359.323s0,.068-.02.2-.04.329-.071.582c-.066.516-.163,1.268-.288,2.236l-.463,3.537c-.085.689-.2,1.426-.278,2.208a5.813,5.813,0,0,0,.261,2.445A6.865,6.865,0,0,0,352.1,374.6a7.766,7.766,0,0,0,3.063.7c1.091.021,2.223,0,3.379.008l15.056,0,27.357.021,8.29.022,2.254.013.586.007c.132,0,.2.007.2.007s-.068,0-.2.007l-.586.007-2.254.013-8.29.022-27.356.02-15.056-.006c-1.158-.006-2.283.009-3.384-.014a7.873,7.873,0,0,1-3.107-.715,6.962,6.962,0,0,1-3.766-4.145,5.894,5.894,0,0,1-.255-2.483c.081-.787.2-1.519.289-2.209l.487-3.533.313-2.233.085-.58c.02-.131.033-.2.033-.2" transform="translate(-256.27 -264.609)" fill="#263238"/>
            <path id="Trazado_901822" data-name="Trazado 901822" d="M574.956,165.665s0-.045.007-.132l.034-.387.144-1.485c.131-1.295.32-3.158.554-5.458l1.879-18c.373-3.515.728-6.863,1.051-9.909.163-1.522.318-2.969.463-4.324q.109-1.015.211-1.959.051-.471.1-.923c.015-.151.035-.3.045-.447s.011-.29.016-.433a3.473,3.473,0,0,0-.432-1.557,4.2,4.2,0,0,0-.9-1.136,5.564,5.564,0,0,0-2.03-1.138,7.386,7.386,0,0,0-.831-.211c-.246-.032-.455-.066-.624-.08l-.387-.022c-.087-.006-.132-.012-.132-.012s.045,0,.132,0l.389.008c.17.01.38.039.628.068a7.1,7.1,0,0,1,.84.2,5.567,5.567,0,0,1,2.065,1.132,4.267,4.267,0,0,1,.929,1.151,3.559,3.559,0,0,1,.453,1.595c0,.147-.009.3-.014.445s-.029.3-.043.448l-.1.924q-.1.943-.2,1.96l-.45,4.325c-.32,3.047-.671,6.395-1.04,9.91-.749,7.025-1.427,13.385-1.919,18-.252,2.3-.456,4.159-.6,5.453-.073.639-.13,1.137-.169,1.482l-.047.385c-.012.087-.021.131-.021.131" transform="translate(-422.789 -86.935)" fill="#263238"/>
          </g>
        </g>
        <g id="Grupo_1111735" data-name="Grupo 1111735">
          <g id="Grupo_1111734" data-name="Grupo 1111734" clip-path="url(#clip-path)">
            <path id="Trazado_901823" data-name="Trazado 901823" d="M330.02,160.114a.771.771,0,0,0-.527-.94.38.38,0,0,0-.284.018c-.322.182-.984,1.172-1.674,1.438s-1.951.486-2.41,1.386a23.178,23.178,0,0,0-.791,5.906c.066.847,1.784,7.873,1.784,7.873Z" transform="translate(-238.837 -117.204)" fill="#ffc09d"/>
            <path id="Trazado_901824" data-name="Trazado 901824" d="M326.741,154.062c-.022.056-6.962,6.741-10.011,9.675a1.316,1.316,0,0,0,.389,2.157,1.377,1.377,0,0,0,1.564-.312l9.76-10.138.434-1.846Z" transform="translate(-232.944 -113.112)" fill="#263238"/>
            <path id="Trazado_901825" data-name="Trazado 901825" d="M331.1,166.783l1.928-2.911,1.634-6.333s1.116-1.37,2.051-1.107,1.4.793,1.312,1.609c0,0,2.141-.251,2.523.356a8,8,0,0,1,.544,2.368,4.23,4.23,0,0,1,.7,1.879,3.235,3.235,0,0,0,.2,1.307,3.935,3.935,0,0,1,1.883,2.89,20.384,20.384,0,0,1-1.853,7.571,28.482,28.482,0,0,1-2.819,3.328l-.354,3.743-8.4-3.4Z" transform="translate(-243.346 -115.174)" fill="#ffc09d"/>
            <path id="Trazado_901826" data-name="Trazado 901826" d="M337.711,161.707a1.577,1.577,0,0,1-.058.331l-.208.888c-.181.749-.441,1.78-.737,2.918l-.423,1.6a3.348,3.348,0,0,1-.263.686,2.364,2.364,0,0,1-.385.514,4.483,4.483,0,0,1-.717.574,1.47,1.47,0,0,1-.289.17,1.69,1.69,0,0,1,.258-.214,5.493,5.493,0,0,0,.678-.6c.576-.535.681-1.651,1.009-2.771.3-1.137.57-2.165.776-2.908l.25-.877a1.586,1.586,0,0,1,.11-.317" transform="translate(-246.425 -119.083)" fill="#ff9b6c"/>
            <path id="Trazado_901827" data-name="Trazado 901827" d="M356.683,167.4a41.247,41.247,0,0,1,.714-4.7,41.15,41.15,0,0,1-.714,4.7" transform="translate(-262.661 -119.817)" fill="#ff9b6c"/>
            <path id="Trazado_901828" data-name="Trazado 901828" d="M359.2,189.166c-.02.008-.071-.1-.2-.243a1.24,1.24,0,0,0-.6-.377,1.27,1.27,0,0,0-.713.03c-.178.059-.279.128-.292.111s.071-.112.255-.2a1.166,1.166,0,0,1,.784-.073,1.144,1.144,0,0,1,.646.451c.115.17.135.3.119.3" transform="translate(-263.186 -138.722)" fill="#ff9b6c"/>
            <path id="Trazado_901829" data-name="Trazado 901829" d="M370.946,189.771c-.008.018-.131-.019-.326-.083a3.291,3.291,0,0,0-.764-.177,1.258,1.258,0,0,0-.738.142c-.168.1-.192.234-.212.229s-.027-.163.156-.307a1.171,1.171,0,0,1,.805-.2,2.325,2.325,0,0,1,.789.224c.188.089.3.157.29.173" transform="translate(-271.659 -139.453)" fill="#ff9b6c"/>
            <path id="Trazado_901830" data-name="Trazado 901830" d="M368.663,175.488a11.61,11.61,0,0,1,.534-2.464,11.6,11.6,0,0,1-.534,2.464" transform="translate(-271.481 -127.417)" fill="#ff9b6c"/>
            <path id="Trazado_901831" data-name="Trazado 901831" d="M345.235,188.073c-.021.006-.057-.1-.163-.243a1.056,1.056,0,0,0-.543-.379,1.086,1.086,0,0,0-.663.034c-.165.061-.255.133-.269.116s.058-.113.229-.2a1.016,1.016,0,0,1,.74-.078,1,1,0,0,1,.587.458c.1.17.1.293.082.3" transform="translate(-253.028 -137.917)" fill="#ff9b6c"/>
            <path id="Trazado_901832" data-name="Trazado 901832" d="M319.42,194.586c-.021-.012.072-.157.1-.419a1.214,1.214,0,0,0-.274-.94,1.282,1.282,0,0,0-.895-.41c-.263-.012-.424.051-.431.029a.679.679,0,0,1,.431-.126,1.276,1.276,0,0,1,1,.416,1.221,1.221,0,0,1,.266,1.047.664.664,0,0,1-.2.4" transform="translate(-234.124 -141.92)" fill="#455a64"/>
            <path id="Trazado_901833" data-name="Trazado 901833" d="M99.879,39.447c.153-2.7,1.811-4.355,4.134-5.731a8.423,8.423,0,0,1,7.774-.352c1.631.776,3.058,2.1,4.85,2.333,2.95.381,5.742-2.353,8.637-1.67a3.837,3.837,0,0,1-.281,7.524c1.932.28,3.025,2.723,2.311,4.54A5.111,5.111,0,0,1,122.611,49a10.767,10.767,0,0,1-5.515-1.734c-1.688-.98-3.264-2.158-5.025-3a8.377,8.377,0,0,0-5.672-.833c-2.553.68-4.363,3.091-5.029,5.648a19.637,19.637,0,0,0,.018,7.871,32.454,32.454,0,0,1,.652,7.879.98.98,0,0,1-.37.812c-.393.216-.842-.154-1.131-.5a38.789,38.789,0,0,1-7.29-13.206c-.891-2.8-1.383-5.527-.313-8.264s4.674-5.343,6.943-4.231" transform="translate(-67.991 -23.991)" fill="#263238"/>
            <path id="Trazado_901834" data-name="Trazado 901834" d="M110.608,62.61l4.317,26.636c.806,4.974,4.039,9.78,11.845,8.147,6.666-1.928,6.17-6.723,5.3-12.635h0s7.333-1.907,6.676-9.364c-.318-3.6-1.576-10.972-2.791-17.626a13.943,13.943,0,0,0-15.114-11.359l-.718.072c-7.7,1.232-10.961,8.462-9.516,16.128" transform="translate(-81.207 -34.124)" fill="#ffc09d"/>
            <path id="Trazado_901835" data-name="Trazado 901835" d="M165.074,186.811a18.084,18.084,0,0,1-9.985-1.892s2.924,5.54,10.288,4.122Z" transform="translate(-114.209 -136.176)" fill="#ff9b6c"/>
            <path id="Trazado_901836" data-name="Trazado 901836" d="M196.24,115.592a1.069,1.069,0,0,1-.918,1.176,1.022,1.022,0,0,1-1.193-.849,1.07,1.07,0,0,1,.917-1.177,1.023,1.023,0,0,1,1.194.849" transform="translate(-142.953 -84.488)" fill="#263238"/>
            <path id="Trazado_901837" data-name="Trazado 901837" d="M191.271,101.6c-.118.152-.983-.363-2.128-.245-1.145.1-1.925.775-2.063.647-.067-.056.042-.32.381-.623a2.932,2.932,0,0,1,1.635-.69,2.815,2.815,0,0,1,1.711.368c.379.234.523.473.465.542" transform="translate(-137.753 -74.137)" fill="#263238"/>
            <path id="Trazado_901838" data-name="Trazado 901838" d="M157.938,119.484a1.069,1.069,0,0,1-.918,1.176,1.022,1.022,0,0,1-1.193-.849,1.069,1.069,0,0,1,.917-1.177,1.023,1.023,0,0,1,1.194.849" transform="translate(-114.746 -87.354)" fill="#263238"/>
            <path id="Trazado_901839" data-name="Trazado 901839" d="M148.67,106.7c-.118.152-.985-.363-2.128-.245-1.144.1-1.926.775-2.064.647-.067-.056.041-.319.381-.622a2.931,2.931,0,0,1,1.634-.69,2.823,2.823,0,0,1,1.711.368c.378.235.523.474.465.542" transform="translate(-106.382 -77.893)" fill="#263238"/>
            <path id="Trazado_901840" data-name="Trazado 901840" d="M175.263,113.4a7.6,7.6,0,0,1,1.825-.522c.289-.06.56-.146.589-.35a1.5,1.5,0,0,0-.282-.847l-1.088-2.138a38.417,38.417,0,0,1-2.526-5.626,38.492,38.492,0,0,1,2.973,5.409q.551,1.128,1.053,2.155a1.7,1.7,0,0,1,.267,1.132.736.736,0,0,1-.438.476,1.988,1.988,0,0,1-.49.119,7.486,7.486,0,0,1-1.884.192" transform="translate(-127.968 -76.524)" fill="#263238"/>
            <path id="Trazado_901841" data-name="Trazado 901841" d="M145.392,90.307c-.082.323-1.239.29-2.565.587-1.333.27-2.376.772-2.582.511-.093-.125.066-.437.474-.783a4.576,4.576,0,0,1,3.922-.836c.513.149.786.368.752.521" transform="translate(-103.259 -66.017)" fill="#263238"/>
            <path id="Trazado_901842" data-name="Trazado 901842" d="M189.223,88.979c-.175.28-.991.09-1.94.172-.952.049-1.733.351-1.945.1-.094-.124.006-.4.332-.678a2.82,2.82,0,0,1,3.131-.217c.362.233.5.49.423.626" transform="translate(-136.46 -64.789)" fill="#263238"/>
            <path id="Trazado_901843" data-name="Trazado 901843" d="M102.943,128.483c-.133-.042-5.269-1-4.595,4.076s5.631,3.351,5.62,3.2-1.026-7.281-1.026-7.281" transform="translate(-72.38 -94.544)" fill="#ffc09d"/>
            <path id="Trazado_901844" data-name="Trazado 901844" d="M105.882,138.982c-.025-.013-.08.074-.221.162a.893.893,0,0,1-.659.1,2.207,2.207,0,0,1-1.273-1.828,2.951,2.951,0,0,1,.079-1.3,1.031,1.031,0,0,1,.575-.767.454.454,0,0,1,.554.173c.087.133.068.238.1.244s.1-.1.029-.3a.569.569,0,0,0-.242-.291.673.673,0,0,0-.506-.064,1.254,1.254,0,0,0-.819.91,3.029,3.029,0,0,0-.119,1.456,2.316,2.316,0,0,0,1.581,2.02.955.955,0,0,0,.791-.242c.14-.146.152-.263.133-.27" transform="translate(-76.099 -99.48)" fill="#ff9b6c"/>
            <path id="Trazado_901845" data-name="Trazado 901845" d="M133.061,47.113a9.768,9.768,0,0,0-3.489-3.288,16.675,16.675,0,0,0-9.968-2.473,13.578,13.578,0,0,0-9.116,4.534,14.334,14.334,0,0,0-3.195,7.591,21.051,21.051,0,0,0,.781,8.264,6.323,6.323,0,0,0,1.715,3.181,1.626,1.626,0,0,0,2.074.244,2.036,2.036,0,0,0,.474-1.234c.585-4.028,1.127-8.35-.693-11.99a11.746,11.746,0,0,1,3.183-3.576,6.079,6.079,0,0,1,4.562-1.1c2.341.471,3.96,2.538,5.927,3.892a10.811,10.811,0,0,0,9.772,1.192Z" transform="translate(-78.919 -30.413)" fill="#263238"/>
            <path id="Trazado_901846" data-name="Trazado 901846" d="M173.392,149.686a5.088,5.088,0,0,1-.38,1.4,1.716,1.716,0,0,1-1.049.942,1.539,1.539,0,0,1-1.419-.428,2.456,2.456,0,0,1-.658-1.374c-.075-.461.02-1.05.463-1.2a1.172,1.172,0,0,1,.577.007l2.589.468" transform="translate(-125.088 -109.719)" fill="#ff9b6c"/>
            <path id="Trazado_901847" data-name="Trazado 901847" d="M172.033,151.274a3.525,3.525,0,0,1-1.306.109,1.856,1.856,0,0,1-1.145-.673,1.957,1.957,0,0,1-.358-1.555,1.74,1.74,0,0,1,.133-.4c.074-.119.057-.111.163-.117s.275.047.414.07l.425.077c.554.1,1.055.184,1.476.248a4.446,4.446,0,0,0,1.381.119,4.438,4.438,0,0,0-1.321-.421c-.414-.1-.908-.218-1.457-.339l-.423-.092a4.4,4.4,0,0,0-.473-.088.57.57,0,0,0-.352.084.673.673,0,0,0-.22.263,2.077,2.077,0,0,0-.174.509,2.286,2.286,0,0,0,.472,1.894,2.087,2.087,0,0,0,1.416.726,1.968,1.968,0,0,0,1.042-.176c.224-.112.318-.216.3-.238" transform="translate(-124.272 -109.143)" fill="#263238"/>
            <path id="Trazado_901848" data-name="Trazado 901848" d="M149.689,42a1.353,1.353,0,0,1,.1.334,3.384,3.384,0,0,1,.033,1,4.684,4.684,0,0,1-1.841,3.118,6.937,6.937,0,0,1-5.257,1.078,27.193,27.193,0,0,1-6.275-2.159,11.708,11.708,0,0,0-6.344-1.122,8.012,8.012,0,0,0-4.525,2.589,10.712,10.712,0,0,0-1.934,3.028c-.325.792-.438,1.256-.471,1.247a1.36,1.36,0,0,1,.063-.341,8.567,8.567,0,0,1,.288-.953,10.167,10.167,0,0,1,1.879-3.137,8.154,8.154,0,0,1,4.647-2.734,11.847,11.847,0,0,1,6.521,1.116,27.908,27.908,0,0,0,6.2,2.164,6.762,6.762,0,0,0,5.071-.963A4.644,4.644,0,0,0,149.7,43.32,5.106,5.106,0,0,0,149.689,42" transform="translate(-90.706 -30.931)" fill="#455a64"/>
            <path id="Trazado_901849" data-name="Trazado 901849" d="M97.289,82.267a3.607,3.607,0,0,1,.2-1.4,8.727,8.727,0,0,1,1.54-3.056,8.623,8.623,0,0,1,1.321-1.361,3.193,3.193,0,0,1,1.392-.73,1.692,1.692,0,0,1,1.06.12c.228.118.313.236.3.249a1.952,1.952,0,0,0-1.308-.14,5.786,5.786,0,0,0-2.5,2.066,10.132,10.132,0,0,0-1.578,2.921c-.284.809-.367,1.342-.423,1.333" transform="translate(-71.632 -55.734)" fill="#455a64"/>
            <path id="Trazado_901850" data-name="Trazado 901850" d="M102.411,97.394A3.914,3.914,0,0,1,102.7,96a9.468,9.468,0,0,1,4.35-5.2,3.926,3.926,0,0,1,1.324-.531,13.429,13.429,0,0,1-1.2.733,10.859,10.859,0,0,0-4.25,5.082,13.381,13.381,0,0,1-.508,1.315" transform="translate(-75.409 -66.468)" fill="#455a64"/>
            <path id="Trazado_901851" data-name="Trazado 901851" d="M53.643,261.727s-5.116,28.459-4.869,31.12,1.608,6.894,4.694,7.62a13.861,13.861,0,0,0,5.927,0L55.69,265.511Z" transform="translate(-35.911 -192.739)" fill="#fed401"/>
            <path id="Trazado_901852" data-name="Trazado 901852" d="M114.924,222.333l-6.456-25.547-4.935-1.358-1.956-2.558s-3.061-2.3-11.2-2.4c-2.5-.031-7.809.989-9.788,2.473l-.518,3.089s-3.091,2.1-5.474,3.932c-6.1,4.681-6.845,7.293-7.5,9.043s3.93,42.018,3.93,42.018l44-.067Z" transform="translate(-49.358 -140.262)" fill="#fed401"/>
            <g id="Grupo_1111730" data-name="Grupo 1111730" transform="translate(17.948 79.874)" opacity="0.3">
              <g id="Grupo_1111729" data-name="Grupo 1111729">
                <g id="Grupo_1111728" data-name="Grupo 1111728" clip-path="url(#clip-path-16)">
                  <path id="Trazado_901853" data-name="Trazado 901853" d="M71.432,331.18c-3.783-8.677-3.572-18.731-3.059-28.152Z" transform="translate(-68.093 -303.028)"/>
                </g>
              </g>
            </g>
            <path id="Trazado_901854" data-name="Trazado 901854" d="M102.342,267.375a1.584,1.584,0,0,1-.277.014l-.794.005c-.689,0-1.686.007-2.917.035-2.462.054-5.862.231-9.593.664s-7.08,1.047-9.486,1.56c-1.2.255-2.175.475-2.844.636l-.773.177a1.565,1.565,0,0,1-.273.05,1.521,1.521,0,0,1,.263-.086l.764-.211c.664-.183,1.632-.422,2.833-.694A91.569,91.569,0,0,1,98.352,267.3c1.233-.011,2.231,0,2.92.024l.793.03a1.529,1.529,0,0,1,.276.023" transform="translate(-55.515 -196.839)" fill="#263238"/>
            <path id="Trazado_901855" data-name="Trazado 901855" d="M224.719,348.315c-.045,0-.182-2-.182-10.415s.036-15.239.081-15.239.081,6.821.081,15.239.064,10.415.019,10.415" transform="translate(-165.352 -237.611)" fill="#263238"/>
            <path id="Trazado_901856" data-name="Trazado 901856" d="M209.594,214.758h0c2.845.825,5.554,3.637,7.319,5.973,4.9,6.489,12.585,15.433,12.585,15.433l8.24-17.694,9.994,3.8-1.659,5.068c.169,2.878-3.295,16.848-4.2,19.792-2.724,8.864-8.859,13.04-17.591,8.521-6.784-3.511-19.933-17.753-19.933-17.753" transform="translate(-150.484 -158.15)" fill="#fed401"/>
            <path id="Trazado_901857" data-name="Trazado 901857" d="M204.347,237.9s.084.084.243.251l.707.742c.622.652,1.544,1.609,2.746,2.827s2.685,2.7,4.444,4.373,3.789,3.561,6.145,5.51c.6.475,1.19.989,1.838,1.459l.969.729c.333.236.678.462,1.022.7l.521.351.549.317c.37.208.731.442,1.126.62a17.211,17.211,0,0,0,2.443,1,11.409,11.409,0,0,0,5.468.51,9.151,9.151,0,0,0,2.729-.932,10.364,10.364,0,0,0,2.37-1.784,15.855,15.855,0,0,0,3.318-5.177,45.062,45.062,0,0,0,1.876-6.187q.81-3.2,1.56-6.529c.493-2.218.976-4.475,1.343-6.777.055-.429.132-.855.168-1.283l.06-.64.009-.637v-.016l0-.009,1.659-5.068.041.085-9.993-3.8.083-.034-8.248,17.69-.037.08-.057-.067c-2.894-3.391-5.494-6.526-7.761-9.326-1.135-1.4-2.18-2.719-3.137-3.945q-.717-.92-1.362-1.772c-.43-.568-.84-1.106-1.259-1.595a17.946,17.946,0,0,0-4.431-3.94,9.452,9.452,0,0,0-1.4-.688c-.335-.115-.506-.178-.506-.178s.175.052.512.162a9.081,9.081,0,0,1,1.414.675,17.8,17.8,0,0,1,4.464,3.927c.42.488.835,1.027,1.266,1.593s.888,1.155,1.368,1.767c.96,1.223,2.009,2.539,3.146,3.936,2.273,2.793,4.878,5.924,7.776,9.31l-.094.013,8.232-17.7.026-.056.057.022,9.994,3.8.061.023-.02.062-1.658,5.068,0-.025-.009.652-.06.647c-.037.432-.114.858-.169,1.289-.369,2.309-.852,4.566-1.346,6.786s-1.022,4.4-1.563,6.532a45.094,45.094,0,0,1-1.885,6.2,15.978,15.978,0,0,1-3.35,5.216,10.482,10.482,0,0,1-2.4,1.8,9.273,9.273,0,0,1-2.767.942,11.521,11.521,0,0,1-5.524-.521,17.291,17.291,0,0,1-2.456-1.012c-.4-.18-.76-.416-1.132-.626l-.551-.32-.522-.353c-.345-.237-.691-.465-1.025-.7l-.97-.732c-.648-.472-1.24-.988-1.839-1.465-2.355-1.957-4.379-3.85-6.136-5.53s-3.234-3.166-4.429-4.391-2.112-2.188-2.728-2.845l-.7-.751c-.156-.17-.233-.26-.233-.26" transform="translate(-150.483 -158.15)" fill="#263238"/>
            <path id="Trazado_901858" data-name="Trazado 901858" d="M139.972,206.906a.208.208,0,0,1-.061,0l-.178-.024c-.156-.023-.386-.06-.681-.113s-.653-.13-1.072-.189-.9-.093-1.435-.122c-2.138-.108-5.089-.321-8.353-.351-1.632-.014-3.187.032-4.6.138a35.517,35.517,0,0,0-3.723.468c-.524.1-1,.186-1.412.295s-.771.176-1.056.267l-.663.187-.173.046a.222.222,0,0,1-.061.011,21.411,21.411,0,0,1,3.346-.9,33.592,33.592,0,0,1,3.731-.5c1.413-.113,2.972-.163,4.607-.149,3.27.03,6.222.26,8.358.392.535.035,1.019.076,1.441.143s.778.154,1.072.213l.675.138.176.037a.207.207,0,0,1,.059.017" transform="translate(-85.798 -151.674)" fill="#263238"/>
            <path id="Trazado_901859" data-name="Trazado 901859" d="M192.328,217.814a.777.777,0,0,1-.164.035c-.108.021-.268.036-.472.08a10.411,10.411,0,0,0-1.69.467,10.138,10.138,0,0,0-2.3,1.194,9.8,9.8,0,0,0-2.283,2.19,9.625,9.625,0,0,0-1.434,2.819,9.865,9.865,0,0,0-.365,4.3c.058.411.105.636.092.639a.782.782,0,0,1-.046-.161c-.022-.107-.069-.263-.1-.47a8.787,8.787,0,0,1-.127-1.762,9.592,9.592,0,0,1,1.869-5.45,9.724,9.724,0,0,1,2.321-2.213,9.894,9.894,0,0,1,2.339-1.181,9.345,9.345,0,0,1,1.714-.428c.205-.036.368-.042.477-.055a.751.751,0,0,1,.167-.008" transform="translate(-135.086 -160.399)" fill="#263238"/>
            <g id="Grupo_1111733" data-name="Grupo 1111733" transform="translate(53.862 79.748)" opacity="0.3">
              <g id="Grupo_1111732" data-name="Grupo 1111732">
                <g id="Grupo_1111731" data-name="Grupo 1111731" clip-path="url(#clip-path-17)">
                  <path id="Trazado_901860" data-name="Trazado 901860" d="M204.342,302.549c2.353,6.967,11.747,17.381,11.747,17.381v-5.792c-.133.155-11.924-11.383-11.747-11.589" transform="translate(-204.34 -302.549)"/>
                </g>
              </g>
            </g>
            <path id="Trazado_901861" data-name="Trazado 901861" d="M302.758,304.576a1.605,1.605,0,0,1-.02-.339c0-.217-.015-.532-.045-.918s-.085-.845-.172-1.35a14.534,14.534,0,0,0-.4-1.617,13.687,13.687,0,0,0-1.224-2.763c-.2-.335-.363-.6-.485-.781a1.609,1.609,0,0,1-.175-.29,1.591,1.591,0,0,1,.219.259,8.884,8.884,0,0,1,.525.761,12.152,12.152,0,0,1,1.272,2.772,13.212,13.212,0,0,1,.39,1.637,11.72,11.72,0,0,1,.144,1.366,8.754,8.754,0,0,1,0,.925,1.589,1.589,0,0,1-.033.338" transform="translate(-221.099 -218.359)" fill="#263238"/>
            <path id="Trazado_901862" data-name="Trazado 901862" d="M322.266,247.458c.013-.036,2.388.791,5.3,1.847s5.271,1.94,5.258,1.976-2.387-.791-5.3-1.847-5.27-1.94-5.257-1.976" transform="translate(-237.32 -182.23)" fill="#263238"/>
            <path id="Trazado_901863" data-name="Trazado 901863" d="M332.24,239.056a.668.668,0,1,1-.668-.654.661.661,0,0,1,.668.654" transform="translate(-243.681 -175.562)" fill="#e0e0e0"/>
            <path id="Trazado_901864" data-name="Trazado 901864" d="M332.048,238.891c-.012,0-.015-.059-.047-.154a.65.65,0,0,0-.248-.328.634.634,0,0,0-.577-.073.588.588,0,0,0,0,1.111.634.634,0,0,0,.577-.073.65.65,0,0,0,.248-.328c.032-.1.036-.155.047-.154s.023.059,0,.168a.651.651,0,0,1-.242.393.714.714,0,1,1,0-1.122.651.651,0,0,1,.242.393c.018.109,0,.168,0,.168" transform="translate(-243.49 -175.397)" fill="#263238"/>
            <path id="Trazado_901865" data-name="Trazado 901865" d="M72.144,321.9a.447.447,0,0,1-.016-.09l-.034-.266-.118-1.024-.418-3.767c-.355-3.188-.845-7.579-1.385-12.428s-.962-9.258-1.234-12.447c-.136-1.595-.239-2.886-.3-3.779-.03-.44-.053-.785-.07-1.028-.006-.112-.011-.2-.015-.268a.465.465,0,0,1,0-.091.458.458,0,0,1,.015.09l.028.266.1,1.026.344,3.774c.3,3.187.742,7.586,1.273,12.441s1.018,9.249,1.345,12.433c.158,1.586.285,2.873.375,3.772l.092,1.027c.009.111.015.2.021.267a.447.447,0,0,1,0,.092" transform="translate(-50.482 -211.134)" fill="#263238"/>
            <path id="Trazado_901866" data-name="Trazado 901866" d="M68.176,282.39a.477.477,0,0,1,.014.094c.007.069.016.16.027.275.022.251.052.606.091,1.06.072.921.192,2.253.338,3.9.3,3.29.746,7.832,1.272,12.845L71.3,313.4l.424,3.889c.047.453.084.808.11,1.058.011.115.019.207.026.276a.5.5,0,0,1,0,.094.473.473,0,0,1-.018-.093l-.039-.274-.136-1.055-.468-3.885c-.385-3.282-.9-7.818-1.424-12.833s-.96-9.558-1.233-12.851c-.133-1.647-.239-2.98-.294-3.9-.028-.455-.05-.811-.065-1.062-.006-.116-.01-.207-.013-.277a.477.477,0,0,1,0-.094" transform="translate(-50.204 -207.955)" fill="#263238"/>
          </g>
        </g>
      </g>
    </g>
  </g>
</svg>
