<svg xmlns="http://www.w3.org/2000/svg" xmlns:xlink="http://www.w3.org/1999/xlink" width="147" height="147" viewBox="0 0 147 147">
  <defs>
    <clipPath id="clip-path">
      <rect id="Rectángulo_404866" data-name="Rectángulo 404866" width="147" height="147" fill="none"/>
    </clipPath>
  </defs>
  <g id="Grupo_1111641" data-name="Grupo 1111641" transform="translate(0.297 0.297)">
    <g id="Grupo_1111640" data-name="Grupo 1111640" transform="translate(-0.297 -0.297)" clip-path="url(#clip-path)">
      <path id="Trazado_901506" data-name="Trazado 901506" d="M146.87,73.435A73.435,73.435,0,1,1,73.435,0,73.435,73.435,0,0,1,146.87,73.435" transform="translate(0.181 0.181)" fill="#f2e6dc"/>
      <path id="Trazado_901507" data-name="Trazado 901507" d="M604.312,563.317q-.586,0-1.195-.023a.081.081,0,0,1-.077-.083.08.08,0,0,1,.083-.077c7.052.269,11.714-1.746,13.857-5.99,2.265-4.485.575-9.856-1.241-13.572a38.508,38.508,0,0,0-8.922-11.6A58.37,58.37,0,0,0,587.23,520.86a.08.08,0,1,1,.055-.151,58.517,58.517,0,0,1,19.636,11.14,38.682,38.682,0,0,1,8.962,11.651c1.832,3.749,3.535,9.171,1.24,13.715a10.122,10.122,0,0,1-5.4,4.844,19.591,19.591,0,0,1-7.414,1.258" transform="translate(-539.872 -478.734)" fill="#776e42"/>
      <path id="Trazado_901508" data-name="Trazado 901508" d="M82.614,442a33.925,33.925,0,1,1-33.729-34.12A33.925,33.925,0,0,1,82.614,442" transform="translate(-13.399 -374.967)" fill="#e6d0be"/>
      <path id="Trazado_901509" data-name="Trazado 901509" d="M109,474.894h-.2a34,34,0,1,1,.2,0m-.01-67.85a33.845,33.845,0,0,0-.192,67.689h.2a33.882,33.882,0,0,0,33.841-33.65h0a33.883,33.883,0,0,0-33.649-34.039h-.2" transform="translate(-68.792 -374.047)" fill="#fff"/>
      <path id="Trazado_901510" data-name="Trazado 901510" d="M192.143,572.228a77.858,77.858,0,0,1-26.762-4.584.08.08,0,0,1,.056-.15,80.279,80.279,0,0,0,53.235.066.08.08,0,1,1,.055.151,77.958,77.958,0,0,1-26.584,4.518" transform="translate(-151.879 -521.763)" fill="#fff"/>
      <path id="Trazado_901511" data-name="Trazado 901511" d="M161.539,1032.193a.08.08,0,0,1-.028-.155,80.339,80.339,0,0,1,54.02-.048.08.08,0,1,1-.056.15,80.18,80.18,0,0,0-53.907.048.082.082,0,0,1-.028.005" transform="translate(-148.32 -944.706)" fill="#fff"/>
      <path id="Trazado_901512" data-name="Trazado 901512" d="M295.93,474.894a10.846,10.846,0,0,1-6.907-2.684,22.873,22.873,0,0,1-5.619-7.3c-3.333-6.419-5.168-14.951-5.168-24.026s1.835-17.607,5.168-24.026a22.874,22.874,0,0,1,5.619-7.3,10.228,10.228,0,0,1,13.813,0,22.872,22.872,0,0,1,5.619,7.3c3.333,6.419,5.168,14.951,5.168,24.026s-1.835,17.607-5.168,24.026a22.871,22.871,0,0,1-5.619,7.3,10.846,10.846,0,0,1-6.907,2.684m0-67.85c-9.668,0-17.533,15.183-17.533,33.845s7.865,33.845,17.533,33.845,17.533-15.183,17.533-33.845-7.865-33.845-17.533-33.845" transform="translate(-255.725 -374.047)" fill="#fff"/>
      <path id="Trazado_901513" data-name="Trazado 901513" d="M497.779,475.676a.08.08,0,0,1-.08-.08V407.863a.08.08,0,1,1,.161,0V475.6a.08.08,0,0,1-.08.08" transform="translate(-457.575 -374.875)" fill="#fff"/>
      <path id="Trazado_901514" data-name="Trazado 901514" d="M142.7,824.415h0l-67.878-.529a.08.08,0,0,1,0-.161h0l67.878.529a.08.08,0,0,1,0,.161" transform="translate(-68.561 -757.435)" fill="#fff"/>
      <path id="Trazado_901515" data-name="Trazado 901515" d="M101.512,601.552a8.17,8.17,0,0,0-8.17,8.17c0,4.512,8.17,14.469,8.17,14.469s8.17-9.957,8.17-14.469a8.17,8.17,0,0,0-8.17-8.17" transform="translate(-85.67 -553.093)" fill="#d87355"/>
      <path id="Trazado_901516" data-name="Trazado 901516" d="M125.485,639.285a5.59,5.59,0,1,0,5.59-5.59,5.59,5.59,0,0,0-5.59,5.59" transform="translate(-115.233 -582.656)" fill="#fff"/>
      <rect id="Rectángulo_404846" data-name="Rectángulo 404846" width="80.094" height="107.919" transform="translate(55.875 8.054)" fill="#fff"/>
      <path id="Trazado_901517" data-name="Trazado 901517" d="M731.873,171.868H651.779a.08.08,0,0,1-.08-.08V63.869a.08.08,0,0,1,.08-.08h80.094a.08.08,0,0,1,.08.08V171.788a.08.08,0,0,1-.08.08m-80.014-.161h79.933V63.95H651.859Z" transform="translate(-599.215 -58.489)" fill="#363e44"/>
      <path id="Trazado_901518" data-name="Trazado 901518" d="M1302.027,250.71H1277.77a.08.08,0,1,1,0-.161h24.257a.08.08,0,0,1,0,.161" transform="translate(-1174.966 -230.26)" fill="#8b865c"/>
      <path id="Trazado_901519" data-name="Trazado 901519" d="M1301.746,306.781h-24.282a.08.08,0,1,1,0-.161h24.282a.08.08,0,0,1,0,.161" transform="translate(-1174.685 -281.831)" fill="#8b865c"/>
      <path id="Trazado_901520" data-name="Trazado 901520" d="M1301.746,362.851h-24.282a.08.08,0,1,1,0-.161h24.282a.08.08,0,0,1,0,.161" transform="translate(-1174.685 -333.401)" fill="#8b865c"/>
      <rect id="Rectángulo_404847" data-name="Rectángulo 404847" width="44.741" height="17.998" transform="translate(63.766 37.061)" fill="#f2e6dc"/>
      <rect id="Rectángulo_404848" data-name="Rectángulo 404848" width="16.585" height="17.998" transform="translate(111.096 37.061)" fill="#f2e6dc"/>
      <rect id="Rectángulo_404849" data-name="Rectángulo 404849" width="45.198" height="4.628" transform="translate(63.847 73.617)" fill="#f2e6dc"/>
      <rect id="Rectángulo_404850" data-name="Rectángulo 404850" width="45.198" height="4.628" transform="translate(63.847 80.426)" fill="#f2e6dc"/>
      <rect id="Rectángulo_404851" data-name="Rectángulo 404851" width="45.198" height="4.628" transform="translate(63.847 87.236)" fill="#f2e6dc"/>
      <rect id="Rectángulo_404852" data-name="Rectángulo 404852" width="45.198" height="4.628" transform="translate(63.847 94.046)" fill="#f2e6dc"/>
      <rect id="Rectángulo_404853" data-name="Rectángulo 404853" width="45.198" height="4.628" transform="translate(63.847 100.855)" fill="#f2e6dc"/>
      <rect id="Rectángulo_404854" data-name="Rectángulo 404854" width="16.755" height="31.867" transform="translate(110.926 73.617)" fill="#f2e6dc"/>
      <rect id="Rectángulo_404855" data-name="Rectángulo 404855" width="63.915" height="4.267" transform="translate(63.847 58.536)" fill="#f2e6dc"/>
      <rect id="Rectángulo_404856" data-name="Rectángulo 404856" width="63.915" height="4.267" transform="translate(63.847 65.695)" fill="#f2e6dc"/>
      <path id="Trazado_901521" data-name="Trazado 901521" d="M806.473,246.848h-3.3v9.124h-1.827v-9.124h-3.275v-1.487h8.406Z" transform="translate(-733.836 -225.489)" fill="#d87355"/>
      <path id="Trazado_901522" data-name="Trazado 901522" d="M904.331,253.5h-4.1l-.859,2.47h-1.914l4-10.61h1.652l4.01,10.61H905.2Zm-3.588-1.487h3.071l-1.536-4.4Z" transform="translate(-825.246 -225.488)" fill="#d87355"/>
      <path id="Trazado_901523" data-name="Trazado 901523" d="M1027.563,249.194l2.227-3.833h2.125l-3.2,5.261,3.275,5.349h-2.147l-2.278-3.891-2.285,3.891h-2.14l3.282-5.349-3.21-5.261h2.125Z" transform="translate(-940.844 -225.488)" fill="#d87355"/>
      <path id="Trazado_901524" data-name="Trazado 901524" d="M952.138,1519.442l7.04-26.872,35.7,1.415,1.585,25.457H975.914l-.353-6.714-4.979,6.714Z" transform="translate(-875.542 -1372.6)" fill="#363e44"/>
      <path id="Trazado_901525" data-name="Trazado 901525" d="M1243.065,1684.132a.079.079,0,0,1-.043-.013.08.08,0,0,1-.024-.111l3.317-5.128a.08.08,0,0,1,.135.087l-3.317,5.128a.08.08,0,0,1-.068.037" transform="translate(-1143.046 -1543.925)" fill="#e6d0be"/>
      <path id="Trazado_901526" data-name="Trazado 901526" d="M1161.833,750.9a1.278,1.278,0,0,1-.538-.116c-.876-.4-1.118-1.755-.54-3.015a3.147,3.147,0,0,1,1.194-1.4,1.531,1.531,0,0,1,1.444-.159c.876.4,1.118,1.755.54,3.015a3.145,3.145,0,0,1-1.194,1.4,1.775,1.775,0,0,1-.906.275m-.932-3.064c-.542,1.18-.335,2.437.461,2.8a1.377,1.377,0,0,0,1.294-.151,2.983,2.983,0,0,0,1.13-1.325c.542-1.179.335-2.436-.461-2.8a1.376,1.376,0,0,0-1.294.151,2.983,2.983,0,0,0-1.13,1.325" transform="translate(-1067.127 -686.043)" fill="#363e44"/>
      <path id="Trazado_901527" data-name="Trazado 901527" d="M1169.816,700.109c1.58-3.451,2.805-5.323,4.978-6.119,2.92-1.07,5.786.805,6.083,1.005a6.738,6.738,0,0,1,3.192,5.05,9,9,0,0,1-4.021,8.151l-.621,7.114a4.149,4.149,0,0,1-4.494,3.774l-.517-.045a4.15,4.15,0,0,1-3.772-4.5l.415-4.752c-1.437-.248-2.546-.768-2.941-1.542-.708-1.386-.163-4.075,1.7-8.139" transform="translate(-1073.913 -637.81)" fill="#9e6c5a"/>
      <path id="Trazado_901528" data-name="Trazado 901528" d="M1171.032,770.778a.082.082,0,0,1-.024,0l-6.568-2.028a.08.08,0,0,1,.047-.154l6.568,2.028a.08.08,0,0,1-.024.157" transform="translate(-1070.754 -706.724)" fill="#363e44"/>
      <path id="Trazado_901529" data-name="Trazado 901529" d="M1206.577,872.41h-.009a.08.08,0,0,1-.071-.089l.2-1.736a.08.08,0,1,1,.159.018l-.2,1.736a.08.08,0,0,1-.08.071" transform="translate(-1109.487 -800.468)" fill="#363e44"/>
      <path id="Trazado_901530" data-name="Trazado 901530" d="M1247.824,814.829a.08.08,0,0,1-.054-.139c.429-.393.7-.649.89-.836.1-.092.175-.168.248-.236a.08.08,0,1,1,.109.117c-.073.068-.151.143-.247.234-.195.187-.462.443-.892.838a.08.08,0,0,1-.054.021" transform="translate(-1147.424 -748.119)" fill="#363e44"/>
      <path id="Trazado_901531" data-name="Trazado 901531" d="M1229.5,682.626c2.616-2.166,8.615-.262,10.709,3.077,2.831,4.515.684,10.794-3.183,12.659a5.808,5.808,0,0,1-5.532.137c-1.224-.7-.808-2.562-.7-3.008a2.46,2.46,0,0,0,2.241-2.224,2.42,2.42,0,0,0-1.737-2.479,2.321,2.321,0,0,0-1.5.148c-1.716-3.526-2.162-6.766-.3-8.31" transform="translate(-1129.529 -626.812)" fill="#363e44"/>
      <path id="Trazado_901532" data-name="Trazado 901532" d="M1455.884,935.461c6.748-2.562,26.674-8.765,23.979-17.106-2.229-6.9-21.368,0-28.234,2.107l4.255,15" transform="translate(-1334.945 -841.716)" fill="#9e6c5a"/>
      <path id="Trazado_901533" data-name="Trazado 901533" d="M1542.015,605.594h0c-6.049-11.636-10.564-19.776-11.859-22.343a5.3,5.3,0,0,1-.513-1.42c-.5-2.51,1.256-3.8,1.932-6.68.767-3.269-.651-5.544.114-5.932.532-.27,1.308.438,2.237,2.34h0c-.54-1.527-1.182-3.629-.338-3.925.993-.29,2.037,2.092,2.6,3.563-.679-1.781-.508-2.932,0-2.979.806-.075,1.654,1.183,2.46,3.572h0c-.1-1.805.149-2.257.612-2.189.845.124,1.471,2.1,1.757,3.933a10.707,10.707,0,0,1-.463,4.846h0c5.081,7.71,6.413,9.518,10.381,15.834,4.508,7.177-2.42,14.448-8.922,11.378" transform="translate(-1406.616 -521.875)" fill="#9e6c5a"/>
      <path id="Trazado_901534" data-name="Trazado 901534" d="M1512.131,658.713c-1.717-2.843-2.939-3.5-3.381-3.218-.743.482-.27,3.51,1.717,7.982.583-1.286,1.081-3.478,1.664-4.764" transform="translate(-1387.177 -602.65)" fill="#9e6c5a"/>
      <path id="Trazado_901535" data-name="Trazado 901535" d="M1582.508,619.9h-.015a.08.08,0,0,1-.063-.094,6.48,6.48,0,0,0-.1-2.908.08.08,0,1,1,.155-.041,6.641,6.641,0,0,1,.107,2.98.08.08,0,0,1-.079.065" transform="translate(-1455.149 -567.117)" fill="#363e44"/>
      <path id="Trazado_901536" data-name="Trazado 901536" d="M1609.477,612.56h-.015a.08.08,0,0,1-.064-.094,6.478,6.478,0,0,0-.1-2.908.08.08,0,0,1,.155-.042,6.641,6.641,0,0,1,.107,2.98.08.08,0,0,1-.079.065" transform="translate(-1479.954 -560.362)" fill="#363e44"/>
      <path id="Trazado_901537" data-name="Trazado 901537" d="M1642.019,622.424H1642a.08.08,0,0,1-.064-.094,6.475,6.475,0,0,0-.1-2.908.08.08,0,1,1,.155-.041,6.641,6.641,0,0,1,.107,2.98.08.08,0,0,1-.079.065" transform="translate(-1509.884 -569.434)" fill="#363e44"/>
      <path id="Trazado_901538" data-name="Trazado 901538" d="M646.114,1028.648c-14.781,3.145-26.388,6.332-25.12,11.076,2.683,10.043,13.834,4.881,23.745,4.793.373-4.073,1.03-10.932,1.375-15.869" transform="translate(-570.887 -945.911)" fill="#9e6c5a"/>
      <path id="Trazado_901539" data-name="Trazado 901539" d="M633.309,799.776s3.732-10.044,5.335-15.507c1.683-5.738,3.334-14.455,2.112-14.67-.7-.123-1.167,1.02-2.222,4.156a1.458,1.458,0,0,0-1.191-.774,1.4,1.4,0,0,0-1.319.831c-.03-.075-.374-.871-1.03-.991a1.542,1.542,0,0,0-1.621.7,1.6,1.6,0,0,0-1.077-.925,1.435,1.435,0,0,0-1.589.936c-.338,1.218-1.272,4.857-1.943,6.572-1.32,3.375-7.614,14.733-8.232,20.116,4.571-1.037,12.778-.444,12.778-.444" transform="translate(-570.549 -707.644)" fill="#9e6c5a"/>
      <path id="Trazado_901540" data-name="Trazado 901540" d="M751.049,836.888h-.012l-1.057-.154a.08.08,0,0,1,.023-.159l1.057.154a.08.08,0,0,1-.011.16" transform="translate(-689.546 -769.252)" fill="#363e44"/>
      <path id="Trazado_901541" data-name="Trazado 901541" d="M782.864,842.07h-.009l-1.2-.136a.08.08,0,0,1,.018-.159l1.2.136a.08.08,0,0,1-.009.16" transform="translate(-718.676 -774.035)" fill="#363e44"/>
      <path id="Trazado_901542" data-name="Trazado 901542" d="M816.411,845.269H816.4l-.554-.078-.552-.078a.08.08,0,1,1,.023-.159l.551.078c.179.025.358.049.556.079a.08.08,0,0,1-.012.16" transform="translate(-749.616 -776.958)" fill="#363e44"/>
      <path id="Trazado_901543" data-name="Trazado 901543" d="M843.733,850.621l-.017,0-1.035-.23a.08.08,0,1,1,.035-.157l1.035.229a.08.08,0,0,1-.017.159" transform="translate(-774.811 -781.814)" fill="#363e44"/>
      <path id="Trazado_901544" data-name="Trazado 901544" d="M944.979,957.8l9.733-3.579-3.9-18.878s-30.4-1.976-54.364,7.354l.5,18.335,7.88.658-5.3,23.551c19.237,2.455,34.858,2.171,47.988,0Z" transform="translate(-824.323 -859.934)" fill="#fd9826"/>
      <path id="Trazado_901545" data-name="Trazado 901545" d="M1480.323,1134.195a.08.08,0,0,1-.079-.068l-.966-6.205a.08.08,0,1,1,.158-.025l.967,6.206a.08.08,0,0,1-.067.092h-.012" transform="translate(-1360.374 -1037.132)" fill="#363e44"/>
      <path id="Trazado_901546" data-name="Trazado 901546" d="M551.2,1703.41c0,1.847-4.729,3.344-10.562,3.344s-10.562-1.5-10.562-3.344,4.729-3.344,10.562-3.344,10.562,1.5,10.562,3.344" transform="translate(-487.357 -1563.444)" fill="#e0aa63"/>
      <rect id="Rectángulo_404857" data-name="Rectángulo 404857" width="21.123" height="3.446" transform="translate(42.723 136.635)" fill="#e0aa63"/>
      <path id="Trazado_901547" data-name="Trazado 901547" d="M551.2,1662.713c0,1.847-4.729,3.344-10.562,3.344s-10.562-1.5-10.562-3.344,4.729-3.344,10.562-3.344,10.562,1.5,10.562,3.344" transform="translate(-487.357 -1526.013)" fill="#efbc73"/>
      <path id="Trazado_901548" data-name="Trazado 901548" d="M555.226,1665.217a25.851,25.851,0,0,1-7.492-.983c-2.031-.643-3.15-1.51-3.15-2.441s1.119-1.8,3.15-2.441a29.038,29.038,0,0,1,14.985,0c2.031.643,3.149,1.51,3.149,2.441s-1.119,1.8-3.149,2.441a25.853,25.853,0,0,1-7.493.983m0-6.689a25.691,25.691,0,0,0-7.444.976c-1.93.611-3.037,1.445-3.037,2.288s1.107,1.677,3.037,2.288a28.881,28.881,0,0,0,14.888,0c1.93-.611,3.037-1.445,3.037-2.288s-1.107-1.677-3.037-2.288a25.692,25.692,0,0,0-7.444-.976" transform="translate(-500.697 -1525.092)" fill="#fff"/>
      <path id="Trazado_901549" data-name="Trazado 901549" d="M560.669,1635.581c0,1.847-4.729,3.344-10.562,3.344s-10.562-1.5-10.562-3.344,4.729-3.344,10.562-3.344,10.562,1.5,10.562,3.344" transform="translate(-496.063 -1501.058)" fill="#e0aa63"/>
      <rect id="Rectángulo_404858" data-name="Rectángulo 404858" width="21.123" height="3.446" transform="translate(43.483 131.191)" fill="#e0aa63"/>
      <path id="Trazado_901550" data-name="Trazado 901550" d="M560.669,1594.884c0,1.847-4.729,3.344-10.562,3.344s-10.562-1.5-10.562-3.344,4.729-3.344,10.562-3.344,10.562,1.5,10.562,3.344" transform="translate(-496.063 -1463.628)" fill="#efbc73"/>
      <path id="Trazado_901551" data-name="Trazado 901551" d="M564.691,1597.389a25.861,25.861,0,0,1-7.492-.983c-2.031-.643-3.149-1.51-3.149-2.441s1.119-1.8,3.149-2.441a29.038,29.038,0,0,1,14.985,0c2.031.643,3.149,1.51,3.149,2.441s-1.119,1.8-3.149,2.441a25.862,25.862,0,0,1-7.493.983m0-6.688a25.7,25.7,0,0,0-7.444.976c-1.93.611-3.038,1.445-3.038,2.288s1.107,1.677,3.038,2.288a28.881,28.881,0,0,0,14.888,0c1.93-.611,3.037-1.445,3.037-2.288s-1.107-1.677-3.037-2.288a25.7,25.7,0,0,0-7.444-.976" transform="translate(-509.402 -1462.708)" fill="#fff"/>
      <path id="Trazado_901552" data-name="Trazado 901552" d="M314.709,1721.153c0,1.847-4.729,3.344-10.562,3.344s-10.562-1.5-10.562-3.344,4.729-3.344,10.562-3.344,10.562,1.5,10.562,3.344" transform="translate(-269.843 -1579.763)" fill="#e0aa63"/>
      <rect id="Rectángulo_404859" data-name="Rectángulo 404859" width="21.123" height="3.446" transform="translate(23.743 138.059)" fill="#e0aa63"/>
      <path id="Trazado_901553" data-name="Trazado 901553" d="M314.709,1680.456c0,1.847-4.729,3.344-10.562,3.344s-10.562-1.5-10.562-3.344,4.729-3.344,10.562-3.344,10.562,1.5,10.562,3.344" transform="translate(-269.843 -1542.332)" fill="#efbc73"/>
      <path id="Trazado_901554" data-name="Trazado 901554" d="M318.732,1682.961a25.852,25.852,0,0,1-7.493-.983c-2.031-.643-3.15-1.51-3.15-2.441s1.119-1.8,3.15-2.441a29.038,29.038,0,0,1,14.985,0c2.031.643,3.15,1.51,3.15,2.441s-1.119,1.8-3.15,2.441a25.852,25.852,0,0,1-7.492.983m0-6.689a25.692,25.692,0,0,0-7.444.976c-1.93.611-3.038,1.445-3.038,2.288s1.107,1.677,3.038,2.288a28.884,28.884,0,0,0,14.888,0c1.93-.611,3.037-1.445,3.037-2.288s-1.107-1.677-3.037-2.288a25.691,25.691,0,0,0-7.444-.976" transform="translate(-283.183 -1541.412)" fill="#fff"/>
      <path id="Trazado_901555" data-name="Trazado 901555" d="M341.841,1653.2c0,1.842-4.729,3.335-10.562,3.335s-10.562-1.493-10.562-3.335,4.729-3.335,10.562-3.335,10.562,1.493,10.562,3.335" transform="translate(-294.798 -1517.275)" fill="#e0aa63"/>
      <rect id="Rectángulo_404860" data-name="Rectángulo 404860" width="21.123" height="3.436" transform="translate(25.92 132.606)" fill="#e0aa63"/>
      <path id="Trazado_901556" data-name="Trazado 901556" d="M341.841,1612.618c0,1.842-4.729,3.335-10.562,3.335s-10.562-1.493-10.562-3.335,4.729-3.335,10.562-3.335,10.562,1.493,10.562,3.335" transform="translate(-294.798 -1479.947)" fill="#efbc73"/>
      <path id="Trazado_901557" data-name="Trazado 901557" d="M345.863,1615.115a25.922,25.922,0,0,1-7.492-.981c-2.031-.641-3.15-1.506-3.15-2.435s1.119-1.793,3.15-2.435a29.114,29.114,0,0,1,14.985,0c2.031.641,3.15,1.506,3.15,2.435s-1.119,1.793-3.15,2.435a25.92,25.92,0,0,1-7.492.981m0-6.67a25.758,25.758,0,0,0-7.444.973c-1.93.609-3.037,1.441-3.037,2.282s1.107,1.672,3.037,2.282a28.958,28.958,0,0,0,14.888,0c1.93-.61,3.037-1.441,3.037-2.282s-1.107-1.672-3.037-2.282a25.758,25.758,0,0,0-7.444-.973" transform="translate(-308.137 -1479.028)" fill="#fff"/>
      <path id="Trazado_901558" data-name="Trazado 901558" d="M586.535,1567.753c0,1.847-4.729,3.344-10.562,3.344s-10.562-1.5-10.562-3.344,4.729-3.344,10.562-3.344,10.562,1.5,10.562,3.344" transform="translate(-519.853 -1438.674)" fill="#e0aa63"/>
      <rect id="Rectángulo_404861" data-name="Rectángulo 404861" width="21.123" height="3.446" transform="translate(45.559 125.748)" fill="#e0aa63"/>
      <path id="Trazado_901559" data-name="Trazado 901559" d="M586.535,1527.056c0,1.847-4.729,3.344-10.562,3.344s-10.562-1.5-10.562-3.344,4.729-3.344,10.562-3.344,10.562,1.5,10.562,3.344" transform="translate(-519.853 -1401.243)" fill="#efbc73"/>
      <path id="Trazado_901560" data-name="Trazado 901560" d="M590.557,1529.56a25.857,25.857,0,0,1-7.493-.983c-2.031-.643-3.149-1.51-3.149-2.441s1.119-1.8,3.149-2.441a29.038,29.038,0,0,1,14.985,0c2.031.643,3.149,1.51,3.149,2.441s-1.119,1.8-3.149,2.441a25.857,25.857,0,0,1-7.493.983m0-6.689a25.7,25.7,0,0,0-7.444.976c-1.93.611-3.038,1.445-3.038,2.288s1.107,1.677,3.038,2.288a28.884,28.884,0,0,0,14.888,0c1.93-.611,3.037-1.445,3.037-2.288s-1.107-1.677-3.037-2.288a25.7,25.7,0,0,0-7.444-.976" transform="translate(-533.192 -1400.323)" fill="#fff"/>
      <path id="Trazado_901561" data-name="Trazado 901561" d="M558.507,1507.432c0,1.847-4.729,3.344-10.562,3.344s-10.562-1.5-10.562-3.344,4.729-3.344,10.562-3.344,10.562,1.5,10.562,3.344" transform="translate(-494.075 -1383.194)" fill="#e0aa63"/>
      <rect id="Rectángulo_404862" data-name="Rectángulo 404862" width="21.123" height="3.446" transform="translate(43.309 120.906)" fill="#e0aa63"/>
      <path id="Trazado_901562" data-name="Trazado 901562" d="M558.507,1466.735c0,1.847-4.729,3.344-10.562,3.344s-10.562-1.5-10.562-3.344,4.729-3.344,10.562-3.344,10.562,1.5,10.562,3.344" transform="translate(-494.075 -1345.763)" fill="#efbc73"/>
      <path id="Trazado_901563" data-name="Trazado 901563" d="M562.529,1469.24a25.856,25.856,0,0,1-7.492-.983c-2.031-.643-3.15-1.51-3.15-2.441s1.119-1.8,3.15-2.441a29.034,29.034,0,0,1,14.985,0c2.031.643,3.149,1.51,3.149,2.441s-1.119,1.8-3.149,2.441a25.856,25.856,0,0,1-7.492.983m0-6.688a25.687,25.687,0,0,0-7.444.976c-1.93.611-3.037,1.445-3.037,2.288s1.107,1.677,3.037,2.288a28.881,28.881,0,0,0,14.888,0c1.93-.611,3.037-1.445,3.037-2.288s-1.107-1.677-3.037-2.288a25.688,25.688,0,0,0-7.444-.976" transform="translate(-507.414 -1344.844)" fill="#fff"/>
      <path id="Trazado_901564" data-name="Trazado 901564" d="M289.368,1488.15c-1.312,1.3-5.7-1.006-9.809-5.15s-6.369-8.557-5.057-9.857,5.7,1.006,9.809,5.15,6.369,8.557,5.057,9.857" transform="translate(-251.948 -1354.4)" fill="#e0aa63"/>
      <rect id="Rectángulo_404863" data-name="Rectángulo 404863" width="3.446" height="21.123" transform="matrix(0.71, -0.704, 0.704, 0.71, 22.473, 118.824)" fill="#e0aa63"/>
      <path id="Trazado_901565" data-name="Trazado 901565" d="M318.281,1459.508c-1.312,1.3-5.7-1.006-9.809-5.15s-6.369-8.557-5.057-9.857,5.7,1.006,9.809,5.15,6.369,8.557,5.057,9.857" transform="translate(-278.541 -1328.056)" fill="#efbc73"/>
      <path id="Trazado_901566" data-name="Trazado 901566" d="M327.221,1470.048a6.58,6.58,0,0,1-2.842-.9,29.039,29.039,0,0,1-10.546-10.646c-.972-1.9-1.144-3.3-.482-3.956s2.065-.471,3.951.519a29.039,29.039,0,0,1,10.546,10.646c.973,1.9,1.144,3.3.482,3.956a1.517,1.517,0,0,1-1.109.386m-12.763-15.728a1.364,1.364,0,0,0-.994.336c-.6.593-.412,1.967.512,3.768A28.88,28.88,0,0,0,324.454,1469c1.793.941,3.164,1.141,3.763.547s.412-1.967-.512-3.768a28.882,28.882,0,0,0-10.478-10.577,6.456,6.456,0,0,0-2.769-.883m13.815,15.285h0Z" transform="translate(-287.658 -1337.27)" fill="#fff"/>
      <path id="Trazado_901567" data-name="Trazado 901567" d="M586.84,1438.086c0,1.847-4.729,3.344-10.562,3.344s-10.562-1.5-10.562-3.344,4.729-3.344,10.562-3.344,10.562,1.5,10.562,3.344" transform="translate(-520.134 -1319.414)" fill="#e0aa63"/>
      <rect id="Rectángulo_404864" data-name="Rectángulo 404864" width="21.123" height="3.446" transform="translate(45.583 115.341)" fill="#e0aa63"/>
      <path id="Trazado_901568" data-name="Trazado 901568" d="M586.84,1397.389c0,1.847-4.729,3.344-10.562,3.344s-10.562-1.5-10.562-3.344,4.729-3.344,10.562-3.344,10.562,1.5,10.562,3.344" transform="translate(-520.134 -1281.983)" fill="#efbc73"/>
      <path id="Trazado_901569" data-name="Trazado 901569" d="M590.862,1399.894a25.855,25.855,0,0,1-7.492-.983c-2.031-.643-3.15-1.51-3.15-2.441s1.119-1.8,3.15-2.441a29.041,29.041,0,0,1,14.985,0c2.031.643,3.149,1.51,3.149,2.441s-1.119,1.8-3.149,2.441a25.857,25.857,0,0,1-7.493.983m0-6.689a25.687,25.687,0,0,0-7.444.976c-1.93.611-3.037,1.445-3.037,2.288s1.107,1.677,3.037,2.288a28.881,28.881,0,0,0,14.888,0c1.93-.611,3.037-1.445,3.037-2.288s-1.107-1.677-3.037-2.288a25.688,25.688,0,0,0-7.444-.976" transform="translate(-533.473 -1281.063)" fill="#fff"/>
      <path id="Trazado_901570" data-name="Trazado 901570" d="M629.475,1377.766c0,1.847-4.729,3.344-10.562,3.344s-10.562-1.5-10.562-3.344,4.729-3.344,10.562-3.344,10.562,1.5,10.562,3.344" transform="translate(-559.347 -1263.935)" fill="#e0aa63"/>
      <rect id="Rectángulo_404865" data-name="Rectángulo 404865" width="21.123" height="3.446" transform="translate(49.005 110.5)" fill="#e0aa63"/>
      <path id="Trazado_901571" data-name="Trazado 901571" d="M629.475,1337.068c0,1.847-4.729,3.344-10.562,3.344s-10.562-1.5-10.562-3.344,4.729-3.344,10.562-3.344,10.562,1.5,10.562,3.344" transform="translate(-559.347 -1226.503)" fill="#efbc73"/>
      <path id="Trazado_901572" data-name="Trazado 901572" d="M633.5,1339.573a25.847,25.847,0,0,1-7.492-.983c-2.031-.643-3.15-1.51-3.15-2.441s1.119-1.8,3.15-2.441a29.038,29.038,0,0,1,14.985,0c2.031.643,3.149,1.51,3.149,2.441s-1.119,1.8-3.149,2.441a25.849,25.849,0,0,1-7.493.983m0-6.689a25.691,25.691,0,0,0-7.444.976c-1.93.611-3.037,1.445-3.037,2.288s1.107,1.677,3.037,2.288a28.888,28.888,0,0,0,14.888,0c1.93-.611,3.037-1.446,3.037-2.288s-1.107-1.677-3.037-2.288a25.692,25.692,0,0,0-7.444-.976" transform="translate(-572.686 -1225.583)" fill="#fff"/>
    </g>
  </g>
</svg>
