<svg xmlns="http://www.w3.org/2000/svg" xmlns:xlink="http://www.w3.org/1999/xlink" width="505" height="307" viewBox="0 0 505 307">
  <defs>
    <clipPath id="clip-path">
      <rect id="Rectángulo_404995" data-name="Rectángulo 404995" width="289.684" height="277.786" fill="none"/>
    </clipPath>
    <clipPath id="clip-path-3">
      <rect id="Rectángulo_404940" data-name="Rectángulo 404940" width="13.933" height="11.443" fill="none"/>
    </clipPath>
    <clipPath id="clip-path-6">
      <rect id="Rectángulo_404945" data-name="Rectángulo 404945" width="18.434" height="33.576" fill="none"/>
    </clipPath>
    <clipPath id="clip-path-7">
      <rect id="Rectángulo_404946" data-name="Rectángulo 404946" width="36.908" height="36.908" fill="#fd9826"/>
    </clipPath>
    <clipPath id="clip-path-8">
      <rect id="Rectángulo_404947" data-name="Rectángulo 404947" width="36.508" height="36.508" fill="#fed6a8"/>
    </clipPath>
    <clipPath id="clip-path-9">
      <rect id="Rectángulo_404948" data-name="Rectángulo 404948" width="15.758" height="19.476" fill="none"/>
    </clipPath>
    <clipPath id="clip-path-10">
      <rect id="Rectángulo_404949" data-name="Rectángulo 404949" width="22.945" height="18.25" fill="none"/>
    </clipPath>
    <clipPath id="clip-path-11">
      <rect id="Rectángulo_404950" data-name="Rectángulo 404950" width="30.907" height="30.907" fill="none"/>
    </clipPath>
    <clipPath id="clip-path-12">
      <rect id="Rectángulo_404951" data-name="Rectángulo 404951" width="30.572" height="30.572" fill="none"/>
    </clipPath>
    <clipPath id="clip-path-13">
      <rect id="Rectángulo_404952" data-name="Rectángulo 404952" width="11.572" height="18.64" fill="none"/>
    </clipPath>
    <clipPath id="clip-path-15">
      <rect id="Rectángulo_404962" data-name="Rectángulo 404962" width="20.489" height="20.157" fill="none"/>
    </clipPath>
    <clipPath id="clip-path-20">
      <rect id="Rectángulo_404987" data-name="Rectángulo 404987" width="43.143" height="47.727" fill="none"/>
    </clipPath>
    <clipPath id="clip-path-21">
      <rect id="Rectángulo_404988" data-name="Rectángulo 404988" width="19.283" height="19.635" fill="none"/>
    </clipPath>
    <clipPath id="clip-path-22">
      <rect id="Rectángulo_404989" data-name="Rectángulo 404989" width="24.382" height="8.026" fill="none"/>
    </clipPath>
    <clipPath id="clip-path-23">
      <rect id="Rectángulo_404990" data-name="Rectángulo 404990" width="23.471" height="7.718" fill="none"/>
    </clipPath>
    <clipPath id="clip-path-24">
      <rect id="Rectángulo_404991" data-name="Rectángulo 404991" width="23.016" height="14.265" fill="none"/>
    </clipPath>
    <clipPath id="clip-path-25">
      <rect id="Rectángulo_404992" data-name="Rectángulo 404992" width="14.688" height="57.739" fill="none"/>
    </clipPath>
    <clipPath id="clip-path-26">
      <rect id="Rectángulo_404993" data-name="Rectángulo 404993" width="13.155" height="8.391" fill="none"/>
    </clipPath>
  </defs>
  <g id="Grupo_1111811" data-name="Grupo 1111811" transform="translate(-180.051 -5387)">
    <g id="Grupo_1111741" data-name="Grupo 1111741" transform="translate(-630 1256)">
      <g id="Grupo_1111606" data-name="Grupo 1111606" transform="translate(-85.102 2392)">
        <rect id="Rectángulo_404659" data-name="Rectángulo 404659" width="505" height="307" transform="translate(895.152 1739)" fill="#fed6a8"/>
      </g>
    </g>
    <g id="Grupo_1111810" data-name="Grupo 1111810" transform="translate(290.316 5401.607)">
      <g id="Grupo_1111809" data-name="Grupo 1111809" clip-path="url(#clip-path)">
        <g id="Grupo_1111746" data-name="Grupo 1111746">
          <g id="Grupo_1111745" data-name="Grupo 1111745" clip-path="url(#clip-path)">
            <path id="Trazado_901880" data-name="Trazado 901880" d="M322.493,57.095,260.637,44.031a2.944,2.944,0,0,1-2.273-3.486l8.073-38.211A2.941,2.941,0,0,1,269.92.063l61.86,13.066a2.942,2.942,0,0,1,2.265,3.483l-8.069,38.214a2.945,2.945,0,0,1-3.483,2.269" transform="translate(-95.229 0)" fill="#ebebeb"/>
            <path id="Trazado_901881" data-name="Trazado 901881" d="M271.437,45.525l-.795,3.763-.384-.082.724-3.409-.888-.188.074-.355Z" transform="translate(-99.578 -16.684)" fill="#fff"/>
            <path id="Trazado_901882" data-name="Trazado 901882" d="M275.619,50.168l-.074.355-2.631-.557.058-.273,1.881-1.2c.512-.326.643-.562.7-.821.092-.433-.159-.765-.731-.888a1.319,1.319,0,0,0-1.116.2l-.222-.292a1.735,1.735,0,0,1,1.444-.258c.76.162,1.161.65,1.03,1.3-.075.355-.255.657-.862,1.045l-1.544.984Z" transform="translate(-100.617 -17.098)" fill="#fff"/>
            <path id="Trazado_901883" data-name="Trazado 901883" d="M281.765,50.917l-.753-.159-.206.987-.388-.081.211-.984-2.13-.447.084-.294,2.513-2.066.429.092L279.1,49.981l1.629.344.183-.869.376.08-.186.87.753.159Z" transform="translate(-102.676 -17.649)" fill="#fff"/>
            <path id="Trazado_901884" data-name="Trazado 901884" d="M290.874,52.85l-.749-.159-.21.987-.39-.081.21-.987-2.13-.447.061-.277,2.513-2.07.43.092-2.431,2.017,1.629.344.183-.866.376.076-.183.869.749.16Z" transform="translate(-106.033 -18.366)" fill="#fff"/>
            <path id="Trazado_901885" data-name="Trazado 901885" d="M296.355,53.7c-.135.639-.685,1.042-1.6.847a2,2,0,0,1-1.244-.767l.253-.268a1.661,1.661,0,0,0,1.059.677c.639.135,1.035-.1,1.141-.559s-.139-.847-1.09-1.046l-.8-.169.588-1.844,2.056.433-.074.355L294.928,51l-.381,1.167.482.1c1.133.234,1.465.77,1.325,1.434" transform="translate(-108.21 -18.645)" fill="#fff"/>
            <path id="Trazado_901886" data-name="Trazado 901886" d="M302.3,55.022a1.192,1.192,0,0,1-1.528.881c-.994-.209-1.39-1.018-1.14-2.2a1.739,1.739,0,0,1,2.123-1.592,1.771,1.771,0,0,1,.848.394l-.221.278a1.327,1.327,0,0,0-.693-.331c-.809-.171-1.439.24-1.657,1.259-.016.085-.034.194-.047.307a1.224,1.224,0,0,1,1.285-.4,1.179,1.179,0,0,1,1.03,1.407m-.386-.071c.107-.494-.191-.887-.773-1.009a.887.887,0,0,0-1.12.565c-.006.018-.011.035-.016.053-.086.412.173.875.823,1.012a.835.835,0,0,0,1.059-.521.761.761,0,0,0,.027-.1" transform="translate(-110.441 -19.196)" fill="#fff"/>
            <path id="Trazado_901887" data-name="Trazado 901887" d="M310.358,56.646c-.133.628-.692,1.015-1.6.821a2,2,0,0,1-1.249-.766l.253-.268a1.663,1.663,0,0,0,1.069.679c.621.133,1.035-.1,1.124-.551s-.156-.814-.855-.963l-.266-.055.06-.284,1.314-1.084-1.92-.4.071-.355,2.415.511-.059.273-1.342,1.114c.8.221,1.109.731.981,1.331" transform="translate(-113.373 -19.693)" fill="#fff"/>
            <path id="Trazado_901888" data-name="Trazado 901888" d="M316.423,58a1.19,1.19,0,0,1-1.525.881c-1-.209-1.393-1.017-1.143-2.2a1.818,1.818,0,0,1,2.971-1.2l-.221.278a1.331,1.331,0,0,0-.693-.331c-.809-.171-1.439.239-1.653,1.258a2.41,2.41,0,0,0-.048.307,1.227,1.227,0,0,1,1.282-.4,1.2,1.2,0,0,1,1.03,1.4m-.383-.072c.1-.494-.194-.886-.773-1.006a.887.887,0,0,0-1.122.559c-.006.018-.011.037-.016.056-.087.412.173.878.823,1.016A.841.841,0,0,0,316.008,58q.01-.03.017-.061Z" transform="translate(-115.647 -20.293)" fill="#fff"/>
            <path id="Trazado_901889" data-name="Trazado 901889" d="M322.617,56.36l-.058.273-2.307,3.147-.415-.086L322.1,56.61l-1.932-.41-.149.71-.38-.079.22-1.065Z" transform="translate(-117.844 -20.56)" fill="#fff"/>
            <path id="Trazado_901890" data-name="Trazado 901890" d="M331.1,58.166l-.058.273-2.3,3.15-.419-.09,2.265-3.084-1.931-.407-.146.71-.384-.082.222-1.044Z" transform="translate(-120.973 -21.233)" fill="#fff"/>
            <path id="Trazado_901891" data-name="Trazado 901891" d="M336.077,62.211c-.14.664-.79.958-1.685.771s-1.362-.721-1.22-1.386a.953.953,0,0,1,.915-.782.86.86,0,0,1-.413-.95c.127-.614.728-.883,1.523-.717s1.242.663,1.116,1.287a.877.877,0,0,1-.777.7.967.967,0,0,1,.54,1.077m-.395-.088c.1-.462-.239-.837-.9-.977s-1.117.067-1.217.528.232.838.9.977,1.122-.064,1.217-.528Zm-.841-1.282c.586.122.989-.065,1.076-.473s-.225-.758-.779-.88-.982.064-1.069.479.189.752.771.874" transform="translate(-122.823 -21.789)" fill="#fff"/>
            <path id="Trazado_901892" data-name="Trazado 901892" d="M342.117,62.577a1.739,1.739,0,0,1-2.126,1.592,1.758,1.758,0,0,1-.848-.393l.221-.278a1.379,1.379,0,0,0,.692.331c.81.171,1.439-.239,1.657-1.258.016-.085.034-.2.048-.307a1.23,1.23,0,0,1-1.285.4,1.157,1.157,0,0,1-1.025-1.393,1.2,1.2,0,0,1,1.525-.881c1,.2,1.389,1,1.142,2.189m-.376-.855c.09-.412-.173-.878-.819-1.016a.841.841,0,0,0-1.064.533.894.894,0,0,0-.025.092c-.1.49.191.883.773,1.006a.883.883,0,0,0,1.119-.557c.006-.019.012-.039.017-.058" transform="translate(-125.034 -22.25)" fill="#fff"/>
            <path id="Trazado_901893" data-name="Trazado 901893" d="M349.713,62.066l-.792,3.756-.387-.082.724-3.412-.884-.185.071-.355Z" transform="translate(-128.437 -22.78)" fill="#fff"/>
            <path id="Trazado_901894" data-name="Trazado 901894" d="M353.889,66.7l-.071.355-2.632-.567.058-.274,1.881-1.2c.512-.326.643-.562.7-.821.092-.433-.159-.765-.734-.884a1.293,1.293,0,0,0-1.112.2l-.223-.3a1.734,1.734,0,0,1,1.444-.254c.76.158,1.161.65,1.028,1.275a1.593,1.593,0,0,1-.866,1.045l-1.54.983Z" transform="translate(-129.474 -23.191)" fill="#fff"/>
            <path id="Trazado_901895" data-name="Trazado 901895" d="M359.387,67c-.133.625-.691,1.011-1.6.821a2,2,0,0,1-1.249-.77l.254-.264a1.674,1.674,0,0,0,1.069.679c.621.133,1.035-.1,1.124-.551s-.16-.813-.856-.963l-.266-.055.06-.288,1.315-1.08-1.921-.408.071-.355,2.414.508-.058.273L358.4,65.677c.807.217,1.111.72.991,1.323" transform="translate(-131.449 -23.509)" fill="#fff"/>
            <rect id="Rectángulo_404938" data-name="Rectángulo 404938" width="1.667" height="30.726" transform="translate(197.962 42.886) rotate(-78.065)" fill="#fff"/>
            <rect id="Rectángulo_404939" data-name="Rectángulo 404939" width="1.666" height="15.758" transform="translate(211.922 49.236) rotate(-78.065)" fill="#fff"/>
            <g id="Grupo_1111744" data-name="Grupo 1111744" transform="translate(170.035 16.233)" opacity="0.5">
              <g id="Grupo_1111743" data-name="Grupo 1111743">
                <g id="Grupo_1111742" data-name="Grupo 1111742" clip-path="url(#clip-path-3)">
                  <path id="Trazado_901896" data-name="Trazado 901896" d="M272.7,25.75l9.208,1.984a1.712,1.712,0,0,1,1.313,2.034l-1.3,6.034a1.713,1.713,0,0,1-2.035,1.313l-9.208-1.984a1.713,1.713,0,0,1-1.313-2.035l1.3-6.033A1.712,1.712,0,0,1,272.7,25.75" transform="translate(-269.331 -25.712)" fill="#fafafa"/>
                </g>
              </g>
            </g>
            <path id="Trazado_901897" data-name="Trazado 901897" d="M270.564,33.381l.128-.6,6.494,1.371a1.389,1.389,0,0,0,.577-2.717l-6.5-1.374.128-.6,6.5,1.37a2.01,2.01,0,0,1-.831,3.931Z" transform="translate(-99.751 -10.859)" fill="#e0e0e0"/>
            <rect id="Rectángulo_404941" data-name="Rectángulo 404941" width="0.617" height="4.556" transform="translate(179.308 22.577) rotate(-78.011)" fill="#e0e0e0"/>
            <rect id="Rectángulo_404942" data-name="Rectángulo 404942" width="2.845" height="33.158" transform="translate(174.787 11.047) rotate(-78.075)" fill="#fff"/>
            <path id="Trazado_901898" data-name="Trazado 901898" d="M356.654,26.913l4.393.928a1.091,1.091,0,0,1,.843,1.293l-.928,4.394a1.092,1.092,0,0,1-1.294.842l-4.393-.928a1.09,1.09,0,0,1-.842-1.294l.927-4.393a1.093,1.093,0,0,1,1.294-.842" transform="translate(-130.662 -9.913)" fill="#fff"/>
            <path id="Trazado_901899" data-name="Trazado 901899" d="M356.041,329.456a17.51,17.51,0,1,1-6.508-23.863,17.492,17.492,0,0,1,6.508,23.863" transform="translate(-119.209 -111.808)" fill="#f5f5f5"/>
            <path id="Trazado_901900" data-name="Trazado 901900" d="M354.857,329.814a13.344,13.344,0,1,1-4.96-18.185,13.329,13.329,0,0,1,4.96,18.185" transform="translate(-121.641 -114.237)" fill="#ebebeb"/>
            <path id="Trazado_901901" data-name="Trazado 901901" d="M355.969,329.168a7.885,7.885,0,0,1,.492-1.568,14.157,14.157,0,0,0,.7-4.314,13.647,13.647,0,0,0-.327-2.982,13.358,13.358,0,0,0-1.184-3.217,13.1,13.1,0,0,0-2.211-3.059,12.918,12.918,0,0,0-1.5-1.323,13.062,13.062,0,0,0-3.625-1.929,13.024,13.024,0,0,0-1.935-.5,13.094,13.094,0,0,0-3.773-.124,13.372,13.372,0,0,0-3.329.817,13.708,13.708,0,0,0-2.656,1.4,14.177,14.177,0,0,0-3.186,2.989c-.643.823-.953,1.323-1.025,1.284a3.929,3.929,0,0,1,.7-1.512,12.331,12.331,0,0,1,3.091-3.349,13.364,13.364,0,0,1,6.289-2.559,12.854,12.854,0,0,1,1.989-.117,13.1,13.1,0,0,1,2.072.189,13.635,13.635,0,0,1,2.092.529,13.68,13.68,0,0,1,3.91,2.081,13.629,13.629,0,0,1,1.607,1.439,13.6,13.6,0,0,1,2.33,3.327,13.373,13.373,0,0,1,1.394,6.646,12.358,12.358,0,0,1-1.049,4.435,3.93,3.93,0,0,1-.864,1.425" transform="translate(-122.548 -113.955)" fill="#e0e0e0"/>
            <path id="Trazado_901902" data-name="Trazado 901902" d="M343.628,333.721l-1.126,2.034-1.815-1.006,1.1-1.979a9.836,9.836,0,0,1-3.715-3.957l2.224-1.662a8.4,8.4,0,0,0,2.808,3.24l1.679-3.032c-1.743-1.606-3.623-3.525-2.184-6.121,1.066-1.924,3.378-2.8,6.428-1.54l1.116-2.016,1.816,1.006-1.1,1.979a9.381,9.381,0,0,1,3.071,3.148l-2.145,1.731a8.492,8.492,0,0,0-2.254-2.484l-1.71,3.087c1.754,1.587,3.6,3.487,2.179,6.046-1.046,1.888-3.332,2.758-6.373,1.523m2.631-9.03,1.427-2.578c-1.083-.315-1.755,0-2.087.6-.352.635,0,1.282.66,1.978m.7,6.106c.353-.636.016-1.272-.613-1.977l-1.388,2.505c1.018.3,1.679.053,2-.528" transform="translate(-124.638 -117.123)" fill="#e0e0e0"/>
            <path id="Trazado_901903" data-name="Trazado 901903" d="M436.1,209.366A17.51,17.51,0,1,1,429.59,185.5a17.491,17.491,0,0,1,6.508,23.863" transform="translate(-148.725 -67.533)" fill="#f5f5f5"/>
            <path id="Trazado_901904" data-name="Trazado 901904" d="M434.915,209.724a13.344,13.344,0,1,1-4.959-18.185,13.329,13.329,0,0,1,4.959,18.185" transform="translate(-151.157 -69.962)" fill="#ebebeb"/>
            <path id="Trazado_901905" data-name="Trazado 901905" d="M436.028,209.078a7.887,7.887,0,0,1,.492-1.568,14.158,14.158,0,0,0,.7-4.314,13.688,13.688,0,0,0-.327-2.982A13.366,13.366,0,0,0,435.707,197a13.094,13.094,0,0,0-2.211-3.059,12.867,12.867,0,0,0-1.5-1.323,13.048,13.048,0,0,0-3.624-1.929,13.1,13.1,0,0,0-1.935-.505,13.122,13.122,0,0,0-3.773-.124,13.344,13.344,0,0,0-3.329.818,13.673,13.673,0,0,0-2.656,1.395,14.175,14.175,0,0,0-3.186,2.989c-.643.823-.953,1.323-1.025,1.284a3.922,3.922,0,0,1,.7-1.513,12.338,12.338,0,0,1,3.091-3.348,13.477,13.477,0,0,1,2.754-1.592,13.623,13.623,0,0,1,3.535-.967,12.929,12.929,0,0,1,1.989-.117,13.1,13.1,0,0,1,2.072.189,13.637,13.637,0,0,1,2.092.529,13.679,13.679,0,0,1,3.91,2.081,13.635,13.635,0,0,1,1.607,1.439,13.6,13.6,0,0,1,2.33,3.327,13.373,13.373,0,0,1,1.394,6.646,12.358,12.358,0,0,1-1.049,4.435,3.913,3.913,0,0,1-.864,1.425" transform="translate(-152.064 -69.681)" fill="#e0e0e0"/>
            <path id="Trazado_901906" data-name="Trazado 901906" d="M423.687,213.632l-1.126,2.033-1.815-1.006,1.1-1.979a9.834,9.834,0,0,1-3.715-3.956l2.225-1.662a8.4,8.4,0,0,0,2.808,3.24l1.679-3.032c-1.744-1.606-3.622-3.525-2.184-6.121,1.066-1.924,3.379-2.8,6.428-1.54l1.116-2.016,1.816,1.006-1.1,1.979a9.387,9.387,0,0,1,3.071,3.148l-2.145,1.731a8.5,8.5,0,0,0-2.254-2.484l-1.71,3.087c1.754,1.587,3.6,3.487,2.179,6.046-1.046,1.888-3.331,2.758-6.373,1.523m2.63-9.03,1.427-2.578c-1.083-.315-1.755,0-2.087.6-.352.636,0,1.283.66,1.979m.7,6.106c.352-.636.016-1.272-.613-1.977l-1.388,2.505c1.018.3,1.679.053,2-.528" transform="translate(-154.153 -72.848)" fill="#e0e0e0"/>
            <path id="Trazado_901907" data-name="Trazado 901907" d="M162.122,31.293a20.543,20.543,0,1,1-7.635-28,20.521,20.521,0,0,1,7.635,28" transform="translate(-45.628 -0.21)" fill="#f5f5f5"/>
            <path id="Trazado_901908" data-name="Trazado 901908" d="M160.734,31.714a15.655,15.655,0,1,1-5.818-21.336,15.637,15.637,0,0,1,5.818,21.336" transform="translate(-48.481 -3.06)" fill="#ebebeb"/>
            <path id="Trazado_901909" data-name="Trazado 901909" d="M162.038,30.955a9.249,9.249,0,0,1,.577-1.839,16.621,16.621,0,0,0,.818-5.061,16,16,0,0,0-.384-3.5,15.672,15.672,0,0,0-1.388-3.774,15.384,15.384,0,0,0-2.595-3.59,15.189,15.189,0,0,0-1.759-1.552,15.264,15.264,0,0,0-4.253-2.263,15.242,15.242,0,0,0-2.27-.592,15.351,15.351,0,0,0-4.427-.146,15.679,15.679,0,0,0-3.905.958,16.041,16.041,0,0,0-3.116,1.637,16.621,16.621,0,0,0-3.737,3.507c-.756.965-1.119,1.552-1.2,1.506a4.58,4.58,0,0,1,.819-1.774,14.479,14.479,0,0,1,3.626-3.929,15.688,15.688,0,0,1,7.38-3,15.207,15.207,0,0,1,2.332-.138,15.367,15.367,0,0,1,2.432.223,15.945,15.945,0,0,1,2.455.621,16.038,16.038,0,0,1,4.587,2.441,16.087,16.087,0,0,1,1.886,1.689,15.961,15.961,0,0,1,2.732,3.9,15.679,15.679,0,0,1,1.636,7.8,14.494,14.494,0,0,1-1.23,5.2,4.6,4.6,0,0,1-1.013,1.672" transform="translate(-49.545 -2.73)" fill="#e0e0e0"/>
            <path id="Trazado_901910" data-name="Trazado 901910" d="M147.56,36.3l-1.321,2.386L144.109,37.5l1.286-2.321a11.535,11.535,0,0,1-4.359-4.641l2.611-1.95a9.837,9.837,0,0,0,3.294,3.8l1.97-3.558c-2.046-1.884-4.25-4.135-2.563-7.181,1.251-2.258,3.964-3.287,7.541-1.807l1.31-2.364,2.129,1.18-1.286,2.322a11.011,11.011,0,0,1,3.6,3.693l-2.516,2.031a9.972,9.972,0,0,0-2.645-2.914l-2.006,3.621c2.057,1.863,4.219,4.091,2.556,7.094-1.227,2.215-3.909,3.236-7.476,1.787m3.085-10.593,1.675-3.025c-1.27-.37-2.059,0-2.449.7-.413.745,0,1.5.774,2.321m.82,7.162c.413-.746.02-1.492-.719-2.32l-1.629,2.939c1.2.356,1.97.062,2.348-.619" transform="translate(-51.997 -6.446)" fill="#e0e0e0"/>
            <path id="Trazado_901911" data-name="Trazado 901911" d="M39.484,137.327a20.544,20.544,0,1,1-7.635-28,20.521,20.521,0,0,1,7.635,28" transform="translate(-0.414 -39.302)" fill="#f5f5f5"/>
            <path id="Trazado_901912" data-name="Trazado 901912" d="M38.1,137.747a15.656,15.656,0,1,1-5.818-21.335A15.638,15.638,0,0,1,38.1,137.747" transform="translate(-3.267 -42.152)" fill="#ebebeb"/>
            <path id="Trazado_901913" data-name="Trazado 901913" d="M39.4,136.989a9.249,9.249,0,0,1,.577-1.839,16.617,16.617,0,0,0,.818-5.061,16.042,16.042,0,0,0-.384-3.5,15.7,15.7,0,0,0-1.388-3.774,15.384,15.384,0,0,0-2.595-3.59,15.19,15.19,0,0,0-1.759-1.552,15.264,15.264,0,0,0-4.253-2.263,15.243,15.243,0,0,0-2.27-.592,15.351,15.351,0,0,0-4.427-.146,15.679,15.679,0,0,0-3.905.958,16.041,16.041,0,0,0-3.116,1.637,16.622,16.622,0,0,0-3.737,3.507c-.756.965-1.119,1.552-1.2,1.506a4.58,4.58,0,0,1,.819-1.774A14.479,14.479,0,0,1,16.2,116.58a15.688,15.688,0,0,1,7.38-3,15.9,15.9,0,0,1,4.763.085,15.933,15.933,0,0,1,2.455.621,16.039,16.039,0,0,1,4.587,2.441,16.031,16.031,0,0,1,1.886,1.689,15.94,15.94,0,0,1,2.733,3.9,15.7,15.7,0,0,1,1.636,7.8,14.494,14.494,0,0,1-1.23,5.2,4.6,4.6,0,0,1-1.013,1.672" transform="translate(-4.331 -41.822)" fill="#e0e0e0"/>
            <path id="Trazado_901914" data-name="Trazado 901914" d="M24.921,142.332,23.6,144.718l-2.129-1.181,1.286-2.321a11.539,11.539,0,0,1-4.359-4.641l2.611-1.95a9.837,9.837,0,0,0,3.294,3.8l1.97-3.558c-2.046-1.884-4.25-4.135-2.563-7.181,1.251-2.257,3.964-3.287,7.541-1.806l1.31-2.364,2.129,1.18L33.4,127.019a11.011,11.011,0,0,1,3.6,3.693l-2.516,2.03a9.976,9.976,0,0,0-2.645-2.913l-2.006,3.621c2.057,1.863,4.219,4.091,2.556,7.094-1.227,2.215-3.909,3.236-7.476,1.787m3.086-10.594,1.674-3.024c-1.27-.37-2.059,0-2.449.7-.413.745,0,1.5.775,2.321m.819,7.163c.413-.746.02-1.492-.719-2.32l-1.628,2.939c1.194.356,1.97.062,2.347-.619" transform="translate(-6.783 -45.538)" fill="#e0e0e0"/>
            <path id="Trazado_901915" data-name="Trazado 901915" d="M37.433,339.629a14.716,14.716,0,1,1-5.469-20.055,14.7,14.7,0,0,1,5.469,20.055" transform="translate(-3.67 -117.099)" fill="#f5f5f5"/>
            <path id="Trazado_901916" data-name="Trazado 901916" d="M36.439,339.93a11.214,11.214,0,1,1-4.168-15.283,11.2,11.2,0,0,1,4.168,15.283" transform="translate(-5.714 -119.141)" fill="#ebebeb"/>
            <path id="Trazado_901917" data-name="Trazado 901917" d="M37.374,339.387a6.68,6.68,0,0,1,.414-1.318,11.9,11.9,0,0,0,.586-3.625,11.474,11.474,0,0,0-.275-2.506,11.251,11.251,0,0,0-.995-2.7,11,11,0,0,0-1.859-2.571,10.937,10.937,0,0,0-1.259-1.111,10.962,10.962,0,0,0-3.047-1.621,10.951,10.951,0,0,0-1.626-.424,11.012,11.012,0,0,0-3.171-.1,11.263,11.263,0,0,0-2.8.686,11.479,11.479,0,0,0-2.232,1.173,11.891,11.891,0,0,0-2.677,2.512c-.541.691-.8,1.112-.861,1.079a3.273,3.273,0,0,1,.587-1.271,10.382,10.382,0,0,1,2.6-2.814,11.234,11.234,0,0,1,5.285-2.15,11.4,11.4,0,0,1,3.413.061,11.364,11.364,0,0,1,1.758.444,11.483,11.483,0,0,1,3.286,1.749,11.39,11.39,0,0,1,1.351,1.21,10.98,10.98,0,0,1,1.105,1.355,10.862,10.862,0,0,1,.852,1.441,11.233,11.233,0,0,1,1.172,5.585,10.387,10.387,0,0,1-.881,3.727,3.3,3.3,0,0,1-.726,1.2" transform="translate(-6.476 -118.904)" fill="#e0e0e0"/>
            <path id="Trazado_901918" data-name="Trazado 901918" d="M27,343.214l-.946,1.709-1.525-.845.92-1.663a8.272,8.272,0,0,1-3.123-3.325l1.87-1.4a7.046,7.046,0,0,0,2.36,2.723l1.412-2.548c-1.466-1.35-3.045-2.962-1.836-5.144.9-1.617,2.84-2.355,5.4-1.294l.939-1.694,1.526.845-.922,1.664a7.892,7.892,0,0,1,2.581,2.646l-1.8,1.455a7.139,7.139,0,0,0-1.895-2.087l-1.437,2.594c1.474,1.335,3.022,2.931,1.831,5.082-.879,1.586-2.8,2.318-5.355,1.28m2.21-7.588,1.2-2.167c-.91-.264-1.475,0-1.754.5-.3.534,0,1.078.555,1.663m.587,5.131c.3-.534.014-1.069-.515-1.662L28.117,341.2c.856.255,1.412.044,1.682-.444" transform="translate(-8.232 -121.566)" fill="#e0e0e0"/>
          </g>
        </g>
        <g id="Grupo_1111748" data-name="Grupo 1111748">
          <g id="Grupo_1111747" data-name="Grupo 1111747" clip-path="url(#clip-path)">
            <path id="Trazado_901919" data-name="Trazado 901919" d="M0,437.821c0-.091,63.621-.164,142.083-.164,78.49,0,142.1.073,142.1.164s-63.607.164-142.1.164C63.621,437.985,0,437.912,0,437.821" transform="translate(0 -161.354)" fill="#263238"/>
          </g>
        </g>
        <g id="Grupo_1111774" data-name="Grupo 1111774">
          <g id="Grupo_1111773" data-name="Grupo 1111773" clip-path="url(#clip-path)">
            <path id="Trazado_901920" data-name="Trazado 901920" d="M55.223,193.455a24.335,24.335,0,1,1-13.832,31.514,24.336,24.336,0,0,1,13.832-31.514" transform="translate(-14.645 -70.707)" fill="#fd9826"/>
            <g id="Grupo_1111751" data-name="Grupo 1111751" transform="translate(25.094 124.86)" opacity="0.1">
              <g id="Grupo_1111750" data-name="Grupo 1111750">
                <g id="Grupo_1111749" data-name="Grupo 1111749" clip-path="url(#clip-path-6)">
                  <path id="Trazado_901921" data-name="Trazado 901921" d="M51.036,197.775a24.321,24.321,0,0,0-7.5,33.569l0,.008S58.4,222.84,58.18,214.821s-7.144-17.046-7.144-17.046" transform="translate(-39.749 -197.775)" fill="#fff"/>
                </g>
              </g>
            </g>
            <path id="Trazado_901922" data-name="Trazado 901922" d="M55.538,200.821A18.452,18.452,0,1,1,49.9,226.3a18.452,18.452,0,0,1,5.642-25.478" transform="translate(-17.328 -72.971)" fill="#ff725e"/>
            <g id="Grupo_1111754" data-name="Grupo 1111754" transform="translate(29.674 124.956)" opacity="0.2">
              <g id="Grupo_1111753" data-name="Grupo 1111753">
                <g id="Grupo_1111752" data-name="Grupo 1111752" clip-path="url(#clip-path-7)">
                  <path id="Trazado_901923" data-name="Trazado 901923" d="M55.538,200.821A18.452,18.452,0,1,1,49.9,226.3a18.452,18.452,0,0,1,5.642-25.478" transform="translate(-47.002 -197.927)" fill="#fd9826"/>
                </g>
              </g>
            </g>
            <path id="Trazado_901924" data-name="Trazado 901924" d="M83.876,210.084a18.251,18.251,0,1,1-25.195-5.609l.015-.009a18.252,18.252,0,0,1,25.18,5.619" transform="translate(-18.515 -74.333)" fill="#ff725e"/>
            <g id="Grupo_1111757" data-name="Grupo 1111757" transform="translate(31.705 127.289)">
              <g id="Grupo_1111756" data-name="Grupo 1111756">
                <g id="Grupo_1111755" data-name="Grupo 1111755" clip-path="url(#clip-path-8)">
                  <path id="Trazado_901925" data-name="Trazado 901925" d="M83.876,210.084a18.251,18.251,0,1,1-25.195-5.609l.015-.009a18.252,18.252,0,0,1,25.18,5.619" transform="translate(-50.22 -201.622)" fill="#fed6a8"/>
                </g>
              </g>
            </g>
            <path id="Trazado_901926" data-name="Trazado 901926" d="M74.029,222.919l-2.5-3.939a9.754,9.754,0,0,1,2.447-.783,8.05,8.05,0,0,1,1.374,0l-.032-.157-.291-1.806-.083-.41-1.169-.292-.247.362a8.8,8.8,0,0,0-3.36.988l-1.382-2.17-1.02-.116.344.543-.92.59,1.4,2.21c-2.862,2.225-3.2,4.912-1.943,6.873,1.726,2.713,4.5,1.944,7,1.092l2.478,3.907a8.846,8.846,0,0,1-4.856.975l.372,2.53a10.1,10.1,0,0,0,5.816-1.41l1.04,1.635-.754.5,1.088.03,1.6-1.033-1.386-2.191c2.87-2.256,3.239-4.92,1.98-6.9-1.693-2.692-4.489-1.874-7-1.029m-1.857.607c-1.346.384-2.455.493-3.057-.446s-.39-1.943.853-3.018Zm5.552,5.219-2.2-3.459c1.383-.413,2.531-.508,3.135.445.533.847.352,1.894-.939,3.014" transform="translate(-24.315 -79.117)" fill="#ff725e"/>
            <g id="Grupo_1111760" data-name="Grupo 1111760" transform="translate(41.637 135.481)" opacity="0.3">
              <g id="Grupo_1111759" data-name="Grupo 1111759">
                <g id="Grupo_1111758" data-name="Grupo 1111758" clip-path="url(#clip-path-9)">
                  <path id="Trazado_901927" data-name="Trazado 901927" d="M74.029,222.919l-2.5-3.939a9.754,9.754,0,0,1,2.447-.783,8.05,8.05,0,0,1,1.374,0l-.032-.157-.291-1.806-.083-.41-1.169-.292-.247.362a8.8,8.8,0,0,0-3.36.988l-1.382-2.17-1.02-.116.344.543-.92.59,1.4,2.21c-2.862,2.225-3.2,4.912-1.943,6.873,1.726,2.713,4.5,1.944,7,1.092l2.478,3.907a8.846,8.846,0,0,1-4.856.975l.372,2.53a10.1,10.1,0,0,0,5.816-1.41l1.04,1.635-.754.5,1.088.03,1.6-1.033-1.386-2.191c2.87-2.256,3.239-4.92,1.98-6.9-1.693-2.692-4.489-1.874-7-1.029m-1.857.607c-1.346.384-2.455.493-3.057-.446s-.39-1.943.853-3.018Zm5.552,5.219-2.2-3.459c1.383-.413,2.531-.508,3.135.445.533.847.352,1.894-.939,3.014" transform="translate(-65.953 -214.598)"/>
                </g>
              </g>
            </g>
            <path id="Trazado_901928" data-name="Trazado 901928" d="M77.5,230.753l1.393,2.189-1.6,1.033L75.918,231.8a10.065,10.065,0,0,1-5.821,1.417l-.372-2.529a8.918,8.918,0,0,0,4.857-.975L72.1,225.809c-2.506.845-5.277,1.614-7-1.1-1.268-1.994-.932-4.645,1.936-6.872l-1.4-2.21,1.6-1.033,1.375,2.172a9.894,9.894,0,0,1,4.715-1.324l.449,2.486a9.645,9.645,0,0,0-3.837.948l2.508,3.951c2.5-.852,5.3-1.669,7.021,1.052,1.27,1.965.905,4.614-1.979,6.873m-6.9-7.345-2.208-3.485c-1.253,1.1-1.393,2.172-.819,3.011s1.682.865,3.027.474m6.5,2.21c-.612-.959-1.753-.865-3.136-.452l2.2,3.459c1.284-1.119,1.472-2.167.941-3.007" transform="translate(-23.745 -79.116)" fill="#ff725e"/>
            <path id="Trazado_901929" data-name="Trazado 901929" d="M67.8,229.531a1.583,1.583,0,0,1-.744-.164,2.913,2.913,0,0,1-1.372-1.2,2.857,2.857,0,0,1-.36-1.792,1.489,1.489,0,0,1,.211-.754,4.776,4.776,0,0,0-.088.729,3.021,3.021,0,0,0,.4,1.686,3.078,3.078,0,0,0,1.273,1.167,6.994,6.994,0,0,0,.684.325" transform="translate(-24.077 -83.182)" fill="#fff"/>
            <path id="Trazado_901930" data-name="Trazado 901930" d="M68.294,218.06c-.048.009-.261-.239-.486-.614s-.37-.637-.33-.688.254.241.486.614.375.665.33.688" transform="translate(-24.875 -79.912)" fill="#fff"/>
            <path id="Trazado_901931" data-name="Trazado 901931" d="M354.509,83.847a20.379,20.379,0,1,1-25.884,12.673,20.378,20.378,0,0,1,25.884-12.673" transform="translate(-120.749 -30.505)" fill="#ff725e"/>
            <g id="Grupo_1111763" data-name="Grupo 1111763" transform="translate(206.991 52.233)" opacity="0.1">
              <g id="Grupo_1111762" data-name="Grupo 1111762">
                <g id="Grupo_1111761" data-name="Grupo 1111761" clip-path="url(#clip-path-10)">
                  <path id="Trazado_901932" data-name="Trazado 901932" d="M350.813,82.926a20.366,20.366,0,0,0-22.944,17.414v.007s14.1,2.587,18.3-2.657,4.648-14.763,4.648-14.763" transform="translate(-327.868 -82.735)" fill="#fff"/>
                </g>
              </g>
            </g>
            <path id="Trazado_901933" data-name="Trazado 901933" d="M353.268,87.55a15.452,15.452,0,1,1-17.383,13.241A15.451,15.451,0,0,1,353.268,87.55" transform="translate(-123.781 -32.225)" fill="#ff725e"/>
            <g id="Grupo_1111766" data-name="Grupo 1111766" transform="translate(211.963 55.183)" opacity="0.2">
              <g id="Grupo_1111765" data-name="Grupo 1111765">
                <g id="Grupo_1111764" data-name="Grupo 1111764" clip-path="url(#clip-path-11)">
                  <path id="Trazado_901934" data-name="Trazado 901934" d="M353.268,87.55a15.452,15.452,0,1,1-17.383,13.241A15.451,15.451,0,0,1,353.268,87.55" transform="translate(-335.744 -87.408)"/>
                </g>
              </g>
            </g>
            <path id="Trazado_901935" data-name="Trazado 901935" d="M366.467,108.754a15.284,15.284,0,1,1-13.078-17.209h.014a15.285,15.285,0,0,1,13.064,17.208" transform="translate(-123.889 -33.698)" fill="#ff725e"/>
            <g id="Grupo_1111769" data-name="Grupo 1111769" transform="translate(212.148 57.704)" opacity="0.2">
              <g id="Grupo_1111768" data-name="Grupo 1111768">
                <g id="Grupo_1111767" data-name="Grupo 1111767" clip-path="url(#clip-path-12)">
                  <path id="Trazado_901936" data-name="Trazado 901936" d="M366.467,108.754a15.284,15.284,0,1,1-13.078-17.209h.014a15.285,15.285,0,0,1,13.064,17.208" transform="translate(-336.037 -91.402)" fill="#fff"/>
                </g>
              </g>
            </g>
            <path id="Trazado_901937" data-name="Trazado 901937" d="M357.318,108.557l.532-3.869a8.189,8.189,0,0,1,1.989.823,6.708,6.708,0,0,1,.878.744l.065-.118.79-1.312.169-.307-.59-.818-.354.1a7.37,7.37,0,0,0-2.682-1.185l.29-2.135-.59-.625-.073.533-.908-.12-.3,2.169c-3.034-.124-4.7,1.412-4.958,3.345-.364,2.668,1.824,3.674,3.886,4.484l-.528,3.838a7.413,7.413,0,0,1-3.633-2l-1.129,1.819a8.449,8.449,0,0,0,4.48,2.242l-.218,1.607-.753-.088.679.608,1.581.2.3-2.15c3.055.109,4.731-1.4,5-3.343.372-2.636-1.857-3.626-3.917-4.441m-1.516-.615c-1.068-.482-1.836-1.013-1.713-1.939s.8-1.453,2.177-1.468Zm.729,6.339.466-3.4c1.107.484,1.893,1.044,1.764,1.98-.117.83-.8,1.4-2.23,1.419" transform="translate(-129.099 -36.813)" fill="#ff725e"/>
            <g id="Grupo_1111772" data-name="Grupo 1111772" transform="translate(221.069 63.038)" opacity="0.3">
              <g id="Grupo_1111771" data-name="Grupo 1111771">
                <g id="Grupo_1111770" data-name="Grupo 1111770" clip-path="url(#clip-path-13)">
                  <path id="Trazado_901938" data-name="Trazado 901938" d="M357.318,108.557l.532-3.869a8.189,8.189,0,0,1,1.989.823,6.708,6.708,0,0,1,.878.744l.065-.118.79-1.312.169-.307-.59-.818-.354.1a7.37,7.37,0,0,0-2.682-1.185l.29-2.135-.59-.625-.073.533-.908-.12-.3,2.169c-3.034-.124-4.7,1.412-4.958,3.345-.364,2.668,1.824,3.674,3.886,4.484l-.528,3.838a7.413,7.413,0,0,1-3.633-2l-1.129,1.819a8.449,8.449,0,0,0,4.48,2.242l-.218,1.607-.753-.088.679.608,1.581.2.3-2.15c3.055.109,4.731-1.4,5-3.343.372-2.636-1.857-3.626-3.917-4.441m-1.516-.615c-1.068-.482-1.836-1.013-1.713-1.939s.8-1.453,2.177-1.468Zm.729,6.339.466-3.4c1.107.484,1.893,1.044,1.764,1.98-.117.83-.8,1.4-2.23,1.419" transform="translate(-350.167 -99.851)"/>
                </g>
              </g>
            </g>
            <path id="Trazado_901939" data-name="Trazado 901939" d="M355.333,115.648l-.293,2.153-1.581-.205.295-2.132a8.427,8.427,0,0,1-4.489-2.241l1.129-1.819a7.474,7.474,0,0,0,3.633,2l.528-3.838c-2.059-.815-4.247-1.821-3.878-4.486.267-1.961,1.915-3.474,4.953-3.347l.3-2.169,1.581.2-.295,2.133a8.3,8.3,0,0,1,3.732,1.7l-1.057,1.833a8.066,8.066,0,0,0-2.967-1.468l-.533,3.883c2.063.81,4.292,1.8,3.921,4.47-.251,1.943-1.916,3.44-4.982,3.325m-.443-8.431.472-3.422c-1.395.025-2.065.636-2.151,1.482s.608,1.463,1.679,1.939m2.961,4.928c.127-.944-.653-1.5-1.761-1.985l-.466,3.4c1.426-.021,2.113-.59,2.227-1.414" transform="translate(-128.766 -36.708)" fill="#ff725e"/>
            <path id="Trazado_901940" data-name="Trazado 901940" d="M352.869,108.921a1.329,1.329,0,0,1-.388-.507,2.442,2.442,0,0,1-.23-1.508,2.4,2.4,0,0,1,.739-1.341,1.245,1.245,0,0,1,.543-.367,4.01,4.01,0,0,0-.451.419,2.529,2.529,0,0,0-.659,1.291,2.585,2.585,0,0,0,.183,1.436,5.845,5.845,0,0,0,.262.578" transform="translate(-129.854 -38.784)" fill="#fff"/>
            <path id="Trazado_901941" data-name="Trazado 901941" d="M359.944,101.781a1.466,1.466,0,0,1,.021-.655c.059-.361.108-.608.161-.619s.033.292-.021.655-.119.628-.161.619" transform="translate(-132.694 -37.054)" fill="#fff"/>
          </g>
        </g>
        <rect id="Rectángulo_404954" data-name="Rectángulo 404954" width="23.473" height="8.84" transform="translate(254.473 254.588)" fill="#ebebeb"/>
        <rect id="Rectángulo_404955" data-name="Rectángulo 404955" width="73.72" height="1.852" transform="translate(205.204 253.07)" fill="#455a64"/>
        <rect id="Rectángulo_404956" data-name="Rectángulo 404956" width="73.378" height="1.852" transform="translate(205.204 263.033)" fill="#455a64"/>
        <path id="Trazado_901942" data-name="Trazado 901942" d="M374.306,401.554l-.111,11.022H325.038V401.554Z" transform="translate(-119.834 -148.043)" fill="#455a64"/>
        <g id="Grupo_1111779" data-name="Grupo 1111779">
          <g id="Grupo_1111778" data-name="Grupo 1111778" clip-path="url(#clip-path)">
            <path id="Trazado_901943" data-name="Trazado 901943" d="M384.153,408.663a2.659,2.659,0,1,0,2.657-2.742,2.7,2.7,0,0,0-2.657,2.742" transform="translate(-141.628 -149.653)" fill="#263238"/>
            <path id="Trazado_901944" data-name="Trazado 901944" d="M383.5,408.433a3.07,3.07,0,1,1,3.07,3.137,3.107,3.107,0,0,1-3.07-3.137m.825,0a2.247,2.247,0,1,0,2.245-2.349,2.3,2.3,0,0,0-2.245,2.349" transform="translate(-141.387 -149.423)" fill="#e0e0e0"/>
            <path id="Trazado_901945" data-name="Trazado 901945" d="M405.872,413.71c0,.114,4.823.205,10.771.205s10.772-.092,10.772-.205-4.821-.205-10.772-.205-10.771.092-10.771.205" transform="translate(-149.635 -152.45)" fill="#263238"/>
            <path id="Trazado_901946" data-name="Trazado 901946" d="M405.872,411.271c0,.114,4.823.205,10.771.205s10.772-.092,10.772-.205-4.821-.205-10.772-.205-10.771.092-10.771.205" transform="translate(-149.635 -151.55)" fill="#263238"/>
            <path id="Trazado_901947" data-name="Trazado 901947" d="M405.872,408.831c0,.114,4.823.205,10.771.205s10.772-.092,10.772-.205-4.821-.205-10.772-.205-10.771.092-10.771.205" transform="translate(-149.635 -150.651)" fill="#263238"/>
            <path id="Trazado_901948" data-name="Trazado 901948" d="M405.872,406.392c0,.114,4.823.205,10.771.205s10.772-.092,10.772-.205-4.821-.205-10.772-.205-10.771.092-10.771.205" transform="translate(-149.635 -149.752)" fill="#263238"/>
            <rect id="Rectángulo_404957" data-name="Rectángulo 404957" width="22.153" height="5.898" transform="translate(210.655 255.855)" fill="#fff"/>
            <path id="Trazado_901949" data-name="Trazado 901949" d="M363.17,410.916a12.965,12.965,0,0,0,0-4.7,12.972,12.972,0,0,0,0,4.7" transform="translate(-133.813 -149.762)" fill="#e0e0e0"/>
            <path id="Trazado_901950" data-name="Trazado 901950" d="M358.531,410.916a12.968,12.968,0,0,0,0-4.7,12.968,12.968,0,0,0,0,4.7" transform="translate(-132.103 -149.762)" fill="#e0e0e0"/>
            <path id="Trazado_901951" data-name="Trazado 901951" d="M353.891,410.916a12.968,12.968,0,0,0,0-4.7,12.968,12.968,0,0,0,0,4.7" transform="translate(-130.392 -149.762)" fill="#e0e0e0"/>
            <path id="Trazado_901952" data-name="Trazado 901952" d="M349.251,410.916a12.97,12.97,0,0,0,0-4.7,12.968,12.968,0,0,0,0,4.7" transform="translate(-128.681 -149.762)" fill="#e0e0e0"/>
            <path id="Trazado_901953" data-name="Trazado 901953" d="M344.612,410.916a12.97,12.97,0,0,0,0-4.7,12.968,12.968,0,0,0,0,4.7" transform="translate(-126.971 -149.762)" fill="#e0e0e0"/>
            <path id="Trazado_901954" data-name="Trazado 901954" d="M339.972,410.916a12.967,12.967,0,0,0,0-4.7,12.97,12.97,0,0,0,0,4.7" transform="translate(-125.26 -149.762)" fill="#e0e0e0"/>
            <path id="Trazado_901955" data-name="Trazado 901955" d="M402.425,412.7a79.893,79.893,0,0,0,0-11.705,79.882,79.882,0,0,0,0,11.705" transform="translate(-148.285 -147.836)" fill="#263238"/>
            <rect id="Rectángulo_404958" data-name="Rectángulo 404958" width="23.473" height="8.84" transform="translate(251.354 266.077)" fill="#ebebeb"/>
            <rect id="Rectángulo_404959" data-name="Rectángulo 404959" width="73.72" height="1.852" transform="translate(202.085 264.559)" fill="#ff725e"/>
            <rect id="Rectángulo_404960" data-name="Rectángulo 404960" width="73.378" height="1.852" transform="translate(202.085 274.523)" fill="#ff725e"/>
            <path id="Trazado_901956" data-name="Trazado 901956" d="M369.366,419.753l-.111,11.022H320.1V419.753Z" transform="translate(-118.013 -154.753)" fill="#fd9826"/>
            <path id="Trazado_901957" data-name="Trazado 901957" d="M379.213,426.863a2.659,2.659,0,1,0,2.657-2.742,2.7,2.7,0,0,0-2.657,2.742" transform="translate(-139.807 -156.363)" fill="#263238"/>
            <path id="Trazado_901958" data-name="Trazado 901958" d="M378.561,426.632a3.07,3.07,0,1,1,3.069,3.137,3.107,3.107,0,0,1-3.069-3.137m.824,0a2.247,2.247,0,1,0,2.245-2.349,2.3,2.3,0,0,0-2.245,2.349" transform="translate(-139.567 -156.133)" fill="#e0e0e0"/>
            <path id="Trazado_901959" data-name="Trazado 901959" d="M400.932,431.909c0,.114,4.823.205,10.771.205s10.772-.092,10.772-.205-4.822-.205-10.772-.205-10.771.092-10.771.205" transform="translate(-147.814 -159.159)" fill="#263238"/>
            <path id="Trazado_901960" data-name="Trazado 901960" d="M400.932,429.47c0,.114,4.823.205,10.771.205s10.772-.092,10.772-.205-4.822-.205-10.772-.205-10.771.092-10.771.205" transform="translate(-147.814 -158.26)" fill="#263238"/>
            <path id="Trazado_901961" data-name="Trazado 901961" d="M400.932,427.031c0,.114,4.823.205,10.771.205s10.772-.092,10.772-.205-4.822-.205-10.772-.205-10.771.092-10.771.205" transform="translate(-147.814 -157.361)" fill="#263238"/>
            <path id="Trazado_901962" data-name="Trazado 901962" d="M400.932,424.592c0,.113,4.823.205,10.771.205s10.772-.092,10.772-.205-4.822-.205-10.772-.205-10.771.092-10.771.205" transform="translate(-147.814 -156.461)" fill="#263238"/>
            <rect id="Rectángulo_404961" data-name="Rectángulo 404961" width="22.153" height="5.898" transform="translate(207.536 267.344)" fill="#fff"/>
            <path id="Trazado_901963" data-name="Trazado 901963" d="M358.23,429.116a12.97,12.97,0,0,0,0-4.7,12.969,12.969,0,0,0,0,4.7" transform="translate(-131.992 -156.472)" fill="#e0e0e0"/>
            <path id="Trazado_901964" data-name="Trazado 901964" d="M353.591,429.116a12.97,12.97,0,0,0,0-4.7,12.969,12.969,0,0,0,0,4.7" transform="translate(-130.281 -156.472)" fill="#e0e0e0"/>
            <path id="Trazado_901965" data-name="Trazado 901965" d="M348.951,429.116a12.969,12.969,0,0,0,0-4.7,12.97,12.97,0,0,0,0,4.7" transform="translate(-128.571 -156.472)" fill="#e0e0e0"/>
            <path id="Trazado_901966" data-name="Trazado 901966" d="M344.311,429.116a12.969,12.969,0,0,0,0-4.7,12.97,12.97,0,0,0,0,4.7" transform="translate(-126.86 -156.472)" fill="#e0e0e0"/>
            <path id="Trazado_901967" data-name="Trazado 901967" d="M339.672,429.116a12.969,12.969,0,0,0,0-4.7,12.97,12.97,0,0,0,0,4.7" transform="translate(-125.15 -156.472)" fill="#e0e0e0"/>
            <path id="Trazado_901968" data-name="Trazado 901968" d="M335.032,429.116a12.967,12.967,0,0,0,0-4.7,12.969,12.969,0,0,0,0,4.7" transform="translate(-123.439 -156.472)" fill="#e0e0e0"/>
            <path id="Trazado_901969" data-name="Trazado 901969" d="M397.485,430.9a79.882,79.882,0,0,0,0-11.705,79.916,79.916,0,0,0,0,11.705" transform="translate(-146.464 -154.545)" fill="#263238"/>
            <path id="Trazado_901970" data-name="Trazado 901970" d="M326.05,371.942v-2.878l63.007.125h3.64v2.795h-3.64V389.22H321.01V371.942Z" transform="translate(-118.349 -136.065)" fill="#ebebeb"/>
            <path id="Trazado_901971" data-name="Trazado 901971" d="M395.675,373.564c0,.091-14.908.145-33.292.121s-33.295-.118-33.295-.209,14.9-.145,33.3-.12,33.291.117,33.291.208" transform="translate(-121.327 -137.645)" fill="#263238"/>
            <path id="Trazado_901972" data-name="Trazado 901972" d="M389.056,379.691c0,.091-15.234.155-34.022.142s-34.025-.1-34.025-.186,15.231-.155,34.025-.142,34.022.1,34.022.186" transform="translate(-118.348 -139.914)" fill="#263238"/>
            <path id="Trazado_901973" data-name="Trazado 901973" d="M389.056,385.909c0,.091-15.234.155-34.022.143s-34.025-.1-34.025-.187,15.231-.155,34.025-.142,34.022.1,34.022.186" transform="translate(-118.348 -142.206)" fill="#263238"/>
            <path id="Trazado_901974" data-name="Trazado 901974" d="M389.056,392.127c0,.091-15.234.155-34.022.143s-34.025-.1-34.025-.187,15.231-.154,34.025-.142,34.022.1,34.022.186" transform="translate(-118.348 -144.499)" fill="#263238"/>
            <path id="Trazado_901975" data-name="Trazado 901975" d="M389.056,398.346c0,.091-15.234.155-34.022.142s-34.025-.1-34.025-.186,15.231-.155,34.025-.142,34.022.1,34.022.186" transform="translate(-118.348 -146.792)" fill="#263238"/>
            <g id="Grupo_1111777" data-name="Grupo 1111777" transform="translate(202.661 232.998)" opacity="0.3">
              <g id="Grupo_1111776" data-name="Grupo 1111776">
                <g id="Grupo_1111775" data-name="Grupo 1111775" clip-path="url(#clip-path-15)">
                  <path id="Trazado_901976" data-name="Trazado 901976" d="M341.5,389.22V369.064H326.05v2.878h-5.04V389.22Z" transform="translate(-321.01 -369.064)"/>
                </g>
              </g>
            </g>
          </g>
        </g>
        <g id="Grupo_1111781" data-name="Grupo 1111781">
          <g id="Grupo_1111780" data-name="Grupo 1111780" clip-path="url(#clip-path)">
            <path id="Trazado_901977" data-name="Trazado 901977" d="M395.692,252.354l-42.763-6.864a3.962,3.962,0,0,0-4.54,3.283l-6.864,42.763a3.961,3.961,0,0,0,3.284,4.539l1.278.205,11.9,1.91,29.585,4.749a3.963,3.963,0,0,0,4.54-3.284l6.864-42.762a3.962,3.962,0,0,0-3.284-4.54" transform="translate(-125.894 -90.488)" fill="#fff"/>
            <path id="Trazado_901978" data-name="Trazado 901978" d="M349.362,260.8l50.586,8.12,1.982-12.346a3.673,3.673,0,0,0-3.044-4.208l-43.481-6.979a3.523,3.523,0,0,0-4.038,2.92Z" transform="translate(-128.802 -90.451)" fill="#d8ad87"/>
            <path id="Trazado_901979" data-name="Trazado 901979" d="M377.842,284.974l-2.76,17.2-3.98-.638,2.247-14-3.439-.552.513-3.193Z" transform="translate(-136.377 -104.624)" fill="#263238"/>
            <path id="Trazado_901980" data-name="Trazado 901980" d="M399.932,288.563l-.414,2.58-8.734,13.591-4.323-.694,8.406-12.964-5.7-.915-.449,2.8-3.537-.568.97-6.044Z" transform="translate(-142.007 -105.571)" fill="#263238"/>
            <path id="Trazado_901981" data-name="Trazado 901981" d="M379.991,263.5c-.014.09,3.45.72,7.736,1.408s7.775,1.174,7.789,1.084-3.448-.72-7.737-1.408-7.773-1.174-7.788-1.084" transform="translate(-140.094 -97.144)" fill="#263238"/>
            <path id="Trazado_901982" data-name="Trazado 901982" d="M395.611,252.287a3.5,3.5,0,0,1,.5.1,3.793,3.793,0,0,1,1.339.676,3.99,3.99,0,0,1,1.514,3.558c-.066.557-.172,1.136-.264,1.756-.785,4.958-1.92,12.12-3.321,20.969-.705,4.426-1.478,9.274-2.307,14.478l-.633,3.969c-.113.674-.2,1.345-.337,2.037a4.059,4.059,0,0,1-2.807,3.038,4.408,4.408,0,0,1-2.182.069l-4.333-.693-38.07-6.1a4.124,4.124,0,0,1-3.422-3.537,4.4,4.4,0,0,1,.04-1.3l.2-1.244.4-2.475q.793-4.933,1.561-9.713c1.025-6.368,2.014-12.51,2.956-18.361l1.378-8.55q.168-1.039.333-2.063a5.254,5.254,0,0,1,.252-1.025,4.074,4.074,0,0,1,4.088-2.612c5.229.806,10.056,1.614,14.486,2.323L387.934,251l5.695.941,1.48.251c.333.059.5.1.5.1s-.172-.018-.507-.067L393.62,252l-5.7-.889-20.967-3.321c-4.422-.7-9.282-1.5-14.471-2.287a3.916,3.916,0,0,0-1.881.352,3.895,3.895,0,0,0-1.966,2.115,4.978,4.978,0,0,0-.237.979q-.164,1.024-.33,2.064L346.7,259.56c-.937,5.852-1.92,11.995-2.939,18.363q-.765,4.776-1.557,9.714-.2,1.233-.4,2.475a9.462,9.462,0,0,0-.237,2.463,3.843,3.843,0,0,0,3.189,3.3l38.066,6.121,4.332.7a4.155,4.155,0,0,0,2.07-.059,3.851,3.851,0,0,0,1.721-1.075,3.813,3.813,0,0,0,.92-1.777c.13-.665.225-1.355.338-2.023q.326-2.016.641-3.968c.841-5.2,1.625-10.047,2.34-14.472,1.439-8.843,2.6-16,3.409-20.955.1-.618.208-1.2.276-1.749a3.89,3.89,0,0,0-.13-1.523,3.94,3.94,0,0,0-1.323-1.98,3.884,3.884,0,0,0-1.312-.692,3.673,3.673,0,0,0-.369-.1c-.083-.02-.124-.034-.124-.034" transform="translate(-125.813 -90.421)" fill="#263238"/>
            <path id="Trazado_901983" data-name="Trazado 901983" d="M379.092,252.6l.109.018a1.613,1.613,0,0,0,1.847-1.337l1.323-8.242a1.612,1.612,0,0,0-1.336-1.847l-.109-.017a1.61,1.61,0,0,0-1.846,1.336l-1.324,8.242a1.612,1.612,0,0,0,1.336,1.847" transform="translate(-139.262 -88.906)" fill="#e0e0e0"/>
            <path id="Trazado_901984" data-name="Trazado 901984" d="M379.04,252.5a2.064,2.064,0,0,1-.874-.535,1.557,1.557,0,0,1-.389-1.089c.051-.457.172-1.018.268-1.616.207-1.224.449-2.657.716-4.238.131-.8.268-1.637.411-2.5a1.462,1.462,0,0,1,1.785-1.265,1.458,1.458,0,0,1,1,.668,1.532,1.532,0,0,1,.172,1.182l-.393,2.508c-.241,1.586-.46,3.022-.647,4.249-.044.3-.086.588-.127.863a4.167,4.167,0,0,1-.14.745,1.572,1.572,0,0,1-.772.862,2.129,2.129,0,0,1-1.012.168.7.7,0,0,0,.271.068,1.6,1.6,0,0,0,.795-.12,1.694,1.694,0,0,0,.89-.913,4.211,4.211,0,0,0,.174-.777c.048-.273.1-.561.15-.86.206-1.224.449-2.657.716-4.238.131-.8.269-1.637.412-2.5a1.857,1.857,0,0,0-.211-1.405,1.784,1.784,0,0,0-1.227-.82,1.781,1.781,0,0,0-2.153,1.537c-.136.868-.268,1.706-.393,2.507l-.647,4.249c-.082.612-.184,1.139-.222,1.648a1.672,1.672,0,0,0,.479,1.181,1.555,1.555,0,0,0,.691.411.613.613,0,0,0,.276.037" transform="translate(-139.21 -88.811)" fill="#263238"/>
            <path id="Trazado_901985" data-name="Trazado 901985" d="M403.553,256.523l.109.018a1.612,1.612,0,0,0,1.847-1.337l1.323-8.242a1.613,1.613,0,0,0-1.336-1.847l-.109-.017a1.612,1.612,0,0,0-1.847,1.336l-1.323,8.242a1.612,1.612,0,0,0,1.336,1.847" transform="translate(-148.28 -90.354)" fill="#e0e0e0"/>
            <path id="Trazado_901986" data-name="Trazado 901986" d="M403.5,256.428a2.059,2.059,0,0,1-.874-.535,1.554,1.554,0,0,1-.389-1.089c.05-.457.171-1.018.268-1.616.206-1.224.449-2.657.716-4.238.131-.8.269-1.637.412-2.5a1.461,1.461,0,0,1,1.784-1.265,1.459,1.459,0,0,1,1,.668,1.529,1.529,0,0,1,.171,1.182c-.136.869-.267,1.707-.393,2.508-.241,1.586-.46,3.022-.646,4.249l-.127.863a4.226,4.226,0,0,1-.139.745,1.576,1.576,0,0,1-.772.862,2.129,2.129,0,0,1-1.012.168.715.715,0,0,0,.27.068,1.6,1.6,0,0,0,.8-.12,1.694,1.694,0,0,0,.89-.913,4.213,4.213,0,0,0,.174-.777c.048-.273.1-.561.15-.86.206-1.224.448-2.657.715-4.238.132-.8.27-1.637.412-2.5a1.855,1.855,0,0,0-.211-1.405,1.781,1.781,0,0,0-1.227-.82,1.781,1.781,0,0,0-2.153,1.537c-.136.868-.267,1.706-.393,2.507l-.647,4.249c-.083.612-.185,1.139-.222,1.648a1.669,1.669,0,0,0,.478,1.181,1.554,1.554,0,0,0,.691.411.615.615,0,0,0,.276.037" transform="translate(-148.228 -90.259)" fill="#263238"/>
          </g>
        </g>
        <g id="Grupo_1111783" data-name="Grupo 1111783">
          <g id="Grupo_1111782" data-name="Grupo 1111782" clip-path="url(#clip-path)">
            <path id="Trazado_901987" data-name="Trazado 901987" d="M374.48,173.982v-58.01a3.55,3.55,0,0,0-3.55-3.551H281.386a3.55,3.55,0,0,0-3.55,3.551v58.01a3.55,3.55,0,0,0,3.55,3.55H370.93a3.55,3.55,0,0,0,3.55-3.55" transform="translate(-102.432 -41.447)" fill="#fff"/>
            <path id="Trazado_901988" data-name="Trazado 901988" d="M370.433,191.223h-89.19a3.658,3.658,0,0,1-3.658-3.658V149.1H374.52v38.042a4.087,4.087,0,0,1-4.087,4.087" transform="translate(-102.339 -54.968)" fill="#e0e0e0"/>
            <path id="Trazado_901989" data-name="Trazado 901989" d="M418.318,200.2H405.452v-26.75h16.073V197a3.207,3.207,0,0,1-3.207,3.208" transform="translate(-149.481 -63.948)" fill="#ff725e"/>
            <rect id="Rectángulo_404965" data-name="Rectángulo 404965" width="47.988" height="11.589" transform="translate(193.189 124.667)" fill="#f5f5f5"/>
            <path id="Trazado_901990" data-name="Trazado 901990" d="M346.228,182v.51l-2.124,4.742h-.795l2.078-4.6h-2.4v.938h-.72V182Z" transform="translate(-126.186 -67.099)" fill="#263238"/>
            <path id="Trazado_901991" data-name="Trazado 901991" d="M370.991,185.733c0,.953-.811,1.545-2.093,1.545s-2.079-.593-2.079-1.545a1.3,1.3,0,0,1,.923-1.268,1.188,1.188,0,0,1-.735-1.133c0-.878.758-1.426,1.891-1.426s1.906.547,1.906,1.426a1.194,1.194,0,0,1-.743,1.133,1.307,1.307,0,0,1,.931,1.268m-.751-.023c0-.578-.51-.938-1.343-.938s-1.328.36-1.328.938c0,.593.495.96,1.328.96s1.343-.367,1.343-.96m-2.491-2.349c0,.518.428.84,1.148.84s1.17-.323,1.17-.84-.465-.848-1.17-.848-1.148.323-1.148.848" transform="translate(-135.238 -67.064)" fill="#263238"/>
            <path id="Trazado_901992" data-name="Trazado 901992" d="M292.041,203.724c0,1.794-1.013,2.754-2.484,2.754a2.533,2.533,0,0,1-1.306-.307l.285-.585a1.851,1.851,0,0,0,1.013.247c1.066,0,1.741-.668,1.741-1.981v-.187a1.751,1.751,0,0,1-1.515.69,1.616,1.616,0,0,1-1.794-1.591,1.692,1.692,0,0,1,1.853-1.658c1.411,0,2.206.946,2.206,2.619m-.923-1c0-.54-.435-1.013-1.253-1.013a1.033,1.033,0,0,0-1.155,1.02c0,.616.458,1.013,1.193,1.013a1.093,1.093,0,0,0,1.216-1.021" transform="translate(-106.172 -74.143)" fill="#263238"/>
            <path id="Trazado_901993" data-name="Trazado 901993" d="M370.784,163.461h-1v1.29h-.727v-1.29H366.14v-.525l2.686-3.436h.811l-2.574,3.316h2.018v-1.141h.705v1.141h1Z" transform="translate(-134.987 -58.804)" fill="#263238"/>
            <path id="Trazado_901994" data-name="Trazado 901994" d="M292.012,184.053c0,.908-.645,1.636-1.989,1.636a3.008,3.008,0,0,1-1.928-.638l.345-.593a2.357,2.357,0,0,0,1.575.563c.8,0,1.246-.367,1.246-.938,0-.593-.375-.961-1.59-.961h-1.193l.278-2.746h2.964v.653h-2.334l-.143,1.441h.585c1.568,0,2.184.653,2.184,1.583" transform="translate(-106.214 -66.5)" fill="#263238"/>
            <path id="Trazado_901995" data-name="Trazado 901995" d="M319.537,183.961a1.7,1.7,0,0,1-1.861,1.658c-1.411,0-2.206-.945-2.206-2.619,0-1.793,1.013-2.754,2.484-2.754a2.527,2.527,0,0,1,1.306.308l-.285.585a1.821,1.821,0,0,0-1.005-.248c-1.066,0-1.749.668-1.749,1.981a1.611,1.611,0,0,0,.008.188,1.749,1.749,0,0,1,1.508-.69,1.623,1.623,0,0,1,1.8,1.59m-.728.03c0-.616-.465-1.013-1.2-1.013A1.09,1.09,0,0,0,316.4,184c0,.54.436,1.013,1.246,1.013a1.04,1.04,0,0,0,1.163-1.021" transform="translate(-116.306 -66.453)" fill="#263238"/>
            <path id="Trazado_901996" data-name="Trazado 901996" d="M291.443,159v5.253H290.7v-4.6h-1.186V159Z" transform="translate(-106.737 -58.621)" fill="#263238"/>
            <path id="Trazado_901997" data-name="Trazado 901997" d="M320.054,164.112v.653H316.28v-.51l2.138-2.064c.555-.54.66-.87.66-1.2,0-.54-.383-.871-1.118-.871a1.651,1.651,0,0,0-1.343.57l-.51-.443a2.423,2.423,0,0,1,1.921-.8c1.1,0,1.8.563,1.8,1.463a2.128,2.128,0,0,1-.862,1.651l-1.606,1.545Z" transform="translate(-116.541 -58.786)" fill="#263238"/>
            <path id="Trazado_901998" data-name="Trazado 901998" d="M345.2,163.159c0,.886-.653,1.606-1.989,1.606a2.978,2.978,0,0,1-1.928-.638l.345-.593a2.363,2.363,0,0,0,1.583.563c.788,0,1.238-.36,1.238-.93s-.4-.916-1.3-.916h-.42v-.525l1.32-1.621h-2.528v-.653h3.467v.51l-1.373,1.7c1.051.1,1.583.69,1.583,1.5" transform="translate(-125.822 -58.786)" fill="#263238"/>
            <path id="Trazado_901999" data-name="Trazado 901999" d="M341.321,206.136c0-1.71.915-2.686,2.146-2.686s2.139.976,2.139,2.686-.916,2.686-2.139,2.686-2.146-.975-2.146-2.686m3.534,0c0-1.343-.57-2.018-1.388-2.018s-1.4.676-1.4,2.018.57,2.018,1.4,2.018,1.388-.675,1.388-2.018" transform="translate(-125.837 -75.007)" fill="#263238"/>
            <path id="Trazado_902000" data-name="Trazado 902000" d="M394.467,207a1.525,1.525,0,0,1,.128-.54l.353-1.043h.473l-.278,1.118a.477.477,0,0,1,.315.465.491.491,0,0,1-.5.51.483.483,0,0,1-.488-.51" transform="translate(-145.431 -75.733)" fill="#263238"/>
            <rect id="Rectángulo_404966" data-name="Rectángulo 404966" width="5.124" height="0.539" transform="translate(261.446 120.506)" fill="#263238"/>
            <rect id="Rectángulo_404967" data-name="Rectángulo 404967" width="5.124" height="0.539" transform="translate(261.446 122.131)" fill="#263238"/>
            <rect id="Rectángulo_404968" data-name="Rectángulo 404968" width="3.837" height="0.404" transform="translate(262.687 103.12)" fill="#263238"/>
            <path id="Trazado_902001" data-name="Trazado 902001" d="M420.008,163.826h-4.231v-.8h4.231Zm-3.836-.395,3.441-.009Z" transform="translate(-153.287 -60.104)" fill="#263238"/>
            <rect id="Rectángulo_404969" data-name="Rectángulo 404969" width="0.404" height="3.837" transform="translate(264.403 101.404)" fill="#263238"/>
            <path id="Trazado_902002" data-name="Trazado 902002" d="M419.294,164.539h-.8v-4.231h.8Zm-.4-.395h.009l-.009-3.442Z" transform="translate(-154.289 -59.102)" fill="#263238"/>
            <path id="Trazado_902003" data-name="Trazado 902003" d="M395.009,184.336l-.564-.565-1.214,1.214-1.213-1.214-.565.565,1.213,1.214-1.213,1.213.565.564,1.213-1.213,1.213,1.213.565-.565-1.213-1.213Z" transform="translate(-144.319 -67.752)" fill="#263238"/>
            <rect id="Rectángulo_404970" data-name="Rectángulo 404970" width="3.837" height="0.404" transform="translate(247.273 103.12)" fill="#263238"/>
            <path id="Trazado_902004" data-name="Trazado 902004" d="M395.592,163.826h-4.231v-.8h4.231Zm-3.836-.395,3.441-.009Z" transform="translate(-144.286 -60.104)" fill="#263238"/>
            <path id="Trazado_902005" data-name="Trazado 902005" d="M373.805,125.125v9.845h-.718v-9.2h-2.4v-.647Z" transform="translate(-136.662 -46.13)" fill="#263238"/>
            <path id="Trazado_902006" data-name="Trazado 902006" d="M386.164,125.125v.506l-4.234,9.339h-.788l4.191-9.2h-5.527v1.885h-.7v-2.532Z" transform="translate(-139.766 -46.13)" fill="#263238"/>
            <path id="Trazado_902007" data-name="Trazado 902007" d="M398.3,132.2c0,1.632-1.181,2.841-3.446,2.841a4.733,4.733,0,0,1-3.474-1.322l.366-.549a4.2,4.2,0,0,0,3.109,1.21c1.772,0,2.715-.843,2.715-2.18s-.9-2.181-2.869-2.181h-.619v-.52l2.911-3.727h-5.246v-.647h6.175v.506l-2.954,3.784c2.236.056,3.333,1.181,3.333,2.785" transform="translate(-144.291 -46.131)" fill="#263238"/>
            <path id="Trazado_902008" data-name="Trazado 902008" d="M412.107,132.228c0,1.716-1.42,2.771-3.741,2.771s-3.713-1.055-3.713-2.771a2.47,2.47,0,0,1,2.1-2.448A2.25,2.25,0,0,1,405,127.559c0-1.575,1.322-2.546,3.362-2.546s3.39.97,3.39,2.546a2.261,2.261,0,0,1-1.772,2.222,2.493,2.493,0,0,1,2.124,2.448m-.717,0c0-1.308-1.126-2.138-3.024-2.138s-3,.83-3,2.138,1.1,2.152,3,2.152,3.024-.83,3.024-2.152m-3.024-2.729c1.674,0,2.672-.746,2.672-1.913,0-1.21-1.041-1.955-2.672-1.955s-2.644.746-2.644,1.941.97,1.927,2.644,1.927" transform="translate(-149.186 -46.089)" fill="#263238"/>
            <path id="Trazado_902009" data-name="Trazado 902009" d="M287.424,119.3a1.567,1.567,0,1,1-1.128-1.128,1.569,1.569,0,0,1,1.128,1.128" transform="translate(-104.83 -43.548)" fill="#e0e0e0"/>
            <path id="Trazado_902010" data-name="Trazado 902010" d="M295.778,119.3a1.567,1.567,0,1,1-1.128-1.128,1.569,1.569,0,0,1,1.128,1.128" transform="translate(-107.91 -43.548)" fill="#e0e0e0"/>
            <path id="Trazado_902011" data-name="Trazado 902011" d="M303.447,119.3a1.567,1.567,0,1,1-1.128-1.128,1.569,1.569,0,0,1,1.128,1.128" transform="translate(-110.738 -43.548)" fill="#e0e0e0"/>
            <path id="Trazado_902012" data-name="Trazado 902012" d="M277.687,173.983s.008.072.017.213a3.6,3.6,0,0,0,.092.624,3.637,3.637,0,0,0,1.263,2.027,3.249,3.249,0,0,0,1.571.691,6.157,6.157,0,0,0,1,.039l1.092,0,5.229-.013,33.323-.044,49.421-.03a3.3,3.3,0,0,0,2.946-1.455,3.623,3.623,0,0,0,.608-1.664c.041-.6.011-1.246.02-1.868q0-3.777,0-7.638,0-7.721,0-15.753c0-10.7,0-21.78,0-33.127a3.521,3.521,0,0,0-2-3.22,3.4,3.4,0,0,0-.926-.258c-.314-.031-.65-.023-.982-.023h-9.889l-15.44,0-29.189-.008-26.413-.013-6.1,0h-1.49a5.966,5.966,0,0,0-1.446.09,3.391,3.391,0,0,0-2.185,1.745,3.663,3.663,0,0,0-.393,1.4c-.028.484-.008,1-.014,1.49q0,1.491,0,2.951,0,2.92,0,5.71c-.018,14.872-.032,26.908-.042,35.23-.011,4.157-.019,7.385-.025,9.578-.006,1.092-.01,1.926-.013,2.491s-.013.849-.013.849-.009-.287-.013-.849-.008-1.4-.013-2.491c-.006-2.194-.014-5.422-.025-9.578-.01-8.322-.025-20.358-.042-35.23q0-2.79,0-5.71,0-1.46,0-2.951c.006-.5-.015-.989.013-1.507a3.887,3.887,0,0,1,.415-1.485,3.6,3.6,0,0,1,2.318-1.855,6.149,6.149,0,0,1,1.492-.1h1.49l6.1,0,26.413-.013,29.189-.008,15.44,0h9.889c.331,0,.662-.009,1.012.025a3.634,3.634,0,0,1,1,.278,3.8,3.8,0,0,1,2.164,3.476c0,11.347,0,22.427,0,33.127q0,8.026,0,15.753,0,3.861,0,7.638c-.01.635.021,1.244-.023,1.9a3.893,3.893,0,0,1-.654,1.788,3.543,3.543,0,0,1-3.145,1.561l-49.421-.03-33.323-.044-5.229-.013-1.092,0a6.235,6.235,0,0,1-1.006-.045,3.3,3.3,0,0,1-1.594-.716,3.646,3.646,0,0,1-1.256-2.064,3.358,3.358,0,0,1-.08-.63c0-.142,0-.214,0-.214" transform="translate(-102.339 -41.365)" fill="#263238"/>
            <path id="Trazado_902013" data-name="Trazado 902013" d="M305.912,191.619c-.091,0-.164-9.359-.164-20.9s.073-20.9.164-20.9.164,9.357.164,20.9-.073,20.9-.164,20.9" transform="translate(-112.722 -55.234)" fill="#263238"/>
            <path id="Trazado_902014" data-name="Trazado 902014" d="M331.791,179.9c-.091,0-.164-6.735-.164-15.042s.073-15.043.164-15.043.164,6.734.164,15.043-.073,15.042-.164,15.042" transform="translate(-122.263 -55.234)" fill="#263238"/>
            <path id="Trazado_902015" data-name="Trazado 902015" d="M357.522,179.9c-.091,0-.164-6.735-.164-15.042s.073-15.043.164-15.043.164,6.734.164,15.043-.073,15.042-.164,15.042" transform="translate(-131.749 -55.234)" fill="#263238"/>
            <path id="Trazado_902016" data-name="Trazado 902016" d="M381.922,191.6c-.091,0-.165-9.354-.165-20.889s.074-20.891.165-20.891.164,9.352.164,20.891-.073,20.889-.164,20.889" transform="translate(-140.745 -55.234)" fill="#263238"/>
            <path id="Trazado_902017" data-name="Trazado 902017" d="M405.356,191.6c-.091,0-.164-9.354-.164-20.889s.073-20.891.164-20.891.164,9.352.164,20.891-.073,20.889-.164,20.889" transform="translate(-149.385 -55.234)" fill="#263238"/>
            <path id="Trazado_902018" data-name="Trazado 902018" d="M278.144,173.753c0-.091,21.543-.164,48.11-.164s48.115.073,48.115.164-21.538.164-48.115.164-48.11-.073-48.11-.164" transform="translate(-102.545 -63.998)" fill="#263238"/>
            <path id="Trazado_902019" data-name="Trazado 902019" d="M278.144,197.581c0-.091,17.993-.165,40.184-.165s40.188.074,40.188.165-17.99.164-40.188.164-40.184-.073-40.184-.164" transform="translate(-102.545 -72.783)" fill="#263238"/>
          </g>
        </g>
        <g id="Grupo_1111785" data-name="Grupo 1111785">
          <g id="Grupo_1111784" data-name="Grupo 1111784" clip-path="url(#clip-path)">
            <path id="Trazado_902020" data-name="Trazado 902020" d="M152.5,112.116H46.012a3.33,3.33,0,0,1-3.33-3.33v-64.7a3.33,3.33,0,0,1,3.33-3.33H152.5a3.33,3.33,0,0,1,3.33,3.33v64.7a3.33,3.33,0,0,1-3.33,3.33" transform="translate(-15.736 -15.026)" fill="#fff"/>
            <path id="Trazado_902021" data-name="Trazado 902021" d="M152.313,112.247H45.828a3.65,3.65,0,0,1-3.646-3.646V43.9a3.65,3.65,0,0,1,3.646-3.646H152.313a3.65,3.65,0,0,1,3.647,3.646v64.7a3.65,3.65,0,0,1-3.647,3.646M45.828,40.888A3.018,3.018,0,0,0,42.813,43.9v64.7a3.018,3.018,0,0,0,3.015,3.015H152.313a3.018,3.018,0,0,0,3.015-3.015V43.9a3.018,3.018,0,0,0-3.015-3.015Z" transform="translate(-15.552 -14.842)" fill="#263238"/>
            <path id="Trazado_902022" data-name="Trazado 902022" d="M153.732,109.2H52.739V65.968H153.732ZM52.968,109H153.5V66.175H52.968Z" transform="translate(-19.444 -24.321)" fill="#ebebeb"/>
            <rect id="Rectángulo_404972" data-name="Rectángulo 404972" width="100.765" height="0.207" transform="translate(33.41 77.504)" fill="#ebebeb"/>
            <rect id="Rectángulo_404973" data-name="Rectángulo 404973" width="100.765" height="0.207" transform="translate(33.41 70.332)" fill="#ebebeb"/>
            <rect id="Rectángulo_404974" data-name="Rectángulo 404974" width="100.765" height="0.207" transform="translate(33.41 63.161)" fill="#ebebeb"/>
            <rect id="Rectángulo_404975" data-name="Rectángulo 404975" width="100.765" height="0.207" transform="translate(33.41 55.99)" fill="#ebebeb"/>
            <rect id="Rectángulo_404976" data-name="Rectángulo 404976" width="100.765" height="0.207" transform="translate(33.41 48.818)" fill="#ebebeb"/>
            <rect id="Rectángulo_404977" data-name="Rectángulo 404977" width="3.321" height="29.083" transform="translate(42.96 55.544)" fill="#fd9826"/>
            <rect id="Rectángulo_404978" data-name="Rectángulo 404978" width="4.102" height="36.115" transform="translate(48.214 48.511)" fill="#455a64"/>
            <rect id="Rectángulo_404979" data-name="Rectángulo 404979" width="3.32" height="8.252" transform="translate(66.194 76.374)" fill="#fd9826"/>
            <rect id="Rectángulo_404980" data-name="Rectángulo 404980" width="3.32" height="25.247" transform="translate(71.448 59.38)" fill="#455a64"/>
            <rect id="Rectángulo_404981" data-name="Rectángulo 404981" width="3.32" height="41.51" transform="translate(87.865 43.116)" fill="#fd9826"/>
            <rect id="Rectángulo_404982" data-name="Rectángulo 404982" width="3.32" height="9.897" transform="translate(93.9 74.73)" fill="#455a64"/>
            <rect id="Rectángulo_404983" data-name="Rectángulo 404983" width="3.32" height="37.307" transform="translate(109.535 47.32)" fill="#fd9826"/>
            <rect id="Rectángulo_404984" data-name="Rectángulo 404984" width="3.32" height="21.446" transform="translate(114.789 63.18)" fill="#455a64"/>
            <rect id="Rectángulo_404985" data-name="Rectángulo 404985" width="3.32" height="2.896" transform="translate(125.781 81.731)" fill="#ff725e"/>
            <path id="Trazado_902023" data-name="Trazado 902023" d="M75.469,141.082H68.71a.523.523,0,0,1-.523-.523v-.326a.523.523,0,0,1,.523-.523h6.759a.523.523,0,0,1,.523.523v.326a.523.523,0,0,1-.523.523" transform="translate(-25.139 -51.508)" fill="#e0e0e0"/>
            <path id="Trazado_902024" data-name="Trazado 902024" d="M111.287,141.082h-6.759a.523.523,0,0,1-.523-.523v-.326a.523.523,0,0,1,.523-.523h6.759a.523.523,0,0,1,.523.523v.326a.523.523,0,0,1-.523.523" transform="translate(-38.344 -51.508)" fill="#e0e0e0"/>
            <path id="Trazado_902025" data-name="Trazado 902025" d="M142.906,141.082h-6.76a.522.522,0,0,1-.522-.523v-.326a.522.522,0,0,1,.522-.523h6.76a.523.523,0,0,1,.523.523v.326a.523.523,0,0,1-.523.523" transform="translate(-50.001 -51.508)" fill="#e0e0e0"/>
            <path id="Trazado_902026" data-name="Trazado 902026" d="M175.471,141.082h-6.758a.523.523,0,0,1-.523-.523v-.326a.523.523,0,0,1,.523-.523h6.758a.523.523,0,0,1,.523.523v.326a.523.523,0,0,1-.523.523" transform="translate(-62.007 -51.508)" fill="#e0e0e0"/>
            <path id="Trazado_902027" data-name="Trazado 902027" d="M203.068,141.082h-6.759a.523.523,0,0,1-.523-.523v-.326a.523.523,0,0,1,.523-.523h6.759a.523.523,0,0,1,.523.523v.326a.523.523,0,0,1-.523.523" transform="translate(-72.182 -51.508)" fill="#e0e0e0"/>
            <path id="Trazado_902028" data-name="Trazado 902028" d="M55.832,52.374a1.546,1.546,0,1,1-1.546-1.546,1.546,1.546,0,0,1,1.546,1.546" transform="translate(-19.444 -18.739)" fill="#e0e0e0"/>
            <path id="Trazado_902029" data-name="Trazado 902029" d="M62.655,52.374a1.546,1.546,0,1,1-1.546-1.546,1.546,1.546,0,0,1,1.546,1.546" transform="translate(-21.959 -18.739)" fill="#e0e0e0"/>
            <path id="Trazado_902030" data-name="Trazado 902030" d="M69.479,52.374a1.546,1.546,0,1,1-1.546-1.546,1.546,1.546,0,0,1,1.546,1.546" transform="translate(-24.475 -18.739)" fill="#e0e0e0"/>
          </g>
        </g>
        <g id="Grupo_1111808" data-name="Grupo 1111808">
          <g id="Grupo_1111807" data-name="Grupo 1111807" clip-path="url(#clip-path)">
            <path id="Trazado_902031" data-name="Trazado 902031" d="M104.408,266.9c-.559.612,3.983,7.977,5.813,12.621s10.936,26.226,18.678,26.367,13.653-3.378,18.72-10.557,13.512-45.181,13.512-45.181l-13.794-13.794-15.9,44.9S118.585,265.315,116,263.572s-11.592,3.324-11.592,3.324" transform="translate(-38.475 -87.137)" fill="#ae7461"/>
            <path id="Trazado_902032" data-name="Trazado 902032" d="M260.451,376.055l-3.488-25.938L184.5,352.158s-6.306,37.661-5.986,53.315H220.4l.349-5.246,2.234.485s.518,2.1,1.111,4.761l40.633.074Z" transform="translate(-65.808 -129.08)" fill="#263238"/>
            <path id="Trazado_902033" data-name="Trazado 902033" d="M177.4,253.375l-21.112-7.2S167.87,200.4,184.027,200.4Z" transform="translate(-57.62 -73.881)" fill="#d8ad87"/>
            <path id="Trazado_902034" data-name="Trazado 902034" d="M256.325,263.764l-2.506-68.55c-3.955-1.8-20.878-3.977-20.878-3.977l-22.02,3.1-18.342,3.145-4.919,46.82-2.072,64.757c23.569,8.7,52.325,5.767,77.616-.664Z" transform="translate(-68.422 -70.505)" fill="#d9a171"/>
            <g id="Grupo_1111788" data-name="Grupo 1111788" transform="translate(146.069 154.022)" opacity="0.3">
              <g id="Grupo_1111787" data-name="Grupo 1111787">
                <g id="Grupo_1111786" data-name="Grupo 1111786" clip-path="url(#clip-path-20)">
                  <path id="Trazado_902035" data-name="Trazado 902035" d="M231.37,243.967s12.3,26.167,23.209,35.887,19.933,11.84,19.933,11.84L273.2,283.2Z" transform="translate(-231.37 -243.967)"/>
                </g>
              </g>
            </g>
            <path id="Trazado_902036" data-name="Trazado 902036" d="M189.052,229.173c.091,0-.124,7.159-.48,15.98s-.718,15.972-.809,15.969.124-7.157.48-15.981.718-15.971.809-15.967" transform="translate(-69.216 -84.491)" fill="#263238"/>
            <path id="Trazado_902037" data-name="Trazado 902037" d="M286.837,195.647s19.5,1.743,22.1,22.081c1.2,9.405,3.421,24.256,3.421,24.256L293.2,243.657l-2.643-1.958c-1.472-4.393-4.022-13.448-3.663-13.771.485-.437-.056-32.28-.056-32.28" transform="translate(-105.75 -72.13)" fill="#d9a171"/>
            <path id="Trazado_902038" data-name="Trazado 902038" d="M220.294,328.851a6.9,6.9,0,0,1,.852-.67c.559-.415,1.383-1,2.413-1.7,2.059-1.4,4.961-3.263,8.263-5.151s6.38-3.441,8.636-4.5c1.128-.53,2.047-.944,2.689-1.215a6.833,6.833,0,0,1,1.009-.393,6.74,6.74,0,0,1-.956.509l-2.641,1.308c-2.226,1.112-5.277,2.7-8.575,4.578s-6.209,3.706-8.3,5.059l-2.469,1.611a6.886,6.886,0,0,1-.924.564" transform="translate(-81.217 -116.214)" fill="#263238"/>
            <path id="Trazado_902039" data-name="Trazado 902039" d="M237.632,328.489a7.532,7.532,0,0,1,1.473-.955,29.3,29.3,0,0,1,7.9-3,7.527,7.527,0,0,1,1.736-.265,12.05,12.05,0,0,1-1.68.49c-1.039.284-2.463.715-4,1.3s-2.884,1.208-3.85,1.686a12.09,12.09,0,0,1-1.581.749" transform="translate(-87.609 -119.546)" fill="#263238"/>
            <path id="Trazado_902040" data-name="Trazado 902040" d="M291.049,251.433c-.091,0,.161-6.164.562-13.755s.8-13.744.89-13.739-.161,6.162-.562,13.757-.8,13.743-.89,13.738" transform="translate(-107.296 -82.561)" fill="#263238"/>
            <path id="Trazado_902041" data-name="Trazado 902041" d="M188.156,122.37a5.739,5.739,0,0,1-6.7-2.023,3.413,3.413,0,0,1-.671-2.133,1.944,1.944,0,0,1,1.268-1.729,4.588,4.588,0,0,1-2.642-2.426,3.6,3.6,0,0,1,.357-3.5,2.971,2.971,0,0,1,3.281-1.043,3.552,3.552,0,0,1,1.145-3.59l5.552-.114Z" transform="translate(-66.035 -39.01)" fill="#263238"/>
            <path id="Trazado_902042" data-name="Trazado 902042" d="M211.326,159.513l-.967-3.76s-11.428.972-14.248-10c-1.361-5.3-3.277-16.444-4.895-26.549a21.113,21.113,0,0,1,15.849-23.848l1.062-.259c11.616-2.123,19.909,6.556,21.711,18.227l5.953,42.759-17.524,13.178Z" transform="translate(-70.398 -34.941)" fill="#ae7461"/>
            <path id="Trazado_902043" data-name="Trazado 902043" d="M221.7,187.539a31.1,31.1,0,0,0,13.611-6.55s-1.665,7.666-12.891,9.352Z" transform="translate(-81.734 -66.726)" fill="#6f4439"/>
            <path id="Trazado_902044" data-name="Trazado 902044" d="M200.421,149.406a1.618,1.618,0,0,0,1.9,1.217,1.548,1.548,0,0,0,1.275-1.813,1.619,1.619,0,0,0-1.9-1.218,1.549,1.549,0,0,0-1.277,1.814" transform="translate(-73.879 -54.403)" fill="#263238"/>
            <path id="Trazado_902045" data-name="Trazado 902045" d="M197.173,139.607c.245.157,1.22-1.015,2.914-1.422,1.685-.432,3.139.136,3.272-.116.068-.114-.22-.435-.857-.7a4.444,4.444,0,0,0-2.682-.161,4.268,4.268,0,0,0-2.256,1.388c-.423.526-.509.94-.39,1.008" transform="translate(-72.675 -50.537)" fill="#263238"/>
            <path id="Trazado_902046" data-name="Trazado 902046" d="M223.244,144.287a1.618,1.618,0,0,0,1.9,1.217,1.547,1.547,0,0,0,1.275-1.813,1.619,1.619,0,0,0-1.9-1.218,1.549,1.549,0,0,0-1.276,1.814" transform="translate(-82.293 -52.516)" fill="#263238"/>
            <path id="Trazado_902047" data-name="Trazado 902047" d="M223.634,133.685c.246.157,1.223-1.015,2.915-1.422,1.684-.432,3.138.136,3.272-.116.068-.114-.219-.436-.858-.7a4.435,4.435,0,0,0-2.681-.161,4.263,4.263,0,0,0-2.257,1.388c-.422.526-.508.94-.391,1.008" transform="translate(-82.431 -48.354)" fill="#263238"/>
            <path id="Trazado_902048" data-name="Trazado 902048" d="M216.06,149.065a11.48,11.48,0,0,0-2.869.174c-.443.061-.872.075-1.017-.2a2.263,2.263,0,0,1-.024-1.35q.227-1.716.475-3.6c.633-5.116.978-9.28.771-9.3s-.886,4.1-1.518,9.22c-.145,1.259-.285,2.459-.417,3.607a2.576,2.576,0,0,0,.189,1.75,1.118,1.118,0,0,0,.865.458,3.022,3.022,0,0,0,.758-.077,11.363,11.363,0,0,0,2.786-.675" transform="translate(-77.938 -49.691)" fill="#263238"/>
            <path id="Trazado_902049" data-name="Trazado 902049" d="M221.252,129.143c.363.349,1.825-.619,3.766-1.3,1.929-.72,3.671-.91,3.727-1.41.019-.236-.435-.509-1.236-.626a6.924,6.924,0,0,0-5.708,2.065c-.54.6-.715,1.1-.549,1.271" transform="translate(-81.548 -46.363)" fill="#263238"/>
            <path id="Trazado_902050" data-name="Trazado 902050" d="M196.242,131.571c.391.312,1.459-.371,2.856-.732,1.384-.409,2.651-.372,2.826-.841.073-.225-.208-.564-.816-.8a4.27,4.27,0,0,0-4.578,1.267c-.4.516-.465.951-.288,1.107" transform="translate(-72.316 -47.55)" fill="#263238"/>
            <path id="Trazado_902051" data-name="Trazado 902051" d="M190.821,113.036s1.223-7.6,4.155-10.021c3.549-2.929,6.359,1.067,9.933-.94s6.96-4.813,11.6-2.8c5.082,2.2,3.626,4.965,5.083,9.786,5.9,19.541,10.883,24.26,9.638,14.681-.136-1.049,2.5-2.553,1.869-6.974-.819-5.732-2.262-12.582-4.48-16.25-1.87-3.092-4.343-4.941-8.389-6.657-6.386-2.709-13.832-.985-18.75.751s-13.224,9.909-10.661,18.428" transform="translate(-70.174 -34.083)" fill="#263238"/>
            <path id="Trazado_902052" data-name="Trazado 902052" d="M253.847,139.628a3.076,3.076,0,0,1,2.524-3.666c2.1-.306,4.67.3,5.569,4.579,1.595,7.585-6.35,7.621-6.408,7.406-.04-.146-1.046-5.139-1.685-8.319" transform="translate(-93.565 -50.101)" fill="#ae7461"/>
            <path id="Trazado_902053" data-name="Trazado 902053" d="M257.863,146.22c.028-.032.152.065.4.12a1.35,1.35,0,0,0,.992-.187c.739-.462,1.146-1.876.9-3.251a4.458,4.458,0,0,0-.768-1.814,1.557,1.557,0,0,0-1.207-.806.687.687,0,0,0-.7.526c-.057.234.023.375-.015.4-.018.023-.189-.093-.194-.419a.865.865,0,0,1,.2-.538,1.02,1.02,0,0,1,.69-.347,1.9,1.9,0,0,1,1.628.886,4.582,4.582,0,0,1,.9,2.018c.273,1.539-.209,3.133-1.239,3.681a1.449,1.449,0,0,1-1.251.054c-.274-.138-.35-.3-.326-.319" transform="translate(-94.846 -51.574)" fill="#6f4439"/>
            <path id="Trazado_902054" data-name="Trazado 902054" d="M206.775,118.883c-.018,0-.033.015-.052.02-.044.014-.09.025-.133.041Z" transform="translate(-76.165 -43.829)" fill="#ff725e"/>
            <path id="Trazado_902055" data-name="Trazado 902055" d="M179.98,96.289a6.474,6.474,0,0,1,3.546-4.837,12.278,12.278,0,0,1,6.065-1.174c-.787-2.705,1.777-5.453,4.549-5.952s5.563.568,8.179,1.616a7.426,7.426,0,0,1,10.624.884,6.676,6.676,0,0,1,10.938,3.769,5.173,5.173,0,0,1,4.459,7.973,3.649,3.649,0,0,1-.321,6.947l-6.523-3.693a5.76,5.76,0,0,1-7.414-3.672,6.5,6.5,0,0,1-7.116-.1,4.684,4.684,0,0,1-6.987,3.445,5.508,5.508,0,0,1-8.532,5.224,5.042,5.042,0,0,1-8.314-5.666,4.448,4.448,0,0,1-3.153-4.76" transform="translate(-66.346 -31.009)" fill="#263238"/>
            <path id="Trazado_902056" data-name="Trazado 902056" d="M235.042,105.221c-.025.013.039.239.277.6a3.77,3.77,0,0,0,1.369,1.2,3.855,3.855,0,0,0,2.744.339,4.161,4.161,0,0,0,2.7-2.167l-.441.08a4.774,4.774,0,0,0,1.783,1.064,4.948,4.948,0,0,0,4.13-.453,4.7,4.7,0,0,0,2-2.751,4.6,4.6,0,0,0,.052-2.283,1.647,1.647,0,0,0-.33-.766,6.089,6.089,0,0,1-.1,2.934,4.42,4.42,0,0,1-1.887,2.423,4.522,4.522,0,0,1-3.682.36,4.315,4.315,0,0,1-1.577-.928l-.278-.259-.163.34a3.736,3.736,0,0,1-2.327,1.938,3.592,3.592,0,0,1-2.462-.2,5.578,5.578,0,0,1-1.8-1.473" transform="translate(-86.653 -36.898)" fill="#455a64"/>
            <path id="Trazado_902057" data-name="Trazado 902057" d="M226.445,162.4a4.788,4.788,0,0,0-3.244,2.1c-.037-.015,0-.252.191-.59a3.226,3.226,0,0,1,2.438-1.581c.384-.033.617.027.616.066" transform="translate(-82.284 -59.847)" fill="#263238"/>
            <path id="Trazado_902058" data-name="Trazado 902058" d="M208.8,223.127l-1.444,1.89c-1.023.581-1.909.135-2.4-1.153L193.07,201.778l3.528-1.833L210,221.3a2,2,0,0,1-1.2,1.829" transform="translate(-71.18 -73.715)" fill="#455a64"/>
            <path id="Trazado_902059" data-name="Trazado 902059" d="M166.692,183.981a15.325,15.325,0,1,1,13.9,1.789,15.244,15.244,0,0,1-13.9-1.789m16.788-24.412a14.293,14.293,0,1,0,5.349,6.916,14.295,14.295,0,0,0-5.349-6.916" transform="translate(-59.002 -57.52)" fill="#263238"/>
            <path id="Trazado_902060" data-name="Trazado 902060" d="M167.811,183.056a15.325,15.325,0,1,1,13.9,1.789,15.244,15.244,0,0,1-13.9-1.789M184.6,158.644a14.293,14.293,0,1,0,5.349,6.916,14.295,14.295,0,0,0-5.349-6.916" transform="translate(-59.414 -57.179)" fill="#455a64"/>
            <path id="Trazado_902061" data-name="Trazado 902061" d="M178.578,197.687c.015-.037.689.283,1.851.547l.457.1c.159.032.328.047.5.073.346.059.72.073,1.112.1a11.9,11.9,0,0,0,5-.889c.359-.16.705-.3,1.009-.477.153-.084.307-.156.445-.241l.4-.247c1-.648,1.523-1.181,1.549-1.152a3.23,3.23,0,0,1-.368.369,4.607,4.607,0,0,1-.464.4,7.294,7.294,0,0,1-.653.481l-.395.26c-.138.088-.292.165-.446.252a10.8,10.8,0,0,1-1.015.5,11.523,11.523,0,0,1-5.062.9,10.951,10.951,0,0,1-1.124-.116c-.174-.03-.345-.048-.505-.083l-.46-.108a7.353,7.353,0,0,1-.779-.227,4.467,4.467,0,0,1-.573-.214,3.2,3.2,0,0,1-.473-.22" transform="translate(-65.837 -72.075)" fill="#fff"/>
            <path id="Trazado_902062" data-name="Trazado 902062" d="M229.853,224.942c-3.663-3.508-21-20.906-21.426-21.151-.532-.308-8.765-4.07-10.478-3.242s-6.556,5.923-6.556,5.923.116,3.443,4.136,1.338l3.6-1.884-.006,0,3.963,1.3s-5.116,1.629-6.255,2.622-3.152,5-2.206,6.044a4.012,4.012,0,0,0,2.135,1.232s-2.29,2.715,1.171,4.778a5.582,5.582,0,0,0,2.014,3.588c1.7,1.109,5.051,1.063,5.051,1.063a1.57,1.57,0,0,0,.608-2.386,5.158,5.158,0,0,0-3.1-2l2.75-1.3a12.093,12.093,0,0,1,3.2,2.27s5.513,5.931,8.049,4.412l3.587,4.266c2.733-1.664,9.767-6.873,9.767-6.873" transform="translate(-70.562 -73.894)" fill="#ae7461"/>
            <path id="Trazado_902063" data-name="Trazado 902063" d="M208.444,225a1.341,1.341,0,0,0-.39-.011,5.962,5.962,0,0,0-1.055.15,6.852,6.852,0,0,0-4.991,4.558,5.865,5.865,0,0,0-.244,1.037,1.35,1.35,0,0,0-.025.39c.036.006.093-.549.4-1.381a7.125,7.125,0,0,1,4.9-4.47c.856-.229,1.415-.235,1.412-.271" transform="translate(-74.374 -82.946)" fill="#6f4439"/>
            <path id="Trazado_902064" data-name="Trazado 902064" d="M208.276,218.05a1.73,1.73,0,0,0-.417-.007,3.879,3.879,0,0,0-.489.037c-.19.025-.408.042-.643.095a9.489,9.489,0,0,0-1.63.456,10.018,10.018,0,0,0-3.475,2.223,9.5,9.5,0,0,0-1.1,1.288,6.322,6.322,0,0,0-.355.544,3.7,3.7,0,0,0-.239.428,1.718,1.718,0,0,0-.169.382c.034.018.3-.515.872-1.273a10.6,10.6,0,0,1,1.112-1.241,11.656,11.656,0,0,1,1.6-1.257,13.658,13.658,0,0,1,1.9-1.057,8.268,8.268,0,0,1,1.509-.359c.929-.2,1.524-.22,1.521-.259" transform="translate(-73.647 -80.386)" fill="#6f4439"/>
            <path id="Trazado_902065" data-name="Trazado 902065" d="M213.128,210.031a1.123,1.123,0,0,0-.539-.172,3.036,3.036,0,0,0-1.361.122,2.551,2.551,0,0,0-1.174.7c-.25.249-.353.443-.335.456a3.864,3.864,0,0,1,3.409-1.109" transform="translate(-77.318 -77.359)" fill="#6f4439"/>
            <g id="Grupo_1111791" data-name="Grupo 1111791" transform="translate(109.776 105.978)" opacity="0.1">
              <g id="Grupo_1111790" data-name="Grupo 1111790">
                <g id="Grupo_1111789" data-name="Grupo 1111789" clip-path="url(#clip-path-21)">
                  <path id="Trazado_902066" data-name="Trazado 902066" d="M191.815,169.257a2.349,2.349,0,0,0-1.415-1.366,1.742,1.742,0,0,0-1.749.941,5.161,5.161,0,0,0-.512,2.044,20.372,20.372,0,0,1-1.069,5.283,7.1,7.1,0,0,1-3.468,3.973,11.552,11.552,0,0,1-4.292.7,8.552,8.552,0,0,0-4.214.977l-.037.023a2.621,2.621,0,0,0,.391,4.583,12.5,12.5,0,0,0,16.365-17.152" transform="translate(-173.883 -167.866)"/>
                </g>
              </g>
            </g>
            <path id="Trazado_902067" data-name="Trazado 902067" d="M290.615,254.512l-17.937,1.506c-4.133-2.73-32.965-25.091-33.8-25.674l-7.5,8.6c15.732,19.071,26.753,33,40,42.785,6.547,4.835,17.207,2.225,19.967-6.6,1.35-4.316-.723-20.618-.723-20.618" transform="translate(-85.301 -84.922)" fill="#ae7461"/>
            <g id="Grupo_1111794" data-name="Grupo 1111794" transform="translate(114.694 269.76)" opacity="0.3">
              <g id="Grupo_1111793" data-name="Grupo 1111793">
                <g id="Grupo_1111792" data-name="Grupo 1111792" clip-path="url(#clip-path-22)">
                  <path id="Trazado_902068" data-name="Trazado 902068" d="M181.673,434.233s6.447.9,6.906,1.04c.153.047,17.476.047,17.476.047l-.456-8.026-19.7.438Z" transform="translate(-181.673 -427.293)"/>
                </g>
              </g>
            </g>
            <g id="Grupo_1111797" data-name="Grupo 1111797" transform="translate(115.15 262.669)" opacity="0.3">
              <g id="Grupo_1111796" data-name="Grupo 1111796">
                <g id="Grupo_1111795" data-name="Grupo 1111795" clip-path="url(#clip-path-23)">
                  <path id="Trazado_902069" data-name="Trazado 902069" d="M182.4,422.691s6.542,1.352,6.906,1.04,16.565-.58,16.565-.58l-.455-6.442-19.721-.65Z" transform="translate(-182.395 -416.06)"/>
                </g>
              </g>
            </g>
            <g id="Grupo_1111800" data-name="Grupo 1111800" transform="translate(115.15 249.053)" opacity="0.3">
              <g id="Grupo_1111799" data-name="Grupo 1111799">
                <g id="Grupo_1111798" data-name="Grupo 1111798" clip-path="url(#clip-path-24)">
                  <path id="Trazado_902070" data-name="Trazado 902070" d="M182.4,407.708s6,.789,6.367.477,16.649.575,16.649.575l-.881-14.265-18.955,5.127Z" transform="translate(-182.395 -394.494)"/>
                </g>
              </g>
            </g>
            <path id="Trazado_902071" data-name="Trazado 902071" d="M85.5,236.284s43.333,67.1,40.294,112.754l25.85,15.818H170.6C169.563,353,169.7,333.6,163.92,306.385c-14.885-70.021-41.333-70.218-41.333-70.218Z" transform="translate(-31.521 -87.069)" fill="#e0e0e0"/>
            <path id="Trazado_902072" data-name="Trazado 902072" d="M180.347,405.411l-43.289,7.4a4.639,4.639,0,0,1-1.282,4.068,7.719,7.719,0,0,1-3.592,1.739,36.371,36.371,0,0,1-7.815,1.164,18.52,18.52,0,0,0-4.137.393,4.68,4.68,0,0,0-3.181,2.465,3.374,3.374,0,0,0,3.222,4.564h43.96a3.374,3.374,0,0,1-3.222-4.564,4.682,4.682,0,0,1,3.181-2.465,18.529,18.529,0,0,1,4.138-.393,36.366,36.366,0,0,0,7.814-1.164,7.716,7.716,0,0,0,3.592-1.739c.953-.951.815-9.871.612-11.469" transform="translate(-43.083 -149.465)" fill="#e0e0e0"/>
            <path id="Trazado_902073" data-name="Trazado 902073" d="M180.714,395.272l-42.561,6.314a4.637,4.637,0,0,1-1.282,4.067,7.711,7.711,0,0,1-3.592,1.739,36.4,36.4,0,0,1-7.814,1.164,18.533,18.533,0,0,0-4.138.393,4.68,4.68,0,0,0-3.181,2.465,3.374,3.374,0,0,0,3.222,4.564h43.96a3.374,3.374,0,0,1-3.222-4.564,4.681,4.681,0,0,1,3.181-2.465,18.533,18.533,0,0,1,4.138-.393,36.4,36.4,0,0,0,7.814-1.164,7.711,7.711,0,0,0,3.592-1.739c.953-.95.088-8.783-.116-10.381" transform="translate(-43.487 -145.727)" fill="#e0e0e0"/>
            <path id="Trazado_902074" data-name="Trazado 902074" d="M180.135,392.817l-43.076,1.422a4.212,4.212,0,0,1-1.283,3.833,7.914,7.914,0,0,1-3.592,1.638,38.443,38.443,0,0,1-7.814,1.1,19.661,19.661,0,0,0-4.138.371,4.646,4.646,0,0,0-3.181,2.323,3.2,3.2,0,0,0,3.222,4.3l43.825-.491c-3.3,0-3.63-2.6-3.087-3.809a4.646,4.646,0,0,1,3.181-2.323,19.655,19.655,0,0,1,4.137-.371,38.437,38.437,0,0,0,7.814-1.1,7.919,7.919,0,0,0,3.593-1.638c.953-.9.6-3.749.4-5.255" transform="translate(-43.083 -144.822)" fill="#e0e0e0"/>
            <path id="Trazado_902075" data-name="Trazado 902075" d="M107.118,275.3s-5.068-10.971-6.054-14,1.549-4.722,3.942-6.552,11.122-2.534,11.544-.985.282,3.8-.985,3.942-6.054-.13-8.869,3.6c0,0,11.685-2.6,14.5,0s-2.394,3.585-2.394,3.585,1.549,2.535.141,3.239-9.151,2.253-9.151,2.253l-.141,1.126a22.966,22.966,0,0,1,6.335.422,6.316,6.316,0,0,1,3.66,3.379c-.563,2.112-1.548,2.112-2.956,1.126A6.228,6.228,0,0,0,114.3,275.3s-2.253,2.816-3.8,2.957-3.379-2.957-3.379-2.957" transform="translate(-37.18 -93.241)" fill="#ae7461"/>
            <g id="Grupo_1111803" data-name="Grupo 1111803" transform="translate(74.259 149.093)" opacity="0.3">
              <g id="Grupo_1111802" data-name="Grupo 1111802">
                <g id="Grupo_1111801" data-name="Grupo 1111801" clip-path="url(#clip-path-25)">
                  <path id="Trazado_902076" data-name="Trazado 902076" d="M132.313,236.159a34.566,34.566,0,0,0-7.387,25.251c1.555,15.394,1.528,32.488,1.528,32.488l-5.193-12.548-3.637-36.131,7.345-8.057Z" transform="translate(-117.625 -236.159)"/>
                </g>
              </g>
            </g>
            <path id="Trazado_902077" data-name="Trazado 902077" d="M101.835,236.159l-36.873.006s-15.226.313-15.226,30.329c0,38.876,8.927,52.151-14.781,74.345l38.261,4.8s18.1-1.74,18.084-34.128c-.008-14.781-.684-41.014-1.493-53.654-.589-9.211,6.205-21.074,12.027-21.7" transform="translate(-12.887 -87.066)" fill="#fff"/>
            <path id="Trazado_902078" data-name="Trazado 902078" d="M101.623,236.1l-.589.118a7.142,7.142,0,0,0-1.634.657,15.233,15.233,0,0,0-4.822,4.763,29.558,29.558,0,0,0-4.326,9.943c-1.137,4.176-.241,9.1-.118,14.527.476,10.866.871,23.922,1.053,38.63.021,3.676.124,7.458-.092,11.338a54.662,54.662,0,0,1-1.843,11.763A30.747,30.747,0,0,1,83.8,338.965a20.928,20.928,0,0,1-4.729,4.326,15.53,15.53,0,0,1-6.046,2.451l-.015,0-.021,0-34.6-4.341-3.658-.46-.343-.043.251-.24c1.914-1.833,3.793-3.684,5.505-5.661a54.936,54.936,0,0,0,4.706-6.19,37.021,37.021,0,0,0,5.447-14.063A70.328,70.328,0,0,0,50.9,300.11c-.2-4.8-.567-9.484-.842-14.061s-.5-9.044-.6-13.387q-.077-3.257-.069-6.417.052-1.581.1-3.135c.037-1.037.044-2.066.181-3.079q.16-1.522.317-3.017a13.792,13.792,0,0,1,.234-1.478l.273-1.458q.136-.725.271-1.444c.1-.477.256-.939.381-1.406s.263-.927.393-1.388a9.9,9.9,0,0,1,.441-1.357,21.6,21.6,0,0,1,5.742-9.148,13.217,13.217,0,0,1,4.3-2.686,10,10,0,0,1,2.376-.615c.819-.064,1.6-.016,2.384-.03l8.821.017,14.094.052,11.924.028-12.035.032-14.049.056-8.765.02a11.487,11.487,0,0,0-8.894,3.3,21.38,21.38,0,0,0-5.659,9.061,9.939,9.939,0,0,0-.435,1.349l-.387,1.38c-.123.463-.276.922-.376,1.4s-.177.956-.267,1.438-.179.965-.27,1.451a13.607,13.607,0,0,0-.23,1.471l-.311,3c-.136,1.008-.141,2.034-.176,3.067s-.066,2.075-.1,3.124q0,3.154.077,6.409c.1,4.338.32,8.8.609,13.375s.652,9.262.854,14.067a70.565,70.565,0,0,1-.6,14.7,37.327,37.327,0,0,1-5.489,14.185,55.2,55.2,0,0,1-4.734,6.23c-1.721,1.988-3.607,3.845-5.527,5.685l-.092-.283,3.658.46,34.6,4.349H72.99a15.271,15.271,0,0,0,5.9-2.4,20.622,20.622,0,0,0,4.66-4.258,30.46,30.46,0,0,0,5.407-11.013,54.415,54.415,0,0,0,1.844-11.7c.218-3.859.121-7.643.1-11.318-.162-14.7-.533-27.759-.981-38.624-.122-2.716-.239-5.295-.389-7.727a22.439,22.439,0,0,1,.556-6.844,29.524,29.524,0,0,1,4.393-9.97,15.116,15.116,0,0,1,4.885-4.749,6.9,6.9,0,0,1,1.655-.635c.193-.04.338-.051.439-.067l.157-.023" transform="translate(-12.675 -87.007)" fill="#263238"/>
            <g id="Grupo_1111806" data-name="Grupo 1111806" transform="translate(49.419 250.226)" opacity="0.3">
              <g id="Grupo_1111805" data-name="Grupo 1111805">
                <g id="Grupo_1111804" data-name="Grupo 1111804" clip-path="url(#clip-path-26)">
                  <path id="Trazado_902079" data-name="Trazado 902079" d="M78.279,396.352h6.193s.337,8.224,6.962,7.667a5.285,5.285,0,0,1-3.294.685c-1.891-.238-7.795,1.213-9.861-8.352" transform="translate(-78.279 -396.352)"/>
                </g>
              </g>
            </g>
            <path id="Trazado_902080" data-name="Trazado 902080" d="M6.854,389.779s-.977,11.786,13.7,12.491,41.288,0,41.288,0S52.6,400.6,52.6,390.552Z" transform="translate(-2.522 -143.702)" fill="#e0e0e0"/>
            <path id="Trazado_902081" data-name="Trazado 902081" d="M6.842,389.776a1.534,1.534,0,0,1,.214-.007h.65l2.535.021,9.518.117,32.828.482.156,0v.157a11.326,11.326,0,0,0,9.113,11.556l1.255.294-1.28.033-.081,0c-8.568.206-16.732.307-24.158.3-3.713-.009-7.241-.037-10.543-.116a91.44,91.44,0,0,1-9.181-.507,14.738,14.738,0,0,1-6.964-2.905,10.772,10.772,0,0,1-3.318-4.629,12.033,12.033,0,0,1-.757-3.537,8.833,8.833,0,0,1-.016-.941,1.671,1.671,0,0,1,.027-.32c0,.008,0,.107.006.32s.013.527.049.937a12.436,12.436,0,0,0,.81,3.5,10.7,10.7,0,0,0,3.315,4.531,14.6,14.6,0,0,0,6.885,2.82c2.766.366,5.855.371,9.15.464,3.3.066,6.826.084,10.537.085,7.422-.007,15.584-.116,24.149-.323l.081,0-.025.326a12.806,12.806,0,0,1-3.924-1.612,11.194,11.194,0,0,1-3.09-2.77,12.273,12.273,0,0,1-2.358-7.5l.156.158-32.722-.626-9.551-.206-2.567-.064-.668-.021a2.314,2.314,0,0,1-.233-.015" transform="translate(-2.51 -143.699)" fill="#263238"/>
            <path id="Trazado_902082" data-name="Trazado 902082" d="M101.154,319.31c0,.17-3.326.309-7.428.309s-7.429-.138-7.429-.309S89.623,319,93.727,319s7.428.138,7.428.309" transform="translate(-31.816 -117.608)" fill="#263238"/>
            <path id="Trazado_902083" data-name="Trazado 902083" d="M69.143,319.385c0-.17.928-.309,2.072-.309s2.073.138,2.073.309-.928.309-2.073.309-2.072-.138-2.072-.309" transform="translate(-25.491 -117.636)" fill="#263238"/>
            <path id="Trazado_902084" data-name="Trazado 902084" d="M102.608,310.723c0,.17-3.326.309-7.428.309s-7.429-.138-7.429-.309,3.325-.309,7.429-.309,7.428.138,7.428.309" transform="translate(-32.352 -114.442)" fill="#263238"/>
            <path id="Trazado_902085" data-name="Trazado 902085" d="M69.143,311.212c0-.17.928-.309,2.072-.309s2.073.138,2.073.309-.928.309-2.073.309-2.072-.138-2.072-.309" transform="translate(-25.491 -114.623)" fill="#263238"/>
            <path id="Trazado_902086" data-name="Trazado 902086" d="M102.341,303.455c0,.17-3.326.309-7.428.309s-7.429-.138-7.429-.309,3.325-.309,7.429-.309,7.428.138,7.428.309" transform="translate(-32.254 -111.763)" fill="#263238"/>
            <path id="Trazado_902087" data-name="Trazado 902087" d="M69.143,303.53c0-.17.928-.309,2.072-.309s2.073.138,2.073.309-.928.309-2.073.309-2.072-.138-2.072-.309" transform="translate(-25.491 -111.79)" fill="#263238"/>
            <path id="Trazado_902088" data-name="Trazado 902088" d="M101.421,294.922c0,.17-3.326.309-7.428.309s-7.428-.138-7.428-.309,3.325-.309,7.428-.309,7.428.138,7.428.309" transform="translate(-31.914 -108.617)" fill="#263238"/>
            <path id="Trazado_902089" data-name="Trazado 902089" d="M67.955,295.411c0-.17.928-.309,2.073-.309s2.073.138,2.073.309-.928.309-2.073.309-2.073-.138-2.073-.309" transform="translate(-25.053 -108.797)" fill="#263238"/>
            <path id="Trazado_902090" data-name="Trazado 902090" d="M101.153,287.654c0,.17-3.326.309-7.428.309s-7.429-.138-7.429-.309,3.325-.309,7.429-.309,7.428.138,7.428.309" transform="translate(-31.816 -105.937)" fill="#263238"/>
            <path id="Trazado_902091" data-name="Trazado 902091" d="M67.955,287.729c0-.17.928-.309,2.073-.309s2.073.138,2.073.309-.928.309-2.073.309-2.073-.138-2.073-.309" transform="translate(-25.053 -105.965)" fill="#263238"/>
            <path id="Trazado_902092" data-name="Trazado 902092" d="M100.319,279.121c0,.17-3.326.309-7.428.309s-7.429-.138-7.429-.309,3.325-.309,7.429-.309,7.428.138,7.428.309" transform="translate(-31.508 -102.791)" fill="#263238"/>
            <path id="Trazado_902093" data-name="Trazado 902093" d="M66.853,279.61c0-.17.928-.309,2.073-.309s2.073.138,2.073.309-.928.309-2.073.309-2.073-.138-2.073-.309" transform="translate(-24.647 -102.972)" fill="#263238"/>
            <path id="Trazado_902094" data-name="Trazado 902094" d="M100.052,271.853c0,.17-3.326.309-7.428.309s-7.429-.138-7.429-.309,3.325-.309,7.429-.309,7.428.138,7.428.309" transform="translate(-31.41 -100.112)" fill="#263238"/>
            <path id="Trazado_902095" data-name="Trazado 902095" d="M101.5,264.406c0,.17-3.326.309-7.428.309s-7.429-.138-7.429-.309,3.325-.309,7.429-.309,7.428.138,7.428.309" transform="translate(-31.945 -97.366)" fill="#263238"/>
            <path id="Trazado_902096" data-name="Trazado 902096" d="M66.853,271.928c0-.17.928-.309,2.073-.309s2.073.138,2.073.309-.928.309-2.073.309-2.073-.138-2.073-.309" transform="translate(-24.647 -100.14)" fill="#263238"/>
            <path id="Trazado_902097" data-name="Trazado 902097" d="M67.955,263.929c0-.17.928-.309,2.073-.309s2.073.138,2.073.309-.928.309-2.073.309-2.073-.138-2.073-.309" transform="translate(-25.053 -97.19)" fill="#263238"/>
            <path id="Trazado_902098" data-name="Trazado 902098" d="M103.024,257.123c0,.17-3.326.309-7.428.309s-7.429-.138-7.429-.309,3.325-.309,7.429-.309,7.428.138,7.428.309" transform="translate(-32.505 -94.681)" fill="#263238"/>
            <path id="Trazado_902099" data-name="Trazado 902099" d="M69.475,256.646c0-.17.928-.309,2.073-.309s2.073.138,2.073.309-.928.309-2.073.309-2.073-.138-2.073-.309" transform="translate(-25.614 -94.505)" fill="#263238"/>
            <path id="Trazado_902100" data-name="Trazado 902100" d="M104.544,249.84c0,.17-3.326.309-7.428.309s-7.429-.138-7.429-.309,3.325-.309,7.429-.309,7.428.138,7.428.309" transform="translate(-33.066 -91.996)" fill="#263238"/>
            <path id="Trazado_902101" data-name="Trazado 902101" d="M71,249.363c0-.17.928-.309,2.073-.309s2.073.138,2.073.309-.928.309-2.073.309S71,249.533,71,249.363" transform="translate(-26.174 -91.82)" fill="#263238"/>
            <path id="Trazado_902102" data-name="Trazado 902102" d="M110.047,243.285c0,.17-3.326.309-7.428.309s-7.429-.138-7.429-.309,3.325-.309,7.429-.309,7.428.138,7.428.309" transform="translate(-35.095 -89.58)" fill="#263238"/>
            <path id="Trazado_902103" data-name="Trazado 902103" d="M76.5,242.808c0-.17.928-.309,2.073-.309s2.073.138,2.073.309-.928.309-2.073.309-2.073-.138-2.073-.309" transform="translate(-28.203 -89.404)" fill="#263238"/>
            <path id="Trazado_902104" data-name="Trazado 902104" d="M101.154,328.688c0,.17-3.326.309-7.428.309s-7.429-.138-7.429-.309,3.325-.309,7.429-.309,7.428.138,7.428.309" transform="translate(-31.816 -121.066)" fill="#263238"/>
            <path id="Trazado_902105" data-name="Trazado 902105" d="M69.143,328.763c0-.17.928-.309,2.072-.309s2.073.138,2.073.309-.928.309-2.073.309-2.072-.138-2.072-.309" transform="translate(-25.491 -121.093)" fill="#263238"/>
            <path id="Trazado_902106" data-name="Trazado 902106" d="M102.341,337.885c0,.17-3.326.309-7.428.309s-7.429-.138-7.429-.309,3.325-.309,7.429-.309,7.428.138,7.428.309" transform="translate(-32.254 -124.456)" fill="#263238"/>
            <path id="Trazado_902107" data-name="Trazado 902107" d="M70.33,337.96c0-.17.928-.309,2.073-.309s2.073.138,2.073.309-.928.309-2.073.309-2.073-.138-2.073-.309" transform="translate(-25.929 -124.484)" fill="#263238"/>
            <path id="Trazado_902108" data-name="Trazado 902108" d="M102.715,345.826c0,.17-3.326.309-7.428.309s-7.429-.138-7.429-.309,3.325-.309,7.429-.309,7.428.138,7.428.309" transform="translate(-32.392 -127.384)" fill="#263238"/>
            <path id="Trazado_902109" data-name="Trazado 902109" d="M70.7,345.9c0-.17.928-.309,2.073-.309s2.073.138,2.073.309-.928.309-2.073.309-2.073-.138-2.073-.309" transform="translate(-26.067 -127.412)" fill="#263238"/>
            <path id="Trazado_902110" data-name="Trazado 902110" d="M103.088,353.768c0,.17-3.326.309-7.428.309s-7.429-.138-7.429-.309,3.325-.309,7.429-.309,7.428.138,7.428.309" transform="translate(-32.529 -130.312)" fill="#263238"/>
            <path id="Trazado_902111" data-name="Trazado 902111" d="M71.077,353.843c0-.17.928-.309,2.073-.309s2.072.138,2.072.309-.927.309-2.072.309-2.073-.138-2.073-.309" transform="translate(-26.204 -130.34)" fill="#263238"/>
            <path id="Trazado_902112" data-name="Trazado 902112" d="M103.462,361.71c0,.17-3.326.309-7.428.309s-7.429-.138-7.429-.309,3.325-.309,7.429-.309,7.428.138,7.428.309" transform="translate(-32.667 -133.24)" fill="#263238"/>
            <path id="Trazado_902113" data-name="Trazado 902113" d="M71.451,361.785c0-.17.928-.309,2.073-.309s2.073.138,2.073.309-.928.309-2.073.309-2.073-.138-2.073-.309" transform="translate(-26.342 -133.268)" fill="#263238"/>
            <path id="Trazado_902114" data-name="Trazado 902114" d="M103.6,369.432c0,.17-3.326.309-7.428.309s-7.429-.138-7.429-.309,3.325-.309,7.429-.309,7.428.138,7.428.309" transform="translate(-32.717 -136.087)" fill="#263238"/>
            <path id="Trazado_902115" data-name="Trazado 902115" d="M71.587,369.507c0-.17.928-.309,2.073-.309s2.073.138,2.073.309-.928.309-2.073.309-2.073-.138-2.073-.309" transform="translate(-26.392 -136.115)" fill="#263238"/>
            <path id="Trazado_902116" data-name="Trazado 902116" d="M102.341,377.117c0,.17-3.326.309-7.428.309s-7.429-.138-7.429-.309,3.325-.309,7.429-.309,7.428.138,7.428.309" transform="translate(-32.254 -138.92)" fill="#263238"/>
            <path id="Trazado_902117" data-name="Trazado 902117" d="M70.33,377.192c0-.17.928-.309,2.073-.309s2.073.138,2.073.309-.928.309-2.073.309-2.073-.138-2.073-.309" transform="translate(-25.929 -138.948)" fill="#263238"/>
            <path id="Trazado_902118" data-name="Trazado 902118" d="M99.322,385.277c0,.17-3.326.309-7.428.309s-7.429-.138-7.429-.309,3.325-.309,7.429-.309,7.428.138,7.428.309" transform="translate(-31.141 -141.929)" fill="#263238"/>
            <path id="Trazado_902119" data-name="Trazado 902119" d="M67.311,385.352c0-.17.928-.309,2.073-.309s2.073.138,2.073.309-.928.309-2.073.309-2.073-.138-2.073-.309" transform="translate(-24.816 -141.956)" fill="#263238"/>
            <path id="Trazado_902120" data-name="Trazado 902120" d="M97.048,392.708c0,.17-3.326.309-7.428.309s-7.429-.138-7.429-.309,3.325-.309,7.429-.309,7.428.138,7.428.309" transform="translate(-30.302 -144.668)" fill="#263238"/>
            <path id="Trazado_902121" data-name="Trazado 902121" d="M184.018,416.509a.545.545,0,0,1-.155.008l-.453-.011-1.737-.075c-1.508-.077-3.69-.172-6.386-.273-5.393-.2-12.849-.348-21.084-.309s-15.7.186-21.094.26l-6.393.074-1.739,0-.452-.008a.531.531,0,0,1-.155-.014.565.565,0,0,1,.154-.02l.451-.025,1.737-.064,6.392-.179c5.4-.134,12.854-.318,21.1-.357s15.7.142,21.1.407c2.7.13,4.879.26,6.385.377l1.734.136.45.044a.53.53,0,0,1,.153.026" transform="translate(-45.853 -153.19)" fill="#263238"/>
            <path id="Trazado_902122" data-name="Trazado 902122" d="M184.167,427.738c0,.091-12.153.2-27.141.251s-27.144.013-27.145-.078,12.15-.2,27.144-.251,27.143-.013,27.143.078" transform="translate(-47.884 -157.66)" fill="#263238"/>
            <path id="Trazado_902123" data-name="Trazado 902123" d="M185.552,396.351a2.5,2.5,0,0,1,.455.117l1.284.4.926.294a1.6,1.6,0,0,1,1.022.615.591.591,0,0,1-.16.691,1.6,1.6,0,0,1-.646.33l-1.456.339a61.351,61.351,0,0,1-7.262,1.074c-2.753.253-5.789.38-8.973.442l-16.307.218-4.942.027-1.344-.009a2.53,2.53,0,0,1-.469-.025,2.47,2.47,0,0,1,.468-.04l1.343-.052,4.941-.131,16.3-.314c3.181-.061,6.21-.179,8.953-.415a65.412,65.412,0,0,0,7.241-1l1.448-.313a1.429,1.429,0,0,0,.569-.273.4.4,0,0,0,.126-.471c-.163-.319-.582-.425-.9-.542l-.917-.321-1.265-.454a2.485,2.485,0,0,1-.434-.18" transform="translate(-54.446 -146.125)" fill="#263238"/>
          </g>
        </g>
      </g>
    </g>
  </g>
</svg>
