<svg xmlns="http://www.w3.org/2000/svg" xmlns:xlink="http://www.w3.org/1999/xlink" width="400" height="329.3" viewBox="0 0 400 329.3">
  <defs>
    <clipPath id="clip-path">
      <rect id="Rectángulo_404733" data-name="Rectángulo 404733" width="79.95" height="95.883" transform="translate(0 0)" fill="none"/>
    </clipPath>
    <clipPath id="clip-path-2">
      <rect id="Rectángulo_404734" data-name="Rectángulo 404734" width="151.303" height="142.659" fill="none"/>
    </clipPath>
    <clipPath id="clip-path-4">
      <rect id="Rectángulo_404726" data-name="Rectángulo 404726" width="368.91" height="285.947" fill="none"/>
    </clipPath>
  </defs>
  <g id="Grupo_1111623" data-name="Grupo 1111623" transform="translate(-600 -831)">
    <g id="Grupo_1111617" data-name="Grupo 1111617" transform="translate(868.051 867.116)">
      <rect id="Rectángulo_404727" data-name="Rectángulo 404727" width="62.262" height="83.343" transform="translate(15.052 10.71)" fill="#fff"/>
      <rect id="Rectángulo_404728" data-name="Rectángulo 404728" width="62.262" height="83.343" transform="translate(15.052 10.71)" fill="none" stroke="#263238" stroke-miterlimit="10" stroke-width="0.75"/>
      <line id="Línea_569" data-name="Línea 569" x2="48.045" transform="translate(22.406 36.204)" fill="none" stroke="#263238" stroke-miterlimit="10" stroke-width="0.75"/>
      <line id="Línea_570" data-name="Línea 570" x2="48.045" transform="translate(22.406 47.97)" fill="none" stroke="#263238" stroke-miterlimit="10" stroke-width="0.75"/>
      <line id="Línea_571" data-name="Línea 571" x2="48.045" transform="translate(22.406 84.249)" fill="none" stroke="#263238" stroke-miterlimit="10" stroke-width="0.75"/>
      <line id="Línea_572" data-name="Línea 572" y2="50.496" transform="translate(52.311 36.694)" fill="none" stroke="#263238" stroke-miterlimit="10" stroke-width="0.75"/>
      <line id="Línea_573" data-name="Línea 573" y2="50.496" transform="translate(26.328 36.694)" fill="none" stroke="#263238" stroke-miterlimit="10" stroke-width="0.75"/>
      <line id="Línea_574" data-name="Línea 574" y2="50.496" transform="translate(65.548 36.694)" fill="none" stroke="#263238" stroke-miterlimit="10" stroke-width="0.75"/>
      <g id="Grupo_1111616" data-name="Grupo 1111616">
        <g id="Grupo_1111615" data-name="Grupo 1111615" clip-path="url(#clip-path)">
          <path id="Trazado_901161" data-name="Trazado 901161" d="M31.348,30.834V18.842h2.946a6.509,6.509,0,0,1,1.444.148,2.95,2.95,0,0,1,1.11.5,2.238,2.238,0,0,1,.718.94,3.861,3.861,0,0,1,.252,1.495,3.463,3.463,0,0,1-.2,1.244,1.879,1.879,0,0,1-.585.822,2.138,2.138,0,0,1-.962.407,2.482,2.482,0,0,1,1.177.5,2.268,2.268,0,0,1,.7.984,4.16,4.16,0,0,1,.229,1.466,4.9,4.9,0,0,1-.215,1.517,2.8,2.8,0,0,1-.636,1.1,2.66,2.66,0,0,1-1.051.658,4.407,4.407,0,0,1-1.474.223Zm2.191-7.092h.74a2.137,2.137,0,0,0,1.007-.192,1.04,1.04,0,0,0,.5-.592,3.067,3.067,0,0,0,.141-1.007,1.878,1.878,0,0,0-.215-.984,1.083,1.083,0,0,0-.644-.474,3.979,3.979,0,0,0-1.095-.126h-.43Zm0,5.552h.829a1.583,1.583,0,0,0,1.347-.481,2.513,2.513,0,0,0,.356-1.488,3.387,3.387,0,0,0-.171-1.177,1.252,1.252,0,0,0-.562-.674,2.127,2.127,0,0,0-1.044-.221h-.755Z" fill="#263238"/>
          <rect id="Rectángulo_404729" data-name="Rectángulo 404729" width="2.162" height="11.992" transform="translate(39.653 18.841)" fill="#263238"/>
          <path id="Trazado_901162" data-name="Trazado 901162" d="M43.665,30.834V18.842h2.191V29.324h2.9v1.51Z" fill="#263238"/>
          <path id="Trazado_901163" data-name="Trazado 901163" d="M49.839,30.834V18.842H52.03V29.324h2.9v1.51Z" fill="#263238"/>
          <path id="Trazado_901164" data-name="Trazado 901164" d="M59.032,31a3.54,3.54,0,0,1-1.807-.422,2.659,2.659,0,0,1-1.095-1.236,5.292,5.292,0,0,1-.414-2l1.88-.37a5.747,5.747,0,0,0,.17,1.228,1.79,1.79,0,0,0,.429.822,1.035,1.035,0,0,0,.763.289.854.854,0,0,0,.755-.319,1.378,1.378,0,0,0,.222-.807A2.186,2.186,0,0,0,59.58,26.9a5.545,5.545,0,0,0-.948-1.007l-1.51-1.332a4.567,4.567,0,0,1-1.014-1.222,3.362,3.362,0,0,1-.378-1.666,2.847,2.847,0,0,1,.829-2.191,3.2,3.2,0,0,1,2.266-.769,3.357,3.357,0,0,1,1.406.259,2.229,2.229,0,0,1,.9.718,3.208,3.208,0,0,1,.5,1.044,6.136,6.136,0,0,1,.208,1.236l-1.866.326a6.433,6.433,0,0,0-.125-1.008,1.409,1.409,0,0,0-.341-.695.955.955,0,0,0-.718-.252.9.9,0,0,0-.747.319,1.211,1.211,0,0,0-.259.792,1.817,1.817,0,0,0,.251,1,3.9,3.9,0,0,0,.726.807l1.495,1.317a6.2,6.2,0,0,1,1.265,1.458,3.729,3.729,0,0,1,.526,2.021,3.044,3.044,0,0,1-.377,1.525,2.714,2.714,0,0,1-1.052,1.044A3.176,3.176,0,0,1,59.032,31" fill="#263238"/>
          <rect id="Rectángulo_404730" data-name="Rectángulo 404730" width="83.343" height="62.263" transform="translate(0.448 81.754) rotate(-77.307)" fill="#fff"/>
          <rect id="Rectángulo_404731" data-name="Rectángulo 404731" width="83.343" height="62.263" transform="translate(0.448 81.754) rotate(-77.307)" fill="none" stroke="#263238" stroke-miterlimit="10" stroke-width="0.75"/>
          <line id="Línea_575" data-name="Línea 575" x2="46.871" y2="10.557" transform="translate(20.333 26.934)" fill="none" stroke="#263238" stroke-miterlimit="10" stroke-width="0.75"/>
          <line id="Línea_576" data-name="Línea 576" x2="46.871" y2="10.557" transform="translate(17.748 38.413)" fill="none" stroke="#263238" stroke-miterlimit="10" stroke-width="0.75"/>
          <line id="Línea_577" data-name="Línea 577" x2="46.871" y2="10.557" transform="translate(15.54 50.241)" fill="none" stroke="#263238" stroke-miterlimit="10" stroke-width="0.75"/>
          <line id="Línea_578" data-name="Línea 578" x2="46.871" y2="10.557" transform="translate(13.332 62.07)" fill="none" stroke="#263238" stroke-miterlimit="10" stroke-width="0.75"/>
          <line id="Línea_579" data-name="Línea 579" x2="46.871" y2="10.557" transform="translate(9.777 73.805)" fill="none" stroke="#263238" stroke-miterlimit="10" stroke-width="0.75"/>
          <line id="Línea_580" data-name="Línea 580" x1="11.095" y2="49.262" transform="translate(38.305 33.984)" fill="none" stroke="#263238" stroke-miterlimit="10" stroke-width="0.75"/>
          <line id="Línea_581" data-name="Línea 581" x1="11.095" y2="49.262" transform="translate(12.957 28.274)" fill="none" stroke="#263238" stroke-miterlimit="10" stroke-width="0.75"/>
          <line id="Línea_582" data-name="Línea 582" x1="11.095" y2="49.262" transform="translate(51.219 36.892)" fill="none" stroke="#263238" stroke-miterlimit="10" stroke-width="0.75"/>
          <path id="Trazado_901165" data-name="Trazado 901165" d="M30.237,23.661l2.635-11.7,2.874.647a6.487,6.487,0,0,1,1.376.462,2.94,2.94,0,0,1,.974.728,2.239,2.239,0,0,1,.494,1.075,3.847,3.847,0,0,1-.083,1.514,3.47,3.47,0,0,1-.468,1.169,1.88,1.88,0,0,1-.752.673,2.132,2.132,0,0,1-1.027.186,2.491,2.491,0,0,1,1.039.742,2.267,2.267,0,0,1,.462,1.114,4.133,4.133,0,0,1-.1,1.48,4.911,4.911,0,0,1-.543,1.433,2.8,2.8,0,0,1-.861.929,2.662,2.662,0,0,1-1.17.411,4.425,4.425,0,0,1-1.487-.106Zm3.7-6.437.722.163a2.137,2.137,0,0,0,1.024.033,1.042,1.042,0,0,0,.615-.468A3.109,3.109,0,0,0,36.652,16a1.888,1.888,0,0,0,.007-1.007,1.086,1.086,0,0,0-.524-.6,4,4,0,0,0-1.042-.363l-.419-.1Zm-1.22,5.416.809.182a1.585,1.585,0,0,0,1.42-.173,2.522,2.522,0,0,0,.674-1.374,3.408,3.408,0,0,0,.092-1.185,1.252,1.252,0,0,0-.4-.781,2.118,2.118,0,0,0-.969-.446L33.6,18.7Z" fill="#fd9826"/>
          <rect id="Rectángulo_404732" data-name="Rectángulo 404732" width="11.992" height="2.162" transform="matrix(0.22, -0.976, 0.976, 0.22, 38.34, 25.485)" fill="#fd9826"/>
          <path id="Trazado_901166" data-name="Trazado 901166" d="M42.253,26.367l2.635-11.7,2.137.482-2.3,10.225,2.831.638-.332,1.473Z" fill="#fd9826"/>
          <path id="Trazado_901167" data-name="Trazado 901167" d="M48.276,27.723l2.635-11.7,2.137.482-2.3,10.225,2.831.638-.332,1.473Z" fill="#fd9826"/>
          <path id="Trazado_901168" data-name="Trazado 901168" d="M57.209,29.9a3.55,3.55,0,0,1-1.67-.808,2.662,2.662,0,0,1-.8-1.447,5.33,5.33,0,0,1,.035-2.041l1.916.053a5.738,5.738,0,0,0-.1,1.235,1.78,1.78,0,0,0,.238.9,1.035,1.035,0,0,0,.68.45.856.856,0,0,0,.807-.145,1.381,1.381,0,0,0,.394-.738,2.185,2.185,0,0,0-.064-1.335,5.55,5.55,0,0,0-.7-1.19L56.76,23.2a4.552,4.552,0,0,1-.72-1.414,3.368,3.368,0,0,1,0-1.708,2.844,2.844,0,0,1,1.29-1.955,3.2,3.2,0,0,1,2.38-.254,3.366,3.366,0,0,1,1.314.562,2.232,2.232,0,0,1,.716.9,3.229,3.229,0,0,1,.255,1.128,6.211,6.211,0,0,1-.069,1.251l-1.892-.092a6.447,6.447,0,0,0,.1-1.01,1.416,1.416,0,0,0-.179-.754.96.96,0,0,0-.646-.4.906.906,0,0,0-.8.146,1.215,1.215,0,0,0-.427.716,1.82,1.82,0,0,0,.026,1.03,3.887,3.887,0,0,0,.531.946L59.805,23.9a6.22,6.22,0,0,1,.914,1.7,3.724,3.724,0,0,1,.069,2.088,3.041,3.041,0,0,1-.7,1.4,2.723,2.723,0,0,1-1.255.788,3.185,3.185,0,0,1-1.621.021" fill="#fd9826"/>
        </g>
      </g>
    </g>
    <g id="Grupo_1111622" data-name="Grupo 1111622" transform="translate(600 831)">
      <g id="Grupo_1111619" data-name="Grupo 1111619">
        <g id="Grupo_1111618" data-name="Grupo 1111618" clip-path="url(#clip-path-2)">
          <path id="Trazado_901169" data-name="Trazado 901169" d="M80.6,62.153,35.351,20.3A61.644,61.644,0,1,0,132.445,95.5Z" fill="#878787"/>
          <path id="Trazado_901170" data-name="Trazado 901170" d="M80.6,62.153,35.351,20.3A61.644,61.644,0,1,0,132.445,95.5Z" fill="none" stroke="#263238" stroke-linecap="round" stroke-linejoin="round" stroke-width="1"/>
          <path id="Trazado_901171" data-name="Trazado 901171" d="M35.351,20.3,80.6,62.153,132.445,95.5A61.642,61.642,0,0,0,35.351,20.3" fill="#fd9826"/>
          <path id="Trazado_901172" data-name="Trazado 901172" d="M35.351,20.3,80.6,62.153,132.445,95.5A61.642,61.642,0,0,0,35.351,20.3Z" fill="none" stroke="#263238" stroke-linecap="round" stroke-linejoin="round" stroke-width="1"/>
          <path id="Trazado_901173" data-name="Trazado 901173" d="M80.6,62.153,66.248,122.108a61.613,61.613,0,0,0,66.2-26.6Z" fill="#b8b8b8"/>
          <path id="Trazado_901174" data-name="Trazado 901174" d="M80.6,62.153,66.248,122.108a61.613,61.613,0,0,0,66.2-26.6Z" fill="none" stroke="#263238" stroke-linecap="round" stroke-linejoin="round" stroke-width="1"/>
          <path id="Trazado_901175" data-name="Trazado 901175" d="M66.171,122.091,80.6,62.153l-61.631-.959c-.005.32-.023.638-.023.959a61.665,61.665,0,0,0,47.222,59.938" fill="#fff"/>
          <path id="Trazado_901176" data-name="Trazado 901176" d="M66.171,122.091,80.6,62.153l-61.631-.959c-.005.32-.023.638-.023.959A61.665,61.665,0,0,0,66.171,122.091Z" fill="none" stroke="#263238" stroke-linecap="round" stroke-linejoin="round" stroke-width="1"/>
          <line id="Línea_583" data-name="Línea 583" y1="23" x2="29.954" transform="translate(120.85 14.409)" fill="none" stroke="#263238" stroke-linecap="round" stroke-linejoin="round" stroke-width="1"/>
          <line id="Línea_584" data-name="Línea 584" x1="27.279" y2="19.791" transform="translate(11.733 94.641)" fill="none" stroke="#263238" stroke-linecap="round" stroke-linejoin="round" stroke-width="1"/>
          <line id="Línea_585" data-name="Línea 585" x1="35.303" y1="16.047" transform="translate(0.5 25.106)" fill="none" stroke="#263238" stroke-linecap="round" stroke-linejoin="round" stroke-width="1"/>
          <path id="Trazado_901177" data-name="Trazado 901177" d="M98.384,108.014l13.372,34.145h23.715" fill="none" stroke="#263238" stroke-linecap="round" stroke-linejoin="round" stroke-width="1"/>
          <path id="Trazado_901178" data-name="Trazado 901178" d="M122.759,62.153A42.157,42.157,0,1,0,80.6,104.309a42.156,42.156,0,0,0,42.156-42.156" fill="#263238"/>
          <path id="Trazado_901179" data-name="Trazado 901179" d="M122.759,62.153A42.157,42.157,0,1,0,80.6,104.309,42.156,42.156,0,0,0,122.759,62.153Z" fill="none" stroke="#263238" stroke-linecap="round" stroke-linejoin="round" stroke-width="1"/>
        </g>
      </g>
      <g id="Grupo_1111621" data-name="Grupo 1111621">
        <g id="Grupo_1111620" data-name="Grupo 1111620" clip-path="url(#clip-path-2)">
          <path id="Trazado_901180" data-name="Trazado 901180" d="M79.479,90.992V86.253q-5.811-.227-8.66-3.78t-3.131-10.1l7.221-1.41a23.507,23.507,0,0,0,.621,4.683,6.592,6.592,0,0,0,1.608,3.131,3.927,3.927,0,0,0,2.9,1.1,3.336,3.336,0,0,0,2.9-1.213,5.126,5.126,0,0,0,.875-3.075,8.2,8.2,0,0,0-1.382-4.908,23.07,23.07,0,0,0-3.583-3.836l-5.811-5.078a21.264,21.264,0,0,1-2.764-2.962,12.443,12.443,0,0,1-1.862-3.5,13.829,13.829,0,0,1-.676-4.541q0-5.133,2.933-8.04a11.736,11.736,0,0,1,7.9-3.187V34.97H81v4.513a10.437,10.437,0,0,1,4.739,1.27A8.7,8.7,0,0,1,88.7,43.574a12.92,12.92,0,0,1,1.636,3.864,22.959,22.959,0,0,1,.649,4.457l-7.109,1.242a27.594,27.594,0,0,0-.451-3.865,5.365,5.365,0,0,0-1.269-2.708,3.285,3.285,0,0,0-2.736-.875,3.718,3.718,0,0,0-2.906,1.241,4.516,4.516,0,0,0-.987,2.991A6.58,6.58,0,0,0,76.6,53.842,19.819,19.819,0,0,0,79.253,56.8l5.755,5.021a31.855,31.855,0,0,1,3.357,3.555,16.2,16.2,0,0,1,2.482,4.287,14.725,14.725,0,0,1,.931,5.416,11.906,11.906,0,0,1-1.213,5.445,9.975,9.975,0,0,1-3.413,3.864A11.612,11.612,0,0,1,81.9,86.2v4.795Z" fill="#cdb9f8"/>
        </g>
      </g>
    </g>
    <g id="Grupo_1111614" data-name="Grupo 1111614" transform="translate(631.09 874.354)">
      <g id="Grupo_1111613" data-name="Grupo 1111613" clip-path="url(#clip-path-4)">
        <path id="Trazado_901097" data-name="Trazado 901097" d="M133.846,76.672S74.745,87.9,68.209,96.84s-22.766,56.539-24.142,58.6S14.829,199.128,10.7,211.168s-1.033,22.7,9.287,29.238,20.984,3.44,26.143,3.44,18.575-11.352,19.606-16.166,4.127-17.888,4.127-17.888l19.264-33.71,11.7,70.164H261.462l11.007-67.067,33.71,61.916H361.9l-34.743-73.955L307.9,132.4s-7.567-25.8-19.262-36.463-27.863-14.1-33.367-14.446-20.295-3.783-27.862-5.5-23.391-6.88-23.391-6.88Z" transform="translate(5.021 38.844)" fill="#b5b5b5"/>
        <path id="Trazado_901098" data-name="Trazado 901098" d="M133.846,76.672S74.745,87.9,68.209,96.84s-22.766,56.539-24.142,58.6S14.829,199.128,10.7,211.168s-1.033,22.7,9.287,29.238,20.984,3.44,26.143,3.44,18.575-11.352,19.606-16.166,4.127-17.888,4.127-17.888l19.264-33.71,11.7,70.164H261.462l11.007-67.067,33.71,61.916H361.9l-34.743-73.955L307.9,132.4s-7.567-25.8-19.262-36.463-27.863-14.1-33.367-14.446-20.295-3.783-27.862-5.5-23.391-6.88-23.391-6.88Z" transform="translate(5.021 38.844)" fill="none" stroke="#263238" stroke-linecap="round" stroke-linejoin="round" stroke-width="1"/>
        <path id="Trazado_901099" data-name="Trazado 901099" d="M18.676,149.534s18.864-2.9,36.858,12.48" transform="translate(10.498 83.932)" fill="none" stroke="#263238" stroke-linecap="round" stroke-linejoin="round" stroke-width="1"/>
        <path id="Trazado_901100" data-name="Trazado 901100" d="M279.3,205.855c10.554-6.748,29.853-18.152,47.337-23.458l-7.169-15.259L300.205,132.4s-7.568-25.8-19.262-36.463-27.863-14.1-33.367-14.446-20.295-3.783-27.862-5.5-23.391-6.88-23.391-6.88l-70.171,7.567s-53.6,8.71-65.637,20.168c-14.965,14.253-22.766,56.539-24.142,58.6-.63.947-6.83,10.211-13.754,21.123,7.429,6.072,24.236,18.238,45.115,23.494l13.7-23.978,11.7,70.164H253.769l11.007-67.067Z" transform="translate(12.714 38.844)" fill="#fff"/>
        <path id="Trazado_901101" data-name="Trazado 901101" d="M279.3,205.855c10.554-6.748,29.853-18.152,47.337-23.458l-7.169-15.259L300.205,132.4s-7.568-25.8-19.262-36.463-27.863-14.1-33.367-14.446-20.295-3.783-27.862-5.5-23.391-6.88-23.391-6.88l-70.171,7.567s-53.6,8.71-65.637,20.168c-14.965,14.253-22.766,56.539-24.142,58.6-.63.947-6.83,10.211-13.754,21.123,7.429,6.072,24.236,18.238,45.115,23.494l13.7-23.978,11.7,70.164H253.769l11.007-67.067Z" transform="translate(12.714 38.844)" fill="none" stroke="#263238" stroke-linecap="round" stroke-linejoin="round" stroke-width="1"/>
        <path id="Trazado_901102" data-name="Trazado 901102" d="M89.245,76.672,88.278,77l2.687,8.268s4.472,26.831,14.448,36.117,22.358,10.663,40.245-2.407,23.391-28.894,23.735-36.117l.344-7.225-1.29-3.688c-4.98-1.526-9.029-2.846-9.029-2.846Z" transform="translate(49.622 38.844)" fill="none" stroke="#263238" stroke-linecap="round" stroke-linejoin="round" stroke-width="1"/>
        <path id="Trazado_901103" data-name="Trazado 901103" d="M90.073,112.211A61.855,61.855,0,0,0,93.4,120.2" transform="translate(50.631 63.074)" fill="none" stroke="#263238" stroke-linecap="round" stroke-linejoin="round" stroke-width="1"/>
        <path id="Trazado_901104" data-name="Trazado 901104" d="M85.373,82.1s.4,20.768,5.069,39.3" transform="translate(47.989 46.147)" fill="none" stroke="#263238" stroke-linecap="round" stroke-linejoin="round" stroke-width="1"/>
        <path id="Trazado_901105" data-name="Trazado 901105" d="M81.976,81.216s-5.847,15.823-3.44,24.766" transform="translate(43.819 45.652)" fill="none" stroke="#263238" stroke-linecap="round" stroke-linejoin="round" stroke-width="1"/>
        <path id="Trazado_901106" data-name="Trazado 901106" d="M162.362,118.309a53.29,53.29,0,0,0,2.192,7.412" transform="translate(91.265 66.502)" fill="none" stroke="#263238" stroke-linecap="round" stroke-linejoin="round" stroke-width="1"/>
        <path id="Trazado_901107" data-name="Trazado 901107" d="M162.5,93.547s-3.135,19.05.084,36.355" transform="translate(90.571 52.583)" fill="none" stroke="#263238" stroke-linecap="round" stroke-linejoin="round" stroke-width="1"/>
        <path id="Trazado_901108" data-name="Trazado 901108" d="M150.773,105.878s3.1,12.383,6.192,17.888" transform="translate(84.75 59.515)" fill="none" stroke="#263238" stroke-linecap="round" stroke-linejoin="round" stroke-width="1"/>
        <path id="Trazado_901109" data-name="Trazado 901109" d="M168.61,127.458l14.1,18.919L169.3,137.09" transform="translate(94.777 71.645)" fill="none" stroke="#263238" stroke-linecap="round" stroke-linejoin="round" stroke-width="1"/>
        <path id="Trazado_901110" data-name="Trazado 901110" d="M63.5,156.277s-4.472-19.606-6.88-28.205-2.064-23.735-2.064-23.735" transform="translate(30.655 58.648)" fill="none" stroke="#263238" stroke-linecap="round" stroke-linejoin="round" stroke-width="1"/>
        <path id="Trazado_901111" data-name="Trazado 901111" d="M44.2,108.961s4.472,9.287,13.072,14.446" transform="translate(24.843 61.248)" fill="none" stroke="#263238" stroke-linecap="round" stroke-linejoin="round" stroke-width="1"/>
        <path id="Trazado_901112" data-name="Trazado 901112" d="M95.943,105.384s5.5,17.542,19.951,22.015,37.494-23.047,39.214-30.614a81.023,81.023,0,0,0,1.72-16.511c0-1.031-2.752-26.142-2.752-26.142a282.1,282.1,0,0,1-23.047,31.647c-13.414,15.823-35.085,19.606-35.085,19.606" transform="translate(53.93 30.427)" fill="#b5b5b5"/>
        <path id="Trazado_901113" data-name="Trazado 901113" d="M95.943,105.384s5.5,17.542,19.951,22.015,37.494-23.047,39.214-30.614a81.023,81.023,0,0,0,1.72-16.511c0-1.031-2.752-26.142-2.752-26.142a282.1,282.1,0,0,1-23.047,31.647C117.614,101.6,95.943,105.384,95.943,105.384Z" transform="translate(53.93 30.427)" fill="none" stroke="#263238" stroke-linecap="round" stroke-linejoin="round" stroke-width="1"/>
        <path id="Trazado_901114" data-name="Trazado 901114" d="M95.943,94s4.461,14.2,15.882,20.306c4.222-4.352,8.943-10.137,11.292-16.179,4.816-12.383,7.911-23.733,7.911-23.733C117.614,90.213,95.943,94,95.943,94" transform="translate(53.93 41.815)" fill="#263238"/>
        <path id="Trazado_901115" data-name="Trazado 901115" d="M95.943,94s4.461,14.2,15.882,20.306c4.222-4.352,8.943-10.137,11.292-16.179,4.816-12.383,7.911-23.733,7.911-23.733C117.614,90.213,95.943,94,95.943,94Z" transform="translate(53.93 41.815)" fill="none" stroke="#263238" stroke-linecap="round" stroke-linejoin="round" stroke-width="1"/>
        <path id="Trazado_901116" data-name="Trazado 901116" d="M79.384,42.321s1.8,39.966,2.706,45.977S89.3,110.535,90.8,115.043s11.421,21.637,20.134,24.041,15.026-.9,20.735-3.607,18.633-17.73,21.037-21.937,7.512-14.123,9.313-18.03l1.8-3.907s1.8-38.164,2.106-42.972,4.205-24.642-.3-31.553S143.993,1.151,125.06.55,89.3,4.758,82.99,13.172s-7.512,23.739-3.605,29.149" transform="translate(43.363 0.281)" fill="#b5b5b5"/>
        <path id="Trazado_901117" data-name="Trazado 901117" d="M79.384,42.321s1.8,39.966,2.706,45.977S89.3,110.535,90.8,115.043s11.421,21.637,20.134,24.041,15.026-.9,20.735-3.607,18.633-17.73,21.037-21.937,7.512-14.123,9.313-18.03l1.8-3.907s1.8-38.164,2.106-42.972,4.205-24.642-.3-31.553S143.993,1.151,125.06.55,89.3,4.758,82.99,13.172,75.477,36.911,79.384,42.321Z" transform="translate(43.363 0.281)" fill="none" stroke="#263238" stroke-linecap="round" stroke-linejoin="round" stroke-width="1"/>
        <path id="Trazado_901118" data-name="Trazado 901118" d="M81.788,39.315c0-2.1,3.607-2.7,3.607-2.7s18.631,14.123,29.749,13.522,24.642-10.518,29.75-9.615,5.71,5.408,4.207,12.92-2.4,18.331,0,18.631,6.611-1.5,6.611-1.5-.6,7.812,2.4,8.114,5.709-3.307,5.709-4.208.9-12.922.9-12.922l.555-.264c.3-6.086.551-11.107.648-12.656.3-4.808,4.207-24.642-.3-31.555S143.993,1.152,125.06.55,89.3,4.757,82.991,13.172s-7.514,23.739-3.607,29.149c0,0,2.4-.9,2.4-3.005" transform="translate(43.363 0.281)" fill="#263238"/>
        <path id="Trazado_901119" data-name="Trazado 901119" d="M81.788,39.315c0-2.1,3.607-2.7,3.607-2.7s18.631,14.123,29.749,13.522,24.642-10.518,29.75-9.615,5.71,5.408,4.207,12.92-2.4,18.331,0,18.631,6.611-1.5,6.611-1.5-.6,7.812,2.4,8.114,5.709-3.307,5.709-4.208.9-12.922.9-12.922l.555-.264c.3-6.086.551-11.107.648-12.656.3-4.808,4.207-24.642-.3-31.555S143.993,1.152,125.06.55,89.3,4.757,82.991,13.172s-7.514,23.739-3.607,29.149C79.384,42.321,81.788,41.42,81.788,39.315Z" transform="translate(43.363 0.281)" fill="none" stroke="#263238" stroke-linecap="round" stroke-linejoin="round" stroke-width="1"/>
        <path id="Trazado_901120" data-name="Trazado 901120" d="M128.787,56.876s3.005-14.424,8.413-13.823,4.808,14.424,1.2,19.533-7.212,6.009-7.212,6.009" transform="translate(72.392 24.19)" fill="#b5b5b5"/>
        <path id="Trazado_901121" data-name="Trazado 901121" d="M128.787,56.876s3.005-14.424,8.413-13.823,4.808,14.424,1.2,19.533-7.212,6.009-7.212,6.009" transform="translate(72.392 24.19)" fill="none" stroke="#263238" stroke-linecap="round" stroke-linejoin="round" stroke-width="1"/>
        <path id="Trazado_901122" data-name="Trazado 901122" d="M95.5,54.973s-.9,21.937-.3,23.739,2.7,4.207,8.114,4.207,6.911-1.5,7.812-4.207" transform="translate(53.395 30.901)" fill="none" stroke="#263238" stroke-linecap="round" stroke-linejoin="round" stroke-width="1"/>
        <path id="Trazado_901123" data-name="Trazado 901123" d="M92.237,74.98s2.1,3.005,4.808,3.907,11.119,1.2,15.326.6,8.114-3.005,8.715-3.907" transform="translate(51.847 42.147)" fill="none" stroke="#263238" stroke-linecap="round" stroke-linejoin="round" stroke-width="1"/>
        <path id="Trazado_901124" data-name="Trazado 901124" d="M105.315,53.692s17.5-.936,19.575-1.264-5.4-3.405-11.778-3.313-12.514,1.671-7.8,4.577" transform="translate(58.26 27.607)" fill="#263238"/>
        <path id="Trazado_901125" data-name="Trazado 901125" d="M105.315,53.692s17.5-.936,19.575-1.264-5.4-3.405-11.778-3.313S100.6,50.786,105.315,53.692Z" transform="translate(58.26 27.607)" fill="none" stroke="#263238" stroke-linecap="round" stroke-linejoin="round" stroke-width="1"/>
        <path id="Trazado_901126" data-name="Trazado 901126" d="M101.137,53.6s-17.5-.761-19.587-1.067,5.371-3.46,11.745-3.432,12.53,1.545,7.842,4.5" transform="translate(45.64 27.603)" fill="#263238"/>
        <path id="Trazado_901127" data-name="Trazado 901127" d="M101.137,53.6s-17.5-.761-19.587-1.067,5.371-3.46,11.745-3.432S105.825,50.651,101.137,53.6Z" transform="translate(45.64 27.603)" fill="none" stroke="#263238" stroke-linecap="round" stroke-linejoin="round" stroke-width="1"/>
        <path id="Trazado_901128" data-name="Trazado 901128" d="M85.119,58.243s3.605,5.41,13.523,1.8" transform="translate(47.846 32.739)" fill="none" stroke="#263238" stroke-linecap="round" stroke-linejoin="round" stroke-width="1"/>
        <path id="Trazado_901129" data-name="Trazado 901129" d="M106.213,59.192s4.558,6.169,15.2.89" transform="translate(59.703 33.272)" fill="none" stroke="#263238" stroke-linecap="round" stroke-linejoin="round" stroke-width="1"/>
        <rect id="Rectángulo_404702" data-name="Rectángulo 404702" width="37.94" height="76.362" transform="translate(148.897 225.348) rotate(-54.251)" fill="#92e3a9"/>
        <rect id="Rectángulo_404703" data-name="Rectángulo 404703" width="37.94" height="76.362" transform="translate(148.897 225.348) rotate(-54.251)" fill="#fd9826" stroke="#263238" stroke-linecap="round" stroke-linejoin="round" stroke-width="1"/>
        <rect id="Rectángulo_404704" data-name="Rectángulo 404704" width="26.414" height="64.763" transform="matrix(0.584, -0.812, 0.812, 0.584, 156.971, 224.058)" fill="#fff"/>
        <rect id="Rectángulo_404705" data-name="Rectángulo 404705" width="26.414" height="64.763" transform="matrix(0.584, -0.812, 0.812, 0.584, 156.971, 224.058)" fill="none" stroke="#263238" stroke-linecap="round" stroke-linejoin="round" stroke-width="1"/>
        <path id="Trazado_901130" data-name="Trazado 901130" d="M128.706,146.41c4.09,2.945,5.836,7.512,3.9,10.2s-6.822,2.485-10.913-.459-5.834-7.514-3.9-10.2,6.823-2.485,10.913.459" transform="translate(65.768 80.977)" fill="#92e3a9"/>
        <path id="Trazado_901131" data-name="Trazado 901131" d="M128.706,146.41c4.09,2.945,5.836,7.512,3.9,10.2s-6.822,2.485-10.913-.459-5.834-7.514-3.9-10.2S124.617,143.465,128.706,146.41Z" transform="translate(65.768 80.977)" fill="none" stroke="#263238" stroke-linecap="round" stroke-linejoin="round" stroke-width="1"/>
        <rect id="Rectángulo_404706" data-name="Rectángulo 404706" width="37.941" height="76.362" transform="translate(156.283 215.832) rotate(-46.194)" fill="#fd9826"/>
        <rect id="Rectángulo_404707" data-name="Rectángulo 404707" width="37.941" height="76.362" transform="translate(156.283 215.832) rotate(-46.194)" fill="none" stroke="#263238" stroke-linecap="round" stroke-linejoin="round" stroke-width="1"/>
        <rect id="Rectángulo_404708" data-name="Rectángulo 404708" width="26.414" height="64.763" transform="translate(164.458 215.688) rotate(-46.196)" fill="#fff"/>
        <rect id="Rectángulo_404709" data-name="Rectángulo 404709" width="26.414" height="64.763" transform="translate(164.458 215.688) rotate(-46.196)" fill="none" stroke="#263238" stroke-linecap="round" stroke-linejoin="round" stroke-width="1"/>
        <path id="Trazado_901132" data-name="Trazado 901132" d="M133.051,144.746c3.637,3.488,4.724,8.256,2.428,10.649s-7.1,1.5-10.738-1.984-4.725-8.256-2.431-10.649,7.1-1.5,10.741,1.984" transform="translate(68.075 79.492)" fill="#92e3a9"/>
        <path id="Trazado_901133" data-name="Trazado 901133" d="M133.051,144.746c3.637,3.488,4.724,8.256,2.428,10.649s-7.1,1.5-10.738-1.984-4.725-8.256-2.431-10.649S129.413,141.258,133.051,144.746Z" transform="translate(68.075 79.492)" fill="none" stroke="#263238" stroke-linecap="round" stroke-linejoin="round" stroke-width="1"/>
        <rect id="Rectángulo_404710" data-name="Rectángulo 404710" width="37.941" height="76.362" transform="matrix(0.808, -0.589, 0.589, 0.808, 164.961, 206.902)" fill="#92e3a9"/>
        <rect id="Rectángulo_404711" data-name="Rectángulo 404711" width="37.941" height="76.362" transform="matrix(0.808, -0.589, 0.589, 0.808, 164.961, 206.902)" fill="#fd9826" stroke="#263238" stroke-linecap="round" stroke-linejoin="round" stroke-width="1"/>
        <rect id="Rectángulo_404712" data-name="Rectángulo 404712" width="26.414" height="64.764" transform="matrix(0.808, -0.589, 0.589, 0.808, 173.034, 208.191)" fill="#fff"/>
        <rect id="Rectángulo_404713" data-name="Rectángulo 404713" width="26.414" height="64.764" transform="matrix(0.808, -0.589, 0.589, 0.808, 173.034, 208.191)" fill="none" stroke="#263238" stroke-linecap="round" stroke-linejoin="round" stroke-width="1"/>
        <path id="Trazado_901134" data-name="Trazado 901134" d="M137.272,144.448c2.97,4.072,3.205,8.956.526,10.91s-7.258.237-10.227-3.835-3.205-8.957-.526-10.91,7.258-.237,10.227,3.835" transform="translate(70.365 78.586)" fill="#92e3a9"/>
        <path id="Trazado_901135" data-name="Trazado 901135" d="M137.272,144.448c2.97,4.072,3.205,8.956.526,10.91s-7.258.237-10.227-3.835-3.205-8.957-.526-10.91S134.3,140.376,137.272,144.448Z" transform="translate(70.365 78.586)" fill="none" stroke="#263238" stroke-linecap="round" stroke-linejoin="round" stroke-width="1"/>
        <rect id="Rectángulo_404714" data-name="Rectángulo 404714" width="37.941" height="76.362" transform="translate(177.305 198.36) rotate(-23.933)" fill="#fed6a8"/>
        <rect id="Rectángulo_404715" data-name="Rectángulo 404715" width="37.941" height="76.362" transform="translate(177.305 198.36) rotate(-23.933)" fill="none" stroke="#263238" stroke-linecap="round" stroke-linejoin="round" stroke-width="1"/>
        <rect id="Rectángulo_404716" data-name="Rectángulo 404716" width="26.415" height="64.763" transform="translate(184.924 201.323) rotate(-23.934)" fill="#fff"/>
        <rect id="Rectángulo_404717" data-name="Rectángulo 404717" width="26.415" height="64.763" transform="translate(184.924 201.323) rotate(-23.934)" fill="none" stroke="#263238" stroke-linecap="round" stroke-linejoin="round" stroke-width="1"/>
        <path id="Trazado_901136" data-name="Trazado 901136" d="M142.387,145.088c2.045,4.607,1.245,9.43-1.785,10.775s-7.145-1.3-9.188-5.9-1.245-9.43,1.785-10.775,7.144,1.3,9.188,5.9" transform="translate(73.232 78.039)" fill="#92e3a9"/>
        <path id="Trazado_901137" data-name="Trazado 901137" d="M142.387,145.088c2.045,4.607,1.245,9.43-1.785,10.775s-7.145-1.3-9.188-5.9-1.245-9.43,1.785-10.775S140.343,140.481,142.387,145.088Z" transform="translate(73.232 78.039)" fill="none" stroke="#263238" stroke-linecap="round" stroke-linejoin="round" stroke-width="1"/>
        <rect id="Rectángulo_404718" data-name="Rectángulo 404718" width="37.94" height="76.363" transform="translate(189.953 192.982) rotate(-12.793)" fill="#fd9826"/>
        <rect id="Rectángulo_404719" data-name="Rectángulo 404719" width="37.94" height="76.363" transform="translate(189.953 192.982) rotate(-12.793)" fill="none" stroke="#263238" stroke-linecap="round" stroke-linejoin="round" stroke-width="1"/>
        <rect id="Rectángulo_404720" data-name="Rectángulo 404720" width="26.414" height="64.763" transform="translate(196.857 197.361) rotate(-12.792)" fill="#fff"/>
        <rect id="Rectángulo_404721" data-name="Rectángulo 404721" width="26.414" height="64.763" transform="translate(196.857 197.361) rotate(-12.792)" fill="none" stroke="#263238" stroke-linecap="round" stroke-linejoin="round" stroke-width="1"/>
        <path id="Trazado_901138" data-name="Trazado 901138" d="M146.939,146.595c1.115,4.914-.6,9.493-3.833,10.227s-6.759-2.654-7.875-7.568.6-9.495,3.833-10.229,6.759,2.656,7.875,7.57" transform="translate(75.822 78.091)" fill="#92e3a9"/>
        <path id="Trazado_901139" data-name="Trazado 901139" d="M146.939,146.595c1.115,4.914-.6,9.493-3.833,10.227s-6.759-2.654-7.875-7.568.6-9.495,3.833-10.229S145.823,141.681,146.939,146.595Z" transform="translate(75.822 78.091)" fill="none" stroke="#263238" stroke-linecap="round" stroke-linejoin="round" stroke-width="1"/>
        <path id="Trazado_901140" data-name="Trazado 901140" d="M168.683,149.753s-27.174,10.319-28.551,11.352-14.79,13.415-15.479,15.135l-.687,1.72a2.012,2.012,0,0,0,2.064,2.407s-2.752,4.127-.344,6.192,5.847.344,5.847.344-3.1,4.816.344,5.847a21.325,21.325,0,0,0,7.912.344s-.687,1.721,11.352,4.129,24.766,3.44,30.269,2.407,17.888-2.407,17.888-2.407,55.036,4.472,66.044,3.44,28.549.687,31.989-4.816-1.72-15.479-5.847-21.671-13.759-17.886-25.111-18.23c-6.876-.209-18.919,2.064-25.111,4.816s-20.639,8.6-22.013,8.943-16.168-.689-16.168-.689S174.53,150.1,172.81,149.753a14.986,14.986,0,0,0-4.127,0" transform="translate(69.673 84.091)" fill="#b5b5b5"/>
        <path id="Trazado_901141" data-name="Trazado 901141" d="M168.683,149.753s-27.174,10.319-28.551,11.352-14.79,13.415-15.479,15.135l-.687,1.72a2.012,2.012,0,0,0,2.064,2.407s-2.752,4.127-.344,6.192,5.847.344,5.847.344-3.1,4.816.344,5.847a21.325,21.325,0,0,0,7.912.344s-.687,1.721,11.352,4.129,24.766,3.44,30.269,2.407,17.888-2.407,17.888-2.407,55.036,4.472,66.044,3.44,28.549.687,31.989-4.816-1.72-15.479-5.847-21.671-13.759-17.886-25.111-18.23c-6.876-.209-18.919,2.064-25.111,4.816s-20.639,8.6-22.013,8.943-16.168-.689-16.168-.689S174.53,150.1,172.81,149.753A14.986,14.986,0,0,0,168.683,149.753Z" transform="translate(69.673 84.091)" fill="none" stroke="#263238" stroke-linecap="round" stroke-linejoin="round" stroke-width="1"/>
        <path id="Trazado_901142" data-name="Trazado 901142" d="M125.281,175.485l20.982-11.352L170,158.286" transform="translate(70.421 88.974)" fill="none" stroke="#263238" stroke-linecap="round" stroke-linejoin="round" stroke-width="1"/>
        <path id="Trazado_901143" data-name="Trazado 901143" d="M128.8,177.565l19.606-7.223,21.671-4.129" transform="translate(72.401 93.429)" fill="none" stroke="#263238" stroke-linecap="round" stroke-linejoin="round" stroke-width="1"/>
        <path id="Trazado_901144" data-name="Trazado 901144" d="M134.089,179.177l19.262-2.752,17.2-2.064" transform="translate(75.372 98.009)" fill="none" stroke="#263238" stroke-linecap="round" stroke-linejoin="round" stroke-width="1"/>
        <path id="Trazado_901145" data-name="Trazado 901145" d="M32.062,151.675s16.511,8.256,18.231,8.6,12.383-.344,13.07,7.223-6.191,17.888-7.567,22.358-17.542,3.44-17.542,3.44-5.5-18.575-6.88-25.453.687-16.168.687-16.168" transform="translate(17.37 85.257)" fill="#b5b5b5"/>
        <path id="Trazado_901146" data-name="Trazado 901146" d="M32.062,151.675s16.511,8.256,18.231,8.6,12.383-.344,13.07,7.223-6.191,17.888-7.567,22.358-17.542,3.44-17.542,3.44-5.5-18.575-6.88-25.453S32.062,151.675,32.062,151.675Z" transform="translate(17.37 85.257)" fill="none" stroke="#263238" stroke-linecap="round" stroke-linejoin="round" stroke-width="1"/>
        <path id="Trazado_901147" data-name="Trazado 901147" d="M27.461,134.062l19.951,65.7,5.948,5.849-.148-8.6L32.75,132.217Z" transform="translate(15.436 74.32)" fill="#fff"/>
        <path id="Trazado_901148" data-name="Trazado 901148" d="M27.461,134.062l19.951,65.7,5.948,5.849-.148-8.6L32.75,132.217Z" transform="translate(15.436 74.32)" fill="none" stroke="#263238" stroke-linecap="round" stroke-linejoin="round" stroke-width="1"/>
        <path id="Trazado_901149" data-name="Trazado 901149" d="M32.75,132.217l-5.289,1.845,2.346,7.725,5.391-1.818Z" transform="translate(15.436 74.32)" fill="#fff"/>
        <path id="Trazado_901150" data-name="Trazado 901150" d="M32.75,132.217l-5.289,1.845,2.346,7.725,5.391-1.818Z" transform="translate(15.436 74.32)" fill="none" stroke="#263238" stroke-linecap="round" stroke-linejoin="round" stroke-width="1"/>
        <path id="Trazado_901151" data-name="Trazado 901151" d="M14.248,176.117s2.064,5.847,4.127,6.536,13.761.344,17.2.344-21.326-6.88-21.326-6.88" transform="translate(8.009 98.996)" fill="#b5b5b5"/>
        <path id="Trazado_901152" data-name="Trazado 901152" d="M14.248,176.117s2.064,5.847,4.127,6.536,13.761.344,17.2.344S14.248,176.117,14.248,176.117Z" transform="translate(8.009 98.996)" fill="none" stroke="#263238" stroke-linecap="round" stroke-linejoin="round" stroke-width="1"/>
        <path id="Trazado_901153" data-name="Trazado 901153" d="M19.085,167.75s-5.5,10.319-4.816,13.072,5.849,4.127,10.319,5.16,14.792,1.376,19.264,1.031-3.785-4.471-3.785-4.471A120.393,120.393,0,0,1,27.341,173.6a45.741,45.741,0,0,0-8.256-5.847" transform="translate(7.988 94.293)" fill="#b5b5b5"/>
        <path id="Trazado_901154" data-name="Trazado 901154" d="M19.085,167.75s-5.5,10.319-4.816,13.072,5.849,4.127,10.319,5.16,14.792,1.376,19.264,1.031-3.785-4.471-3.785-4.471A120.393,120.393,0,0,1,27.341,173.6,45.741,45.741,0,0,0,19.085,167.75Z" transform="translate(7.988 94.293)" fill="none" stroke="#263238" stroke-linecap="round" stroke-linejoin="round" stroke-width="1"/>
        <path id="Trazado_901155" data-name="Trazado 901155" d="M26.966,162.107s-9.288,6.192-9.632,9.976,9.976,13.759,11.7,15.135S42.789,191.688,46.572,191a7.274,7.274,0,0,0,5.16-3.44s-11.694-8.943-14.79-13.759-6.88-13.759-6.88-13.759Z" transform="translate(9.739 89.961)" fill="#b5b5b5"/>
        <path id="Trazado_901156" data-name="Trazado 901156" d="M26.966,162.107s-9.288,6.192-9.632,9.976,9.976,13.759,11.7,15.135S42.789,191.688,46.572,191a7.274,7.274,0,0,0,5.16-3.44s-11.694-8.943-14.79-13.759-6.88-13.759-6.88-13.759Z" transform="translate(9.739 89.961)" fill="none" stroke="#263238" stroke-linecap="round" stroke-linejoin="round" stroke-width="1"/>
        <path id="Trazado_901157" data-name="Trazado 901157" d="M36.471,151.675s-13.415,3.44-13.415,8.256S28.9,179.193,32,182.289s13.759,12.383,16.511,9.976,1.033-4.816.344-7.223-8.6-22.7-8.6-22.7Z" transform="translate(12.96 85.257)" fill="#b5b5b5"/>
        <path id="Trazado_901158" data-name="Trazado 901158" d="M36.471,151.675s-13.415,3.44-13.415,8.256S28.9,179.193,32,182.289s13.759,12.383,16.511,9.976,1.033-4.816.344-7.223-8.6-22.7-8.6-22.7Z" transform="translate(12.96 85.257)" fill="none" stroke="#263238" stroke-linecap="round" stroke-linejoin="round" stroke-width="1"/>
        <path id="Trazado_901159" data-name="Trazado 901159" d="M48.949,158.14S37.6,179.466,39.662,181.531s5.847,4.127,7.567,3.1,8.943-10.319,11.007-15.48.689-7.223-2.407-9.63a8.467,8.467,0,0,0-6.88-1.376" transform="translate(22.153 88.768)" fill="#b5b5b5"/>
        <path id="Trazado_901160" data-name="Trazado 901160" d="M48.949,158.14S37.6,179.466,39.662,181.531s5.847,4.127,7.567,3.1,8.943-10.319,11.007-15.48.689-7.223-2.407-9.63A8.467,8.467,0,0,0,48.949,158.14Z" transform="translate(22.153 88.768)" fill="none" stroke="#263238" stroke-linecap="round" stroke-linejoin="round" stroke-width="1"/>
        <circle id="Elipse_13233" data-name="Elipse 13233" cx="3.599" cy="3.599" r="3.599" transform="translate(95.333 277.639)" fill="none" stroke="#263238" stroke-linecap="round" stroke-linejoin="round" stroke-width="1"/>
        <rect id="Rectángulo_404722" data-name="Rectángulo 404722" width="97.221" height="5.117" transform="translate(0.781 280.048)" fill="#fff"/>
        <rect id="Rectángulo_404723" data-name="Rectángulo 404723" width="97.221" height="5.117" transform="translate(0.781 280.048)" fill="none" stroke="#263238" stroke-linecap="round" stroke-linejoin="round" stroke-width="1"/>
        <rect id="Rectángulo_404724" data-name="Rectángulo 404724" width="97.221" height="5.117" transform="translate(100.165 280.048)" fill="#fff"/>
        <rect id="Rectángulo_404725" data-name="Rectángulo 404725" width="97.221" height="5.117" transform="translate(100.165 280.048)" fill="none" stroke="#263238" stroke-linecap="round" stroke-linejoin="round" stroke-width="1"/>
      </g>
    </g>
  </g>
</svg>
