<svg xmlns="http://www.w3.org/2000/svg" width="420" height="400" viewBox="0 0 420 400">
  <g id="Grupo_1111813" data-name="Grupo 1111813" transform="translate(-895.051 -2959)">
    <g id="Grupo_1111514" data-name="Grupo 1111514" transform="translate(0 1220)">
      <rect id="Rectángulo_404659" data-name="Rectángulo 404659" width="420" height="400" transform="translate(895.051 1739)" fill="#fed6a8"/>
    </g>
    <g id="Grupo_63272" data-name="Grupo 63272" transform="translate(14.051 584.667)">
      <rect id="Rectángulo_31391" data-name="Rectángulo 31391" width="374" height="369" transform="translate(917 2405.333)" fill="none"/>
      <g id="Grupo_63271" data-name="Grupo 63271" transform="translate(918.558 2417.467)">
        <g id="Grupo_63270" data-name="Grupo 63270" transform="translate(17.087 299.171)">
          <path id="Trazado_132610" data-name="Trazado 132610" d="M545.8,588.31v20.926h3.3v2.281h-3.3v14.034H484.46V612.8H489V610H484.46v-4.129h-2.02v-1.9h2.4V588.31H545.8Z" transform="translate(-409.906 -568.288)" fill="#8454ee"/>
          <path id="Trazado_132611" data-name="Trazado 132611" d="M500.72,588.365v36.919H484.433V612.538h4.539V610l-4.539.089v-4.167H482.38l.033-2.148,2.4-.061v-15.4Z" transform="translate(-409.879 -568.288)" fill="#e0e0e0"/>
          <path id="Trazado_132612" data-name="Trazado 132612" d="M513.35,629.393c0,.133,11.093.233,24.766.233s24.766-.1,24.766-.233-11.093-.233-24.766-.233S513.35,629.271,513.35,629.393Z" transform="translate(-423.663 -586.469)" fill="#e0e0e0"/>
          <path id="Trazado_132613" data-name="Trazado 132613" d="M513.35,625.563c0,.122,11.093.233,24.766.233s24.766-.105,24.766-.233-11.093-.233-24.766-.233S513.35,625.435,513.35,625.563Z" transform="translate(-423.663 -584.765)" fill="#e0e0e0"/>
          <path id="Trazado_132614" data-name="Trazado 132614" d="M507.61,615.243c0,.133,11.093.239,24.766.239s24.766-.105,24.766-.239-11.1-.233-24.766-.233S507.61,615.121,507.61,615.243Z" transform="translate(-421.108 -580.171)" fill="#e0e0e0"/>
          <path id="Trazado_132615" data-name="Trazado 132615" d="M507.06,643.343c0,.133,11.093.233,24.766.233s24.766-.1,24.766-.233-11.1-.233-24.766-.233S507.06,643.221,507.06,643.343Z" transform="translate(-420.863 -592.678)" fill="#e0e0e0"/>
          <path id="Trazado_132616" data-name="Trazado 132616" d="M415.733,562.37l-1.343,24.766a1.652,1.652,0,0,1-1.654,1.587l-44.644.322a1.654,1.654,0,0,1-1.654-1.654L366.3,568.08a1.654,1.654,0,0,1,1.609-1.693h27.5a1.643,1.643,0,0,0,1.188-.488l4.711-4.728a1.66,1.66,0,0,1,1.171-.488l11.559-.083a1.65,1.65,0,0,1,1.7,1.6C415.738,562.259,415.733,562.314,415.733,562.37Z" transform="translate(-358.215 -555.954)" fill="#26aab7"/>
          <g id="Grupo_63267" data-name="Grupo 63267" transform="translate(8.085 4.645)" opacity="0.3">
            <path id="Trazado_132617" data-name="Trazado 132617" d="M415.733,562.37l-1.343,24.766a1.652,1.652,0,0,1-1.654,1.587l-44.644.322a1.654,1.654,0,0,1-1.654-1.654L366.3,568.08a1.654,1.654,0,0,1,1.609-1.693h27.5a1.643,1.643,0,0,0,1.188-.488l4.711-4.728a1.66,1.66,0,0,1,1.171-.488l11.559-.083a1.65,1.65,0,0,1,1.7,1.6C415.738,562.259,415.733,562.314,415.733,562.37Z" transform="translate(-366.299 -560.599)"/>
          </g>
          <rect id="Rectángulo_31583" data-name="Rectángulo 31583" width="48.784" height="29.15" transform="translate(8.007 7.563) rotate(-0.42)" fill="#f5f5f5"/>
          <path id="Trazado_132618" data-name="Trazado 132618" d="M416.337,568.93l-3.507,30.421a1.087,1.087,0,0,1-1.054.96l-47.535.344a1.091,1.091,0,0,1-1.082-.993l-2.619-30.371a1.081,1.081,0,0,1,1.032-1.132h.017l53.661-.388a1.08,1.08,0,0,1,1.093,1.071A.51.51,0,0,0,416.337,568.93Z" transform="translate(-355.65 -559.146)" fill="#ebebeb"/>
          <path id="Trazado_132619" data-name="Trazado 132619" d="M439.4,553.967l-1.343,24.805a1.652,1.652,0,0,1-1.654,1.587l-44.644.322a1.654,1.654,0,0,1-1.654-1.654l-.139-19.311a1.654,1.654,0,0,1,1.609-1.693h27.5a1.643,1.643,0,0,0,1.188-.488l4.728-4.728a1.689,1.689,0,0,1,1.171-.494l11.559-.083a1.657,1.657,0,0,1,1.687,1.615A.944.944,0,0,0,439.4,553.967Z" transform="translate(-368.749 -552.229)" fill="#e0e0e0"/>
          <rect id="Rectángulo_31584" data-name="Rectángulo 31584" width="48.784" height="29.15" transform="translate(21.142 2.885) rotate(-0.42)" fill="#f5f5f5"/>
          <path id="Trazado_132620" data-name="Trazado 132620" d="M440,560.464l-3.485,30.421a1.078,1.078,0,0,1-1.054.96l-47.535.344a1.077,1.077,0,0,1-1.082-.982l-2.619-30.382a1.086,1.086,0,0,1,.988-1.171c.028,0,.05-.005.078-.005l53.661-.389a1.073,1.073,0,0,1,1.054,1.093A.726.726,0,0,1,440,560.464Z" transform="translate(-366.192 -555.359)" fill="#e0e0e0"/>
          <path id="Trazado_132621" data-name="Trazado 132621" d="M466.073,564.458l-1.343,24.816a1.65,1.65,0,0,1-1.654,1.576l-44.644.333a1.654,1.654,0,0,1-1.654-1.654l-.139-19.317a1.654,1.654,0,0,1,1.654-1.654h27.458a1.662,1.662,0,0,0,1.182-.488l4.739-4.739a1.66,1.66,0,0,1,1.171-.488l11.559-.083a1.65,1.65,0,0,1,1.676,1.626A.343.343,0,0,0,466.073,564.458Z" transform="translate(-380.62 -556.916)" fill="#ebebeb"/>
          <rect id="Rectángulo_31585" data-name="Rectángulo 31585" width="48.784" height="29.15" transform="translate(35.942 8.69) rotate(-0.42)" fill="#fafafa"/>
          <path id="Trazado_132622" data-name="Trazado 132622" d="M466.669,570.934l-3.5,30.421a1.067,1.067,0,0,1-1.054.949l-47.535.344a1.065,1.065,0,0,1-1.082-.982L410.876,571.3a1.068,1.068,0,0,1,.971-1.165.538.538,0,0,1,.094-.006l53.661-.394a1.08,1.08,0,0,1,1.071,1.093A.786.786,0,0,1,466.669,570.934Z" transform="translate(-378.052 -560.019)" fill="#ebebeb"/>
          <path id="Trazado_132623" data-name="Trazado 132623" d="M410.87,579.35v42.2h60.887v-42.2Zm19.866,7.591a3.112,3.112,0,0,1,3.113-3.113h14.866a3.123,3.123,0,0,1,0,6.237H433.861A3.131,3.131,0,0,1,430.736,586.941Z" transform="translate(-378.052 -564.3)" fill="#8454ee"/>
          <path id="Trazado_132624" data-name="Trazado 132624" d="M351.73,579.35v42.2h32.818v-42.2Z" transform="translate(-351.73 -564.3)" fill="#e0e0e0"/>
        </g>
        <rect id="Rectángulo_31591" data-name="Rectángulo 31591" width="18.329" height="19.439" transform="matrix(1, -0.005, 0.005, 1, 276.686, 68.994)" fill="#ebebeb"/>
        <rect id="Rectángulo_31592" data-name="Rectángulo 31592" width="18.329" height="19.439" transform="matrix(1, -0.005, 0.005, 1, 294.927, 68.895)" fill="#f5f5f5"/>
        <path id="Trazado_132631" data-name="Trazado 132631" d="M819.437,146.683c12.175.1,24.389,0,36.564-.166a.2.2,0,0,0,.155-.233.2.2,0,0,0-.155-.155c-12.175-.072-24.389,0-36.564.222a.167.167,0,0,0-.167.166A.171.171,0,0,0,819.437,146.683Z" transform="translate(-542.732 -72.301)" fill="#e0e0e0"/>
        <rect id="Rectángulo_31593" data-name="Rectángulo 31593" width="33.296" height="15.843" transform="matrix(1, -0.005, 0.005, 1, 265.259, 88.186)" fill="#ebebeb"/>
        <rect id="Rectángulo_31594" data-name="Rectángulo 31594" width="33.296" height="15.843" transform="matrix(1, -0.005, 0.005, 1, 298.405, 88.014)" fill="#f5f5f5"/>
        <path id="Trazado_132632" data-name="Trazado 132632" d="M798.87,179.392c22.125.25,44.317,0,66.441-.333a.2.2,0,0,0,.155-.233.2.2,0,0,0-.155-.155c-22.114-.117-44.317-.105-66.43.377a.176.176,0,0,0-.133.205.181.181,0,0,0,.133.133Z" transform="translate(-533.597 -86.77)" fill="#e0e0e0"/>
        <rect id="Rectángulo_31596" data-name="Rectángulo 31596" width="5.233" height="19.367" transform="translate(273.941 106.79)" fill="#e0e0e0"/>
        <rect id="Rectángulo_31602" data-name="Rectángulo 31602" width="59.91" height="4.65" transform="translate(279.878 273.229)" fill="#ebebeb"/>
        <rect id="Rectángulo_31603" data-name="Rectángulo 31603" width="16.454" height="4.65" transform="translate(323.335 273.229)" fill="#e0e0e0"/>
        <path id="Trazado_132642" data-name="Trazado 132642" d="M808.942,513.85v20.926h-3.3v2.27h3.3V551.08h61.336V538.311h-4.539v-2.775h4.539v-4.168h2.02v-1.892h-2.4V513.85H808.942Z" transform="translate(-536.666 -235.977)" fill="#f5f5f5"/>
        <path id="Trazado_132643" data-name="Trazado 132643" d="M892.77,513.911v36.914h16.287V538.084h-4.539v-2.547h4.539v-4.168h2.02v-2.12h-2.4v-15.4Z" transform="translate(-575.445 -235.977)" fill="#e0e0e0"/>
        <path id="Trazado_132644" data-name="Trazado 132644" d="M855.123,554.9c0,.122-11.093.233-24.766.233s-24.766-.105-24.766-.233,11.093-.233,24.766-.233S855.123,554.787,855.123,554.9Z" transform="translate(-536.644 -254.144)" fill="#e0e0e0"/>
        <path id="Trazado_132645" data-name="Trazado 132645" d="M855.123,551.093c0,.133-11.093.239-24.766.239s-24.766-.105-24.766-.239,11.093-.233,24.766-.233S855.123,550.971,855.123,551.093Z" transform="translate(-536.644 -252.448)" fill="#e0e0e0"/>
        <path id="Trazado_132646" data-name="Trazado 132646" d="M860.863,540.783c0,.133-11.093.233-24.766.233s-24.766-.1-24.766-.233,11.1-.233,24.766-.233S860.863,540.661,860.863,540.783Z" transform="translate(-539.198 -247.86)" fill="#e0e0e0"/>
        <path id="Trazado_132647" data-name="Trazado 132647" d="M861.413,568.883c0,.133-11.093.233-24.766.233s-24.766-.1-24.766-.233,11.1-.233,24.766-.233S861.413,568.761,861.413,568.883Z" transform="translate(-539.443 -260.366)" fill="#e0e0e0"/>
        <path id="Trazado_132648" data-name="Trazado 132648" d="M821.482,588.906v20.926h-3.3v2.27h3.3v14.034h61.336V613.367h-4.539v-2.775h4.539v-4.129h2.02v-1.892h-2.4V588.9H821.482Z" transform="translate(-542.247 -269.379)" fill="#f5f5f5"/>
        <path id="Trazado_132649" data-name="Trazado 132649" d="M905.31,588.966v36.919H921.6V613.138h-4.55V610.6l4.55.083v-4.162h2.059l-.033-2.159-2.4-.056V588.91Z" transform="translate(-581.026 -269.383)" fill="#e0e0e0"/>
        <path id="Trazado_132650" data-name="Trazado 132650" d="M867.663,629.983c0,.133-11.093.233-24.766.233s-24.766-.1-24.766-.233,11.093-.233,24.766-.233S867.663,629.861,867.663,629.983Z" transform="translate(-542.225 -287.56)" fill="#e0e0e0"/>
        <path id="Trazado_132651" data-name="Trazado 132651" d="M867.663,626.153c0,.133-11.093.239-24.766.239s-24.766-.105-24.766-.239,11.093-.233,24.766-.233S867.663,626.025,867.663,626.153Z" transform="translate(-542.225 -285.856)" fill="#e0e0e0"/>
        <path id="Trazado_132652" data-name="Trazado 132652" d="M873.4,615.9c0,.133-11.093.233-24.766.233s-24.767-.1-24.767-.233,11.1-.233,24.767-.233S873.4,615.742,873.4,615.9Z" transform="translate(-544.78 -281.294)" fill="#e0e0e0"/>
        <path id="Trazado_132653" data-name="Trazado 132653" d="M873.953,643.943c0,.133-11.093.233-24.766.233s-24.766-.1-24.766-.233,11.1-.233,24.766-.233S873.953,643.816,873.953,643.943Z" transform="translate(-545.024 -293.774)" fill="#e0e0e0"/>
        <path id="Trazado_132654" data-name="Trazado 132654" d="M819.872,438.41v20.926h-3.3v2.281h3.3v14.034h61.336v-12.78h-4.539V460.1h4.539v-4.129h2.009v-1.9h-2.4V438.41H819.872Z" transform="translate(-541.531 -202.4)" fill="#f5f5f5"/>
        <path id="Trazado_132655" data-name="Trazado 132655" d="M903.7,438.471v36.914h16.287V462.644h-4.539V460.1l4.539.083v-4.162h2.059l-.033-2.142-2.4-.067v-15.4Z" transform="translate(-580.31 -202.4)" fill="#e0e0e0"/>
        <path id="Trazado_132656" data-name="Trazado 132656" d="M866.063,479.493c0,.133-11.093.233-24.766.233s-24.766-.1-24.766-.233,11.093-.233,24.766-.233S866.063,479.371,866.063,479.493Z" transform="translate(-541.513 -220.581)" fill="#e0e0e0"/>
        <path id="Trazado_132657" data-name="Trazado 132657" d="M866.063,475.669c0,.122-11.093.233-24.766.233s-24.766-.105-24.766-.233,11.093-.239,24.766-.239S866.063,475.535,866.063,475.669Z" transform="translate(-541.513 -218.877)" fill="#e0e0e0"/>
        <path id="Trazado_132658" data-name="Trazado 132658" d="M871.8,465.343c0,.133-11.093.233-24.766.233s-24.766-.1-24.766-.233,11.1-.233,24.766-.233S871.8,465.221,871.8,465.343Z" transform="translate(-544.067 -214.283)" fill="#e0e0e0"/>
        <path id="Trazado_132659" data-name="Trazado 132659" d="M872.353,493.443c0,.133-11.093.233-24.766.233s-24.766-.1-24.766-.233,11.093-.233,24.766-.233S872.353,493.321,872.353,493.443Z" transform="translate(-544.312 -226.79)" fill="#e0e0e0"/>
        <rect id="Rectángulo_31604" data-name="Rectángulo 31604" width="59.91" height="4.65" transform="translate(275.867 314.876)" fill="#ebebeb"/>
        <rect id="Rectángulo_31605" data-name="Rectángulo 31605" width="16.454" height="4.65" transform="translate(319.323 314.876)" fill="#e0e0e0"/>
        <g id="freepik--Board--inject-8" transform="translate(0 0)">
          <rect id="Rectángulo_31606" data-name="Rectángulo 31606" width="343.531" height="243.119" transform="translate(0.161 0.216)" fill="#fff"/>
          <path id="Trazado_132660" data-name="Trazado 132660" d="M492.365,287.36c0-1.354-.057-94.16-.142-243.119l.142.172-343.569.05h0l.184-.216V287.366l-.17-.2,343.588.2-343.588.2h-.17V44.03h.2l343.569.05h.142v.166C492.422,193.2,492.365,286.006,492.365,287.36Z" transform="translate(-148.64 -44.03)" fill="#263238"/>
          <path id="Trazado_132661" data-name="Trazado 132661" d="M243.307,118.74s-2.164,19.811.621,30.676l26.492-1.154s-5.671-19.556-2.186-28.224Z" transform="translate(-190.417 -77.281)" fill="#e0e0e0"/>
          <path id="Trazado_132662" data-name="Trazado 132662" d="M243.59,118.761s.183,21.4,1.271,27.935l26.847-1.282s-2.358-21.043-1.454-26.664Z" transform="translate(-190.9 -77.286)" fill="#6595bf"/>
          <path id="Trazado_132663" data-name="Trazado 132663" d="M269.9,134.935c0,.117-4.018.455-8.99.749s-9.018.444-9.023.333,4.018-.455,8.99-.76A90.17,90.17,0,0,1,269.9,134.935Z" transform="translate(-194.594 -84.47)" fill="#fff"/>
          <path id="Trazado_132664" data-name="Trazado 132664" d="M269.918,143.121c0,.117-4.018.455-9,.76a90.077,90.077,0,0,1-9.018.322c-.006-.122,4.018-.455,8.99-.749S269.907,143.043,269.918,143.121Z" transform="translate(-194.598 -88.122)" fill="#fff"/>
          <path id="Trazado_132665" data-name="Trazado 132665" d="M267.911,151.108a31.066,31.066,0,0,1-5.116.527,31.848,31.848,0,0,1-5.144.089,61.793,61.793,0,0,1,10.261-.616Z" transform="translate(-197.157 -91.659)" fill="#fff"/>
          <path id="Trazado_132666" data-name="Trazado 132666" d="M242.76,176.45s.183,21.409,1.271,27.935l26.847-1.271s-2.358-21.043-1.454-26.664Z" transform="translate(-190.53 -102.967)" fill="#6595bf"/>
          <path id="Trazado_132667" data-name="Trazado 132667" d="M269.133,192.619c0,.117-4.018.455-8.99.76a90.179,90.179,0,0,1-9.023.322c-.006-.122,4.018-.455,9-.749S269.133,192.5,269.133,192.619Z" transform="translate(-194.251 -110.146)" fill="#fff"/>
          <path id="Trazado_132668" data-name="Trazado 132668" d="M269.133,200.789c0,.122-4.018.461-8.99.76s-9.018.444-9.023.322,4.018-.455,8.99-.749S269.133,200.672,269.133,200.789Z" transform="translate(-194.251 -113.782)" fill="#fff"/>
          <path id="Trazado_132669" data-name="Trazado 132669" d="M267.076,208.782a29.907,29.907,0,0,1-5.116.527,30.691,30.691,0,0,1-5.15.089,31.057,31.057,0,0,1,5.116-.522A32.549,32.549,0,0,1,267.076,208.782Z" transform="translate(-196.784 -117.33)" fill="#fff"/>
          <path id="Trazado_132670" data-name="Trazado 132670" d="M242.76,241.79s.183,21.4,1.271,27.935l26.847-1.271s-2.358-21.043-1.454-26.664Z" transform="translate(-190.53 -132.048)" fill="#263238"/>
          <path id="Trazado_132671" data-name="Trazado 132671" d="M269.133,257.953c0,.117-4.018.455-8.99.749s-9.018.444-9.023.333,4.018-.455,9-.76A88.073,88.073,0,0,1,269.133,257.953Z" transform="translate(-194.251 -139.221)" fill="#fff"/>
          <path id="Trazado_132672" data-name="Trazado 132672" d="M269.133,266.121c0,.117-4.018.455-8.99.749s-9.018.444-9.023.333,4.018-.455,8.99-.749S269.133,266.01,269.133,266.121Z" transform="translate(-194.251 -142.86)" fill="#fff"/>
          <path id="Trazado_132673" data-name="Trazado 132673" d="M267.081,274.122a31.06,31.06,0,0,1-5.116.522,31.848,31.848,0,0,1-5.144.1,31.06,31.06,0,0,1,5.116-.522A31.848,31.848,0,0,1,267.081,274.122Z" transform="translate(-196.788 -146.411)" fill="#fff"/>
          <path id="Trazado_132674" data-name="Trazado 132674" d="M237.12,318.19s.183,21.409,1.271,27.935l26.847-1.271s-2.358-21.043-1.454-26.664Z" transform="translate(-188.02 -166.051)" fill="#455a64"/>
          <path id="Trazado_132675" data-name="Trazado 132675" d="M263.424,334.36c0,.117-4.018.455-9,.76a90.2,90.2,0,0,1-9.023.322c-.006-.122,4.018-.455,9-.749S263.418,334.249,263.424,334.36Z" transform="translate(-191.705 -173.231)" fill="#fff"/>
          <path id="Trazado_132676" data-name="Trazado 132676" d="M263.444,342.528c0,.122-4.018.461-9,.76s-9.018.444-9.023.333,4.018-.461,9-.76S263.433,342.412,263.444,342.528Z" transform="translate(-191.714 -176.866)" fill="#fff"/>
          <path id="Trazado_132677" data-name="Trazado 132677" d="M261.441,350.535a32.312,32.312,0,0,1-5.116.522,29.5,29.5,0,0,1-5.144.089,32.309,32.309,0,0,1,5.116-.522A30.628,30.628,0,0,1,261.441,350.535Z" transform="translate(-194.278 -180.416)" fill="#fff"/>
          <path id="Trazado_132678" data-name="Trazado 132678" d="M301.25,318.546s.183,21.409,1.271,27.935l26.847-1.265s-2.358-21.043-1.454-26.675H301.25Z" transform="translate(-229.992 -166.207)" fill="#263238"/>
          <path id="Trazado_132679" data-name="Trazado 132679" d="M327.564,334.7c0,.117-4.018.455-9,.749s-9.018.444-9.023.333,4.018-.461,9-.76A90.176,90.176,0,0,1,327.564,334.7Z" transform="translate(-234.041 -173.38)" fill="#fff"/>
          <path id="Trazado_132680" data-name="Trazado 132680" d="M327.574,342.865c0,.117-4.018.455-9,.749s-9.018.444-9.023.333,4.018-.455,9-.76A90.212,90.212,0,0,1,327.574,342.865Z" transform="translate(-234.046 -177.014)" fill="#fff"/>
          <path id="Trazado_132681" data-name="Trazado 132681" d="M325.566,350.87a31.057,31.057,0,0,1-5.116.522,31.917,31.917,0,0,1-5.15.1,30.034,30.034,0,0,1,5.128-.527A31.782,31.782,0,0,1,325.566,350.87Z" transform="translate(-236.816 -180.569)" fill="#fff"/>
          <path id="Trazado_132682" data-name="Trazado 132682" d="M354.9,321.286s.183,21.409,1.271,27.935l26.847-1.265s-2.358-21.043-1.454-26.675H354.9Z" transform="translate(-258.592 -167.426)" fill="#6595bf"/>
          <path id="Trazado_132683" data-name="Trazado 132683" d="M381.2,337.458c0,.122-4.018.461-9,.76s-9.018.444-9.023.333,4.018-.461,9-.76S381.2,337.342,381.2,337.458Z" transform="translate(-262.511 -174.609)" fill="#fff"/>
          <path id="Trazado_132684" data-name="Trazado 132684" d="M381.224,345.635c0,.117-4.018.455-9,.749s-9.018.444-9.023.333,4.018-.455,9-.76A90.187,90.187,0,0,1,381.224,345.635Z" transform="translate(-262.522 -178.246)" fill="#fff"/>
          <path id="Trazado_132685" data-name="Trazado 132685" d="M379.216,353.638a31.061,31.061,0,0,1-5.116.522,31.92,31.92,0,0,1-5.15.1,30.031,30.031,0,0,1,5.128-.527A31.153,31.153,0,0,1,379.216,353.638Z" transform="translate(-265.201 -181.8)" fill="#fff"/>
          <path id="Trazado_132686" data-name="Trazado 132686" d="M292.21,387.25s.183,21.409,1.271,27.935l26.847-1.271s-2.358-21.037-1.454-26.664Z" transform="translate(-225.173 -196.788)" fill="#455a64"/>
          <path id="Trazado_132687" data-name="Trazado 132687" d="M318.523,403.419c0,.117-4.018.455-8.99.76a90.2,90.2,0,0,1-9.023.322c-.006-.122,4.018-.455,9-.749S318.517,403.3,318.523,403.419Z" transform="translate(-229.248 -203.967)" fill="#fff"/>
          <path id="Trazado_132688" data-name="Trazado 132688" d="M318.543,411.589c0,.122-4.018.461-8.99.76s-9.018.444-9.023.322,4.018-.455,8.99-.749S318.532,411.472,318.543,411.589Z" transform="translate(-229.258 -207.603)" fill="#fff"/>
          <path id="Trazado_132689" data-name="Trazado 132689" d="M316.531,419.662a29.906,29.906,0,0,1-5.116.527,30.628,30.628,0,0,1-5.144.089,31.064,31.064,0,0,1,5.116-.522A32.5,32.5,0,0,1,316.531,419.662Z" transform="translate(-232.038 -211.186)" fill="#fff"/>
          <path id="Trazado_132690" data-name="Trazado 132690" d="M447.49,298.66s.183,21.409,1.271,27.935l26.847-1.271s-2.359-21.043-1.454-26.664Z" transform="translate(-307.949 -157.359)" fill="#263238"/>
          <path id="Trazado_132691" data-name="Trazado 132691" d="M473.8,314.825c0,.117-4.018.455-9,.749s-9.006.444-9.018.333,4.018-.455,8.99-.76A90.317,90.317,0,0,1,473.8,314.825Z" transform="translate(-311.66 -164.534)" fill="#fff"/>
          <path id="Trazado_132692" data-name="Trazado 132692" d="M473.819,322.982c0,.116-4.018.455-9,.76a90.12,90.12,0,0,1-9.018.322c0-.122,4.012-.455,8.99-.749S473.807,322.877,473.819,322.982Z" transform="translate(-311.671 -168.168)" fill="#fff"/>
          <path id="Trazado_132693" data-name="Trazado 132693" d="M471.811,331a29.906,29.906,0,0,1-5.116.527,31.852,31.852,0,0,1-5.144.089A61.812,61.812,0,0,1,471.811,331Z" transform="translate(-314.194 -171.723)" fill="#fff"/>
          <path id="Trazado_132694" data-name="Trazado 132694" d="M552.52,389.2s.183,21.409,1.271,27.935l26.847-1.265s-2.353-21.043-1.454-26.675H552.52Z" transform="translate(-363.938 -197.651)" fill="#455a64"/>
          <path id="Trazado_132695" data-name="Trazado 132695" d="M578.833,405.368c0,.122-4.018.461-8.99.76s-9.018.444-9.023.333,4.018-.461,9-.76S578.828,405.252,578.833,405.368Z" transform="translate(-367.412 -204.834)" fill="#fff"/>
          <path id="Trazado_132696" data-name="Trazado 132696" d="M578.853,413.545c0,.117-4.018.455-8.99.749s-9.018.444-9.023.333,4.018-.455,9-.76A89.959,89.959,0,0,1,578.853,413.545Z" transform="translate(-367.422 -208.471)" fill="#fff"/>
          <path id="Trazado_132697" data-name="Trazado 132697" d="M576.841,421.55a31.052,31.052,0,0,1-5.116.522,31.846,31.846,0,0,1-5.144.1,29.9,29.9,0,0,1,5.116-.527A31.851,31.851,0,0,1,576.841,421.55Z" transform="translate(-369.763 -212.026)" fill="#fff"/>
          <path id="Trazado_132698" data-name="Trazado 132698" d="M612.24,390.03s.183,21.409,1.271,27.935l26.864-1.271s-2.358-21.043-1.454-26.664Z" transform="translate(-395.775 -198.025)" fill="#455a64"/>
          <path id="Trazado_132699" data-name="Trazado 132699" d="M638.549,406.195c0,.117-4.018.455-9,.749s-9.006.444-9.018.333,4.018-.455,8.99-.76A90.234,90.234,0,0,1,638.549,406.195Z" transform="translate(-399.104 -205.2)" fill="#fff"/>
          <path id="Trazado_132700" data-name="Trazado 132700" d="M638.559,414.368c0,.117-4.018.455-9,.76a90.16,90.16,0,0,1-9.018.322c0-.122,4.012-.455,8.99-.749S638.553,414.252,638.559,414.368Z" transform="translate(-399.11 -208.84)" fill="#fff"/>
          <path id="Trazado_132701" data-name="Trazado 132701" d="M636.561,422.368a29.905,29.905,0,0,1-5.116.527,31.85,31.85,0,0,1-5.144.089,61.805,61.805,0,0,1,10.261-.616Z" transform="translate(-401.359 -212.39)" fill="#fff"/>
          <path id="Trazado_132702" data-name="Trazado 132702" d="M671.95,390.85s.183,21.409,1.271,27.935l26.847-1.271s-2.358-21.043-1.454-26.664Z" transform="translate(-427.603 -198.39)" fill="#263238"/>
          <path id="Trazado_132703" data-name="Trazado 132703" d="M698.254,407.019c0,.117-4.018.455-9,.76a90.2,90.2,0,0,1-9.023.322c-.005-.122,4.018-.455,9-.749S698.249,406.9,698.254,407.019Z" transform="translate(-430.792 -205.569)" fill="#fff"/>
          <path id="Trazado_132704" data-name="Trazado 132704" d="M698.274,415.213c0,.122-4.018.461-9,.76s-9.018.444-9.023.322,4.018-.455,9-.749S698.263,415.08,698.274,415.213Z" transform="translate(-430.802 -209.213)" fill="#fff"/>
          <path id="Trazado_132705" data-name="Trazado 132705" d="M696.266,423.227a29.91,29.91,0,0,1-5.116.527,30.691,30.691,0,0,1-5.15.089A62.866,62.866,0,0,1,696.266,423.227Z" transform="translate(-432.946 -212.793)" fill="#fff"/>
          <path id="Trazado_132706" data-name="Trazado 132706" d="M743.73,388.586s.183,21.409,1.271,27.935l26.847-1.265s-2.353-21.043-1.454-26.675H743.73Z" transform="translate(-473.016 -197.38)" fill="#455a64"/>
          <path id="Trazado_132707" data-name="Trazado 132707" d="M770.043,404.8c0,.117-4.018.455-8.99.749s-9.018.444-9.023.333,4.018-.461,9-.76A84.436,84.436,0,0,1,770.043,404.8Z" transform="translate(-476.711 -204.574)" fill="#fff"/>
          <path id="Trazado_132708" data-name="Trazado 132708" d="M770.063,412.935c0,.117-4.018.455-8.99.749s-9.018.444-9.023.333,4.018-.455,8.99-.76A90.134,90.134,0,0,1,770.063,412.935Z" transform="translate(-476.72 -208.2)" fill="#fff"/>
          <path id="Trazado_132709" data-name="Trazado 132709" d="M768.051,420.947a31.048,31.048,0,0,1-5.116.522,31.841,31.841,0,0,1-5.144.1,30.27,30.27,0,0,1,5.15-.505A31.449,31.449,0,0,1,768.051,420.947Z" transform="translate(-479.274 -211.761)" fill="#fff"/>
          <path id="Trazado_132710" data-name="Trazado 132710" d="M795.77,394.17s.183,21.409,1.271,27.935l26.847-1.271s-2.353-21.043-1.443-26.664Z" transform="translate(-496.178 -199.868)" fill="#455a64"/>
          <path id="Trazado_132711" data-name="Trazado 132711" d="M822.083,410.335c0,.117-4.018.455-8.99.749s-9.017.444-9.023.333,4.018-.455,9-.76A90.065,90.065,0,0,1,822.083,410.335Z" transform="translate(-499.872 -207.043)" fill="#fff"/>
          <path id="Trazado_132712" data-name="Trazado 132712" d="M822.1,418.508c0,.117-4.018.455-8.99.76a90.2,90.2,0,0,1-9.023.322c-.006-.122,4.018-.455,9-.749S822.092,418.392,822.1,418.508Z" transform="translate(-499.881 -210.683)" fill="#fff"/>
          <path id="Trazado_132713" data-name="Trazado 132713" d="M820.091,426.508a29.908,29.908,0,0,1-5.116.527,31.849,31.849,0,0,1-5.144.089,61.8,61.8,0,0,1,10.26-.616Z" transform="translate(-502.436 -214.232)" fill="#fff"/>
          <path id="Trazado_132714" data-name="Trazado 132714" d="M552.31,319.1s.183,21.409,1.265,27.935l26.853-1.271s-2.358-21.043-1.454-26.664Z" transform="translate(-363.826 -166.456)" fill="#455a64"/>
          <path id="Trazado_132715" data-name="Trazado 132715" d="M578.564,335.268c0,.122-4.018.461-9,.76s-9.018.444-9.023.322,4.018-.455,9-.749S578.564,335.152,578.564,335.268Z" transform="translate(-367.264 -173.635)" fill="#fff"/>
          <path id="Trazado_132716" data-name="Trazado 132716" d="M578.634,343.438c0,.122-4.018.461-9,.76s-9.018.444-9.023.333,4.018-.461,9-.76S578.6,343.322,578.634,343.438Z" transform="translate(-367.301 -177.271)" fill="#fff"/>
          <path id="Trazado_132717" data-name="Trazado 132717" d="M576.626,351.444a32.3,32.3,0,0,1-5.117.522,29.56,29.56,0,0,1-5.15.089,32.448,32.448,0,0,1,5.128-.522A29.988,29.988,0,0,1,576.626,351.444Z" transform="translate(-369.647 -180.82)" fill="#fff"/>
          <path id="Trazado_132718" data-name="Trazado 132718" d="M615.47,319.29s.183,21.409,1.271,27.935l26.847-1.271s-2.353-21.043-1.443-26.664Z" transform="translate(-397.495 -166.541)" fill="#d9a171"/>
          <path id="Trazado_132719" data-name="Trazado 132719" d="M641.783,335.455c0,.116-4.018.455-8.99.749s-9.018.444-9.023.333,4.018-.455,9-.76A89.987,89.987,0,0,1,641.783,335.455Z" transform="translate(-400.823 -173.716)" fill="#fff"/>
          <path id="Trazado_132720" data-name="Trazado 132720" d="M641.793,343.628c0,.117-4.018.455-8.99.76a90.192,90.192,0,0,1-9.023.322c-.006-.122,4.018-.455,9-.749S641.787,343.512,641.793,343.628Z" transform="translate(-400.829 -177.355)" fill="#fff"/>
          <path id="Trazado_132721" data-name="Trazado 132721" d="M639.822,351.632a30.037,30.037,0,0,1-5.128.527,31.849,31.849,0,0,1-5.144.089,31.049,31.049,0,0,1,5.116-.522A32.647,32.647,0,0,1,639.822,351.632Z" transform="translate(-403.08 -180.908)" fill="#fff"/>
          <path id="Trazado_132722" data-name="Trazado 132722" d="M739.95,319.31s.183,21.409,1.271,27.935l26.847-1.271s-2.359-21.043-1.454-26.664Z" transform="translate(-471.334 -166.55)" fill="#455a64"/>
          <path id="Trazado_132723" data-name="Trazado 132723" d="M766.269,335.478c0,.122-4.018.461-9,.76s-9.018.444-9.018.333,4.018-.461,8.99-.76S766.257,335.362,766.269,335.478Z" transform="translate(-475.028 -173.728)" fill="#fff"/>
          <path id="Trazado_132724" data-name="Trazado 132724" d="M766.274,343.656c0,.117-4.018.455-9,.749s-9.018.444-9.023.333,4.018-.461,9-.76S766.269,343.534,766.274,343.656Z" transform="translate(-475.028 -177.366)" fill="#fff"/>
          <path id="Trazado_132725" data-name="Trazado 132725" d="M764.271,351.657a31.06,31.06,0,0,1-5.116.522,31.852,31.852,0,0,1-5.144.1,29.913,29.913,0,0,1,5.116-.527A30.654,30.654,0,0,1,764.271,351.657Z" transform="translate(-477.592 -180.917)" fill="#fff"/>
          <path id="Trazado_132726" data-name="Trazado 132726" d="M317.87,241.79s.183,21.4,1.271,27.935l26.847-1.271s-2.358-21.043-1.454-26.664Z" transform="translate(-238.852 -132.048)" fill="#263238"/>
          <path id="Trazado_132727" data-name="Trazado 132727" d="M344.179,257.953c0,.117-4.018.455-9,.749s-9.018.444-9.018.333,4.012-.455,8.99-.76A88.351,88.351,0,0,1,344.179,257.953Z" transform="translate(-242.862 -139.221)" fill="#fff"/>
          <path id="Trazado_132728" data-name="Trazado 132728" d="M344.194,266.12c0,.117-4.018.455-9,.749s-9.018.444-9.023.333,4.018-.455,9-.749S344.183,266.009,344.194,266.12Z" transform="translate(-242.868 -142.86)" fill="#fff"/>
          <path id="Trazado_132729" data-name="Trazado 132729" d="M342.191,274.122a31.061,31.061,0,0,1-5.116.522,31.849,31.849,0,0,1-5.144.1,31.061,31.061,0,0,1,5.116-.522A31.849,31.849,0,0,1,342.191,274.122Z" transform="translate(-245.615 -146.411)" fill="#fff"/>
          <path id="Trazado_132730" data-name="Trazado 132730" d="M298.65,118.761s.183,21.4,1.271,27.935l26.847-1.282s-2.358-21.043-1.454-26.664Z" transform="translate(-228.606 -77.286)" fill="#6595bf"/>
          <path id="Trazado_132731" data-name="Trazado 132731" d="M324.954,134.935c0,.117-4.018.455-9,.749s-9.018.444-9.023.333,4.018-.455,9-.76A90.2,90.2,0,0,1,324.954,134.935Z" transform="translate(-232.656 -84.47)" fill="#fff"/>
          <path id="Trazado_132732" data-name="Trazado 132732" d="M324.974,143.121c0,.117-4.018.455-9,.76a90.236,90.236,0,0,1-9.023.322c-.006-.122,4.018-.455,9-.749S324.963,143.043,324.974,143.121Z" transform="translate(-232.666 -88.122)" fill="#fff"/>
          <path id="Trazado_132733" data-name="Trazado 132733" d="M322.956,151.108a31.066,31.066,0,0,1-5.116.527,31.916,31.916,0,0,1-5.15.089,62,62,0,0,1,10.266-.616Z" transform="translate(-235.435 -91.659)" fill="#fff"/>
          <path id="Trazado_132734" data-name="Trazado 132734" d="M299.71,176.656s.183,21.409,1.271,27.935l26.847-1.265s-2.358-21.043-1.454-26.675H299.71Z" transform="translate(-229.172 -103.056)" fill="#6595bf"/>
          <path id="Trazado_132735" data-name="Trazado 132735" d="M326.018,192.828c0,.122-4.018.461-9,.76s-9.018.444-9.018.333,4.018-.461,8.99-.76S326.007,192.712,326.018,192.828Z" transform="translate(-233.223 -110.238)" fill="#fff"/>
          <path id="Trazado_132736" data-name="Trazado 132736" d="M326.024,200.988c0,.117-4.018.455-9,.749s-9.018.444-9.023.333,4.018-.455,9-.76S326.018,200.877,326.024,200.988Z" transform="translate(-233.223 -113.87)" fill="#fff"/>
          <path id="Trazado_132737" data-name="Trazado 132737" d="M324.031,209.008a31.06,31.06,0,0,1-5.116.522,31.849,31.849,0,0,1-5.144.1,29.909,29.909,0,0,1,5.116-.527A31.227,31.227,0,0,1,324.031,209.008Z" transform="translate(-236.007 -117.429)" fill="#fff"/>
          <path id="Trazado_132738" data-name="Trazado 132738" d="M358.95,118.761s.183,21.4,1.271,27.935l26.847-1.282s-2.358-21.043-1.454-26.664Z" transform="translate(-260.751 -77.286)" fill="#6595bf"/>
          <path id="Trazado_132739" data-name="Trazado 132739" d="M385.254,134.935c0,.117-4.018.455-9,.749s-9.018.444-9.023.333,4.018-.455,9-.76A90.17,90.17,0,0,1,385.254,134.935Z" transform="translate(-264.661 -84.47)" fill="#fff"/>
          <path id="Trazado_132740" data-name="Trazado 132740" d="M385.264,143.121c0,.117-4.018.455-9,.76a90.235,90.235,0,0,1-9.023.322c-.006-.122,4.018-.455,9-.749S385.259,143.043,385.264,143.121Z" transform="translate(-264.666 -88.122)" fill="#fff"/>
          <path id="Trazado_132741" data-name="Trazado 132741" d="M383.266,151.108a31.066,31.066,0,0,1-5.116.527,31.916,31.916,0,0,1-5.15.089,62,62,0,0,1,10.266-.616Z" transform="translate(-267.344 -91.659)" fill="#fff"/>
          <path id="Trazado_132742" data-name="Trazado 132742" d="M419.24,118.761s.183,21.4,1.265,27.935l26.853-1.282S445,124.371,445.9,118.75Z" transform="translate(-292.89 -77.286)" fill="#6595bf"/>
          <path id="Trazado_132743" data-name="Trazado 132743" d="M445.544,134.935c0,.117-4.018.455-9,.749s-9.018.444-9.023.333,4.018-.455,9-.76A90.2,90.2,0,0,1,445.544,134.935Z" transform="translate(-296.661 -84.47)" fill="#fff"/>
          <path id="Trazado_132744" data-name="Trazado 132744" d="M445.564,143.121c0,.117-4.018.455-9,.76a90.236,90.236,0,0,1-9.023.322c-.006-.122,4.018-.455,9-.749S445.553,143.043,445.564,143.121Z" transform="translate(-296.672 -88.122)" fill="#fff"/>
          <path id="Trazado_132745" data-name="Trazado 132745" d="M443.556,151.147a31.062,31.062,0,0,1-5.116.527,31.914,31.914,0,0,1-5.15.089A62.869,62.869,0,0,1,443.556,151.147Z" transform="translate(-299.242 -91.698)" fill="#fff"/>
          <path id="Trazado_132746" data-name="Trazado 132746" d="M479.54,118.761s.183,21.4,1.265,27.935l26.853-1.282S505.3,124.371,506.2,118.75Z" transform="translate(-325.034 -77.286)" fill="#6595bf"/>
          <path id="Trazado_132747" data-name="Trazado 132747" d="M505.844,134.935c0,.117-4.018.455-9,.749s-9.018.444-9.023.333,4.018-.455,9-.76A90.17,90.17,0,0,1,505.844,134.935Z" transform="translate(-328.666 -84.47)" fill="#fff"/>
          <path id="Trazado_132748" data-name="Trazado 132748" d="M505.854,143.121c0,.117-4.018.455-9,.76a90.2,90.2,0,0,1-9.023.322c-.005-.122,4.018-.455,9-.749S505.849,143.043,505.854,143.121Z" transform="translate(-328.672 -88.122)" fill="#fff"/>
          <path id="Trazado_132749" data-name="Trazado 132749" d="M503.856,151.108a31.065,31.065,0,0,1-5.116.527,31.917,31.917,0,0,1-5.15.089,62,62,0,0,1,10.266-.616Z" transform="translate(-331.146 -91.659)" fill="#fff"/>
          <path id="Trazado_132750" data-name="Trazado 132750" d="M560.12,127.31s.183,21.409,1.271,27.935l26.886-1.271s-2.359-21.043-1.454-26.664Z" transform="translate(-367.993 -81.096)" fill="#d9a171"/>
          <path id="Trazado_132751" data-name="Trazado 132751" d="M586.439,143.478c0,.117-4.018.455-9,.76a90.116,90.116,0,0,1-9.018.322c-.006-.122,4.018-.455,8.99-.749S586.427,143.362,586.439,143.478Z" transform="translate(-371.446 -88.274)" fill="#fff"/>
          <path id="Trazado_132752" data-name="Trazado 132752" d="M586.449,151.649c0,.122-4.018.461-9,.76s-9.018.444-9.018.322,4.012-.455,8.99-.749S586.443,151.532,586.449,151.649Z" transform="translate(-371.451 -91.911)" fill="#fff"/>
          <path id="Trazado_132753" data-name="Trazado 132753" d="M584.441,159.648a29.909,29.909,0,0,1-5.116.527,30.628,30.628,0,0,1-5.144.089,61.8,61.8,0,0,1,10.261-.616Z" transform="translate(-373.784 -95.46)" fill="#fff"/>
          <path id="Trazado_132754" data-name="Trazado 132754" d="M614.11,128.126s.183,21.409,1.271,27.935l26.847-1.265s-2.358-21.043-1.454-26.675H614.11Z" transform="translate(-396.77 -81.456)" fill="#d9a171"/>
          <path id="Trazado_132755" data-name="Trazado 132755" d="M640.414,144.3c0,.122-4.018.461-9,.76s-9.018.444-9.023.333,4.018-.461,9-.76S640.409,144.182,640.414,144.3Z" transform="translate(-400.092 -88.639)" fill="#fff"/>
          <path id="Trazado_132756" data-name="Trazado 132756" d="M640.434,152.475c0,.117-4.018.455-9,.749s-9.018.444-9.023.333,4.018-.455,9-.76A90.171,90.171,0,0,1,640.434,152.475Z" transform="translate(-400.103 -92.276)" fill="#fff"/>
          <path id="Trazado_132757" data-name="Trazado 132757" d="M638.426,160.478a31.056,31.056,0,0,1-5.116.522,31.919,31.919,0,0,1-5.15.1,30.032,30.032,0,0,1,5.127-.527A31.152,31.152,0,0,1,638.426,160.478Z" transform="translate(-402.344 -95.829)" fill="#fff"/>
          <path id="Trazado_132758" data-name="Trazado 132758" d="M673.74,129.87s.183,21.4,1.265,27.935l26.853-1.271S699.5,135.491,700.4,129.87Z" transform="translate(-428.557 -82.235)" fill="#d9a171"/>
          <path id="Trazado_132759" data-name="Trazado 132759" d="M700.044,146.035c0,.117-4.018.455-9,.749s-9.018.444-9.023.333,4.018-.455,9-.76A90.207,90.207,0,0,1,700.044,146.035Z" transform="translate(-431.742 -89.41)" fill="#fff"/>
          <path id="Trazado_132760" data-name="Trazado 132760" d="M700.054,154.208c0,.117-4.018.455-9,.749s-9.018.455-9.023.333,4.018-.455,9-.749S700.049,154.092,700.054,154.208Z" transform="translate(-431.747 -93.05)" fill="#fff"/>
          <path id="Trazado_132761" data-name="Trazado 132761" d="M698.056,162.239a31.059,31.059,0,0,1-5.116.522,31.918,31.918,0,0,1-5.15.1A62.868,62.868,0,0,1,698.056,162.239Z" transform="translate(-433.893 -96.635)" fill="#fff"/>
          <path id="Trazado_132762" data-name="Trazado 132762" d="M744.6,127.86s.183,21.409,1.271,27.935l26.886-1.271S770.4,133.481,771.3,127.86Z" transform="translate(-473.404 -81.34)" fill="#d9a171"/>
          <path id="Trazado_132763" data-name="Trazado 132763" d="M770.913,144.028c0,.122-4.018.461-8.99.76s-9.018.444-9.023.333,4.018-.461,9-.76S770.9,143.912,770.913,144.028Z" transform="translate(-477.098 -88.519)" fill="#fff"/>
          <path id="Trazado_132764" data-name="Trazado 132764" d="M770.923,152.206c0,.117-4.018.455-8.99.749s-9.018.444-9.023.333,4.018-.461,8.99-.76S770.917,152.084,770.923,152.206Z" transform="translate(-477.102 -92.157)" fill="#fff"/>
          <path id="Trazado_132765" data-name="Trazado 132765" d="M768.921,160.207a31.059,31.059,0,0,1-5.116.522,31.847,31.847,0,0,1-5.144.1,29.907,29.907,0,0,1,5.116-.527A30.627,30.627,0,0,1,768.921,160.207Z" transform="translate(-479.661 -95.708)" fill="#fff"/>
          <path id="Trazado_132766" data-name="Trazado 132766" d="M750.49,190.74s.183,21.409,1.271,27.935l26.847-1.271s-2.353-21.043-1.443-26.664Z" transform="translate(-476.025 -109.327)" fill="#d9a171"/>
          <path id="Trazado_132767" data-name="Trazado 132767" d="M776.8,206.935c0,.122-4.018.461-8.99.76s-9.018.444-9.023.333,4.018-.461,9-.76S776.8,206.807,776.8,206.935Z" transform="translate(-479.719 -116.515)" fill="#fff"/>
          <path id="Trazado_132768" data-name="Trazado 132768" d="M776.813,215.093c0,.117-4.018.455-8.99.749s-9.017.444-9.023.333,4.018-.461,9-.76A90.049,90.049,0,0,1,776.813,215.093Z" transform="translate(-479.724 -120.145)" fill="#fff"/>
          <path id="Trazado_132769" data-name="Trazado 132769" d="M774.812,223.1a62.975,62.975,0,0,1-10.272.622,61.048,61.048,0,0,1,10.272-.622Z" transform="translate(-482.278 -123.697)" fill="#fff"/>
          <path id="Trazado_132770" data-name="Trazado 132770" d="M787.11,133.26s.183,21.409,1.271,27.935l26.847-1.271s-2.358-21.043-1.454-26.664Z" transform="translate(-492.324 -83.744)" fill="#455a64"/>
          <path id="Trazado_132771" data-name="Trazado 132771" d="M813.424,149.425c0,.117-4.018.455-9,.749s-9.018.444-9.023.333,4.018-.455,9-.76A90.168,90.168,0,0,1,813.424,149.425Z" transform="translate(-496.013 -90.919)" fill="#fff"/>
          <path id="Trazado_132772" data-name="Trazado 132772" d="M813.434,157.6c0,.117-4.018.455-9,.76a90.2,90.2,0,0,1-9.023.322c-.006-.122,4.018-.455,9-.749S813.428,157.482,813.434,157.6Z" transform="translate(-496.018 -94.559)" fill="#fff"/>
          <path id="Trazado_132773" data-name="Trazado 132773" d="M811.426,165.637a29.906,29.906,0,0,1-5.116.527,31.915,31.915,0,0,1-5.15.089A62.863,62.863,0,0,1,811.426,165.637Z" transform="translate(-498.577 -98.147)" fill="#fff"/>
          <path id="Trazado_132774" data-name="Trazado 132774" d="M573.2,158.8s.183,21.409,1.265,27.935l26.853-1.271s-2.358-21.043-1.454-26.664Z" transform="translate(-374.962 -95.111)" fill="#455a64"/>
          <path id="Trazado_132775" data-name="Trazado 132775" d="M599.5,174.97c0,.117-4.018.461-9,.76s-9.018.444-9.023.322,4.018-.455,9-.749S599.5,174.859,599.5,174.97Z" transform="translate(-378.378 -102.291)" fill="#fff"/>
          <path id="Trazado_132776" data-name="Trazado 132776" d="M599.524,183.138c0,.122-4.018.461-9,.76s-9.018.444-9.023.333,4.018-.461,9-.76S599.513,183.022,599.524,183.138Z" transform="translate(-378.389 -105.926)" fill="#fff"/>
          <path id="Trazado_132777" data-name="Trazado 132777" d="M597.516,191.145a32.313,32.313,0,0,1-5.116.522,29.562,29.562,0,0,1-5.15.089,32.445,32.445,0,0,1,5.128-.522A30.551,30.551,0,0,1,597.516,191.145Z" transform="translate(-380.699 -109.476)" fill="#fff"/>
          <path id="Trazado_132778" data-name="Trazado 132778" d="M567.12,244.42s.172,21.409,1.265,27.935l26.853-1.271s-2.358-21.043-1.454-26.664Z" transform="translate(-371.721 -133.218)" fill="#d9a171"/>
          <path id="Trazado_132779" data-name="Trazado 132779" d="M593.434,260.585c0,.117-4.018.455-9,.749s-9.018.444-9.023.333,4.018-.455,9-.76A90.243,90.243,0,0,1,593.434,260.585Z" transform="translate(-375.156 -140.393)" fill="#fff"/>
          <path id="Trazado_132780" data-name="Trazado 132780" d="M593.443,268.758c0,.117-4.018.455-8.99.76a90.18,90.18,0,0,1-9.023.322c-.006-.122,4.018-.455,9-.749S593.443,268.642,593.443,268.758Z" transform="translate(-375.166 -144.033)" fill="#fff"/>
          <path id="Trazado_132781" data-name="Trazado 132781" d="M591.436,276.758a29.9,29.9,0,0,1-5.116.527,31.91,31.91,0,0,1-5.15.089,61.826,61.826,0,0,1,10.266-.616Z" transform="translate(-377.482 -147.582)" fill="#fff"/>
          <path id="Trazado_132782" data-name="Trazado 132782" d="M393.734,160.63s2.17,19.811-.622,30.676l-26.492-1.154s5.682-19.556,2.2-28.224Z" transform="translate(-264.829 -95.926)" fill="#ebebeb"/>
          <path id="Trazado_132783" data-name="Trazado 132783" d="M363.869,154.56s-1.654,22.486-3.119,27.019l24.128,2.542,3.624-3.452s2.569-19.811,2.2-25.455Z" transform="translate(-261.804 -93.224)" fill="#455a64"/>
          <path id="Trazado_132784" data-name="Trazado 132784" d="M404.774,201.29l-.544,3.624,3.624-3.441Z" transform="translate(-283.51 -114.022)" fill="#263238"/>
          <path id="Trazado_132785" data-name="Trazado 132785" d="M390.973,173.018a19.291,19.291,0,0,1-2.708-.322l-6.448-.943-6.515-.827a20.962,20.962,0,0,1-2.691-.394,15.963,15.963,0,0,1,2.725.089c1.654.122,3.99.355,6.531.683s4.839.727,6.487,1.049A16.174,16.174,0,0,1,390.973,173.018Z" transform="translate(-267.533 -100.322)" fill="#fff"/>
          <path id="Trazado_132786" data-name="Trazado 132786" d="M389.647,182.175a14.628,14.628,0,0,1-2.608-.089c-1.6-.117-3.823-.333-6.26-.644s-4.639-.655-6.226-.932a14.858,14.858,0,0,1-2.553-.56,16.88,16.88,0,0,1,2.591.266l6.232.827,6.243.76A15.552,15.552,0,0,1,389.647,182.175Z" transform="translate(-267.174 -104.524)" fill="#fff"/>
          <path id="Trazado_132787" data-name="Trazado 132787" d="M388.15,190.445a77.947,77.947,0,0,1-8.113-.877,75.9,75.9,0,0,1-8.046-1.3,78.016,78.016,0,0,1,8.107.877A76.466,76.466,0,0,1,388.15,190.445Z" transform="translate(-267.095 -108.227)" fill="#fff"/>
          <path id="Trazado_132788" data-name="Trazado 132788" d="M260.459,203.39s-1.654,22.486-3.119,27.019l24.128,2.542,3.624-3.452s2.569-19.811,2.2-25.455Z" transform="translate(-197.019 -114.957)" fill="#455a64"/>
          <path id="Trazado_132789" data-name="Trazado 132789" d="M301.364,250.12l-.544,3.629,3.624-3.452Z" transform="translate(-228.943 -135.755)" fill="#263238"/>
          <path id="Trazado_132790" data-name="Trazado 132790" d="M287.531,221.87a16.471,16.471,0,0,1-2.708-.322l-6.487-.916-6.515-.827a17.679,17.679,0,0,1-2.691-.394,15.965,15.965,0,0,1,2.725.089c1.654.122,3.99.355,6.531.694s4.839.716,6.487,1.038A16.707,16.707,0,0,1,287.531,221.87Z" transform="translate(-212.603 -122.078)" fill="#fff"/>
          <path id="Trazado_132791" data-name="Trazado 132791" d="M286.248,231.006a14.779,14.779,0,0,1-2.619-.1c-1.6-.117-3.823-.333-6.26-.638s-4.639-.655-6.226-.943a16.109,16.109,0,0,1-2.553-.555,15.592,15.592,0,0,1,2.592.255l6.232.827,6.243.766A17.7,17.7,0,0,1,286.248,231.006Z" transform="translate(-212.296 -126.253)" fill="#fff"/>
          <path id="Trazado_132792" data-name="Trazado 132792" d="M284.72,239.3a77.858,77.858,0,0,1-8.113-.827,75.694,75.694,0,0,1-8.046-1.3,78.013,78.013,0,0,1,8.107.877A77.32,77.32,0,0,1,284.72,239.3Z" transform="translate(-212.24 -129.991)" fill="#fff"/>
          <rect id="Rectángulo_31607" data-name="Rectángulo 31607" width="20.161" height="4.606" transform="translate(17.913 45.848)" fill="#a66d58"/>
          <rect id="Rectángulo_31608" data-name="Rectángulo 31608" width="20.161" height="4.606" transform="translate(17.913 155.907)" fill="#263238"/>
          <rect id="Rectángulo_31609" data-name="Rectángulo 31609" width="20.161" height="4.606" transform="translate(17.913 193.148)" fill="#263238"/>
          <rect id="Rectángulo_31610" data-name="Rectángulo 31610" width="69.593" height="4.606" transform="translate(77.929 18.64)" fill="#e0e0e0"/>
          <rect id="Rectángulo_31611" data-name="Rectángulo 31611" width="69.593" height="4.606" transform="translate(191.841 18.64)" fill="#e0e0e0"/>
          <rect id="Rectángulo_31612" data-name="Rectángulo 31612" width="33.235" height="4.606" transform="translate(277.278 18.64)" fill="#e0e0e0"/>
          <path id="Trazado_132793" data-name="Trazado 132793" d="M479.632,113.076c0,.122-68.267.222-152.464.222s-152.478-.117-152.478-.222,68.257-.216,152.478-.216S479.632,112.943,479.632,113.076Z" transform="translate(-160.234 -74.664)" fill="#263238"/>
          <path id="Trazado_132794" data-name="Trazado 132794" d="M479.632,310.466c0,.122-68.267.216-152.464.216s-152.478-.089-152.478-.216,68.257-.216,152.478-.216S479.632,310.35,479.632,310.466Z" transform="translate(-160.234 -162.517)" fill="#263238"/>
          <path id="Trazado_132795" data-name="Trazado 132795" d="M479.632,445.956c0,.122-68.267.216-152.464.216s-152.478-.089-152.478-.216,68.257-.216,152.478-.216S479.632,445.84,479.632,445.956Z" transform="translate(-160.234 -222.82)" fill="#263238"/>
          <path id="Trazado_132796" data-name="Trazado 132796" d="M479.632,379.906c0,.117-68.267.216-152.464.216s-152.478-.1-152.478-.216,68.257-.216,152.478-.216S479.632,379.784,479.632,379.906Z" transform="translate(-160.234 -193.423)" fill="#263238"/>
          <path id="Trazado_132797" data-name="Trazado 132797" d="M230.176,281.158c-.122,0-.216-46.553-.216-103.977s.089-104.021.216-104.021.216,46.553.216,104.021S230.293,281.158,230.176,281.158Z" transform="translate(-184.833 -56.995)" fill="#263238"/>
          <path id="Trazado_132798" data-name="Trazado 132798" d="M533.616,283.342c-.117,0-.216-46.486-.216-103.816s.1-103.816.216-103.816.216,46.47.216,103.816S533.733,283.342,533.616,283.342Z" transform="translate(-351.42 -58.13)" fill="#263238"/>
          <path id="Trazado_132799" data-name="Trazado 132799" d="M730.126,285.279c-.117,0-.216-46.486-.216-103.821s.1-103.838.216-103.838.216,46.486.216,103.838S730.249,285.279,730.126,285.279Z" transform="translate(-454.986 -58.98)" fill="#263238"/>
          <path id="Trazado_132800" data-name="Trazado 132800" d="M584.379,234.72l.322.117.96.394a18.266,18.266,0,0,1,3.357,2.07,19.279,19.279,0,0,1,4.262,4.567,20.841,20.841,0,0,1,1.881,3.435,21.8,21.8,0,0,1,1.265,4.2,19.6,19.6,0,0,1-.877,9.955A21.642,21.642,0,0,1,589,268.876a20.96,20.96,0,0,1-11.714,4.706,22.863,22.863,0,0,1-13.257-2.841,22.467,22.467,0,0,1-9.173-9.983,19.611,19.611,0,0,1-1.493-12.525,19.882,19.882,0,0,1,5.533-10.016,16.869,16.869,0,0,1,4.278-3.019,18.432,18.432,0,0,1,4.556-1.654,28.455,28.455,0,0,1,8.257-.522,51.692,51.692,0,0,1,6.193.827c1.654.316,2.98.622,3.862.827l.993.239a1.819,1.819,0,0,1,.339.1l-.344-.05-1-.205c-.882-.183-2.181-.455-3.862-.744a52.527,52.527,0,0,0-6.182-.76,28.3,28.3,0,0,0-8.174.572,18.567,18.567,0,0,0-4.473,1.609,17.11,17.11,0,0,0-4.179,2.991,19.424,19.424,0,0,0-5.422,9.867,19.218,19.218,0,0,0,1.487,12.258,22.091,22.091,0,0,0,9.006,9.789,22.58,22.58,0,0,0,13.013,2.791,20.55,20.55,0,0,0,11.5-4.589,21.37,21.37,0,0,0,6.47-9.212,19.266,19.266,0,0,0,.9-9.772,20.584,20.584,0,0,0-1.2-4.129,21.864,21.864,0,0,0-1.831-3.407,19.5,19.5,0,0,0-4.129-4.567,20.069,20.069,0,0,0-3.3-2.131l-.932-.427A1.238,1.238,0,0,1,584.379,234.72Z" transform="translate(-365.707 -128.102)" fill="#263238"/>
          <path id="Trazado_132801" data-name="Trazado 132801" d="M625.239,231.232c-.072-.1,3.23-2.847,7.369-6.149a90.91,90.91,0,0,1,7.647-5.777c.072.117-3.23,2.841-7.369,6.143S625.311,231.327,625.239,231.232Z" transform="translate(-401.288 -122.039)" fill="#263238"/>
          <path id="Trazado_132802" data-name="Trazado 132802" d="M637.563,232.159a5.614,5.614,0,0,1-1.054.15l-2.908.25c-2.475.2-5.86.438-9.645.677h-.316l.089-.3a1.189,1.189,0,0,1,.116-.361,37.5,37.5,0,0,1,4.129-9.023c.682-1.071,1.287-1.909,1.726-2.475a5.15,5.15,0,0,1,.727-.827,6.267,6.267,0,0,1-.588.932c-.394.588-.96,1.437-1.609,2.525a42.427,42.427,0,0,0-4.007,9l-.106.355-.216-.283c3.779-.239,7.181-.427,9.65-.544l2.913-.117A4.835,4.835,0,0,1,637.563,232.159Z" transform="translate(-400.327 -122.461)" fill="#263238"/>
          <path id="Trazado_132803" data-name="Trazado 132803" d="M805.35,301.442a17.7,17.7,0,0,1,.71-1.748,30.957,30.957,0,0,0-8.418-35.5,32.068,32.068,0,0,0-4.129-3.047c-1.032-.638-1.654-.966-1.654-1a2.465,2.465,0,0,1,.444.2c.289.15.727.338,1.249.655a28.09,28.09,0,0,1,4.245,2.963,30.285,30.285,0,0,1,5.233,5.621,30.245,30.245,0,0,1,4.833,25.282,28.155,28.155,0,0,1-1.654,4.889c-.239.561-.477.977-.621,1.265C805.517,301.159,805.439,301.3,805.35,301.442Z" transform="translate(-494.438 -140.219)" fill="#263238"/>
          <path id="Trazado_132804" data-name="Trazado 132804" d="M821,323.45a19.319,19.319,0,0,1-2.181,1.909l-2.475,1.976-1.443,1.149a3.112,3.112,0,0,1-1.876.943,1.2,1.2,0,0,1-.966-.66,4.08,4.08,0,0,1-.339-.977c-.155-.621-.305-1.221-.455-1.792-.283-1.121-.527-2.148-.749-3.047a18.993,18.993,0,0,1-.588-2.83,19.052,19.052,0,0,1,.877,2.747c.255.9.538,1.915.827,3.019.155.577.316,1.171.488,1.792s.355,1.287.916,1.315a2.83,2.83,0,0,0,1.587-.827l1.471-1.132,2.475-1.9A20.4,20.4,0,0,1,821,323.45Z" transform="translate(-502.48 -166.91)" fill="#263238"/>
          <path id="Trazado_132805" data-name="Trazado 132805" d="M421.139,235.726c0,.117-8.2,2.314-18.379,4.906s-18.457,4.589-18.49,4.473,8.2-2.3,18.385-4.894S421.112,235.61,421.139,235.726Z" transform="translate(-274.743 -129.347)" fill="#263238"/>
          <path id="Trazado_132806" data-name="Trazado 132806" d="M427.805,243.617c0,.117-9.018,2.73-20.2,5.854s-20.294,5.555-20.316,5.438,9.006-2.73,20.2-5.854S427.783,243.5,427.805,243.617Z" transform="translate(-276.576 -132.859)" fill="#263238"/>
          <path id="Trazado_132807" data-name="Trazado 132807" d="M435.076,256.646c0,.117-8.629,2.286-19.328,4.856s-19.395,4.539-19.428,4.423,8.629-2.281,19.328-4.845S435.054,256.53,435.076,256.646Z" transform="translate(-281.308 -138.657)" fill="#263238"/>
          <rect id="Rectángulo_31614" data-name="Rectángulo 31614" width="17.475" height="17.475" transform="translate(115.328 199.445) rotate(-10.72)" fill="#fff"/>
          <path id="Trazado_132812" data-name="Trazado 132812" d="M437.46,394.243l14.861-2.813" transform="translate(-301.735 -198.648)" fill="#fff"/>
          <path id="Trazado_132814" data-name="Trazado 132814" d="M438.64,402.282l3.013-.572" transform="translate(-301.632 -203.224)" fill="#fff"/>
        </g>
        <g id="freepik--Plants--inject-8" transform="translate(315.939 280.21)">
          <path id="Trazado_132825" data-name="Trazado 132825" d="M955.248,600.342a18.178,18.178,0,0,1,11.31-1.371c2.053.339,4.2.949,5.588,2.475s1.654,4.251.056,5.571a5.357,5.357,0,0,1-3.524.9c-2.991,0-6.31-.561-8.7,1.237-1.36,1.021-2.27,2.73-3.9,3.235a3.86,3.86,0,0,1-4.245-1.892,6.614,6.614,0,0,1-.477-4.856A7.444,7.444,0,0,1,955.248,600.342Z" transform="translate(-917.348 -553.928)" fill="#d9a171"/>
          <path id="Trazado_132826" data-name="Trazado 132826" d="M942.771,549.258c2.1,3.008,6.2,2.009,8.091.172s2.7-4.489,3.424-7.025c1.654-5.777,3.352-11.87,2.114-17.763a9.858,9.858,0,0,0-2.27-4.828,5.168,5.168,0,0,0-4.889-1.654c-2.064.544-3.3,2.569-4.267,4.484a42.18,42.18,0,0,0-4.184,18.163c0,2.924.333,5.993,1.981,8.413" transform="translate(-912.757 -518.06)" fill="#d9a171"/>
          <path id="Trazado_132827" data-name="Trazado 132827" d="M914.516,561.327a10.943,10.943,0,0,0,1.7-10.061,19.468,19.468,0,0,0-5.977-8.646,32.15,32.15,0,0,0-10.677-6.293,11.349,11.349,0,0,0-4.794-.827,5.053,5.053,0,0,0-4.029,2.436c-1.121,2.137,0,4.739,1.121,6.859a80.783,80.783,0,0,0,7.025,10.649c2.1,2.708,4.506,5.372,7.7,6.6s6.531,1.082,8.257-1.138" transform="translate(-890.273 -525.818)" fill="#d9a171"/>
          <path id="Trazado_132828" data-name="Trazado 132828" d="M944.042,633.792a5.945,5.945,0,0,0,.189-1.36c.1-.993.222-2.247.361-3.724a53.583,53.583,0,0,1,.827-5.472,42.218,42.218,0,0,1,1.981-6.448,23.876,23.876,0,0,1,3.3-5.838,12.068,12.068,0,0,1,4.129-3.457,11.628,11.628,0,0,1,3.507-1.1,6.979,6.979,0,0,0,1.354-.189,5.717,5.717,0,0,0-1.376,0,10.607,10.607,0,0,0-3.657.949,12.176,12.176,0,0,0-4.389,3.49,23.057,23.057,0,0,0-3.418,5.96,39.1,39.1,0,0,0-1.976,6.554,46.316,46.316,0,0,0-.727,5.533c-.116,1.587-.166,2.864-.183,3.746A6.479,6.479,0,0,0,944.042,633.792Z" transform="translate(-914.166 -557.273)" fill="#263238"/>
          <path id="Trazado_132829" data-name="Trazado 132829" d="M944.361,601.383a2.238,2.238,0,0,0,.039-.638v-1.809c0-1.576,0-3.846.083-6.665.139-5.616.622-11.665,1.559-20.194.882-8.019,2.07-17.336,3.3-23.412.272-1.376.544-2.619.827-3.707s.444-2.031.655-2.791.305-1.3.422-1.759a2.7,2.7,0,0,0,.105-.627,2.815,2.815,0,0,0-.216.594c-.139.455-.316,1.032-.527,1.742s-.472,1.654-.744,2.764-.588,2.32-.882,3.7a206.678,206.678,0,0,0-3.49,21.731c-.943,8.546-1.36,16.32-1.393,21.953,0,2.825,0,5.1.1,6.67,0,.744.072,1.337.105,1.815A3,3,0,0,0,944.361,601.383Z" transform="translate(-914.23 -527.727)" fill="#263238"/>
          <path id="Trazado_132830" data-name="Trazado 132830" d="M928.577,590.108a12.013,12.013,0,0,0,0-1.9,51.145,51.145,0,0,0-.577-5.128,66.452,66.452,0,0,0-1.654-7.43,62.3,62.3,0,0,0-3.119-8.834,47.07,47.07,0,0,0-9.178-14.289,24.45,24.45,0,0,0-2.153-2c-.333-.283-.627-.56-.927-.777l-.827-.577a11.756,11.756,0,0,0-1.593-1.021,54.725,54.725,0,0,1,5.216,4.667,49.371,49.371,0,0,1,8.951,14.234,69.2,69.2,0,0,1,3.085,8.718,74.131,74.131,0,0,1,1.765,7.431c.394,2.136.622,3.873.76,5.078A11.425,11.425,0,0,0,928.577,590.108Z" transform="translate(-898.408 -531.452)" fill="#263238"/>
        </g>
        <g id="freepik--character-2--inject-8" transform="translate(124.699 102.275)">
          <path id="Trazado_132831" data-name="Trazado 132831" d="M757.534,223.61c0,4.906,6.454,8.091,6.215,12.985-.105,2.1-1.471,3.957-1.793,6.032-.438,2.791,1.049,5.5,1.537,8.257,1,5.777-2.475,11.659-7.519,14.622s-11.221,3.357-16.964,2.386" transform="translate(-631.709 -209.074)" fill="#263238"/>
          <path id="Trazado_132832" data-name="Trazado 132832" d="M694.533,219.16c.105,2.636-1.7,4.956-3.518,6.842s-3.829,3.912-4.3,6.515c-.827,4.606,3.574,9.079,2.475,13.6-.577,2.436-2.653,4.345-3.085,6.809s.827,4.778,2.32,6.654,3.385,1.654,4.728,3.69a20.032,20.032,0,0,0,5.938,5.632c4.956,2.941,11.21-.882,13.69-1.526" transform="translate(-608.125 -207.093)" fill="#263238"/>
          <path id="Trazado_132833" data-name="Trazado 132833" d="M741.538,214.8c.139-2.386-2.009-4.3-4.2-5.244s-4.656-1.354-6.6-2.758c-1.715-1.232-2.841-3.113-4.267-4.667a14.707,14.707,0,0,0-24.933,5.943c-.96,3.374-.5,7.43,2.1,9.75,3.03,2.725,7.652,2.286,11.665,1.6s8.546-1.343,11.787,1.1c1.964,1.476,3.035,3.807,4.2,5.971s2.625,4.384,4.955,5.261,5.483-.405,5.655-2.858" transform="translate(-614.826 -197.415)" fill="#263238"/>
          <path id="Trazado_132834" data-name="Trazado 132834" d="M730.248,222.222l-21-6.082c-6.759-.949-11.559,7.247-12.22,14.034-.744,7.553-1.343,16.792-.644,22.469,1.421,11.409,10.061,13.152,10.061,13.152s-.1,3.3-.216,7.369a12.183,12.183,0,0,0,11.559,12.53h0a12.188,12.188,0,0,0,12.752-11.387l3.085-47.929A3.977,3.977,0,0,0,730.248,222.222Z" transform="translate(-612.598 -205.715)" fill="#ffbe9d"/>
          <path id="Trazado_132835" data-name="Trazado 132835" d="M700.406,255.423a1.456,1.456,0,0,0,1.343,1.521,1.4,1.4,0,0,0,1.548-1.238v-.022a1.465,1.465,0,0,0-1.354-1.52A1.4,1.4,0,0,0,700.4,255.4.041.041,0,0,1,700.406,255.423Z" transform="translate(-614.525 -222.668)" fill="#263238"/>
          <path id="Trazado_132836" data-name="Trazado 132836" d="M700.444,251.04c.172.2,1.3-.588,2.875-.527s2.68.882,2.863.7-.089-.438-.577-.827a4,4,0,0,0-2.281-.827,3.886,3.886,0,0,0-2.3.66C700.533,250.613,700.361,250.951,700.444,251.04Z" transform="translate(-614.536 -220.621)" fill="#263238"/>
          <path id="Trazado_132837" data-name="Trazado 132837" d="M727.929,256.159a1.448,1.448,0,0,0,1.354,1.509,1.379,1.379,0,0,0,1.537-1.2c0-.017.005-.039.005-.056a1.458,1.458,0,0,0-1.354-1.521,1.4,1.4,0,0,0-1.543,1.232A.035.035,0,0,1,727.929,256.159Z" transform="translate(-626.777 -222.993)" fill="#263238"/>
          <path id="Trazado_132838" data-name="Trazado 132838" d="M728.175,252.51c.172.2,1.3-.577,2.875-.522s2.68.882,2.863.694-.089-.427-.577-.827a3.927,3.927,0,0,0-2.286-.827,3.859,3.859,0,0,0-2.286.655C728.286,252.088,728.092,252.427,728.175,252.51Z" transform="translate(-626.879 -221.276)" fill="#263238"/>
          <path id="Trazado_132839" data-name="Trazado 132839" d="M714.075,263.843a10.111,10.111,0,0,0-2.525-.544c-.394-.055-.777-.15-.827-.427a2.071,2.071,0,0,1,.305-1.171l1.287-3.008c1.792-4.278,3.1-7.8,2.93-7.874s-1.765,3.346-3.557,7.619l-1.237,3.03a2.279,2.279,0,0,0-.255,1.559.99.99,0,0,0,.638.6,2.846,2.846,0,0,0,.677.122A9.914,9.914,0,0,0,714.075,263.843Z" transform="translate(-618.866 -221.183)" fill="#263238"/>
          <path id="Trazado_132840" data-name="Trazado 132840" d="M714.694,302.994a27.392,27.392,0,0,0,15.188-3.374c-.133,0-4.439,7.758-15.283,6.215Z" transform="translate(-620.845 -242.903)" fill="#eb996e"/>
          <path id="Trazado_132841" data-name="Trazado 132841" d="M718.044,280.332a2.838,2.838,0,0,1,2.558-.966,2.6,2.6,0,0,1,1.748,1.016,1.656,1.656,0,0,1,.055,1.876,1.883,1.883,0,0,1-2.07.444,5.83,5.83,0,0,1-1.959-1.265,1.674,1.674,0,0,1-.427-.477.52.52,0,0,1,0-.577" transform="translate(-622.297 -233.876)" fill="#c1507f"/>
          <path id="Trazado_132842" data-name="Trazado 132842" d="M721.316,276.52c-.255,0-.316,1.654-1.815,2.83s-3.3.91-3.3,1.149c0,.105.394.344,1.154.388a4.188,4.188,0,0,0,2.775-.827,3.712,3.712,0,0,0,1.4-2.375C721.627,276.942,721.455,276.52,721.316,276.52Z" transform="translate(-621.557 -232.622)" fill="#263238"/>
          <path id="Trazado_132843" data-name="Trazado 132843" d="M727.085,247.858c.139.438,1.709.289,3.54.572s3.3.827,3.557.461c.117-.172-.133-.588-.716-1.016a6.2,6.2,0,0,0-5.405-.788C727.373,247.331,727.023,247.658,727.085,247.858Z" transform="translate(-626.398 -219.387)" fill="#263238"/>
          <path id="Trazado_132844" data-name="Trazado 132844" d="M701.76,242.941c.266.361,1.354,0,2.652.067s2.392.316,2.658-.05c.117-.172-.05-.538-.51-.893a3.719,3.719,0,0,0-2.137-.655,3.566,3.566,0,0,0-2.136.644C701.81,242.358,701.671,242.725,701.76,242.941Z" transform="translate(-615.119 -216.995)" fill="#263238"/>
          <path id="Trazado_132845" data-name="Trazado 132845" d="M741.662,260.325c-3.135.527-3.368-1.071-5.633-3.3a10.238,10.238,0,0,1-2.858-8.74c.438-2.78,2.036-5.566,1.154-8.257-1.165-3.524-6.026-4.756-7.208-8.257-.694-2.048.067-4.389-.727-6.4s-2.675-3.03-4.556-3.779-3.923-1.3-5.483-2.592-2.475-3.685-1.4-5.4a107.42,107.42,0,0,1,24.583,6.8c1.831.749,3.746,1.654,4.795,3.3s.977,4.029.827,6.115q-1.215,15.258-2.408,30.543" transform="translate(-620.794 -204.618)" fill="#263238"/>
          <path id="Trazado_132846" data-name="Trazado 132846" d="M775.537,250.387a8.719,8.719,0,0,1,16.587-2.481c1.476,3.252.827,7.131-.777,10.344-1.876,3.812-5.571,7.231-9.805,6.9-3.99-.305-7.081-3.912-8.108-7.775s-.438-7.952.167-11.9" transform="translate(-646.782 -217.61)" fill="#263238"/>
          <path id="Trazado_132847" data-name="Trazado 132847" d="M780.7,267.382a1.953,1.953,0,0,0,.622-.638,5.589,5.589,0,0,0,.916-2.247,11.135,11.135,0,0,0,0-3.59c-.189-1.337-.594-2.758-.877-4.251a10.553,10.553,0,0,1-.117-4.212,35.1,35.1,0,0,1,1.2-3.3,4.3,4.3,0,0,0,.15-2.425,1.432,1.432,0,0,0-.422-.827,3.826,3.826,0,0,1,.233.827,4.525,4.525,0,0,1-.3,2.27,28.157,28.157,0,0,0-1.3,3.3,10.5,10.5,0,0,0,.067,4.4c.289,1.526.71,2.941.91,4.234a11.3,11.3,0,0,1,.1,3.457A7.338,7.338,0,0,1,780.7,267.382Z" transform="translate(-650.219 -218.99)" fill="#455a64"/>
          <path id="Trazado_132848" data-name="Trazado 132848" d="M781.86,260.068a5.565,5.565,0,0,0,1.654,1.759,9.98,9.98,0,0,0,11.21.56,5.565,5.565,0,0,0,1.859-1.587c-.056-.067-.733.577-2.031,1.271a10.356,10.356,0,0,1-10.832-.533C782.532,260.717,781.91,260.012,781.86,260.068Z" transform="translate(-650.781 -225.298)" fill="#455a64"/>
          <path id="Trazado_132849" data-name="Trazado 132849" d="M782.77,263.31a5.2,5.2,0,0,0,.91,1.809,12.386,12.386,0,0,0,8.063,5.211,5.379,5.379,0,0,0,2.02.083,18.092,18.092,0,0,0-1.959-.422,14.256,14.256,0,0,1-7.852-5.078A15.114,15.114,0,0,0,782.77,263.31Z" transform="translate(-651.186 -226.743)" fill="#455a64"/>
          <path id="Trazado_132850" data-name="Trazado 132850" d="M749.129,253.813a1.135,1.135,0,0,0,.133-.133,3.577,3.577,0,0,0,.3-.455,6.114,6.114,0,0,0,.827-1.959,7.082,7.082,0,0,0-.072-3.357,6.437,6.437,0,0,0-2.525-3.64c-1.321-.993-3.052-1.709-4.129-3.252a3.425,3.425,0,0,1-.527-2.691,15.191,15.191,0,0,1,1.082-2.913,8.466,8.466,0,0,0,.072-6.776,7.463,7.463,0,0,0-2.214-2.941,9.1,9.1,0,0,0-3.435-1.554c-1.221-.322-2.475-.522-3.568-.9a7.065,7.065,0,0,1-2.958-1.742,4.988,4.988,0,0,1-1.215-3.019,24.415,24.415,0,0,0-.427-3.3,11.33,11.33,0,0,0-2.891-5.466,8.947,8.947,0,0,0-4.745-2.553,7.206,7.206,0,0,0-4.406.522,6.923,6.923,0,0,0-2.608,2.12,5.975,5.975,0,0,0-.949,1.9,3.163,3.163,0,0,0-.133.727,7.259,7.259,0,0,1,1.237-2.475,6.825,6.825,0,0,1,6.792-2.408,8.636,8.636,0,0,1,4.517,2.475,11.1,11.1,0,0,1,2.741,5.277,26.426,26.426,0,0,1,.405,3.3,5.421,5.421,0,0,0,1.321,3.3,7.492,7.492,0,0,0,3.163,1.881c1.182.394,2.4.594,3.6.916a8.454,8.454,0,0,1,3.252,1.459,6.992,6.992,0,0,1,2.064,2.73,8.012,8.012,0,0,1-.039,6.415,14.479,14.479,0,0,0-1.088,3.013,3.832,3.832,0,0,0,.621,3c1.188,1.654,2.974,2.358,4.245,3.3a6.079,6.079,0,0,1,2.475,3.424,6.909,6.909,0,0,1,.155,3.246A7.75,7.75,0,0,1,749.129,253.813Z" transform="translate(-620.907 -201.691)" fill="#455a64"/>
          <path id="Trazado_132851" data-name="Trazado 132851" d="M748.577,219.074a1.323,1.323,0,0,0,.155-.522,2.48,2.48,0,0,0-.333-1.521,3.935,3.935,0,0,0-1.848-1.654,5.9,5.9,0,0,0-3.252-.205c-1.2.183-2.475.622-3.807.827a5.012,5.012,0,0,1-4.084-.777c-1.171-.96-1.731-2.558-2.3-4.129a16.919,16.919,0,0,0-2.475-4.761,15.65,15.65,0,0,0-8.413-5.827,8.987,8.987,0,0,0-4.539,0,7.06,7.06,0,0,0-3.385,2.037,5.219,5.219,0,0,0-1.354,2.963,5.02,5.02,0,0,0,.3,2.475,4.006,4.006,0,0,0,.827,1.332,1.676,1.676,0,0,0,.411.355,5.276,5.276,0,0,1-1.038-1.748,5.092,5.092,0,0,1,1.132-5.1,6.769,6.769,0,0,1,3.235-1.881,8.665,8.665,0,0,1,4.328.072,15.4,15.4,0,0,1,8.124,5.688,16.538,16.538,0,0,1,2.408,4.623c.577,1.587,1.138,3.3,2.475,4.356a4.326,4.326,0,0,0,2.214.91,7.523,7.523,0,0,0,2.231-.083c1.41-.25,2.641-.7,3.8-.9a5.609,5.609,0,0,1,3.085.122,3.671,3.671,0,0,1,1.792,1.471,2.488,2.488,0,0,1,.394,1.41C748.616,218.891,748.544,219.063,748.577,219.074Z" transform="translate(-620.09 -198.661)" fill="#455a64"/>
          <path id="Trazado_132852" data-name="Trazado 132852" d="M588.333,382.707s-6.282-9.822-7.38-10.649-10.854-4.212-11.681-3.94-12.541,2.475-11.171,3.857,9.545-.283,9.545-.283l1.1.527s-7.059,1.249-8.535,2.137c-1.354.827-.827,2.475.438,2.331s7.43-1.443,7.791-1.2-6.665,1.776-7.43,2.236c-1.016.622-1.082,2.475.205,2.331.76-.067,7.381-1.892,7.381-1.892a56.041,56.041,0,0,0-5.721,2.586c-.782.777-.133,1.909,1.01,1.654.782-.189,4.484-2.031,5.533-2.281,0,0,.982.25,1.909,2.22.427.927,2.419,6.67,5.888,6.537,3.063-.117,6.115,2.358,6.115,2.358Z" transform="translate(-551.142 -273.383)" fill="#ffbe9d"/>
          <path id="Trazado_132853" data-name="Trazado 132853" d="M558.23,374.542a5.481,5.481,0,0,0,2.153.56,12.6,12.6,0,0,0,2.419.056c.9-.117,1.876-.272,2.908-.427l2.186-.355h-.133a31.933,31.933,0,0,0,5.094,1.5,32.507,32.507,0,0,0-4.955-2.009h-.139l-2.164.333-2.874.472a16.568,16.568,0,0,1-2.347.05C559.074,374.664,558.258,374.486,558.23,374.542Z" transform="translate(-551.249 -275.95)" fill="#eb996e"/>
          <path id="Trazado_132854" data-name="Trazado 132854" d="M662.661,330.45s-6.665,4.034-9.079,9.023-15.238,38.412-15.238,38.412L606.2,361.959,598.14,375.7l30.288,24.089a19.9,19.9,0,0,0,13.474,2.764h0c7.247-1.088,10.8-1.254,13.3-8.146l8.058-22.291-1.715-40.887" transform="translate(-569.012 -256.625)" fill="#fd9826"/>
          <g id="Grupo_63268" data-name="Grupo 63268" transform="translate(75.127 93.358)" opacity="0.3">
            <path id="Trazado_132855" data-name="Trazado 132855" d="M690.531,365.65c-7.43,10.732-8.635,15.8-9.417,28.828-.266,4.328,0,8.99,2.575,12.447.943,1.265,2.78,2.347,4,1.337s.338-2.8-.056-4.3c-2.3-8.757-3.119-15.5-1.487-23.213s1.215-7.569,4.39-14.783" transform="translate(-681.032 -365.65)"/>
          </g>
          <path id="Trazado_132856" data-name="Trazado 132856" d="M674.314,429.325a30.475,30.475,0,0,0-4.034-13.385,6.991,6.991,0,0,1,1.2,1.7,21.763,21.763,0,0,1,2.891,9.595A7.546,7.546,0,0,1,674.314,429.325Z" transform="translate(-601.12 -294.674)" fill="#263238"/>
          <path id="Trazado_132857" data-name="Trazado 132857" d="M692.936,422.126l-4.706,80.753H765.2s-2.281-40.454-5.144-57.729c-3-30.543-12.525-35.071-19.212-49.8l3.773-71.452-16.287-7.536-.66-3.757-25.294,3.063-.744,7.6s-2.32,6.709-3.635,10.177c-4.079,10.732-9.661,23.629-8.84,33.024.372,4.267,6.215,32.652,6.215,32.652l-2.253,22.935Z" transform="translate(-609.109 -248.68)" fill="#fd9826"/>
          <path id="Trazado_132858" data-name="Trazado 132858" d="M699.062,343.17a3.054,3.054,0,0,1-.2.627c-.167.438-.388,1.016-.66,1.748-.577,1.52-1.47,3.69-2.575,6.382s-2.408,5.877-3.585,9.528A69.341,69.341,0,0,0,689.3,373.58a39.456,39.456,0,0,0,.139,12.386c.644,3.762,1.654,7.081,2.314,9.905s1.1,5.144,1.354,6.753c.1.777.183,1.387.239,1.859a3.562,3.562,0,0,1,.055.644,2.783,2.783,0,0,1-.139-.638c-.083-.461-.189-1.071-.322-1.842-.305-1.593-.749-3.9-1.476-6.7s-1.731-6.126-2.42-9.905a39.415,39.415,0,0,1-.167-12.508,67.551,67.551,0,0,1,2.758-12.2c1.2-3.657,2.553-6.853,3.685-9.528l2.708-6.326c.3-.716.544-1.287.727-1.715A3.728,3.728,0,0,1,699.062,343.17Z" transform="translate(-609.208 -262.286)" fill="#263238"/>
          <g id="Grupo_63269" data-name="Grupo 63269" transform="translate(86.582 150.12)" opacity="0.3">
            <path id="Trazado_132859" data-name="Trazado 132859" d="M701.805,472.96c-.827,3.957,2.392,7.836,6.176,9.24s7.974.949,11.981.477l27.935-3.3c1.476-.172,3.2-.522,3.829-1.859a3.4,3.4,0,0,0,0-2.386,8.963,8.963,0,0,0-4.695-5.183,19.819,19.819,0,0,0-6.942-1.731c-9.617-.966-19.278.744-28.79,2.475" transform="translate(-701.674 -467.936)"/>
          </g>
          <path id="Trazado_132860" data-name="Trazado 132860" d="M660.349,443.294l7.109.644,3.1,1.57s-.744-.827-1.387-1.609a24.978,24.978,0,0,0-3.152-2.619l-5.294-.544s-2.974-.222-3.163-2.281l4.045-.388s-4.184-.289-4.129-2.375l3.063-.544a.959.959,0,0,1-.971-.943c0-.056.006-.117.011-.172l8.468-.932,8.063,5.721,7.791,6.892,1.759.072.61,11.259s-6.909-.827-8.8-1.781-10.272-8.5-10.272-8.5-4.39-.388-5.6-1.437A3.261,3.261,0,0,1,660.349,443.294Z" transform="translate(-595.422 -302.312)" fill="#ffbe9d"/>
          <path id="Trazado_132861" data-name="Trazado 132861" d="M687.8,457.01h-.438l-1.271-.139c-1.1-.133-2.741-.339-4.811-.683a28.678,28.678,0,0,1-3.418-.76,5.54,5.54,0,0,1-1.759-.977c-.56-.405-1.121-.827-1.693-1.315-2.3-1.859-4.828-4.045-7.564-6.487l.089.039a24.081,24.081,0,0,1-3.973-.683,7.646,7.646,0,0,1-1-.344,4.214,4.214,0,0,1-.494-.266l-.233-.166-.205-.189a3.892,3.892,0,0,1-.7-.866,2.649,2.649,0,0,1-.411-1.088v-.216h.222l7.1.638h0l3.113,1.57-.233.305-.993-1.154-.494-.577c-.172-.183-.355-.355-.544-.522-.766-.683-1.654-1.321-2.475-1.959l.1.039-3.18-.333-1.654-.166a4.868,4.868,0,0,1-.827-.1,5.43,5.43,0,0,1-.827-.2,3.8,3.8,0,0,1-1.4-.76,2.209,2.209,0,0,1-.744-1.443v-.2h.189l4.034-.388v.388a9.063,9.063,0,0,1-2.592-.588,3.683,3.683,0,0,1-1.149-.71,1.734,1.734,0,0,1-.527-1.287v-.155h.155l3.246-.472v.377a1.6,1.6,0,0,1-.9-.394,1.169,1.169,0,0,1-.344-.943v-.155h.15l8.4-1.021h.072l.05.039,8.13,5.727h0c2.991,2.669,5.588,4.955,7.769,6.92h-.072l7.192.405,1.909.117.488.039h-.494l-1.926-.05-7.192-.3h0l-7.9-6.887h0l-8.024-5.694h.117l-8.374,1.032.166-.172a.759.759,0,0,0,.233.644,1.278,1.278,0,0,0,.677.289l1.376.183-1.371.2-3.246.472.167-.183a1.3,1.3,0,0,0,.422.993,3.082,3.082,0,0,0,1.016.638,9.041,9.041,0,0,0,2.475.555v.388l-4.034.394.183-.216a1.775,1.775,0,0,0,.61,1.182,3.21,3.21,0,0,0,1.254.677,4.227,4.227,0,0,0,.782.189,8.158,8.158,0,0,0,.827.089l1.654.172,3.18.322h.089c.877.638,1.726,1.282,2.519,1.976.2.183.388.361.572.56l.505.588.982,1.138.638.744-.866-.438-3.1-1.576h.067l-7.1-.655.189-.189a2.539,2.539,0,0,0,.355.932,3.582,3.582,0,0,0,2.475,1.654,22.777,22.777,0,0,0,3.907.694h.055q4.087,3.712,7.514,6.52c.561.472,1.121.916,1.654,1.321a5.538,5.538,0,0,0,1.654.96,28.287,28.287,0,0,0,3.374.782c2.064.377,3.69.61,4.795.777l1.265.189.322.05Z" transform="translate(-595.222 -302.116)" fill="#eb996e"/>
          <path id="Trazado_132862" data-name="Trazado 132862" d="M675.179,445.113a7.548,7.548,0,0,1-1.454-.9c-.827-.6-2.037-1.443-3.3-2.4l-.355-.266.122.039c-1.493.055-2.841.089-3.807.1a6.632,6.632,0,0,1-1.554-.067,6.043,6.043,0,0,1,1.543-.205c.966-.072,2.3-.155,3.8-.222h.072l.05.039.355.266c1.287.949,2.436,1.831,3.263,2.475A7.134,7.134,0,0,1,675.179,445.113Z" transform="translate(-598.694 -305.912)" fill="#eb996e"/>
          <path id="Trazado_132863" data-name="Trazado 132863" d="M673.364,438.712a6.355,6.355,0,0,1-1.332-.827c-.827-.555-1.881-1.337-3.085-2.231l.139.039-.472.05c-1.6.166-3.063.289-4.129.361a6.82,6.82,0,0,1-1.715,0,8.369,8.369,0,0,1,1.654-.316c1.049-.139,2.475-.316,4.129-.477l.472-.05h.072l.067.05c1.2.9,2.264,1.715,3.013,2.32A7.315,7.315,0,0,1,673.364,438.712Z" transform="translate(-597.777 -303.273)" fill="#eb996e"/>
          <path id="Trazado_132864" data-name="Trazado 132864" d="M765.791,404.573a20.005,20.005,0,0,0,3.069-13.59l-6.149-36.137c-.7-6.043-1.559-14.3-5.777-18.707-2.88-3.03-6.382-5.682-9.822-5.649l-7.38,20.937,2.775,40.454-37.447,6.7v16.409s28.612-.949,44.538-1.387a19.97,19.97,0,0,0,16.165-9.04h.028Z" transform="translate(-616.599 -256.643)" fill="#fd9826"/>
          <path id="Trazado_132865" data-name="Trazado 132865" d="M765.658,429.11l-.172.272-.522.827a21.15,21.15,0,0,1-2.4,2.725,20.2,20.2,0,0,1-4.745,3.3,19.851,19.851,0,0,1-7.43,2.048c-11.443.438-27.375.927-45.4,1.5h-.222V422.944h.183l37.446-6.665-.139.189c-.982-9.345-1.8-17.042-2.37-22.425-.266-2.669-.477-4.761-.627-6.21-.067-.7-.117-1.238-.15-1.654a2.205,2.205,0,0,1,0-.56,2.821,2.821,0,0,0,.083.555c.083.361.117.927.205,1.654.166,1.443.411,3.535.716,6.193.6,5.383,1.471,13.069,2.475,22.408v.166h-.155l-37.441,6.742.172-.205v16.409l-.222-.216,45.4-1.36A19.941,19.941,0,0,0,757.683,436a20.213,20.213,0,0,0,4.739-3.213,22.066,22.066,0,0,0,2.475-2.669c.239-.322.422-.572.555-.76A1.756,1.756,0,0,1,765.658,429.11Z" transform="translate(-616.466 -281.18)" fill="#263238"/>
          <path id="Trazado_132866" data-name="Trazado 132866" d="M777.716,332.95c0,.083-1.265.56-3.13,1.759a21.068,21.068,0,0,0-3.047,2.386,22.293,22.293,0,0,0-5.372,7.7,21.468,21.468,0,0,0-1.171,3.69c-.472,2.164-.477,3.552-.56,3.54a4.012,4.012,0,0,1,0-.966,7.791,7.791,0,0,1,.083-1.138,11.259,11.259,0,0,1,.217-1.493,19.9,19.9,0,0,1,1.1-3.779,21.52,21.52,0,0,1,5.477-7.874,20.008,20.008,0,0,1,3.163-2.342,12.851,12.851,0,0,1,1.332-.727,7.87,7.87,0,0,1,1.038-.461A3.175,3.175,0,0,1,777.716,332.95Z" transform="translate(-643.013 -257.738)" fill="#263238"/>
          <path id="Trazado_132867" data-name="Trazado 132867" d="M739.578,319.157a2.726,2.726,0,0,1-.91.627,27.968,27.968,0,0,1-2.78,1.121c-2.353.893-5.455,2.475-9,4.012a27.431,27.431,0,0,1-9.55,2.475,13.65,13.65,0,0,1-3.008-.167c-.355-.05-.622-.117-.827-.155s-.272-.083-.272-.1a26.128,26.128,0,0,0,4.062.117,29.474,29.474,0,0,0,9.4-2.586c3.518-1.526,6.665-3.069,9.079-3.9,1.2-.427,2.181-.7,2.814-.993A9.95,9.95,0,0,1,739.578,319.157Z" transform="translate(-620.235 -251.597)" fill="#263238"/>
          <path id="Trazado_132868" data-name="Trazado 132868" d="M574.773,408.357,571.06,379.19l-25.41,1.243,1.776,29.278Z" transform="translate(-545.65 -278.318)" fill="#6595bf"/>
          <path id="Trazado_132869" data-name="Trazado 132869" d="M593.341,387.539a2.333,2.333,0,0,1-2.73.039c-.827-.488-1.493-1.254-2.3-1.8-2.419-1.654-5.854-1.187-8.191-2.947-.333-.239-.655-.644-.477-1.016s.61-.394.993-.388l9.683.072" transform="translate(-560.755 -279.314)" fill="#ffbe9d"/>
          <path id="Trazado_132870" data-name="Trazado 132870" d="M590.149,381.291a3.711,3.711,0,0,0-1.049-.117c-.672-.039-1.654-.072-2.858-.117l-4.229-.089h-1.232a1.894,1.894,0,0,0-1.41.322.827.827,0,0,0-.15.9,1.741,1.741,0,0,0,.494.621,6.255,6.255,0,0,0,1.232.727,37.053,37.053,0,0,0,5.033,1.354,7.2,7.2,0,0,1,2.009.877c.572.372,1.049.827,1.526,1.2a3.418,3.418,0,0,0,2.741.916c.71-.15.943-.544.916-.544a2.888,2.888,0,0,1-.949.333,3.306,3.306,0,0,1-2.475-1c-.455-.377-.916-.827-1.521-1.282a7.57,7.57,0,0,0-2.114-.982,46.319,46.319,0,0,1-4.956-1.36,6.279,6.279,0,0,1-1.115-.66c-.316-.25-.477-.588-.305-.716a2.021,2.021,0,0,1,1.021-.167h5.455c1.2,0,2.181-.039,2.858-.067A5.3,5.3,0,0,0,590.149,381.291Z" transform="translate(-560.561 -279.098)" fill="#eb996e"/>
          <path id="Trazado_132871" data-name="Trazado 132871" d="M572.162,396.071a3.441,3.441,0,0,1-.716.355,17.255,17.255,0,0,1-2.07.727,8.993,8.993,0,0,1-3.263.355,6.515,6.515,0,0,1-1.909-.477,8.118,8.118,0,0,1-1.731-1.154,1.619,1.619,0,0,0-.827-.333,1.188,1.188,0,0,0-.777.305,6.442,6.442,0,0,0-1.071,1.493,2.026,2.026,0,0,1-1.521,1.021,2.2,2.2,0,0,1-1.5-.538,3.711,3.711,0,0,1-1.071-1.948,2.607,2.607,0,0,1-.133-.827,3.474,3.474,0,0,1,.3.744,3.739,3.739,0,0,0,1.1,1.759,1.966,1.966,0,0,0,1.287.422,1.645,1.645,0,0,0,1.215-.893,6.452,6.452,0,0,1,1.115-1.559,1.545,1.545,0,0,1,1.065-.411,1.977,1.977,0,0,1,1.071.411,7.8,7.8,0,0,0,1.654,1.115,5.76,5.76,0,0,0,1.776.472,9.249,9.249,0,0,0,3.146-.255C571.069,396.421,572.14,396,572.162,396.071Z" transform="translate(-550.065 -285.377)" fill="#fff"/>
          <path id="Trazado_132872" data-name="Trazado 132872" d="M573.855,404.8c0,.117-3.829.377-8.579.588a82.243,82.243,0,0,1-8.6.166c0-.117,3.829-.377,8.579-.594A80.788,80.788,0,0,1,573.855,404.8Z" transform="translate(-550.559 -289.695)" fill="#fff"/>
          <path id="Trazado_132873" data-name="Trazado 132873" d="M573.685,412.268a10.092,10.092,0,0,1-1.931.5c-1.2.255-2.88.561-4.739.827s-3.54.494-4.772.61a8.545,8.545,0,0,1-1.992.1,9.33,9.33,0,0,1,1.948-.394l4.745-.744,4.745-.716A8.408,8.408,0,0,1,573.685,412.268Z" transform="translate(-552.148 -293.039)" fill="#fff"/>
          <path id="Trazado_132874" data-name="Trazado 132874" d="M732.2,396.14a1.778,1.778,0,0,1-.355.322l-1.054.827c-.932.716-2.286,1.765-4.068,2.908a24.306,24.306,0,0,1-6.737,3.113,14.188,14.188,0,0,1-9.034-.305c-3.047-1.232-5.4-3.3-7.663-4.894a16.991,16.991,0,0,0-6.537-3.169,8.478,8.478,0,0,0-4.844.239,13.351,13.351,0,0,0-1.609.827,4.951,4.951,0,0,1,1.543-1,8.361,8.361,0,0,1,4.955-.377,16.887,16.887,0,0,1,6.709,3.146c2.286,1.587,4.634,3.635,7.586,4.822a13.945,13.945,0,0,0,8.768.322,24.877,24.877,0,0,0,6.687-2.991c1.781-1.1,3.163-2.1,4.129-2.791l1.1-.777A1.808,1.808,0,0,1,732.2,396.14Z" transform="translate(-610.03 -285.096)" fill="#fafafa"/>
          <path id="Trazado_132875" data-name="Trazado 132875" d="M790.367,367.062c0,.083-1.271-.3-3.3-.6a27.755,27.755,0,0,0-3.657-.289,31.664,31.664,0,0,0-4.467.283,30.988,30.988,0,0,0-4.373,1,27.135,27.135,0,0,0-3.418,1.315c-1.9.877-2.991,1.593-3.03,1.521a3.862,3.862,0,0,1,.732-.544,19.088,19.088,0,0,1,2.164-1.254,24.956,24.956,0,0,1,3.435-1.41,26.031,26.031,0,0,1,8.968-1.3,24.282,24.282,0,0,1,3.69.388,18.048,18.048,0,0,1,2.475.588A3.636,3.636,0,0,1,790.367,367.062Z" transform="translate(-644.665 -272.344)" fill="#fafafa"/>
          <path id="Trazado_132876" data-name="Trazado 132876" d="M796.552,421.945a8.6,8.6,0,0,0-3.823.405,22.4,22.4,0,0,0-3.812,1.809,17.716,17.716,0,0,1-4.844,2.037,13.872,13.872,0,0,1-9.339-1.287,13,13,0,0,1-2.375-1.654,4.741,4.741,0,0,1-.727-.766,21.086,21.086,0,0,0,3.246,2.148,14.016,14.016,0,0,0,9.079,1.138,18.665,18.665,0,0,0,4.756-1.964,20.749,20.749,0,0,1,3.912-1.748,8.04,8.04,0,0,1,2.88-.344A2.529,2.529,0,0,1,796.552,421.945Z" transform="translate(-646.227 -297.239)" fill="#fafafa"/>
          <path id="Trazado_132877" data-name="Trazado 132877" d="M753.044,465.772c-.072,0,.472-1.088.949-2.913a17.139,17.139,0,0,0-2.347-14.034c-1.049-1.576-1.909-2.392-1.848-2.475a2.93,2.93,0,0,1,.627.544,14.1,14.1,0,0,1,1.471,1.731,16.338,16.338,0,0,1,2.392,14.317,15.04,15.04,0,0,1-.827,2.114A2.9,2.9,0,0,1,753.044,465.772Z" transform="translate(-636.509 -308.209)" fill="#fafafa"/>
          <path id="Trazado_132878" data-name="Trazado 132878" d="M696.176,359.536c-.117.05-.488-.655-1.3-1.1a12.293,12.293,0,0,0-1.654-.544c-.05-.122.877-.372,1.826.172S696.293,359.52,696.176,359.536Z" transform="translate(-611.328 -268.764)" fill="#fafafa"/>
          <path id="Trazado_132879" data-name="Trazado 132879" d="M746.3,328.973c0,.05-.622-.072-1.726,0a10.117,10.117,0,0,0-4.351,1.654,17.342,17.342,0,0,0-2.553,1.992c-.827.827-1.709,1.715-2.592,2.7-1.776,1.926-3.746,4.212-6.6,5.588a17.179,17.179,0,0,1-8.485,1.52,29.784,29.784,0,0,1-6.925-1.36c-1.914-.6-3.424-1.2-4.467-1.609l-1.188-.494a1.378,1.378,0,0,1-.405-.2,1.509,1.509,0,0,1,.438.117l1.215.422c1.054.361,2.586.91,4.5,1.471a29.971,29.971,0,0,0,6.853,1.265,17.055,17.055,0,0,0,8.257-1.509c2.714-1.321,4.672-3.552,6.465-5.472.9-.966,1.765-1.892,2.641-2.691a17.979,17.979,0,0,1,2.636-1.981,9.873,9.873,0,0,1,4.5-1.526,5.658,5.658,0,0,1,1.3.05A1.384,1.384,0,0,1,746.3,328.973Z" transform="translate(-617.467 -255.908)" fill="#fafafa"/>
          <path id="Trazado_132880" data-name="Trazado 132880" d="M738.291,315.44a4.99,4.99,0,0,1-.9.438c-.577.266-1.443.61-2.519,1a61.793,61.793,0,0,1-8.612,2.475,62.936,62.936,0,0,1-8.873,1.215c-1.149.072-2.07.1-2.714.1a3.725,3.725,0,0,1-.993-.05,5.4,5.4,0,0,1,.993-.122c.638-.039,1.559-.117,2.691-.233a81.246,81.246,0,0,0,8.807-1.332,79.346,79.346,0,0,0,8.6-2.331c1.082-.361,1.959-.66,2.558-.877A4.082,4.082,0,0,1,738.291,315.44Z" transform="translate(-620.436 -249.945)" fill="#fafafa"/>
          <path id="Trazado_132881" data-name="Trazado 132881" d="M637.281,425.4a.926.926,0,0,1-.1-.233,4.106,4.106,0,0,1-.15-.677,7.436,7.436,0,0,1,.089-2.575,13.9,13.9,0,0,1,1.315-3.574c.655-1.282,1.509-2.592,2.331-4.007a15.483,15.483,0,0,0,1.792-4.179,8.632,8.632,0,0,0,.072-3.674,12.037,12.037,0,0,0-1.221-3.2,2.594,2.594,0,0,1,.561.76,8.038,8.038,0,0,1,.96,2.386,8.713,8.713,0,0,1,0,3.823,15.2,15.2,0,0,1-1.809,4.3c-.827,1.426-1.693,2.725-2.353,3.973a14.7,14.7,0,0,0-1.359,3.457A9.448,9.448,0,0,0,637.281,425.4Z" transform="translate(-586.289 -289.04)" fill="#fafafa"/>
          <path id="Trazado_132882" data-name="Trazado 132882" d="M757.577,497.745a3.619,3.619,0,0,1-.56-.3c-.355-.216-.91-.477-1.654-.827A18.38,18.38,0,0,0,748.9,495.2a31.345,31.345,0,0,0-9.756,1.232c-3.59.977-7.431,2.542-11.481,3.957a38.2,38.2,0,0,1-11.931,2.475,28.335,28.335,0,0,1-9.806-1.6,27.574,27.574,0,0,1-6.01-2.98c-.66-.444-1.154-.827-1.476-1.071a3.785,3.785,0,0,1-.488-.405c0-.039.71.505,2.053,1.337a29.371,29.371,0,0,0,6.021,2.83,28.861,28.861,0,0,0,9.711,1.493,38.467,38.467,0,0,0,11.787-2.475c4.068-1.4,7.891-2.963,11.559-3.929a30.954,30.954,0,0,1,9.905-1.154,17.982,17.982,0,0,1,6.515,1.57,12.1,12.1,0,0,1,1.593.9A2.8,2.8,0,0,1,757.577,497.745Z" transform="translate(-613.435 -329.804)" fill="#fafafa"/>
          <path id="Trazado_132883" data-name="Trazado 132883" d="M761.7,551.06a11.665,11.665,0,0,1-2.264,1.654A18.585,18.585,0,0,1,752.21,555a26.092,26.092,0,0,1-5.266.066A36,36,0,0,1,741,553.984c-4.129-1.065-8.452-2.858-13.063-4.467a41.187,41.187,0,0,0-13.385-2.708,21.89,21.89,0,0,0-5.9.827c-1.809.488-3.474,1.071-5.05,1.421a10.249,10.249,0,0,1-7.469-.644,5.656,5.656,0,0,1-1.6-1.321,3.194,3.194,0,0,1-.405-.6c.166.172.322.355.472.544a5.827,5.827,0,0,0,1.654,1.232,10.191,10.191,0,0,0,7.325.494c1.554-.361,3.2-.96,5.028-1.471a22.053,22.053,0,0,1,5.988-.827,41.053,41.053,0,0,1,13.529,2.7c4.617,1.609,8.934,3.407,13.019,4.484a36.46,36.46,0,0,0,5.877,1.115,27.134,27.134,0,0,0,5.2,0,18.949,18.949,0,0,0,7.181-2.136,10.412,10.412,0,0,0,1.021-.594,8.558,8.558,0,0,0,.727-.488A5.729,5.729,0,0,1,761.7,551.06Z" transform="translate(-611.73 -352.764)" fill="#fafafa"/>
          <path id="Trazado_132884" data-name="Trazado 132884" d="M763.209,595.414a1.676,1.676,0,0,1-.172-.089l-.505-.3a18.887,18.887,0,0,0-1.959-1.038,24.257,24.257,0,0,0-7.852-2.07,40.386,40.386,0,0,0-12.031.827c-4.473.893-9.278,2.4-14.423,3.64a61.008,61.008,0,0,1-7.6,1.387,51.464,51.464,0,0,1-19.234-1.554,49.442,49.442,0,0,1-7.7-2.825c-.882-.394-1.543-.76-2-1-.2-.105-.372-.2-.5-.283s-.172-.1-.167-.105a1.274,1.274,0,0,1,.183.072l.527.239c.461.216,1.132.544,2.02.916a53.137,53.137,0,0,0,19.683,4.406,52.9,52.9,0,0,0,7.142-.3,63.382,63.382,0,0,0,7.553-1.376c5.116-1.237,9.905-2.741,14.445-3.618a39.625,39.625,0,0,1,12.136-.71,23.155,23.155,0,0,1,7.891,2.22A14.341,14.341,0,0,1,763.209,595.414Z" transform="translate(-609.478 -372.791)" fill="#fafafa"/>
          <path id="Trazado_132885" data-name="Trazado 132885" d="M722.949,442.6c-.039.072-1.437-.7-3.857-1.543a31.507,31.507,0,0,0-4.334-1.138,30.35,30.35,0,0,0-10.921,0,30.961,30.961,0,0,0-4.345,1.1c-2.419.827-3.823,1.587-3.862,1.509a6.06,6.06,0,0,1,.966-.572c.388-.211.782-.4,1.188-.572.472-.205,1-.455,1.609-.66a28.375,28.375,0,0,1,4.373-1.215,29.077,29.077,0,0,1,11.06.039,26.929,26.929,0,0,1,4.356,1.249c.622.205,1.138.461,1.654.671a11.63,11.63,0,0,1,1.182.577A5.549,5.549,0,0,1,722.949,442.6Z" transform="translate(-612.402 -304.937)" fill="#fafafa"/>
          <path id="Trazado_132886" data-name="Trazado 132886" d="M764.312,640.941a.4.4,0,0,1-.183-.072l-.494-.272c-.216-.122-.488-.272-.827-.427s-.7-.344-1.132-.527a26.659,26.659,0,0,0-7.669-2.031,46.524,46.524,0,0,0-11.781.239c-4.423.544-9.229,1.559-14.367,2.164a85,85,0,0,1-26.32-1.066A79.29,79.29,0,0,1,693.78,637c-.91-.266-1.593-.522-2.07-.677l-.527-.189a.667.667,0,0,1-.183-.072.6.6,0,0,1,.2,0l.544.15c.477.133,1.171.361,2.086.6,1.809.51,4.456,1.182,7.769,1.809a87.6,87.6,0,0,0,26.209.932c5.111-.594,9.905-1.6,14.367-2.131a45.7,45.7,0,0,1,11.87-.15,26.211,26.211,0,0,1,7.7,2.181,11.865,11.865,0,0,1,1.121.577,9.262,9.262,0,0,1,.827.461l.472.305Z" transform="translate(-610.341 -392.642)" fill="#fafafa"/>
        </g>
      </g>
      <g id="Rectángulo_31615" data-name="Rectángulo 31615" transform="translate(923 2773.333)" fill="none" stroke="#707070" stroke-width="1">
        <rect width="363" height="1" stroke="none"/>
        <rect x="0.5" y="0.5" width="362" fill="none"/>
      </g>
    </g>
  </g>
</svg>
