<svg id="Grupo_1111630" data-name="Grupo 1111630" xmlns="http://www.w3.org/2000/svg" xmlns:xlink="http://www.w3.org/1999/xlink" width="138.1" height="138.129" viewBox="0 0 138.1 138.129">
  <defs>
    <clipPath id="clip-path">
      <rect id="Rectángulo_404760" data-name="Rectángulo 404760" width="138.1" height="138.129" fill="none"/>
    </clipPath>
    <clipPath id="clip-path-3">
      <rect id="Rectángulo_404751" data-name="Rectángulo 404751" width="44.645" height="10.171" fill="none"/>
    </clipPath>
  </defs>
  <g id="Grupo_1111629" data-name="Grupo 1111629" clip-path="url(#clip-path)">
    <g id="Grupo_1111628" data-name="Grupo 1111628">
      <g id="Grupo_1111627" data-name="Grupo 1111627" clip-path="url(#clip-path)">
        <path id="Trazado_901181" data-name="Trazado 901181" d="M138.1,69.064A69.05,69.05,0,1,1,69.05,0,69.057,69.057,0,0,1,138.1,69.064" transform="translate(0)" fill="#f2e6dc"/>
        <path id="Trazado_901182" data-name="Trazado 901182" d="M1411.361,664.006a.075.075,0,0,1-.075-.075l-.008-1.3a12.625,12.625,0,0,1-1.82-.477l-.641,1.127a.075.075,0,0,1-.1.028l-3.993-2.275a.076.076,0,0,1-.028-.1l.64-1.127a12.67,12.67,0,0,1-1.339-1.323l-1.116.655a.076.076,0,0,1-.1-.027l-2.322-3.969a.075.075,0,0,1,.027-.1l1.119-.657a12.856,12.856,0,0,1-.5-1.815l-1.3.008h0a.075.075,0,0,1-.053-.022.076.076,0,0,1-.023-.053l-.029-4.6a.076.076,0,0,1,.075-.076l1.294-.008a12.69,12.69,0,0,1,.476-1.822l-1.125-.641a.075.075,0,0,1-.028-.1l2.272-4a.076.076,0,0,1,.046-.035.074.074,0,0,1,.057.007l1.125.641a12.678,12.678,0,0,1,1.321-1.341l-.654-1.118a.075.075,0,0,1,.027-.1l3.964-2.325a.077.077,0,0,1,.057-.008.075.075,0,0,1,.046.035l.656,1.12a12.827,12.827,0,0,1,1.813-.5l-.008-1.3a.075.075,0,0,1,.075-.076l4.594-.029h0a.076.076,0,0,1,.076.075l.008,1.3a12.647,12.647,0,0,1,1.82.477l.64-1.127a.075.075,0,0,1,.046-.035.074.074,0,0,1,.057.007l3.993,2.275a.075.075,0,0,1,.028.1l-.64,1.127a12.677,12.677,0,0,1,1.339,1.323l1.116-.655a.076.076,0,0,1,.057-.008.076.076,0,0,1,.046.035l2.323,3.969a.076.076,0,0,1-.027.1l-1.119.657a12.863,12.863,0,0,1,.5,1.815l1.3-.008h0a.076.076,0,0,1,.076.075l.029,4.6a.075.075,0,0,1-.075.076l-1.294.008a12.7,12.7,0,0,1-.476,1.822l1.125.641a.076.076,0,0,1,.028.1l-2.272,4a.076.076,0,0,1-.1.028l-1.125-.641a12.668,12.668,0,0,1-1.321,1.341l.654,1.118a.075.075,0,0,1-.027.1l-3.964,2.326a.077.077,0,0,1-.057.008.076.076,0,0,1-.046-.035l-.656-1.121a12.8,12.8,0,0,1-1.812.5l.008,1.3a.075.075,0,0,1-.075.076l-4.594.029Zm-1.938-2.015a.076.076,0,0,1,.025,0,12.485,12.485,0,0,0,1.918.5.076.076,0,0,1,.062.074l.008,1.283,4.443-.028-.008-1.286a.076.076,0,0,1,.061-.075,12.666,12.666,0,0,0,1.91-.525.076.076,0,0,1,.091.033l.649,1.109,3.834-2.249-.648-1.107a.076.076,0,0,1,.016-.1,12.5,12.5,0,0,0,1.392-1.413.075.075,0,0,1,.1-.017l1.114.635,2.2-3.867-1.115-.635a.076.076,0,0,1-.034-.09,12.522,12.522,0,0,0,.5-1.92.076.076,0,0,1,.074-.062l1.281-.008-.028-4.449-1.284.008h0a.076.076,0,0,1-.074-.061,12.7,12.7,0,0,0-.525-1.913.075.075,0,0,1,.033-.091l1.108-.65-2.246-3.839-1.105.648a.075.075,0,0,1-.1-.016,12.517,12.517,0,0,0-1.411-1.394.076.076,0,0,1-.017-.1l.634-1.116-3.862-2.2-.634,1.116a.076.076,0,0,1-.091.034,12.491,12.491,0,0,0-1.918-.5.076.076,0,0,1-.062-.074l-.008-1.283-4.443.028.008,1.286a.075.075,0,0,1-.061.075,12.653,12.653,0,0,0-1.91.525.076.076,0,0,1-.091-.033l-.649-1.109-3.834,2.249.648,1.107a.075.075,0,0,1-.016.1,12.527,12.527,0,0,0-1.392,1.413.075.075,0,0,1-.095.017l-1.115-.635-2.2,3.867,1.114.635a.076.076,0,0,1,.034.09,12.541,12.541,0,0,0-.5,1.92.076.076,0,0,1-.074.062l-1.281.008.028,4.449,1.284-.008h0a.075.075,0,0,1,.074.061,12.7,12.7,0,0,0,.525,1.913.075.075,0,0,1-.033.091l-1.108.65,2.246,3.839,1.105-.648a.075.075,0,0,1,.1.016,12.513,12.513,0,0,0,1.411,1.394.076.076,0,0,1,.017.1l-.634,1.116,3.862,2.2.634-1.116a.075.075,0,0,1,.066-.038m4.135-4.516a7.358,7.358,0,1,1,6.28-3.513,7.289,7.289,0,0,1-6.28,3.513m.025-14.569a7.208,7.208,0,1,0,6.126,10.978l.064.039-.064-.039a7.206,7.206,0,0,0-6.126-10.978" transform="translate(-1294.049 -588.203)" fill="#fff"/>
        <path id="Trazado_901183" data-name="Trazado 901183" d="M1459.493,706.2a10.139,10.139,0,1,1,3.632-19.605.075.075,0,0,1-.054.141,9.986,9.986,0,1,0,3.57,16.292.075.075,0,1,1,.108.105,10.1,10.1,0,0,1-7.256,3.067" transform="translate(-1339.969 -634.149)" fill="#fff"/>
        <path id="Trazado_901184" data-name="Trazado 901184" d="M84.413,259.59a.075.075,0,0,1-.075-.067,77.852,77.852,0,0,0-10.57-30.8,72.229,72.229,0,0,0-8.519-11.774.075.075,0,0,1,.109-.1,72.385,72.385,0,0,1,8.539,11.8,83.022,83.022,0,0,1,6.446,13.473,72.589,72.589,0,0,1,4.144,17.391.075.075,0,0,1-.067.083h-.008" transform="translate(-60.305 -200.452)" fill="#e6d0be"/>
        <path id="Trazado_901185" data-name="Trazado 901185" d="M13.863,155.385s.522-4.326-7.009-8.337c0,0,.877,8.36,7.009,8.337" transform="translate(-6.337 -135.949)" fill="#e6d0be"/>
        <path id="Trazado_901186" data-name="Trazado 901186" d="M124.545,176.373c-.087.062-1.7-3.943,1.962-9.054,0,0,1.27,6.757-1.962,9.054" transform="translate(-114.749 -154.69)" fill="#e6d0be"/>
        <path id="Trazado_901187" data-name="Trazado 901187" d="M165.576,236.306s-.352-3.712,4.911-8.093c0,0-1.686,7.8-4.911,8.093" transform="translate(-153.074 -210.987)" fill="#e6d0be"/>
        <path id="Trazado_901188" data-name="Trazado 901188" d="M198.146,314.01c-.106,0,.756-4.227,6.628-6.465,0,0-2.666,6.336-6.628,6.465" transform="translate(-183.182 -284.331)" fill="#e6d0be"/>
        <path id="Trazado_901189" data-name="Trazado 901189" d="M224.556,403.929s1.739-2.848,7.86-3.186c0,0-5.39,4.692-7.86,3.186" transform="translate(-207.606 -370.495)" fill="#e6d0be"/>
        <path id="Trazado_901190" data-name="Trazado 901190" d="M254.2,499.75s2.343-1.725,7.4.026c0,0-5.9,2.006-7.4-.026" transform="translate(-235.011 -461.328)" fill="#e6d0be"/>
        <path id="Trazado_901191" data-name="Trazado 901191" d="M22.445,279.174c.075-.057-2.892-2.473-8.175-.7,0,0,5.386,2.844,8.175.7" transform="translate(-13.193 -256.854)" fill="#e6d0be"/>
        <path id="Trazado_901192" data-name="Trazado 901192" d="M40.645,341.606s-3.439-1.431-9.171,2.313c0,0,7.938.686,9.171-2.313" transform="translate(-29.098 -315.574)" fill="#e6d0be"/>
        <path id="Trazado_901193" data-name="Trazado 901193" d="M81.592,396.2c.046-.1-4.165-1.025-8.592,3.439,0,0,6.865.133,8.592-3.439" transform="translate(-67.49 -366.157)" fill="#e6d0be"/>
        <path id="Trazado_901194" data-name="Trazado 901194" d="M131.158,449.473s-2.918-.86-6.8,3.066c0,0,6.316-.3,6.8-3.066" transform="translate(-114.971 -415.473)" fill="#e6d0be"/>
        <path id="Trazado_901195" data-name="Trazado 901195" d="M216.608,516.005s-2.337,1.733-2.155,7.084c0,0,3.653-5.052,2.155-7.084" transform="translate(-198.257 -477.057)" fill="#e6d0be"/>
        <rect id="Rectángulo_404736" data-name="Rectángulo 404736" width="38.297" height="38.346" transform="translate(50.052 25.136)" fill="#efbc73"/>
        <rect id="Rectángulo_404737" data-name="Rectángulo 404737" width="103.787" height="78.768" transform="translate(12.953 37.162)" fill="#e6d0be"/>
        <rect id="Rectángulo_404738" data-name="Rectángulo 404738" width="97.274" height="65.931" transform="translate(16.209 40.423)" fill="#f2e6dc"/>
        <path id="Trazado_901196" data-name="Trazado 901196" d="M833.236,1443.373a1.954,1.954,0,1,0,1.954-1.956,1.955,1.955,0,0,0-1.954,1.956" transform="translate(-770.343 -1332.619)" fill="#f7f1eb"/>
        <path id="Trazado_901197" data-name="Trazado 901197" d="M171.61,1564.191a8.158,8.158,0,0,0,8.153,8.163H288.55a8.158,8.158,0,0,0,8.153-8.163Z" transform="translate(-158.657 -1446.126)" fill="#e6d0be"/>
        <path id="Trazado_901198" data-name="Trazado 901198" d="M453.453,1581.021a6.55,6.55,0,0,1-6.539-6.547.075.075,0,0,1,.151,0,6.4,6.4,0,0,0,6.388,6.4.076.076,0,0,1,0,.151" transform="translate(-413.181 -1455.563)" fill="#f2e6dc"/>
        <path id="Trazado_901199" data-name="Trazado 901199" d="M1052.288,1592.374h-12.2a3.546,3.546,0,0,1-3.54-3.544.075.075,0,0,1,.075-.076h19.125a.076.076,0,0,1,.076.076,3.546,3.546,0,0,1-3.54,3.544m-15.584-3.469a3.4,3.4,0,0,0,3.388,3.318h12.2a3.4,3.4,0,0,0,3.388-3.318Z" transform="translate(-958.313 -1468.834)" fill="#f2e6dc"/>
        <rect id="Rectángulo_404739" data-name="Rectángulo 404739" width="62.596" height="84.299" transform="translate(43.299 17.076)" fill="#fff"/>
        <path id="Trazado_901200" data-name="Trazado 901200" d="M601.036,282.01h-62.6a.076.076,0,0,1-.076-.075v-84.3a.075.075,0,0,1,.076-.075h62.6a.075.075,0,0,1,.076.075v84.3a.075.075,0,0,1-.076.075m-62.52-.151h62.445V197.712H538.516Z" transform="translate(-497.729 -182.649)" fill="#d3bba3"/>
        <path id="Trazado_901201" data-name="Trazado 901201" d="M704.376,337.575H654.424a.075.075,0,0,1-.076-.075V324.388a.075.075,0,0,1,.076-.076h49.951a.075.075,0,0,1,.076.076V337.5a.075.075,0,0,1-.076.075m-49.876-.151h49.8V324.463H654.5Z" transform="translate(-604.959 -299.833)" fill="#9e9569"/>
        <path id="Trazado_901202" data-name="Trazado 901202" d="M724.752,368.1h-13.3a.075.075,0,1,1,0-.151h13.3a.075.075,0,1,1,0,.151" transform="translate(-657.684 -340.174)" fill="#9e9569"/>
        <path id="Trazado_901203" data-name="Trazado 901203" d="M697.275,406.938h-15.54a.075.075,0,1,1,0-.151h15.54a.075.075,0,1,1,0,.151" transform="translate(-630.207 -376.083)" fill="#9e9569"/>
        <path id="Trazado_901204" data-name="Trazado 901204" d="M697.275,445.778h-15.54a.075.075,0,1,1,0-.151h15.54a.075.075,0,1,1,0,.151" transform="translate(-630.207 -411.991)" fill="#9e9569"/>
        <rect id="Rectángulo_404740" data-name="Rectángulo 404740" width="34.966" height="14.059" transform="translate(49.466 39.734)" fill="#f2e6dc"/>
        <rect id="Rectángulo_404741" data-name="Rectángulo 404741" width="12.962" height="14.059" transform="translate(86.456 39.734)" fill="#f2e6dc"/>
        <rect id="Rectángulo_404742" data-name="Rectángulo 404742" width="35.324" height="3.226" transform="translate(49.529 68.289)" fill="#f2e6dc"/>
        <rect id="Rectángulo_404743" data-name="Rectángulo 404743" width="35.324" height="3.226" transform="translate(49.529 73.035)" fill="#f2e6dc"/>
        <rect id="Rectángulo_404744" data-name="Rectángulo 404744" width="35.324" height="3.226" transform="translate(49.529 77.781)" fill="#f2e6dc"/>
        <rect id="Rectángulo_404745" data-name="Rectángulo 404745" width="35.324" height="3.226" transform="translate(49.529 82.527)" fill="#f2e6dc"/>
        <rect id="Rectángulo_404746" data-name="Rectángulo 404746" width="35.324" height="3.226" transform="translate(49.529 87.273)" fill="#f2e6dc"/>
        <rect id="Rectángulo_404747" data-name="Rectángulo 404747" width="13.094" height="22.21" transform="translate(86.323 68.289)" fill="#f2e6dc"/>
        <rect id="Rectángulo_404748" data-name="Rectángulo 404748" width="49.951" height="3.333" transform="translate(49.529 56.509)" fill="#f7f1eb"/>
        <rect id="Rectángulo_404749" data-name="Rectángulo 404749" width="49.951" height="3.333" transform="translate(49.529 62.101)" fill="#f7f1eb"/>
        <rect id="Rectángulo_404750" data-name="Rectángulo 404750" width="49.677" height="3.333" transform="translate(49.627 92.835)" fill="#f2e6dc"/>
        <path id="Trazado_901205" data-name="Trazado 901205" d="M1038.975,372.028h-2.136v5.894h-1.181v-5.894h-2.117v-.96h5.433Z" transform="translate(-955.53 -343.06)" fill="#d87355"/>
        <path id="Trazado_901206" data-name="Trazado 901206" d="M1106.289,376.327h-2.653l-.555,1.6h-1.237l2.587-6.854h1.068l2.592,6.854h-1.242Zm-2.319-.96h1.985l-.993-2.843Z" transform="translate(-1018.677 -343.061)" fill="#d87355"/>
        <path id="Trazado_901207" data-name="Trazado 901207" d="M1191.078,373.544l1.439-2.476h1.374l-2.07,3.4,2.117,3.455h-1.388l-1.472-2.514-1.477,2.514h-1.383l2.122-3.455-2.074-3.4h1.374Z" transform="translate(-1098.531 -343.06)" fill="#d87355"/>
        <path id="Trazado_901208" data-name="Trazado 901208" d="M968.348,1005.265H956.883a.075.075,0,0,1-.076-.075v-8.51a.076.076,0,1,1,.151,0v8.434h11.39a.075.075,0,1,1,0,.151" transform="translate(-884.587 -921.38)" fill="#bc8271"/>
        <path id="Trazado_901209" data-name="Trazado 901209" d="M879.422,839.491h-2.137a.075.075,0,0,1-.075-.076v-.57a5.935,5.935,0,0,1-.786-.211l-.284.493a.076.076,0,0,1-.046.035.078.078,0,0,1-.057-.008l-1.851-1.07a.075.075,0,0,1-.028-.1l.285-.495a6.029,6.029,0,0,1-.575-.576l-.494.285a.076.076,0,0,1-.057.008.075.075,0,0,1-.046-.035l-1.068-1.853a.075.075,0,0,1,.028-.1l.492-.285a5.93,5.93,0,0,1-.211-.788h-.569a.075.075,0,0,1-.075-.075v-2.14a.075.075,0,0,1,.075-.076h.569a5.926,5.926,0,0,1,.211-.788l-.492-.285a.075.075,0,0,1-.028-.1l1.068-1.853a.076.076,0,0,1,.046-.035.077.077,0,0,1,.057.008l.494.285a6.008,6.008,0,0,1,.575-.576l-.285-.494a.075.075,0,0,1,.028-.1l1.851-1.07a.077.077,0,0,1,.057-.007.075.075,0,0,1,.046.035l.284.493a5.919,5.919,0,0,1,.786-.211v-.57a.075.075,0,0,1,.075-.076h2.137a.075.075,0,0,1,.075.076v.57a5.923,5.923,0,0,1,.787.211l.284-.493a.075.075,0,0,1,.046-.035.076.076,0,0,1,.057.007l1.851,1.07a.075.075,0,0,1,.028.1l-.285.494a6.03,6.03,0,0,1,.575.576l.493-.285a.077.077,0,0,1,.057-.008.076.076,0,0,1,.046.035l1.069,1.853a.076.076,0,0,1-.028.1l-.492.285a5.944,5.944,0,0,1,.211.788h.569a.075.075,0,0,1,.076.076v2.14a.075.075,0,0,1-.076.075H884.2a5.949,5.949,0,0,1-.211.788l.492.285a.075.075,0,0,1,.028.1l-1.069,1.853a.075.075,0,0,1-.046.035.077.077,0,0,1-.057-.008l-.494-.285a6.022,6.022,0,0,1-.575.576l.285.495a.075.075,0,0,1-.028.1l-1.851,1.07a.077.077,0,0,1-.057.008.076.076,0,0,1-.046-.035l-.284-.493a5.932,5.932,0,0,1-.787.211v.57a.075.075,0,0,1-.075.076m-2.062-.151h1.986v-.557a.075.075,0,0,1,.062-.074,5.765,5.765,0,0,0,.885-.237.075.075,0,0,1,.091.033l.278.482,1.72-.994-.279-.483a.076.076,0,0,1,.016-.1,5.861,5.861,0,0,0,.647-.648.076.076,0,0,1,.1-.016l.482.279.993-1.722-.481-.278a.076.076,0,0,1-.033-.091,5.812,5.812,0,0,0,.237-.886.075.075,0,0,1,.074-.062h.556V832h-.556a.075.075,0,0,1-.074-.062,5.82,5.82,0,0,0-.237-.886.076.076,0,0,1,.033-.091l.481-.278-.993-1.722-.482.279a.076.076,0,0,1-.1-.016,5.862,5.862,0,0,0-.647-.648.076.076,0,0,1-.016-.1l.279-.483-1.72-.994-.278.482a.076.076,0,0,1-.091.033,5.773,5.773,0,0,0-.885-.237.075.075,0,0,1-.062-.074v-.557H877.36v.557a.075.075,0,0,1-.062.074,5.775,5.775,0,0,0-.885.237.075.075,0,0,1-.091-.033l-.278-.482-1.72.994.279.483a.075.075,0,0,1-.016.1,5.857,5.857,0,0,0-.647.648.076.076,0,0,1-.1.016l-.482-.279-.993,1.722.481.278a.075.075,0,0,1,.034.091,5.792,5.792,0,0,0-.237.886.075.075,0,0,1-.074.062h-.556v1.989h.556a.076.076,0,0,1,.074.062,5.783,5.783,0,0,0,.237.886.076.076,0,0,1-.034.091l-.481.278.993,1.722.482-.279a.076.076,0,0,1,.1.016,5.861,5.861,0,0,0,.647.648.075.075,0,0,1,.016.1l-.279.483,1.72.994.278-.482a.076.076,0,0,1,.091-.033,5.77,5.77,0,0,0,.885.237.075.075,0,0,1,.062.074Zm1-3.02a3.3,3.3,0,0,1-2.351-.969,3.385,3.385,0,0,1-.735-3.64,3.1,3.1,0,0,1,1.8-1.8,3.35,3.35,0,0,1,4.365,4.371,3.1,3.1,0,0,1-1.8,1.8,3.612,3.612,0,0,1-1.279.238m-.008-6.5a3.459,3.459,0,0,0-1.225.228,2.946,2.946,0,0,0-1.712,1.714,3.2,3.2,0,0,0,4.17,4.176,2.946,2.946,0,0,0,1.712-1.714,3.236,3.236,0,0,0-.7-3.479,3.153,3.153,0,0,0-2.245-.925m3.016,4.431h0Z" transform="translate(-806.057 -764.117)" fill="#bc8271"/>
        <path id="Trazado_901210" data-name="Trazado 901210" d="M971.782,1139.107H955.293a.076.076,0,0,1,0-.151h16.489a.076.076,0,0,1,0,.151" transform="translate(-883.118 -1052.987)" fill="#bc8271"/>
        <path id="Trazado_901211" data-name="Trazado 901211" d="M1044.377,1171.969h-13.261a.075.075,0,0,1,0-.151h13.261a.075.075,0,1,1,0,.151" transform="translate(-953.217 -1083.369)" fill="#bc8271"/>
        <path id="Trazado_901212" data-name="Trazado 901212" d="M959.3,1171.969h-4a.075.075,0,0,1,0-.151h4a.075.075,0,0,1,0,.151" transform="translate(-883.117 -1083.369)" fill="#bc8271"/>
        <path id="Trazado_901213" data-name="Trazado 901213" d="M1125.029,1203.9a.076.076,0,0,1,0-.151l9.109-.076h0a.076.076,0,0,1,0,.151l-9.109.076Z" transform="translate(-1040.042 -1112.821)" fill="#bc8271"/>
        <path id="Trazado_901214" data-name="Trazado 901214" d="M964.886,1204.832h-9.593a.075.075,0,1,1,0-.151h9.593a.075.075,0,1,1,0,.151" transform="translate(-883.118 -1113.751)" fill="#bc8271"/>
        <g id="Grupo_1111626" data-name="Grupo 1111626" transform="translate(11.547 6.172)" opacity="0.5" style="mix-blend-mode: overlay;isolation: isolate">
          <g id="Grupo_1111625" data-name="Grupo 1111625">
            <g id="Grupo_1111624" data-name="Grupo 1111624" clip-path="url(#clip-path-3)">
              <path id="Trazado_901215" data-name="Trazado 901215" d="M192.543,91.938H158.056a5.086,5.086,0,0,1,0-10.172h34.487a5.086,5.086,0,0,1,0,10.172" transform="translate(-152.977 -81.766)" fill="#fff"/>
            </g>
          </g>
        </g>
        <path id="Trazado_901216" data-name="Trazado 901216" d="M223.8,117H191.28a5.588,5.588,0,0,1-5.582-5.582v-.01a5.588,5.588,0,0,1,5.582-5.582H223.8a5.588,5.588,0,0,1,5.582,5.582v.01A5.588,5.588,0,0,1,223.8,117M191.28,105.979a5.437,5.437,0,0,0-5.431,5.431v.01a5.437,5.437,0,0,0,5.431,5.431H223.8a5.437,5.437,0,0,0,5.431-5.431v-.01a5.437,5.437,0,0,0-5.431-5.431Z" transform="translate(-171.681 -97.84)" fill="#fff"/>
        <path id="Trazado_901217" data-name="Trazado 901217" d="M237.11,153.641a2,2,0,1,1-2-2,2,2,0,0,1,2,2" transform="translate(-215.512 -140.191)" fill="#fff"/>
        <path id="Trazado_901218" data-name="Trazado 901218" d="M321.9,153.641a2,2,0,1,1-2-2,2,2,0,0,1,2,2" transform="translate(-293.902 -140.191)" fill="#fff"/>
        <path id="Trazado_901219" data-name="Trazado 901219" d="M406.69,153.641a2,2,0,1,1-2-2,2,2,0,0,1,2,2" transform="translate(-372.292 -140.191)" fill="#fff"/>
        <path id="Trazado_901220" data-name="Trazado 901220" d="M491.48,153.641a2,2,0,1,1-2-2,2,2,0,0,1,2,2" transform="translate(-450.682 -140.191)" fill="#fff"/>
        <path id="Trazado_901221" data-name="Trazado 901221" d="M530.018,605.042a1.636,1.636,0,1,1-1.636-1.638,1.637,1.637,0,0,1,1.636,1.638" transform="translate(-486.987 -557.859)" fill="#d87355"/>
        <path id="Trazado_901222" data-name="Trazado 901222" d="M550.226,560.18a1.277,1.277,0,0,1-.743-.267,2.332,2.332,0,0,1-.791-1.107c-.346-.969-.078-1.955.6-2.2a1.141,1.141,0,0,1,1.063.211,2.331,2.331,0,0,1,.791,1.107c.346.969.078,1.955-.6,2.2a.947.947,0,0,1-.32.055m-.616-3.475a.793.793,0,0,0-.269.046c-.6.214-.825,1.113-.507,2a2.181,2.181,0,0,0,.737,1.036,1,1,0,0,0,.924.192c.6-.214.825-1.113.507-2a2.181,2.181,0,0,0-.737-1.036,1.129,1.129,0,0,0-.655-.238" transform="translate(-507.137 -514.546)" fill="#363e44"/>
        <path id="Trazado_901223" data-name="Trazado 901223" d="M431.492,514.918c-.937-2.631-1.715-4.082-3.256-4.806a5.345,5.345,0,0,0-4.521.347,4.958,4.958,0,0,0-2.662,3.5,6.624,6.624,0,0,0,2.425,6.234v5.256a3.053,3.053,0,0,0,3.051,3.055h.382a3.053,3.053,0,0,0,3.051-3.055v-3.511a2.915,2.915,0,0,0,2.254-.942c.607-.971.38-2.978-.724-6.077" transform="translate(-389.203 -471.259)" fill="#bc8271"/>
        <path id="Trazado_901224" data-name="Trazado 901224" d="M416.283,455.125l-1.872.307a4.508,4.508,0,0,1,.061.733q0,.145-.009.282a.323.323,0,0,1-.624.1l-.008-.02a4.7,4.7,0,0,0-.487-.918l-6.843,1.122a2.785,2.785,0,0,1,.511,1.638,2.912,2.912,0,0,1-1.056,2.116,5.94,5.94,0,0,0-1.329,5.971,6.037,6.037,0,0,0,3.442,3.481q.734-.1,1.5-.239c.977-.172,1.91-.368,2.794-.58a2.124,2.124,0,0,1-1.4-1.843,1.688,1.688,0,0,1,1.455-1.894c.579-.022,1.056.281,1.482,1.237.341-.182.743-.424,1.084-.606l-1.363-2.7c.142-.07,3.383-1.725,3.544-4.982a5.541,5.541,0,0,0-.886-3.207" transform="translate(-373.797 -420.772)" fill="#363e44"/>
        <path id="Trazado_901225" data-name="Trazado 901225" d="M526.109,570.168a.075.075,0,0,1-.039-.14l3.877-2.316a.075.075,0,0,1,.077.13l-3.877,2.316a.075.075,0,0,1-.039.011" transform="translate(-486.328 -524.851)" fill="#363e44"/>
        <path id="Trazado_901226" data-name="Trazado 901226" d="M539.3,653.705a.076.076,0,0,1-.075-.074l-.034-1.285a.075.075,0,0,1,.073-.078h0a.076.076,0,0,1,.075.073l.034,1.285a.076.076,0,0,1-.074.077Z" transform="translate(-498.492 -603.036)" fill="#363e44"/>
        <path id="Trazado_901227" data-name="Trazado 901227" d="M507.161,608.009a.075.075,0,0,1-.056-.025c-.147-.16-.276-.307-.413-.462-.11-.125-.224-.254-.353-.4a.076.076,0,1,1,.112-.1c.129.143.243.273.354.4.136.155.265.3.411.46a.075.075,0,0,1-.056.126" transform="translate(-468.103 -561.182)" fill="#363e44"/>
        <path id="Trazado_901228" data-name="Trazado 901228" d="M323.812,1132.826h13.915a92.8,92.8,0,0,0-12.5-55.559l-27.586-.441,11.38,17.326s11.759,12.849,14.794,38.674" transform="translate(-275.172 -995.546)" fill="#363e44"/>
        <path id="Trazado_901229" data-name="Trazado 901229" d="M268.357,1144.149A137.311,137.311,0,0,0,275.92,1090l-15.774-.927c-5.366,10.283-6.06,36.372-5.734,55.076Z" transform="translate(-235.146 -1006.87)" fill="#363e44"/>
        <path id="Trazado_901230" data-name="Trazado 901230" d="M523.131,1160.508l9.729-1.738.851,4.774a4.942,4.942,0,1,1-9.729,1.738Z" transform="translate(-483.645 -1071.306)" fill="#40484c"/>
        <path id="Trazado_901231" data-name="Trazado 901231" d="M747.508,747.181c11.912,2.526,18.036,5.419,16.712,9.855-.768,2.573-7.915,3.842-17.42,2.347.21-3.847.35-7.553.708-12.2" transform="translate(-690.431 -690.784)" fill="#bc8271"/>
        <path id="Trazado_901232" data-name="Trazado 901232" d="M830.616,470.858c-.184-2.994-.307-9.827-.1-15.048.215-5.483,1.329-13.547,2.454-13.376.641.1.716,1.228.716,4.265a1.335,1.335,0,0,1,1.261-.324,1.285,1.285,0,0,1,.9,1.109,1.529,1.529,0,0,1,1.185-.56,1.414,1.414,0,0,1,1.2,1.083,1.466,1.466,0,0,1,1.206-.489,1.317,1.317,0,0,1,1.108,1.28c-.063,1.158-.314,4.6-.233,6.284.16,3.322,2.309,15.042,1.272,19.9-3.669-2.241-7.3-1.888-10.973-4.129" transform="translate(-767.728 -409.037)" fill="#bc8271"/>
        <path id="Trazado_901233" data-name="Trazado 901233" d="M836.3,767.85a.075.075,0,0,1-.033-.008,39.064,39.064,0,0,0-6.9-2.447.075.075,0,0,1,.04-.146,39.2,39.2,0,0,1,6.925,2.457.075.075,0,0,1-.033.143" transform="translate(-766.719 -707.486)" fill="#363e44"/>
        <path id="Trazado_901234" data-name="Trazado 901234" d="M848.049,518.681l-.015,0-.9-.183a.075.075,0,0,1,.03-.148l.9.183a.075.075,0,0,1-.015.149" transform="translate(-783.137 -479.222)" fill="#363e44"/>
        <path id="Trazado_901235" data-name="Trazado 901235" d="M878.284,524.806l-.015,0-.9-.183a.076.076,0,0,1,.03-.148l.9.184a.075.075,0,0,1-.015.149" transform="translate(-811.09 -484.884)" fill="#363e44"/>
        <path id="Trazado_901236" data-name="Trazado 901236" d="M909.138,530.7l-.015,0-.9-.184a.075.075,0,1,1,.03-.148l.9.184a.075.075,0,0,1-.015.149" transform="translate(-839.615 -490.337)" fill="#363e44"/>
        <path id="Trazado_901237" data-name="Trazado 901237" d="M937.01,536.63l-.015,0-.9-.183a.075.075,0,1,1,.03-.148l.9.184a.075.075,0,0,1-.015.149" transform="translate(-865.384 -495.816)" fill="#363e44"/>
        <path id="Trazado_901238" data-name="Trazado 901238" d="M18.357,792.691C6.153,801.475.56,807.566,3.93,811.254c1.955,2.139,10.708-.2,20.667-6.689-1.877-3.693-3.857-7.466-6.24-11.874" transform="translate(-2.74 -732.859)" fill="#bc8271"/>
        <path id="Trazado_901239" data-name="Trazado 901239" d="M161.358,716.806s11.859-6.132,23.207-6.541c9.672-.349,24.633,3.424,24.633,3.424l.142,15.173-5.861.682,1.227,11.192-34.9,1.774-.682-9.824-3.783.816Z" transform="translate(-149.179 -656.633)" fill="#fd9826"/>
        <path id="Trazado_901240" data-name="Trazado 901240" d="M714.1,922.681a.075.075,0,0,1-.075-.065c-.068-.49-.138-1.095-.2-1.68s-.136-1.186-.2-1.674a.075.075,0,1,1,.149-.021c.068.489.138,1.093.2,1.677s.136,1.188.2,1.676a.075.075,0,0,1-.064.085h-.01" transform="translate(-659.756 -849.797)" fill="#363e44"/>
        <path id="Trazado_901241" data-name="Trazado 901241" d="M23.67,906.757h0c8.744,6.716,15.076,11.313,16.975,12.809a4.454,4.454,0,0,1,.9.9c1.275,1.735.394,3.343.9,5.78.578,2.765,2.466,3.994,2.022,4.562-.309.4-1.152.132-2.536-.987h0c.954.971,2.19,2.346,1.652,2.872-.653.574-2.3-.869-3.246-1.791,1.151,1.116,1.429,2.054,1.056,2.273-.587.344-1.68-.313-3.144-1.847h0c.715,1.342.689,1.774.312,1.887-.688.206-1.867-1.078-2.736-2.373a9.014,9.014,0,0,1-1.37-3.859h0c-6.611-4.068-10.956-6.8-16.362-9.972-1.106-.65,2.6-7.428,5.578-10.253" transform="translate(-16.542 -838.315)" fill="#bc8271"/>
        <path id="Trazado_901242" data-name="Trazado 901242" d="M114.474,923.323a.075.075,0,0,1-.045-.015c-2.645-1.985-5.1-3.847-7.512-5.691a.075.075,0,1,1,.092-.12c2.409,1.845,4.866,3.706,7.511,5.69a.076.076,0,0,1-.045.136" transform="translate(-98.819 -848.23)" fill="#363e44"/>
        <path id="Trazado_901243" data-name="Trazado 901243" d="M322.415,1187.1a.075.075,0,0,1-.055-.024,4.323,4.323,0,0,1-1.041-1.979.076.076,0,1,1,.147-.033,4.173,4.173,0,0,0,1,1.91.076.076,0,0,1-.055.127" transform="translate(-297.064 -1095.557)" fill="#363e44"/>
        <path id="Trazado_901244" data-name="Trazado 901244" d="M298.122,1199.587a.074.074,0,0,1-.05-.019,4.946,4.946,0,0,1-1.432-2.144.076.076,0,0,1,.143-.048,4.8,4.8,0,0,0,1.388,2.079.075.075,0,0,1-.05.132" transform="translate(-274.246 -1106.951)" fill="#363e44"/>
        <path id="Trazado_901245" data-name="Trazado 901245" d="M272.2,1200.89a.075.075,0,0,1-.057-.026,5.3,5.3,0,0,1-1.2-2.474.076.076,0,1,1,.148-.028,5.149,5.149,0,0,0,1.166,2.4.076.076,0,0,1-.057.125" transform="translate(-250.494 -1107.852)" fill="#363e44"/>
        <path id="Trazado_901246" data-name="Trazado 901246" d="M1271.651,1678.077c0,1.609-4.115,2.914-9.191,2.914s-9.192-1.3-9.192-2.914,4.115-2.914,9.192-2.914,9.191,1.3,9.191,2.914" transform="translate(-1158.671 -1548.721)" fill="#e0aa63"/>
        <rect id="Rectángulo_404752" data-name="Rectángulo 404752" width="18.383" height="3.002" transform="translate(94.597 126.453)" fill="#e0aa63"/>
        <path id="Trazado_901247" data-name="Trazado 901247" d="M1271.651,1640.37c0,1.609-4.115,2.914-9.191,2.914s-9.192-1.3-9.192-2.914,4.115-2.914,9.192-2.914,9.191,1.3,9.191,2.914" transform="translate(-1158.671 -1513.86)" fill="#efbc73"/>
        <path id="Trazado_901248" data-name="Trazado 901248" d="M1275.881,1642.436a22.477,22.477,0,0,1-6.522-.857c-1.77-.561-2.745-1.318-2.745-2.133s.975-1.571,2.745-2.133a25.248,25.248,0,0,1,13.044,0c1.77.561,2.745,1.319,2.745,2.133s-.975,1.572-2.745,2.133a22.477,22.477,0,0,1-6.522.857m0-5.828a22.327,22.327,0,0,0-6.476.85c-1.677.532-2.639,1.256-2.639,1.988s.962,1.457,2.639,1.989a25.095,25.095,0,0,0,12.953,0c1.677-.532,2.64-1.256,2.64-1.989s-.962-1.457-2.64-1.988a22.327,22.327,0,0,0-6.476-.85" transform="translate(-1171.01 -1512.936)" fill="#fff"/>
        <path id="Trazado_901249" data-name="Trazado 901249" d="M1296.756,1615.232c0,1.609-4.115,2.914-9.191,2.914s-9.192-1.3-9.192-2.914,4.115-2.914,9.192-2.914,9.191,1.3,9.191,2.914" transform="translate(-1181.881 -1490.62)" fill="#e0aa63"/>
        <rect id="Rectángulo_404753" data-name="Rectángulo 404753" width="18.383" height="3.002" transform="translate(96.492 121.709)" fill="#e0aa63"/>
        <path id="Trazado_901250" data-name="Trazado 901250" d="M1296.756,1577.526c0,1.609-4.115,2.914-9.191,2.914s-9.192-1.3-9.192-2.914,4.115-2.914,9.192-2.914,9.191,1.3,9.191,2.914" transform="translate(-1181.881 -1455.76)" fill="#efbc73"/>
        <path id="Trazado_901251" data-name="Trazado 901251" d="M1300.985,1579.59a22.481,22.481,0,0,1-6.522-.857c-1.77-.561-2.745-1.319-2.745-2.133s.975-1.571,2.745-2.133a25.244,25.244,0,0,1,13.044,0c1.77.561,2.745,1.319,2.745,2.133s-.975,1.572-2.745,2.133a22.48,22.48,0,0,1-6.522.857m0-5.828a22.325,22.325,0,0,0-6.477.85c-1.677.532-2.639,1.257-2.639,1.989s.962,1.457,2.639,1.989a25.1,25.1,0,0,0,12.953,0c1.677-.532,2.639-1.256,2.639-1.989s-.962-1.457-2.639-1.989a22.324,22.324,0,0,0-6.476-.85" transform="translate(-1194.219 -1454.835)" fill="#fff"/>
        <path id="Trazado_901252" data-name="Trazado 901252" d="M1271.651,1552.388c0,1.61-4.115,2.914-9.191,2.914s-9.192-1.3-9.192-2.914,4.115-2.914,9.192-2.914,9.191,1.3,9.191,2.914" transform="translate(-1158.671 -1432.52)" fill="#e0aa63"/>
        <rect id="Rectángulo_404754" data-name="Rectángulo 404754" width="18.383" height="3.002" transform="translate(94.597 116.966)" fill="#e0aa63"/>
        <path id="Trazado_901253" data-name="Trazado 901253" d="M1271.651,1514.681c0,1.61-4.115,2.914-9.191,2.914s-9.192-1.3-9.192-2.914,4.115-2.914,9.192-2.914,9.191,1.3,9.191,2.914" transform="translate(-1158.671 -1397.659)" fill="#efbc73"/>
        <path id="Trazado_901254" data-name="Trazado 901254" d="M1275.881,1516.747a22.477,22.477,0,0,1-6.522-.857c-1.77-.561-2.745-1.318-2.745-2.133s.975-1.571,2.745-2.133a25.248,25.248,0,0,1,13.044,0c1.77.561,2.745,1.319,2.745,2.133s-.975,1.572-2.745,2.133a22.477,22.477,0,0,1-6.522.857m0-5.828a22.327,22.327,0,0,0-6.476.85c-1.677.532-2.639,1.257-2.639,1.989s.962,1.457,2.639,1.989a25.1,25.1,0,0,0,12.953,0c1.677-.532,2.64-1.257,2.64-1.989s-.962-1.457-2.64-1.989a22.327,22.327,0,0,0-6.476-.85" transform="translate(-1171.01 -1396.735)" fill="#fff"/>
        <path id="Trazado_901255" data-name="Trazado 901255" d="M961.066,1678.077c0,1.609-4.115,2.914-9.191,2.914s-9.191-1.3-9.191-2.914,4.115-2.914,9.191-2.914,9.191,1.3,9.191,2.914" transform="translate(-871.529 -1548.721)" fill="#e0aa63"/>
        <rect id="Rectángulo_404755" data-name="Rectángulo 404755" width="18.383" height="3.002" transform="translate(71.154 126.453)" fill="#e0aa63"/>
        <path id="Trazado_901256" data-name="Trazado 901256" d="M961.066,1640.37c0,1.609-4.115,2.914-9.191,2.914s-9.191-1.3-9.191-2.914,4.115-2.914,9.191-2.914,9.191,1.3,9.191,2.914" transform="translate(-871.529 -1513.86)" fill="#efbc73"/>
        <path id="Trazado_901257" data-name="Trazado 901257" d="M965.3,1642.436a22.476,22.476,0,0,1-6.522-.857c-1.77-.561-2.745-1.318-2.745-2.133s.975-1.571,2.745-2.133a25.248,25.248,0,0,1,13.044,0c1.77.561,2.745,1.319,2.745,2.133s-.975,1.572-2.745,2.133a22.478,22.478,0,0,1-6.522.857m0-5.828a22.328,22.328,0,0,0-6.476.85c-1.677.532-2.639,1.256-2.639,1.988s.962,1.457,2.639,1.989a25.1,25.1,0,0,0,12.953,0c1.677-.532,2.639-1.256,2.639-1.989s-.962-1.457-2.639-1.988a22.328,22.328,0,0,0-6.476-.85" transform="translate(-883.869 -1512.936)" fill="#fff"/>
        <path id="Trazado_901258" data-name="Trazado 901258" d="M986.173,1615.232c0,1.609-4.115,2.914-9.191,2.914s-9.191-1.3-9.191-2.914,4.115-2.914,9.191-2.914,9.191,1.3,9.191,2.914" transform="translate(-894.741 -1490.62)" fill="#e0aa63"/>
        <rect id="Rectángulo_404756" data-name="Rectángulo 404756" width="18.383" height="3.002" transform="translate(73.049 121.709)" fill="#e0aa63"/>
        <path id="Trazado_901259" data-name="Trazado 901259" d="M986.173,1577.526c0,1.609-4.115,2.914-9.191,2.914s-9.191-1.3-9.191-2.914,4.115-2.914,9.191-2.914,9.191,1.3,9.191,2.914" transform="translate(-894.741 -1455.76)" fill="#efbc73"/>
        <path id="Trazado_901260" data-name="Trazado 901260" d="M990.4,1579.59a22.482,22.482,0,0,1-6.522-.857c-1.77-.561-2.745-1.319-2.745-2.133s.975-1.571,2.745-2.133a25.244,25.244,0,0,1,13.044,0c1.77.561,2.745,1.319,2.745,2.133s-.975,1.572-2.745,2.133a22.481,22.481,0,0,1-6.522.857m0-5.828a22.325,22.325,0,0,0-6.476.85c-1.677.532-2.639,1.257-2.639,1.989s.962,1.457,2.639,1.989a25.1,25.1,0,0,0,12.953,0c1.677-.532,2.639-1.256,2.639-1.989s-.962-1.457-2.639-1.989a22.325,22.325,0,0,0-6.477-.85" transform="translate(-907.079 -1454.835)" fill="#fff"/>
        <path id="Trazado_901261" data-name="Trazado 901261" d="M1311.1,1496.5c0,1.609-4.115,2.914-9.191,2.914s-9.191-1.3-9.191-2.914,4.115-2.914,9.191-2.914,9.191,1.3,9.191,2.914" transform="translate(-1195.144 -1380.85)" fill="#e0aa63"/>
        <rect id="Rectángulo_404757" data-name="Rectángulo 404757" width="18.383" height="3.002" transform="translate(97.575 112.747)" fill="#e0aa63"/>
        <path id="Trazado_901262" data-name="Trazado 901262" d="M1311.1,1458.793c0,1.609-4.115,2.914-9.191,2.914s-9.191-1.3-9.191-2.914,4.115-2.914,9.191-2.914,9.191,1.3,9.191,2.914" transform="translate(-1195.144 -1345.989)" fill="#efbc73"/>
        <path id="Trazado_901263" data-name="Trazado 901263" d="M1315.331,1460.858a22.477,22.477,0,0,1-6.522-.857c-1.77-.561-2.745-1.318-2.745-2.133s.975-1.571,2.745-2.133a25.241,25.241,0,0,1,13.044,0c1.77.561,2.745,1.319,2.745,2.133s-.975,1.572-2.745,2.133a22.478,22.478,0,0,1-6.522.857m0-5.828a22.322,22.322,0,0,0-6.476.85c-1.677.532-2.639,1.257-2.639,1.989s.962,1.457,2.639,1.989a25.089,25.089,0,0,0,12.953,0c1.677-.531,2.639-1.256,2.639-1.989s-.962-1.457-2.639-1.989a22.32,22.32,0,0,0-6.477-.85" transform="translate(-1207.482 -1345.064)" fill="#fff"/>
        <path id="Trazado_901264" data-name="Trazado 901264" d="M937.941,1461.531c-1.142,1.133-4.964-.876-8.536-4.487s-5.543-7.457-4.4-8.589,4.964.876,8.536,4.488,5.543,7.457,4.4,8.589" transform="translate(-854.884 -1338.833)" fill="#e0aa63"/>
        <path id="Trazado_901265" data-name="Trazado 901265" d="M940.979,1440.446l-12.937-13.077,2.13-2.113,12.937,13.077Z" transform="translate(-857.993 -1317.678)" fill="#e0aa63"/>
        <path id="Trazado_901266" data-name="Trazado 901266" d="M964.695,1434.994c-1.142,1.133-4.964-.876-8.536-4.487s-5.543-7.457-4.4-8.589,4.964.876,8.536,4.487,5.543,7.457,4.4,8.589" transform="translate(-879.619 -1314.299)" fill="#efbc73"/>
        <path id="Trazado_901267" data-name="Trazado 901267" d="M972.955,1444.667h-.011c-1.737-.008-4.817-1.948-7.664-4.826a22.537,22.537,0,0,1-3.982-5.243c-.847-1.654-1-2.88-.419-3.453a1.329,1.329,0,0,1,.979-.338c1.737.008,4.817,1.948,7.664,4.826a22.541,22.541,0,0,1,3.982,5.243c.847,1.654,1,2.88.418,3.453a1.321,1.321,0,0,1-.968.338m-11.107-13.708a1.178,1.178,0,0,0-.862.294c-.519.515-.357,1.71.447,3.277a22.38,22.38,0,0,0,3.955,5.205c2.821,2.852,5.858,4.773,7.557,4.781h.01a1.177,1.177,0,0,0,.862-.294c.52-.515.357-1.71-.447-3.277a22.377,22.377,0,0,0-3.955-5.205c-2.821-2.852-5.858-4.773-7.557-4.781h-.01" transform="translate(-888.032 -1322.81)" fill="#fff"/>
        <path id="Trazado_901268" data-name="Trazado 901268" d="M1278.824,1439.038c0,1.609-4.115,2.914-9.191,2.914s-9.191-1.3-9.191-2.914,4.115-2.914,9.191-2.914,9.191,1.3,9.191,2.914" transform="translate(-1165.303 -1327.725)" fill="#e0aa63"/>
        <rect id="Rectángulo_404758" data-name="Rectángulo 404758" width="18.383" height="3.002" transform="translate(95.138 108.41)" fill="#e0aa63"/>
        <path id="Trazado_901269" data-name="Trazado 901269" d="M1278.824,1401.332c0,1.609-4.115,2.914-9.191,2.914s-9.191-1.3-9.191-2.914,4.115-2.914,9.191-2.914,9.191,1.3,9.191,2.914" transform="translate(-1165.303 -1292.865)" fill="#efbc73"/>
        <path id="Trazado_901270" data-name="Trazado 901270" d="M1283.054,1403.4a22.486,22.486,0,0,1-6.522-.857c-1.77-.561-2.745-1.319-2.745-2.133s.975-1.572,2.745-2.133a25.248,25.248,0,0,1,13.044,0c1.77.561,2.745,1.319,2.745,2.133s-.975,1.571-2.745,2.133a22.486,22.486,0,0,1-6.522.857m0-5.828a22.319,22.319,0,0,0-6.477.85c-1.677.531-2.639,1.256-2.639,1.989s.962,1.457,2.639,1.989a25.1,25.1,0,0,0,12.953,0c1.677-.532,2.639-1.257,2.639-1.989s-.962-1.457-2.639-1.989a22.321,22.321,0,0,0-6.476-.85" transform="translate(-1177.641 -1291.94)" fill="#fff"/>
        <path id="Trazado_901271" data-name="Trazado 901271" d="M1269.292,698.167l-27.922-14.452,2.225-7.577,27.922,14.451Z" transform="translate(-1147.671 -625.104)" fill="#776e42"/>
        <path id="Trazado_901272" data-name="Trazado 901272" d="M1298.8,728.368l-23.455-12.14,1.233-4.2,23.455,12.14Z" transform="translate(-1179.08 -658.286)" fill="#efbc73"/>
        <path id="Trazado_901273" data-name="Trazado 901273" d="M1114.2,813.272l-27.922-14.452L1098,776.113l27.922,14.451Z" transform="translate(-1004.283 -717.531)" fill="#8b865c"/>
        <path id="Trazado_901274" data-name="Trazado 901274" d="M1397.509,1169.489l3.533,1.828,1.826-3.537-3.533-1.828Z" transform="translate(-1292.025 -1077.945)" fill="#efbc73"/>
        <path id="Trazado_901275" data-name="Trazado 901275" d="M1434.637,1097.567l3.533,1.829,1.826-3.537-3.532-1.828Z" transform="translate(-1326.35 -1011.452)" fill="#efbc73"/>
        <path id="Trazado_901276" data-name="Trazado 901276" d="M1471.765,1025.644l3.533,1.828,1.826-3.537-3.533-1.828Z" transform="translate(-1360.676 -944.958)" fill="#fff"/>
        <path id="Trazado_901277" data-name="Trazado 901277" d="M1508.892,953.722l3.533,1.828,1.826-3.537-3.533-1.828Z" transform="translate(-1395.001 -878.465)" fill="#fff"/>
        <path id="Trazado_901278" data-name="Trazado 901278" d="M1327.57,1133.291l3.533,1.828,1.826-3.537-3.533-1.828Z" transform="translate(-1227.365 -1044.48)" fill="#fff"/>
        <path id="Trazado_901279" data-name="Trazado 901279" d="M1364.7,1061.369l3.533,1.828,1.826-3.537-3.533-1.828Z" transform="translate(-1261.69 -977.986)" fill="#fff"/>
        <path id="Trazado_901280" data-name="Trazado 901280" d="M1401.826,989.447l3.533,1.828,1.826-3.537-3.533-1.828Z" transform="translate(-1296.016 -911.493)" fill="#fff"/>
        <path id="Trazado_901281" data-name="Trazado 901281" d="M1438.954,917.525l3.533,1.828,1.826-3.537-3.533-1.828Z" transform="translate(-1330.342 -845)" fill="#fff"/>
        <path id="Trazado_901282" data-name="Trazado 901282" d="M1257.631,1097.094l3.533,1.828,1.826-3.537-3.533-1.828Z" transform="translate(-1162.705 -1011.014)" fill="#fff"/>
        <path id="Trazado_901283" data-name="Trazado 901283" d="M1294.759,1025.171l3.532,1.828,1.826-3.537-3.533-1.828Z" transform="translate(-1197.03 -944.521)" fill="#fff"/>
        <path id="Trazado_901284" data-name="Trazado 901284" d="M1331.887,953.249l3.533,1.828,1.826-3.537-3.533-1.828Z" transform="translate(-1231.356 -878.027)" fill="#fff"/>
        <path id="Trazado_901285" data-name="Trazado 901285" d="M1369.015,881.327l3.533,1.828,1.826-3.537-3.533-1.828Z" transform="translate(-1265.681 -811.534)" fill="#fff"/>
        <path id="Trazado_901286" data-name="Trazado 901286" d="M1187.692,1060.9l3.533,1.828,1.826-3.537-3.533-1.828Z" transform="translate(-1098.045 -977.549)" fill="#fff"/>
        <path id="Trazado_901287" data-name="Trazado 901287" d="M1224.82,988.974l3.533,1.828,1.826-3.537-3.533-1.828Z" transform="translate(-1132.37 -911.055)" fill="#fff"/>
        <path id="Trazado_901288" data-name="Trazado 901288" d="M1261.948,917.051l3.533,1.828,1.826-3.537-3.533-1.828Z" transform="translate(-1166.696 -844.562)" fill="#fff"/>
        <path id="Trazado_901289" data-name="Trazado 901289" d="M1299.076,845.129l3.533,1.828,1.826-3.537-3.533-1.828Z" transform="translate(-1201.021 -778.069)" fill="#efbc73"/>
        <path id="Trazado_901290" data-name="Trazado 901290" d="M1117.754,961.095l3.533,1.828,4.507-8.73-3.533-1.828Z" transform="translate(-1033.385 -880.48)" fill="#fff"/>
        <path id="Trazado_901291" data-name="Trazado 901291" d="M1192.009,880.854l3.533,1.828,1.826-3.537-3.533-1.828Z" transform="translate(-1102.036 -811.096)" fill="#fff"/>
        <path id="Trazado_901292" data-name="Trazado 901292" d="M1229.137,808.932l3.533,1.828,1.826-3.537-3.533-1.828Z" transform="translate(-1136.362 -744.603)" fill="#efbc73"/>
        <path id="Trazado_901293" data-name="Trazado 901293" d="M1043.618,168.474a.075.075,0,0,1-.056-.025.77.77,0,0,0-1.13-.021.076.076,0,0,1-.108-.105.921.921,0,0,1,1.35.025.075.075,0,0,1-.056.126" transform="translate(-963.629 -155.357)" fill="#363e44"/>
        <path id="Trazado_901294" data-name="Trazado 901294" d="M1026.42,140.43a.076.076,0,0,1-.054-.023,2.932,2.932,0,0,0-4.191-.021.075.075,0,1,1-.107-.106,3.083,3.083,0,0,1,4.406.022.075.075,0,0,1-.054.128" transform="translate(-944.902 -128.845)" fill="#363e44"/>
        <path id="Trazado_901295" data-name="Trazado 901295" d="M1007.563,109.676a.075.075,0,0,1-.054-.023,5.3,5.3,0,0,0-7.545-.021.075.075,0,0,1-.107-.106,5.454,5.454,0,0,1,7.76.022.076.076,0,0,1-.054.128" transform="translate(-924.367 -99.77)" fill="#363e44"/>
        <path id="Trazado_901296" data-name="Trazado 901296" d="M987.522,76.994a.075.075,0,0,1-.054-.022,7.82,7.82,0,0,0-11.108-.021.076.076,0,0,1-.107-.107,7.971,7.971,0,0,1,11.322.022.075.075,0,0,1-.054.129" transform="translate(-902.546 -68.872)" fill="#363e44"/>
        <path id="Trazado_901297" data-name="Trazado 901297" d="M968.019,45.184a.075.075,0,0,1-.054-.022,10.269,10.269,0,0,0-14.576-.021.075.075,0,1,1-.107-.107,10.42,10.42,0,0,1,14.79.022.075.075,0,0,1-.054.129" transform="translate(-881.308 -38.798)" fill="#363e44"/>
      </g>
    </g>
  </g>
</svg>
