<svg xmlns="http://www.w3.org/2000/svg" xmlns:xlink="http://www.w3.org/1999/xlink" width="147" height="147" viewBox="0 0 147 147">
  <defs>
    <clipPath id="clip-path">
      <rect id="Rectángulo_404834" data-name="Rectángulo 404834" width="147" height="147" fill="none"/>
    </clipPath>
    <clipPath id="clip-path-2">
      <path id="Trazado_901466" data-name="Trazado 901466" d="M303.578,517.34a1.111,1.111,0,1,0,1.984.6,3.412,3.412,0,0,0-1.814-.61c-.056,0-.113,0-.17.006" transform="translate(-301.702 -517.334)" fill="none"/>
    </clipPath>
  </defs>
  <g id="Grupo_1111639" data-name="Grupo 1111639" transform="translate(0.196 0.196)">
    <g id="Grupo_1111634" data-name="Grupo 1111634" transform="translate(-0.196 -0.196)">
      <g id="Grupo_1111633" data-name="Grupo 1111633" clip-path="url(#clip-path)">
        <path id="Trazado_901416" data-name="Trazado 901416" d="M147.223,73.612A73.612,73.612,0,1,1,73.612,0a73.612,73.612,0,0,1,73.612,73.612" transform="translate(0.089 0.089)" fill="#f2e6dc"/>
        <path id="Trazado_901417" data-name="Trazado 901417" d="M788.266,923.52H701.654a.08.08,0,0,1-.08-.08V858.075a.08.08,0,0,1,.08-.08h86.612a.08.08,0,0,1,.08.08V923.44a.08.08,0,0,1-.08.08m-86.531-.161h86.451v-65.2H701.735Z" transform="translate(-645.043 -788.88)" fill="#d3bba3"/>
        <rect id="Rectángulo_404797" data-name="Rectángulo 404797" width="81.177" height="54.711" transform="translate(59.329 71.901)" fill="#e6d0be"/>
        <rect id="Rectángulo_404798" data-name="Rectángulo 404798" width="81.177" height="54.711" transform="translate(59.329 71.901)" fill="#e6d0be"/>
        <rect id="Rectángulo_404799" data-name="Rectángulo 404799" width="73.993" height="35.637" transform="translate(63.098 78.363)" fill="#f2e6dc"/>
        <path id="Trazado_901418" data-name="Trazado 901418" d="M1223.865,1599.539a1.63,1.63,0,1,1-1.63-1.623,1.627,1.627,0,0,1,1.63,1.623" transform="translate(-1122.317 -1469.274)" fill="#fff"/>
        <path id="Trazado_901419" data-name="Trazado 901419" d="M695.507,1699.78H614.982a6.917,6.917,0,0,1-6.884-6.934.08.08,0,0,1,.08-.08H702.31a.08.08,0,0,1,.081.08,6.917,6.917,0,0,1-6.884,6.934m-87.247-6.854a6.756,6.756,0,0,0,6.722,6.693h80.525a6.756,6.756,0,0,0,6.723-6.693Z" transform="translate(-559.087 -1556.493)" fill="#d3bba3"/>
        <path id="Trazado_901420" data-name="Trazado 901420" d="M1494.867,1707.187a.08.08,0,1,1,0-.161,5.339,5.339,0,0,0,5.313-5.353.08.08,0,1,1,.161,0,5.5,5.5,0,0,1-5.474,5.514" transform="translate(-1374.442 -1564.61)" fill="#d3bba3"/>
        <path id="Trazado_901421" data-name="Trazado 901421" d="M918.743,1713.9a2.9,2.9,0,0,1-2.891,2.912H905.675a2.9,2.9,0,0,1-2.891-2.912Z" transform="translate(-830.066 -1575.929)" fill="#f2e6dc"/>
        <rect id="Rectángulo_404800" data-name="Rectángulo 404800" width="72.312" height="100.076" transform="translate(62.53 6.193)" fill="#fff"/>
        <path id="Trazado_901422" data-name="Trazado 901422" d="M821.1,200.574H748.788a.08.08,0,0,1-.08-.08V106.9a.08.08,0,1,1,.161,0v93.516h72.152V100.5l-23.157-.084a.08.08,0,0,1,0-.161h0l23.237.085a.08.08,0,0,1,.08.08V200.494a.081.081,0,0,1-.081.08" transform="translate(-688.385 -92.097)" fill="#d3bba3"/>
        <rect id="Rectángulo_404801" data-name="Rectángulo 404801" width="24.658" height="1.904" transform="translate(90.941 78.024)" fill="#f2e6dc"/>
        <rect id="Rectángulo_404802" data-name="Rectángulo 404802" width="30.314" height="1.904" transform="translate(94.768 82.782)" fill="#f2e6dc"/>
        <rect id="Rectángulo_404803" data-name="Rectángulo 404803" width="29.166" height="1.904" transform="translate(90.941 87.54)" fill="#f2e6dc"/>
        <rect id="Rectángulo_404804" data-name="Rectángulo 404804" width="30.503" height="1.904" transform="translate(97.467 57.072)" fill="#f2e6dc"/>
        <rect id="Rectángulo_404805" data-name="Rectángulo 404805" width="29.166" height="1.904" transform="translate(90.116 61.83)" fill="#f2e6dc"/>
        <rect id="Rectángulo_404806" data-name="Rectángulo 404806" width="34.249" height="1.904" transform="translate(90.116 66.588)" fill="#f2e6dc"/>
        <rect id="Rectángulo_404807" data-name="Rectángulo 404807" width="26.79" height="1.904" transform="translate(97.575 37.39)" fill="#f2e6dc"/>
        <rect id="Rectángulo_404808" data-name="Rectángulo 404808" width="29.058" height="1.905" transform="translate(90.225 42.148)" fill="#f2e6dc"/>
        <rect id="Rectángulo_404809" data-name="Rectángulo 404809" width="37.746" height="1.904" transform="translate(90.225 46.906)" fill="#f2e6dc"/>
        <path id="Trazado_901423" data-name="Trazado 901423" d="M874.008,987.272h-15.4a.08.08,0,0,1-.08-.08V971.8a.08.08,0,0,1,.08-.081h15.4a.08.08,0,0,1,.08.081v15.39a.08.08,0,0,1-.08.08m-15.318-.161h15.237v-15.23H858.69Z" transform="translate(-789.371 -893.457)" fill="#9e6c5a"/>
        <path id="Trazado_901424" data-name="Trazado 901424" d="M889.86,1012.379,885.039,1008l1.489-1.836,3.057,2.443,4.8-6.961,1.951,1.343Z" transform="translate(-813.748 -920.971)" fill="#d87355"/>
        <path id="Trazado_901425" data-name="Trazado 901425" d="M874.008,711.411h-15.4a.08.08,0,0,1-.08-.08V695.94a.08.08,0,0,1,.08-.08h15.4a.08.08,0,0,1,.08.08v15.39a.08.08,0,0,1-.08.08m-15.318-.161h15.237v-15.23H858.69Z" transform="translate(-789.371 -639.789)" fill="#9e6c5a"/>
        <path id="Trazado_901426" data-name="Trazado 901426" d="M889.86,736.518l-4.821-4.383,1.489-1.836,3.057,2.443,4.8-6.961,1.951,1.343Z" transform="translate(-813.748 -667.302)" fill="#d87355"/>
        <path id="Trazado_901427" data-name="Trazado 901427" d="M874.008,466.754h-15.4a.08.08,0,0,1-.08-.08v-15.39a.08.08,0,0,1,.08-.08h15.4a.08.08,0,0,1,.08.08v15.39a.08.08,0,0,1-.08.08m-15.318-.161h15.237V451.364H858.69Z" transform="translate(-789.371 -414.814)" fill="#9e6c5a"/>
        <path id="Trazado_901428" data-name="Trazado 901428" d="M889.86,491.861l-4.821-4.383,1.489-1.836,3.057,2.442,4.8-6.961,1.951,1.343Z" transform="translate(-813.748 -442.328)" fill="#d87355"/>
        <path id="Trazado_901429" data-name="Trazado 901429" d="M1263.71,203.829h-3.166v8.726h-1.75v-8.726h-3.138v-1.422h8.054Z" transform="translate(-1154.549 -186.034)" fill="#40484c"/>
        <path id="Trazado_901430" data-name="Trazado 901430" d="M1357.242,210.192h-3.933l-.823,2.363h-1.834l3.835-10.148h1.583l3.842,10.148h-1.841Zm-3.438-1.422h2.943l-1.471-4.21Z" transform="translate(-1241.904 -186.034)" fill="#40484c"/>
        <path id="Trazado_901431" data-name="Trazado 901431" d="M1475.027,206.073l2.134-3.666h2.036l-3.068,5.032,3.138,5.116h-2.057l-2.183-3.722-2.189,3.722h-2.05l3.145-5.116-3.075-5.032h2.036Z" transform="translate(-1352.373 -186.034)" fill="#40484c"/>
        <rect id="Rectángulo_404810" data-name="Rectángulo 404810" width="18.654" height="1.735" transform="translate(69.811 16.372)" fill="#f2e6dc"/>
        <rect id="Rectángulo_404811" data-name="Rectángulo 404811" width="23.721" height="1.735" transform="translate(69.811 20.384)" fill="#f2e6dc"/>
        <rect id="Rectángulo_404812" data-name="Rectángulo 404812" width="23.721" height="1.735" transform="translate(69.811 24.396)" fill="#f2e6dc"/>
        <path id="Trazado_901432" data-name="Trazado 901432" d="M916.852,369.976H859.238a.08.08,0,1,1,0-.161h57.614a.08.08,0,1,1,0,.161" transform="translate(-789.95 -339.974)" fill="#9e6c5a"/>
        <rect id="Rectángulo_404813" data-name="Rectángulo 404813" width="29.489" height="23.951" transform="translate(29.194 20.705) rotate(-21.712)" fill="#84524d"/>
        <rect id="Rectángulo_404814" data-name="Rectángulo 404814" width="3.731" height="3.731" transform="translate(58.376 29.143) rotate(-21.712)" fill="#fff"/>
        <path id="Trazado_901433" data-name="Trazado 901433" d="M343.673,49.823l-27.4,10.909-3.993-6.23,27.4-10.909Z" transform="translate(-287.07 -39.996)" fill="#84524d"/>
        <path id="Trazado_901434" data-name="Trazado 901434" d="M373.355,75.572l-23.014,9.164-2.213-3.452,23.014-9.164Z" transform="translate(-320.032 -66.229)" fill="#ffd092"/>
        <rect id="Rectángulo_404815" data-name="Rectángulo 404815" width="3.731" height="3.731" transform="translate(56.258 23.823) rotate(-21.712)" fill="#fff"/>
        <rect id="Rectángulo_404816" data-name="Rectángulo 404816" width="3.731" height="3.731" transform="translate(54.14 18.504) rotate(-21.712)" fill="#ffd092"/>
        <rect id="Rectángulo_404817" data-name="Rectángulo 404817" width="3.731" height="3.731" transform="translate(52.022 13.184) rotate(-21.712)" fill="#ffd092"/>
        <rect id="Rectángulo_404818" data-name="Rectángulo 404818" width="3.731" height="3.731" transform="translate(53.197 31.206) rotate(-21.712)" fill="#fff"/>
        <rect id="Rectángulo_404819" data-name="Rectángulo 404819" width="3.731" height="3.731" transform="translate(51.078 25.886) rotate(-21.712)" fill="#fff"/>
        <rect id="Rectángulo_404820" data-name="Rectángulo 404820" width="3.731" height="3.731" transform="translate(48.96 20.566) rotate(-21.712)" fill="#fff"/>
        <rect id="Rectángulo_404821" data-name="Rectángulo 404821" width="3.731" height="3.731" transform="translate(46.842 15.247) rotate(-21.712)" fill="#fff"/>
        <rect id="Rectángulo_404822" data-name="Rectángulo 404822" width="3.731" height="3.731" transform="translate(48.017 33.268) rotate(-21.712)" fill="#fff"/>
        <rect id="Rectángulo_404823" data-name="Rectángulo 404823" width="3.731" height="3.731" transform="translate(45.899 27.948) rotate(-21.712)" fill="#fff"/>
        <rect id="Rectángulo_404824" data-name="Rectángulo 404824" width="3.731" height="3.731" transform="translate(43.78 22.629) rotate(-21.712)" fill="#fff"/>
        <rect id="Rectángulo_404825" data-name="Rectángulo 404825" width="3.731" height="3.731" transform="translate(41.662 17.309) rotate(-21.712)" fill="#fff"/>
        <rect id="Rectángulo_404826" data-name="Rectángulo 404826" width="3.731" height="3.731" transform="translate(42.837 35.331) rotate(-21.712)" fill="#fff"/>
        <rect id="Rectángulo_404827" data-name="Rectángulo 404827" width="3.731" height="3.731" transform="translate(40.719 30.011) rotate(-21.712)" fill="#fff"/>
        <rect id="Rectángulo_404828" data-name="Rectángulo 404828" width="3.731" height="3.731" transform="translate(38.601 24.691) rotate(-21.712)" fill="#fff"/>
        <rect id="Rectángulo_404829" data-name="Rectángulo 404829" width="3.731" height="3.731" transform="translate(36.483 19.372) rotate(-21.712)" fill="#fff"/>
        <rect id="Rectángulo_404830" data-name="Rectángulo 404830" width="3.731" height="9.208" transform="translate(35.631 32.305) rotate(-21.712)" fill="#ffd092"/>
        <rect id="Rectángulo_404831" data-name="Rectángulo 404831" width="3.731" height="3.731" transform="translate(33.421 26.754) rotate(-21.712)" fill="#ffd092"/>
        <rect id="Rectángulo_404832" data-name="Rectángulo 404832" width="3.731" height="3.731" transform="translate(31.303 21.434) rotate(-21.712)" fill="#fff"/>
        <path id="Trazado_901435" data-name="Trazado 901435" d="M74.951,1658.29l-7.264-.109,2.164-9.365,7.4,1.234Z" transform="translate(-62.152 -1516.079)" fill="#e2a18d"/>
        <path id="Trazado_901436" data-name="Trazado 901436" d="M69.126,1744.333H50.316l1.732-7.19h7.369l5.329,1.625a5.782,5.782,0,0,1,4.38,5.565" transform="translate(-46.179 -1597.301)" fill="#ffd092"/>
        <path id="Trazado_901437" data-name="Trazado 901437" d="M164.734,1712.669h-.016l-2.862-.043a.081.081,0,0,1-.049-.144l2.253-1.766a1.013,1.013,0,0,1,1.584.474l.048.144a1.013,1.013,0,0,1-.959,1.336m-2.648-.2,2.635.04a.852.852,0,0,0,.82-1.123l-.048-.144a.852.852,0,0,0-1.333-.4Z" transform="translate(-148.672 -1572.8)" fill="#84524d"/>
        <path id="Trazado_901438" data-name="Trazado 901438" d="M115.35,1736.617a1.021,1.021,0,0,1-.294-.043,1,1,0,0,1-.67-.647l-.048-.144a1.013,1.013,0,0,1,.975-1.336l2.862.043a.08.08,0,0,1,.049.144l-2.253,1.766a1,1,0,0,1-.621.217m-.053-2.009a.852.852,0,0,0-.806,1.124l.048.143a.852.852,0,0,0,1.333.4l2.074-1.626-2.635-.04H115.3" transform="translate(-105.001 -1594.822)" fill="#84524d"/>
        <path id="Trazado_901439" data-name="Trazado 901439" d="M496.377,1659.691l-7.264-.109.224-10.767,7.4,1.234Z" transform="translate(-449.675 -1516.079)" fill="#e2a18d"/>
        <path id="Trazado_901440" data-name="Trazado 901440" d="M488.744,1744.333h-18.81l1.62-7.19h7.481l5.329,1.625a5.782,5.782,0,0,1,4.38,5.565" transform="translate(-432.039 -1597.301)" fill="#ffd092"/>
        <path id="Trazado_901441" data-name="Trazado 901441" d="M584.352,1712.669h-.016l-2.862-.043a.081.081,0,0,1-.049-.144l2.253-1.766a1.013,1.013,0,0,1,1.584.474l.049.144a1.013,1.013,0,0,1-.959,1.336m-2.648-.2,2.635.039h.013a.852.852,0,0,0,.806-1.124l-.048-.144a.852.852,0,0,0-1.333-.4Z" transform="translate(-534.532 -1572.8)" fill="#84524d"/>
        <path id="Trazado_901442" data-name="Trazado 901442" d="M534.968,1736.617a1.022,1.022,0,0,1-.294-.043,1,1,0,0,1-.67-.647l-.048-.144a1.013,1.013,0,0,1,.975-1.336l2.862.043a.08.08,0,0,1,.048.144l-2.253,1.766a1,1,0,0,1-.621.217m-.053-2.009a.852.852,0,0,0-.806,1.124l.048.143a.852.852,0,0,0,1.333.4l2.074-1.626-2.635-.04h-.014" transform="translate(-490.86 -1594.822)" fill="#84524d"/>
        <path id="Trazado_901443" data-name="Trazado 901443" d="M95.18,882.183a147.874,147.874,0,0,0-7.514,22.094c-3.028,12.113-8.412,42.506-8.412,42.506h8.3s16.374-18.73,17.832-44.413l5.047-20.3Z" transform="translate(-72.789 -811.019)" fill="#363e44"/>
        <path id="Trazado_901444" data-name="Trazado 901444" d="M360.858,889.519s8.524,12.337,9.2,39.927h9.533s6.954-15.477,3.028-31.739S372.3,863.948,372.3,863.948H362.092Z" transform="translate(-331.738 -794.354)" fill="#363e44"/>
        <path id="Trazado_901445" data-name="Trazado 901445" d="M393.906,1104.9l-.016,0a.081.081,0,0,1-.062-.095l1.707-8.244a.08.08,0,0,1,.034-.05l2.483-1.681a.081.081,0,0,1,.09.133l-2.456,1.662-1.7,8.212a.08.08,0,0,1-.079.064" transform="translate(-362.053 -1006.649)" fill="#f2e6dc"/>
        <path id="Trazado_901446" data-name="Trazado 901446" d="M436.164,625.823c4.321.9,16.633,4.262,17.987-.922,1.12-4.288-11.014-7.033-15.247-8.205l-2.74,9.128" transform="translate(-400.985 -566.993)" fill="#e2a18d"/>
        <path id="Trazado_901447" data-name="Trazado 901447" d="M564.885,547.64s9.707-5.82,13.042-7.538c3.5-1.8,8.937-3.958,9.228-3.194.166.435-.514.882-2.412,1.956a1.039,1.039,0,0,1,.662.709.854.854,0,0,1-.386.922c.052.01.639.156.8.566a.989.989,0,0,1-.28,1.114,1.221,1.221,0,0,1,.786.643,1.031,1.031,0,0,1-.635,1.182c-.746.37-2.809,1.332-3.835,1.979-2.02,1.274-8.584,6.763-11.99,7.833.1-3.088-4.978-6.173-4.978-6.173" transform="translate(-519.351 -493.479)" fill="#e2a18d"/>
        <path id="Trazado_901448" data-name="Trazado 901448" d="M751.674,578.536a.08.08,0,0,1-.058-.136,4.1,4.1,0,0,0,.937-1.808c.163-.548.291-.981.783-1.019a2.022,2.022,0,0,0,1.084-.552.271.271,0,0,0,.078-.305.275.275,0,0,0-.263-.183h-2.561a.08.08,0,0,1,0-.161h2.561a.44.44,0,0,1,.29.771,2.144,2.144,0,0,1-1.177.59c-.364.028-.47.329-.641.9a4.238,4.238,0,0,1-.975,1.873.08.08,0,0,1-.058.025" transform="translate(-691.039 -528.075)" fill="#363e44"/>
        <path id="Trazado_901449" data-name="Trazado 901449" d="M791.366,569.72a.081.081,0,0,1-.072-.044,1.366,1.366,0,0,1,.371-1.674l-.294.1a.9.9,0,0,1-.7-1.652l.358-.185a.734.734,0,0,1-.327-1.378l.822-.452a.08.08,0,1,1,.078.141l-.822.452a.574.574,0,0,0,.485,1.038l.6-.234a.08.08,0,0,1,.066.146l-1.188.615a.738.738,0,0,0,.573,1.356l.954-.318a.08.08,0,0,1,.066.145l-.44.26a1.2,1.2,0,0,0-.463,1.569.08.08,0,0,1-.072.117" transform="translate(-726.527 -518.925)" fill="#363e44"/>
        <path id="Trazado_901450" data-name="Trazado 901450" d="M37.574,756.3c-2.5,3.635-10.372,13.684-6.117,16.94,3.52,2.694,10.75-7.43,13.47-10.879L37.574,756.3" transform="translate(-27.698 -695.364)" fill="#e2a18d"/>
        <path id="Trazado_901451" data-name="Trazado 901451" d="M91,617.9s9.9-10.123,17.742-12.109c6.145-1.557,11.324-1.62,19.156,1.031L126,617.4l-1.743-.645a85.2,85.2,0,0,1,3.7,10.156l-29.384,2.019.53-3.179-1.57,1.432Z" transform="translate(-83.586 -555.972)" fill="#fd9826"/>
        <path id="Trazado_901452" data-name="Trazado 901452" d="M118.413,868.962a11.849,11.849,0,1,1-11.849-11.849,11.849,11.849,0,0,1,11.849,11.849" transform="translate(-87.006 -788.069)" fill="#efbc73"/>
        <path id="Trazado_901453" data-name="Trazado 901453" d="M154.61,908.629a8.378,8.378,0,1,1-8.378-8.378,8.379,8.379,0,0,1,8.378,8.378" transform="translate(-126.673 -827.737)" fill="#e0aa63"/>
        <path id="Trazado_901454" data-name="Trazado 901454" d="M132.735,907.063a11.929,11.929,0,1,1,11.929-11.929,11.943,11.943,0,0,1-11.929,11.929m0-23.7A11.768,11.768,0,1,0,144.5,895.133a11.782,11.782,0,0,0-11.768-11.769" transform="translate(-110.998 -812.061)" fill="#fff"/>
        <path id="Trazado_901455" data-name="Trazado 901455" d="M40.258,908.174c3.56,2.845,12.275,9.129,13.1,9.776,1.545,1.21,4.908,3.7,4.314,4.905a1.386,1.386,0,0,1-1.2.686,1.4,1.4,0,0,1-.437,1.487,1.466,1.466,0,0,1-1.3.231,1.175,1.175,0,0,1-.1,1.189,1.231,1.231,0,0,1-1.622.209,1.376,1.376,0,0,1-.435.9,1.444,1.444,0,0,1-1.58.161c-1.373-1.074-3.787-2.4-6.578-4.158-6.555-4.133-9.3-6.251-12.11-8.821a6.146,6.146,0,0,1-1.659-6.468c3.226-.038,6.374-.056,9.6-.094" transform="translate(-27.807 -835.022)" fill="#e2a18d"/>
        <path id="Trazado_901456" data-name="Trazado 901456" d="M149.105,904.636a.08.08,0,0,1-.049-.017c-.908-.707-1.475-1.151-1.787-1.4a.08.08,0,0,1,.1-.126c.311.247.879.691,1.786,1.4a.08.08,0,0,1-.049.144" transform="translate(-135.304 -830.335)" fill="#363e44"/>
        <path id="Trazado_901457" data-name="Trazado 901457" d="M337.376,1067.306a.08.08,0,0,1-.06-.134l.576-.643a.08.08,0,0,1,.12.107l-.576.643a.08.08,0,0,1-.06.027" transform="translate(-310.071 -980.612)" fill="#363e44"/>
        <path id="Trazado_901458" data-name="Trazado 901458" d="M319.241,1087.623a.08.08,0,0,1-.06-.134l.576-.643a.08.08,0,0,1,.12.107l-.576.643a.08.08,0,0,1-.06.027" transform="translate(-293.395 -999.296)" fill="#363e44"/>
        <path id="Trazado_901459" data-name="Trazado 901459" d="M301,1108.516a.079.079,0,0,1-.054-.021.08.08,0,0,1-.006-.114l.576-.643a.08.08,0,0,1,.12.107l-.576.643a.08.08,0,0,1-.06.027" transform="translate(-276.625 -1018.507)" fill="#363e44"/>
        <path id="Trazado_901460" data-name="Trazado 901460" d="M284.074,1127.123a.08.08,0,0,1-.06-.134l.576-.643a.08.08,0,0,1,.12.107l-.576.643a.08.08,0,0,1-.06.027" transform="translate(-261.057 -1035.617)" fill="#363e44"/>
        <path id="Trazado_901461" data-name="Trazado 901461" d="M270.222,612.948c.3,1.02-1.364,2.417-3.725,3.121s-4.522.448-4.826-.572,1.364-2.417,3.725-3.121,4.522-.448,4.826.572" transform="translate(-240.498 -562.656)" fill="#e2a18d"/>
        <path id="Trazado_901462" data-name="Trazado 901462" d="M257.225,475.57c-.989,1.265-5.253-.1-5.253-.1l-3.291-3.636a4.089,4.089,0,1,1,7.838-2.336s1.714,4.782.707,6.07" transform="translate(-228.427 -428.953)" fill="#e2a18d"/>
        <rect id="Rectángulo_404833" data-name="Rectángulo 404833" width="4.955" height="10.338" transform="translate(20.24 42.84) rotate(-16.601)" fill="#e2a18d"/>
        <path id="Trazado_901463" data-name="Trazado 901463" d="M346.283,517.376s1.442.824,1.475,1.145c.038.384-1.12.97-1.12.97s-.325-2.121-.355-2.115" transform="translate(-318.335 -475.664)" fill="#e2a18d"/>
        <path id="Trazado_901464" data-name="Trazado 901464" d="M301.7,519.42a3.551,3.551,0,0,1,1.342-.784c.168-.05.252,1.391.07,1.362a3.559,3.559,0,0,1-1.411-.578" transform="translate(-277.341 -476.821)" fill="#fff"/>
      </g>
    </g>
    <g id="Grupo_1111636" data-name="Grupo 1111636" transform="translate(24.165 41.512)">
      <g id="Grupo_1111635" data-name="Grupo 1111635" clip-path="url(#clip-path-2)">
        <path id="Trazado_901465" data-name="Trazado 901465" d="M316.742,509.715a1.4,1.4,0,1,1,.565,1.894,1.4,1.4,0,0,1-.565-1.894" transform="translate(-315.378 -509.654)" fill="#363e44"/>
      </g>
    </g>
    <g id="Grupo_1111638" data-name="Grupo 1111638" transform="translate(-0.196 -0.196)">
      <g id="Grupo_1111637" data-name="Grupo 1111637" clip-path="url(#clip-path)">
        <path id="Trazado_901467" data-name="Trazado 901467" d="M331.747,549.706a.646.646,0,0,1-.183-.026.659.659,0,0,1-.46-.517.08.08,0,0,1,.159-.028.492.492,0,0,0,.86.237.08.08,0,1,1,.122.1.658.658,0,0,1-.5.229" transform="translate(-304.376 -504.806)" fill="#363e44"/>
        <path id="Trazado_901468" data-name="Trazado 901468" d="M294.444,577.775a14.1,14.1,0,0,1-3.584-.639.08.08,0,0,1,.049-.153,12.594,12.594,0,0,0,4.061.6.081.081,0,0,1,.018.16,4.862,4.862,0,0,1-.544.029" transform="translate(-267.32 -530.472)" fill="#363e44"/>
        <path id="Trazado_901469" data-name="Trazado 901469" d="M234.633,465.373c-1.168-.56-1.526-3.312-.809-5.076a5.991,5.991,0,0,1,5.775-3.432,2.882,2.882,0,0,1,2.155,1.065c.315.591-.285,1.82-1.3,2.173-1.429.5-3.432.166-2.692,1.795,2.243,4.935-1.844,4.09-3.127,3.475" transform="translate(-214.584 -420.005)" fill="#363e44"/>
        <path id="Trazado_901470" data-name="Trazado 901470" d="M65.743,436.18a8.58,8.58,0,1,1-8.58-8.58,8.58,8.58,0,0,1,8.58,8.58" transform="translate(-44.586 -393.11)" fill="#363e44"/>
        <path id="Trazado_901471" data-name="Trazado 901471" d="M311.135,508.267a1.7,1.7,0,0,1-1.546-1.51,1.934,1.934,0,0,1,.217-1.3,1.366,1.366,0,0,1,.952-.689,1.642,1.642,0,0,1,1.754,1.492,1.935,1.935,0,0,1-.217,1.3,1.366,1.366,0,0,1-.952.689,1.258,1.258,0,0,1-.209.017m-.167-3.351a1.1,1.1,0,0,0-.183.015,1.208,1.208,0,0,0-.84.612,1.773,1.773,0,0,0-.2,1.187,1.484,1.484,0,0,0,1.569,1.36,1.208,1.208,0,0,0,.84-.612,1.773,1.773,0,0,0,.2-1.187,1.535,1.535,0,0,0-1.386-1.376" transform="translate(-284.567 -464.059)" fill="#fff"/>
        <path id="Trazado_901472" data-name="Trazado 901472" d="M281.869,529.09a.08.08,0,0,1-.02-.158l2.131-.561a.08.08,0,1,1,.041.156l-2.131.561-.021,0" transform="translate(-259.03 -485.772)" fill="#fff"/>
        <path id="Trazado_901473" data-name="Trazado 901473" d="M344.6,516a.081.081,0,0,1-.066-.127.621.621,0,0,1,.9-.145.08.08,0,1,1-.091.133.466.466,0,0,0-.674.1.08.08,0,0,1-.066.034" transform="translate(-316.717 -474.03)" fill="#fff"/>
        <path id="Trazado_901474" data-name="Trazado 901474" d="M89.245,429.067a6.81,6.81,0,1,1,6.81-6.81,6.817,6.817,0,0,1-6.81,6.81m0-13.458a6.649,6.649,0,1,0,6.649,6.649,6.656,6.656,0,0,0-6.649-6.649" transform="translate(-75.714 -381.936)" fill="#363e44"/>
        <path id="Trazado_901475" data-name="Trazado 901475" d="M113.381,575.631a6.222,6.222,0,0,1-5.605-3.556.08.08,0,1,1,.146-.069,6.034,6.034,0,0,0,11.22-.774.08.08,0,0,1,.154.048,6.165,6.165,0,0,1-5.914,4.351" transform="translate(-99.009 -525.135)" fill="#fff"/>
        <path id="Trazado_901476" data-name="Trazado 901476" d="M1433.676,1594.955c0,1.913,4.9,3.464,10.942,3.464s10.942-1.551,10.942-3.464-4.9-3.464-10.942-3.464-10.942,1.551-10.942,3.464" transform="translate(-1318.248 -1463.366)" fill="#e0aa63"/>
        <rect id="Rectángulo_404835" data-name="Rectángulo 404835" width="21.885" height="3.569" transform="translate(115.428 128.138)" fill="#e0aa63"/>
        <path id="Trazado_901477" data-name="Trazado 901477" d="M1433.676,1552.9c0,1.913,4.9,3.464,10.942,3.464s10.942-1.551,10.942-3.464-4.9-3.464-10.942-3.464-10.942,1.551-10.942,3.464" transform="translate(-1318.248 -1424.697)" fill="#efbc73"/>
        <path id="Trazado_901478" data-name="Trazado 901478" d="M1427.674,1555.528a26.783,26.783,0,0,1-7.762-1.019c-2.1-.666-3.261-1.563-3.261-2.526s1.158-1.86,3.261-2.526a30.083,30.083,0,0,1,15.523,0c2.1.666,3.261,1.563,3.261,2.526s-1.158,1.861-3.261,2.526a26.785,26.785,0,0,1-7.762,1.019m0-6.928a26.628,26.628,0,0,0-7.713,1.011c-2,.634-3.149,1.5-3.149,2.373s1.148,1.739,3.149,2.373a29.936,29.936,0,0,0,15.426,0c2-.634,3.149-1.5,3.149-2.373s-1.148-1.739-3.149-2.373a26.628,26.628,0,0,0-7.713-1.011" transform="translate(-1302.592 -1423.778)" fill="#fff"/>
        <path id="Trazado_901479" data-name="Trazado 901479" d="M1405.634,1524.868c0,1.913,4.9,3.464,10.942,3.464s10.942-1.551,10.942-3.464-4.9-3.464-10.942-3.464-10.942,1.551-10.942,3.464" transform="translate(-1292.462 -1398.918)" fill="#e0aa63"/>
        <rect id="Rectángulo_404836" data-name="Rectángulo 404836" width="21.885" height="3.569" transform="translate(113.172 122.499)" fill="#e0aa63"/>
        <path id="Trazado_901480" data-name="Trazado 901480" d="M1405.634,1482.816c0,1.913,4.9,3.464,10.942,3.464s10.942-1.551,10.942-3.464-4.9-3.464-10.942-3.464-10.942,1.551-10.942,3.464" transform="translate(-1292.462 -1360.249)" fill="#efbc73"/>
        <path id="Trazado_901481" data-name="Trazado 901481" d="M1399.633,1485.441a26.789,26.789,0,0,1-7.762-1.018c-2.1-.666-3.261-1.563-3.261-2.526s1.158-1.86,3.261-2.526a30.09,30.09,0,0,1,15.523,0c2.1.666,3.261,1.563,3.261,2.526s-1.158,1.86-3.261,2.526a26.788,26.788,0,0,1-7.762,1.018m0-6.928a26.631,26.631,0,0,0-7.713,1.011c-2,.634-3.149,1.5-3.149,2.373s1.148,1.739,3.149,2.373a29.931,29.931,0,0,0,15.426,0c2-.633,3.149-1.5,3.149-2.373s-1.148-1.739-3.149-2.373a26.631,26.631,0,0,0-7.713-1.011" transform="translate(-1276.807 -1359.329)" fill="#fff"/>
        <path id="Trazado_901482" data-name="Trazado 901482" d="M1433.676,1454.781c0,1.913,4.9,3.464,10.942,3.464s10.942-1.551,10.942-3.464-4.9-3.464-10.942-3.464-10.942,1.551-10.942,3.464" transform="translate(-1318.248 -1334.469)" fill="#e0aa63"/>
        <rect id="Rectángulo_404837" data-name="Rectángulo 404837" width="21.885" height="3.569" transform="translate(115.428 116.861)" fill="#e0aa63"/>
        <path id="Trazado_901483" data-name="Trazado 901483" d="M1433.676,1412.728c0,1.913,4.9,3.464,10.942,3.464s10.942-1.551,10.942-3.464-4.9-3.464-10.942-3.464-10.942,1.551-10.942,3.464" transform="translate(-1318.248 -1295.8)" fill="#efbc73"/>
        <path id="Trazado_901484" data-name="Trazado 901484" d="M1427.674,1415.353a26.792,26.792,0,0,1-7.762-1.018c-2.1-.666-3.261-1.563-3.261-2.526s1.158-1.86,3.261-2.526a30.09,30.09,0,0,1,15.523,0c2.1.666,3.261,1.563,3.261,2.526s-1.158,1.86-3.261,2.526a26.794,26.794,0,0,1-7.762,1.018m0-6.928a26.624,26.624,0,0,0-7.713,1.011c-2,.634-3.149,1.5-3.149,2.373s1.148,1.739,3.149,2.373a29.936,29.936,0,0,0,15.426,0c2-.634,3.149-1.5,3.149-2.373s-1.148-1.739-3.149-2.373a26.623,26.623,0,0,0-7.713-1.011" transform="translate(-1302.592 -1294.88)" fill="#fff"/>
        <path id="Trazado_901485" data-name="Trazado 901485" d="M1389.61,1392.451c0,1.913,4.9,3.464,10.943,3.464s10.942-1.551,10.942-3.464-4.9-3.464-10.942-3.464-10.943,1.551-10.943,3.464" transform="translate(-1277.726 -1277.154)" fill="#e0aa63"/>
        <rect id="Rectángulo_404838" data-name="Rectángulo 404838" width="21.885" height="3.569" transform="translate(111.883 111.846)" fill="#e0aa63"/>
        <path id="Trazado_901486" data-name="Trazado 901486" d="M1389.61,1350.4c0,1.913,4.9,3.464,10.943,3.464s10.942-1.551,10.942-3.464-4.9-3.464-10.942-3.464-10.943,1.551-10.943,3.464" transform="translate(-1277.726 -1238.485)" fill="#efbc73"/>
        <path id="Trazado_901487" data-name="Trazado 901487" d="M1383.609,1353.024a26.8,26.8,0,0,1-7.762-1.018c-2.1-.666-3.261-1.563-3.261-2.526s1.158-1.86,3.261-2.526a30.084,30.084,0,0,1,15.524,0c2.1.666,3.261,1.563,3.261,2.526s-1.158,1.86-3.261,2.526a26.794,26.794,0,0,1-7.762,1.018m0-6.928a26.625,26.625,0,0,0-7.713,1.011c-2,.633-3.149,1.5-3.149,2.373s1.148,1.739,3.149,2.373a29.929,29.929,0,0,0,15.427,0c2-.633,3.149-1.5,3.149-2.373s-1.148-1.739-3.149-2.373a26.625,26.625,0,0,0-7.713-1.011" transform="translate(-1262.072 -1237.565)" fill="#fff"/>
        <path id="Trazado_901488" data-name="Trazado 901488" d="M1428.816,1343.674c0,1.913,4.9,3.464,10.943,3.464s10.942-1.551,10.942-3.464-4.9-3.464-10.942-3.464-10.943,1.551-10.943,3.464" transform="translate(-1313.779 -1232.301)" fill="#e0aa63"/>
        <rect id="Rectángulo_404839" data-name="Rectángulo 404839" width="21.885" height="3.569" transform="translate(115.037 107.922)" fill="#e0aa63"/>
        <path id="Trazado_901489" data-name="Trazado 901489" d="M1428.816,1301.622c0,1.913,4.9,3.464,10.943,3.464s10.942-1.551,10.942-3.464-4.9-3.464-10.942-3.464-10.943,1.551-10.943,3.464" transform="translate(-1313.779 -1193.632)" fill="#efbc73"/>
        <path id="Trazado_901490" data-name="Trazado 901490" d="M1422.815,1304.247a26.791,26.791,0,0,1-7.762-1.018c-2.1-.666-3.261-1.563-3.261-2.526s1.158-1.86,3.261-2.526a30.09,30.09,0,0,1,15.523,0c2.1.666,3.261,1.563,3.261,2.526s-1.158,1.861-3.261,2.526a26.792,26.792,0,0,1-7.762,1.018m0-6.928a26.628,26.628,0,0,0-7.713,1.011c-2,.634-3.149,1.5-3.149,2.373s1.148,1.739,3.149,2.373a29.933,29.933,0,0,0,15.427,0c2-.634,3.149-1.5,3.149-2.373s-1.148-1.739-3.149-2.373a26.631,26.631,0,0,0-7.714-1.011" transform="translate(-1298.124 -1192.712)" fill="#fff"/>
        <path id="Trazado_901491" data-name="Trazado 901491" d="M1456.857,1273.587c0,1.913,4.9,3.464,10.942,3.464s10.943-1.551,10.943-3.464-4.9-3.464-10.943-3.464-10.942,1.551-10.942,3.464" transform="translate(-1339.564 -1167.853)" fill="#e0aa63"/>
        <rect id="Rectángulo_404840" data-name="Rectángulo 404840" width="21.885" height="3.569" transform="translate(117.293 102.284)" fill="#e0aa63"/>
        <path id="Trazado_901492" data-name="Trazado 901492" d="M1456.857,1231.534c0,1.913,4.9,3.464,10.942,3.464s10.943-1.551,10.943-3.464-4.9-3.464-10.943-3.464-10.942,1.551-10.942,3.464" transform="translate(-1339.564 -1129.182)" fill="#efbc73"/>
        <path id="Trazado_901493" data-name="Trazado 901493" d="M1450.857,1234.159a26.791,26.791,0,0,1-7.762-1.018c-2.1-.666-3.261-1.563-3.261-2.526s1.158-1.86,3.261-2.526a30.09,30.09,0,0,1,15.523,0c2.1.666,3.261,1.563,3.261,2.526s-1.158,1.86-3.261,2.526a26.793,26.793,0,0,1-7.762,1.018m0-6.928a26.632,26.632,0,0,0-7.713,1.011c-2,.634-3.149,1.5-3.149,2.373s1.148,1.739,3.149,2.373a29.932,29.932,0,0,0,15.426,0c2-.633,3.149-1.5,3.149-2.373s-1.148-1.739-3.149-2.373a26.632,26.632,0,0,0-7.713-1.011" transform="translate(-1323.91 -1128.263)" fill="#fff"/>
        <path id="Trazado_901494" data-name="Trazado 901494" d="M1436.435,1210.314c0,1.913,4.9,3.464,10.943,3.464s10.943-1.551,10.943-3.464-4.9-3.464-10.943-3.464-10.943,1.551-10.943,3.464" transform="translate(-1320.785 -1109.67)" fill="#e0aa63"/>
        <rect id="Rectángulo_404841" data-name="Rectángulo 404841" width="21.885" height="3.569" transform="translate(115.65 97.193)" fill="#e0aa63"/>
        <path id="Trazado_901495" data-name="Trazado 901495" d="M1436.435,1168.261c0,1.913,4.9,3.464,10.943,3.464s10.943-1.551,10.943-3.464-4.9-3.464-10.943-3.464-10.943,1.551-10.943,3.464" transform="translate(-1320.785 -1071)" fill="#efbc73"/>
        <path id="Trazado_901496" data-name="Trazado 901496" d="M1430.434,1170.886a26.792,26.792,0,0,1-7.762-1.018c-2.1-.666-3.261-1.563-3.261-2.526s1.158-1.86,3.261-2.526a30.09,30.09,0,0,1,15.523,0c2.1.666,3.261,1.563,3.261,2.526s-1.158,1.86-3.261,2.526a26.793,26.793,0,0,1-7.762,1.018m0-6.928a26.628,26.628,0,0,0-7.713,1.011c-2,.634-3.149,1.5-3.149,2.373s1.148,1.739,3.149,2.373a29.932,29.932,0,0,0,15.426,0c2-.633,3.149-1.5,3.149-2.373s-1.148-1.739-3.149-2.373a26.628,26.628,0,0,0-7.713-1.011" transform="translate(-1305.13 -1070.08)" fill="#fff"/>
        <path id="Trazado_901497" data-name="Trazado 901497" d="M1139.3,1596.173c0,1.913,4.9,3.464,10.942,3.464s10.942-1.551,10.942-3.464-4.9-3.464-10.942-3.464-10.942,1.551-10.942,3.464" transform="translate(-1047.558 -1464.486)" fill="#e0aa63"/>
        <rect id="Rectángulo_404842" data-name="Rectángulo 404842" width="21.885" height="3.569" transform="translate(91.746 128.236)" fill="#e0aa63"/>
        <path id="Trazado_901498" data-name="Trazado 901498" d="M1139.3,1554.12c0,1.913,4.9,3.464,10.942,3.464s10.942-1.551,10.942-3.464-4.9-3.464-10.942-3.464-10.942,1.551-10.942,3.464" transform="translate(-1047.558 -1425.816)" fill="#efbc73"/>
        <path id="Trazado_901499" data-name="Trazado 901499" d="M1133.3,1556.745a26.793,26.793,0,0,1-7.762-1.018c-2.1-.666-3.261-1.563-3.261-2.526s1.158-1.86,3.261-2.526a30.09,30.09,0,0,1,15.524,0c2.1.666,3.261,1.563,3.261,2.526s-1.158,1.86-3.261,2.526a26.793,26.793,0,0,1-7.762,1.018m0-6.928a26.633,26.633,0,0,0-7.713,1.011c-2,.634-3.149,1.5-3.149,2.373s1.148,1.739,3.149,2.373a29.936,29.936,0,0,0,15.426,0c2-.634,3.149-1.5,3.149-2.373s-1.148-1.739-3.149-2.373a26.633,26.633,0,0,0-7.713-1.011" transform="translate(-1031.903 -1424.897)" fill="#fff"/>
        <path id="Trazado_901500" data-name="Trazado 901500" d="M1111.262,1525.959c0,1.908,4.9,3.455,10.942,3.455s10.942-1.547,10.942-3.455-4.9-3.454-10.942-3.454-10.942,1.547-10.942,3.454" transform="translate(-1021.772 -1399.93)" fill="#e0aa63"/>
        <rect id="Rectángulo_404843" data-name="Rectángulo 404843" width="21.885" height="3.559" transform="translate(89.49 122.588)" fill="#e0aa63"/>
        <path id="Trazado_901501" data-name="Trazado 901501" d="M1111.262,1484.023c0,1.908,4.9,3.455,10.942,3.455s10.942-1.547,10.942-3.455-4.9-3.454-10.942-3.454-10.942,1.547-10.942,3.454" transform="translate(-1021.772 -1361.367)" fill="#efbc73"/>
        <path id="Trazado_901502" data-name="Trazado 901502" d="M1105.261,1486.639a26.863,26.863,0,0,1-7.762-1.016c-2.1-.664-3.261-1.559-3.261-2.519s1.158-1.855,3.261-2.519a30.167,30.167,0,0,1,15.524,0c2.1.664,3.261,1.559,3.261,2.519s-1.158,1.855-3.261,2.519a26.863,26.863,0,0,1-7.762,1.016m0-6.909a26.7,26.7,0,0,0-7.713,1.008c-2,.632-3.149,1.494-3.149,2.366s1.148,1.734,3.149,2.366a30.013,30.013,0,0,0,15.426,0c2-.632,3.149-1.494,3.149-2.366s-1.148-1.734-3.149-2.366a26.7,26.7,0,0,0-7.713-1.008" transform="translate(-1006.117 -1360.448)" fill="#fff"/>
        <path id="Trazado_901503" data-name="Trazado 901503" d="M1230.789,1355.438c1.359,1.346,5.909-1.042,10.162-5.334s6.6-8.864,5.24-10.21-5.909,1.042-10.162,5.334-6.6,8.864-5.239,10.21" transform="translate(-1131.327 -1231.665)" fill="#e0aa63"/>
        <rect id="Rectángulo_404844" data-name="Rectángulo 404844" width="21.882" height="3.569" transform="matrix(0.704, -0.71, 0.71, 0.704, 97.009, 121.344)" fill="#e0aa63"/>
        <path id="Trazado_901504" data-name="Trazado 901504" d="M1200.906,1325.843c1.36,1.346,5.909-1.042,10.162-5.334s6.6-8.863,5.239-10.21-5.909,1.042-10.162,5.334-6.6,8.863-5.239,10.21" transform="translate(-1103.849 -1204.451)" fill="#efbc73"/>
        <path id="Trazado_901505" data-name="Trazado 901505" d="M1189.8,1336.763a1.571,1.571,0,0,1-1.147-.4c-.684-.678-.507-2.132.5-4.094a30.074,30.074,0,0,1,10.925-11.026c1.953-1.025,3.405-1.216,4.09-.538s.507,2.132-.5,4.094a30.082,30.082,0,0,1-10.925,11.026,6.816,6.816,0,0,1-2.943.937m13.223-16.291a6.689,6.689,0,0,0-2.87.915,29.923,29.923,0,0,0-10.857,10.957c-.958,1.867-1.151,3.291-.53,3.906s2.044.409,3.9-.567a29.918,29.918,0,0,0,10.856-10.957c.958-1.867,1.151-3.291.53-3.906a1.416,1.416,0,0,0-1.032-.349" transform="translate(-1092.561 -1214)" fill="#fff"/>
      </g>
    </g>
  </g>
</svg>
