<svg xmlns="http://www.w3.org/2000/svg" width="505" height="307" viewBox="0 0 505 307">
  <g id="Grupo_1111812" data-name="Grupo 1111812" transform="translate(-810.051 -4131)">
    <g id="Grupo_1111606" data-name="Grupo 1111606" transform="translate(-85.102 2392)">
      <rect id="Rectángulo_404659" data-name="Rectángulo 404659" width="505" height="307" transform="translate(895.152 1739)" fill="#fed6a8"/>
    </g>
    <g id="Grupo_68414" data-name="Grupo 68414" transform="translate(797.03 -205.389)">
      <rect id="Rectángulo_31400" data-name="Rectángulo 31400" width="171" height="255" transform="translate(180.021 4362.297)" fill="none"/>
      <g id="Grupo_63545" data-name="Grupo 63545" transform="translate(286.316 4544.155)">
        <g id="Grupo_63544" data-name="Grupo 63544">
          <path id="Trazado_140317" data-name="Trazado 140317" d="M1641.11,4355.04v9.949h2.3a13.817,13.817,0,0,1,0-3.174c.218-1.191,2.715-4.2,2.639-6.795Z" transform="translate(-1639.546 -4291.713)" fill="#aed3f2"/>
          <path id="Trazado_140318" data-name="Trazado 140318" d="M1687.43,4355.04v9.949h2.3a13.8,13.8,0,0,1,0-3.174c.218-1.191,2.711-4.2,2.639-6.795Z" transform="translate(-1667.483 -4291.713)" fill="#839eb6"/>
          <path id="Trazado_140319" data-name="Trazado 140319" d="M1725.267,4355.04v9.949h-2.286a14.083,14.083,0,0,0,0-3.174c-.222-1.191-2.715-4.2-2.643-6.795Z" transform="translate(-1687.329 -4291.713)" fill="#aed3f2"/>
          <path id="Trazado_140320" data-name="Trazado 140320" d="M1765.345,4355.04v9.949h-2.3a14.069,14.069,0,0,0,0-3.174c-.218-1.191-2.715-4.2-2.639-6.795Z" transform="translate(-1711.496 -4291.713)" fill="#839eb6"/>
          <rect id="Rectángulo_15044" data-name="Rectángulo 15044" width="55.056" height="49.44" transform="translate(0 14.209)" fill="#aed3f2"/>
          <path id="Trazado_140321" data-name="Trazado 140321" d="M2109.51,4443.964l.413,49.439h14.423V4443.96Z" transform="translate(-2069.29 -4429.755)" fill="#839eb6"/>
          <rect id="Rectángulo_15045" data-name="Rectángulo 15045" width="35.346" height="12.581" transform="translate(2.477 17.844)" fill="#aed3f2"/>
          <rect id="Rectángulo_15046" data-name="Rectángulo 15046" width="35.346" height="12.581" transform="translate(2.477 32.933)" fill="#aed3f2"/>
          <rect id="Rectángulo_15047" data-name="Rectángulo 15047" width="35.346" height="12.581" transform="translate(2.477 48.019)" fill="#aed3f2"/>
          <g id="Grupo_63543" data-name="Grupo 63543" transform="translate(14.502)">
            <path id="Trazado_140322" data-name="Trazado 140322" d="M2046.234,4408.17l-1.524,14.148h19.534l1.62-14.148Z" transform="translate(-2044.71 -4408.17)" fill="#839eb6"/>
            <path id="Trazado_140323" data-name="Trazado 140323" d="M2048.32,4410.729l-1.48,12.382h17.63l1.425-12.382Z" transform="translate(-2045.995 -4409.713)" fill="#fff"/>
            <path id="Trazado_140324" data-name="Trazado 140324" d="M2056.663,4415.979l-.913,8.216h11.125l.572-8.216Z" transform="translate(-2051.368 -4412.879)" fill="#aed3f2"/>
          </g>
          <path id="Trazado_140325" data-name="Trazado 140325" d="M2094.85,4423.52l4.036,8.112-4.957-.056.921-8.057" transform="translate(-2059.893 -4417.427)" fill="#aed3f2"/>
        </g>
        <path id="Trazado_140326" data-name="Trazado 140326" d="M1687.268,4256.034a1.294,1.294,0,1,1-1.294-1.294A1.294,1.294,0,0,1,1687.268,4256.034Z" transform="translate(-1665.824 -4231.232)" fill="#839eb6"/>
        <path id="Trazado_140327" data-name="Trazado 140327" d="M1687.268,4294.4a1.294,1.294,0,1,1-1.294-1.293A1.294,1.294,0,0,1,1687.268,4294.4Z" transform="translate(-1665.824 -4254.375)" fill="#839eb6"/>
        <path id="Trazado_140328" data-name="Trazado 140328" d="M1687.268,4332.8a1.294,1.294,0,1,1-1.294-1.294A1.294,1.294,0,0,1,1687.268,4332.8Z" transform="translate(-1665.824 -4277.534)" fill="#839eb6"/>
      </g>
      <g id="Grupo_63546" data-name="Grupo 63546" transform="translate(184.93 4453.096)">
        <path id="Trazado_140329" data-name="Trazado 140329" d="M2055.956,4241l-31.276-.3.871,40.76,31.276.115Z" transform="translate(-2024.68 -4240.7)" fill="#839eb6"/>
        <path id="Trazado_140330" data-name="Trazado 140330" d="M2056.789,4244.962l-27.379-.712.791,36.966,27.371.338Z" transform="translate(-2027.529 -4242.838)" fill="#fafafa"/>
        <path id="Trazado_140331" data-name="Trazado 140331" d="M2058.989,4259.462l-18.169-.3.557,25.839,18.149-.389Z" transform="translate(-2034.402 -4251.819)" fill="#aed3f2"/>
        <path id="Trazado_140332" data-name="Trazado 140332" d="M2041.377,4285l17.863-13.664-18.419-12.176Z" transform="translate(-2034.402 -4251.819)" fill="#aed3f2"/>
      </g>
      <g id="Grupo_63547" data-name="Grupo 63547" transform="translate(319.028 4367.646)">
        <path id="Trazado_140333" data-name="Trazado 140333" d="M2400.212,4187.637l-27.442-.267.767,35.757,27.434.1Z" transform="translate(-2372.77 -4187.37)" fill="#839eb6"/>
        <path id="Trazado_140334" data-name="Trazado 140334" d="M2400.938,4191.1l-24.019-.625.7,32.429,24.011.3Z" transform="translate(-2375.27 -4189.243)" fill="#fafafa"/>
        <path id="Trazado_140335" data-name="Trazado 140335" d="M2402.875,4203.826l-15.935-.267.485,22.67,15.923-.341Z" transform="translate(-2381.305 -4197.122)" fill="#aed3f2"/>
        <path id="Trazado_140336" data-name="Trazado 140336" d="M2387.425,4226.229l15.672-11.984-16.157-10.686Z" transform="translate(-2381.305 -4197.122)" fill="#aed3f2"/>
      </g>
      <g id="Grupo_63548" data-name="Grupo 63548" transform="translate(224.065 4582.137)">
        <path id="Trazado_140337" data-name="Trazado 140337" d="M1993.476,4313.479c-.115.35,3.977,15.906,3.977,15.906l2.807-.583-3.861-15.322Z" transform="translate(-1993.474 -4304.691)" fill="#aed3f2"/>
        <path id="Trazado_140338" data-name="Trazado 140338" d="M2410.685,4520.55l-5.615,18.129h3.277l5.38-16.845Z" transform="translate(-2388.927 -4513.985)" fill="#aed3f2"/>
        <path id="Trazado_140339" data-name="Trazado 140339" d="M2422.384,4513.48l-6.434,20.94h3.277l6.2-19.652Z" transform="translate(-2395.48 -4509.726)" fill="#aed3f2"/>
        <path id="Trazado_140340" data-name="Trazado 140340" d="M2369.48,4562.9l3.277,11.346h16.49l3.042-11.346Z" transform="translate(-2367.489 -4539.495)" fill="#839eb6"/>
        <path id="Trazado_140341" data-name="Trazado 140341" d="M2007.438,4314.787a1.125,1.125,0,0,1-.036-.115l-.088-.347c-.075-.322-.179-.768-.314-1.34l-1.133-4.955c-.942-4.211-2.247-10.029-3.7-16.522l.1.08h-2.887l.1-.124c1.467,6.5,2.783,12.328,3.726,16.535.461,2.092.835,3.786,1.093,4.967.123.577.219,1.029.291,1.348.028.147.052.262.067.354a.382.382,0,0,1,0,.119,1.081,1.081,0,0,1-.036-.115c-.024-.088-.052-.2-.088-.347-.08-.322-.187-.768-.326-1.34-.274-1.193-.668-2.867-1.157-4.955-.966-4.211-2.3-10.029-3.786-16.522l-.032-.127h3.1v.083c1.428,6.5,2.712,12.328,3.638,16.535.449,2.092.8,3.786,1.07,4.967.119.577.211,1.03.278,1.349l.068.354A.389.389,0,0,1,2007.438,4314.787Z" transform="translate(-1996.941 -4291.381)" fill="#839eb6"/>
      </g>
      <g id="Grupo_63559" data-name="Grupo 63559" transform="translate(207.891 4365.021)">
        <rect id="Rectángulo_15048" data-name="Rectángulo 15048" width="123.66" height="169.445" transform="translate(0 13.447)" fill="#5e6178"/>
        <path id="Trazado_140358" data-name="Trazado 140358" d="M2243.169,4384.973H2134.7V4232.451h108.469v152.521Z" transform="translate(-2124.4 -4212.156)" fill="#839eb6"/>
        <path id="Trazado_140359" data-name="Trazado 140359" d="M2240.746,4380.206h-107.5V4228.5h107.5v151.7Z" transform="translate(-2123.689 -4210.22)" fill="#aed3f2"/>
        <g id="Grupo_63552" data-name="Grupo 63552" transform="translate(7.48 18.551)">
          <path id="Trazado_140360" data-name="Trazado 140360" d="M2227.27,4368.769l-12.381,10.081H2129.32v-149.6h108.474v130.987Z" transform="translate(-2129.244 -4229.138)" fill="#fafafa"/>
          <path id="Trazado_140361" data-name="Trazado 140361" d="M1856.2,4156l.663-.551,1.984-1.622,7.847-6.389v.036c0-21.519-.041-69.349-.076-130.988l.117.117h-108.47l.133-.132c0,56.239,0,108.1-.031,149.594l-.1-.1,85.57.062h-.031l9.3-7.547,2.331-1.881c.51-.418.78-.622.78-.622s-.255.219-.765.642l-2.315,1.9-9.286,7.578h0l-85.569.061h-.107V4016.369h108.725v.123c-.036,61.659-.067,109.469-.076,130.987h0l-7.95,6.379-2,1.606C1856.426,4155.827,1856.2,4156,1856.2,4156Z" transform="translate(-1758.17 -4016.369)" fill="#344154"/>
        </g>
        <path id="Trazado_140362" data-name="Trazado 140362" d="M2199.766,4208.75h29.652a7.215,7.215,0,0,1,7.215,7.215v8h-44.394v-7.695a7.525,7.525,0,0,1,7.527-7.52Z" transform="translate(-2152.598 -4200.54)" fill="#d9a171"/>
        <path id="Trazado_140363" data-name="Trazado 140363" d="M2211.992,4200.86l-1.622-8.21h25.557l-1.418,8.21Z" transform="translate(-2161.485 -4192.65)" fill="#d9a171"/>
        <g id="Grupo_63553" data-name="Grupo 63553" transform="translate(18.903 42.502)">
          <path id="Trazado_140364" data-name="Trazado 140364" d="M1798.84,4081.616h-18.27V4063.34h18.27Zm-17.76-.51h17.25V4063.85h-17.25Z" transform="translate(-1780.57 -4063.34)" fill="#d9a171"/>
          <path id="Trazado_140365" data-name="Trazado 140365" d="M1888.44,4071.872c0,.077-12.748.133-28.413.133s-28.407-.056-28.407-.133,12.717-.132,28.407-.132S1888.44,4071.8,1888.44,4071.872Z" transform="translate(-1805.589 -4067.457)" fill="#344154"/>
          <path id="Trazado_140366" data-name="Trazado 140366" d="M1888.44,4079.313c0,.071-12.748.132-28.413.132s-28.407-.061-28.407-.132,12.717-.133,28.407-.133S1888.44,4079.236,1888.44,4079.313Z" transform="translate(-1805.589 -4071.103)" fill="#344154"/>
          <path id="Trazado_140367" data-name="Trazado 140367" d="M1888.44,4086.763c0,.071-12.748.133-28.413.133s-28.407-.062-28.407-.133,12.717-.132,28.407-.132S1888.44,4086.686,1888.44,4086.763Z" transform="translate(-1805.589 -4074.754)" fill="#344154"/>
          <path id="Trazado_140368" data-name="Trazado 140368" d="M1888.44,4094.2c0,.076-12.748.132-28.413.132s-28.407-.056-28.407-.132,12.717-.133,28.407-.133S1888.44,4094.131,1888.44,4094.2Z" transform="translate(-1805.589 -4078.4)" fill="#344154"/>
        </g>
        <g id="Grupo_63554" data-name="Grupo 63554" transform="translate(18.903 70.665)">
          <path id="Trazado_140369" data-name="Trazado 140369" d="M1798.84,4136.845h-18.27V4118.57h18.27Zm-17.76-.509h17.25V4119.08h-17.25Z" transform="translate(-1780.57 -4118.57)" fill="#d9a171"/>
          <path id="Trazado_140370" data-name="Trazado 140370" d="M2158.69,4341.852l2.427-2.6,4.044,3.238,9.255-8.985,2.218,2.61-11.651,11.494Z" transform="translate(-2155.059 -4332.343)" fill="#d9a171"/>
          <path id="Trazado_140371" data-name="Trazado 140371" d="M1888.44,4127.093c0,.076-12.748.132-28.413.132s-28.407-.056-28.407-.132,12.717-.132,28.407-.132S1888.44,4127.021,1888.44,4127.093Z" transform="translate(-1805.589 -4122.682)" fill="#344154"/>
          <path id="Trazado_140372" data-name="Trazado 140372" d="M1888.44,4134.543c0,.076-12.748.132-28.413.132s-28.407-.056-28.407-.132,12.717-.133,28.407-.133S1888.44,4134.472,1888.44,4134.543Z" transform="translate(-1805.589 -4126.333)" fill="#344154"/>
          <path id="Trazado_140373" data-name="Trazado 140373" d="M1888.44,4141.993c0,.072-12.748.133-28.413.133s-28.407-.062-28.407-.133,12.717-.132,28.407-.132S1888.44,4141.932,1888.44,4141.993Z" transform="translate(-1805.589 -4129.984)" fill="#344154"/>
          <path id="Trazado_140374" data-name="Trazado 140374" d="M1888.44,4149.443c0,.071-12.748.132-28.413.132s-28.407-.061-28.407-.132,12.717-.133,28.407-.133S1888.44,4149.366,1888.44,4149.443Z" transform="translate(-1805.589 -4133.635)" fill="#344154"/>
        </g>
        <g id="Grupo_63555" data-name="Grupo 63555" transform="translate(18.903 43.719)">
          <path id="Trazado_140375" data-name="Trazado 140375" d="M1798.84,4190.286h-18.27V4172h18.27Zm-17.76-.511h17.25V4172.51h-17.25Z" transform="translate(-1780.57 -4117.81)" fill="#d9a171"/>
          <path id="Trazado_140376" data-name="Trazado 140376" d="M2158.69,4395.3l2.427-2.6,4.044,3.238,9.255-8.99,2.218,2.616-11.651,11.493Z" transform="translate(-2155.059 -4386.94)" fill="#d9a171"/>
          <path id="Trazado_140377" data-name="Trazado 140377" d="M1888.44,4180.543c0,.076-12.748.132-28.413.132s-28.407-.056-28.407-.132,12.717-.133,28.407-.133S1888.44,4180.472,1888.44,4180.543Z" transform="translate(-1805.589 -4121.932)" fill="#344154"/>
          <path id="Trazado_140378" data-name="Trazado 140378" d="M1888.44,4187.993c0,.072-12.748.133-28.413.133s-28.407-.062-28.407-.133,12.717-.132,28.407-.132S1888.44,4187.932,1888.44,4187.993Z" transform="translate(-1805.589 -4125.583)" fill="#344154"/>
          <path id="Trazado_140379" data-name="Trazado 140379" d="M1888.44,4195.443c0,.071-12.748.132-28.413.132s-28.407-.061-28.407-.132,12.717-.133,28.407-.133S1888.44,4195.366,1888.44,4195.443Z" transform="translate(-1805.589 -4129.234)" fill="#344154"/>
          <path id="Trazado_140380" data-name="Trazado 140380" d="M1888.44,4202.873c0,.077-12.748.133-28.413.133s-28.407-.056-28.407-.133,12.717-.132,28.407-.132S1888.44,4202.807,1888.44,4202.873Z" transform="translate(-1805.589 -4132.875)" fill="#344154"/>
        </g>
        <g id="Grupo_63556" data-name="Grupo 63556" transform="translate(18.903 124.231)">
          <path id="Trazado_140381" data-name="Trazado 140381" d="M1798.84,4241.9h-18.27v-18.275h18.27Zm-17.76-.51h17.25V4224.13h-17.25Z" transform="translate(-1780.57 -4223.621)" fill="#d9a171"/>
          <path id="Trazado_140382" data-name="Trazado 140382" d="M2158.69,4446.907l2.427-2.6,4.044,3.232,9.255-8.985,2.218,2.616-11.651,11.494Z" transform="translate(-2155.059 -4437.393)" fill="#d9a171"/>
          <path id="Trazado_140383" data-name="Trazado 140383" d="M1888.44,4232.153c0,.071-12.748.132-28.413.132s-28.407-.061-28.407-.132,12.717-.133,28.407-.133S1888.44,4232.076,1888.44,4232.153Z" transform="translate(-1805.589 -4227.737)" fill="#344154"/>
          <path id="Trazado_140384" data-name="Trazado 140384" d="M1888.44,4239.6c0,.071-12.748.132-28.413.132s-28.407-.061-28.407-.132,12.717-.132,28.407-.132S1888.44,4239.526,1888.44,4239.6Z" transform="translate(-1805.589 -4231.388)" fill="#344154"/>
          <path id="Trazado_140385" data-name="Trazado 140385" d="M1888.44,4247.043c0,.077-12.748.132-28.413.132s-28.407-.055-28.407-.132,12.717-.132,28.407-.132S1888.44,4246.957,1888.44,4247.043Z" transform="translate(-1805.589 -4235.035)" fill="#344154"/>
          <path id="Trazado_140386" data-name="Trazado 140386" d="M1888.44,4254.493c0,.071-12.748.132-28.413.132s-28.407-.062-28.407-.132,12.717-.133,28.407-.133S1888.44,4254.421,1888.44,4254.493Z" transform="translate(-1805.589 -4238.685)" fill="#344154"/>
        </g>
        <path id="Trazado_140387" data-name="Trazado 140387" d="M2292.371,4474.06l-11.891,24.629h8.49Z" transform="translate(-2195.844 -4330.564)" fill="#839eb6"/>
        <g id="Grupo_63557" data-name="Grupo 63557" transform="translate(93.115 143.486)">
          <path id="Trazado_140388" data-name="Trazado 140388" d="M2297.13,4498.959l3.4-24.629,19.5,6.017Z" transform="translate(-2297.119 -4474.183)" fill="#fafafa"/>
          <path id="Trazado_140389" data-name="Trazado 140389" d="M1926.119,4286.172l6.558-5.4,16.261-13.314.046.225-7.531-2.32-11.968-3.7.158-.1c-1.02,7.138-1.892,13.283-2.514,17.637-.612,4.232-.928,6.42-1.02,6.971a1.041,1.041,0,0,1,0-.107l.046-.341c.041-.317.1-.765.174-1.341.158-1.193.382-2.917.668-5.074.592-4.4,1.417-10.57,2.381-17.781v-.147l.138.046,11.978,3.686,7.526,2.325.235.072-.189.153-16.46,13.258-4.809,3.865-1.285,1.02c-.133.112-.245.194-.326.26S1926.119,4286.172,1926.119,4286.172Z" transform="translate(-1926.107 -4261.38)" fill="#344154"/>
        </g>
        <g id="Grupo_63558" data-name="Grupo 63558" transform="translate(71.271 0)" opacity="0.3">
          <path id="Trazado_140390" data-name="Trazado 140390" d="M2255.677,4192.65l-1.407,8.21h1.754l1.418-8.21h-2.234" transform="translate(-2254.27 -4192.65)" fill="#d9a171"/>
        </g>
      </g>
      <g id="Grupo_63576" data-name="Grupo 63576" transform="translate(183.035 4460.725)">
        <g id="Grupo_63560" data-name="Grupo 63560" transform="translate(12.487 4.103)">
          <path id="Trazado_140391" data-name="Trazado 140391" d="M1735.5,4123.577h0a4.589,4.589,0,0,0,4.931-4.4c.1-2.494.184-5.018.184-5.018s3.784-.357,4.079-4.079.148-12.391.148-12.391h0a13.053,13.053,0,0,0-13.187.846l.229,13.181v7.088C1731.894,4121.166,1733.134,4123.394,1735.5,4123.577Z" transform="translate(-1723.75 -4089.508)" fill="#ffbf9d"/>
          <path id="Trazado_140392" data-name="Trazado 140392" d="M1739.052,4102.418a1.917,1.917,0,0,0-2.549-.556,2.172,2.172,0,0,0-.724,2.718,2.86,2.86,0,0,0,1.836,1.393,1.437,1.437,0,0,1,1.127,1.529,4.81,4.81,0,0,1-1.316,2.611,6.926,6.926,0,0,1-4.334,2.039c-1.6.188-3.422-.147-4.35-1.458a5.922,5.922,0,0,1-.749-3.366q-.088-4.145-.174-8.286a12.089,12.089,0,0,1,.188-2.974,4.007,4.007,0,0,1,1.571-2.457,12.1,12.1,0,0,1,3.1-.984,25.239,25.239,0,0,0,3.615-1.9,4.428,4.428,0,0,1,3.916-.377c.877.439,1.463,1.311,2.31,1.8,1.214.688,2.861.51,3.447,2.31a3.014,3.014,0,0,1,0,1.907,4.4,4.4,0,0,1-5.981,2.351,5.892,5.892,0,0,1-.071,2.622c-.138.413-.184,1.045-.831,1.055" transform="translate(-1721.857 -4086.44)" fill="#344154"/>
          <path id="Trazado_140393" data-name="Trazado 140393" d="M1723.5,4091.258a12.733,12.733,0,0,0,1.2-3.763,4.312,4.312,0,0,0-1.178-3.635,3.569,3.569,0,0,0-2.468-.872,4.165,4.165,0,0,0-3.763,2.978,4.49,4.49,0,0,0,1.53,4.589,4.879,4.879,0,0,0,4.854.632" transform="translate(-1716.646 -4082.986)" fill="#344154"/>
          <path id="Trazado_140394" data-name="Trazado 140394" d="M1729.294,4096.529a1.847,1.847,0,0,1-1.775,1.734,6.938,6.938,0,0,0,1.02-.715,7.912,7.912,0,0,0,.755-1.019Z" transform="translate(-1721.721 -4089.623)" fill="#d9a171"/>
          <path id="Trazado_140395" data-name="Trazado 140395" d="M1724.527,4095.051a3.573,3.573,0,0,1-1.02.745,2.875,2.875,0,0,1-1.336.377,1.854,1.854,0,0,1-1.565-.7,2.069,2.069,0,0,1-.275-1.693,3.281,3.281,0,0,1,.627-1.239,3.812,3.812,0,0,1,.887-.892c.036,0-.3.383-.734,1.02a3.379,3.379,0,0,0-.541,1.183,1.865,1.865,0,0,0,.25,1.483,1.643,1.643,0,0,0,1.346.612,2.853,2.853,0,0,0,1.259-.3C1724.108,4095.3,1724.5,4095.01,1724.527,4095.051Z" transform="translate(-1718.162 -4087.231)" fill="#344154"/>
          <path id="Trazado_140396" data-name="Trazado 140396" d="M1716.149,4102.969a1.729,1.729,0,0,1,.178.413,4.142,4.142,0,0,0,.556,1.065,1.531,1.531,0,0,0,1.463.678,2.039,2.039,0,0,0,1.413-1.422,14.355,14.355,0,0,0,.382-2.177,3.358,3.358,0,0,1,.714-1.714,1.843,1.843,0,0,1,1.091-.622.708.708,0,0,1,.459.041c0,.025-.168,0-.439.062a1.84,1.84,0,0,0-.969.643,3.3,3.3,0,0,0-.617,1.632,12.874,12.874,0,0,1-.372,2.223,2.234,2.234,0,0,1-1.616,1.576,1.5,1.5,0,0,1-1.02-.2,2.034,2.034,0,0,1-.642-.606,3.717,3.717,0,0,1-.51-1.148,1.156,1.156,0,0,1-.071-.443Z" transform="translate(-1716.149 -4090.917)" fill="#344154"/>
        </g>
        <path id="Trazado_140397" data-name="Trazado 140397" d="M1711.723,4168.291s-1.912,13.982,0,15.756a3.977,3.977,0,0,0,3.743,1.183l3.636-3.059.714-13.9Z" transform="translate(-1701.076 -4120.68)" fill="#ffbf9d"/>
        <g id="Grupo_63561" data-name="Grupo 63561" transform="translate(40.849 0)">
          <path id="Trazado_140398" data-name="Trazado 140398" d="M2160.99,4295.958l2.427-2.605,4.043,3.238,9.255-8.99,2.218,2.616-11.652,11.493Z" transform="translate(-2151.699 -4287.601)" fill="#d9a171"/>
          <path id="Trazado_140399" data-name="Trazado 140399" d="M1792.462,4092.726l-3.519,2.254c-.158-1.387-1.219-2.769-1.168-2.071s0,4.324,0,4.324l-6.277,13.2a6.24,6.24,0,0,1-3.87,3.717l-5.859,1.744,2.289,7.741,8.159-2.7a7.034,7.034,0,0,0,4.462-4.472l5.609-17.1a26.364,26.364,0,0,0,.908-3.366A6.453,6.453,0,0,0,1792.462,4092.726Z" transform="translate(-1771.77 -4083.654)" fill="#ffbf9d"/>
        </g>
        <g id="Grupo_63565" data-name="Grupo 63565" transform="translate(25.251 149.548)">
          <g id="Grupo_63563" data-name="Grupo 63563" transform="translate(0.041)">
            <path id="Trazado_140400" data-name="Trazado 140400" d="M1748.684,4372.136l-.092-3.917-7.333.117.066,5.731h.459c2.04.081,10.305.266,11.652-.168C1754.936,4373.442,1748.684,4372.136,1748.684,4372.136Z" transform="translate(-1741.26 -4368.22)" fill="#d9a171"/>
            <g id="Grupo_63562" data-name="Grupo 63562" transform="translate(0.041 3.699)" opacity="0.5">
              <path id="Trazado_140401" data-name="Trazado 140401" d="M1744.027,4377.521a2.55,2.55,0,0,0-.964-1.53,2.49,2.49,0,0,0-1.724-.509l.031,2.039Z" transform="translate(-1741.34 -4375.474)" fill="#fff"/>
            </g>
          </g>
          <g id="Grupo_63564" data-name="Grupo 63564" transform="translate(0.107 4.661)" opacity="0.4">
            <path id="Trazado_140402" data-name="Trazado 140402" d="M1751.8,4377.359s2.193.6,1.927.959-8.638.51-12.34.229v-.163l9.77-.071S1751.389,4377.385,1751.8,4377.359Z" transform="translate(-1741.39 -4377.359)" fill="#fff"/>
          </g>
          <path id="Trazado_140403" data-name="Trazado 140403" d="M1741.18,4379.158a.619.619,0,0,0,.128,0h.362l1.336.036c1.127,0,2.682.035,4.4,0s3.279-.081,4.4-.137l1.336-.077.362-.031a.367.367,0,0,0,.122,0h-.49l-1.331.046c-1.127.041-2.682.087-4.4.112s-3.274.026-4.4,0h-1.825Z" transform="translate(-1741.18 -4373.478)" fill="#344154"/>
          <path id="Trazado_140404" data-name="Trazado 140404" d="M1760.564,4378.353a2.741,2.741,0,0,1,.24-.642,2.857,2.857,0,0,1,.444-.51.973.973,0,0,0-.51.469A1.019,1.019,0,0,0,1760.564,4378.353Z" transform="translate(-1750.677 -4372.622)" fill="#344154"/>
          <path id="Trazado_140405" data-name="Trazado 140405" d="M1756.287,4376.776a1.483,1.483,0,0,0,.229-.286c.107-.173.168-.316.148-.332s-.122.117-.224.286S1756.266,4376.766,1756.287,4376.776Z" transform="translate(-1748.582 -4372.11)" fill="#344154"/>
          <path id="Trazado_140406" data-name="Trazado 140406" d="M1755.117,4376.364a1.236,1.236,0,0,0,.255-.173c.127-.111.209-.224.194-.245s-.133.062-.255.179S1755.1,4376.349,1755.117,4376.364Z" transform="translate(-1748.009 -4372.005)" fill="#344154"/>
          <path id="Trazado_140407" data-name="Trazado 140407" d="M1754.36,4375.379a.985.985,0,0,0,.382.041.822.822,0,0,0,.382-.046.8.8,0,0,0-.382-.041.836.836,0,0,0-.382.046Z" transform="translate(-1747.639 -4371.703)" fill="#344154"/>
          <path id="Trazado_140408" data-name="Trazado 140408" d="M1754.09,4374.471a.7.7,0,0,0,.428.117.74.74,0,0,0,.444-.066,3.131,3.131,0,0,0-.439,0A2.123,2.123,0,0,0,1754.09,4374.471Z" transform="translate(-1747.507 -4371.284)" fill="#344154"/>
          <path id="Trazado_140409" data-name="Trazado 140409" d="M1756.76,4375.475a1.33,1.33,0,0,0,.469,0,2.806,2.806,0,0,0,.51-.117,1.552,1.552,0,0,0,.286-.123.262.262,0,0,0,.117-.153.184.184,0,0,0-.076-.184.857.857,0,0,0-1.066.271.9.9,0,0,0-.148.316.3.3,0,0,0,0,.127,1.472,1.472,0,0,1,.209-.408.813.813,0,0,1,.4-.264.726.726,0,0,1,.566.024c.072.057.046.144-.036.194a1.265,1.265,0,0,1-.265.118,3.536,3.536,0,0,1-.485.137A4.745,4.745,0,0,0,1756.76,4375.475Z" transform="translate(-1748.815 -4371.452)" fill="#344154"/>
          <path id="Trazado_140410" data-name="Trazado 140410" d="M1756.4,4375.282a.462.462,0,0,0,.051-.326.774.774,0,0,0-.138-.342.455.455,0,0,0-.393-.234.184.184,0,0,0-.117.08.181.181,0,0,0-.025.139.5.5,0,0,0,.082.209,1.292,1.292,0,0,0,.229.281.748.748,0,0,0,.271.188s-.092-.087-.224-.235a1.576,1.576,0,0,1-.2-.274c-.066-.1-.112-.281,0-.3s.24.1.311.194a.778.778,0,0,1,.143.306A1.822,1.822,0,0,1,1756.4,4375.282Z" transform="translate(-1748.331 -4371.238)" fill="#344154"/>
          <path id="Trazado_140411" data-name="Trazado 140411" d="M1741.42,4375.327a2.978,2.978,0,0,1,.541,0,2.326,2.326,0,0,1,1.188.469,2.356,2.356,0,0,1,.755,1.02c.117.311.133.51.148.51a.392.392,0,0,0,0-.149,2.089,2.089,0,0,0-.087-.393,2.219,2.219,0,0,0-2-1.544,1.913,1.913,0,0,0-.4,0A.468.468,0,0,0,1741.42,4375.327Z" transform="translate(-1741.297 -4371.655)" fill="#344154"/>
          <path id="Trazado_140412" data-name="Trazado 140412" d="M1742.773,4369.41a11.874,11.874,0,0,0-.041,1.53,12.311,12.311,0,0,0,.046,1.5,11.794,11.794,0,0,0,.041-1.5,13.847,13.847,0,0,0-.046-1.53Z" transform="translate(-1741.936 -4368.803)" fill="#344154"/>
          <path id="Trazado_140413" data-name="Trazado 140413" d="M1748.39,4378.039a3.983,3.983,0,0,0,1.076.092,4.41,4.41,0,0,0,1.071-.1c0-.024-.484,0-1.071,0A9.072,9.072,0,0,0,1748.39,4378.039Z" transform="translate(-1744.713 -4373.021)" fill="#344154"/>
          <path id="Trazado_140414" data-name="Trazado 140414" d="M1745.58,4378.1s.041.1.087.209.082.209.107.2.036-.117,0-.24S1745.595,4378.076,1745.58,4378.1Z" transform="translate(-1743.336 -4373.059)" fill="#344154"/>
          <path id="Trazado_140415" data-name="Trazado 140415" d="M1744.49,4376.788a.446.446,0,0,0,.112.173c.082.077.153.123.168.1s-.031-.092-.107-.168S1744.51,4376.772,1744.49,4376.788Z" transform="translate(-1742.802 -4372.417)" fill="#344154"/>
          <path id="Trazado_140416" data-name="Trazado 140416" d="M1743,4376.168c0,.025.107.025.214.062s.184.092.2.076-.041-.117-.178-.163S1743,4376.147,1743,4376.168Z" transform="translate(-1742.072 -4372.094)" fill="#344154"/>
          <path id="Trazado_140417" data-name="Trazado 140417" d="M1741.88,4375.97a.207.207,0,0,0,.092.082.2.2,0,0,0,.127,0c.01,0-.036-.062-.1-.087S1741.885,4375.919,1741.88,4375.97Z" transform="translate(-1741.523 -4372.003)" fill="#344154"/>
        </g>
        <g id="Grupo_63569" data-name="Grupo 63569" transform="translate(0 144.495)">
          <g id="Grupo_63567" data-name="Grupo 63567" transform="translate(0)">
            <path id="Trazado_140418" data-name="Trazado 140418" d="M1698.493,4366.025l2.488-3.024-5.639-4.691-3.682,4.386.326.311c1.484,1.382,7.649,6.925,8.944,7.476C1702.383,4371.094,1698.493,4366.025,1698.493,4366.025Z" transform="translate(-1691.66 -4358.31)" fill="#d9a171"/>
            <g id="Grupo_63566" data-name="Grupo 63566" transform="translate(0.071 2.713)" opacity="0.5">
              <path id="Trazado_140419" data-name="Trazado 140419" d="M1693.809,4366.959a2.547,2.547,0,0,0,.281-1.8,2.481,2.481,0,0,0-.979-1.53l-1.31,1.575Z" transform="translate(-1691.8 -4363.63)" fill="#fff"/>
            </g>
          </g>
          <g id="Grupo_63568" data-name="Grupo 63568" transform="translate(0 4.268)" opacity="0.4">
            <path id="Trazado_140420" data-name="Trazado 140420" d="M1700.323,4372.687s1.275,1.881.836,1.984-6.874-5.258-9.5-7.874l.112-.118,7.45,6.319S1699.992,4372.452,1700.323,4372.687Z" transform="translate(-1691.66 -4366.68)" fill="#fff"/>
          </g>
          <path id="Trazado_140421" data-name="Trazado 140421" d="M1691.71,4366.529l.087.087.265.25.989.9c.837.754,2.009,1.78,3.33,2.881s2.55,2.075,3.426,2.764l1.061.811.291.219c.066.046.1.072.107.066l-.1-.081-.281-.23-1.02-.836c-.882-.7-2.09-1.682-3.411-2.784s-2.5-2.116-3.345-2.855l-1.02-.877-.275-.234A.547.547,0,0,0,1691.71,4366.529Z" transform="translate(-1691.685 -4362.338)" fill="#344154"/>
          <path id="Trazado_140422" data-name="Trazado 140422" d="M1706.34,4378.784a3.168,3.168,0,0,1,.6-.326,2.709,2.709,0,0,1,.673-.1A1.184,1.184,0,0,0,1706.34,4378.784Z" transform="translate(-1698.854 -4368.112)" fill="#344154"/>
          <path id="Trazado_140423" data-name="Trazado 140423" d="M1704.46,4374.652a.893.893,0,0,0,.357-.065c.194-.062.342-.133.331-.154a.737.737,0,0,0-.357.067C1704.6,4374.566,1704.455,4374.627,1704.46,4374.652Z" transform="translate(-1697.933 -4366.208)" fill="#344154"/>
          <path id="Trazado_140424" data-name="Trazado 140424" d="M1704,4373.6c0,.025.138.04.311.03a.633.633,0,0,0,.306-.05,1.119,1.119,0,0,0-.311-.036C1704.138,4373.544,1704,4373.569,1704,4373.6Z" transform="translate(-1697.707 -4365.772)" fill="#344154"/>
          <path id="Trazado_140425" data-name="Trazado 140425" d="M1704.26,4372.138a1.742,1.742,0,0,0,.265.281c.163.137.306.234.321.213s-.1-.143-.265-.279S1704.28,4372.117,1704.26,4372.138Z" transform="translate(-1697.835 -4365.085)" fill="#344154"/>
          <path id="Trazado_140426" data-name="Trazado 140426" d="M1704.68,4371.239a1.1,1.1,0,0,0,.627.607,3.222,3.222,0,0,0-.316-.3C1704.823,4371.383,1704.705,4371.224,1704.68,4371.239Z" transform="translate(-1698.041 -4364.646)" fill="#344154"/>
          <path id="Trazado_140427" data-name="Trazado 140427" d="M1705.611,4374.095a1.53,1.53,0,0,0,.362.3,2.893,2.893,0,0,0,.459.234,1.367,1.367,0,0,0,.3.091.272.272,0,0,0,.184-.036.187.187,0,0,0,.066-.192.871.871,0,0,0-.984-.511.969.969,0,0,0-.321.143.319.319,0,0,0-.092.092,1.472,1.472,0,0,1,.423-.173.9.9,0,0,1,.479.056.766.766,0,0,1,.408.392.118.118,0,0,1-.153.123,1.349,1.349,0,0,1-.275-.082,2.946,2.946,0,0,1-.454-.214C1705.759,4374.2,1705.621,4374.084,1705.611,4374.095Z" transform="translate(-1698.482 -4365.981)" fill="#344154"/>
          <path id="Trazado_140428" data-name="Trazado 140428" d="M1705.686,4373.427a.515.515,0,0,0,.255-.219.8.8,0,0,0,.122-.348.508.508,0,0,0-.148-.433.189.189,0,0,0-.255.071.51.51,0,0,0-.072.214,1.471,1.471,0,0,0,0,.362.67.67,0,0,0,.082.317v-.322a1.726,1.726,0,0,1,.031-.341c0-.117.092-.286.2-.225s.112.235.107.353a.747.747,0,0,1-.092.321C1705.793,4373.345,1705.676,4373.412,1705.686,4373.427Z" transform="translate(-1698.481 -4365.217)" fill="#344154"/>
          <path id="Trazado_140429" data-name="Trazado 140429" d="M1694.46,4363.69a2.7,2.7,0,0,1,.4.361,2.3,2.3,0,0,1,.51,2.408c-.117.311-.245.484-.229.509s.041-.035.1-.111a1.842,1.842,0,0,0,.188-.358,2.227,2.227,0,0,0,.133-1.316,2.3,2.3,0,0,0-.637-1.157,2.241,2.241,0,0,0-.316-.25A.393.393,0,0,0,1694.46,4363.69Z" transform="translate(-1693.032 -4360.947)" fill="#344154"/>
          <path id="Trazado_140430" data-name="Trazado 140430" d="M1697.548,4360.049a12.489,12.489,0,0,0-1.02,1.117,14.14,14.14,0,0,0-.948,1.173,12.488,12.488,0,0,0,1.02-1.117A14.3,14.3,0,0,0,1697.548,4360.049Z" transform="translate(-1693.581 -4359.162)" fill="#344154"/>
          <path id="Trazado_140431" data-name="Trazado 140431" d="M1698,4370.24a4.346,4.346,0,0,0,.755.77,4.257,4.257,0,0,0,.882.622c0-.026-.372-.307-.821-.693A9.258,9.258,0,0,0,1698,4370.24Z" transform="translate(-1694.767 -4364.156)" fill="#344154"/>
          <path id="Trazado_140432" data-name="Trazado 140432" d="M1695.737,4368.43s-.036.107-.066.22-.077.209-.056.224.1-.066.143-.2S1695.763,4368.43,1695.737,4368.43Z" transform="translate(-1693.596 -4363.27)" fill="#344154"/>
          <path id="Trazado_140433" data-name="Trazado 140433" d="M1695.862,4366.74c-.026,0-.036.093-.026.2s.036.194.061.188.036-.092,0-.2S1695.887,4366.735,1695.862,4366.74Z" transform="translate(-1693.705 -4362.441)" fill="#344154"/>
          <path id="Trazado_140434" data-name="Trazado 140434" d="M1695.11,4365.295a1.946,1.946,0,0,1,.123.184c.056.1.082.188.107.188s.041-.117-.031-.234S1695.12,4365.274,1695.11,4365.295Z" transform="translate(-1693.35 -4361.73)" fill="#344154"/>
          <path id="Trazado_140435" data-name="Trazado 140435" d="M1694.46,4364.387v.123c0,.056.077.1.1.082s0-.066,0-.123S1694.48,4364.371,1694.46,4364.387Z" transform="translate(-1693.032 -4361.286)" fill="#344154"/>
        </g>
        <g id="Grupo_63570" data-name="Grupo 63570" transform="translate(0.622 66.065)">
          <path id="Trazado_140436" data-name="Trazado 140436" d="M1714.358,4212.324s-2.443,10.336-1.749,12.375,5.166,3.228,5.166,3.228l-.153,28.295-24.741,30.6,9.133,7.475s26.786-30.646,29.152-36.2-1.53-46.219-1.53-46.219Z" transform="translate(-1692.88 -4208.112)" fill="#344154"/>
          <path id="Trazado_140437" data-name="Trazado 140437" d="M1739.908,4204.5l1.208,85.937-12.585.062-6.318-69.986h0c-1.336-1.275-3.218-3.457-2.958-8.327l.306-5.655Z" transform="translate(-1705.795 -4204.5)" fill="#344154"/>
          <path id="Trazado_140438" data-name="Trazado 140438" d="M1733.75,4274.111s0-.046.071-.127l.24-.352c.229-.326.546-.77.933-1.326l3.417-4.727v.066c-.276-2.983-.607-6.6-.964-10.5-.459-5.1-.826-9.744-1.02-13.1-.112-1.678-.183-3.06-.224-3.978,0-.449-.031-.806-.036-1.082a1.539,1.539,0,0,1,0-.377,2.378,2.378,0,0,1,.046.372c0,.276.051.632.087,1.082.077.969.178,2.315.311,3.967.265,3.35.663,7.98,1.122,13.089.342,3.916.688,7.526.918,10.525v.061l-3.493,4.676-.984,1.286-.265.336C1733.785,4274.075,1733.755,4274.116,1733.75,4274.111Z" transform="translate(-1712.909 -4221.217)" fill="#5e6178"/>
          <path id="Trazado_140439" data-name="Trazado 140439" d="M1735,4237.267a17.184,17.184,0,0,1-3.335-.51,17.583,17.583,0,0,1-3.253-.887,27.011,27.011,0,0,1,3.31.626,28.257,28.257,0,0,1,3.278.771Z" transform="translate(-1710.292 -4219.873)" fill="#5e6178"/>
          <path id="Trazado_140440" data-name="Trazado 140440" d="M1751.6,4295.02a12.755,12.755,0,0,0-3.4-.887,12.93,12.93,0,0,0-3.5.336,2.9,2.9,0,0,1,.979-.383,7.841,7.841,0,0,1,2.55-.219,7.664,7.664,0,0,1,2.468.618A2.815,2.815,0,0,1,1751.6,4295.02Z" transform="translate(-1718.281 -4248.286)" fill="#5e6178"/>
          <path id="Trazado_140441" data-name="Trazado 140441" d="M1751.536,4304c.056.041-3.483,4.793-7.909,10.611s-8.062,10.5-8.118,10.454,3.483-4.794,7.909-10.611S1751.479,4303.934,1751.536,4304Z" transform="translate(-1713.771 -4253.263)" fill="#5e6178"/>
          <path id="Trazado_140442" data-name="Trazado 140442" d="M1757.5,4216.357a2.142,2.142,0,0,1-.709.934,3.5,3.5,0,0,1-5.13-.54,2.068,2.068,0,0,1-.51-1.062,11.092,11.092,0,0,0,.643.944,3.5,3.5,0,0,0,4.87.509A5.723,5.723,0,0,0,1757.5,4216.357Z" transform="translate(-1721.437 -4209.984)" fill="#5e6178"/>
        </g>
        <path id="Trazado_140443" data-name="Trazado 140443" d="M1726.588,4115.607a10.973,10.973,0,0,1-.6-15.3" transform="translate(-1707.104 -4087.373)" fill="#344154"/>
        <g id="Grupo_63575" data-name="Grupo 63575" transform="translate(9.112 30.442)">
          <g id="Grupo_63574" data-name="Grupo 63574">
            <path id="Trazado_140444" data-name="Trazado 140444" d="M1712.829,4146s-2.733,3.091-3.3,14.9c0,0,7.787,1.479,7.929,1.051S1712.829,4146,1712.829,4146Z" transform="translate(-1709.53 -4140.207)" fill="#d9a171"/>
            <g id="Grupo_63571" data-name="Grupo 63571" transform="translate(0 5.793)" opacity="0.3">
              <path id="Trazado_140445" data-name="Trazado 140445" d="M1712.829,4146s-2.733,3.091-3.3,14.9c0,0,7.787,1.479,7.929,1.051S1712.829,4146,1712.829,4146Z" transform="translate(-1709.53 -4146)" fill="#d9a171"/>
            </g>
            <g id="Grupo_63573" data-name="Grupo 63573" transform="translate(2.466)">
              <path id="Trazado_140446" data-name="Trazado 140446" d="M1720.32,4175.26" transform="translate(-1717.283 -4154.547)" fill="#5e6178"/>
              <path id="Trazado_140447" data-name="Trazado 140447" d="M1716.463,4174.856h23.91l-.388-3.732s-2.733-14.211-2.713-14.4l.428-.907a9,9,0,0,0,.107-7.516h0l11.728-4-2.866-9.663c-5.313.9-13.344,1.9-13.344,1.9l-1.193.1s-8.292.434-8.47.454c-3.468.418-7.5.684-8.975,4.4-.79,1.983-.041,4.961,1.249,8.036l3.059,9.429c1.224,5.186-.729,4.94-1.805,10.157C1717.019,4169.9,1716.448,4174.133,1716.463,4174.856Z" transform="translate(-1714.365 -4134.64)" fill="#d9a171"/>
              <g id="Grupo_63572" data-name="Grupo 63572" opacity="0.3">
                <path id="Trazado_140448" data-name="Trazado 140448" d="M1716.463,4174.856h23.91l-.388-3.732s-2.733-14.211-2.713-14.4l.428-.907a9,9,0,0,0,.107-7.516h0l11.728-4-2.866-9.663c-5.313.9-13.344,1.9-13.344,1.9l-1.193.1s-8.292.434-8.47.454c-3.468.418-7.5.684-8.975,4.4-.79,1.983-.041,4.961,1.249,8.036l3.059,9.429c1.224,5.186-.729,4.94-1.805,10.157C1717.019,4169.9,1716.448,4174.133,1716.463,4174.856Z" transform="translate(-1714.365 -4134.64)" fill="#d9a171"/>
              </g>
            </g>
            <path id="Trazado_140449" data-name="Trazado 140449" d="M1770.186,4153.89a2.06,2.06,0,0,1-.51.22c-.337.122-.831.295-1.443.509-1.224.418-2.927.964-4.8,1.565s-3.569,1.193-4.742,1.688c-.6.24-1.076.455-1.407.6a2.382,2.382,0,0,1-.51.209,2.25,2.25,0,0,1,.479-.3c.321-.173.785-.413,1.377-.678a45.2,45.2,0,0,1,4.737-1.77c1.882-.6,3.569-1.122,4.829-1.489.617-.184,1.122-.327,1.469-.418A2.434,2.434,0,0,1,1770.186,4153.89Z" transform="translate(-1732.681 -4144.074)" fill="#344154"/>
          </g>
          <path id="Trazado_140450" data-name="Trazado 140450" d="M1749.975,4143.683c0,.071-7.072.132-15.807.132s-15.807-.062-15.807-.132,7.067-.133,15.807-.133S1749.975,4143.606,1749.975,4143.683Z" transform="translate(-1713.857 -4139.007)" fill="#fafafa"/>
          <path id="Trazado_140451" data-name="Trazado 140451" d="M1748.018,4152.873c0,.071-7.868.133-17.572.133s-17.567-.062-17.567-.133,7.863-.132,17.567-.132S1748.018,4152.806,1748.018,4152.873Z" transform="translate(-1711.172 -4143.511)" fill="#fafafa"/>
          <path id="Trazado_140452" data-name="Trazado 140452" d="M1713.9,4163.363a7.894,7.894,0,0,1-2.932,0,8.15,8.15,0,0,1,2.932,0Z" transform="translate(-1710.235 -4148.651)" fill="#fafafa"/>
          <path id="Trazado_140453" data-name="Trazado 140453" d="M1739.7,4163.683c0,.076-5.145.132-11.488.132s-11.489-.056-11.489-.132,5.14-.133,11.489-.133S1739.7,4163.611,1739.7,4163.683Z" transform="translate(-1713.053 -4148.808)" fill="#fafafa"/>
          <path id="Trazado_140454" data-name="Trazado 140454" d="M1740.966,4174.482c0,.072-4.62.134-10.31.134s-10.316-.062-10.316-.134,4.615-.132,10.316-.132S1740.966,4174.412,1740.966,4174.482Z" transform="translate(-1714.828 -4154.102)" fill="#fafafa"/>
          <path id="Trazado_140455" data-name="Trazado 140455" d="M1742.523,4184.482c0,.076-4.181.133-9.342.133s-9.352-.057-9.352-.133,4.187-.133,9.352-.133S1742.523,4184.411,1742.523,4184.482Z" transform="translate(-1716.538 -4159.001)" fill="#fafafa"/>
          <path id="Trazado_140456" data-name="Trazado 140456" d="M1742.879,4192.582c0,.072-4.477.133-10,.133s-10-.062-10-.133,4.477-.132,10-.132S1742.879,4192.511,1742.879,4192.582Z" transform="translate(-1716.072 -4162.972)" fill="#fafafa"/>
          <path id="Trazado_140457" data-name="Trazado 140457" d="M1742.772,4202.873c0,.071-5.1.133-11.376.133s-11.376-.062-11.376-.133,5.1-.132,11.376-.132S1742.772,4202.817,1742.772,4202.873Z" transform="translate(-1714.671 -4168.015)" fill="#fafafa"/>
          <path id="Trazado_140458" data-name="Trazado 140458" d="M1719.072,4169.59a1.668,1.668,0,0,1-.214-.469c-.138-.367-.306-.8-.51-1.305-.418-1.1-1.02-2.626-1.627-4.319s-1.127-3.249-1.448-4.39c-.158-.566-.281-1.02-.347-1.357a2.141,2.141,0,0,1-.087-.51,18.245,18.245,0,0,1,.612,1.815c.367,1.122.9,2.657,1.53,4.349s1.178,3.228,1.53,4.345c.189.561.331,1.02.423,1.335a2.116,2.116,0,0,1,.138.5Z" transform="translate(-1712.132 -4145.716)" fill="#344154"/>
        </g>
      </g>
    </g>
  </g>
</svg>
