<svg xmlns="http://www.w3.org/2000/svg" width="420" height="249" viewBox="0 0 420 249">
  <g id="Grupo_1111511" data-name="Grupo 1111511" transform="translate(-895.051 -2380)">
    <rect id="Rectángulo_404662" data-name="Rectángulo 404662" width="420" height="249" transform="translate(895.051 2380)" fill="#fed6a8"/>
    <g id="Grupo_68433" data-name="Grupo 68433" transform="translate(-60 317.79)">
      <rect id="Rectángulo_31387" data-name="Rectángulo 31387" width="283.501" height="151.957" transform="translate(1020 2113.312)" fill="#feead4"/>
      <g id="Grupo_68432" data-name="Grupo 68432" transform="translate(1064.927 2074)">
        <g id="Grupo_62466" data-name="Grupo 62466" transform="translate(0)">
          <path id="Trazado_133378" data-name="Trazado 133378" d="M9976.488,2710.271a5.82,5.82,0,0,0,3.47-5.384,5.471,5.471,0,1,0-10.919-.052,5.8,5.8,0,0,0,3.479,5.436c-8.408,1.269-8.021,10.4-8.021,10.4l19.869.093S9984.791,2711.531,9976.488,2710.271Z" transform="translate(-9895.39 -2600.562)" fill="#8454ee"/>
          <g id="Grupo_62445" data-name="Grupo 62445" transform="translate(81.412)">
            <g id="Grupo_62433" data-name="Grupo 62433" transform="translate(0 8.994)">
              <g id="Grupo_62432" data-name="Grupo 62432">
                <rect id="Rectángulo_13834" data-name="Rectángulo 13834" width="116.921" height="86.833" transform="translate(0.077 0.154)" fill="#fff"/>
                <path id="Trazado_133379" data-name="Trazado 133379" d="M10105.468,2611.872c0-.9-.047-34.271-.113-86.833l.113.108H9988.556l.134-.134v86.833l-.122-.123,116.92.123-116.92.124h-.119v-87.09h117.162v.113C10105.468,2577.6,10105.468,2610.967,10105.468,2611.872Z" transform="translate(-9988.448 -2524.88)" fill="#344154"/>
              </g>
              <path id="Trazado_133380" data-name="Trazado 133380" d="M10105.8,2550.1c0,.072-26.122.134-58.332.134s-58.334-.062-58.334-.134,26.113-.134,58.334-.134S10105.8,2550.032,10105.8,2550.1Z" transform="translate(-9988.782 -2537.078)" fill="#839eb6"/>
              <path id="Trazado_133381" data-name="Trazado 133381" d="M9999.064,2535.943a1.762,1.762,0,1,1-1.763-1.762A1.762,1.762,0,0,1,9999.064,2535.943Z" transform="translate(-9991.896 -2529.402)" fill="#839eb6"/>
              <path id="Trazado_133382" data-name="Trazado 133382" d="M10009.365,2535.943a1.762,1.762,0,1,1-1.763-1.762A1.762,1.762,0,0,1,10009.365,2535.943Z" transform="translate(-9996.905 -2529.402)" fill="#839eb6"/>
              <path id="Trazado_133383" data-name="Trazado 133383" d="M10019.765,2535.943a1.762,1.762,0,1,1-1.758-1.762A1.762,1.762,0,0,1,10019.765,2535.943Z" transform="translate(-10001.962 -2529.402)" fill="#839eb6"/>
            </g>
            <g id="Grupo_62436" data-name="Grupo 62436" transform="translate(43.961)">
              <path id="Trazado_133384" data-name="Trazado 133384" d="M10093.167,2510.05a3.084,3.084,0,0,0-3.083-1.707,4.167,4.167,0,0,0-5.138-.159,3.72,3.72,0,0,0-5.755,2.76,3.083,3.083,0,0,0-2.97,5.092,2.985,2.985,0,0,0,.972,5.862l15.265-8.385a3.084,3.084,0,0,0,.71-3.462Z" transform="translate(-10074.007 -2507.375)" fill="#839eb6"/>
              <g id="Grupo_62435" data-name="Grupo 62435" transform="translate(1.006 1.437)">
                <g id="Grupo_62434" data-name="Grupo 62434" transform="translate(0 1.587)">
                  <path id="Trazado_133385" data-name="Trazado 133385" d="M10077.68,2525.985a12.674,12.674,0,0,1,13.2-11l.657.036c7.045.76,10.333,7.193,9.372,14.191l-2.189,23.476-.117,1.141-16.469,2.456.324-6s-6.74-1.392-6.488-8.185C10076.086,2538.81,10076.908,2532.073,10077.68,2525.985Z" transform="translate(-10075.967 -2514.09)" fill="#ffbf9d"/>
                  <path id="Trazado_133386" data-name="Trazado 133386" d="M10088.444,2581.623a16.486,16.486,0,0,0,9.029-2.163s-2.338,4.784-9.085,3.838Z" transform="translate(-10082.005 -2545.446)" fill="#ff9a6c"/>
                  <path id="Trazado_133387" data-name="Trazado 133387" d="M10082.2,2548.476a.967.967,0,0,0,.883,1.028.926.926,0,0,0,1.028-.822.966.966,0,0,0-.884-1.028.934.934,0,0,0-.686.2A.922.922,0,0,0,10082.2,2548.476Z" transform="translate(-10078.995 -2529.979)" fill="#344154"/>
                  <path id="Trazado_133388" data-name="Trazado 133388" d="M10081.791,2542.136c.112.129.878-.375,1.922-.324s1.781.617,1.9.514-.051-.288-.376-.544a2.642,2.642,0,0,0-1.515-.555,2.572,2.572,0,0,0-1.543.416C10081.894,2541.864,10081.74,2542.085,10081.791,2542.136Z" transform="translate(-10078.794 -2526.856)" fill="#344154"/>
                  <path id="Trazado_133389" data-name="Trazado 133389" d="M10100.1,2549.7a.976.976,0,0,0,.889,1.028.93.93,0,0,0,1.027-.822.976.976,0,0,0-.889-1.028.933.933,0,0,0-1.029.822Z" transform="translate(-10087.697 -2530.573)" fill="#344154"/>
                  <path id="Trazado_133390" data-name="Trazado 133390" d="M10101.788,2543.53c.113.128.873-.375,1.916-.324s1.783.617,1.9.514-.052-.288-.375-.545a2.6,2.6,0,0,0-1.512-.55,2.52,2.52,0,0,0-1.541.411C10101.84,2543.247,10101.735,2543.468,10101.788,2543.53Z" transform="translate(-10088.515 -2527.534)" fill="#344154"/>
                  <path id="Trazado_133391" data-name="Trazado 133391" d="M10091.251,2550.877a7.344,7.344,0,0,0-1.68-.391c-.267-.041-.513-.1-.55-.287a1.334,1.334,0,0,1,.217-.781c.281-.632.574-1.295.888-1.989a40.526,40.526,0,0,0,2.056-5.22,38.351,38.351,0,0,0-2.45,5.04l-.858,2a1.591,1.591,0,0,0-.191,1.027.686.686,0,0,0,.423.411,2.072,2.072,0,0,0,.447.082,6.451,6.451,0,0,0,1.7.1Z" transform="translate(-10082.14 -2527.334)" fill="#344154"/>
                  <path id="Trazado_133392" data-name="Trazado 133392" d="M10096.321,2560.78c-.164,0-.227,1.115-1.232,1.87s-2.209.576-2.229.729c0,.072.261.237.771.273a2.8,2.8,0,0,0,1.854-.544,2.438,2.438,0,0,0,.96-1.542C10096.527,2561.068,10096.373,2560.78,10096.321,2560.78Z" transform="translate(-10084.18 -2536.364)" fill="#344154"/>
                  <path id="Trazado_133393" data-name="Trazado 133393" d="M10101.692,2535.746c.089.288,1.137.206,2.355.417s2.187.591,2.361.344c.083-.118-.075-.4-.462-.689a4.02,4.02,0,0,0-1.73-.7,3.965,3.965,0,0,0-1.866.123C10101.9,2535.4,10101.643,2535.613,10101.692,2535.746Z" transform="translate(-10088.471 -2523.857)" fill="#839eb6"/>
                  <path id="Trazado_133394" data-name="Trazado 133394" d="M10082.869,2536.24c.17.242.9.037,1.768.067s1.587.236,1.767,0c.083-.113,0-.36-.327-.6a2.422,2.422,0,0,0-1.418-.463,2.467,2.467,0,0,0-1.435.407C10082.919,2535.88,10082.767,2536.116,10082.869,2536.24Z" transform="translate(-10079.306 -2523.949)" fill="#839eb6"/>
                  <path id="Trazado_133395" data-name="Trazado 133395" d="M10080.9,2522.072s2-4.162,4.11-5.056c2.568-1.074,3.473,1.7,5.871,1.156s4.825-1.577,7.155.375c2.567,2.133,1.236,3.473,1.252,6.494.051,12.249,2.111,15.815,3.031,10.091.1-.627,1.876-1.028,2.271-3.689.515-3.437.85-7.625.2-10.116a9.611,9.611,0,0,0-3.685-5.261c-3.21-2.651-7.788-2.929-10.912-2.77S10080.9,2516.723,10080.9,2522.072Z" transform="translate(-10078.365 -2513.26)" fill="#839eb6"/>
                  <path id="Trazado_133396" data-name="Trazado 133396" d="M10121.353,2553.828a1.844,1.844,0,0,1,2.056-1.68c1.263.185,2.635.976,2.425,3.6-.381,4.625-4.958,3.3-4.954,3.165S10121.147,2555.765,10121.353,2553.828Z" transform="translate(-10097.803 -2532.161)" fill="#ffbf9d"/>
                  <path id="Trazado_133397" data-name="Trazado 133397" d="M10123.1,2558.664a2.1,2.1,0,0,0,.206.139.865.865,0,0,0,.606.062,2,2,0,0,0,1.068-1.721,2.668,2.668,0,0,0-.133-1.172.933.933,0,0,0-.556-.668.4.4,0,0,0-.513.18c-.073.123-.052.221-.077.226s-.093-.087-.042-.278a.52.52,0,0,1,.206-.272.614.614,0,0,1,.456-.082,1.154,1.154,0,0,1,.787.786,2.8,2.8,0,0,1,.174,1.315,2.105,2.105,0,0,1-1.341,1.906.865.865,0,0,1-.73-.185A.374.374,0,0,1,10123.1,2558.664Z" transform="translate(-10098.883 -2533.585)" fill="#ff9a6c"/>
                </g>
                <path id="Trazado_133398" data-name="Trazado 133398" d="M10105.572,2524.423a4.364,4.364,0,0,1-2.009.812,1.521,1.521,0,0,1-1.629-1.146c-.036-.329.062-.7-.138-.961s-.715-.241-1.1-.216a2.968,2.968,0,0,1-2.97-2.276,1.231,1.231,0,0,1-1.676.072,6.775,6.775,0,0,1-1.2-1.413,1.909,1.909,0,0,0-1.54-.879,4.644,4.644,0,0,1-1.028.175c-.606-.087-.868-.817-.936-1.423s-.1-1.321-.6-1.675a2.3,2.3,0,0,0-1.659-.128c-.565.056-1.285-.113-1.4-.668a1.112,1.112,0,0,1,.247-.833,3.006,3.006,0,0,1,3.6-.961,4.081,4.081,0,0,1,7.529-.421,4.135,4.135,0,0,1,6.534,1.84,3,3,0,0,1,3.166,4.527,2.842,2.842,0,0,1,1.452,2.343,1.639,1.639,0,0,1-1.931,1.578,1.661,1.661,0,0,1-2.951,1.511" transform="translate(-10081.663 -2510.171)" fill="#839eb6"/>
              </g>
              <path id="Trazado_133399" data-name="Trazado 133399" d="M10121.923,2534.7a1.113,1.113,0,0,1-.336.878,1.544,1.544,0,0,1-.96.514,1.6,1.6,0,0,1-1.3-.452h.2a4.617,4.617,0,0,1-.982,1.115,2.722,2.722,0,0,1-.873.483,2.051,2.051,0,0,1-2.238-.8,2.543,2.543,0,0,1-.33-.981.863.863,0,0,1,0-.381,1.454,1.454,0,0,1,.118.355,3.09,3.09,0,0,0,.386.9,1.9,1.9,0,0,0,2.783.206,4.822,4.822,0,0,0,.941-1.028l.087-.128.108.113a1.423,1.423,0,0,0,1.1.411,1.393,1.393,0,0,0,.863-.4A2.289,2.289,0,0,0,10121.923,2534.7Z" transform="translate(-10093.976 -2520.66)" fill="#fff"/>
              <path id="Trazado_133400" data-name="Trazado 133400" d="M10100.516,2511.317a2.673,2.673,0,0,0-.334.1,1.573,1.573,0,0,0-.749.576l-.062.087-.062-.093a5.747,5.747,0,0,0-2.154-1.927,4.443,4.443,0,0,0-1.808-.514,3.863,3.863,0,0,0-3.217,1.516,3.12,3.12,0,0,0-.58,1.376v.145l-.14-.046a2.606,2.606,0,0,0-1.935.138,2.574,2.574,0,0,0-1.115,1.079,3.392,3.392,0,0,0-.355,1.361.894.894,0,0,1-.04-.38,2.679,2.679,0,0,1,.261-1.028,2.651,2.651,0,0,1,1.152-1.2,2.8,2.8,0,0,1,2.111-.185l-.159.1a3.355,3.355,0,0,1,.613-1.5,4.05,4.05,0,0,1,1.307-1.131,3.953,3.953,0,0,1,2.139-.488,4.7,4.7,0,0,1,1.9.545,5.662,5.662,0,0,1,2.167,2.055h-.118a1.55,1.55,0,0,1,.842-.565A.655.655,0,0,1,10100.516,2511.317Z" transform="translate(-10080.789 -2508.314)" fill="#fff"/>
              <path id="Trazado_133401" data-name="Trazado 133401" d="M10101.379,2560.769c-.075,0-.082-.514-.456-.915s-.843-.513-.833-.6.133-.062.339,0a1.3,1.3,0,0,1,.7.437,1.384,1.384,0,0,1,.325.755C10101.483,2560.64,10101.431,2560.774,10101.379,2560.769Z" transform="translate(-10086.689 -2532.574)" fill="#ff9a6c"/>
              <path id="Trazado_133402" data-name="Trazado 133402" d="M10102.6,2559.24c-.065.036-.226-.134-.467-.257s-.467-.165-.478-.241.281-.164.6,0S10102.708,2559.209,10102.6,2559.24Z" transform="translate(-10087.452 -2532.304)" fill="#ff9a6c"/>
              <path id="Trazado_133403" data-name="Trazado 133403" d="M10112.907,2577.666c0-.026.072-.036.128-.118a.4.4,0,0,0,.036-.411c-.065-.18-.272-.344-.4-.653a.608.608,0,0,1,.031-.514,4.009,4.009,0,0,1,.318-.38c.38-.447-.658-.812-.514-1.4a.731.731,0,0,1,.271-.483c.113-.077.187-.082.191-.067a.771.771,0,0,0-.273.565.726.726,0,0,0,.319.565,1.077,1.077,0,0,1,.292.4.559.559,0,0,1-.087.576c-.118.154-.247.251-.308.354a.376.376,0,0,0,0,.324c.077.231.277.432.344.673a.513.513,0,0,1-.133.545A.216.216,0,0,1,10112.907,2577.666Z" transform="translate(-10092.72 -2539.591)" fill="#ff9a6c"/>
              <path id="Trazado_133404" data-name="Trazado 133404" d="M10115.581,2577.339a.412.412,0,0,0-.05-.17,1.752,1.752,0,0,0-.241-.4,1.913,1.913,0,0,1-.187-.308.656.656,0,0,1-.045-.458c.093-.329.376-.514.515-.76s.035-.437-.156-.647a1.592,1.592,0,0,1-.235-.354.781.781,0,0,1-.057-.38c.062-.483.4-.611.392-.576a.935.935,0,0,0-.2.586.8.8,0,0,0,.287.56,1.157,1.157,0,0,1,.272.4.642.642,0,0,1-.077.555c-.19.3-.441.478-.513.688a.762.762,0,0,0,.153.6,1.261,1.261,0,0,1,.186.483A.264.264,0,0,1,10115.581,2577.339Z" transform="translate(-10093.956 -2539.417)" fill="#ff9a6c"/>
            </g>
            <g id="Grupo_62441" data-name="Grupo 62441" transform="translate(23.406 37.387)">
              <path id="Trazado_133405" data-name="Trazado 133405" d="M10131.529,2645.286l6.166,5.94-1.987-11.36,12.511-3.957s3.318,15.589,3.9,19.278c1.027,6.618-.235,16.02-6.4,16.683-6.68.714-11.709-5.862-14.9-10.178-2.461-3.32-6.437-9.125-6.437-9.125l7.192-7.281" transform="translate(-10077.943 -2607.255)" fill="#839eb6"/>
              <path id="Trazado_133406" data-name="Trazado 133406" d="M10039.962,2634.5c-2.01,6.32-4.814,7.275-5.926,25.382-.216,3.53.545,8.22,3.895,9.377,3.722,1.269,9.418-1.028,11.2-4.111v-12.47Z" transform="translate(-10034.002 -2606.57)" fill="#839eb6"/>
              <path id="Trazado_133407" data-name="Trazado 133407" d="M10058.923,2681.221a28.128,28.128,0,0,0-1.233-2.661,27.415,27.415,0,0,0-1.7-2.389,2.658,2.658,0,0,1,.649.585,9.844,9.844,0,0,1,2.1,3.6A2.785,2.785,0,0,1,10058.923,2681.221Z" transform="translate(-10044.693 -2626.83)" fill="#344154"/>
              <path id="Trazado_133408" data-name="Trazado 133408" d="M10039.7,2622.746c.108-.375,6.285-17.182,8.252-20.86a13.36,13.36,0,0,1,10.384-6.536c3.072-.19,35.967,2.436,35.967,2.436s9.218,2.312,11.083,10.656c2.337,10.456,4.218,20.768,4.218,20.768l-16.492,3.56-1.937-4.886-30.994,6.916-7.562-11.191Z" transform="translate(-10036.773 -2587.53)" fill="#839eb6"/>
              <g id="Grupo_62438" data-name="Grupo 62438" transform="translate(15.001)">
                <path id="Trazado_133409" data-name="Trazado 133409" d="M10478.9,2804.011l-12.844-5.667-1.438-5.544-15,7.1-3.134-3.473-1.336,3.915-3.289,1.074-6.474,12.758-1.182,29.554.1,7.677,44.342.293-.36-12.568Z" transform="translate(-10434.199 -2792.8)" fill="#839eb6"/>
                <path id="Trazado_133410" data-name="Trazado 133410" d="M10108.2,2580.15a37.5,37.5,0,0,0-5.987,2.785c-4.219,2.25-9.017,4.306-9.017,4.306l.363,6.777,15.97-8.015" transform="translate(-10077.786 -2580.145)" fill="#839eb6"/>
                <path id="Trazado_133411" data-name="Trazado 133411" d="M10456.835,2799.85l3.134,3.473-1.694,7.26-2.775-6.561" transform="translate(-10444.556 -2796.227)" fill="#839eb6"/>
                <g id="Grupo_62437" data-name="Grupo 62437" transform="translate(14.335 6.556)" opacity="0.3">
                  <path id="Trazado_133412" data-name="Trazado 133412" d="M10092.126,2594.189c-.138.1-1.026,8.38-1.026,8.38l16-9.67-14.573,7.316Z" transform="translate(-10091.1 -2592.9)" fill="#d9a171"/>
                </g>
              </g>
              <path id="Trazado_133413" data-name="Trazado 133413" d="M10085.052,2653.9s-.329-12.275-.036-19.966c.241-6.331-.761-22.479-.761-22.479l-2.086-.339a235.814,235.814,0,0,0-5.348,34.939l-.592,7.789" transform="translate(-10054.534 -2595.202)" fill="#d9a171"/>
              <path id="Trazado_133414" data-name="Trazado 133414" d="M10142.8,2631a3.992,3.992,0,0,1,.149.657c.088.462.2,1.064.328,1.793.267,1.542.622,3.638,1.028,5.935s.75,4.424.977,5.945c.113.766.2,1.382.257,1.809a4.026,4.026,0,0,1,.061.668,3.922,3.922,0,0,1-.148-.653c-.081-.462-.194-1.069-.329-1.8-.271-1.542-.631-3.633-1.028-5.93s-.728-4.423-.956-5.949c-.1-.735-.188-1.341-.25-1.809A3.75,3.75,0,0,1,10142.8,2631Z" transform="translate(-10086.899 -2604.868)" fill="#344154"/>
              <path id="Trazado_133415" data-name="Trazado 133415" d="M10147.583,2603.869c0,.031-.431.386-1.078,1.054a13.047,13.047,0,0,0-3.392,6.315c-.2.9-.245,1.484-.287,1.479a1.343,1.343,0,0,1,0-.405,7.986,7.986,0,0,1,.133-1.11,11.785,11.785,0,0,1,3.432-6.386,9.621,9.621,0,0,1,.849-.725,1.6,1.6,0,0,1,.344-.221Z" transform="translate(-10086.904 -2591.677)" fill="#344154"/>
              <path id="Trazado_133416" data-name="Trazado 133416" d="M10461.43,2812.385l-1.438-.555-1.335,2.323-.257,3.817,1.9.309,1.44-2.358Z" transform="translate(-10430.965 -2802.052)" fill="#d9a171"/>
              <path id="Trazado_133417" data-name="Trazado 133417" d="M10063.092,2622.36c.062,0,.107,8.262.107,18.45s-.046,18.456-.107,18.456-.113-8.262-.113-18.456S10063.04,2622.36,10063.092,2622.36Z" transform="translate(-10048.091 -2600.667)" fill="#344154"/>
              <path id="Trazado_133418" data-name="Trazado 133418" d="M10089.06,2593.84q-.371.708-.812,1.377c-.514.848-1.177,2.055-1.819,3.406l-.147.324-.1.216-.1-.211a26.139,26.139,0,0,1-1.336-3.386c-.137-.442-.24-.8-.3-1.028a1.828,1.828,0,0,1-.07-.39,14.192,14.192,0,0,1,.513,1.392,35.715,35.715,0,0,0,1.394,3.334h-.207c.05-.1.1-.216.154-.329a27.99,27.99,0,0,1,1.886-3.391c.273-.416.514-.745.668-.966A1.762,1.762,0,0,1,10089.06,2593.84Z" transform="translate(-10058.49 -2586.801)" fill="#344154"/>
              <path id="Trazado_133419" data-name="Trazado 133419" d="M10109.675,2590.93a1.567,1.567,0,0,1-.215.134l-.648.339-2.383,1.238c-2.015,1.028-4.773,2.533-7.826,4.167-1.859.992-3.6,1.912-5.137,2.677l-.139.072v-.159c0-1.988-.037-3.663-.048-4.871v-1.377a2.713,2.713,0,0,1,0-.488,2.557,2.557,0,0,1,.042.488c0,.344.025.8.053,1.372.029,1.213.07,2.887.128,4.871l-.146-.082c1.542-.781,3.279-1.706,5.139-2.7,3.053-1.634,5.821-3.083,7.857-4.11,1.026-.514,1.838-.9,2.413-1.171l.669-.3A1.451,1.451,0,0,1,10109.675,2590.93Z" transform="translate(-10062.818 -2585.386)" fill="#344154"/>
              <path id="Trazado_133420" data-name="Trazado 133420" d="M10065.265,2601.1c.034,0-.218.442-.514,1.167a12.961,12.961,0,0,0-1.109,6.022c.045.791.128,1.279.092,1.29a1.028,1.028,0,0,1-.1-.339,6.708,6.708,0,0,1-.147-.936,11.173,11.173,0,0,1,1.118-6.1,7.758,7.758,0,0,1,.475-.822A.683.683,0,0,1,10065.265,2601.1Z" transform="translate(-10048.312 -2590.33)" fill="#344154"/>
              <path id="Trazado_133421" data-name="Trazado 133421" d="M10089.077,2611.291c-.031.051-.395-.119-.812-.381s-.724-.514-.687-.57.4.123.806.386A2.371,2.371,0,0,1,10089.077,2611.291Z" transform="translate(-10060.05 -2594.818)" fill="#344154"/>
              <path id="Trazado_133422" data-name="Trazado 133422" d="M10090.151,2606.646a10.716,10.716,0,0,1-.972-1.932,10.93,10.93,0,0,1-.77-2.024,10.623,10.623,0,0,1,.972,1.932A11,11,0,0,1,10090.151,2606.646Z" transform="translate(-10060.456 -2591.104)" fill="#344154"/>
              <g id="Grupo_62439" data-name="Grupo 62439" transform="translate(3.702 40.061)" opacity="0.3">
                <path id="Trazado_133423" data-name="Trazado 133423" d="M10076.246,2667.389a1.479,1.479,0,0,0-.514-.935c-.514-.344-1.2.113-1.742.437a8.708,8.708,0,0,1-4.86.745,122.938,122.938,0,0,1-14.977-1.418,23.013,23.013,0,0,1-7.035-2.1,9.425,9.425,0,0,1-4.753-5.385l-1.156-.627c.9,1.911.807,7.337,1.127,9.428s1.248,3.6,3.262,4.229a7.058,7.058,0,0,0,2.527.18c8.252-.411,16.58-.036,24.832-.447,1.177-.057,2.545-.216,3.176-1.213A3.955,3.955,0,0,0,10076.246,2667.389Z" transform="translate(-10041.209 -2658.11)" fill="#d9a171"/>
              </g>
              <path id="Trazado_133424" data-name="Trazado 133424" d="M10147.432,2670.05a.754.754,0,0,1-.056-.1l-.15-.293c-.066-.134-.147-.288-.241-.478l-.406-.606a21.991,21.991,0,0,0-3.2-3.478c-1.5-1.372-3.387-2.919-5.519-4.681-1.059-.889-2.183-1.824-3.312-2.867a30.6,30.6,0,0,1-3.325-3.458h.159l-6.428,6.726-.857.894v-.138c2.431,3.551,4.624,6.988,6.962,9.87a47.486,47.486,0,0,0,3.494,3.91,29.607,29.607,0,0,0,3.4,3.026,10.325,10.325,0,0,0,6,2.359h.546l.478-.052.411-.041.332-.077.454-.1a.705.705,0,0,1,.157,0l-.148.046-.451.118-.334.087-.412.056-.483.062h-.511a10.343,10.343,0,0,1-6.1-2.317,29.049,29.049,0,0,1-3.436-3.026,46.7,46.7,0,0,1-3.526-3.905c-2.337-2.888-4.557-6.325-6.982-9.87l-.052-.077.063-.067.858-.894c2.249-2.353,4.425-4.624,6.432-6.716l.082-.087.078.093a31.664,31.664,0,0,0,3.294,3.447c1.124,1.028,2.244,1.978,3.3,2.872,2.121,1.773,4.007,3.329,5.485,4.722a21.191,21.191,0,0,1,3.178,3.535c.143.236.275.442.39.622l.226.488.133.3a.744.744,0,0,1,.019.092Z" transform="translate(-10077.71 -2615.992)" fill="#344154"/>
              <g id="Grupo_62440" data-name="Grupo 62440" transform="translate(47.232 47.444)" opacity="0.3">
                <path id="Trazado_133425" data-name="Trazado 133425" d="M10126.634,2672.7l-.705-.216a42.206,42.206,0,0,0,4.229,11.453h5.014C10133.261,2681.553,10126.634,2672.7,10126.634,2672.7Z" transform="translate(-10125.929 -2672.479)" fill="#d9a171"/>
              </g>
            </g>
            <g id="Grupo_62444" data-name="Grupo 62444" transform="translate(22.625 64.161)">
              <g id="Grupo_62442" data-name="Grupo 62442" transform="translate(27.688)">
                <path id="Trazado_133426" data-name="Trazado 133426" d="M10112.076,2644.488l-10.148-11.083-6.088-1.156-6.9.873a1.488,1.488,0,0,0,.875,1.68l-2.569.144a1.453,1.453,0,0,0,.95,1.9l-1.824.319a2.621,2.621,0,0,0,2.841,1.5,39.635,39.635,0,0,1,5.4-.364l3.569,1.973-5.317-.221-3.863.729s-.515.987.364,1.223a24.665,24.665,0,0,0,4.229,0l4.819,1.541s1.885,2.672,2.542,3.4a18.893,18.893,0,0,0,3.788,2.081l1.541,1.382Z" transform="translate(-10086.37 -2632.25)" fill="#ffbf9d"/>
                <path id="Trazado_133427" data-name="Trazado 133427" d="M10088.1,2636.459a10.4,10.4,0,0,0,1.983-.072c1.224-.1,2.9-.257,4.758-.458l1.776-.2h-.069c1.376.39,2.567.714,3.438.925a5.7,5.7,0,0,0,1.38.278,6.457,6.457,0,0,0-1.313-.514c-.842-.278-2.025-.647-3.4-1.058h-.077l-1.782.185c-1.85.2-3.529.4-4.742.57A9.7,9.7,0,0,0,10088.1,2636.459Z" transform="translate(-10087.212 -2633.762)" fill="#ff9a6c"/>
                <path id="Trazado_133428" data-name="Trazado 133428" d="M10087.3,2640.434a7.815,7.815,0,0,0,1.795-.124c1.1-.123,2.625-.323,4.3-.57l1.664-.252h-.1a34.536,34.536,0,0,0,4.2,1.48,33.748,33.748,0,0,0-4.059-1.829h-.1l-1.664.237c-1.676.246-3.191.514-4.281.688A8.379,8.379,0,0,0,10087.3,2640.434Z" transform="translate(-10086.821 -2635.599)" fill="#ff9a6c"/>
              </g>
              <g id="Grupo_62443" data-name="Grupo 62443" transform="translate(0 0.385)">
                <path id="Trazado_133429" data-name="Trazado 133429" d="M10036.932,2635.728l5.139,19.432a2.418,2.418,0,0,0,2.383,1.8l26.636-.513a2.416,2.416,0,0,0,2.317-2.913l-3.926-18.615a2.419,2.419,0,0,0-2.363-1.917h-28.084a2.178,2.178,0,0,0-2.1,2.729Z" transform="translate(-10034.612 -2632.999)" fill="#344154"/>
                <path id="Trazado_133430" data-name="Trazado 133430" d="M10068.989,2648.052a1.305,1.305,0,1,1-1.88.514A1.392,1.392,0,0,1,10068.989,2648.052Z" transform="translate(-10049.253 -2640.232)" fill="#fff"/>
                <path id="Trazado_133431" data-name="Trazado 133431" d="M10032.853,2643.658a1.739,1.739,0,0,1,0-2.143,2.646,2.646,0,0,1,2.054-.955,5.7,5.7,0,0,1,2.256.467,14.678,14.678,0,0,1,2.57,1.274,2.421,2.421,0,0,1,1.273,1.49c.112.668-.607,1.429-1.2,1.094a2.819,2.819,0,0,1,1.655,1.968c.123.838-.329,1.295-1.142,1.542a1.268,1.268,0,0,1,.729,1.618,1.46,1.46,0,0,1-1.823.561,4.218,4.218,0,0,1-1.588-1.336,3.923,3.923,0,0,1,.453,2.672,5.217,5.217,0,0,1-3.418-4.2,2.411,2.411,0,0,1-.658-2.97,2.5,2.5,0,0,1-1.489-2.091" transform="translate(-10032.483 -2636.676)" fill="#ffbf9d"/>
                <path id="Trazado_133432" data-name="Trazado 133432" d="M10042.413,2654.046a6.02,6.02,0,0,1-.776-.6,5.254,5.254,0,0,0-2.054-1.028,2.848,2.848,0,0,0-1.248,0,2.423,2.423,0,0,0-.916.457,3.011,3.011,0,0,0-.591.75.518.518,0,0,1,.072-.262,1.717,1.717,0,0,1,.431-.591,2.275,2.275,0,0,1,.957-.514,2.788,2.788,0,0,1,1.336,0,4.791,4.791,0,0,1,2.1,1.13A3.747,3.747,0,0,1,10042.413,2654.046Z" transform="translate(-10034.596 -2642.326)" fill="#ff9a6c"/>
                <path id="Trazado_133433" data-name="Trazado 133433" d="M10041.442,2647.784a4.236,4.236,0,0,1-.947-.4,10.053,10.053,0,0,0-1.026-.441,8.622,8.622,0,0,0-1.294-.334,3.8,3.8,0,0,0-1.315,0,2.365,2.365,0,0,0-.971.427,2.417,2.417,0,0,0-.639.76.525.525,0,0,1,.077-.272,1.678,1.678,0,0,1,.473-.6,2.388,2.388,0,0,1,1.028-.513,3.679,3.679,0,0,1,1.385,0,7.654,7.654,0,0,1,1.322.359,8.005,8.005,0,0,1,1.03.513A7.168,7.168,0,0,1,10041.442,2647.784Z" transform="translate(-10033.828 -2639.492)" fill="#ff9a6c"/>
              </g>
            </g>
          </g>
          <g id="Grupo_62448" data-name="Grupo 62448" transform="translate(65.215 20.836)">
            <g id="Grupo_62446" data-name="Grupo 62446">
              <path id="Trazado_133434" data-name="Trazado 133434" d="M9992.061,2556.248l-6.5-.149a15.167,15.167,0,1,0,1.6,5.19h0Z" transform="translate(-9956.93 -2547.928)" fill="#fafafa"/>
              <path id="Trazado_133435" data-name="Trazado 133435" d="M9992.056,2556.248l-4.859,5.081-.051.052-.027-.067h.093a15.911,15.911,0,0,1,0,3.633,15.3,15.3,0,0,1-1.115,4.172,13.555,13.555,0,0,1-1.126,2.117c-.23.344-.451.7-.7,1.028l-.822,1a15.27,15.27,0,0,1-16.395,4.2,15.487,15.487,0,0,1-5.688-3.6,15,15,0,0,1-3.678-5.975l-.268-.879c-.088-.293-.129-.6-.2-.894s-.121-.593-.161-.894l-.091-.9a5.889,5.889,0,0,1-.041-.9v-.9l.077-.889a7.25,7.25,0,0,1,.107-.884,15.468,15.468,0,0,1,2.569-6.361,14.965,14.965,0,0,1,4.779-4.4,15.333,15.333,0,0,1,11.272-1.634,16.382,16.382,0,0,1,4.561,1.963,15.086,15.086,0,0,1,3.271,2.815,15.292,15.292,0,0,1,2.014,2.975l-.036-.026,6.5.2-6.5-.1h-.031v-.025a15.368,15.368,0,0,0-2.019-2.944,15.129,15.129,0,0,0-3.258-2.779,16.335,16.335,0,0,0-4.527-1.927,15.2,15.2,0,0,0-11.154,1.639,14.781,14.781,0,0,0-4.712,4.357,15.191,15.191,0,0,0-2.568,6.284,6.833,6.833,0,0,0-.108.868l-.076.878v.889a5.516,5.516,0,0,0,.041.889l.092.894a8.744,8.744,0,0,0,.16.884c.066.292.1.59.194.879l.262.873a14.749,14.749,0,0,0,3.635,5.9,14.97,14.97,0,0,0,21.841-.514l.814-.987c.249-.339.469-.693.7-1.028a14.007,14.007,0,0,0,1.125-2.1,15.36,15.36,0,0,0,1.121-4.137,15.705,15.705,0,0,0,0-3.6l-.042-.355.128.329h-.076Z" transform="translate(-9956.925 -2547.928)" fill="#344154"/>
            </g>
            <g id="Grupo_62447" data-name="Grupo 62447" transform="translate(7.622 13.242)">
              <path id="Trazado_133436" data-name="Trazado 133436" d="M9974.843,2575.241a1.542,1.542,0,1,1-1.543-1.542A1.541,1.541,0,0,1,9974.843,2575.241Z" transform="translate(-9971.76 -2573.7)" fill="#344154"/>
              <path id="Trazado_133437" data-name="Trazado 133437" d="M9986.813,2575.241a1.542,1.542,0,1,1-1.541-1.542A1.541,1.541,0,0,1,9986.813,2575.241Z" transform="translate(-9977.579 -2573.7)" fill="#344154"/>
              <path id="Trazado_133438" data-name="Trazado 133438" d="M9998.98,2574.483a1.542,1.542,0,1,1-2.1-.565A1.543,1.543,0,0,1,9998.98,2574.483Z" transform="translate(-9983.597 -2573.708)" fill="#344154"/>
            </g>
          </g>
          <g id="Grupo_62462" data-name="Grupo 62462" transform="translate(0 105.419)">
            <g id="Grupo_62450" data-name="Grupo 62450" transform="translate(0 23.496)">
              <g id="Grupo_62449" data-name="Grupo 62449">
                <rect id="Rectángulo_13835" data-name="Rectángulo 13835" width="116.921" height="86.833" transform="translate(0.103 0.159)" fill="#fff"/>
                <path id="Trazado_133439" data-name="Trazado 133439" d="M9946.992,2845.272c0-.9-.046-34.271-.108-86.833l.108.108H9830.081l.134-.134v86.833l-.124-.118,116.921.118-116.921.124H9830v-87.09h.144l116.91.026h.108v.108C9947.043,2811,9946.992,2844.368,9946.992,2845.272Z" transform="translate(-9830 -2758.28)" fill="#344154"/>
              </g>
              <path id="Trazado_133440" data-name="Trazado 133440" d="M9947.047,2780.874c0,.077-26.18.139-58.467.139s-58.471-.062-58.471-.139,26.174-.134,58.471-.134S9947.047,2780.822,9947.047,2780.874Z" transform="translate(-9830.054 -2769.2)" fill="#839eb6"/>
              <circle id="Elipse_4620" data-name="Elipse 4620" cx="1.721" cy="1.721" r="1.721" transform="translate(3.314 3.638)" fill="#839eb6"/>
              <circle id="Elipse_4621" data-name="Elipse 4621" cx="1.721" cy="1.721" r="1.721" transform="translate(8.503 3.638)" fill="#839eb6"/>
              <circle id="Elipse_4622" data-name="Elipse 4622" cx="1.721" cy="1.721" r="1.721" transform="translate(13.693 3.638)" fill="#839eb6"/>
            </g>
            <g id="Grupo_62461" data-name="Grupo 62461" transform="translate(13.246)">
              <path id="Trazado_133441" data-name="Trazado 133441" d="M10032.7,2887.113s2.855-3.735,4.2-3.879,9.736.144,10.918,0,7.82-2.954,7.82-2.954,1.177.4,1.028,1.454-7.527,5.04-8.412,5.189-7.969.668-7.969.668l-1.776,3.206Z" transform="translate(-9941.797 -2794.099)" fill="#b8695e"/>
              <g id="Grupo_62456" data-name="Grupo 62456" transform="translate(36.158 27.14)">
                <path id="Trazado_133442" data-name="Trazado 133442" d="M9978.627,2793.075a4.469,4.469,0,0,0,.71-7.759l-5.18-1.736q-1.118,10.03-2.378,20.038a7.569,7.569,0,0,0,3.976-1.1,3.353,3.353,0,0,0,1.47-3.6,3.539,3.539,0,0,0,1.4-5.831Z" transform="translate(-9948.336 -2774.225)" fill="#344154"/>
                <g id="Grupo_62454" data-name="Grupo 62454" transform="translate(3.109 11.292)">
                  <g id="Grupo_62453" data-name="Grupo 62453">
                    <path id="Trazado_133443" data-name="Trazado 133443" d="M9933.99,2790.988l.194-2.379,14.546-1.259c4.445,0,8.733,4.876,8.581,9.32-.2,4.938-.622,10.959-1.577,14.561-1.923,7.24-7.656,7.6-7.656,7.6l-.514,7.3c-.385,4.254-4.059,4.825-8.309,4.445h0a7.744,7.744,0,0,1-7.039-8.144Z" transform="translate(-9932.205 -2787.35)" fill="#b8695e"/>
                    <g id="Grupo_62451" data-name="Grupo 62451" transform="translate(19.487 11.094)">
                      <path id="Trazado_133444" data-name="Trazado 133444" d="M9974.766,2814.777a.951.951,0,0,1-1.028.863.909.909,0,0,1-.888-.951.949.949,0,0,1,1.027-.863.909.909,0,0,1,.889.95Z" transform="translate(-9971.453 -2811.314)" fill="#344154"/>
                      <path id="Trazado_133445" data-name="Trazado 133445" d="M9973.875,2810.138c-.129.108-.79-.514-1.808-.591s-1.814.329-1.911.2.1-.272.442-.478a2.633,2.633,0,0,1,1.541-.308,2.573,2.573,0,0,1,1.424.627C9973.855,2809.855,9973.937,2810.086,9973.875,2810.138Z" transform="translate(-9970.131 -2808.942)" fill="#344154"/>
                    </g>
                    <g id="Grupo_62452" data-name="Grupo 62452" transform="translate(9.529 10.265)">
                      <path id="Trazado_133446" data-name="Trazado 133446" d="M9956.3,2813.616a.947.947,0,0,1-1.026.858.907.907,0,0,1-.886-.951.945.945,0,0,1,1.026-.858.91.91,0,0,1,.886.95Z" transform="translate(-9952.518 -2809.921)" fill="#344154"/>
                      <path id="Trazado_133447" data-name="Trazado 133447" d="M9954.477,2808.521c-.129.113-.791-.513-1.809-.591s-1.809.334-1.906.2c-.052-.062.093-.268.441-.473a2.567,2.567,0,0,1,1.542-.308,2.482,2.482,0,0,1,1.423.626C9954.431,2808.239,9954.512,2808.475,9954.477,2808.521Z" transform="translate(-9950.752 -2807.328)" fill="#344154"/>
                    </g>
                    <path id="Trazado_133448" data-name="Trazado 133448" d="M9963.629,2816.993a6.635,6.635,0,0,1,1.679-.134c.264,0,.514-.025.571-.2a1.312,1.312,0,0,0-.092-.787l-.565-2.055a34.529,34.529,0,0,1-1.2-5.344,33.822,33.822,0,0,1,1.625,5.236c.185.719.364,1.4.513,2.055a1.547,1.547,0,0,1,.031,1.028.668.668,0,0,1-.469.334,1.686,1.686,0,0,1-.446,0A6.662,6.662,0,0,1,9963.629,2816.993Z" transform="translate(-9947.483 -2797.623)" fill="#344154"/>
                    <path id="Trazado_133449" data-name="Trazado 133449" d="M9953.778,2845.178a19.64,19.64,0,0,1-9.841-3.679s1.966,5.406,9.65,5.513Z" transform="translate(-9937.909 -2813.677)" fill="#925249"/>
                  </g>
                  <path id="Trazado_133450" data-name="Trazado 133450" d="M9954.569,2803.2c-.128.262-1.13.031-2.333.052s-2.2.247-2.337,0c-.057-.124.134-.37.551-.6a3.954,3.954,0,0,1,1.776-.427,3.89,3.89,0,0,1,1.784.4C9954.411,2802.831,9954.606,2803.072,9954.569,2803.2Z" transform="translate(-9940.803 -2794.584)" fill="#344154"/>
                  <path id="Trazado_133451" data-name="Trazado 133451" d="M9974.792,2803.317c-.2.215-.879-.1-1.716-.2s-1.572,0-1.713-.262c-.06-.123.077-.344.412-.514a2.493,2.493,0,0,1,2.76.37C9974.808,2802.967,9974.885,2803.213,9974.792,2803.317Z" transform="translate(-9951.234 -2794.515)" fill="#344154"/>
                </g>
                <path id="Trazado_133452" data-name="Trazado 133452" d="M9957.622,2779.66a4.623,4.623,0,0,0,2.265-4.537,5.248,5.248,0,0,0-3.17-4.054,5.371,5.371,0,0,0-1.026-.309,4.74,4.74,0,0,0-2.221-.889,2.483,2.483,0,0,0-1.706-2.122,5.955,5.955,0,0,0-2.842-.175,4.824,4.824,0,0,0-7.769-.452,110.057,110.057,0,0,0-9,2.851,3.889,3.889,0,0,0-.735.946,3.734,3.734,0,0,0-.848,1.387,4.444,4.444,0,0,0-2.825,7.851,4.06,4.06,0,0,0,.231,6.5,5.21,5.21,0,0,0,0,4.111,2.53,2.53,0,0,0,1.176,1.336.959.959,0,0,0,.084.288c.369.735,1.483.544,2.172.1a8.927,8.927,0,0,0,3.355-4.824c.637-1.891.958-3.884,1.572-5.78l.046-.134a5.443,5.443,0,0,1,1.28-2.1,13.446,13.446,0,0,0,1.649,1.311,5.893,5.893,0,0,0,6.951-.653,8.663,8.663,0,0,0,5.267,2.569,8.406,8.406,0,0,0,5.652-1.079,2.727,2.727,0,0,0,.986-1.151A.838.838,0,0,0,9957.622,2779.66Z" transform="translate(-9926.153 -2765.372)" fill="#344154"/>
                <path id="Trazado_133453" data-name="Trazado 133453" d="M9931.832,2813.147c-.094-.057-3.8-1.917-4.4,2.1s3.561,3.787,3.6,3.674S9931.832,2813.147,9931.832,2813.147Z" transform="translate(-9926.747 -2788.368)" fill="#b8695e"/>
                <path id="Trazado_133454" data-name="Trazado 133454" d="M9931,2818.4a1.126,1.126,0,0,1-.205.077.709.709,0,0,1-.514-.067,1.757,1.757,0,0,1-.57-1.675,2.383,2.383,0,0,1,.344-.971.832.832,0,0,1,.606-.457.358.358,0,0,1,.385.251.325.325,0,0,1,0,.206c0,.01.1-.052.087-.221a.451.451,0,0,0-.117-.277.515.515,0,0,0-.369-.159.986.986,0,0,0-.827.513,2.371,2.371,0,0,0-.407,1.084,1.834,1.834,0,0,0,.762,1.885.756.756,0,0,0,.651,0C9930.979,2818.5,9931.007,2818.414,9931,2818.4Z" transform="translate(-9927.729 -2789.555)" fill="#925249"/>
                <path id="Trazado_133455" data-name="Trazado 133455" d="M9970.58,2783a.406.406,0,0,1,0,.1,2.269,2.269,0,0,1,.036.3,3.029,3.029,0,0,1-.154,1.136,3.082,3.082,0,0,1-1.025,1.465,3.2,3.2,0,0,1-2.258.642l.082-.057a6.986,6.986,0,0,1-2.08,3.309,5.376,5.376,0,0,1-1.932,1.125,4.472,4.472,0,0,1-2.358.072,7.79,7.79,0,0,1-2.168-.827,6,6,0,0,1-1.731-1.341h.123a7.371,7.371,0,0,1-3.6,1.48,5.773,5.773,0,0,1-3-.611,6.1,6.1,0,0,1-1.625-1.187c-.158-.169-.282-.308-.354-.4a.681.681,0,0,1-.107-.154s.17.19.514.514a6.348,6.348,0,0,0,1.634,1.13,5.762,5.762,0,0,0,2.938.56,7.264,7.264,0,0,0,3.5-1.469l.067-.052.056.066a5.951,5.951,0,0,0,1.68,1.29,7.779,7.779,0,0,0,2.123.806,4.309,4.309,0,0,0,2.261-.062,5.234,5.234,0,0,0,1.869-1.089,6.827,6.827,0,0,0,2.056-3.211v-.062h.066a3.037,3.037,0,0,0,2.163-.591,2.992,2.992,0,0,0,1.028-1.4,3.229,3.229,0,0,0,.19-1.1C9970.6,2783.143,9970.57,2783,9970.58,2783Z" transform="translate(-9936.984 -2773.943)" fill="#5e6178"/>
                <path id="Trazado_133456" data-name="Trazado 133456" d="M9933.8,2778.57a8.062,8.062,0,0,0-.515,1.336,5.8,5.8,0,0,0,.191,3.663v.062l-.057.042a3.708,3.708,0,0,0-1.275,1.5,3.551,3.551,0,0,0-.3,2.137,3.745,3.745,0,0,0,1.443,2.353l.068.052-.047.072a4.615,4.615,0,0,0-.785,2.451,4.981,4.981,0,0,0,.334,2.029,5.508,5.508,0,0,0,.962,1.573.47.47,0,0,1-.1-.087,2.839,2.839,0,0,1-.252-.262,4.508,4.508,0,0,1-.715-1.182,5.058,5.058,0,0,1-.379-2.055,4.694,4.694,0,0,1,.791-2.543v.118a3.9,3.9,0,0,1-1.541-2.466,3.718,3.718,0,0,1,.317-2.246,3.855,3.855,0,0,1,1.352-1.542l-.031.1a5.752,5.752,0,0,1-.132-3.751,5.023,5.023,0,0,1,.411-.992c.061-.107.117-.19.147-.241A.41.41,0,0,1,9933.8,2778.57Z" transform="translate(-9928.789 -2771.789)" fill="#5e6178"/>
                <path id="Trazado_133457" data-name="Trazado 133457" d="M9930.023,2823.728a3.048,3.048,0,0,0-.176.714,1.068,1.068,0,0,0,.2.714.9.9,0,0,0,.795.344.742.742,0,0,0,.586-.6,1.4,1.4,0,0,0-.041-.765c-.138-.432-.287-.689-.257-.7a1.813,1.813,0,0,1,.381.657,1.45,1.45,0,0,1,.087.848,1.126,1.126,0,0,1-.232.468.823.823,0,0,1-.514.272,1.025,1.025,0,0,1-.96-.426,1.187,1.187,0,0,1-.2-.827,1.111,1.111,0,0,1,.325-.7Z" transform="translate(-9927.871 -2793.604)" fill="#344154"/>
                <g id="Grupo_62455" data-name="Grupo 62455" transform="translate(15.708 31.577)">
                  <path id="Trazado_133458" data-name="Trazado 133458" d="M9957.867,2827.283a1.855,1.855,0,0,0,.3,3.042,1.068,1.068,0,0,0,.682.159c.416-.061.7-.447.931-.8l.584-.868a.44.44,0,0,0,.107-.329c-.029-.123-.153-.19-.271-.247l-2.242-1.074" transform="translate(-9956.96 -2826.995)" fill="#925249"/>
                  <path id="Trazado_133459" data-name="Trazado 133459" d="M9958.586,2830.19a2.11,2.11,0,0,1-1.028-.365,1.683,1.683,0,0,1-.775-.966,1.287,1.287,0,0,1,0-.761,2.233,2.233,0,0,1,.349-.713,2.063,2.063,0,0,1,.576-.514l.071-.041.079.041c1.442.889,2.609,1.428,2.567,1.495a9.868,9.868,0,0,1-2.733-1.248h.148a1.818,1.818,0,0,0-.513.447,1.531,1.531,0,0,0-.334,1.238,1.591,1.591,0,0,0,.632.863A9.409,9.409,0,0,1,9958.586,2830.19Z" transform="translate(-9956.726 -2826.83)" fill="#344154"/>
                </g>
              </g>
              <g id="Grupo_62457" data-name="Grupo 62457" transform="translate(0 70.447)">
                <path id="Trazado_133460" data-name="Trazado 133460" d="M9855.779,2889.731s14.617-26.2,17.048-30.443c2.862-4.984,5.354-6.792,7.6-7.882a17.665,17.665,0,0,1,7.559-1.69l7.248-.057s2.755,4.111,6.489,4.933c5.138,1.11,9-2.708,9-2.708l10.414,4.265-2.09,19.247a28.367,28.367,0,0,1-5.139,13.441l-.688.894-38.38-.036,4.448-13.847-8.22,13.873Z" transform="translate(-9855.779 -2849.66)" fill="#5e6178"/>
                <path id="Trazado_133461" data-name="Trazado 133461" d="M9977.55,2862.29s3.021,1.778,5.3,9.146,7.193,20.475,7.193,20.475l12.331-13.991,7.318,4.624s-11.819,20.49-13.68,22.916c-2.793,3.6-9.857,5.682-14.006.879-3.014-3.494-10.218-20.4-10.218-20.4Z" transform="translate(-9912.185 -2855.801)" fill="#5e6178"/>
                <path id="Trazado_133462" data-name="Trazado 133462" d="M9971.056,2883.08a1,1,0,0,1,.113.221c.067.149.17.365.278.653a21,21,0,0,1,.781,2.5,22.066,22.066,0,0,1-2.529,16.663,21.493,21.493,0,0,1-1.49,2.147c-.189.242-.35.417-.457.54a.987.987,0,0,1-.175.179,7.761,7.761,0,0,1,.551-.785,25.078,25.078,0,0,0,1.408-2.179,22.821,22.821,0,0,0,2.506-16.524,25.78,25.78,0,0,0-.692-2.5A7.642,7.642,0,0,1,9971.056,2883.08Z" transform="translate(-9910.135 -2865.908)" fill="#344154"/>
                <path id="Trazado_133463" data-name="Trazado 133463" d="M9899.591,2878.5a.941.941,0,0,1,0,.267c-.032.206-.062.457-.1.76-.1.663-.251,1.614-.467,2.785-.433,2.343-1.125,5.565-2.094,9.074s-2.019,6.633-2.851,8.868c-.411,1.115-.765,2.014-1.027,2.631-.117.283-.221.514-.3.7a1,1,0,0,1-.124.241.907.907,0,0,1,.071-.262c.067-.19.149-.431.252-.719l.944-2.661c.782-2.246,1.8-5.37,2.771-8.874s1.685-6.705,2.163-9.038l.549-2.764c.062-.3.108-.55.149-.75A1.718,1.718,0,0,1,9899.591,2878.5Z" transform="translate(-9873.694 -2863.682)" fill="#344154"/>
              </g>
              <g id="Grupo_62459" data-name="Grupo 62459" transform="translate(7.542 107.975)">
                <g id="Grupo_62458" data-name="Grupo 62458">
                  <path id="Trazado_133464" data-name="Trazado 133464" d="M9870.459,2925.217a11.653,11.653,0,0,1,2.081-2.256,2.033,2.033,0,0,1,2.056.026l.416.37s2.169-.971,3.207-.226c0,0,2.054-.971,3.045.144,0,0,1.594-1.027,2.266-.134a3.694,3.694,0,0,1,.277,3.211c-.323.786-.936,3.458-1.407,3.5,0,0-1.269.134-1.438-.55s-.24-1.028-.24-1.028-.483,2.42-1.063,2.538-1.7.056-1.738-1.028c0,0-.514.807-1.068.57s-1.183-.622-1.125-1.279.065-1.311.065-1.311-.286.956-.766.75-.959-.165-1.228-.976-.936-2.364-.936-2.364Z" transform="translate(-9870.459 -2922.699)" fill="#b8695e"/>
                  <path id="Trazado_133465" data-name="Trazado 133465" d="M9879.969,2928.3a6.417,6.417,0,0,1,.209-.684,3.934,3.934,0,0,0,.07-1.68,4,4,0,0,0-.67-1.542c-.255-.354-.461-.514-.439-.565a1.548,1.548,0,0,1,.56.478,3.438,3.438,0,0,1,.62,3.355A1.456,1.456,0,0,1,9879.969,2928.3Z" transform="translate(-9874.678 -2923.248)" fill="#925249"/>
                  <path id="Trazado_133466" data-name="Trazado 133466" d="M9885.4,2923.57a3.73,3.73,0,0,1,.278.955,9.41,9.41,0,0,1-.325,4.748,3.172,3.172,0,0,1-.4.909,16.8,16.8,0,0,0,.657-3.278,17.566,17.566,0,0,0-.21-3.335Z" transform="translate(-9877.503 -2923.122)" fill="#925249"/>
                  <path id="Trazado_133467" data-name="Trazado 133467" d="M9891.024,2923.88a10.176,10.176,0,0,1-.581,5.05c-.058,0,.247-1.12.405-2.512S9890.962,2923.885,9891.024,2923.88Z" transform="translate(-9880.173 -2923.273)" fill="#925249"/>
                </g>
                <path id="Trazado_133468" data-name="Trazado 133468" d="M9904.272,2924.542a.806.806,0,0,0-.545-.442,1.758,1.758,0,0,0-1.572.421,6.026,6.026,0,0,0-1.145,1.413h3.084C9904.052,2925.431,9904.447,2924.953,9904.272,2924.542Z" transform="translate(-9885.313 -2923.359)" fill="#b8695e"/>
              </g>
              <path id="Trazado_133469" data-name="Trazado 133469" d="M10048.452,2824.845a3.637,3.637,0,0,0-.9-2.595,8.179,8.179,0,0,0-3.083-1.778,37.164,37.164,0,0,1-3.734-1.618,11.844,11.844,0,0,1-2.692-1.845,7.487,7.487,0,0,1-1.747-2.456,8.231,8.231,0,0,1-.627-3.355,7.433,7.433,0,0,1,2.147-5.5,9.012,9.012,0,0,1,5.7-2.5v-4.254h3.182v4.311a8.333,8.333,0,0,1,5.5,2.929,9.633,9.633,0,0,1,1.984,6.309h-5.739a5.494,5.494,0,0,0-.981-3.566,3.266,3.266,0,0,0-2.637-1.182,3.35,3.35,0,0,0-2.522.925,3.51,3.51,0,0,0-.894,2.569,3.339,3.339,0,0,0,.879,2.42,9.56,9.56,0,0,0,3.246,1.87,34.651,34.651,0,0,1,3.9,1.8,11.162,11.162,0,0,1,2.569,1.906,7.335,7.335,0,0,1,1.607,2.42,8.312,8.312,0,0,1,.555,3.17,7.406,7.406,0,0,1-2.1,5.482,9.24,9.24,0,0,1-5.8,2.482v3.956h-3.159V2832.8a9.612,9.612,0,0,1-6.31-2.888,9.237,9.237,0,0,1-2.229-6.525h5.739a5.289,5.289,0,0,0,1.119,3.622,4.112,4.112,0,0,0,3.232,1.264,3.947,3.947,0,0,0,2.76-.925A3.209,3.209,0,0,0,10048.452,2824.845Z" transform="translate(-9942.702 -2754.552)" fill="#344154"/>
              <g id="Grupo_62460" data-name="Grupo 62460" transform="translate(90.491)">
                <rect id="Rectángulo_13836" data-name="Rectángulo 13836" width="4.28" height="29.693" transform="translate(12.177)" fill="#344154"/>
                <path id="Trazado_133470" data-name="Trazado 133470" d="M10431.568,2978.792l-14.334,9.048-14.336-9.048v-.092h28.67Z" transform="translate(-10402.898 -2951.217)" fill="#344154"/>
              </g>
            </g>
          </g>
          <g id="Grupo_62465" data-name="Grupo 62465" transform="translate(11.909 136.329)">
            <g id="Grupo_62463" data-name="Grupo 62463">
              <path id="Trazado_133471" data-name="Trazado 133471" d="M9884.559,2801.446l-3.211-5.652a15.149,15.149,0,1,0-3.628,4.038h0Z" transform="translate(-9853.237 -2772.709)" fill="#fafafa"/>
              <path id="Trazado_133472" data-name="Trazado 133472" d="M9884.5,2801.47l-6.854-1.541h-.071l.045-.057h0l.066.062a14.984,14.984,0,0,1-7.264,3.063,13.661,13.661,0,0,1-2.395.123c-.415-.026-.833-.036-1.259-.067l-1.279-.2a15.265,15.265,0,0,1-9.454-6.073,14.956,14.956,0,0,1-2.568-5.847,15.366,15.366,0,0,1,.179-6.73,14.922,14.922,0,0,1,3.241-6.228l.617-.678c.206-.231.446-.416.666-.627a6.5,6.5,0,0,1,.686-.6l.729-.514a6.536,6.536,0,0,1,.75-.514l.771-.468.8-.39a6.956,6.956,0,0,1,.812-.36,15.412,15.412,0,0,1,6.783-1.028,14.914,14.914,0,0,1,6.226,1.839,15.393,15.393,0,0,1,4.626,3.931,15.55,15.55,0,0,1,2.567,4.912,16.453,16.453,0,0,1,.657,4.922,14.907,14.907,0,0,1-.744,4.25,15.308,15.308,0,0,1-1.541,3.258v-.047l3.17,5.652-3.246-5.652h0a15.566,15.566,0,0,0,1.489-3.247,14.958,14.958,0,0,0,.714-4.219,16.28,16.28,0,0,0-.667-4.876,15.227,15.227,0,0,0-7.128-8.735,14.772,14.772,0,0,0-6.166-1.809,15.266,15.266,0,0,0-6.677,1.028,6.966,6.966,0,0,0-.8.36l-.79.385-.761.462a6.289,6.289,0,0,0-.741.514l-.719.514a8.922,8.922,0,0,0-.678.591,6.249,6.249,0,0,0-.659.616l-.611.673a14.788,14.788,0,0,0-3.206,6.166,15.336,15.336,0,0,0-.18,6.648,14.889,14.889,0,0,0,2.523,5.785,15.159,15.159,0,0,0,9.345,6.027l1.266.2c.42.036.837.046,1.243.072a13.959,13.959,0,0,0,2.378-.113,15.071,15.071,0,0,0,4.111-1.156,15.45,15.45,0,0,0,3.082-1.85l.282-.216-.215.282h0v-.072Z" transform="translate(-9853.179 -2772.732)" fill="#344154"/>
            </g>
            <g id="Grupo_62464" data-name="Grupo 62464" transform="translate(7.878 13.611)">
              <path id="Trazado_133473" data-name="Trazado 133473" d="M9871.591,2800.741a1.541,1.541,0,1,1-1.541-1.541A1.541,1.541,0,0,1,9871.591,2800.741Z" transform="translate(-9868.509 -2799.2)" fill="#344154"/>
              <path id="Trazado_133474" data-name="Trazado 133474" d="M9883.561,2800.741a1.541,1.541,0,1,1-1.54-1.541A1.54,1.54,0,0,1,9883.561,2800.741Z" transform="translate(-9874.329 -2799.2)" fill="#344154"/>
              <path id="Trazado_133475" data-name="Trazado 133475" d="M9895.7,2799.983a1.541,1.541,0,1,1-2.1-.565A1.54,1.54,0,0,1,9895.7,2799.983Z" transform="translate(-9880.332 -2799.207)" fill="#344154"/>
            </g>
          </g>
        </g>
      </g>
    </g>
  </g>
</svg>
