<svg xmlns="http://www.w3.org/2000/svg" xmlns:xlink="http://www.w3.org/1999/xlink" width="147" height="147" viewBox="0 0 147 147">
  <defs>
    <clipPath id="clip-path">
      <rect id="Rectángulo_404796" data-name="Rectángulo 404796" width="147" height="147" fill="none"/>
    </clipPath>
  </defs>
  <g id="Grupo_1111632" data-name="Grupo 1111632" transform="translate(-0.084 -0.049)">
    <g id="Grupo_1111631" data-name="Grupo 1111631" transform="translate(0.084 0.049)" clip-path="url(#clip-path)">
      <path id="Trazado_901298" data-name="Trazado 901298" d="M147.087,73.544A73.544,73.544,0,1,1,73.544,0a73.544,73.544,0,0,1,73.544,73.544" transform="translate(-0.06 -0.079)" fill="#f2e6dc"/>
      <path id="Trazado_901299" data-name="Trazado 901299" d="M1190.013,843.786a.177.177,0,0,1-.177-.177v-19.1a.177.177,0,0,1,.355,0v19.1a.177.177,0,0,1-.177.177" transform="translate(-1094.262 -758.157)" fill="#363e44"/>
      <path id="Trazado_901301" data-name="Trazado 901301" d="M933.3,245.964a.177.177,0,0,1-.177-.177V232.313H910.868a.177.177,0,1,1,0-.354H933.3a.177.177,0,0,1,.177.177v13.65a.177.177,0,0,1-.177.177" transform="translate(-837.553 -213.395)" fill="#363e44"/>
      <rect id="Rectángulo_404761" data-name="Rectángulo 404761" width="74.426" height="100.151" transform="translate(11.81 22.154)" fill="#fff"/>
      <path id="Trazado_901302" data-name="Trazado 901302" d="M337.315,35.571h0a10.956,10.956,0,0,0-21.913,0H303.388V50.01h45.941V35.571Zm-19.03,0a8.073,8.073,0,0,1,16.146,0Z" transform="translate(-279.063 -22.716)" fill="#f7f1eb"/>
      <path id="Trazado_901303" data-name="Trazado 901303" d="M368.786,26.673H322.845a.177.177,0,0,1-.177-.177V12.058a.177.177,0,0,1,.177-.177h11.838a11.134,11.134,0,0,1,22.265,0h11.838a.177.177,0,0,1,.177.177V26.5a.177.177,0,0,1-.177.177m-45.764-.354h45.587V12.235H356.772a.177.177,0,0,1-.177-.177,10.779,10.779,0,1,0-21.558,0,.177.177,0,0,1-.177.177H323.022Zm33.927-14.261h0Zm-3.06.177H337.743a.177.177,0,0,1-.177-.177,8.25,8.25,0,0,1,16.5,0,.177.177,0,0,1-.177.177m-15.967-.354H353.71a7.9,7.9,0,0,0-15.788,0" transform="translate(-296.793 -0.929)" fill="#d3bba3"/>
      <rect id="Rectángulo_404762" data-name="Rectángulo 404762" width="52.085" height="36.994" transform="translate(22.189 78.83)" fill="#f2e6dc"/>
      <rect id="Rectángulo_404763" data-name="Rectángulo 404763" width="52.085" height="3.283" transform="translate(22.189 78.83)" fill="#e6d0be"/>
      <path id="Trazado_901304" data-name="Trazado 901304" d="M326.863,1016.9H274.778a.177.177,0,0,1-.177-.177V979.729a.177.177,0,0,1,.177-.177h52.085a.177.177,0,0,1,.177.177v36.994a.177.177,0,0,1-.177.177m-51.908-.354h51.731v-36.64H274.955Z" transform="translate(-252.589 -900.899)" fill="#e6d0be"/>
      <path id="Trazado_901305" data-name="Trazado 901305" d="M296.169,993.922a.747.747,0,1,1-.747-.747.747.747,0,0,1,.747.747" transform="translate(-271.051 -913.427)" fill="#fff"/>
      <path id="Trazado_901306" data-name="Trazado 901306" d="M326.185,993.922a.747.747,0,1,1-.747-.747.747.747,0,0,1,.747.747" transform="translate(-298.654 -913.427)" fill="#fff"/>
      <path id="Trazado_901307" data-name="Trazado 901307" d="M356.2,993.922a.747.747,0,1,1-.747-.747.747.747,0,0,1,.747.747" transform="translate(-326.258 -913.427)" fill="#fff"/>
      <path id="Trazado_901308" data-name="Trazado 901308" d="M355.819,1350.523H308.862a.177.177,0,0,1,0-.355h46.957a.177.177,0,0,1,0,.355" transform="translate(-283.934 -1241.727)" fill="#e6d0be"/>
      <path id="Trazado_901309" data-name="Trazado 901309" d="M355.819,1288.284H308.862a.177.177,0,0,1,0-.355h46.957a.177.177,0,0,1,0,.355" transform="translate(-283.934 -1184.49)" fill="#e6d0be"/>
      <path id="Trazado_901310" data-name="Trazado 901310" d="M355.819,1226.043H308.862a.177.177,0,0,1,0-.354h46.957a.177.177,0,0,1,0,.354" transform="translate(-283.934 -1127.252)" fill="#e6d0be"/>
      <path id="Trazado_901311" data-name="Trazado 901311" d="M355.819,1163.8H308.862a.177.177,0,0,1,0-.354h46.957a.177.177,0,0,1,0,.354" transform="translate(-283.934 -1070.014)" fill="#e6d0be"/>
      <path id="Trazado_901312" data-name="Trazado 901312" d="M355.819,1101.564H308.862a.177.177,0,0,1,0-.354h46.957a.177.177,0,0,1,0,.354" transform="translate(-283.934 -1012.778)" fill="#e6d0be"/>
      <path id="Trazado_901313" data-name="Trazado 901313" d="M795.712,1069.338a.177.177,0,0,1-.177-.177v-30.015a.177.177,0,1,1,.354,0v30.015a.177.177,0,0,1-.177.177" transform="translate(-731.653 -955.54)" fill="#e6d0be"/>
      <path id="Trazado_901314" data-name="Trazado 901314" d="M698.341,1069.338a.177.177,0,0,1-.177-.177v-30.015a.177.177,0,1,1,.354,0v30.015a.177.177,0,0,1-.177.177" transform="translate(-642.108 -955.54)" fill="#e6d0be"/>
      <path id="Trazado_901315" data-name="Trazado 901315" d="M600.972,1069.338a.177.177,0,0,1-.177-.177v-30.015a.177.177,0,1,1,.354,0v30.015a.177.177,0,0,1-.177.177" transform="translate(-552.565 -955.54)" fill="#e6d0be"/>
      <path id="Trazado_901316" data-name="Trazado 901316" d="M503.6,1069.338a.177.177,0,0,1-.177-.177v-30.015a.177.177,0,1,1,.355,0v30.015a.177.177,0,0,1-.177.177" transform="translate(-463.022 -955.54)" fill="#e6d0be"/>
      <path id="Trazado_901317" data-name="Trazado 901317" d="M406.232,1069.338a.177.177,0,0,1-.177-.177v-30.015a.177.177,0,1,1,.354,0v30.015a.177.177,0,0,1-.177.177" transform="translate(-373.478 -955.54)" fill="#e6d0be"/>
      <path id="Trazado_901318" data-name="Trazado 901318" d="M344.429,921.476,331.6,922.788l2.839,3.111-14.316,12.115L315,931.675l-17.725,18.131,16.021-11,5.083,6.638,20.772-14.387,2.8,3.072Z" transform="translate(-273.438 -847.491)" fill="#d87355"/>
      <path id="Trazado_901319" data-name="Trazado 901319" d="M296.026,777.278H277.988a.177.177,0,0,1-.177-.177V765.263a.177.177,0,1,1,.354,0v11.66h17.861a.177.177,0,1,1,0,.354" transform="translate(-255.542 -703.671)" fill="#efbc73"/>
      <path id="Trazado_901320" data-name="Trazado 901320" d="M421.987,798.718a.177.177,0,0,1-.091-.329l2.143-1.28a.177.177,0,0,1,.182.3l-2.143,1.28a.177.177,0,0,1-.091.025" transform="translate(-387.966 -733.096)" fill="#efbc73"/>
      <path id="Trazado_901321" data-name="Trazado 901321" d="M371.9,758.547a.177.177,0,0,1-.148-.08l-2.9-4.419a.177.177,0,1,1,.3-.195l2.9,4.419a.177.177,0,0,1-.051.245.176.176,0,0,1-.1.029" transform="translate(-339.231 -693.268)" fill="#efbc73"/>
      <path id="Trazado_901322" data-name="Trazado 901322" d="M325.2,753.487a.177.177,0,0,1-.108-.317l2.255-1.742a.177.177,0,1,1,.217.28l-2.255,1.742a.177.177,0,0,1-.108.037" transform="translate(-298.962 -691.077)" fill="#efbc73"/>
      <path id="Trazado_901323" data-name="Trazado 901323" d="M308.421,771.873a.93.93,0,1,1-.93-.93.93.93,0,0,1,.93.93" transform="translate(-281.981 -709.058)" fill="#efbc73"/>
      <path id="Trazado_901324" data-name="Trazado 901324" d="M355.068,735.878a.93.93,0,1,1-.93-.93.93.93,0,0,1,.93.93" transform="translate(-324.878 -675.956)" fill="#efbc73"/>
      <path id="Trazado_901325" data-name="Trazado 901325" d="M404.114,810.114a.93.93,0,1,1-.93-.93.93.93,0,0,1,.93.93" transform="translate(-369.982 -744.225)" fill="#efbc73"/>
      <path id="Trazado_901326" data-name="Trazado 901326" d="M451.132,783.13a.93.93,0,1,1-.93-.93.93.93,0,0,1,.93.93" transform="translate(-413.221 -719.41)" fill="#efbc73"/>
      <rect id="Rectángulo_404764" data-name="Rectángulo 404764" width="2.313" height="6.341" transform="translate(24.411 65.223)" fill="#8b865c"/>
      <rect id="Rectángulo_404765" data-name="Rectángulo 404765" width="2.313" height="7.605" transform="translate(28.228 63.959)" fill="#8b865c"/>
      <rect id="Rectángulo_404766" data-name="Rectángulo 404766" width="2.313" height="4.098" transform="translate(32.045 67.466)" fill="#8b865c"/>
      <rect id="Rectángulo_404767" data-name="Rectángulo 404767" width="2.313" height="5.275" transform="translate(35.861 66.289)" fill="#8b865c"/>
      <path id="Trazado_901327" data-name="Trazado 901327" d="M355.39,456.09H350.11a.177.177,0,1,1,0-.354h5.163l3.6-2.646h16.2l3.781-3.269H395.6l6.162-5.327a.177.177,0,1,1,.232.268l-6.261,5.413H378.983l-3.781,3.269H358.991Z" transform="translate(-321.867 -408.806)" fill="#d87355"/>
      <path id="Trazado_901328" data-name="Trazado 901328" d="M293.924,537.912H279.1a.177.177,0,1,1,0-.354h14.687l8.592-7.428h3.385l2.907-2.513h13.019l4.274,3.7h5.9a.177.177,0,0,1,0,.354h-6.033l-4.274-3.7H308.807l-2.907,2.514h-3.385Z" transform="translate(-256.568 -485.288)" fill="#efbc73"/>
      <path id="Trazado_901329" data-name="Trazado 901329" d="M856.106,568.545a.721.721,0,1,1,.713.617.67.67,0,0,1-.713-.617" transform="translate(-787.356 -522.36)" fill="#efbc73"/>
      <path id="Trazado_901330" data-name="Trazado 901330" d="M800.645,521.991a.721.721,0,1,1,.713.617.67.67,0,0,1-.713-.617" transform="translate(-736.352 -479.548)" fill="#efbc73"/>
      <path id="Trazado_901331" data-name="Trazado 901331" d="M640.35,521.991a.721.721,0,1,1,.713.617.67.67,0,0,1-.713-.617" transform="translate(-588.941 -479.548)" fill="#efbc73"/>
      <path id="Trazado_901332" data-name="Trazado 901332" d="M606.868,553.6a.721.721,0,1,1,.713.617.67.67,0,0,1-.713-.617" transform="translate(-558.15 -508.616)" fill="#efbc73"/>
      <path id="Trazado_901333" data-name="Trazado 901333" d="M563.931,554.14a.721.721,0,1,1,.713.616.67.67,0,0,1-.713-.616" transform="translate(-518.664 -509.113)" fill="#efbc73"/>
      <path id="Trazado_901334" data-name="Trazado 901334" d="M456.557,645.287a.721.721,0,1,1,.713.617.67.67,0,0,1-.713-.617" transform="translate(-419.921 -592.934)" fill="#efbc73"/>
      <path id="Trazado_901335" data-name="Trazado 901335" d="M468.772,421.031l-.232-.268,7.515-6.5h22.316l3.322-2.872.232.268L498.5,414.62H476.187Z" transform="translate(-430.941 -378.406)" fill="#d3bba3"/>
      <path id="Trazado_901336" data-name="Trazado 901336" d="M288.842,533.9h-8.826v-.354h8.694l6.459-5.584.232.268Z" transform="translate(-257.57 -485.609)" fill="#d3bba3"/>
      <path id="Trazado_901337" data-name="Trazado 901337" d="M378.213,592.144a.721.721,0,1,1,.713.616.67.67,0,0,1-.713-.616" transform="translate(-347.874 -544.062)" fill="#d3bba3"/>
      <path id="Trazado_901338" data-name="Trazado 901338" d="M832.144,442.773a.721.721,0,1,1,.713.617.67.67,0,0,1-.713-.617" transform="translate(-765.32 -406.697)" fill="#d3bba3"/>
      <rect id="Rectángulo_404768" data-name="Rectángulo 404768" width="12.931" height="11.073" transform="translate(49.139 57.062)" fill="#d3bba3"/>
      <rect id="Rectángulo_404769" data-name="Rectángulo 404769" width="12.931" height="11.073" transform="translate(47.594 55.517)" fill="#fff"/>
      <path id="Trazado_901339" data-name="Trazado 901339" d="M603.965,700.932H590.68V689.5h13.285Zm-12.931-.354h12.576V689.859H591.034Z" transform="translate(-543.263 -634.164)" fill="#8b865c"/>
      <path id="Trazado_901340" data-name="Trazado 901340" d="M800.658,708.757H789.086a.177.177,0,0,1,0-.355h11.572a.177.177,0,0,1,0,.355" transform="translate(-725.56 -651.543)" fill="#8b865c"/>
      <path id="Trazado_901341" data-name="Trazado 901341" d="M798.2,738.266h-9.114a.177.177,0,1,1,0-.354H798.2a.177.177,0,1,1,0,.354" transform="translate(-725.56 -678.681)" fill="#8b865c"/>
      <path id="Trazado_901342" data-name="Trazado 901342" d="M799.736,764.993h-10.65a.177.177,0,1,1,0-.354h10.65a.177.177,0,1,1,0,.354" transform="translate(-725.56 -703.259)" fill="#8b865c"/>
      <path id="Trazado_901343" data-name="Trazado 901343" d="M796.413,793.113h-7.327a.177.177,0,0,1,0-.355h7.327a.177.177,0,0,1,0,.355" transform="translate(-725.56 -729.119)" fill="#8b865c"/>
      <path id="Trazado_901344" data-name="Trazado 901344" d="M628.539,717.681a2.444,2.444,0,0,1,.626-.214l-.081-1.151a3.6,3.6,0,0,0-2.8,2.256l1.107.326a2.442,2.442,0,0,1,1.152-1.217" transform="translate(-576.003 -658.821)" fill="#efbc73"/>
      <path id="Trazado_901345" data-name="Trazado 901345" d="M624.521,753.13a2.439,2.439,0,0,1-.107-1.217l-1.107-.326a3.584,3.584,0,0,0,.182,2.059Z" transform="translate(-573.199 -691.257)" fill="#efbc73"/>
      <path id="Trazado_901346" data-name="Trazado 901346" d="M636.2,743.978l-1.032.516a2.453,2.453,0,0,1-4.354,2.177l-1.032.516a3.6,3.6,0,0,0,6.419-3.21" transform="translate(-579.219 -684.26)" fill="#d87355"/>
      <path id="Trazado_901347" data-name="Trazado 901347" d="M668.736,716.951a2.458,2.458,0,0,1,1.911,1.09l1.032-.516a3.607,3.607,0,0,0-3.024-1.725Z" transform="translate(-614.971 -658.347)" fill="#8b865c"/>
      <rect id="Rectángulo_404770" data-name="Rectángulo 404770" width="23.373" height="17.448" transform="translate(87.938 29.854) rotate(-84.328)" fill="#fff"/>
      <rect id="Rectángulo_404771" data-name="Rectángulo 404771" width="23.373" height="17.448" transform="matrix(0.471, -0.882, 0.882, 0.471, 79.32, 25.34)" fill="#efbc73"/>
      <path id="Trazado_901348" data-name="Trazado 901348" d="M1130.5,66.925a1.194,1.194,0,0,1-.564-.142h0a1.2,1.2,0,0,1-.493-1.626l1.656-3.1a1.2,1.2,0,0,1,2.119,1.133l-1.655,3.1a1.2,1.2,0,0,1-1.062.635m1.659-5.145a.849.849,0,0,0-.748.448l-1.655,3.1a.847.847,0,0,0,.348,1.146h0a.847.847,0,0,0,1.146-.348l1.655-3.1a.848.848,0,0,0-.746-1.247" transform="translate(-1038.588 -56.568)" fill="#fff"/>
      <path id="Trazado_901349" data-name="Trazado 901349" d="M1210.258,132.247a.177.177,0,0,1-.083-.021l-6.194-3.31a.177.177,0,1,1,.167-.313l6.194,3.311a.177.177,0,0,1-.083.333" transform="translate(-1107.184 -118.326)" fill="#fff"/>
      <path id="Trazado_901350" data-name="Trazado 901350" d="M1200.381,150.726a.179.179,0,0,1-.084-.021l-6.193-3.311a.177.177,0,1,1,.167-.313l6.193,3.311a.177.177,0,0,1-.083.333" transform="translate(-1098.101 -135.321)" fill="#fff"/>
      <path id="Trazado_901351" data-name="Trazado 901351" d="M1190.5,169.2a.178.178,0,0,1-.084-.021l-6.194-3.311a.177.177,0,1,1,.167-.313l6.194,3.311a.177.177,0,0,1-.083.333" transform="translate(-1089.017 -152.314)" fill="#fff"/>
      <path id="Trazado_901352" data-name="Trazado 901352" d="M1092.9,188.31a.178.178,0,0,1-.083-.021L1080.68,181.8a.177.177,0,1,1,.167-.313l12.135,6.486a.177.177,0,0,1-.084.333" transform="translate(-993.793 -166.963)" fill="#fff"/>
      <path id="Trazado_901353" data-name="Trazado 901353" d="M1083.022,206.785a.177.177,0,0,1-.083-.021l-12.135-6.486a.177.177,0,1,1,.167-.313l12.135,6.486a.177.177,0,0,1-.084.333" transform="translate(-984.711 -183.953)" fill="#fff"/>
      <path id="Trazado_901354" data-name="Trazado 901354" d="M1445.789,1400.192h10.452l2.194-27.693h-13.011Z" transform="translate(-1329.306 -1262.264)" fill="#9e6c5a"/>
      <path id="Trazado_901355" data-name="Trazado 901355" d="M1358.149,1666.432h18.223v-8.337h-9.886A8.337,8.337,0,0,0,1358.149,1666.432Z" transform="translate(-1249.047 -1524.903)" fill="#e6d0be"/>
      <path id="Trazado_901356" data-name="Trazado 901356" d="M1443.112,1658.51a.177.177,0,0,1-.125-.052l-1.608-1.608a.177.177,0,0,1,.25-.251l1.608,1.608a.177.177,0,0,1-.125.3" transform="translate(-1325.54 -1523.481)" fill="#363e44"/>
      <path id="Trazado_901357" data-name="Trazado 901357" d="M1420.37,1665.334a.176.176,0,0,1-.125-.052l-1.608-1.608a.177.177,0,0,1,.25-.251l1.608,1.608a.177.177,0,0,1-.125.3" transform="translate(-1304.625 -1529.756)" fill="#363e44"/>
      <path id="Trazado_901358" data-name="Trazado 901358" d="M1125.318,1398.49l10.106,1.78,6.007-23.658-12.824-2.2Z" transform="translate(-1034.929 -1264.026)" fill="#9e6c5a"/>
      <path id="Trazado_901359" data-name="Trazado 901359" d="M1034.165,1666.432h18.224v-8.337H1042.5A8.337,8.337,0,0,0,1034.165,1666.432Z" transform="translate(-951.103 -1524.903)" fill="#fff"/>
      <path id="Trazado_901360" data-name="Trazado 901360" d="M1119.129,1658.51a.176.176,0,0,1-.125-.052l-1.608-1.608a.177.177,0,0,1,.25-.251l1.608,1.608a.177.177,0,0,1-.125.3" transform="translate(-1027.596 -1523.481)" fill="#363e44"/>
      <path id="Trazado_901361" data-name="Trazado 901361" d="M1096.385,1665.334a.178.178,0,0,1-.125-.052l-1.608-1.608a.177.177,0,0,1,.25-.251l1.608,1.608a.177.177,0,0,1-.125.3" transform="translate(-1006.681 -1529.756)" fill="#363e44"/>
      <path id="Trazado_901362" data-name="Trazado 901362" d="M1153.866,802.289a81.448,81.448,0,0,1,4.539,23.347c.927,15.221-2.089,30.788-3.943,41.53h-13.4c-.417-11.136-1.2-22.273-1.615-33.41-3.514,11.077-6.662,22.154-10.176,33.231h-14.294a164.013,164.013,0,0,1,17.867-65.212c7.933.138,13.889.466,21.022.513" transform="translate(-1025.419 -737.412)" fill="#363e44"/>
      <path id="Trazado_901363" data-name="Trazado 901363" d="M1147.7,573.79c-8.824,3.663-13.131,6.774-11.471,10,.963,1.872,7.223,1.555,14.339-.967-.716-2.933-1.922-5.5-2.867-9.034" transform="translate(-1044.645 -527.751)" fill="#9e6c5a"/>
      <path id="Trazado_901364" data-name="Trazado 901364" d="M1567.54,570.581c3.285,3.51,13.355,13.1,9.5,17.009-3.188,3.231-12.605-6.516-16.082-9.805l6.582-7.2" transform="translate(-1435.555 -524.8)" fill="#9e6c5a"/>
      <path id="Trazado_901365" data-name="Trazado 901365" d="M1300.349,521.882s-8.794-4.181-16.867-3.46a64.653,64.653,0,0,0-15.966,3.893l3.856,9.8-1.153,12.351,28.545-2.756-2.162-8.983Z" transform="translate(-1165.698 -476.756)" fill="#fd9826"/>
      <path id="Trazado_901366" data-name="Trazado 901366" d="M1057.76,430.1h0c-3.16-8.049-5.248-13.82-5.963-15.576a3.486,3.486,0,0,0-.484-.87c-1.03-1.337-2.432-1.021-4.157-1.933-1.957-1.035-2.473-2.725-3-2.513-.365.147-.349.84.193,2.126h0c-.525-.93-1.291-2.16-1.8-1.868-.574.368.156,1.919.644,2.836-.591-1.109-1.237-1.523-1.482-1.289-.387.368-.129,1.335.709,2.771h0c-.855-.83-1.186-.9-1.353-.644-.3.474.406,1.642,1.193,2.577a7.058,7.058,0,0,0,2.609,1.869h0c1.629,5.867,2.669,9.642,3.888,14.407a1.717,1.717,0,0,0,2.23,1.195,31.53,31.53,0,0,0,6.772-3.086" transform="translate(-957.384 -376.381)" fill="#9e6c5a"/>
      <path id="Trazado_901367" data-name="Trazado 901367" d="M1221.979,601.579a.177.177,0,0,1-.165-.113q-.517-1.335-.986-2.561a.177.177,0,0,1,.331-.127q.468,1.223.986,2.559a.177.177,0,0,1-.1.229.175.175,0,0,1-.064.012" transform="translate(-1122.751 -550.626)" fill="#363e44"/>
      <path id="Trazado_901368" data-name="Trazado 901368" d="M1129.845,420.371c-.668-2.086-.468-2.98-.134-3.075.562-.16,1.861,1.387,3.222,4.312-.891-.267-2.2-.969-3.089-1.237" transform="translate(-1038.686 -383.825)" fill="#e2a18d"/>
      <path id="Trazado_901369" data-name="Trazado 901369" d="M1096.492,476.692a.178.178,0,0,1-.169-.123,2.632,2.632,0,0,0-.851-1.253,2.722,2.722,0,0,0-1.831-.576.18.18,0,0,1-.187-.166.177.177,0,0,1,.167-.187,3.063,3.063,0,0,1,2.074.654,2.99,2.99,0,0,1,.967,1.421.177.177,0,0,1-.169.231" transform="translate(-1005.626 -436.332)" fill="#363e44"/>
      <path id="Trazado_901370" data-name="Trazado 901370" d="M1132.183,446.48a.176.176,0,0,1-.085-.022,6.054,6.054,0,0,0-1.345-.472c-.236-.063-.48-.128-.734-.209a.177.177,0,0,1,.106-.338c.247.078.488.142.72.2a6.3,6.3,0,0,1,1.424.5.177.177,0,0,1-.085.333" transform="translate(-1039.138 -409.709)" fill="#363e44"/>
      <path id="Trazado_901371" data-name="Trazado 901371" d="M1082.96,435.422a.178.178,0,0,1-.089-.024,4.506,4.506,0,0,1-1.475-1.382.177.177,0,0,1,.294-.2,4.148,4.148,0,0,0,1.359,1.274.177.177,0,0,1-.089.33" transform="translate(-994.51 -398.957)" fill="#363e44"/>
      <path id="Trazado_901372" data-name="Trazado 901372" d="M1067.642,445.635a.177.177,0,0,1-.089-.024,4.5,4.5,0,0,1-1.475-1.382.177.177,0,1,1,.294-.2,4.153,4.153,0,0,0,1.359,1.274.177.177,0,0,1-.089.33" transform="translate(-980.423 -408.348)" fill="#363e44"/>
      <path id="Trazado_901373" data-name="Trazado 901373" d="M1058.452,466.058a.177.177,0,0,1-.089-.024,4.5,4.5,0,0,1-1.475-1.382.177.177,0,0,1,.294-.2,4.148,4.148,0,0,0,1.359,1.274.177.177,0,0,1-.089.33" transform="translate(-971.972 -427.13)" fill="#363e44"/>
      <path id="Trazado_901374" data-name="Trazado 901374" d="M1409.6,341.3a4.689,4.689,0,0,0-3.967-.221c-1.337.661-1.992,1.945-2.765,4.264-.91,2.731-1.072,4.491-.522,5.33.869,1.325,5.251.958,7.565-.8a5.784,5.784,0,0,0,2.085-5.558,4.342,4.342,0,0,0-2.4-3.012" transform="translate(-1289.402 -313.411)" fill="#9e6c5a"/>
      <path id="Trazado_901375" data-name="Trazado 901375" d="M1435.556,427.876h.188a2.454,2.454,0,0,0,2.454-2.454v-7.562a2.454,2.454,0,0,0-2.454-2.454h-.188a2.454,2.454,0,0,0-2.454,2.454v7.562a2.454,2.454,0,0,0,2.454,2.454" transform="translate(-1317.975 -382.098)" fill="#9e6c5a"/>
      <path id="Trazado_901376" data-name="Trazado 901376" d="M1431.92,454.37l-.186,0a.177.177,0,0,1-.173-.182.175.175,0,0,1,.182-.173,8.915,8.915,0,0,0,5.219-1.562.177.177,0,0,1,.215.282,9.283,9.283,0,0,1-5.256,1.637" transform="translate(-1316.559 -416.131)" fill="#363e44"/>
      <path id="Trazado_901377" data-name="Trazado 901377" d="M1521.66,310.5a4.013,4.013,0,1,0,4.913-2.839,4.012,4.012,0,0,0-4.913,2.839" transform="translate(-1399.289 -282.886)" fill="#363e44"/>
      <path id="Trazado_901378" data-name="Trazado 901378" d="M1527.047,338.772a6.386,6.386,0,0,1-1.646-.222c-2.44-.653-4.055-2.57-3.6-4.274s2.812-2.559,5.252-1.906a5.719,5.719,0,0,1,2.868,1.716,2.59,2.59,0,0,1-1.18,4.411,5.1,5.1,0,0,1-1.7.276m-4.9-4.4c-.405,1.515,1.1,3.238,3.348,3.84a5.363,5.363,0,0,0,3.132-.046,2.24,2.24,0,0,0,1.029-3.846,5.364,5.364,0,0,0-2.691-1.6c-2.252-.6-4.413.14-4.818,1.656" transform="translate(-1399.475 -305.533)" fill="#363e44"/>
      <path id="Trazado_901379" data-name="Trazado 901379" d="M1525.789,334.029a5.2,5.2,0,0,1-3.755-2c-1.63-1.93-1.859-4.426-.511-5.564a2.806,2.806,0,0,1,2.626-.428,5.722,5.722,0,0,1,2.774,1.865c1.63,1.93,1.859,4.426.511,5.564a2.5,2.5,0,0,1-1.645.562m-4.037-7.292c-1.2,1.012-.95,3.284.553,5.065s3.7,2.406,4.9,1.394.95-3.284-.553-5.065a5.365,5.365,0,0,0-2.6-1.752,2.465,2.465,0,0,0-2.3.357" transform="translate(-1398.483 -299.783)" fill="#363e44"/>
      <path id="Trazado_901380" data-name="Trazado 901380" d="M1434.505,335.588c1.695-2.447,6.117-1.953,7.96.211,1.971,2.314,1.312,5.8,0,7.524-.779,1.024-2.414,2.327-3.222,1.675-.978-.788.5-2.549-.478-5.211-.752-2.056-3.593-2.537-4.263-4.2" transform="translate(-1319.266 -307.192)" fill="#363e44"/>
      <path id="Trazado_901381" data-name="Trazado 901381" d="M1468.525,407.143a1.554,1.554,0,1,0,2.371-.087,1.69,1.69,0,0,0-2.371.087" transform="translate(-1349.944 -374.009)" fill="#9e6c5a"/>
      <path id="Trazado_901382" data-name="Trazado 901382" d="M1491.557,417.061a.177.177,0,0,1-.1-.327.9.9,0,0,0,.124-.095.685.685,0,0,0,.145-.946.5.5,0,0,0-.19-.129.177.177,0,0,1,.128-.331.846.846,0,0,1,.325.221,1.036,1.036,0,0,1-.169,1.446,1.262,1.262,0,0,1-.172.132.175.175,0,0,1-.095.028" transform="translate(-1371.569 -381.928)" fill="#363e44"/>
      <path id="Trazado_901383" data-name="Trazado 901383" d="M1455.37,400.812a3.737,3.737,0,0,0-1.49-.677c-.182-.034-.115,1.484.073,1.434a3.749,3.749,0,0,0,1.416-.757" transform="translate(-1336.986 -368.053)" fill="#fff"/>
      <path id="Trazado_901384" data-name="Trazado 901384" d="M1424.978,399.546a2.631,2.631,0,0,1,.569.048,1.469,1.469,0,0,1,.076,1.433,2.647,2.647,0,0,1-.6.089,3.514,3.514,0,0,1-2.06-.724,3.514,3.514,0,0,1,2.013-.846" transform="translate(-1308.653 -367.511)" fill="#373e44"/>
      <path id="Trazado_901385" data-name="Trazado 901385" d="M1418.181,434.325a.762.762,0,0,1-.585-.28.177.177,0,0,1,.274-.225.388.388,0,0,0,.445.124.421.421,0,0,0,.219-.307.177.177,0,0,1,.352.045.763.763,0,0,1-.431.588.7.7,0,0,1-.274.056" transform="translate(-1303.678 -398.721)" fill="#363e44"/>
      <path id="Trazado_901386" data-name="Trazado 901386" d="M1404.427,405.144a.178.178,0,0,1-.135-.062c-.247-.29-.33-.529-.253-.731a.523.523,0,0,1,.26-.26,1.031,1.031,0,0,0,.2-.145.938.938,0,0,0,.241-.386.177.177,0,0,1,.336.115,1.294,1.294,0,0,1-.333.529,1.369,1.369,0,0,1-.267.193c-.069.041-.1.061-.108.081-.018.048.021.175.191.374a.177.177,0,0,1-.135.292" transform="translate(-1291.223 -371.092)" fill="#363e44"/>
      <path id="Trazado_901387" data-name="Trazado 901387" d="M1444.366,751.7a.177.177,0,0,1-.151-.085l-1.5-2.45a.177.177,0,0,1,.3-.185l1.5,2.45a.177.177,0,0,1-.151.27" transform="translate(-1326.79 -688.784)" fill="#363e44"/>
      <path id="Trazado_901388" data-name="Trazado 901388" d="M1454.922,745.179a.177.177,0,0,1-.151-.085l-1.5-2.45a.177.177,0,1,1,.3-.185l1.5,2.45a.177.177,0,0,1-.151.27" transform="translate(-1336.498 -682.785)" fill="#363e44"/>
      <path id="Trazado_901389" data-name="Trazado 901389" d="M1437.409,741.455a1.625,1.625,0,0,1-.364-.041,1.605,1.605,0,0,1-1.008-.716l-4.511-7.19a.8.8,0,0,1,.253-1.1l1.381-.866a.8.8,0,0,1,1.1.253l4.511,7.19a1.617,1.617,0,0,1-1.366,2.475m-3.824-9.686a.443.443,0,0,0-.236.068l-1.381.866a.447.447,0,0,0-.141.615l4.511,7.19a1.261,1.261,0,1,0,2.137-1.341l-4.511-7.19a.447.447,0,0,0-.379-.209" transform="translate(-1316.414 -672.707)" fill="#363e44"/>
      <path id="Trazado_901390" data-name="Trazado 901390" d="M1376.5,640.261a.178.178,0,0,1-.151-.083l-5.134-8.183a.177.177,0,0,1,.056-.244l1.383-.868a.176.176,0,0,1,.244.056l5.134,8.183a.176.176,0,0,1-.056.244l-1.383.868a.175.175,0,0,1-.094.027m-4.89-8.3,4.946,7.883,1.083-.679-4.946-7.882Z" transform="translate(-1261.039 -580.229)" fill="#363e44"/>
      <path id="Trazado_901391" data-name="Trazado 901391" d="M1239.985,490.575a9.247,9.247,0,1,0,5.236-11.983,9.247,9.247,0,0,0-5.236,11.983" transform="translate(-1139.792 -439.616)" fill="#efbc73"/>
      <path id="Trazado_901392" data-name="Trazado 901392" d="M1246.59,494.572a9.449,9.449,0,1,1,3.441-.655,9.4,9.4,0,0,1-3.441.655m0-18.5a9.09,9.09,0,1,0,3.629.764,9.064,9.064,0,0,0-3.629-.764m8.362,13.017h0Z" transform="translate(-1137.79 -437.557)" fill="#fff"/>
      <path id="Trazado_901393" data-name="Trazado 901393" d="M1345.62,638.045q-.3,0-.608-.026a.177.177,0,1,1,.03-.353,6.78,6.78,0,0,0,6.429-3.354.177.177,0,0,1,.307.178,7.14,7.14,0,0,1-6.157,3.555" transform="translate(-1236.816 -583.326)" fill="#fff"/>
      <path id="Trazado_901394" data-name="Trazado 901394" d="M1265.841,557.651a.177.177,0,0,1-.176-.158,7.118,7.118,0,0,1,.659-3.836.177.177,0,0,1,.32.153,6.767,6.767,0,0,0-.626,3.645.177.177,0,0,1-.157.2h-.019" transform="translate(-1163.958 -509.143)" fill="#fff"/>
      <path id="Trazado_901395" data-name="Trazado 901395" d="M1282.5,507.575a.177.177,0,0,1-.143-.282,7.138,7.138,0,0,1,6.2-2.906.177.177,0,0,1,.166.188.175.175,0,0,1-.188.166,6.783,6.783,0,0,0-5.888,2.762.177.177,0,0,1-.143.073" transform="translate(-1179.312 -463.913)" fill="#fff"/>
      <path id="Trazado_901396" data-name="Trazado 901396" d="M1431.982,591.338a.177.177,0,0,1-.163-.246,6.818,6.818,0,0,0,.529-2.847.177.177,0,0,1,.172-.183.173.173,0,0,1,.183.171,7.174,7.174,0,0,1-.557,3,.177.177,0,0,1-.163.108" transform="translate(-1316.782 -540.876)" fill="#fff"/>
      <path id="Trazado_901397" data-name="Trazado 901397" d="M1448.61,693.408c-3.713.808-12.551,2.278-13.408,2.455-1.6.333-10.153,2.339-10,3.6.075.6,1.739.292,2.3.17-.4.322-1.256.921-1,1.553.3.744,1.671.247,1.714.254-.443.285-1.114.873-.94,1.355.226.627,1.068.618,1.654.446-.038.1-.7.754-.548,1.132.171.419.911.5,1.662.4,1.424-.294,7.017-1.141,9.754-1.422a51.047,51.047,0,0,0,11.463-2.265c1.194-.339-.832-6.757-2.654-7.687" transform="translate(-1310.71 -637.754)" fill="#9e6c5a"/>
      <path id="Trazado_901398" data-name="Trazado 901398" d="M1630.344,691.8a.177.177,0,0,1-.032-.352c1.8-.327,5.519-1.013,6.752-1.267a.177.177,0,1,1,.072.347c-1.236.255-4.963.941-6.76,1.269a.171.171,0,0,1-.032,0" transform="translate(-1499.201 -634.788)" fill="#363e44"/>
      <path id="Trazado_901399" data-name="Trazado 901399" d="M1451.406,756.824a.177.177,0,0,1-.093-.328,7.639,7.639,0,0,1,2.739-1.035.177.177,0,0,1,.06.349,7.3,7.3,0,0,0-2.613.987.176.176,0,0,1-.093.027" transform="translate(-1334.645 -694.818)" fill="#363e44"/>
      <path id="Trazado_901400" data-name="Trazado 901400" d="M1460.2,784a.177.177,0,0,1-.076-.337q.1-.048.2-.094a7.7,7.7,0,0,1,1.808-.544.177.177,0,0,1,.06.349,7.351,7.351,0,0,0-1.724.519c-.066.029-.131.059-.195.089a.177.177,0,0,1-.076.017" transform="translate(-1342.728 -720.171)" fill="#363e44"/>
      <path id="Trazado_901401" data-name="Trazado 901401" d="M1470.014,810.231a.177.177,0,0,1-.057-.345,7.749,7.749,0,0,1,1.2-.306.177.177,0,0,1,.06.349,7.363,7.363,0,0,0-1.144.292.185.185,0,0,1-.057.009" transform="translate(-1351.757 -744.587)" fill="#363e44"/>
      <path id="Trazado_901402" data-name="Trazado 901402" d="M766.788,1171.051l-27.434-18.514,3.254-7.642,27.435,18.514Z" transform="translate(-679.987 -1052.953)" fill="#84524d"/>
      <path id="Trazado_901403" data-name="Trazado 901403" d="M796.786,1202.284l-23.046-15.552,1.8-4.234,23.046,15.552Z" transform="translate(-711.61 -1087.533)" fill="#efbc73"/>
      <rect id="Rectángulo_404772" data-name="Rectángulo 404772" width="26.882" height="33.097" transform="translate(44.349 121.836) rotate(-55.986)" fill="#84524d"/>
      <rect id="Rectángulo_404773" data-name="Rectángulo 404773" width="4.187" height="4.187" transform="translate(67.664 135.424) rotate(-55.986)" fill="#efbc73"/>
      <rect id="Rectángulo_404774" data-name="Rectángulo 404774" width="4.187" height="4.187" transform="translate(71.259 130.097) rotate(-55.986)" fill="#efbc73"/>
      <rect id="Rectángulo_404775" data-name="Rectángulo 404775" width="4.187" height="4.187" transform="translate(74.854 124.77) rotate(-55.986)" fill="#fff"/>
      <rect id="Rectángulo_404776" data-name="Rectángulo 404776" width="4.187" height="4.187" transform="translate(78.449 119.443) rotate(-55.986)" fill="#fff"/>
      <rect id="Rectángulo_404777" data-name="Rectángulo 404777" width="4.187" height="4.187" transform="translate(62.477 131.923) rotate(-55.986)" fill="#fff"/>
      <rect id="Rectángulo_404778" data-name="Rectángulo 404778" width="4.187" height="4.187" transform="translate(66.072 126.596) rotate(-55.986)" fill="#fff"/>
      <rect id="Rectángulo_404779" data-name="Rectángulo 404779" width="4.187" height="4.187" transform="translate(69.667 121.269) rotate(-55.986)" fill="#fff"/>
      <rect id="Rectángulo_404780" data-name="Rectángulo 404780" width="4.187" height="4.187" transform="translate(73.262 115.942) rotate(-55.986)" fill="#fff"/>
      <rect id="Rectángulo_404781" data-name="Rectángulo 404781" width="4.187" height="4.187" transform="translate(57.29 128.423) rotate(-55.986)" fill="#fff"/>
      <rect id="Rectángulo_404782" data-name="Rectángulo 404782" width="4.187" height="4.187" transform="translate(60.885 123.096) rotate(-55.986)" fill="#fff"/>
      <rect id="Rectángulo_404783" data-name="Rectángulo 404783" width="4.187" height="4.187" transform="translate(64.48 117.769) rotate(-55.986)" fill="#fff"/>
      <rect id="Rectángulo_404784" data-name="Rectángulo 404784" width="4.187" height="4.187" transform="translate(68.075 112.442) rotate(-55.986)" fill="#fff"/>
      <rect id="Rectángulo_404785" data-name="Rectángulo 404785" width="4.187" height="4.187" transform="translate(52.103 124.923) rotate(-55.986)" fill="#fff"/>
      <rect id="Rectángulo_404786" data-name="Rectángulo 404786" width="4.187" height="4.187" transform="translate(55.698 119.596) rotate(-55.986)" fill="#fff"/>
      <rect id="Rectángulo_404787" data-name="Rectángulo 404787" width="4.187" height="4.187" transform="translate(59.293 114.269) rotate(-55.986)" fill="#fff"/>
      <rect id="Rectángulo_404788" data-name="Rectángulo 404788" width="4.187" height="4.187" transform="translate(62.888 108.942) rotate(-55.986)" fill="#efbc73"/>
      <rect id="Rectángulo_404789" data-name="Rectángulo 404789" width="10.335" height="4.187" transform="translate(46.917 121.422) rotate(-55.986)" fill="#fff"/>
      <rect id="Rectángulo_404790" data-name="Rectángulo 404790" width="4.187" height="4.187" transform="translate(54.106 110.768) rotate(-55.986)" fill="#fff"/>
      <rect id="Rectángulo_404791" data-name="Rectángulo 404791" width="4.187" height="4.187" transform="translate(57.701 105.441) rotate(-55.986)" fill="#efbc73"/>
      <path id="Trazado_901404" data-name="Trazado 901404" d="M368.055,1738.209c0,1.85-4.736,3.349-10.577,3.349s-10.577-1.5-10.577-3.349,4.736-3.349,10.577-3.349,10.577,1.5,10.577,3.349" transform="translate(-319.077 -1595.499)" fill="#e0aa63"/>
      <rect id="Rectángulo_404792" data-name="Rectángulo 404792" width="21.155" height="3.451" transform="translate(27.823 139.374)" fill="#e0aa63"/>
      <path id="Trazado_901405" data-name="Trazado 901405" d="M368.055,1697.512c0,1.85-4.736,3.35-10.577,3.35s-10.577-1.5-10.577-3.35,4.736-3.349,10.577-3.349,10.577,1.5,10.577,3.349" transform="translate(-319.077 -1558.073)" fill="#efbc73"/>
      <path id="Trazado_901406" data-name="Trazado 901406" d="M370.953,1699.011c-6.031,0-10.755-1.549-10.755-3.526s4.724-3.527,10.755-3.527,10.755,1.549,10.755,3.527-4.724,3.526-10.755,3.526m0-6.7c-5.637,0-10.4,1.453-10.4,3.172s4.763,3.172,10.4,3.172,10.4-1.452,10.4-3.172-4.763-3.172-10.4-3.172" transform="translate(-331.307 -1556.045)" fill="#fff"/>
      <path id="Trazado_901407" data-name="Trazado 901407" d="M395.186,1670.381c0,1.85-4.736,3.349-10.577,3.349s-10.577-1.5-10.577-3.349,4.736-3.349,10.577-3.349,10.577,1.5,10.577,3.349" transform="translate(-344.028 -1533.123)" fill="#e0aa63"/>
      <rect id="Rectángulo_404793" data-name="Rectángulo 404793" width="21.155" height="3.451" transform="translate(30.003 133.922)" fill="#e0aa63"/>
      <path id="Trazado_901408" data-name="Trazado 901408" d="M395.186,1629.684c0,1.85-4.736,3.349-10.577,3.349s-10.577-1.5-10.577-3.349,4.736-3.349,10.577-3.349,10.577,1.5,10.577,3.349" transform="translate(-344.028 -1495.697)" fill="#efbc73"/>
      <path id="Trazado_901409" data-name="Trazado 901409" d="M398.085,1631.183c-6.031,0-10.755-1.549-10.755-3.526s4.724-3.526,10.755-3.526,10.755,1.549,10.755,3.526-4.724,3.526-10.755,3.526m0-6.7c-5.637,0-10.4,1.452-10.4,3.172s4.763,3.172,10.4,3.172,10.4-1.453,10.4-3.172-4.763-3.172-10.4-3.172" transform="translate(-356.258 -1493.669)" fill="#fff"/>
      <path id="Trazado_901410" data-name="Trazado 901410" d="M342.7,1505.224c-1.314,1.3-5.712-1.007-9.823-5.157s-6.379-8.57-5.064-9.872,5.712,1.007,9.823,5.157,6.379,8.57,5.065,9.872" transform="translate(-301.185 -1370.166)" fill="#e0aa63"/>
      <rect id="Rectángulo_404794" data-name="Rectángulo 404794" width="3.451" height="21.155" transform="translate(26.551 120.11) rotate(-44.73)" fill="#e0aa63"/>
      <path id="Trazado_901411" data-name="Trazado 901411" d="M371.616,1476.583c-1.314,1.3-5.712-1.008-9.823-5.158s-6.379-8.57-5.065-9.871,5.712,1.007,9.823,5.157,6.379,8.57,5.065,9.872" transform="translate(-327.773 -1343.826)" fill="#efbc73"/>
      <path id="Trazado_901412" data-name="Trazado 901412" d="M379.512,1486.165c-1.987,0-5.5-2.137-8.9-5.568-4.244-4.284-6.468-8.73-5.063-10.122s5.83.874,10.074,5.158a25.989,25.989,0,0,1,4.6,6.048c.995,1.939,1.16,3.386.465,4.074a1.6,1.6,0,0,1-1.173.409m-12.782-15.756a1.277,1.277,0,0,0-.932.318c-1.222,1.21,1.1,5.616,5.066,9.621s8.351,6.366,9.573,5.156c.568-.562.374-1.9-.531-3.661a25.624,25.624,0,0,0-4.535-5.96c-3.261-3.292-6.8-5.474-8.64-5.474" transform="translate(-335.84 -1351.988)" fill="#fff"/>
      <path id="Trazado_901413" data-name="Trazado 901413" d="M28.782,1677.293c0,1.85-4.736,3.349-10.577,3.349s-10.577-1.5-10.577-3.349,4.736-3.349,10.577-3.349,10.577,1.5,10.577,3.349" transform="translate(-7.074 -1539.479)" fill="#e0aa63"/>
      <rect id="Rectángulo_404795" data-name="Rectángulo 404795" width="21.155" height="3.451" transform="translate(0.553 134.477)" fill="#e0aa63"/>
      <path id="Trazado_901414" data-name="Trazado 901414" d="M28.782,1636.6c0,1.85-4.736,3.349-10.577,3.349s-10.577-1.5-10.577-3.349,4.736-3.349,10.577-3.349,10.577,1.5,10.577,3.349" transform="translate(-7.074 -1502.053)" fill="#efbc73"/>
      <path id="Trazado_901415" data-name="Trazado 901415" d="M31.68,1638.094c-6.031,0-10.755-1.549-10.755-3.527s4.724-3.526,10.755-3.526,10.755,1.549,10.755,3.526-4.724,3.527-10.755,3.527m0-6.7c-5.637,0-10.4,1.453-10.4,3.172s4.763,3.172,10.4,3.172,10.4-1.453,10.4-3.172-4.763-3.172-10.4-3.172" transform="translate(-19.303 -1500.025)" fill="#fff"/>
    </g>
  </g>
</svg>
